%TF.GenerationSoftware,KiCad,Pcbnew,9.0.9-9.0.9~ubuntu24.04.1*%
%TF.CreationDate,2026-09-01T08:34:25+02:00*%
%TF.ProjectId,daughtercard,64617567-6874-4657-9263-6172642e6b69,rev?*%
%TF.SameCoordinates,Original*%
%TF.FileFunction,Copper,L1,Top*%
%TF.FilePolarity,Positive*%
%FSLAX46Y46*%
G04 Gerber Fmt 4.6, Leading zero omitted, Abs format (unit mm)*
G04 Created by KiCad (PCBNEW 9.0.9-9.0.9~ubuntu24.04.1) date 2026-09-01 08:34:25*
%MOMM*%
%LPD*%
G01*
G04 APERTURE LIST*
G04 Aperture macros list*
%AMRoundRect*
0 Rectangle with rounded corners*
0 $1 Rounding radius*
0 $2 $3 $4 $5 $6 $7 $8 $9 X,Y pos of 4 corners*
0 Add a 4 corners polygon primitive as box body*
4,1,4,$2,$3,$4,$5,$6,$7,$8,$9,$2,$3,0*
0 Add four circle primitives for the rounded corners*
1,1,$1+$1,$2,$3*
1,1,$1+$1,$4,$5*
1,1,$1+$1,$6,$7*
1,1,$1+$1,$8,$9*
0 Add four rect primitives between the rounded corners*
20,1,$1+$1,$2,$3,$4,$5,0*
20,1,$1+$1,$4,$5,$6,$7,0*
20,1,$1+$1,$6,$7,$8,$9,0*
20,1,$1+$1,$8,$9,$2,$3,0*%
G04 Aperture macros list end*
%TA.AperFunction,SMDPad,CuDef*%
%ADD10RoundRect,0.250000X-0.250000X-0.475000X0.250000X-0.475000X0.250000X0.475000X-0.250000X0.475000X0*%
%TD*%
%TA.AperFunction,SMDPad,CuDef*%
%ADD11RoundRect,0.250000X0.625000X-0.312500X0.625000X0.312500X-0.625000X0.312500X-0.625000X-0.312500X0*%
%TD*%
%TA.AperFunction,SMDPad,CuDef*%
%ADD12C,1.500000*%
%TD*%
%TA.AperFunction,SMDPad,CuDef*%
%ADD13RoundRect,0.250000X-0.262500X-0.450000X0.262500X-0.450000X0.262500X0.450000X-0.262500X0.450000X0*%
%TD*%
%TA.AperFunction,SMDPad,CuDef*%
%ADD14RoundRect,0.150000X-0.587500X-0.150000X0.587500X-0.150000X0.587500X0.150000X-0.587500X0.150000X0*%
%TD*%
%TA.AperFunction,ComponentPad*%
%ADD15RoundRect,0.250000X-1.050000X-1.050000X1.050000X-1.050000X1.050000X1.050000X-1.050000X1.050000X0*%
%TD*%
%TA.AperFunction,ComponentPad*%
%ADD16C,2.600000*%
%TD*%
%TA.AperFunction,SMDPad,CuDef*%
%ADD17R,1.000000X1.500000*%
%TD*%
%TA.AperFunction,SMDPad,CuDef*%
%ADD18R,1.500000X1.000000*%
%TD*%
%TA.AperFunction,ComponentPad*%
%ADD19RoundRect,0.250000X0.600000X-0.600000X0.600000X0.600000X-0.600000X0.600000X-0.600000X-0.600000X0*%
%TD*%
%TA.AperFunction,ComponentPad*%
%ADD20C,1.700000*%
%TD*%
%TA.AperFunction,ComponentPad*%
%ADD21R,1.700000X1.700000*%
%TD*%
%TA.AperFunction,SMDPad,CuDef*%
%ADD22RoundRect,0.150000X-0.875000X-0.150000X0.875000X-0.150000X0.875000X0.150000X-0.875000X0.150000X0*%
%TD*%
%TA.AperFunction,ComponentPad*%
%ADD23RoundRect,0.250000X1.050000X1.050000X-1.050000X1.050000X-1.050000X-1.050000X1.050000X-1.050000X0*%
%TD*%
%TA.AperFunction,SMDPad,CuDef*%
%ADD24RoundRect,0.250000X0.450000X-0.262500X0.450000X0.262500X-0.450000X0.262500X-0.450000X-0.262500X0*%
%TD*%
%TA.AperFunction,SMDPad,CuDef*%
%ADD25RoundRect,0.150000X-0.825000X-0.150000X0.825000X-0.150000X0.825000X0.150000X-0.825000X0.150000X0*%
%TD*%
%TA.AperFunction,SMDPad,CuDef*%
%ADD26RoundRect,0.243750X-0.243750X-0.456250X0.243750X-0.456250X0.243750X0.456250X-0.243750X0.456250X0*%
%TD*%
%TA.AperFunction,SMDPad,CuDef*%
%ADD27RoundRect,0.250000X0.475000X-0.250000X0.475000X0.250000X-0.475000X0.250000X-0.475000X-0.250000X0*%
%TD*%
%TA.AperFunction,SMDPad,CuDef*%
%ADD28RoundRect,0.250000X0.650000X-0.325000X0.650000X0.325000X-0.650000X0.325000X-0.650000X-0.325000X0*%
%TD*%
%TA.AperFunction,ViaPad*%
%ADD29C,0.600000*%
%TD*%
%TA.AperFunction,ViaPad*%
%ADD30C,0.800000*%
%TD*%
%TA.AperFunction,Conductor*%
%ADD31C,0.500000*%
%TD*%
%TA.AperFunction,Conductor*%
%ADD32C,0.375000*%
%TD*%
G04 APERTURE END LIST*
D10*
%TO.P,C4,1*%
%TO.N,/PULSE_BLATT*%
X17050000Y-26000000D03*
%TO.P,C4,2*%
%TO.N,/GND*%
X18950000Y-26000000D03*
%TD*%
D11*
%TO.P,R14,1*%
%TO.N,/+5V*%
X45500000Y-21500000D03*
%TO.P,R14,2*%
%TO.N,/VSENS*%
X45500000Y-18575000D03*
%TD*%
D12*
%TO.P,TP3,1*%
%TO.N,/PULSE_NULL_RAW*%
X3500000Y-33000000D03*
%TD*%
D13*
%TO.P,R11,1*%
%TO.N,/CHAIN_IN_RAW*%
X39175000Y-43000000D03*
%TO.P,R11,2*%
%TO.N,/CHAIN_IN*%
X41000000Y-43000000D03*
%TD*%
D14*
%TO.P,D1,1*%
%TO.N,/GND*%
X22062500Y-25050000D03*
%TO.P,D1,2*%
%TO.N,/+5V*%
X22062500Y-26950000D03*
%TO.P,D1,3*%
%TO.N,/PULSE_BLATT*%
X23937500Y-26000000D03*
%TD*%
D13*
%TO.P,R5,1*%
%TO.N,/+5V*%
X7087500Y-40000000D03*
%TO.P,R5,2*%
%TO.N,/PULSE_NULL_RAW*%
X8912500Y-40000000D03*
%TD*%
D15*
%TO.P,J4,1*%
%TO.N,/AC1*%
X50920000Y-53000000D03*
D16*
%TO.P,J4,2*%
%TO.N,/AC2*%
X56000000Y-53000000D03*
%TD*%
D13*
%TO.P,R2,1*%
%TO.N,/PULSE_BLATT_RAW*%
X12087500Y-26000000D03*
%TO.P,R2,2*%
%TO.N,/PULSE_BLATT*%
X13912500Y-26000000D03*
%TD*%
D17*
%TO.P,JP1,1*%
%TO.N,/+5V*%
X44200000Y-33000000D03*
%TO.P,JP1,2*%
%TO.N,/VDRV*%
X45500000Y-33000000D03*
%TD*%
D18*
%TO.P,JP3,1*%
%TO.N,/RS485_A*%
X40000000Y-20300000D03*
%TO.P,JP3,2*%
%TO.N,/RS485_TERM*%
X40000000Y-19000000D03*
%TD*%
D13*
%TO.P,R13,1*%
%TO.N,/CHAIN_OUT*%
X44175000Y-38000000D03*
%TO.P,R13,2*%
%TO.N,/CHAIN_OUT_EXT*%
X46000000Y-38000000D03*
%TD*%
%TO.P,R15,1*%
%TO.N,/LED_A*%
X60087500Y-29500000D03*
%TO.P,R15,2*%
%TO.N,/LED_K*%
X61912500Y-29500000D03*
%TD*%
D14*
%TO.P,D3,1*%
%TO.N,/GND*%
X22062500Y-39050000D03*
%TO.P,D3,2*%
%TO.N,/+5V*%
X22062500Y-40950000D03*
%TO.P,D3,3*%
%TO.N,/PULSE_NULL*%
X23937500Y-40000000D03*
%TD*%
D19*
%TO.P,J2,1*%
%TO.N,/+5V_IN*%
X18840000Y-54000000D03*
D20*
%TO.P,J2,2*%
%TO.N,/GND*%
X18840000Y-51460000D03*
%TO.P,J2,3*%
%TO.N,/RS485_A*%
X21380000Y-54000000D03*
%TO.P,J2,4*%
%TO.N,/GND*%
X21380000Y-51460000D03*
%TO.P,J2,5*%
%TO.N,/RS485_B*%
X23920000Y-54000000D03*
%TO.P,J2,6*%
%TO.N,/GND*%
X23920000Y-51460000D03*
%TO.P,J2,7*%
%TO.N,/CHAIN_IN_RAW*%
X26460000Y-54000000D03*
%TO.P,J2,8*%
%TO.N,/GND*%
X26460000Y-51460000D03*
%TO.P,J2,9*%
%TO.N,/+15V*%
X29000000Y-54000000D03*
%TO.P,J2,10*%
%TO.N,/GND*%
X29000000Y-51460000D03*
%TD*%
D10*
%TO.P,C6,1*%
%TO.N,/PULSE_NULL*%
X17050000Y-40000000D03*
%TO.P,C6,2*%
%TO.N,/GND*%
X18950000Y-40000000D03*
%TD*%
D14*
%TO.P,Q2,1*%
%TO.N,/Q2_BASE*%
X61062500Y-24050000D03*
%TO.P,Q2,2*%
%TO.N,/GND*%
X61062500Y-25950000D03*
%TO.P,Q2,3*%
%TO.N,/PFET_GATE*%
X62937500Y-25000000D03*
%TD*%
%TO.P,Q1,1*%
%TO.N,/PFET_GATE*%
X65062500Y-24050000D03*
%TO.P,Q1,2*%
%TO.N,/VDRV*%
X65062500Y-25950000D03*
%TO.P,Q1,3*%
%TO.N,/Q1_DRAIN*%
X66937500Y-25000000D03*
%TD*%
D21*
%TO.P,J6,1*%
%TO.N,/GND*%
X39000000Y-51000000D03*
D20*
%TO.P,J6,2*%
%TO.N,/UPDI*%
X39000000Y-53540000D03*
%TO.P,J6,3*%
%TO.N,/+5V_IN*%
X39000000Y-56080000D03*
%TD*%
D13*
%TO.P,R3,1*%
%TO.N,/+5V*%
X7087500Y-33000000D03*
%TO.P,R3,2*%
%TO.N,/PULSE_LEER_RAW*%
X8912500Y-33000000D03*
%TD*%
D12*
%TO.P,TP7,1*%
%TO.N,/GND*%
X30000000Y-43000000D03*
%TD*%
%TO.P,TP5,1*%
%TO.N,/CHAIN_IN*%
X50500000Y-43000000D03*
%TD*%
D19*
%TO.P,J3,1*%
%TO.N,/+5V*%
X18840000Y-8540000D03*
D20*
%TO.P,J3,2*%
%TO.N,/GND*%
X18840000Y-6000000D03*
%TO.P,J3,3*%
%TO.N,/RS485_A*%
X21380000Y-8540000D03*
%TO.P,J3,4*%
%TO.N,/GND*%
X21380000Y-6000000D03*
%TO.P,J3,5*%
%TO.N,/RS485_B*%
X23920000Y-8540000D03*
%TO.P,J3,6*%
%TO.N,/GND*%
X23920000Y-6000000D03*
%TO.P,J3,7*%
%TO.N,/CHAIN_OUT_EXT*%
X26460000Y-8540000D03*
%TO.P,J3,8*%
%TO.N,/GND*%
X26460000Y-6000000D03*
%TO.P,J3,9*%
%TO.N,/+15V*%
X29000000Y-8540000D03*
%TO.P,J3,10*%
%TO.N,/GND*%
X29000000Y-6000000D03*
%TD*%
D22*
%TO.P,U1,1*%
%TO.N,/+5V*%
X30350000Y-26650000D03*
%TO.P,U1,2*%
%TO.N,/PULSE_BLATT*%
X30350000Y-27920000D03*
%TO.P,U1,3*%
%TO.N,/PULSE_LEER*%
X30350000Y-29190000D03*
%TO.P,U1,4*%
%TO.N,/PULSE_NULL*%
X30350000Y-30460000D03*
%TO.P,U1,5*%
%TO.N,/TRIAC_DRV*%
X30350000Y-31730000D03*
%TO.P,U1,6*%
%TO.N,/TP_PB5*%
X30350000Y-33000000D03*
%TO.P,U1,7*%
%TO.N,/TP_PB4*%
X30350000Y-34270000D03*
%TO.P,U1,8*%
%TO.N,/RO*%
X30350000Y-35540000D03*
%TO.P,U1,9*%
%TO.N,/DI*%
X30350000Y-36810000D03*
%TO.P,U1,10*%
%TO.N,unconnected-(U1-PB1-Pad10)*%
X30350000Y-38080000D03*
%TO.P,U1,11*%
%TO.N,/DE*%
X39650000Y-38080000D03*
%TO.P,U1,12*%
%TO.N,unconnected-(U1-PC0-Pad12)*%
X39650000Y-36810000D03*
%TO.P,U1,13*%
%TO.N,unconnected-(U1-PC1-Pad13)*%
X39650000Y-35540000D03*
%TO.P,U1,14*%
%TO.N,unconnected-(U1-PC2-Pad14)*%
X39650000Y-34270000D03*
%TO.P,U1,15*%
%TO.N,unconnected-(U1-PC3-Pad15)*%
X39650000Y-33000000D03*
%TO.P,U1,16*%
%TO.N,/UPDI*%
X39650000Y-31730000D03*
%TO.P,U1,17*%
%TO.N,/CHAIN_IN*%
X39650000Y-30460000D03*
%TO.P,U1,18*%
%TO.N,/CHAIN_OUT*%
X39650000Y-29190000D03*
%TO.P,U1,19*%
%TO.N,/LED_A*%
X39650000Y-27920000D03*
%TO.P,U1,20*%
%TO.N,/GND*%
X39650000Y-26650000D03*
%TD*%
D13*
%TO.P,R1,1*%
%TO.N,/+5V*%
X7087500Y-26000000D03*
%TO.P,R1,2*%
%TO.N,/PULSE_BLATT_RAW*%
X8912500Y-26000000D03*
%TD*%
%TO.P,R10,1*%
%TO.N,/TRIAC_DRV*%
X60087500Y-20000000D03*
%TO.P,R10,2*%
%TO.N,/Q3_BASE*%
X61912500Y-20000000D03*
%TD*%
D12*
%TO.P,TP1,1*%
%TO.N,/TP_PB5*%
X3500000Y-19000000D03*
%TD*%
%TO.P,TP6,1*%
%TO.N,/VSENS*%
X45500000Y-15000000D03*
%TD*%
D13*
%TO.P,R9,1*%
%TO.N,/Q1_DRAIN*%
X68087500Y-16000000D03*
%TO.P,R9,2*%
%TO.N,/TRIAC_CTRL*%
X69912500Y-16000000D03*
%TD*%
%TO.P,R12,1*%
%TO.N,/CHAIN_IN*%
X44175000Y-43000000D03*
%TO.P,R12,2*%
%TO.N,/GND*%
X46000000Y-43000000D03*
%TD*%
D23*
%TO.P,J5,1*%
%TO.N,/AC1*%
X56000000Y-7000000D03*
D16*
%TO.P,J5,2*%
%TO.N,/AC2*%
X50920000Y-7000000D03*
%TD*%
D17*
%TO.P,JP2,1*%
%TO.N,/+15V*%
X50200000Y-38000000D03*
%TO.P,JP2,2*%
%TO.N,/VDRV*%
X51500000Y-38000000D03*
%TD*%
D24*
%TO.P,R16,1*%
%TO.N,/RS485_TERM*%
X40000000Y-15500000D03*
%TO.P,R16,2*%
%TO.N,/RS485_B*%
X40000000Y-13675000D03*
%TD*%
D13*
%TO.P,R8,1*%
%TO.N,/VDRV*%
X64087500Y-16000000D03*
%TO.P,R8,2*%
%TO.N,/PFET_GATE*%
X65912500Y-16000000D03*
%TD*%
D25*
%TO.P,U2,1*%
%TO.N,/RO*%
X30550000Y-15230000D03*
%TO.P,U2,2*%
%TO.N,/GND*%
X30550000Y-16500000D03*
%TO.P,U2,3*%
%TO.N,/DE*%
X30550000Y-17770000D03*
%TO.P,U2,4*%
%TO.N,/DI*%
X30550000Y-19040000D03*
%TO.P,U2,5*%
%TO.N,/GND*%
X35500000Y-19040000D03*
%TO.P,U2,6*%
%TO.N,/RS485_A*%
X35500000Y-17770000D03*
%TO.P,U2,7*%
%TO.N,/RS485_B*%
X35500000Y-16500000D03*
%TO.P,U2,8*%
%TO.N,/+5V*%
X35500000Y-15230000D03*
%TD*%
D14*
%TO.P,Q3,1*%
%TO.N,/Q3_BASE*%
X69062500Y-24050000D03*
%TO.P,Q3,2*%
%TO.N,/GND*%
X69062500Y-25950000D03*
%TO.P,Q3,3*%
%TO.N,/TRIAC_CTRL*%
X70937500Y-25000000D03*
%TD*%
D26*
%TO.P,D4,1*%
%TO.N,/GND*%
X64562500Y-29500000D03*
%TO.P,D4,2*%
%TO.N,/LED_K*%
X66437500Y-29500000D03*
%TD*%
D13*
%TO.P,R7,1*%
%TO.N,/TRIAC_DRV*%
X60087500Y-16000000D03*
%TO.P,R7,2*%
%TO.N,/Q2_BASE*%
X61912500Y-16000000D03*
%TD*%
D10*
%TO.P,C5,1*%
%TO.N,/PULSE_LEER*%
X17050000Y-33000000D03*
%TO.P,C5,2*%
%TO.N,/GND*%
X18950000Y-33000000D03*
%TD*%
D12*
%TO.P,TP4,1*%
%TO.N,/TRIAC_CTRL*%
X34500000Y-43000000D03*
%TD*%
%TO.P,TP2,1*%
%TO.N,/TP_PB4*%
X3500000Y-26000000D03*
%TD*%
D14*
%TO.P,D2,1*%
%TO.N,/GND*%
X22062500Y-32050000D03*
%TO.P,D2,2*%
%TO.N,/+5V*%
X22062500Y-33950000D03*
%TO.P,D2,3*%
%TO.N,/PULSE_LEER*%
X23937500Y-33000000D03*
%TD*%
D11*
%TO.P,F1,1*%
%TO.N,/+5V_IN*%
X10000000Y-20562500D03*
%TO.P,F1,2*%
%TO.N,/+5V*%
X10000000Y-17637500D03*
%TD*%
D21*
%TO.P,J1,1*%
%TO.N,/GND*%
X61000000Y-34960000D03*
D20*
%TO.P,J1,2*%
%TO.N,/AC1*%
X61000000Y-37500000D03*
%TO.P,J1,3*%
%TO.N,/GND*%
X63540000Y-34960000D03*
%TO.P,J1,4*%
%TO.N,/AC2*%
X63540000Y-37500000D03*
%TO.P,J1,5*%
%TO.N,/VSENS*%
X66080000Y-34960000D03*
%TO.P,J1,6*%
X66080000Y-37500000D03*
%TO.P,J1,7*%
%TO.N,/PULSE_NULL_RAW*%
X68620000Y-34960000D03*
%TO.P,J1,8*%
%TO.N,/PULSE_LEER_RAW*%
X68620000Y-37500000D03*
%TO.P,J1,9*%
%TO.N,/TRIAC_CTRL*%
X71160000Y-34960000D03*
%TO.P,J1,10*%
%TO.N,/PULSE_BLATT_RAW*%
X71160000Y-37500000D03*
%TD*%
D27*
%TO.P,C1,1*%
%TO.N,/+5V*%
X44500000Y-28000000D03*
%TO.P,C1,2*%
%TO.N,/GND*%
X44500000Y-26100000D03*
%TD*%
%TO.P,C2,1*%
%TO.N,/+5V*%
X22000000Y-20000000D03*
%TO.P,C2,2*%
%TO.N,/GND*%
X22000000Y-18100000D03*
%TD*%
D13*
%TO.P,R4,1*%
%TO.N,/PULSE_LEER_RAW*%
X12087500Y-33000000D03*
%TO.P,R4,2*%
%TO.N,/PULSE_LEER*%
X13912500Y-33000000D03*
%TD*%
D28*
%TO.P,C3,1*%
%TO.N,/+5V*%
X16000000Y-20500000D03*
%TO.P,C3,2*%
%TO.N,/GND*%
X16000000Y-17550000D03*
%TD*%
D13*
%TO.P,R6,1*%
%TO.N,/PULSE_NULL_RAW*%
X12087500Y-40000000D03*
%TO.P,R6,2*%
%TO.N,/PULSE_NULL*%
X13912500Y-40000000D03*
%TD*%
D29*
%TO.N,/+5V*%
X22428200Y-35758500D03*
X38975000Y-23475000D03*
X13256000Y-20501100D03*
X34661100Y-25815800D03*
X7087500Y-27619000D03*
X40225000Y-24725000D03*
X34661100Y-14391100D03*
X22885700Y-27773200D03*
%TO.N,/+5V_IN*%
X3609200Y-21588400D03*
%TO.N,/+15V*%
X30422400Y-39692000D03*
%TO.N,/CHAIN_IN*%
X41308500Y-30460000D03*
X41894900Y-42051800D03*
%TO.N,/CHAIN_IN_RAW*%
X31215000Y-44925100D03*
%TO.N,/CHAIN_OUT*%
X41228100Y-29190000D03*
X44175000Y-36739700D03*
%TO.N,/CHAIN_OUT_EXT*%
X47349600Y-36795700D03*
X47349600Y-9967700D03*
%TO.N,/DE*%
X34320100Y-37560800D03*
X32165900Y-18047600D03*
%TO.N,/DI*%
X32040600Y-18995000D03*
X33407700Y-36290800D03*
D30*
%TO.N,/GND*%
X4925000Y-29925000D03*
X19925000Y-49925000D03*
X9925000Y-49925000D03*
X18950000Y-31600000D03*
X69925000Y-9925000D03*
D29*
X57680500Y-27662100D03*
D30*
X44925000Y-49925000D03*
X59925000Y-4925000D03*
X4925000Y-44925000D03*
X19925000Y-14925000D03*
X64925000Y-49925000D03*
X9925000Y-29925000D03*
X14925000Y-14925000D03*
D29*
X19192000Y-18100000D03*
D30*
X4925000Y-19925000D03*
X54925000Y-34925000D03*
X20349999Y-26000000D03*
X9925000Y-9925000D03*
X22000000Y-16700000D03*
X34925000Y-4925000D03*
X39925000Y-4925000D03*
D29*
X21698100Y-42858000D03*
D30*
X64925000Y-4925000D03*
X54925000Y-39925000D03*
D29*
X41058800Y-26100000D03*
X25128000Y-43000000D03*
D30*
X64925000Y-54925000D03*
X59925000Y-9925000D03*
X69925000Y-44925000D03*
X59262500Y-25950000D03*
X69925000Y-49925000D03*
X4925000Y-9925000D03*
X29150000Y-16500000D03*
X9925000Y-14925000D03*
X24925000Y-4925000D03*
X9925000Y-4925000D03*
X18950000Y-38200000D03*
X9925000Y-54925000D03*
X44925000Y-54925000D03*
X19925000Y-29925000D03*
X14925000Y-4925000D03*
X16000000Y-16150000D03*
X34925000Y-54925000D03*
X31800000Y-43000000D03*
X49925000Y-4925000D03*
D29*
X39107200Y-41288200D03*
D30*
X64925000Y-9925000D03*
X14925000Y-29925000D03*
X14925000Y-44925000D03*
X69925000Y-29925000D03*
X24925000Y-14925000D03*
X59925000Y-54925000D03*
D29*
X21005300Y-40000000D03*
D30*
X9925000Y-34925000D03*
X46000000Y-41600000D03*
X44925000Y-4925000D03*
X4925000Y-49925000D03*
X69062500Y-27349999D03*
X43100000Y-26100000D03*
X19925000Y-4925000D03*
X14925000Y-9925000D03*
X14925000Y-54925000D03*
X4925000Y-14925000D03*
X19925000Y-34925000D03*
X22062500Y-30650000D03*
X29925000Y-4925000D03*
X24925000Y-49925000D03*
X22062500Y-37650000D03*
X54925000Y-49925000D03*
X4925000Y-34925000D03*
D29*
%TO.N,/LED_A*%
X45553700Y-28929400D03*
X43204700Y-28439200D03*
%TO.N,/PULSE_BLATT_RAW*%
X12677200Y-46416000D03*
X12087500Y-27239400D03*
%TO.N,/PULSE_LEER*%
X18105700Y-33985700D03*
X25115200Y-32508200D03*
%TO.N,/PULSE_LEER_RAW*%
X19562700Y-45012600D03*
X12976300Y-33888800D03*
%TO.N,/PULSE_NULL*%
X28991700Y-31086100D03*
X17050000Y-41243400D03*
X23937500Y-39181100D03*
%TO.N,/Q2_BASE*%
X61912500Y-17208000D03*
X61912500Y-23221000D03*
%TO.N,/Q3_BASE*%
X69062500Y-23190900D03*
X65061000Y-20902100D03*
%TO.N,/RO*%
X31781400Y-35020800D03*
X31832100Y-15847400D03*
%TO.N,/RS485_A*%
X38099400Y-20300000D03*
%TO.N,/RS485_B*%
X37518600Y-15036100D03*
%TO.N,/TP_PB4*%
X4430000Y-25070000D03*
X27142400Y-33750800D03*
%TO.N,/TP_PB5*%
X28091800Y-32480800D03*
X8699700Y-18532800D03*
%TO.N,/TRIAC_CTRL*%
X35708500Y-47645000D03*
X69912500Y-21378500D03*
X35708500Y-42393100D03*
%TO.N,/UPDI*%
X39725000Y-31725000D03*
%TO.N,/VDRV*%
X64243300Y-26769200D03*
X62829500Y-31138800D03*
X64243300Y-17216200D03*
%TO.N,/VSENS*%
X56754600Y-19626200D03*
%TD*%
D31*
%TO.N,/+5V*%
X25168800Y-40362500D02*
X24581300Y-40950000D01*
X7087500Y-26000000D02*
X7087500Y-27619000D01*
X35725000Y-25725000D02*
X35975000Y-25725000D01*
X45975000Y-26225000D02*
X45975000Y-26475000D01*
X16000000Y-20500000D02*
X13256000Y-20500000D01*
X22062500Y-26950000D02*
X22885700Y-27773200D01*
X43975000Y-24725000D02*
X44225000Y-24725000D01*
X44475000Y-28225000D02*
X44200000Y-28300000D01*
X45225000Y-24725000D02*
X45475000Y-24975000D01*
X43725000Y-24725000D02*
X43975000Y-24725000D01*
X41975000Y-24725000D02*
X42225000Y-24725000D01*
X31184200Y-25815800D02*
X30350000Y-26650000D01*
X45225000Y-27475000D02*
X44975000Y-27725000D01*
X7087500Y-27619000D02*
X7087500Y-33000000D01*
X10000000Y-17380000D02*
X10000000Y-17637500D01*
X45975000Y-26725000D02*
X45725000Y-26975000D01*
X40475000Y-24725000D02*
X40725000Y-24725000D01*
X44200000Y-28300000D02*
X44200000Y-33000000D01*
X45500000Y-21500000D02*
X45693100Y-21693100D01*
X44975000Y-24725000D02*
X45225000Y-24725000D01*
X36725000Y-25225000D02*
X36975000Y-24975000D01*
X22428200Y-34315700D02*
X22428200Y-35758500D01*
X41225000Y-24725000D02*
X41475000Y-24725000D01*
X35225000Y-25725000D02*
X35475000Y-25725000D01*
X34975000Y-25725000D02*
X35225000Y-25725000D01*
X18840000Y-8540000D02*
X10000000Y-17380000D01*
X35500000Y-15230000D02*
X34661100Y-14391100D01*
X22062500Y-33950000D02*
X22428200Y-34315700D01*
X41475000Y-24725000D02*
X41725000Y-24725000D01*
X34661100Y-25815800D02*
X31184200Y-25815800D01*
X7087500Y-33000000D02*
X7087500Y-40000000D01*
X25168800Y-38499100D02*
X25168800Y-40362500D01*
X45975000Y-25725000D02*
X45975000Y-25975000D01*
X37725000Y-24225000D02*
X37975000Y-23975000D01*
X42225000Y-24725000D02*
X42475000Y-24725000D01*
X40975000Y-24725000D02*
X41225000Y-24725000D01*
X45693100Y-26806900D02*
X44500000Y-28000000D01*
X44725000Y-24725000D02*
X44975000Y-24725000D01*
X43475000Y-24725000D02*
X43725000Y-24725000D01*
X42975000Y-24725000D02*
X43225000Y-24725000D01*
X45475000Y-27225000D02*
X45225000Y-27475000D01*
X38475000Y-23725000D02*
X38725000Y-23475000D01*
X45975000Y-26475000D02*
X45975000Y-26725000D01*
X42725000Y-24725000D02*
X42975000Y-24725000D01*
X34661100Y-25815800D02*
X34975000Y-25725000D01*
X45693100Y-21693100D02*
X45693100Y-26806900D01*
X22428200Y-35758500D02*
X25168800Y-38499100D01*
X45725000Y-26975000D02*
X45475000Y-27225000D01*
X40725000Y-24725000D02*
X40975000Y-24725000D01*
X36975000Y-24975000D02*
X37225000Y-24725000D01*
X37225000Y-24725000D02*
X37475000Y-24475000D01*
X37475000Y-24475000D02*
X37725000Y-24225000D01*
X44225000Y-24725000D02*
X44475000Y-24725000D01*
X13256000Y-20500000D02*
X13256000Y-20501100D01*
X24581300Y-40950000D02*
X22062500Y-40950000D01*
X35475000Y-25725000D02*
X35725000Y-25725000D01*
X16000000Y-20500000D02*
X21500000Y-20500000D01*
X21500000Y-20500000D02*
X22000000Y-20000000D01*
X45975000Y-25475000D02*
X45975000Y-25725000D01*
X36475000Y-25475000D02*
X36725000Y-25225000D01*
X43225000Y-24725000D02*
X43475000Y-24725000D01*
X44975000Y-27725000D02*
X44725000Y-27975000D01*
X13256000Y-20500000D02*
X12862500Y-20500000D01*
X38725000Y-23475000D02*
X38975000Y-23475000D01*
X45725000Y-25225000D02*
X45975000Y-25475000D01*
X30350000Y-26650000D02*
X23700000Y-20000000D01*
X36225000Y-25725000D02*
X36475000Y-25475000D01*
X45975000Y-25975000D02*
X45975000Y-26225000D01*
X44725000Y-27975000D02*
X44475000Y-28225000D01*
X44500000Y-28000000D02*
X44200000Y-28300000D01*
X42475000Y-24725000D02*
X42725000Y-24725000D01*
X44475000Y-24725000D02*
X44725000Y-24725000D01*
X38225000Y-23975000D02*
X38475000Y-23725000D01*
X40225000Y-24725000D02*
X40475000Y-24725000D01*
X45475000Y-24975000D02*
X45725000Y-25225000D01*
X23700000Y-20000000D02*
X22000000Y-20000000D01*
X41725000Y-24725000D02*
X41975000Y-24725000D01*
X37975000Y-23975000D02*
X38225000Y-23975000D01*
X35975000Y-25725000D02*
X36225000Y-25725000D01*
X12862500Y-20500000D02*
X10000000Y-17637500D01*
%TO.N,/+5V_IN*%
X10000000Y-20562500D02*
X8974100Y-21588400D01*
X39000000Y-56080000D02*
X20920000Y-56080000D01*
X20920000Y-56080000D02*
X18840000Y-54000000D01*
X8974100Y-21588400D02*
X3609200Y-21588400D01*
%TO.N,/+15V*%
X50200000Y-38000000D02*
X49200000Y-38000000D01*
X47508000Y-39692000D02*
X30422400Y-39692000D01*
X49200000Y-38000000D02*
X47508000Y-39692000D01*
%TO.N,/CHAIN_IN*%
X44175000Y-43000000D02*
X41000000Y-43000000D01*
X50500000Y-43000000D02*
X49344800Y-44155200D01*
X49344800Y-44155200D02*
X45330200Y-44155200D01*
X41000000Y-43000000D02*
X41000000Y-42946700D01*
X39650000Y-30460000D02*
X41308500Y-30460000D01*
X45330200Y-44155200D02*
X44175000Y-43000000D01*
X41000000Y-42946700D02*
X41894900Y-42051800D01*
%TO.N,/CHAIN_IN_RAW*%
X37249900Y-44925100D02*
X31215000Y-44925100D01*
X39175000Y-43000000D02*
X37249900Y-44925100D01*
%TO.N,/CHAIN_OUT*%
X39650000Y-29190000D02*
X41228100Y-29190000D01*
X44175000Y-38000000D02*
X44175000Y-36739700D01*
%TO.N,/CHAIN_OUT_EXT*%
X26460000Y-8540000D02*
X27887700Y-9967700D01*
X46000000Y-38000000D02*
X47204300Y-36795700D01*
X47204300Y-36795700D02*
X47349600Y-36795700D01*
X27887700Y-9967700D02*
X47349600Y-9967700D01*
D32*
%TO.N,/DE*%
X39130800Y-37560800D02*
X34320100Y-37560800D01*
D31*
X31888300Y-17770000D02*
X30550000Y-17770000D01*
D32*
X39650000Y-38080000D02*
X39130800Y-37560800D01*
D31*
X32165900Y-18047600D02*
X31888300Y-17770000D01*
%TO.N,/DI*%
X32040600Y-18995000D02*
X30595000Y-18995000D01*
X30595000Y-18995000D02*
X30550000Y-19040000D01*
D32*
X30869200Y-36290800D02*
X33407700Y-36290800D01*
X30350000Y-36810000D02*
X30869200Y-36290800D01*
%TO.N,/LED_A*%
X40169200Y-28439200D02*
X43204700Y-28439200D01*
X39650000Y-27920000D02*
X40169200Y-28439200D01*
D31*
X60087500Y-29500000D02*
X59516900Y-28929400D01*
X59516900Y-28929400D02*
X45553700Y-28929400D01*
D32*
%TO.N,/LED_K*%
X66093700Y-30651100D02*
X64779800Y-30651100D01*
D31*
X66093700Y-29843800D02*
X66093700Y-30651100D01*
D32*
X64779800Y-30651100D02*
X64653000Y-30777900D01*
D31*
X64653000Y-30777900D02*
X63531700Y-30777900D01*
X63531700Y-30777900D02*
X62253800Y-29500000D01*
X62253800Y-29500000D02*
X61912500Y-29500000D01*
X66437500Y-29500000D02*
X66093700Y-29843800D01*
%TO.N,/PFET_GATE*%
X65062500Y-24050000D02*
X63887500Y-24050000D01*
X63887500Y-24050000D02*
X62937500Y-25000000D01*
X65912500Y-23200000D02*
X65912500Y-16000000D01*
X65062500Y-24050000D02*
X65912500Y-23200000D01*
%TO.N,/PULSE_BLATT*%
X23937500Y-26000000D02*
X24735100Y-26000000D01*
X18813100Y-24236900D02*
X17050000Y-26000000D01*
D32*
X26135900Y-27400800D02*
X29830800Y-27400800D01*
D31*
X13912500Y-26000000D02*
X17050000Y-26000000D01*
X23937500Y-25275200D02*
X22899200Y-24236900D01*
X22899200Y-24236900D02*
X18813100Y-24236900D01*
X24735100Y-26000000D02*
X26135900Y-27400800D01*
D32*
X29830800Y-27400800D02*
X30350000Y-27920000D01*
D31*
X23937500Y-26000000D02*
X23937500Y-25275200D01*
%TO.N,/PULSE_BLATT_RAW*%
X12087500Y-27239400D02*
X12087500Y-26000000D01*
X62244000Y-46416000D02*
X71160000Y-37500000D01*
X12677200Y-46416000D02*
X62244000Y-46416000D01*
X8912500Y-26000000D02*
X12087500Y-26000000D01*
%TO.N,/PULSE_LEER*%
X28875500Y-29709200D02*
X27914200Y-29709200D01*
X18035700Y-33985700D02*
X17050000Y-33000000D01*
X24429300Y-32508200D02*
X23937500Y-33000000D01*
X27914200Y-29709200D02*
X25115200Y-32508200D01*
X25115200Y-32508200D02*
X24429300Y-32508200D01*
X18105700Y-33985700D02*
X18035700Y-33985700D01*
X13912500Y-33000000D02*
X17050000Y-33000000D01*
D32*
X29830800Y-29709200D02*
X30350000Y-29190000D01*
X28875500Y-29709200D02*
X29830800Y-29709200D01*
D31*
%TO.N,/PULSE_LEER_RAW*%
X60405700Y-45714300D02*
X20264400Y-45714300D01*
X12976300Y-33888800D02*
X12087500Y-33000000D01*
X68620000Y-37500000D02*
X60405700Y-45714300D01*
X12087500Y-33000000D02*
X8912500Y-33000000D01*
X20264400Y-45714300D02*
X19562700Y-45012600D01*
%TO.N,/PULSE_NULL*%
X23937500Y-39181100D02*
X23937500Y-40000000D01*
X17050000Y-40000000D02*
X17050000Y-41243400D01*
X17050000Y-40000000D02*
X13912500Y-40000000D01*
D32*
X29617800Y-30460000D02*
X28991700Y-31086100D01*
X30350000Y-30460000D02*
X29617800Y-30460000D01*
D31*
%TO.N,/PULSE_NULL_RAW*%
X8912500Y-40000000D02*
X7742600Y-41169900D01*
X52220300Y-40437900D02*
X37062100Y-40437900D01*
X6507500Y-41169900D02*
X3500000Y-38162400D01*
X3500000Y-38162400D02*
X3500000Y-33000000D01*
X29134000Y-42041400D02*
X14128900Y-42041400D01*
X37062100Y-40437900D02*
X36056000Y-41444000D01*
X67301600Y-33641600D02*
X59016600Y-33641600D01*
X36056000Y-41444000D02*
X29731400Y-41444000D01*
X29731400Y-41444000D02*
X29134000Y-42041400D01*
X8912500Y-40000000D02*
X12087500Y-40000000D01*
X68620000Y-34960000D02*
X67301600Y-33641600D01*
X59016600Y-33641600D02*
X52220300Y-40437900D01*
X7742600Y-41169900D02*
X6507500Y-41169900D01*
X14128900Y-42041400D02*
X12087500Y-40000000D01*
%TO.N,/Q1_DRAIN*%
X66937500Y-25000000D02*
X66937500Y-17150000D01*
X66937500Y-17150000D02*
X68087500Y-16000000D01*
%TO.N,/Q2_BASE*%
X61912500Y-16000000D02*
X61912500Y-17208000D01*
X61062500Y-24050000D02*
X61891500Y-23221000D01*
X61891500Y-23221000D02*
X61912500Y-23221000D01*
%TO.N,/Q3_BASE*%
X61912500Y-20000000D02*
X62814600Y-20902100D01*
X69062500Y-24050000D02*
X69062500Y-23190900D01*
X62814600Y-20902100D02*
X65061000Y-20902100D01*
D32*
%TO.N,/RO*%
X30550000Y-15230000D02*
X31214700Y-15230000D01*
X30869200Y-35020800D02*
X30350000Y-35540000D01*
X31214700Y-15230000D02*
X31832100Y-15847400D01*
X31781400Y-35020800D02*
X30869200Y-35020800D01*
%TO.N,/RS485_A*%
X36007100Y-17770000D02*
X35500000Y-17770000D01*
X38099400Y-19862300D02*
X36007100Y-17770000D01*
D31*
X26739400Y-13899400D02*
X31095500Y-13899400D01*
X40000000Y-20300000D02*
X38099400Y-20300000D01*
X21380000Y-8540000D02*
X26739400Y-13899400D01*
X31095500Y-13899400D02*
X33211100Y-16015000D01*
D32*
X38099400Y-20300000D02*
X38099400Y-19862300D01*
D31*
X33211100Y-16134500D02*
X34846600Y-17770000D01*
X33211100Y-16015000D02*
X33211100Y-16134500D01*
X34846600Y-17770000D02*
X35500000Y-17770000D01*
D32*
%TO.N,/RS485_B*%
X37518600Y-15036100D02*
X36054700Y-16500000D01*
D31*
X38879700Y-13675000D02*
X38848800Y-13705900D01*
D32*
X36054700Y-16500000D02*
X35500000Y-16500000D01*
D31*
X35597300Y-13114800D02*
X28494800Y-13114800D01*
D32*
X38848800Y-13705900D02*
X37518600Y-15036100D01*
D31*
X40000000Y-13675000D02*
X38879700Y-13675000D01*
X37518600Y-15036100D02*
X35597300Y-13114800D01*
X28494800Y-13114800D02*
X23920000Y-8540000D01*
%TO.N,/RS485_TERM*%
X40000000Y-15500000D02*
X40000000Y-19000000D01*
D32*
%TO.N,/TP_PB4*%
X29830800Y-33750800D02*
X27142400Y-33750800D01*
D31*
X4430000Y-25070000D02*
X3500000Y-26000000D01*
D32*
X30350000Y-34270000D02*
X29830800Y-33750800D01*
D31*
%TO.N,/TP_PB5*%
X3967200Y-18532800D02*
X8699700Y-18532800D01*
X3500000Y-19000000D02*
X3967200Y-18532800D01*
D32*
X30350000Y-33000000D02*
X29830800Y-32480800D01*
X29830800Y-32480800D02*
X28091800Y-32480800D01*
D31*
%TO.N,/TRIAC_CTRL*%
X69912500Y-21378500D02*
X70937500Y-22403500D01*
X72492100Y-36292100D02*
X72492100Y-38034300D01*
X62881400Y-47645000D02*
X35708500Y-47645000D01*
X35106900Y-42393100D02*
X35708500Y-42393100D01*
X71160000Y-34960000D02*
X72492100Y-36292100D01*
X69912500Y-16000000D02*
X69912500Y-21378500D01*
X34500000Y-43000000D02*
X35106900Y-42393100D01*
X72492100Y-38034300D02*
X62881400Y-47645000D01*
X70937500Y-22403500D02*
X70937500Y-25000000D01*
%TO.N,/TRIAC_DRV*%
X30350000Y-31730000D02*
X31934100Y-31730000D01*
X60087500Y-16000000D02*
X60087500Y-20000000D01*
X43195400Y-20468700D02*
X59618800Y-20468700D01*
X59618800Y-20468700D02*
X60087500Y-20000000D01*
X31934100Y-31730000D02*
X43195400Y-20468700D01*
%TO.N,/UPDI*%
X39725000Y-31725000D02*
X39650000Y-31730000D01*
%TO.N,/VDRV*%
X57111100Y-31138900D02*
X62829500Y-31138900D01*
X46450000Y-33000000D02*
X47750000Y-33000000D01*
X51500000Y-38000000D02*
X51500000Y-36750000D01*
X64087500Y-17060400D02*
X64243300Y-17216200D01*
X45500000Y-33000000D02*
X46450000Y-33000000D01*
X64243300Y-26769200D02*
X65062500Y-25950000D01*
X47750000Y-33000000D02*
X51500000Y-36750000D01*
X62829500Y-31138900D02*
X62829500Y-31138800D01*
X51500000Y-36750000D02*
X57111100Y-31138900D01*
X64087500Y-16000000D02*
X64087500Y-17060400D01*
%TO.N,/VSENS*%
X46551200Y-19626200D02*
X45500000Y-18575000D01*
X45500000Y-15000000D02*
X45500000Y-18575000D01*
X56754600Y-19626200D02*
X46551200Y-19626200D01*
%TD*%
%TA.AperFunction,Conductor*%
%TO.N,/GND*%
G36*
X20804729Y-24800000D02*
G01*
X21938500Y-24800000D01*
X22005539Y-24819685D01*
X22051294Y-24872489D01*
X22062500Y-24924000D01*
X22062500Y-25050000D01*
X22188500Y-25050000D01*
X22255539Y-25069685D01*
X22301294Y-25122489D01*
X22312500Y-25174000D01*
X22312500Y-25850000D01*
X22715634Y-25850000D01*
X22715649Y-25849999D01*
X22752481Y-25847100D01*
X22753203Y-25846969D01*
X22753611Y-25847011D01*
X22758808Y-25846603D01*
X22758883Y-25847566D01*
X22822689Y-25854278D01*
X22877193Y-25897994D01*
X22899410Y-25964237D01*
X22899500Y-25968948D01*
X22899500Y-26204266D01*
X22901361Y-26224118D01*
X22901401Y-26224537D01*
X22888060Y-26293121D01*
X22839758Y-26343605D01*
X22771830Y-26359961D01*
X22736995Y-26353156D01*
X22734704Y-26352354D01*
X22734699Y-26352353D01*
X22704270Y-26349500D01*
X22704266Y-26349500D01*
X21420734Y-26349500D01*
X21420730Y-26349500D01*
X21390300Y-26352353D01*
X21390298Y-26352353D01*
X21262119Y-26397206D01*
X21262117Y-26397207D01*
X21152850Y-26477850D01*
X21072207Y-26587117D01*
X21072206Y-26587119D01*
X21027353Y-26715298D01*
X21027353Y-26715300D01*
X21024500Y-26745730D01*
X21024500Y-27154269D01*
X21027353Y-27184699D01*
X21027353Y-27184701D01*
X21065138Y-27292680D01*
X21072207Y-27312882D01*
X21152850Y-27422150D01*
X21262118Y-27502793D01*
X21304845Y-27517744D01*
X21390299Y-27547646D01*
X21420730Y-27550500D01*
X21420734Y-27550500D01*
X21833113Y-27550500D01*
X21900152Y-27570185D01*
X21920794Y-27586819D01*
X22299604Y-27965628D01*
X22321438Y-27998304D01*
X22322059Y-27997946D01*
X22405175Y-28141909D01*
X22405179Y-28141914D01*
X22405180Y-28141916D01*
X22516984Y-28253720D01*
X22516986Y-28253721D01*
X22516990Y-28253724D01*
X22617388Y-28311688D01*
X22653916Y-28332777D01*
X22806643Y-28373700D01*
X22806645Y-28373700D01*
X22964755Y-28373700D01*
X22964757Y-28373700D01*
X23117484Y-28332777D01*
X23254416Y-28253720D01*
X23366220Y-28141916D01*
X23445277Y-28004984D01*
X23486200Y-27852257D01*
X23486200Y-27694143D01*
X23445277Y-27541416D01*
X23421596Y-27500399D01*
X23366224Y-27404490D01*
X23366218Y-27404482D01*
X23254417Y-27292681D01*
X23254412Y-27292677D01*
X23162500Y-27239612D01*
X23114284Y-27189045D01*
X23100500Y-27132225D01*
X23100500Y-26745733D01*
X23098599Y-26725467D01*
X23111937Y-26656882D01*
X23160237Y-26606396D01*
X23228165Y-26590038D01*
X23263011Y-26596845D01*
X23264073Y-26597216D01*
X23265301Y-26597646D01*
X23265300Y-26597646D01*
X23295730Y-26600500D01*
X23295734Y-26600500D01*
X24505713Y-26600500D01*
X24572752Y-26620185D01*
X24593394Y-26636819D01*
X25797885Y-27841310D01*
X25923415Y-27913784D01*
X26063426Y-27951299D01*
X26063428Y-27951299D01*
X26208372Y-27951299D01*
X26208374Y-27951299D01*
X26348385Y-27913784D01*
X26362884Y-27905412D01*
X26424884Y-27888800D01*
X28900500Y-27888800D01*
X28967539Y-27908485D01*
X29013294Y-27961289D01*
X29024500Y-28012800D01*
X29024500Y-28124269D01*
X29027353Y-28154699D01*
X29027353Y-28154701D01*
X29072206Y-28282880D01*
X29072207Y-28282882D01*
X29152850Y-28392150D01*
X29238321Y-28455230D01*
X29280571Y-28510877D01*
X29286030Y-28580534D01*
X29252962Y-28642083D01*
X29238321Y-28654769D01*
X29237619Y-28655288D01*
X29152850Y-28717850D01*
X29072207Y-28827117D01*
X29072206Y-28827119D01*
X29027353Y-28955298D01*
X29027353Y-28955300D01*
X29024500Y-28985730D01*
X29024500Y-29034700D01*
X29004815Y-29101739D01*
X28952011Y-29147494D01*
X28900500Y-29158700D01*
X27841725Y-29158700D01*
X27736717Y-29186837D01*
X27701714Y-29196216D01*
X27576186Y-29268689D01*
X27576183Y-29268691D01*
X24923493Y-31921381D01*
X24862170Y-31954866D01*
X24835812Y-31957700D01*
X24356825Y-31957700D01*
X24225831Y-31992800D01*
X24225830Y-31992800D01*
X24216817Y-31995214D01*
X24091286Y-32067689D01*
X24091283Y-32067691D01*
X23795794Y-32363181D01*
X23734471Y-32396666D01*
X23708113Y-32399500D01*
X23423607Y-32399500D01*
X23356568Y-32379815D01*
X23310813Y-32327011D01*
X23308105Y-32311694D01*
X23297295Y-32300000D01*
X22312500Y-32300000D01*
X22312500Y-32850000D01*
X22715634Y-32850000D01*
X22715649Y-32849999D01*
X22752481Y-32847100D01*
X22753203Y-32846969D01*
X22753611Y-32847011D01*
X22758808Y-32846603D01*
X22758883Y-32847566D01*
X22822689Y-32854278D01*
X22877193Y-32897994D01*
X22899410Y-32964237D01*
X22899500Y-32968948D01*
X22899500Y-33204266D01*
X22899648Y-33205839D01*
X22901401Y-33224537D01*
X22888060Y-33293121D01*
X22839758Y-33343605D01*
X22771830Y-33359961D01*
X22736995Y-33353156D01*
X22734704Y-33352354D01*
X22734699Y-33352353D01*
X22704270Y-33349500D01*
X22704266Y-33349500D01*
X21420734Y-33349500D01*
X21420730Y-33349500D01*
X21390300Y-33352353D01*
X21390298Y-33352353D01*
X21262119Y-33397206D01*
X21262117Y-33397207D01*
X21152850Y-33477850D01*
X21072207Y-33587117D01*
X21072206Y-33587119D01*
X21027353Y-33715298D01*
X21027353Y-33715300D01*
X21024500Y-33745730D01*
X21024500Y-34154269D01*
X21027353Y-34184699D01*
X21027353Y-34184701D01*
X21072206Y-34312880D01*
X21072207Y-34312882D01*
X21152850Y-34422150D01*
X21262118Y-34502793D01*
X21304845Y-34517744D01*
X21390299Y-34547646D01*
X21420730Y-34550500D01*
X21420734Y-34550500D01*
X21753700Y-34550500D01*
X21820739Y-34570185D01*
X21866494Y-34622989D01*
X21877700Y-34674500D01*
X21877700Y-35480137D01*
X21870034Y-35518679D01*
X21870727Y-35518865D01*
X21868623Y-35526714D01*
X21868623Y-35526716D01*
X21827700Y-35679443D01*
X21827700Y-35837557D01*
X21856220Y-35943993D01*
X21868623Y-35990283D01*
X21868626Y-35990290D01*
X21947675Y-36127209D01*
X21947679Y-36127214D01*
X21947680Y-36127216D01*
X22059484Y-36239020D01*
X22059486Y-36239021D01*
X22059490Y-36239024D01*
X22203454Y-36322141D01*
X22203095Y-36322762D01*
X22235770Y-36344595D01*
X23398078Y-37506903D01*
X24315808Y-38424632D01*
X24349293Y-38485955D01*
X24344309Y-38555647D01*
X24302437Y-38611580D01*
X24236973Y-38635997D01*
X24177450Y-38623048D01*
X24176794Y-38624634D01*
X24169286Y-38621524D01*
X24169284Y-38621523D01*
X24016557Y-38580600D01*
X23858443Y-38580600D01*
X23705716Y-38621523D01*
X23705709Y-38621526D01*
X23568790Y-38700575D01*
X23568786Y-38700578D01*
X23484702Y-38784662D01*
X23423378Y-38818146D01*
X23353687Y-38813162D01*
X23297753Y-38771290D01*
X23277945Y-38731575D01*
X23251283Y-38639806D01*
X23251282Y-38639803D01*
X23167685Y-38498447D01*
X23167678Y-38498438D01*
X23051561Y-38382321D01*
X23051552Y-38382314D01*
X22910196Y-38298717D01*
X22910193Y-38298716D01*
X22752495Y-38252900D01*
X22752489Y-38252899D01*
X22715649Y-38250000D01*
X22312500Y-38250000D01*
X22312500Y-39850000D01*
X22715634Y-39850000D01*
X22715649Y-39849999D01*
X22752481Y-39847100D01*
X22753203Y-39846969D01*
X22753611Y-39847011D01*
X22758808Y-39846603D01*
X22758883Y-39847566D01*
X22822689Y-39854278D01*
X22877193Y-39897994D01*
X22899410Y-39964237D01*
X22899500Y-39968948D01*
X22899500Y-40204261D01*
X22901401Y-40224537D01*
X22888060Y-40293121D01*
X22839758Y-40343605D01*
X22771830Y-40359961D01*
X22736995Y-40353156D01*
X22734704Y-40352354D01*
X22734699Y-40352353D01*
X22704270Y-40349500D01*
X22704266Y-40349500D01*
X21420734Y-40349500D01*
X21420730Y-40349500D01*
X21390300Y-40352353D01*
X21390298Y-40352353D01*
X21262119Y-40397206D01*
X21262117Y-40397207D01*
X21152850Y-40477850D01*
X21072207Y-40587117D01*
X21072206Y-40587119D01*
X21027353Y-40715298D01*
X21027353Y-40715300D01*
X21024500Y-40745730D01*
X21024500Y-41154269D01*
X21027353Y-41184699D01*
X21027353Y-41184701D01*
X21075276Y-41321652D01*
X21072884Y-41322488D01*
X21084056Y-41377425D01*
X21058752Y-41442552D01*
X21002255Y-41483660D01*
X20960504Y-41490900D01*
X17766965Y-41490900D01*
X17699926Y-41471215D01*
X17654171Y-41418411D01*
X17644227Y-41349253D01*
X17647188Y-41334814D01*
X17650500Y-41322457D01*
X17650500Y-41164343D01*
X17613227Y-41025238D01*
X17614890Y-40955393D01*
X17639306Y-40911927D01*
X17647772Y-40902159D01*
X17692922Y-40867922D01*
X17784361Y-40747342D01*
X17786349Y-40742299D01*
X17796990Y-40730025D01*
X17816233Y-40717663D01*
X17832607Y-40701689D01*
X17845072Y-40699138D01*
X17855775Y-40692263D01*
X17878648Y-40692267D01*
X17901058Y-40687682D01*
X17912921Y-40692274D01*
X17925645Y-40692277D01*
X17944887Y-40704648D01*
X17966216Y-40712905D01*
X17973712Y-40723181D01*
X17984416Y-40730063D01*
X17993914Y-40750873D01*
X18007394Y-40769351D01*
X18008391Y-40772241D01*
X18015640Y-40794115D01*
X18015643Y-40794124D01*
X18107684Y-40943345D01*
X18231654Y-41067315D01*
X18380875Y-41159356D01*
X18380880Y-41159358D01*
X18547302Y-41214505D01*
X18547309Y-41214506D01*
X18650019Y-41224999D01*
X19200000Y-41224999D01*
X19249972Y-41224999D01*
X19249986Y-41224998D01*
X19352697Y-41214505D01*
X19519119Y-41159358D01*
X19519124Y-41159356D01*
X19668345Y-41067315D01*
X19792315Y-40943345D01*
X19884356Y-40794124D01*
X19884358Y-40794119D01*
X19939505Y-40627697D01*
X19939506Y-40627690D01*
X19949999Y-40524986D01*
X19950000Y-40524973D01*
X19950000Y-40250000D01*
X19200000Y-40250000D01*
X19200000Y-41224999D01*
X18650019Y-41224999D01*
X18699999Y-41224998D01*
X18700000Y-41224998D01*
X18700000Y-39750000D01*
X19200000Y-39750000D01*
X19949999Y-39750000D01*
X19949999Y-39475028D01*
X19949998Y-39475013D01*
X19939506Y-39372304D01*
X19915547Y-39300001D01*
X20827704Y-39300001D01*
X20827899Y-39302486D01*
X20873718Y-39460198D01*
X20957314Y-39601552D01*
X20957321Y-39601561D01*
X21073438Y-39717678D01*
X21073447Y-39717685D01*
X21214803Y-39801282D01*
X21214806Y-39801283D01*
X21372504Y-39847099D01*
X21372510Y-39847100D01*
X21409350Y-39849999D01*
X21409366Y-39850000D01*
X21812500Y-39850000D01*
X21812500Y-39300000D01*
X20827705Y-39300000D01*
X20827704Y-39300001D01*
X19915547Y-39300001D01*
X19913777Y-39294661D01*
X19913776Y-39294659D01*
X19884358Y-39205880D01*
X19884356Y-39205875D01*
X19792315Y-39056654D01*
X19668345Y-38932684D01*
X19519124Y-38840643D01*
X19519119Y-38840641D01*
X19396467Y-38799998D01*
X20827704Y-38799998D01*
X20827705Y-38800000D01*
X21812500Y-38800000D01*
X21812500Y-38250000D01*
X21409350Y-38250000D01*
X21372510Y-38252899D01*
X21372504Y-38252900D01*
X21214806Y-38298716D01*
X21214803Y-38298717D01*
X21073447Y-38382314D01*
X21073438Y-38382321D01*
X20957321Y-38498438D01*
X20957314Y-38498447D01*
X20873718Y-38639801D01*
X20827899Y-38797513D01*
X20827704Y-38799998D01*
X19396467Y-38799998D01*
X19352697Y-38785494D01*
X19352690Y-38785493D01*
X19249986Y-38775000D01*
X19200000Y-38775000D01*
X19200000Y-39750000D01*
X18700000Y-39750000D01*
X18700000Y-38775000D01*
X18699999Y-38774999D01*
X18650029Y-38775000D01*
X18650011Y-38775001D01*
X18547302Y-38785494D01*
X18380880Y-38840641D01*
X18380875Y-38840643D01*
X18231654Y-38932684D01*
X18107684Y-39056654D01*
X18015643Y-39205875D01*
X18015640Y-39205884D01*
X18008391Y-39227759D01*
X17968618Y-39285203D01*
X17904102Y-39312025D01*
X17835326Y-39299709D01*
X17790834Y-39258393D01*
X17789486Y-39259416D01*
X17692922Y-39132077D01*
X17572343Y-39040639D01*
X17431561Y-38985122D01*
X17385926Y-38979642D01*
X17343102Y-38974500D01*
X16756898Y-38974500D01*
X16717853Y-38979188D01*
X16668438Y-38985122D01*
X16527656Y-39040639D01*
X16407077Y-39132077D01*
X16315638Y-39252658D01*
X16315637Y-39252660D01*
X16268974Y-39370990D01*
X16226069Y-39426134D01*
X16160161Y-39449327D01*
X16153620Y-39449500D01*
X14811521Y-39449500D01*
X14744482Y-39429815D01*
X14698727Y-39377011D01*
X14696174Y-39371009D01*
X14659361Y-39277658D01*
X14659360Y-39277657D01*
X14659360Y-39277656D01*
X14567922Y-39157077D01*
X14447343Y-39065639D01*
X14351192Y-39027722D01*
X14306564Y-39010123D01*
X14306563Y-39010122D01*
X14306561Y-39010122D01*
X14260926Y-39004642D01*
X14218102Y-38999500D01*
X13606898Y-38999500D01*
X13567853Y-39004188D01*
X13518438Y-39010122D01*
X13377656Y-39065639D01*
X13257077Y-39157077D01*
X13165639Y-39277656D01*
X13155848Y-39302486D01*
X13115353Y-39405171D01*
X13072449Y-39460314D01*
X13006541Y-39483507D01*
X12938556Y-39467386D01*
X12890080Y-39417070D01*
X12884648Y-39405178D01*
X12834361Y-39277658D01*
X12834360Y-39277657D01*
X12834360Y-39277656D01*
X12742922Y-39157077D01*
X12622343Y-39065639D01*
X12526192Y-39027722D01*
X12481564Y-39010123D01*
X12481563Y-39010122D01*
X12481561Y-39010122D01*
X12435926Y-39004642D01*
X12393102Y-38999500D01*
X11781898Y-38999500D01*
X11742853Y-39004188D01*
X11693438Y-39010122D01*
X11552656Y-39065639D01*
X11432077Y-39157077D01*
X11340639Y-39277656D01*
X11331943Y-39299709D01*
X11303832Y-39370991D01*
X11260928Y-39426134D01*
X11195020Y-39449327D01*
X11188479Y-39449500D01*
X9811521Y-39449500D01*
X9744482Y-39429815D01*
X9698727Y-39377011D01*
X9696174Y-39371009D01*
X9659361Y-39277658D01*
X9659360Y-39277657D01*
X9659360Y-39277656D01*
X9567922Y-39157077D01*
X9447343Y-39065639D01*
X9351192Y-39027722D01*
X9306564Y-39010123D01*
X9306563Y-39010122D01*
X9306561Y-39010122D01*
X9260926Y-39004642D01*
X9218102Y-38999500D01*
X8606898Y-38999500D01*
X8567853Y-39004188D01*
X8518438Y-39010122D01*
X8377656Y-39065639D01*
X8257077Y-39157077D01*
X8165639Y-39277656D01*
X8155848Y-39302486D01*
X8115353Y-39405171D01*
X8072449Y-39460314D01*
X8006541Y-39483507D01*
X7938556Y-39467386D01*
X7890080Y-39417070D01*
X7884648Y-39405178D01*
X7834361Y-39277658D01*
X7834360Y-39277657D01*
X7834360Y-39277656D01*
X7742925Y-39157082D01*
X7742923Y-39157079D01*
X7742920Y-39157077D01*
X7687072Y-39114725D01*
X7645551Y-39058533D01*
X7638000Y-39015923D01*
X7638000Y-33984076D01*
X7657685Y-33917037D01*
X7687075Y-33885272D01*
X7709955Y-33867922D01*
X7742922Y-33842922D01*
X7834361Y-33722342D01*
X7884646Y-33594826D01*
X7927551Y-33539685D01*
X7993459Y-33516492D01*
X8061443Y-33532612D01*
X8109920Y-33582929D01*
X8115348Y-33594814D01*
X8148596Y-33679123D01*
X8165639Y-33722343D01*
X8257077Y-33842922D01*
X8377656Y-33934360D01*
X8377657Y-33934360D01*
X8377658Y-33934361D01*
X8518436Y-33989877D01*
X8606898Y-34000500D01*
X8606903Y-34000500D01*
X9218097Y-34000500D01*
X9218102Y-34000500D01*
X9306564Y-33989877D01*
X9447342Y-33934361D01*
X9567922Y-33842922D01*
X9659361Y-33722342D01*
X9696167Y-33629008D01*
X9739072Y-33573866D01*
X9804980Y-33550673D01*
X9811521Y-33550500D01*
X11188479Y-33550500D01*
X11255518Y-33570185D01*
X11301273Y-33622989D01*
X11303825Y-33628990D01*
X11323596Y-33679123D01*
X11340639Y-33722343D01*
X11432077Y-33842922D01*
X11552656Y-33934360D01*
X11552657Y-33934360D01*
X11552658Y-33934361D01*
X11693436Y-33989877D01*
X11781898Y-34000500D01*
X12258113Y-34000500D01*
X12287553Y-34009144D01*
X12317540Y-34015668D01*
X12322555Y-34019422D01*
X12325152Y-34020185D01*
X12345794Y-34036819D01*
X12390205Y-34081230D01*
X12412037Y-34113905D01*
X12412659Y-34113546D01*
X12495777Y-34257512D01*
X12495779Y-34257515D01*
X12495780Y-34257516D01*
X12607584Y-34369320D01*
X12607586Y-34369321D01*
X12607590Y-34369324D01*
X12744509Y-34448373D01*
X12744516Y-34448377D01*
X12897243Y-34489300D01*
X12897245Y-34489300D01*
X13055355Y-34489300D01*
X13055357Y-34489300D01*
X13208084Y-34448377D01*
X13345016Y-34369320D01*
X13456820Y-34257516D01*
X13535877Y-34120584D01*
X13543427Y-34092403D01*
X13579793Y-34032745D01*
X13642640Y-34002217D01*
X13663202Y-34000500D01*
X14218097Y-34000500D01*
X14218102Y-34000500D01*
X14306564Y-33989877D01*
X14447342Y-33934361D01*
X14567922Y-33842922D01*
X14659361Y-33722342D01*
X14696167Y-33629008D01*
X14739072Y-33573866D01*
X14804980Y-33550673D01*
X14811521Y-33550500D01*
X16153620Y-33550500D01*
X16220659Y-33570185D01*
X16266414Y-33622989D01*
X16268974Y-33629010D01*
X16315637Y-33747339D01*
X16315638Y-33747341D01*
X16407077Y-33867922D01*
X16527656Y-33959360D01*
X16527657Y-33959360D01*
X16527658Y-33959361D01*
X16668436Y-34014877D01*
X16756898Y-34025500D01*
X17245613Y-34025500D01*
X17312652Y-34045185D01*
X17333294Y-34061819D01*
X17617089Y-34345614D01*
X17622164Y-34351400D01*
X17625180Y-34354416D01*
X17736984Y-34466220D01*
X17736986Y-34466221D01*
X17736990Y-34466224D01*
X17873909Y-34545273D01*
X17873916Y-34545277D01*
X18026643Y-34586200D01*
X18026645Y-34586200D01*
X18184755Y-34586200D01*
X18184757Y-34586200D01*
X18337484Y-34545277D01*
X18474416Y-34466220D01*
X18586220Y-34354416D01*
X18625142Y-34286999D01*
X18675709Y-34238784D01*
X18689580Y-34235418D01*
X18700000Y-34224999D01*
X19200000Y-34224999D01*
X19249972Y-34224999D01*
X19249986Y-34224998D01*
X19352697Y-34214505D01*
X19519119Y-34159358D01*
X19519124Y-34159356D01*
X19668345Y-34067315D01*
X19792315Y-33943345D01*
X19884356Y-33794124D01*
X19884358Y-33794119D01*
X19939505Y-33627697D01*
X19939506Y-33627690D01*
X19949999Y-33524986D01*
X19950000Y-33524973D01*
X19950000Y-33250000D01*
X19200000Y-33250000D01*
X19200000Y-34224999D01*
X18700000Y-34224999D01*
X18700000Y-34087895D01*
X18706200Y-34064757D01*
X18706200Y-33906643D01*
X18700000Y-33883504D01*
X18700000Y-32750000D01*
X19200000Y-32750000D01*
X19949999Y-32750000D01*
X19949999Y-32475028D01*
X19949998Y-32475013D01*
X19939506Y-32372304D01*
X19915547Y-32300001D01*
X20827704Y-32300001D01*
X20827899Y-32302486D01*
X20873718Y-32460198D01*
X20957314Y-32601552D01*
X20957321Y-32601561D01*
X21073438Y-32717678D01*
X21073447Y-32717685D01*
X21214803Y-32801282D01*
X21214806Y-32801283D01*
X21372504Y-32847099D01*
X21372510Y-32847100D01*
X21409350Y-32849999D01*
X21409366Y-32850000D01*
X21812500Y-32850000D01*
X21812500Y-32300000D01*
X20827705Y-32300000D01*
X20827704Y-32300001D01*
X19915547Y-32300001D01*
X19913777Y-32294661D01*
X19913776Y-32294659D01*
X19884358Y-32205880D01*
X19884356Y-32205875D01*
X19792315Y-32056654D01*
X19668345Y-31932684D01*
X19519124Y-31840643D01*
X19519119Y-31840641D01*
X19396467Y-31799998D01*
X20827704Y-31799998D01*
X20827705Y-31800000D01*
X21812500Y-31800000D01*
X22312500Y-31800000D01*
X23297295Y-31800000D01*
X23297295Y-31799998D01*
X23297100Y-31797513D01*
X23251281Y-31639801D01*
X23167685Y-31498447D01*
X23167678Y-31498438D01*
X23051561Y-31382321D01*
X23051552Y-31382314D01*
X22910196Y-31298717D01*
X22910193Y-31298716D01*
X22752495Y-31252900D01*
X22752489Y-31252899D01*
X22715649Y-31250000D01*
X22312500Y-31250000D01*
X22312500Y-31800000D01*
X21812500Y-31800000D01*
X21812500Y-31250000D01*
X21409350Y-31250000D01*
X21372510Y-31252899D01*
X21372504Y-31252900D01*
X21214806Y-31298716D01*
X21214803Y-31298717D01*
X21073447Y-31382314D01*
X21073438Y-31382321D01*
X20957321Y-31498438D01*
X20957314Y-31498447D01*
X20873718Y-31639801D01*
X20827899Y-31797513D01*
X20827704Y-31799998D01*
X19396467Y-31799998D01*
X19352697Y-31785494D01*
X19352690Y-31785493D01*
X19249986Y-31775000D01*
X19200000Y-31775000D01*
X19200000Y-32750000D01*
X18700000Y-32750000D01*
X18700000Y-31775000D01*
X18699999Y-31774999D01*
X18650029Y-31775000D01*
X18650011Y-31775001D01*
X18547302Y-31785494D01*
X18380880Y-31840641D01*
X18380875Y-31840643D01*
X18231654Y-31932684D01*
X18107684Y-32056654D01*
X18015643Y-32205875D01*
X18015640Y-32205884D01*
X18008391Y-32227759D01*
X17968618Y-32285203D01*
X17904102Y-32312025D01*
X17835326Y-32299709D01*
X17790834Y-32258393D01*
X17789486Y-32259416D01*
X17692922Y-32132077D01*
X17572343Y-32040639D01*
X17431561Y-31985122D01*
X17385926Y-31979642D01*
X17343102Y-31974500D01*
X16756898Y-31974500D01*
X16717853Y-31979188D01*
X16668438Y-31985122D01*
X16527656Y-32040639D01*
X16407077Y-32132077D01*
X16315638Y-32252658D01*
X16315637Y-32252660D01*
X16268974Y-32370990D01*
X16226069Y-32426134D01*
X16160161Y-32449327D01*
X16153620Y-32449500D01*
X14811521Y-32449500D01*
X14744482Y-32429815D01*
X14698727Y-32377011D01*
X14696174Y-32371009D01*
X14659361Y-32277658D01*
X14659360Y-32277657D01*
X14659360Y-32277656D01*
X14567922Y-32157077D01*
X14447343Y-32065639D01*
X14351192Y-32027722D01*
X14306564Y-32010123D01*
X14306563Y-32010122D01*
X14306561Y-32010122D01*
X14260926Y-32004642D01*
X14218102Y-31999500D01*
X13606898Y-31999500D01*
X13567853Y-32004188D01*
X13518438Y-32010122D01*
X13377656Y-32065639D01*
X13257077Y-32157077D01*
X13165639Y-32277656D01*
X13135665Y-32353663D01*
X13115353Y-32405171D01*
X13072449Y-32460314D01*
X13006541Y-32483507D01*
X12938556Y-32467386D01*
X12890080Y-32417070D01*
X12884648Y-32405178D01*
X12834361Y-32277658D01*
X12834360Y-32277657D01*
X12834360Y-32277656D01*
X12742922Y-32157077D01*
X12622343Y-32065639D01*
X12526192Y-32027722D01*
X12481564Y-32010123D01*
X12481563Y-32010122D01*
X12481561Y-32010122D01*
X12435926Y-32004642D01*
X12393102Y-31999500D01*
X11781898Y-31999500D01*
X11742853Y-32004188D01*
X11693438Y-32010122D01*
X11552656Y-32065639D01*
X11432077Y-32157077D01*
X11340639Y-32277656D01*
X11321772Y-32325500D01*
X11303832Y-32370991D01*
X11260928Y-32426134D01*
X11195020Y-32449327D01*
X11188479Y-32449500D01*
X9811521Y-32449500D01*
X9744482Y-32429815D01*
X9698727Y-32377011D01*
X9696174Y-32371009D01*
X9659361Y-32277658D01*
X9659360Y-32277657D01*
X9659360Y-32277656D01*
X9567922Y-32157077D01*
X9447343Y-32065639D01*
X9351192Y-32027722D01*
X9306564Y-32010123D01*
X9306563Y-32010122D01*
X9306561Y-32010122D01*
X9260926Y-32004642D01*
X9218102Y-31999500D01*
X8606898Y-31999500D01*
X8567853Y-32004188D01*
X8518438Y-32010122D01*
X8377656Y-32065639D01*
X8257077Y-32157077D01*
X8165639Y-32277656D01*
X8135665Y-32353663D01*
X8115353Y-32405171D01*
X8072449Y-32460314D01*
X8006541Y-32483507D01*
X7938556Y-32467386D01*
X7890080Y-32417070D01*
X7884648Y-32405178D01*
X7834361Y-32277658D01*
X7834360Y-32277657D01*
X7834360Y-32277656D01*
X7742925Y-32157082D01*
X7742923Y-32157079D01*
X7742920Y-32157077D01*
X7687072Y-32114725D01*
X7645551Y-32058533D01*
X7638000Y-32015923D01*
X7638000Y-27897362D01*
X7645667Y-27858822D01*
X7644973Y-27858636D01*
X7647827Y-27847984D01*
X7688000Y-27698057D01*
X7688000Y-27539943D01*
X7647077Y-27387216D01*
X7647076Y-27387214D01*
X7644973Y-27379365D01*
X7645665Y-27379179D01*
X7638000Y-27340637D01*
X7638000Y-26984076D01*
X7657685Y-26917037D01*
X7687075Y-26885272D01*
X7709955Y-26867922D01*
X7742922Y-26842922D01*
X7834361Y-26722342D01*
X7884646Y-26594826D01*
X7927551Y-26539685D01*
X7993459Y-26516492D01*
X8061443Y-26532612D01*
X8109920Y-26582929D01*
X8115348Y-26594814D01*
X8144862Y-26669655D01*
X8165639Y-26722343D01*
X8257077Y-26842922D01*
X8377656Y-26934360D01*
X8377657Y-26934360D01*
X8377658Y-26934361D01*
X8518436Y-26989877D01*
X8606898Y-27000500D01*
X8606903Y-27000500D01*
X9218097Y-27000500D01*
X9218102Y-27000500D01*
X9306564Y-26989877D01*
X9447342Y-26934361D01*
X9567922Y-26842922D01*
X9659361Y-26722342D01*
X9696167Y-26629008D01*
X9739072Y-26573866D01*
X9804980Y-26550673D01*
X9811521Y-26550500D01*
X11188479Y-26550500D01*
X11255518Y-26570185D01*
X11301273Y-26622989D01*
X11303825Y-26628990D01*
X11319862Y-26669655D01*
X11340639Y-26722343D01*
X11432076Y-26842920D01*
X11432078Y-26842922D01*
X11476332Y-26876481D01*
X11481988Y-26880770D01*
X11523511Y-26936963D01*
X11528062Y-27006684D01*
X11526837Y-27011667D01*
X11487264Y-27159356D01*
X11487000Y-27160343D01*
X11487000Y-27318457D01*
X11519525Y-27439840D01*
X11527923Y-27471183D01*
X11527926Y-27471190D01*
X11606975Y-27608109D01*
X11606979Y-27608114D01*
X11606980Y-27608116D01*
X11718784Y-27719920D01*
X11718786Y-27719921D01*
X11718790Y-27719924D01*
X11849257Y-27795248D01*
X11855716Y-27798977D01*
X12008443Y-27839900D01*
X12008445Y-27839900D01*
X12166555Y-27839900D01*
X12166557Y-27839900D01*
X12319284Y-27798977D01*
X12456216Y-27719920D01*
X12568020Y-27608116D01*
X12647077Y-27471184D01*
X12688000Y-27318457D01*
X12688000Y-27160343D01*
X12648162Y-27011665D01*
X12649825Y-26941818D01*
X12688987Y-26883955D01*
X12693012Y-26880770D01*
X12742922Y-26842922D01*
X12815403Y-26747342D01*
X12834361Y-26722342D01*
X12884646Y-26594826D01*
X12927551Y-26539685D01*
X12993459Y-26516492D01*
X13061443Y-26532612D01*
X13109920Y-26582929D01*
X13115348Y-26594814D01*
X13144862Y-26669655D01*
X13165639Y-26722343D01*
X13257077Y-26842922D01*
X13377656Y-26934360D01*
X13377657Y-26934360D01*
X13377658Y-26934361D01*
X13518436Y-26989877D01*
X13606898Y-27000500D01*
X13606903Y-27000500D01*
X14218097Y-27000500D01*
X14218102Y-27000500D01*
X14306564Y-26989877D01*
X14447342Y-26934361D01*
X14567922Y-26842922D01*
X14659361Y-26722342D01*
X14696167Y-26629008D01*
X14739072Y-26573866D01*
X14804980Y-26550673D01*
X14811521Y-26550500D01*
X16153620Y-26550500D01*
X16220659Y-26570185D01*
X16266414Y-26622989D01*
X16268974Y-26629010D01*
X16315637Y-26747339D01*
X16315638Y-26747341D01*
X16407077Y-26867922D01*
X16527656Y-26959360D01*
X16527657Y-26959360D01*
X16527658Y-26959361D01*
X16668436Y-27014877D01*
X16756898Y-27025500D01*
X16756903Y-27025500D01*
X17343097Y-27025500D01*
X17343102Y-27025500D01*
X17431564Y-27014877D01*
X17572342Y-26959361D01*
X17692922Y-26867922D01*
X17703278Y-26854266D01*
X17789486Y-26740584D01*
X17791317Y-26741972D01*
X17832607Y-26701689D01*
X17901058Y-26687682D01*
X17966216Y-26712905D01*
X18007394Y-26769351D01*
X18008391Y-26772241D01*
X18015640Y-26794115D01*
X18015643Y-26794124D01*
X18107684Y-26943345D01*
X18231654Y-27067315D01*
X18380875Y-27159356D01*
X18380880Y-27159358D01*
X18547302Y-27214505D01*
X18547309Y-27214506D01*
X18650019Y-27224999D01*
X19200000Y-27224999D01*
X19249972Y-27224999D01*
X19249986Y-27224998D01*
X19352697Y-27214505D01*
X19519119Y-27159358D01*
X19519124Y-27159356D01*
X19668345Y-27067315D01*
X19792315Y-26943345D01*
X19884356Y-26794124D01*
X19884358Y-26794119D01*
X19939505Y-26627697D01*
X19939506Y-26627690D01*
X19949999Y-26524986D01*
X19950000Y-26524973D01*
X19950000Y-26250000D01*
X19200000Y-26250000D01*
X19200000Y-27224999D01*
X18650019Y-27224999D01*
X18699999Y-27224998D01*
X18700000Y-27224998D01*
X18700000Y-26124000D01*
X18719685Y-26056961D01*
X18772489Y-26011206D01*
X18824000Y-26000000D01*
X18950000Y-26000000D01*
X18950000Y-25874000D01*
X18969685Y-25806961D01*
X19022489Y-25761206D01*
X19074000Y-25750000D01*
X19949999Y-25750000D01*
X19949999Y-25475028D01*
X19949998Y-25475013D01*
X19939506Y-25372304D01*
X19915547Y-25300001D01*
X20827704Y-25300001D01*
X20827899Y-25302486D01*
X20873718Y-25460198D01*
X20957314Y-25601552D01*
X20957321Y-25601561D01*
X21073438Y-25717678D01*
X21073447Y-25717685D01*
X21214803Y-25801282D01*
X21214806Y-25801283D01*
X21372504Y-25847099D01*
X21372510Y-25847100D01*
X21409350Y-25849999D01*
X21409366Y-25850000D01*
X21812500Y-25850000D01*
X21812500Y-25300000D01*
X20827705Y-25300000D01*
X20827704Y-25300001D01*
X19915547Y-25300001D01*
X19913777Y-25294661D01*
X19913776Y-25294659D01*
X19884358Y-25205880D01*
X19884356Y-25205875D01*
X19792315Y-25056654D01*
X19734742Y-24999081D01*
X19701257Y-24937758D01*
X19706241Y-24868066D01*
X19748113Y-24812133D01*
X19813577Y-24787716D01*
X19822423Y-24787400D01*
X20761819Y-24787400D01*
X20804729Y-24800000D01*
G37*
%TD.AperFunction*%
%TA.AperFunction,Conductor*%
G36*
X39605930Y-24927948D02*
G01*
X39616437Y-24928700D01*
X39636451Y-24943683D01*
X39658673Y-24955139D01*
X39668575Y-24967731D01*
X39672370Y-24970572D01*
X39680490Y-24982882D01*
X39744477Y-25093712D01*
X39744479Y-25093715D01*
X39744480Y-25093716D01*
X39856284Y-25205520D01*
X39856286Y-25205521D01*
X39856290Y-25205524D01*
X39944105Y-25256223D01*
X39993216Y-25284577D01*
X40145943Y-25325500D01*
X40145945Y-25325500D01*
X40304055Y-25325500D01*
X40304057Y-25325500D01*
X40456784Y-25284577D01*
X40456785Y-25284576D01*
X40464635Y-25282473D01*
X40464820Y-25283165D01*
X40503363Y-25275500D01*
X40652525Y-25275500D01*
X40902525Y-25275500D01*
X41152525Y-25275500D01*
X41402525Y-25275500D01*
X41652525Y-25275500D01*
X41902525Y-25275500D01*
X42152525Y-25275500D01*
X42402525Y-25275500D01*
X42652525Y-25275500D01*
X42902525Y-25275500D01*
X43152525Y-25275500D01*
X43275986Y-25275500D01*
X43343025Y-25295185D01*
X43388780Y-25347989D01*
X43398724Y-25417147D01*
X43381525Y-25464597D01*
X43340643Y-25530875D01*
X43340641Y-25530880D01*
X43285494Y-25697302D01*
X43285493Y-25697309D01*
X43275000Y-25800013D01*
X43275000Y-25850000D01*
X44376000Y-25850000D01*
X44443039Y-25869685D01*
X44488794Y-25922489D01*
X44500000Y-25974000D01*
X44500000Y-26226000D01*
X44480315Y-26293039D01*
X44427511Y-26338794D01*
X44376000Y-26350000D01*
X43275001Y-26350000D01*
X43275001Y-26399986D01*
X43285494Y-26502697D01*
X43340641Y-26669119D01*
X43340643Y-26669124D01*
X43432684Y-26818345D01*
X43556654Y-26942315D01*
X43705876Y-27034356D01*
X43727755Y-27041606D01*
X43785201Y-27081378D01*
X43812025Y-27145893D01*
X43799711Y-27214669D01*
X43758393Y-27259166D01*
X43759416Y-27260514D01*
X43632077Y-27357077D01*
X43540639Y-27477656D01*
X43485122Y-27618438D01*
X43479188Y-27667853D01*
X43474500Y-27706898D01*
X43474500Y-27706903D01*
X43474500Y-27728209D01*
X43454815Y-27795248D01*
X43402011Y-27841003D01*
X43332853Y-27850947D01*
X43318409Y-27847984D01*
X43283761Y-27838700D01*
X43283757Y-27838700D01*
X43125643Y-27838700D01*
X42972916Y-27879623D01*
X42972913Y-27879624D01*
X42877715Y-27934587D01*
X42815715Y-27951200D01*
X41099500Y-27951200D01*
X41032461Y-27931515D01*
X40986706Y-27878711D01*
X40975500Y-27827200D01*
X40975500Y-27715730D01*
X40972646Y-27685300D01*
X40972646Y-27685298D01*
X40927793Y-27557119D01*
X40927792Y-27557117D01*
X40885931Y-27500397D01*
X40861961Y-27434770D01*
X40877276Y-27366600D01*
X40922589Y-27320028D01*
X40926557Y-27317681D01*
X40926561Y-27317678D01*
X41042678Y-27201561D01*
X41042685Y-27201552D01*
X41126281Y-27060198D01*
X41172100Y-26902486D01*
X41172295Y-26900001D01*
X41172295Y-26900000D01*
X38127705Y-26900000D01*
X38127704Y-26900001D01*
X38127899Y-26902486D01*
X38173718Y-27060198D01*
X38257314Y-27201552D01*
X38257321Y-27201561D01*
X38373438Y-27317678D01*
X38373444Y-27317682D01*
X38377415Y-27320031D01*
X38425100Y-27371099D01*
X38437606Y-27439840D01*
X38414068Y-27500398D01*
X38372207Y-27557118D01*
X38372206Y-27557119D01*
X38327353Y-27685298D01*
X38327353Y-27685300D01*
X38324500Y-27715730D01*
X38324500Y-28124269D01*
X38327353Y-28154699D01*
X38327353Y-28154701D01*
X38372206Y-28282880D01*
X38372207Y-28282882D01*
X38452850Y-28392150D01*
X38538321Y-28455230D01*
X38580571Y-28510877D01*
X38586030Y-28580534D01*
X38552962Y-28642083D01*
X38538321Y-28654769D01*
X38537619Y-28655288D01*
X38452850Y-28717850D01*
X38372207Y-28827117D01*
X38372206Y-28827119D01*
X38327353Y-28955298D01*
X38327353Y-28955300D01*
X38324500Y-28985730D01*
X38324500Y-29394269D01*
X38327353Y-29424699D01*
X38327353Y-29424701D01*
X38364165Y-29529900D01*
X38372207Y-29552882D01*
X38452850Y-29662150D01*
X38538321Y-29725230D01*
X38580571Y-29780877D01*
X38586030Y-29850534D01*
X38552962Y-29912083D01*
X38538321Y-29924769D01*
X38464195Y-29979477D01*
X38452850Y-29987850D01*
X38372207Y-30097117D01*
X38372206Y-30097119D01*
X38327353Y-30225298D01*
X38327353Y-30225300D01*
X38324500Y-30255730D01*
X38324500Y-30664269D01*
X38327353Y-30694699D01*
X38327353Y-30694701D01*
X38372206Y-30822880D01*
X38372207Y-30822882D01*
X38452850Y-30932150D01*
X38530038Y-30989117D01*
X38538321Y-30995230D01*
X38580571Y-31050877D01*
X38586030Y-31120534D01*
X38552962Y-31182083D01*
X38538321Y-31194769D01*
X38518361Y-31209501D01*
X38452850Y-31257850D01*
X38372207Y-31367117D01*
X38372206Y-31367119D01*
X38327353Y-31495298D01*
X38327353Y-31495300D01*
X38324500Y-31525730D01*
X38324500Y-31934269D01*
X38327353Y-31964699D01*
X38327353Y-31964701D01*
X38372206Y-32092880D01*
X38372207Y-32092882D01*
X38452850Y-32202150D01*
X38538321Y-32265230D01*
X38580571Y-32320877D01*
X38586030Y-32390534D01*
X38552962Y-32452083D01*
X38538321Y-32464769D01*
X38487331Y-32502402D01*
X38452850Y-32527850D01*
X38372207Y-32637117D01*
X38372206Y-32637119D01*
X38327353Y-32765298D01*
X38327353Y-32765300D01*
X38324500Y-32795730D01*
X38324500Y-33204269D01*
X38327353Y-33234699D01*
X38327353Y-33234701D01*
X38371185Y-33359961D01*
X38372207Y-33362882D01*
X38452850Y-33472150D01*
X38538321Y-33535230D01*
X38580571Y-33590877D01*
X38586030Y-33660534D01*
X38552962Y-33722083D01*
X38538321Y-33734769D01*
X38523465Y-33745734D01*
X38452850Y-33797850D01*
X38372207Y-33907117D01*
X38372206Y-33907119D01*
X38327353Y-34035298D01*
X38327353Y-34035300D01*
X38324500Y-34065730D01*
X38324500Y-34474269D01*
X38327353Y-34504699D01*
X38327353Y-34504701D01*
X38355872Y-34586200D01*
X38372207Y-34632882D01*
X38452850Y-34742150D01*
X38538321Y-34805230D01*
X38580571Y-34860877D01*
X38586030Y-34930534D01*
X38552962Y-34992083D01*
X38538321Y-35004769D01*
X38536402Y-35006186D01*
X38452850Y-35067850D01*
X38372207Y-35177117D01*
X38372206Y-35177119D01*
X38327353Y-35305298D01*
X38327353Y-35305300D01*
X38324500Y-35335730D01*
X38324500Y-35744269D01*
X38327353Y-35774699D01*
X38327353Y-35774701D01*
X38372206Y-35902880D01*
X38372207Y-35902882D01*
X38452850Y-36012150D01*
X38538321Y-36075230D01*
X38580571Y-36130877D01*
X38586030Y-36200534D01*
X38552962Y-36262083D01*
X38538321Y-36274769D01*
X38527554Y-36282716D01*
X38452850Y-36337850D01*
X38372207Y-36447117D01*
X38372206Y-36447119D01*
X38327353Y-36575298D01*
X38327353Y-36575300D01*
X38324500Y-36605730D01*
X38324500Y-36948800D01*
X38304815Y-37015839D01*
X38252011Y-37061594D01*
X38200500Y-37072800D01*
X34709085Y-37072800D01*
X34647085Y-37056187D01*
X34551886Y-37001224D01*
X34551885Y-37001223D01*
X34551884Y-37001223D01*
X34399157Y-36960300D01*
X34241043Y-36960300D01*
X34088316Y-37001223D01*
X34088309Y-37001226D01*
X33951390Y-37080275D01*
X33951382Y-37080281D01*
X33839581Y-37192082D01*
X33839575Y-37192090D01*
X33760526Y-37329009D01*
X33760523Y-37329016D01*
X33719600Y-37481743D01*
X33719600Y-37639857D01*
X33754314Y-37769409D01*
X33760523Y-37792583D01*
X33760526Y-37792590D01*
X33839575Y-37929509D01*
X33839579Y-37929514D01*
X33839580Y-37929516D01*
X33951384Y-38041320D01*
X33951386Y-38041321D01*
X33951390Y-38041324D01*
X34064753Y-38106773D01*
X34088316Y-38120377D01*
X34241043Y-38161300D01*
X34241045Y-38161300D01*
X34399155Y-38161300D01*
X34399157Y-38161300D01*
X34551884Y-38120377D01*
X34647085Y-38065412D01*
X34709085Y-38048800D01*
X38200500Y-38048800D01*
X38267539Y-38068485D01*
X38313294Y-38121289D01*
X38324500Y-38172800D01*
X38324500Y-38284269D01*
X38327353Y-38314698D01*
X38327353Y-38314701D01*
X38365821Y-38424632D01*
X38372207Y-38442882D01*
X38452850Y-38552150D01*
X38562118Y-38632793D01*
X38604845Y-38647744D01*
X38690299Y-38677646D01*
X38720730Y-38680500D01*
X38720734Y-38680500D01*
X40579270Y-38680500D01*
X40609699Y-38677646D01*
X40609701Y-38677646D01*
X40687278Y-38650500D01*
X40737882Y-38632793D01*
X40847150Y-38552150D01*
X40927793Y-38442882D01*
X40952486Y-38372313D01*
X40972646Y-38314701D01*
X40972647Y-38314698D01*
X40975500Y-38284269D01*
X40975500Y-37875730D01*
X40972646Y-37845300D01*
X40972646Y-37845298D01*
X40927793Y-37717119D01*
X40927792Y-37717117D01*
X40847150Y-37607850D01*
X40845031Y-37606286D01*
X40761677Y-37544768D01*
X40719428Y-37489123D01*
X40713969Y-37419467D01*
X40747036Y-37357917D01*
X40761670Y-37345236D01*
X40847150Y-37282150D01*
X40927793Y-37172882D01*
X40954819Y-37095647D01*
X40972646Y-37044701D01*
X40972646Y-37044699D01*
X40975500Y-37014269D01*
X40975500Y-36605730D01*
X40972646Y-36575300D01*
X40972646Y-36575298D01*
X40927793Y-36447119D01*
X40927792Y-36447117D01*
X40912933Y-36426984D01*
X40847150Y-36337850D01*
X40761677Y-36274768D01*
X40719428Y-36219123D01*
X40713969Y-36149467D01*
X40747036Y-36087917D01*
X40761670Y-36075236D01*
X40847150Y-36012150D01*
X40927793Y-35902882D01*
X40950653Y-35837553D01*
X40972646Y-35774701D01*
X40972646Y-35774699D01*
X40975500Y-35744269D01*
X40975500Y-35335730D01*
X40972646Y-35305300D01*
X40972646Y-35305298D01*
X40927793Y-35177119D01*
X40927792Y-35177117D01*
X40847150Y-35067850D01*
X40761677Y-35004768D01*
X40719428Y-34949123D01*
X40713969Y-34879467D01*
X40747036Y-34817917D01*
X40761670Y-34805236D01*
X40847150Y-34742150D01*
X40927793Y-34632882D01*
X40958449Y-34545273D01*
X40972646Y-34504701D01*
X40972646Y-34504699D01*
X40975500Y-34474269D01*
X40975500Y-34065730D01*
X40972646Y-34035300D01*
X40972646Y-34035298D01*
X40931264Y-33917037D01*
X40927793Y-33907118D01*
X40847150Y-33797850D01*
X40761677Y-33734768D01*
X40719428Y-33679123D01*
X40713969Y-33609467D01*
X40747036Y-33547917D01*
X40761670Y-33535236D01*
X40847150Y-33472150D01*
X40927793Y-33362882D01*
X40952203Y-33293121D01*
X40972646Y-33234701D01*
X40972646Y-33234699D01*
X40975500Y-33204269D01*
X40975500Y-32795730D01*
X40972646Y-32765300D01*
X40972646Y-32765298D01*
X40927793Y-32637119D01*
X40927792Y-32637117D01*
X40870500Y-32559489D01*
X40847150Y-32527850D01*
X40761677Y-32464768D01*
X40719428Y-32409123D01*
X40713969Y-32339467D01*
X40747036Y-32277917D01*
X40761670Y-32265236D01*
X40847150Y-32202150D01*
X40927793Y-32092882D01*
X40956752Y-32010122D01*
X40972646Y-31964701D01*
X40972646Y-31964699D01*
X40975500Y-31934269D01*
X40975500Y-31525730D01*
X40972646Y-31495300D01*
X40972646Y-31495298D01*
X40933110Y-31382314D01*
X40927793Y-31367118D01*
X40847150Y-31257850D01*
X40815198Y-31234268D01*
X40796393Y-31209501D01*
X40776039Y-31186011D01*
X40775450Y-31181917D01*
X40772949Y-31178623D01*
X40770519Y-31147625D01*
X40766095Y-31116853D01*
X40767813Y-31113090D01*
X40767490Y-31108967D01*
X40782203Y-31081579D01*
X40795120Y-31053297D01*
X40798600Y-31051060D01*
X40800557Y-31047418D01*
X40827738Y-31032334D01*
X40853898Y-31015523D01*
X40859480Y-31014720D01*
X40861651Y-31013516D01*
X40888833Y-31010500D01*
X41030137Y-31010500D01*
X41068679Y-31018165D01*
X41068865Y-31017473D01*
X41076714Y-31019576D01*
X41076716Y-31019577D01*
X41229443Y-31060500D01*
X41229445Y-31060500D01*
X41387555Y-31060500D01*
X41387557Y-31060500D01*
X41540284Y-31019577D01*
X41677216Y-30940520D01*
X41789020Y-30828716D01*
X41868077Y-30691784D01*
X41909000Y-30539057D01*
X41909000Y-30380943D01*
X41868077Y-30228216D01*
X41866394Y-30225301D01*
X41789024Y-30091290D01*
X41789018Y-30091282D01*
X41677217Y-29979481D01*
X41677212Y-29979477D01*
X41555448Y-29909177D01*
X41507232Y-29858610D01*
X41494009Y-29790003D01*
X41519977Y-29725138D01*
X41555448Y-29694403D01*
X41596816Y-29670520D01*
X41708620Y-29558716D01*
X41787677Y-29421784D01*
X41828600Y-29269057D01*
X41828600Y-29110943D01*
X41821191Y-29083292D01*
X41822854Y-29013443D01*
X41862017Y-28955581D01*
X41926245Y-28928077D01*
X41940966Y-28927200D01*
X42815715Y-28927200D01*
X42877714Y-28943812D01*
X42972916Y-28998777D01*
X43125643Y-29039700D01*
X43125645Y-29039700D01*
X43283755Y-29039700D01*
X43283757Y-29039700D01*
X43436484Y-28998777D01*
X43463502Y-28983178D01*
X43531399Y-28966706D01*
X43597426Y-28989558D01*
X43640617Y-29044479D01*
X43649500Y-29090566D01*
X43649500Y-31863010D01*
X43629815Y-31930049D01*
X43577011Y-31975804D01*
X43575588Y-31976444D01*
X43555934Y-31985122D01*
X43538546Y-31992800D01*
X43527233Y-31997795D01*
X43447794Y-32077234D01*
X43402415Y-32180006D01*
X43402415Y-32180008D01*
X43399500Y-32205131D01*
X43399500Y-33794856D01*
X43399502Y-33794882D01*
X43402413Y-33819987D01*
X43402415Y-33819991D01*
X43447793Y-33922764D01*
X43447794Y-33922765D01*
X43527235Y-34002206D01*
X43630009Y-34047585D01*
X43655135Y-34050500D01*
X44744864Y-34050499D01*
X44744879Y-34050497D01*
X44744882Y-34050497D01*
X44769987Y-34047586D01*
X44769987Y-34047585D01*
X44769991Y-34047585D01*
X44799913Y-34034372D01*
X44869190Y-34025301D01*
X44900086Y-34034373D01*
X44930007Y-34047584D01*
X44930009Y-34047585D01*
X44955135Y-34050500D01*
X46044864Y-34050499D01*
X46044879Y-34050497D01*
X46044882Y-34050497D01*
X46069987Y-34047586D01*
X46069988Y-34047585D01*
X46069991Y-34047585D01*
X46172765Y-34002206D01*
X46252206Y-33922765D01*
X46297585Y-33819991D01*
X46300500Y-33794865D01*
X46300500Y-33674500D01*
X46320185Y-33607461D01*
X46372989Y-33561706D01*
X46424500Y-33550500D01*
X47470613Y-33550500D01*
X47537652Y-33570185D01*
X47558294Y-33586819D01*
X50709294Y-36737819D01*
X50742779Y-36799142D01*
X50737795Y-36868834D01*
X50695923Y-36924767D01*
X50630459Y-36949184D01*
X50621613Y-36949500D01*
X49655143Y-36949500D01*
X49655117Y-36949502D01*
X49630012Y-36952413D01*
X49630008Y-36952415D01*
X49527235Y-36997793D01*
X49447794Y-37077234D01*
X49402415Y-37180006D01*
X49402415Y-37180008D01*
X49399500Y-37205131D01*
X49399500Y-37325500D01*
X49379815Y-37392539D01*
X49327011Y-37438294D01*
X49275500Y-37449500D01*
X49127525Y-37449500D01*
X49022517Y-37477637D01*
X48987514Y-37487016D01*
X48861986Y-37559489D01*
X48861983Y-37559491D01*
X47316294Y-39105181D01*
X47254971Y-39138666D01*
X47228613Y-39141500D01*
X46630425Y-39141500D01*
X46563386Y-39121815D01*
X46517631Y-39069011D01*
X46507687Y-38999853D01*
X46536712Y-38936297D01*
X46555500Y-38918696D01*
X46655422Y-38842922D01*
X46691866Y-38794864D01*
X46746861Y-38722342D01*
X46802377Y-38581564D01*
X46813000Y-38493102D01*
X46813000Y-38016887D01*
X46832685Y-37949848D01*
X46849319Y-37929206D01*
X47346006Y-37432519D01*
X47407329Y-37399034D01*
X47420641Y-37397602D01*
X47420597Y-37397261D01*
X47428648Y-37396200D01*
X47428657Y-37396200D01*
X47581384Y-37355277D01*
X47718316Y-37276220D01*
X47830120Y-37164416D01*
X47909177Y-37027484D01*
X47950100Y-36874757D01*
X47950100Y-36716643D01*
X47909177Y-36563916D01*
X47885314Y-36522583D01*
X47830124Y-36426990D01*
X47830118Y-36426982D01*
X47718317Y-36315181D01*
X47718309Y-36315175D01*
X47581390Y-36236126D01*
X47581386Y-36236124D01*
X47581384Y-36236123D01*
X47428657Y-36195200D01*
X47270543Y-36195200D01*
X47117816Y-36236123D01*
X47117815Y-36236123D01*
X47117813Y-36236124D01*
X47090479Y-36251905D01*
X47060577Y-36264290D01*
X46991821Y-36282713D01*
X46991814Y-36282716D01*
X46866286Y-36355189D01*
X46866283Y-36355191D01*
X46258294Y-36963181D01*
X46196971Y-36996666D01*
X46170613Y-36999500D01*
X45694398Y-36999500D01*
X45655353Y-37004188D01*
X45605938Y-37010122D01*
X45465156Y-37065639D01*
X45344577Y-37157077D01*
X45253139Y-37277656D01*
X45232886Y-37329016D01*
X45202853Y-37405171D01*
X45159949Y-37460314D01*
X45094041Y-37483507D01*
X45026056Y-37467386D01*
X44977580Y-37417070D01*
X44972148Y-37405178D01*
X44921861Y-37277658D01*
X44921860Y-37277657D01*
X44921860Y-37277656D01*
X44830425Y-37157082D01*
X44830423Y-37157079D01*
X44830420Y-37157077D01*
X44775246Y-37115236D01*
X44733725Y-37059044D01*
X44729174Y-36989322D01*
X44733227Y-36976519D01*
X44734575Y-36971486D01*
X44734577Y-36971484D01*
X44775500Y-36818757D01*
X44775500Y-36660643D01*
X44734577Y-36507916D01*
X44734573Y-36507909D01*
X44655524Y-36370990D01*
X44655518Y-36370982D01*
X44543717Y-36259181D01*
X44543709Y-36259175D01*
X44406790Y-36180126D01*
X44406786Y-36180124D01*
X44406784Y-36180123D01*
X44254057Y-36139200D01*
X44095943Y-36139200D01*
X43943216Y-36180123D01*
X43943209Y-36180126D01*
X43806290Y-36259175D01*
X43806282Y-36259181D01*
X43694481Y-36370982D01*
X43694475Y-36370990D01*
X43615426Y-36507909D01*
X43615423Y-36507916D01*
X43574500Y-36660643D01*
X43574500Y-36818757D01*
X43610506Y-36953134D01*
X43617527Y-36979336D01*
X43615556Y-36979863D01*
X43621854Y-37038453D01*
X43590578Y-37100932D01*
X43574753Y-37115236D01*
X43519577Y-37157078D01*
X43519574Y-37157082D01*
X43428139Y-37277656D01*
X43372622Y-37418438D01*
X43368696Y-37451136D01*
X43362000Y-37506898D01*
X43362000Y-38493102D01*
X43366444Y-38530109D01*
X43372622Y-38581561D01*
X43428139Y-38722343D01*
X43519577Y-38842922D01*
X43619500Y-38918696D01*
X43661024Y-38974889D01*
X43665575Y-39044610D01*
X43631710Y-39105724D01*
X43570180Y-39138828D01*
X43544575Y-39141500D01*
X30700763Y-39141500D01*
X30662220Y-39133834D01*
X30662035Y-39134527D01*
X30654185Y-39132423D01*
X30654184Y-39132423D01*
X30501457Y-39091500D01*
X30343343Y-39091500D01*
X30190616Y-39132423D01*
X30190609Y-39132426D01*
X30053690Y-39211475D01*
X30053682Y-39211481D01*
X29941881Y-39323282D01*
X29941875Y-39323290D01*
X29862826Y-39460209D01*
X29862823Y-39460216D01*
X29821900Y-39612943D01*
X29821900Y-39771057D01*
X29847800Y-39867715D01*
X29862823Y-39923783D01*
X29862826Y-39923790D01*
X29941875Y-40060709D01*
X29941879Y-40060714D01*
X29941880Y-40060716D01*
X30053684Y-40172520D01*
X30053686Y-40172521D01*
X30053690Y-40172524D01*
X30188170Y-40250165D01*
X30190616Y-40251577D01*
X30343343Y-40292500D01*
X30343345Y-40292500D01*
X30501455Y-40292500D01*
X30501457Y-40292500D01*
X30654184Y-40251577D01*
X30654185Y-40251576D01*
X30662035Y-40249473D01*
X30662220Y-40250165D01*
X30700763Y-40242500D01*
X36179613Y-40242500D01*
X36246652Y-40262185D01*
X36292407Y-40314989D01*
X36302351Y-40384147D01*
X36273326Y-40447703D01*
X36267294Y-40454181D01*
X35864294Y-40857181D01*
X35802971Y-40890666D01*
X35776613Y-40893500D01*
X29658925Y-40893500D01*
X29553917Y-40921637D01*
X29518914Y-40931016D01*
X29393386Y-41003489D01*
X29393383Y-41003491D01*
X28942294Y-41454581D01*
X28880971Y-41488066D01*
X28854613Y-41490900D01*
X25118287Y-41490900D01*
X25051248Y-41471215D01*
X25005493Y-41418411D01*
X24995549Y-41349253D01*
X25024574Y-41285697D01*
X25030606Y-41279219D01*
X25319948Y-40989877D01*
X25609310Y-40700515D01*
X25681784Y-40574985D01*
X25699096Y-40510375D01*
X25719300Y-40434975D01*
X25719300Y-38426625D01*
X25681784Y-38286615D01*
X25676313Y-38277139D01*
X25636292Y-38207820D01*
X25609312Y-38161089D01*
X25609308Y-38161084D01*
X23015019Y-35566794D01*
X22981534Y-35505471D01*
X22978700Y-35479113D01*
X22978700Y-34454077D01*
X22998385Y-34387038D01*
X23002916Y-34380463D01*
X23052793Y-34312882D01*
X23081333Y-34231320D01*
X23097646Y-34184701D01*
X23097646Y-34184699D01*
X23100500Y-34154269D01*
X23100500Y-33745733D01*
X23098599Y-33725467D01*
X23111937Y-33656882D01*
X23160237Y-33606396D01*
X23228165Y-33590038D01*
X23263011Y-33596845D01*
X23264073Y-33597216D01*
X23265301Y-33597646D01*
X23265300Y-33597646D01*
X23295730Y-33600500D01*
X23295734Y-33600500D01*
X24579270Y-33600500D01*
X24609699Y-33597646D01*
X24609701Y-33597646D01*
X24673790Y-33575219D01*
X24737882Y-33552793D01*
X24847150Y-33472150D01*
X24927793Y-33362882D01*
X24952203Y-33293121D01*
X24972646Y-33234701D01*
X24972646Y-33234700D01*
X24973920Y-33221120D01*
X24999779Y-33156212D01*
X25056625Y-33115588D01*
X25097378Y-33108700D01*
X25194255Y-33108700D01*
X25194257Y-33108700D01*
X25346984Y-33067777D01*
X25483916Y-32988720D01*
X25595720Y-32876916D01*
X25674777Y-32739984D01*
X25674777Y-32739980D01*
X25678840Y-32732945D01*
X25679462Y-32733304D01*
X25701292Y-32700631D01*
X28105906Y-30296019D01*
X28167229Y-30262534D01*
X28193587Y-30259700D01*
X28813838Y-30259700D01*
X28880877Y-30279385D01*
X28926632Y-30332189D01*
X28936576Y-30401347D01*
X28907551Y-30464903D01*
X28848773Y-30502677D01*
X28845932Y-30503475D01*
X28759914Y-30526523D01*
X28759909Y-30526526D01*
X28622990Y-30605575D01*
X28622982Y-30605581D01*
X28511181Y-30717382D01*
X28511175Y-30717390D01*
X28432126Y-30854309D01*
X28432123Y-30854316D01*
X28391200Y-31007043D01*
X28391200Y-31165157D01*
X28424889Y-31290884D01*
X28432123Y-31317883D01*
X28432126Y-31317890D01*
X28511175Y-31454809D01*
X28511179Y-31454814D01*
X28511180Y-31454816D01*
X28622984Y-31566620D01*
X28622986Y-31566621D01*
X28622990Y-31566624D01*
X28714264Y-31619320D01*
X28759916Y-31645677D01*
X28912643Y-31686600D01*
X28912644Y-31686600D01*
X28916685Y-31687132D01*
X28917386Y-31687442D01*
X28918147Y-31687333D01*
X28949283Y-31701552D01*
X28980582Y-31715398D01*
X28981004Y-31716039D01*
X28981703Y-31716358D01*
X29000206Y-31745150D01*
X29019053Y-31773723D01*
X29019200Y-31774705D01*
X29019477Y-31775136D01*
X29024500Y-31810071D01*
X29024500Y-31868800D01*
X29004815Y-31935839D01*
X28952011Y-31981594D01*
X28900500Y-31992800D01*
X28480785Y-31992800D01*
X28418785Y-31976187D01*
X28386764Y-31957700D01*
X28323584Y-31921223D01*
X28170857Y-31880300D01*
X28012743Y-31880300D01*
X27860016Y-31921223D01*
X27860009Y-31921226D01*
X27723090Y-32000275D01*
X27723082Y-32000281D01*
X27611281Y-32112082D01*
X27611275Y-32112090D01*
X27532226Y-32249009D01*
X27532223Y-32249016D01*
X27491300Y-32401743D01*
X27491300Y-32559857D01*
X27529020Y-32700628D01*
X27532223Y-32712583D01*
X27532226Y-32712590D01*
X27611275Y-32849509D01*
X27611279Y-32849514D01*
X27611280Y-32849516D01*
X27723084Y-32961320D01*
X27844490Y-33031413D01*
X27892705Y-33081979D01*
X27905929Y-33150586D01*
X27879961Y-33215451D01*
X27823047Y-33255980D01*
X27782490Y-33262800D01*
X27531385Y-33262800D01*
X27469385Y-33246187D01*
X27458334Y-33239807D01*
X27425968Y-33221120D01*
X27374186Y-33191224D01*
X27374185Y-33191223D01*
X27374184Y-33191223D01*
X27221457Y-33150300D01*
X27063343Y-33150300D01*
X26910616Y-33191223D01*
X26910609Y-33191226D01*
X26773690Y-33270275D01*
X26773682Y-33270281D01*
X26661881Y-33382082D01*
X26661875Y-33382090D01*
X26582826Y-33519009D01*
X26582823Y-33519016D01*
X26541900Y-33671743D01*
X26541900Y-33829857D01*
X26581061Y-33976006D01*
X26582823Y-33982583D01*
X26582826Y-33982590D01*
X26661875Y-34119509D01*
X26661879Y-34119514D01*
X26661880Y-34119516D01*
X26773684Y-34231320D01*
X26773686Y-34231321D01*
X26773690Y-34231324D01*
X26910609Y-34310373D01*
X26910616Y-34310377D01*
X27063343Y-34351300D01*
X27063345Y-34351300D01*
X27221455Y-34351300D01*
X27221457Y-34351300D01*
X27374184Y-34310377D01*
X27469385Y-34255412D01*
X27531385Y-34238800D01*
X28900500Y-34238800D01*
X28967539Y-34258485D01*
X29013294Y-34311289D01*
X29024500Y-34362800D01*
X29024500Y-34474269D01*
X29027353Y-34504699D01*
X29027353Y-34504701D01*
X29055872Y-34586200D01*
X29072207Y-34632882D01*
X29152850Y-34742150D01*
X29238321Y-34805230D01*
X29280571Y-34860877D01*
X29286030Y-34930534D01*
X29252962Y-34992083D01*
X29238321Y-35004769D01*
X29236402Y-35006186D01*
X29152850Y-35067850D01*
X29072207Y-35177117D01*
X29072206Y-35177119D01*
X29027353Y-35305298D01*
X29027353Y-35305300D01*
X29024500Y-35335730D01*
X29024500Y-35744269D01*
X29027353Y-35774699D01*
X29027353Y-35774701D01*
X29072206Y-35902880D01*
X29072207Y-35902882D01*
X29152850Y-36012150D01*
X29238321Y-36075230D01*
X29280571Y-36130877D01*
X29286030Y-36200534D01*
X29252962Y-36262083D01*
X29238321Y-36274769D01*
X29227554Y-36282716D01*
X29152850Y-36337850D01*
X29072207Y-36447117D01*
X29072206Y-36447119D01*
X29027353Y-36575298D01*
X29027353Y-36575300D01*
X29024500Y-36605730D01*
X29024500Y-37014269D01*
X29027353Y-37044699D01*
X29027353Y-37044701D01*
X29069245Y-37164417D01*
X29072207Y-37172882D01*
X29152850Y-37282150D01*
X29238321Y-37345230D01*
X29280571Y-37400877D01*
X29286030Y-37470534D01*
X29252962Y-37532083D01*
X29238321Y-37544769D01*
X29176296Y-37590546D01*
X29152850Y-37607850D01*
X29072207Y-37717117D01*
X29072206Y-37717119D01*
X29027353Y-37845298D01*
X29027353Y-37845300D01*
X29024500Y-37875730D01*
X29024500Y-38284269D01*
X29027353Y-38314698D01*
X29027353Y-38314701D01*
X29065821Y-38424632D01*
X29072207Y-38442882D01*
X29152850Y-38552150D01*
X29262118Y-38632793D01*
X29304845Y-38647744D01*
X29390299Y-38677646D01*
X29420730Y-38680500D01*
X29420734Y-38680500D01*
X31279270Y-38680500D01*
X31309699Y-38677646D01*
X31309701Y-38677646D01*
X31387278Y-38650500D01*
X31437882Y-38632793D01*
X31547150Y-38552150D01*
X31627793Y-38442882D01*
X31652486Y-38372313D01*
X31672646Y-38314701D01*
X31672647Y-38314698D01*
X31675500Y-38284269D01*
X31675500Y-37875730D01*
X31672646Y-37845300D01*
X31672646Y-37845298D01*
X31627793Y-37717119D01*
X31627792Y-37717117D01*
X31547150Y-37607850D01*
X31545031Y-37606286D01*
X31461677Y-37544768D01*
X31419428Y-37489123D01*
X31413969Y-37419467D01*
X31447036Y-37357917D01*
X31461670Y-37345236D01*
X31547150Y-37282150D01*
X31627793Y-37172882D01*
X31654819Y-37095647D01*
X31672646Y-37044701D01*
X31672646Y-37044699D01*
X31675500Y-37014269D01*
X31675500Y-36902800D01*
X31695185Y-36835761D01*
X31747989Y-36790006D01*
X31799500Y-36778800D01*
X33018715Y-36778800D01*
X33080714Y-36795412D01*
X33175916Y-36850377D01*
X33328643Y-36891300D01*
X33328645Y-36891300D01*
X33486755Y-36891300D01*
X33486757Y-36891300D01*
X33639484Y-36850377D01*
X33776416Y-36771320D01*
X33888220Y-36659516D01*
X33967277Y-36522584D01*
X34008200Y-36369857D01*
X34008200Y-36211743D01*
X33967277Y-36059016D01*
X33949370Y-36028000D01*
X33888224Y-35922090D01*
X33888218Y-35922082D01*
X33776417Y-35810281D01*
X33776409Y-35810275D01*
X33639490Y-35731226D01*
X33639486Y-35731224D01*
X33639484Y-35731223D01*
X33486757Y-35690300D01*
X33328643Y-35690300D01*
X33175916Y-35731223D01*
X33175913Y-35731224D01*
X33080715Y-35786187D01*
X33018715Y-35802800D01*
X32090710Y-35802800D01*
X32023671Y-35783115D01*
X31977916Y-35730311D01*
X31967972Y-35661153D01*
X31996997Y-35597597D01*
X32028708Y-35571413D01*
X32150116Y-35501320D01*
X32261920Y-35389516D01*
X32340977Y-35252584D01*
X32381900Y-35099857D01*
X32381900Y-34941743D01*
X32340977Y-34789016D01*
X32274862Y-34674500D01*
X32261924Y-34652090D01*
X32261918Y-34652082D01*
X32150117Y-34540281D01*
X32150109Y-34540275D01*
X32013190Y-34461226D01*
X32013186Y-34461224D01*
X32013184Y-34461223D01*
X31860457Y-34420300D01*
X31799500Y-34420300D01*
X31732461Y-34400615D01*
X31686706Y-34347811D01*
X31675500Y-34296300D01*
X31675500Y-34065730D01*
X31672646Y-34035300D01*
X31672646Y-34035298D01*
X31631264Y-33917037D01*
X31627793Y-33907118D01*
X31547150Y-33797850D01*
X31461677Y-33734768D01*
X31419428Y-33679123D01*
X31413969Y-33609467D01*
X31447036Y-33547917D01*
X31461670Y-33535236D01*
X31547150Y-33472150D01*
X31627793Y-33362882D01*
X31652203Y-33293121D01*
X31672646Y-33234701D01*
X31672646Y-33234699D01*
X31675500Y-33204269D01*
X31675500Y-32795730D01*
X31672646Y-32765300D01*
X31672646Y-32765298D01*
X31627793Y-32637119D01*
X31627792Y-32637117D01*
X31547150Y-32527850D01*
X31515198Y-32504268D01*
X31472949Y-32448623D01*
X31467490Y-32378967D01*
X31500557Y-32317418D01*
X31561651Y-32283516D01*
X31588833Y-32280500D01*
X32006572Y-32280500D01*
X32006574Y-32280500D01*
X32006575Y-32280500D01*
X32146585Y-32242984D01*
X32181694Y-32222714D01*
X32272115Y-32170510D01*
X38006306Y-26436317D01*
X38067627Y-26402834D01*
X38093985Y-26400000D01*
X39400000Y-26400000D01*
X39900000Y-26400000D01*
X41172295Y-26400000D01*
X41172295Y-26399998D01*
X41172100Y-26397513D01*
X41126281Y-26239801D01*
X41042685Y-26098447D01*
X41042678Y-26098438D01*
X40926561Y-25982321D01*
X40926552Y-25982314D01*
X40785196Y-25898717D01*
X40785193Y-25898716D01*
X40627495Y-25852900D01*
X40627489Y-25852899D01*
X40590649Y-25850000D01*
X39900000Y-25850000D01*
X39900000Y-26400000D01*
X39400000Y-26400000D01*
X39400000Y-25850000D01*
X38891985Y-25850000D01*
X38824946Y-25830315D01*
X38779191Y-25777511D01*
X38769247Y-25708353D01*
X38798272Y-25644797D01*
X38804288Y-25638335D01*
X39485424Y-24957199D01*
X39507363Y-24945220D01*
X39527017Y-24929764D01*
X39537502Y-24928762D01*
X39546745Y-24923716D01*
X39571681Y-24925499D01*
X39596570Y-24923123D01*
X39605930Y-24927948D01*
G37*
%TD.AperFunction*%
%TA.AperFunction,Conductor*%
G36*
X73442539Y-520185D02*
G01*
X73488294Y-572989D01*
X73499500Y-624500D01*
X73499500Y-59375500D01*
X73479815Y-59442539D01*
X73427011Y-59488294D01*
X73375500Y-59499500D01*
X624500Y-59499500D01*
X557461Y-59479815D01*
X511706Y-59427011D01*
X500500Y-59375500D01*
X500500Y-55878711D01*
X2149500Y-55878711D01*
X2149500Y-56121288D01*
X2181161Y-56361785D01*
X2243947Y-56596104D01*
X2336773Y-56820205D01*
X2336776Y-56820212D01*
X2458064Y-57030289D01*
X2458066Y-57030292D01*
X2458067Y-57030293D01*
X2605733Y-57222736D01*
X2605739Y-57222743D01*
X2777256Y-57394260D01*
X2777262Y-57394265D01*
X2969711Y-57541936D01*
X3179788Y-57663224D01*
X3403900Y-57756054D01*
X3638211Y-57818838D01*
X3818586Y-57842584D01*
X3878711Y-57850500D01*
X3878712Y-57850500D01*
X4121289Y-57850500D01*
X4169388Y-57844167D01*
X4361789Y-57818838D01*
X4596100Y-57756054D01*
X4820212Y-57663224D01*
X5030289Y-57541936D01*
X5222738Y-57394265D01*
X5394265Y-57222738D01*
X5541936Y-57030289D01*
X5663224Y-56820212D01*
X5756054Y-56596100D01*
X5818838Y-56361789D01*
X5850500Y-56121288D01*
X5850500Y-55878712D01*
X5818838Y-55638211D01*
X5756054Y-55403900D01*
X5663224Y-55179788D01*
X5541936Y-54969711D01*
X5447494Y-54846631D01*
X5394266Y-54777263D01*
X5394260Y-54777256D01*
X5222743Y-54605739D01*
X5222736Y-54605733D01*
X5030293Y-54458067D01*
X5030292Y-54458066D01*
X5030289Y-54458064D01*
X4820212Y-54336776D01*
X4820205Y-54336773D01*
X4596104Y-54243947D01*
X4361785Y-54181161D01*
X4121289Y-54149500D01*
X4121288Y-54149500D01*
X3878712Y-54149500D01*
X3878711Y-54149500D01*
X3638214Y-54181161D01*
X3403895Y-54243947D01*
X3179794Y-54336773D01*
X3179785Y-54336777D01*
X2969706Y-54458067D01*
X2777263Y-54605733D01*
X2777256Y-54605739D01*
X2605739Y-54777256D01*
X2605733Y-54777263D01*
X2458067Y-54969706D01*
X2336777Y-55179785D01*
X2336773Y-55179794D01*
X2243947Y-55403895D01*
X2181161Y-55638214D01*
X2149500Y-55878711D01*
X500500Y-55878711D01*
X500500Y-53356898D01*
X17689500Y-53356898D01*
X17689500Y-54643102D01*
X17691790Y-54662170D01*
X17700122Y-54731561D01*
X17700122Y-54731563D01*
X17700123Y-54731564D01*
X17715159Y-54769693D01*
X17755639Y-54872343D01*
X17847077Y-54992922D01*
X17967656Y-55084360D01*
X17967657Y-55084360D01*
X17967658Y-55084361D01*
X18108436Y-55139877D01*
X18196898Y-55150500D01*
X19160613Y-55150500D01*
X19227652Y-55170185D01*
X19248294Y-55186819D01*
X20581985Y-56520510D01*
X20581986Y-56520511D01*
X20581988Y-56520512D01*
X20702845Y-56590288D01*
X20702847Y-56590289D01*
X20707515Y-56592984D01*
X20847525Y-56630500D01*
X37914683Y-56630500D01*
X37981722Y-56650185D01*
X38015001Y-56681615D01*
X38122441Y-56829494D01*
X38122445Y-56829499D01*
X38250500Y-56957554D01*
X38250505Y-56957558D01*
X38378287Y-57050396D01*
X38397006Y-57063996D01*
X38502484Y-57117740D01*
X38558360Y-57146211D01*
X38558363Y-57146212D01*
X38644476Y-57174191D01*
X38730591Y-57202171D01*
X38813429Y-57215291D01*
X38909449Y-57230500D01*
X38909454Y-57230500D01*
X39090551Y-57230500D01*
X39177259Y-57216765D01*
X39269409Y-57202171D01*
X39441639Y-57146211D01*
X39602994Y-57063996D01*
X39749501Y-56957553D01*
X39877553Y-56829501D01*
X39983996Y-56682994D01*
X40066211Y-56521639D01*
X40122171Y-56349409D01*
X40136765Y-56257259D01*
X40150500Y-56170551D01*
X40150500Y-55989448D01*
X40135390Y-55894051D01*
X40132960Y-55878711D01*
X68149500Y-55878711D01*
X68149500Y-56121288D01*
X68181161Y-56361785D01*
X68243947Y-56596104D01*
X68336773Y-56820205D01*
X68336776Y-56820212D01*
X68458064Y-57030289D01*
X68458066Y-57030292D01*
X68458067Y-57030293D01*
X68605733Y-57222736D01*
X68605739Y-57222743D01*
X68777256Y-57394260D01*
X68777262Y-57394265D01*
X68969711Y-57541936D01*
X69179788Y-57663224D01*
X69403900Y-57756054D01*
X69638211Y-57818838D01*
X69818586Y-57842584D01*
X69878711Y-57850500D01*
X69878712Y-57850500D01*
X70121289Y-57850500D01*
X70169388Y-57844167D01*
X70361789Y-57818838D01*
X70596100Y-57756054D01*
X70820212Y-57663224D01*
X71030289Y-57541936D01*
X71222738Y-57394265D01*
X71394265Y-57222738D01*
X71541936Y-57030289D01*
X71663224Y-56820212D01*
X71756054Y-56596100D01*
X71818838Y-56361789D01*
X71850500Y-56121288D01*
X71850500Y-55878712D01*
X71818838Y-55638211D01*
X71756054Y-55403900D01*
X71663224Y-55179788D01*
X71541936Y-54969711D01*
X71447494Y-54846631D01*
X71394266Y-54777263D01*
X71394260Y-54777256D01*
X71222743Y-54605739D01*
X71222736Y-54605733D01*
X71030293Y-54458067D01*
X71030292Y-54458066D01*
X71030289Y-54458064D01*
X70820212Y-54336776D01*
X70820205Y-54336773D01*
X70596104Y-54243947D01*
X70361785Y-54181161D01*
X70121289Y-54149500D01*
X70121288Y-54149500D01*
X69878712Y-54149500D01*
X69878711Y-54149500D01*
X69638214Y-54181161D01*
X69403895Y-54243947D01*
X69179794Y-54336773D01*
X69179785Y-54336777D01*
X68969706Y-54458067D01*
X68777263Y-54605733D01*
X68777256Y-54605739D01*
X68605739Y-54777256D01*
X68605733Y-54777263D01*
X68458067Y-54969706D01*
X68336777Y-55179785D01*
X68336773Y-55179794D01*
X68243947Y-55403895D01*
X68181161Y-55638214D01*
X68149500Y-55878711D01*
X40132960Y-55878711D01*
X40131462Y-55869253D01*
X40122171Y-55810591D01*
X40066211Y-55638361D01*
X40066211Y-55638360D01*
X40006438Y-55521051D01*
X39983996Y-55477006D01*
X39930878Y-55403895D01*
X39877558Y-55330505D01*
X39877554Y-55330500D01*
X39749499Y-55202445D01*
X39749494Y-55202441D01*
X39602997Y-55096006D01*
X39602996Y-55096005D01*
X39602994Y-55096004D01*
X39544522Y-55066211D01*
X39441639Y-55013788D01*
X39441636Y-55013787D01*
X39269410Y-54957829D01*
X39109321Y-54932473D01*
X39046186Y-54902544D01*
X39009255Y-54843232D01*
X39010253Y-54773370D01*
X39048863Y-54715137D01*
X39109321Y-54687527D01*
X39179425Y-54676422D01*
X39269409Y-54662171D01*
X39441639Y-54606211D01*
X39602994Y-54523996D01*
X39749501Y-54417553D01*
X39877553Y-54289501D01*
X39983996Y-54142994D01*
X40066211Y-53981639D01*
X40122171Y-53809409D01*
X40136765Y-53717259D01*
X40150500Y-53630551D01*
X40150500Y-53449448D01*
X40134019Y-53345397D01*
X40122171Y-53270591D01*
X40075730Y-53127658D01*
X40066212Y-53098363D01*
X40066211Y-53098360D01*
X40024248Y-53016004D01*
X39983996Y-52937006D01*
X39968472Y-52915639D01*
X39877558Y-52790505D01*
X39877554Y-52790500D01*
X39749499Y-52662445D01*
X39749494Y-52662441D01*
X39602997Y-52556006D01*
X39602996Y-52556005D01*
X39602994Y-52556004D01*
X39551300Y-52529664D01*
X39441639Y-52473788D01*
X39441636Y-52473787D01*
X39269410Y-52417829D01*
X39090551Y-52389500D01*
X39090546Y-52389500D01*
X38909454Y-52389500D01*
X38909449Y-52389500D01*
X38730589Y-52417829D01*
X38558363Y-52473787D01*
X38558360Y-52473788D01*
X38397002Y-52556006D01*
X38250505Y-52662441D01*
X38250500Y-52662445D01*
X38122445Y-52790500D01*
X38122441Y-52790505D01*
X38016006Y-52937002D01*
X37933788Y-53098360D01*
X37933787Y-53098363D01*
X37877829Y-53270589D01*
X37849500Y-53449448D01*
X37849500Y-53630551D01*
X37877829Y-53809410D01*
X37933787Y-53981636D01*
X37933788Y-53981639D01*
X37989280Y-54090546D01*
X37994106Y-54100018D01*
X38016006Y-54142997D01*
X38122441Y-54289494D01*
X38122445Y-54289499D01*
X38250500Y-54417554D01*
X38250505Y-54417558D01*
X38306262Y-54458067D01*
X38397006Y-54523996D01*
X38502484Y-54577740D01*
X38558360Y-54606211D01*
X38558363Y-54606212D01*
X38644476Y-54634191D01*
X38730591Y-54662171D01*
X38803639Y-54673740D01*
X38890678Y-54687527D01*
X38953813Y-54717456D01*
X38990744Y-54776768D01*
X38989746Y-54846631D01*
X38951136Y-54904863D01*
X38890678Y-54932473D01*
X38730589Y-54957829D01*
X38558363Y-55013787D01*
X38558360Y-55013788D01*
X38397002Y-55096006D01*
X38250505Y-55202441D01*
X38250500Y-55202445D01*
X38122445Y-55330500D01*
X38122441Y-55330505D01*
X38015001Y-55478385D01*
X37959671Y-55521051D01*
X37914683Y-55529500D01*
X21199387Y-55529500D01*
X21132348Y-55509815D01*
X21111706Y-55493181D01*
X20927882Y-55309357D01*
X20894397Y-55248034D01*
X20899381Y-55178342D01*
X20941253Y-55122409D01*
X21006717Y-55097992D01*
X21053881Y-55103745D01*
X21110590Y-55122171D01*
X21289449Y-55150500D01*
X21289454Y-55150500D01*
X21470551Y-55150500D01*
X21557259Y-55136765D01*
X21649409Y-55122171D01*
X21821639Y-55066211D01*
X21982994Y-54983996D01*
X22129501Y-54877553D01*
X22257553Y-54749501D01*
X22363996Y-54602994D01*
X22446211Y-54441639D01*
X22502171Y-54269409D01*
X22522193Y-54142994D01*
X22527527Y-54109321D01*
X22557456Y-54046186D01*
X22616768Y-54009255D01*
X22686630Y-54010253D01*
X22744863Y-54048863D01*
X22772473Y-54109321D01*
X22797829Y-54269410D01*
X22853787Y-54441636D01*
X22853788Y-54441639D01*
X22936006Y-54602997D01*
X23042441Y-54749494D01*
X23042445Y-54749499D01*
X23170500Y-54877554D01*
X23170505Y-54877558D01*
X23204896Y-54902544D01*
X23317006Y-54983996D01*
X23422484Y-55037740D01*
X23478360Y-55066211D01*
X23478363Y-55066212D01*
X23564476Y-55094191D01*
X23650591Y-55122171D01*
X23733429Y-55135291D01*
X23829449Y-55150500D01*
X23829454Y-55150500D01*
X24010551Y-55150500D01*
X24097259Y-55136765D01*
X24189409Y-55122171D01*
X24361639Y-55066211D01*
X24522994Y-54983996D01*
X24669501Y-54877553D01*
X24797553Y-54749501D01*
X24903996Y-54602994D01*
X24986211Y-54441639D01*
X25042171Y-54269409D01*
X25062193Y-54142994D01*
X25067527Y-54109321D01*
X25097456Y-54046186D01*
X25156768Y-54009255D01*
X25226630Y-54010253D01*
X25284863Y-54048863D01*
X25312473Y-54109321D01*
X25337829Y-54269410D01*
X25393787Y-54441636D01*
X25393788Y-54441639D01*
X25476006Y-54602997D01*
X25582441Y-54749494D01*
X25582445Y-54749499D01*
X25710500Y-54877554D01*
X25710505Y-54877558D01*
X25744896Y-54902544D01*
X25857006Y-54983996D01*
X25962484Y-55037740D01*
X26018360Y-55066211D01*
X26018363Y-55066212D01*
X26104476Y-55094191D01*
X26190591Y-55122171D01*
X26273429Y-55135291D01*
X26369449Y-55150500D01*
X26369454Y-55150500D01*
X26550551Y-55150500D01*
X26637259Y-55136765D01*
X26729409Y-55122171D01*
X26901639Y-55066211D01*
X27062994Y-54983996D01*
X27209501Y-54877553D01*
X27337553Y-54749501D01*
X27443996Y-54602994D01*
X27526211Y-54441639D01*
X27582171Y-54269409D01*
X27602193Y-54142994D01*
X27607527Y-54109321D01*
X27637456Y-54046186D01*
X27696768Y-54009255D01*
X27766630Y-54010253D01*
X27824863Y-54048863D01*
X27852473Y-54109321D01*
X27877829Y-54269410D01*
X27933787Y-54441636D01*
X27933788Y-54441639D01*
X28016006Y-54602997D01*
X28122441Y-54749494D01*
X28122445Y-54749499D01*
X28250500Y-54877554D01*
X28250505Y-54877558D01*
X28284896Y-54902544D01*
X28397006Y-54983996D01*
X28502484Y-55037740D01*
X28558360Y-55066211D01*
X28558363Y-55066212D01*
X28644476Y-55094191D01*
X28730591Y-55122171D01*
X28813429Y-55135291D01*
X28909449Y-55150500D01*
X28909454Y-55150500D01*
X29090551Y-55150500D01*
X29177259Y-55136765D01*
X29269409Y-55122171D01*
X29441639Y-55066211D01*
X29602994Y-54983996D01*
X29749501Y-54877553D01*
X29877553Y-54749501D01*
X29983996Y-54602994D01*
X30066211Y-54441639D01*
X30122171Y-54269409D01*
X30142193Y-54142994D01*
X30150500Y-54090551D01*
X30150500Y-53909448D01*
X30132855Y-53798045D01*
X30122171Y-53730591D01*
X30066211Y-53558361D01*
X30066211Y-53558360D01*
X30037740Y-53502484D01*
X29983996Y-53397006D01*
X29892151Y-53270591D01*
X29877558Y-53250505D01*
X29877554Y-53250500D01*
X29749499Y-53122445D01*
X29749494Y-53122441D01*
X29602997Y-53016006D01*
X29602996Y-53016005D01*
X29602994Y-53016004D01*
X29551300Y-52989664D01*
X29441639Y-52933788D01*
X29441636Y-52933787D01*
X29269410Y-52877829D01*
X29090551Y-52849500D01*
X29090546Y-52849500D01*
X28909454Y-52849500D01*
X28909449Y-52849500D01*
X28730589Y-52877829D01*
X28558363Y-52933787D01*
X28558360Y-52933788D01*
X28397002Y-53016006D01*
X28250505Y-53122441D01*
X28250500Y-53122445D01*
X28122445Y-53250500D01*
X28122441Y-53250505D01*
X28016006Y-53397002D01*
X27933788Y-53558360D01*
X27933787Y-53558363D01*
X27877829Y-53730589D01*
X27852473Y-53890678D01*
X27822544Y-53953813D01*
X27763232Y-53990744D01*
X27693369Y-53989746D01*
X27635137Y-53951136D01*
X27607527Y-53890678D01*
X27592855Y-53798045D01*
X27582171Y-53730591D01*
X27526211Y-53558361D01*
X27526211Y-53558360D01*
X27497740Y-53502484D01*
X27443996Y-53397006D01*
X27352151Y-53270591D01*
X27337558Y-53250505D01*
X27337554Y-53250500D01*
X27209499Y-53122445D01*
X27209494Y-53122441D01*
X27062997Y-53016006D01*
X27062996Y-53016005D01*
X27062994Y-53016004D01*
X27011300Y-52989664D01*
X26901639Y-52933788D01*
X26901636Y-52933787D01*
X26729410Y-52877829D01*
X26550551Y-52849500D01*
X26550546Y-52849500D01*
X26369454Y-52849500D01*
X26369449Y-52849500D01*
X26190589Y-52877829D01*
X26018363Y-52933787D01*
X26018360Y-52933788D01*
X25857002Y-53016006D01*
X25710505Y-53122441D01*
X25710500Y-53122445D01*
X25582445Y-53250500D01*
X25582441Y-53250505D01*
X25476006Y-53397002D01*
X25393788Y-53558360D01*
X25393787Y-53558363D01*
X25337829Y-53730589D01*
X25312473Y-53890678D01*
X25282544Y-53953813D01*
X25223232Y-53990744D01*
X25153369Y-53989746D01*
X25095137Y-53951136D01*
X25067527Y-53890678D01*
X25052855Y-53798045D01*
X25042171Y-53730591D01*
X24986211Y-53558361D01*
X24986211Y-53558360D01*
X24957740Y-53502484D01*
X24903996Y-53397006D01*
X24812151Y-53270591D01*
X24797558Y-53250505D01*
X24797554Y-53250500D01*
X24669499Y-53122445D01*
X24669494Y-53122441D01*
X24522997Y-53016006D01*
X24522996Y-53016005D01*
X24522994Y-53016004D01*
X24471300Y-52989664D01*
X24361639Y-52933788D01*
X24361636Y-52933787D01*
X24189410Y-52877829D01*
X24010551Y-52849500D01*
X24010546Y-52849500D01*
X23829454Y-52849500D01*
X23829449Y-52849500D01*
X23650589Y-52877829D01*
X23478363Y-52933787D01*
X23478360Y-52933788D01*
X23317002Y-53016006D01*
X23170505Y-53122441D01*
X23170500Y-53122445D01*
X23042445Y-53250500D01*
X23042441Y-53250505D01*
X22936006Y-53397002D01*
X22853788Y-53558360D01*
X22853787Y-53558363D01*
X22797829Y-53730589D01*
X22772473Y-53890678D01*
X22742544Y-53953813D01*
X22683232Y-53990744D01*
X22613369Y-53989746D01*
X22555137Y-53951136D01*
X22527527Y-53890678D01*
X22512855Y-53798045D01*
X22502171Y-53730591D01*
X22446211Y-53558361D01*
X22446211Y-53558360D01*
X22417740Y-53502484D01*
X22363996Y-53397006D01*
X22272151Y-53270591D01*
X22257558Y-53250505D01*
X22257554Y-53250500D01*
X22129499Y-53122445D01*
X22129494Y-53122441D01*
X21982997Y-53016006D01*
X21982996Y-53016005D01*
X21982994Y-53016004D01*
X21931300Y-52989664D01*
X21821639Y-52933788D01*
X21821636Y-52933787D01*
X21649410Y-52877829D01*
X21470551Y-52849500D01*
X21470546Y-52849500D01*
X21289454Y-52849500D01*
X21289449Y-52849500D01*
X21110589Y-52877829D01*
X20938363Y-52933787D01*
X20938360Y-52933788D01*
X20777002Y-53016006D01*
X20630505Y-53122441D01*
X20630500Y-53122445D01*
X20502445Y-53250500D01*
X20502441Y-53250505D01*
X20396006Y-53397002D01*
X20313788Y-53558360D01*
X20313787Y-53558363D01*
X20257829Y-53730589D01*
X20236973Y-53862266D01*
X20207044Y-53925401D01*
X20147732Y-53962332D01*
X20077869Y-53961334D01*
X20019637Y-53922724D01*
X19991523Y-53858760D01*
X19990500Y-53842868D01*
X19990500Y-53356903D01*
X19990500Y-53356898D01*
X19979877Y-53268436D01*
X19924361Y-53127658D01*
X19924360Y-53127657D01*
X19924360Y-53127656D01*
X19832922Y-53007077D01*
X19712343Y-52915639D01*
X19571561Y-52860122D01*
X19525926Y-52854642D01*
X19483102Y-52849500D01*
X18196898Y-52849500D01*
X18157853Y-52854188D01*
X18108438Y-52860122D01*
X17967656Y-52915639D01*
X17847077Y-53007077D01*
X17755639Y-53127656D01*
X17700122Y-53268438D01*
X17694188Y-53317853D01*
X17689500Y-53356898D01*
X500500Y-53356898D01*
X500500Y-51899983D01*
X49119500Y-51899983D01*
X49119500Y-54100001D01*
X49119501Y-54100018D01*
X49130000Y-54202796D01*
X49130001Y-54202799D01*
X49158731Y-54289499D01*
X49185186Y-54369334D01*
X49277288Y-54518656D01*
X49401344Y-54642712D01*
X49550666Y-54734814D01*
X49717203Y-54789999D01*
X49819991Y-54800500D01*
X52020008Y-54800499D01*
X52122797Y-54789999D01*
X52289334Y-54734814D01*
X52438656Y-54642712D01*
X52562712Y-54518656D01*
X52654814Y-54369334D01*
X52709999Y-54202797D01*
X52720500Y-54100009D01*
X52720499Y-52881995D01*
X54199500Y-52881995D01*
X54199500Y-53118004D01*
X54199501Y-53118020D01*
X54230306Y-53352010D01*
X54291394Y-53579993D01*
X54381714Y-53798045D01*
X54381719Y-53798056D01*
X54435195Y-53890678D01*
X54499727Y-54002450D01*
X54499729Y-54002453D01*
X54499730Y-54002454D01*
X54643406Y-54189697D01*
X54643412Y-54189704D01*
X54810295Y-54356587D01*
X54810302Y-54356593D01*
X54920306Y-54441001D01*
X54997550Y-54500273D01*
X55128918Y-54576118D01*
X55201943Y-54618280D01*
X55201948Y-54618282D01*
X55201951Y-54618284D01*
X55420007Y-54708606D01*
X55647986Y-54769693D01*
X55881989Y-54800500D01*
X55881996Y-54800500D01*
X56118004Y-54800500D01*
X56118011Y-54800500D01*
X56352014Y-54769693D01*
X56579993Y-54708606D01*
X56798049Y-54618284D01*
X57002450Y-54500273D01*
X57189699Y-54356592D01*
X57356592Y-54189699D01*
X57500273Y-54002450D01*
X57618284Y-53798049D01*
X57708606Y-53579993D01*
X57769693Y-53352014D01*
X57800500Y-53118011D01*
X57800500Y-52881989D01*
X57769693Y-52647986D01*
X57708606Y-52420007D01*
X57618284Y-52201951D01*
X57618282Y-52201948D01*
X57618280Y-52201943D01*
X57576118Y-52128918D01*
X57500273Y-51997550D01*
X57356592Y-51810301D01*
X57356587Y-51810295D01*
X57189704Y-51643412D01*
X57189697Y-51643406D01*
X57002454Y-51499730D01*
X57002453Y-51499729D01*
X57002450Y-51499727D01*
X56920957Y-51452677D01*
X56798056Y-51381719D01*
X56798045Y-51381714D01*
X56579993Y-51291394D01*
X56352010Y-51230306D01*
X56118020Y-51199501D01*
X56118017Y-51199500D01*
X56118011Y-51199500D01*
X55881989Y-51199500D01*
X55881983Y-51199500D01*
X55881979Y-51199501D01*
X55647989Y-51230306D01*
X55420006Y-51291394D01*
X55201954Y-51381714D01*
X55201943Y-51381719D01*
X54997545Y-51499730D01*
X54810302Y-51643406D01*
X54810295Y-51643412D01*
X54643412Y-51810295D01*
X54643406Y-51810302D01*
X54499730Y-51997545D01*
X54381719Y-52201943D01*
X54381714Y-52201954D01*
X54291394Y-52420006D01*
X54230306Y-52647989D01*
X54199501Y-52881979D01*
X54199500Y-52881995D01*
X52720499Y-52881995D01*
X52720499Y-51899992D01*
X52709999Y-51797203D01*
X52654814Y-51630666D01*
X52562712Y-51481344D01*
X52438656Y-51357288D01*
X52289334Y-51265186D01*
X52122797Y-51210001D01*
X52122795Y-51210000D01*
X52020010Y-51199500D01*
X49819998Y-51199500D01*
X49819981Y-51199501D01*
X49717203Y-51210000D01*
X49717200Y-51210001D01*
X49550668Y-51265185D01*
X49550663Y-51265187D01*
X49401342Y-51357289D01*
X49277289Y-51481342D01*
X49185187Y-51630663D01*
X49185185Y-51630668D01*
X49180962Y-51643412D01*
X49130001Y-51797203D01*
X49130001Y-51797204D01*
X49130000Y-51797204D01*
X49119500Y-51899983D01*
X500500Y-51899983D01*
X500500Y-44043677D01*
X29309873Y-44043677D01*
X29309873Y-44043678D01*
X29344858Y-44069096D01*
X29520164Y-44158418D01*
X29707294Y-44219221D01*
X29901618Y-44250000D01*
X30098382Y-44250000D01*
X30292705Y-44219221D01*
X30479835Y-44158418D01*
X30655143Y-44069095D01*
X30690125Y-44043678D01*
X30690126Y-44043678D01*
X30000001Y-43353553D01*
X30000000Y-43353553D01*
X29309873Y-44043677D01*
X500500Y-44043677D01*
X500500Y-25896530D01*
X2449500Y-25896530D01*
X2449500Y-26103469D01*
X2489868Y-26306412D01*
X2489870Y-26306420D01*
X2556383Y-26466997D01*
X2569059Y-26497598D01*
X2602500Y-26547646D01*
X2684024Y-26669657D01*
X2830342Y-26815975D01*
X2830345Y-26815977D01*
X3002402Y-26930941D01*
X3193580Y-27010130D01*
X3351822Y-27041606D01*
X3396530Y-27050499D01*
X3396534Y-27050500D01*
X3396535Y-27050500D01*
X3603466Y-27050500D01*
X3603467Y-27050499D01*
X3806420Y-27010130D01*
X3997598Y-26930941D01*
X4169655Y-26815977D01*
X4315977Y-26669655D01*
X4430941Y-26497598D01*
X4510130Y-26306420D01*
X4550500Y-26103465D01*
X4550500Y-25896535D01*
X4546017Y-25874000D01*
X4545159Y-25869685D01*
X4535472Y-25820985D01*
X4536179Y-25813079D01*
X4533405Y-25805641D01*
X4539249Y-25778776D01*
X4541699Y-25751396D01*
X4546947Y-25743386D01*
X4548257Y-25737368D01*
X4569405Y-25709117D01*
X4622429Y-25656093D01*
X4655103Y-25634264D01*
X4654744Y-25633642D01*
X4755366Y-25575548D01*
X4798716Y-25550520D01*
X4910520Y-25438716D01*
X4989577Y-25301784D01*
X5030500Y-25149057D01*
X5030500Y-24990943D01*
X4989577Y-24838216D01*
X4958559Y-24784490D01*
X4910524Y-24701290D01*
X4910518Y-24701282D01*
X4798717Y-24589481D01*
X4798709Y-24589475D01*
X4661790Y-24510426D01*
X4661786Y-24510424D01*
X4661784Y-24510423D01*
X4509057Y-24469500D01*
X4350943Y-24469500D01*
X4198216Y-24510423D01*
X4198209Y-24510426D01*
X4061290Y-24589475D01*
X4061282Y-24589481D01*
X3949481Y-24701282D01*
X3949477Y-24701287D01*
X3866359Y-24845254D01*
X3865986Y-24845038D01*
X3865056Y-24849315D01*
X3843905Y-24877569D01*
X3790884Y-24930590D01*
X3729561Y-24964075D01*
X3679013Y-24964527D01*
X3676740Y-24964075D01*
X3666584Y-24962054D01*
X3603465Y-24949500D01*
X3396535Y-24949500D01*
X3396530Y-24949500D01*
X3193587Y-24989868D01*
X3193579Y-24989870D01*
X3002403Y-25069058D01*
X2830342Y-25184024D01*
X2684024Y-25330342D01*
X2569058Y-25502403D01*
X2489870Y-25693579D01*
X2489868Y-25693587D01*
X2449500Y-25896530D01*
X500500Y-25896530D01*
X500500Y-21509343D01*
X3008700Y-21509343D01*
X3008700Y-21667457D01*
X3030072Y-21747216D01*
X3049623Y-21820183D01*
X3049626Y-21820190D01*
X3128675Y-21957109D01*
X3128679Y-21957114D01*
X3128680Y-21957116D01*
X3240484Y-22068920D01*
X3240486Y-22068921D01*
X3240490Y-22068924D01*
X3361694Y-22138900D01*
X3377416Y-22147977D01*
X3530143Y-22188900D01*
X3530145Y-22188900D01*
X3688255Y-22188900D01*
X3688257Y-22188900D01*
X3840984Y-22147977D01*
X3840985Y-22147976D01*
X3848835Y-22145873D01*
X3849020Y-22146565D01*
X3887563Y-22138900D01*
X9046572Y-22138900D01*
X9046574Y-22138900D01*
X9046575Y-22138900D01*
X9186585Y-22101384D01*
X9312115Y-22028910D01*
X9879206Y-21461819D01*
X9940529Y-21428334D01*
X9966887Y-21425500D01*
X10668097Y-21425500D01*
X10668102Y-21425500D01*
X10756564Y-21414877D01*
X10897342Y-21359361D01*
X11017922Y-21267922D01*
X11109361Y-21147342D01*
X11164877Y-21006564D01*
X11175500Y-20918102D01*
X11175500Y-20206898D01*
X11164877Y-20118436D01*
X11109361Y-19977658D01*
X11109360Y-19977657D01*
X11109360Y-19977656D01*
X11017922Y-19857077D01*
X10897343Y-19765639D01*
X10756561Y-19710122D01*
X10710926Y-19704642D01*
X10668102Y-19699500D01*
X9331898Y-19699500D01*
X9292853Y-19704188D01*
X9243438Y-19710122D01*
X9102656Y-19765639D01*
X8982077Y-19857077D01*
X8890639Y-19977656D01*
X8835122Y-20118438D01*
X8829188Y-20167853D01*
X8824500Y-20206898D01*
X8824500Y-20206903D01*
X8824500Y-20908111D01*
X8815855Y-20937550D01*
X8809337Y-20967528D01*
X8805578Y-20972550D01*
X8804815Y-20975150D01*
X8788189Y-20995785D01*
X8782401Y-21001574D01*
X8721081Y-21035064D01*
X8694712Y-21037900D01*
X3887563Y-21037900D01*
X3849020Y-21030234D01*
X3848835Y-21030927D01*
X3840985Y-21028823D01*
X3840984Y-21028823D01*
X3688257Y-20987900D01*
X3530143Y-20987900D01*
X3377416Y-21028823D01*
X3377409Y-21028826D01*
X3240490Y-21107875D01*
X3240482Y-21107881D01*
X3128681Y-21219682D01*
X3128675Y-21219690D01*
X3049626Y-21356609D01*
X3049623Y-21356616D01*
X3008700Y-21509343D01*
X500500Y-21509343D01*
X500500Y-18896530D01*
X2449500Y-18896530D01*
X2449500Y-19103469D01*
X2489868Y-19306412D01*
X2489870Y-19306420D01*
X2560799Y-19477658D01*
X2569059Y-19497598D01*
X2607128Y-19554573D01*
X2684024Y-19669657D01*
X2830342Y-19815975D01*
X2830345Y-19815977D01*
X3002402Y-19930941D01*
X3193580Y-20010130D01*
X3396530Y-20050499D01*
X3396534Y-20050500D01*
X3396535Y-20050500D01*
X3603466Y-20050500D01*
X3603467Y-20050499D01*
X3806420Y-20010130D01*
X3997598Y-19930941D01*
X4169655Y-19815977D01*
X4315977Y-19669655D01*
X4430941Y-19497598D01*
X4510130Y-19306420D01*
X4534658Y-19183109D01*
X4567042Y-19121198D01*
X4627758Y-19086624D01*
X4656275Y-19083300D01*
X8421337Y-19083300D01*
X8459879Y-19090965D01*
X8460065Y-19090273D01*
X8467914Y-19092376D01*
X8467916Y-19092377D01*
X8620643Y-19133300D01*
X8620645Y-19133300D01*
X8778755Y-19133300D01*
X8778757Y-19133300D01*
X8931484Y-19092377D01*
X9068416Y-19013320D01*
X9180220Y-18901516D01*
X9259277Y-18764584D01*
X9300200Y-18611857D01*
X9300200Y-18611854D01*
X9300666Y-18608317D01*
X9301888Y-18605552D01*
X9302303Y-18604007D01*
X9302543Y-18604071D01*
X9328931Y-18544420D01*
X9387255Y-18505948D01*
X9423605Y-18500500D01*
X10033113Y-18500500D01*
X10100152Y-18520185D01*
X10120794Y-18536819D01*
X12524485Y-20940510D01*
X12628392Y-21000500D01*
X12650015Y-21012984D01*
X12790025Y-21050500D01*
X12974981Y-21050500D01*
X13016324Y-21058722D01*
X13016365Y-21058573D01*
X13018651Y-21059185D01*
X13022429Y-21059937D01*
X13024212Y-21060675D01*
X13024213Y-21060675D01*
X13024216Y-21060677D01*
X13176943Y-21101600D01*
X13176945Y-21101600D01*
X13335055Y-21101600D01*
X13335057Y-21101600D01*
X13487784Y-21060677D01*
X13487788Y-21060674D01*
X13489571Y-21059937D01*
X13493348Y-21059185D01*
X13495635Y-21058573D01*
X13495675Y-21058722D01*
X13537019Y-21050500D01*
X14768528Y-21050500D01*
X14835567Y-21070185D01*
X14867332Y-21099575D01*
X14957077Y-21217922D01*
X15077656Y-21309360D01*
X15077657Y-21309360D01*
X15077658Y-21309361D01*
X15218436Y-21364877D01*
X15306898Y-21375500D01*
X15306903Y-21375500D01*
X16693097Y-21375500D01*
X16693102Y-21375500D01*
X16781564Y-21364877D01*
X16922342Y-21309361D01*
X17042922Y-21217922D01*
X17096445Y-21147342D01*
X17132668Y-21099575D01*
X17188861Y-21058051D01*
X17231472Y-21050500D01*
X21572472Y-21050500D01*
X21572474Y-21050500D01*
X21572475Y-21050500D01*
X21712485Y-21012984D01*
X21734108Y-21000500D01*
X21838015Y-20940510D01*
X21941706Y-20836819D01*
X22003029Y-20803334D01*
X22029387Y-20800500D01*
X22518097Y-20800500D01*
X22518102Y-20800500D01*
X22606564Y-20789877D01*
X22747342Y-20734361D01*
X22867922Y-20642922D01*
X22900793Y-20599574D01*
X22956985Y-20558052D01*
X22999597Y-20550500D01*
X23420613Y-20550500D01*
X23487652Y-20570185D01*
X23508294Y-20586819D01*
X29054665Y-26133190D01*
X29088150Y-26194513D01*
X29083166Y-26264205D01*
X29075562Y-26278382D01*
X29076548Y-26278903D01*
X29072209Y-26287112D01*
X29027353Y-26415303D01*
X29024500Y-26445730D01*
X29024500Y-26788800D01*
X29004815Y-26855839D01*
X28952011Y-26901594D01*
X28900500Y-26912800D01*
X26477787Y-26912800D01*
X26410748Y-26893115D01*
X26390106Y-26876481D01*
X25073116Y-25559491D01*
X25073115Y-25559490D01*
X24947585Y-25487016D01*
X24945898Y-25486564D01*
X24807575Y-25449500D01*
X24753570Y-25449500D01*
X24741852Y-25447223D01*
X24736839Y-25444629D01*
X24724549Y-25442541D01*
X24609701Y-25402354D01*
X24609700Y-25402353D01*
X24600418Y-25401483D01*
X24535510Y-25375623D01*
X24494887Y-25318776D01*
X24488000Y-25278025D01*
X24488000Y-25202727D01*
X24488000Y-25202725D01*
X24450484Y-25062715D01*
X24441685Y-25047474D01*
X24441685Y-25047473D01*
X24378012Y-24937188D01*
X24378008Y-24937183D01*
X23237216Y-23796391D01*
X23237215Y-23796390D01*
X23111685Y-23723916D01*
X23111686Y-23723916D01*
X23076682Y-23714537D01*
X22971675Y-23686400D01*
X18740625Y-23686400D01*
X18635617Y-23714537D01*
X18600614Y-23723916D01*
X18475086Y-23796389D01*
X18475083Y-23796391D01*
X17333294Y-24938181D01*
X17271971Y-24971666D01*
X17245613Y-24974500D01*
X16756898Y-24974500D01*
X16717853Y-24979188D01*
X16668438Y-24985122D01*
X16527656Y-25040639D01*
X16407077Y-25132077D01*
X16315638Y-25252658D01*
X16315637Y-25252660D01*
X16268974Y-25370990D01*
X16226069Y-25426134D01*
X16160161Y-25449327D01*
X16153620Y-25449500D01*
X14811521Y-25449500D01*
X14744482Y-25429815D01*
X14698727Y-25377011D01*
X14696174Y-25371009D01*
X14659361Y-25277658D01*
X14659360Y-25277657D01*
X14659360Y-25277656D01*
X14567922Y-25157077D01*
X14447343Y-25065639D01*
X14306561Y-25010122D01*
X14260926Y-25004642D01*
X14218102Y-24999500D01*
X13606898Y-24999500D01*
X13567853Y-25004188D01*
X13518438Y-25010122D01*
X13377656Y-25065639D01*
X13257077Y-25157077D01*
X13165639Y-25277656D01*
X13149424Y-25318776D01*
X13115353Y-25405171D01*
X13072449Y-25460314D01*
X13006541Y-25483507D01*
X12938556Y-25467386D01*
X12890080Y-25417070D01*
X12884648Y-25405178D01*
X12834361Y-25277658D01*
X12834360Y-25277657D01*
X12834360Y-25277656D01*
X12742922Y-25157077D01*
X12622343Y-25065639D01*
X12481561Y-25010122D01*
X12435926Y-25004642D01*
X12393102Y-24999500D01*
X11781898Y-24999500D01*
X11742853Y-25004188D01*
X11693438Y-25010122D01*
X11552656Y-25065639D01*
X11432077Y-25157077D01*
X11340639Y-25277656D01*
X11326696Y-25313014D01*
X11303832Y-25370991D01*
X11260928Y-25426134D01*
X11195020Y-25449327D01*
X11188479Y-25449500D01*
X9811521Y-25449500D01*
X9744482Y-25429815D01*
X9698727Y-25377011D01*
X9696174Y-25371009D01*
X9659361Y-25277658D01*
X9659360Y-25277657D01*
X9659360Y-25277656D01*
X9567922Y-25157077D01*
X9447343Y-25065639D01*
X9306561Y-25010122D01*
X9260926Y-25004642D01*
X9218102Y-24999500D01*
X8606898Y-24999500D01*
X8567853Y-25004188D01*
X8518438Y-25010122D01*
X8377656Y-25065639D01*
X8257077Y-25157077D01*
X8165639Y-25277656D01*
X8149424Y-25318776D01*
X8115353Y-25405171D01*
X8072449Y-25460314D01*
X8006541Y-25483507D01*
X7938556Y-25467386D01*
X7890080Y-25417070D01*
X7884648Y-25405178D01*
X7834361Y-25277658D01*
X7834360Y-25277657D01*
X7834360Y-25277656D01*
X7742922Y-25157077D01*
X7622343Y-25065639D01*
X7481561Y-25010122D01*
X7435926Y-25004642D01*
X7393102Y-24999500D01*
X6781898Y-24999500D01*
X6742853Y-25004188D01*
X6693438Y-25010122D01*
X6552656Y-25065639D01*
X6432077Y-25157077D01*
X6340639Y-25277656D01*
X6285122Y-25418438D01*
X6280108Y-25460198D01*
X6274500Y-25506898D01*
X6274500Y-26493102D01*
X6280094Y-26539685D01*
X6285122Y-26581561D01*
X6285122Y-26581563D01*
X6285123Y-26581564D01*
X6294916Y-26606396D01*
X6340639Y-26722343D01*
X6432077Y-26842922D01*
X6487925Y-26885272D01*
X6529448Y-26941464D01*
X6537000Y-26984076D01*
X6537000Y-27340637D01*
X6529334Y-27379179D01*
X6530027Y-27379365D01*
X6527923Y-27387214D01*
X6527923Y-27387216D01*
X6487000Y-27539943D01*
X6487000Y-27698057D01*
X6527173Y-27847984D01*
X6530027Y-27858636D01*
X6529332Y-27858822D01*
X6537000Y-27897362D01*
X6537000Y-32015923D01*
X6517315Y-32082962D01*
X6487927Y-32114726D01*
X6432076Y-32157079D01*
X6432074Y-32157082D01*
X6340639Y-32277656D01*
X6285122Y-32418438D01*
X6281082Y-32452083D01*
X6274500Y-32506898D01*
X6274500Y-33493102D01*
X6277309Y-33516492D01*
X6285122Y-33581561D01*
X6285122Y-33581563D01*
X6285123Y-33581564D01*
X6294916Y-33606396D01*
X6340639Y-33722343D01*
X6432077Y-33842922D01*
X6487925Y-33885272D01*
X6529448Y-33941464D01*
X6537000Y-33984076D01*
X6537000Y-39015923D01*
X6517315Y-39082962D01*
X6487927Y-39114726D01*
X6432076Y-39157079D01*
X6432074Y-39157082D01*
X6340639Y-39277656D01*
X6285122Y-39418438D01*
X6280108Y-39460198D01*
X6274500Y-39506898D01*
X6274500Y-39506903D01*
X6274500Y-39859013D01*
X6254815Y-39926052D01*
X6202011Y-39971807D01*
X6132853Y-39981751D01*
X6069297Y-39952726D01*
X6062819Y-39946694D01*
X4086819Y-37970694D01*
X4053334Y-37909371D01*
X4050500Y-37883013D01*
X4050500Y-33961872D01*
X4070185Y-33894833D01*
X4105606Y-33858772D01*
X4169655Y-33815977D01*
X4315977Y-33669655D01*
X4430941Y-33497598D01*
X4510130Y-33306420D01*
X4550500Y-33103465D01*
X4550500Y-32896535D01*
X4510130Y-32693580D01*
X4430941Y-32502402D01*
X4315977Y-32330345D01*
X4315975Y-32330342D01*
X4169657Y-32184024D01*
X4018405Y-32082962D01*
X3997598Y-32069059D01*
X3994295Y-32067691D01*
X3806420Y-31989870D01*
X3806412Y-31989868D01*
X3603469Y-31949500D01*
X3603465Y-31949500D01*
X3396535Y-31949500D01*
X3396530Y-31949500D01*
X3193587Y-31989868D01*
X3193579Y-31989870D01*
X3002403Y-32069058D01*
X2830342Y-32184024D01*
X2684024Y-32330342D01*
X2569058Y-32502403D01*
X2489870Y-32693579D01*
X2489868Y-32693587D01*
X2449500Y-32896530D01*
X2449500Y-33103469D01*
X2489868Y-33306412D01*
X2489870Y-33306420D01*
X2558517Y-33472149D01*
X2569059Y-33497598D01*
X2602681Y-33547917D01*
X2684024Y-33669657D01*
X2830339Y-33815972D01*
X2830342Y-33815974D01*
X2830345Y-33815977D01*
X2894392Y-33858771D01*
X2939195Y-33912381D01*
X2949500Y-33961872D01*
X2949500Y-38234874D01*
X2970888Y-38314698D01*
X2987014Y-38374880D01*
X2987016Y-38374885D01*
X3059490Y-38500415D01*
X6169485Y-41610410D01*
X6295015Y-41682884D01*
X6435025Y-41720400D01*
X6435028Y-41720400D01*
X7815072Y-41720400D01*
X7815074Y-41720400D01*
X7815075Y-41720400D01*
X7955085Y-41682884D01*
X8080615Y-41610410D01*
X8654206Y-41036819D01*
X8715529Y-41003334D01*
X8741887Y-41000500D01*
X9218097Y-41000500D01*
X9218102Y-41000500D01*
X9306564Y-40989877D01*
X9447342Y-40934361D01*
X9567922Y-40842922D01*
X9659361Y-40722342D01*
X9696167Y-40629008D01*
X9739072Y-40573866D01*
X9804980Y-40550673D01*
X9811521Y-40550500D01*
X11188479Y-40550500D01*
X11255518Y-40570185D01*
X11301273Y-40622989D01*
X11303825Y-40628990D01*
X11326100Y-40685474D01*
X11340639Y-40722343D01*
X11432077Y-40842922D01*
X11552656Y-40934360D01*
X11552657Y-40934360D01*
X11552658Y-40934361D01*
X11693436Y-40989877D01*
X11781898Y-41000500D01*
X12258113Y-41000500D01*
X12325152Y-41020185D01*
X12345794Y-41036819D01*
X13790886Y-42481910D01*
X13834167Y-42506898D01*
X13916415Y-42554384D01*
X14056425Y-42591900D01*
X14056426Y-42591900D01*
X14056428Y-42591900D01*
X28653870Y-42591900D01*
X28720909Y-42611585D01*
X28766664Y-42664389D01*
X28776608Y-42733547D01*
X28776343Y-42735298D01*
X28750000Y-42901617D01*
X28750000Y-43098382D01*
X28780778Y-43292705D01*
X28841581Y-43479835D01*
X28930905Y-43655145D01*
X28956319Y-43690125D01*
X28956320Y-43690125D01*
X29646447Y-42999999D01*
X30353553Y-42999999D01*
X30353553Y-43000000D01*
X31043678Y-43690126D01*
X31043678Y-43690125D01*
X31069095Y-43655143D01*
X31158418Y-43479835D01*
X31219221Y-43292705D01*
X31250000Y-43098382D01*
X31250000Y-42901617D01*
X31219221Y-42707294D01*
X31158418Y-42520164D01*
X31069096Y-42344858D01*
X31043678Y-42309873D01*
X31043677Y-42309873D01*
X30353553Y-42999999D01*
X29646447Y-42999999D01*
X29785489Y-42860957D01*
X29823223Y-42823223D01*
X30615628Y-42030819D01*
X30676951Y-41997334D01*
X30703309Y-41994500D01*
X33720505Y-41994500D01*
X33787544Y-42014185D01*
X33833299Y-42066989D01*
X33843243Y-42136147D01*
X33814218Y-42199703D01*
X33808186Y-42206181D01*
X33684025Y-42330341D01*
X33684024Y-42330342D01*
X33569058Y-42502403D01*
X33489870Y-42693579D01*
X33489868Y-42693587D01*
X33449500Y-42896530D01*
X33449500Y-43103469D01*
X33489868Y-43306412D01*
X33489870Y-43306420D01*
X33562059Y-43480700D01*
X33569059Y-43497598D01*
X33604407Y-43550500D01*
X33684024Y-43669657D01*
X33830342Y-43815975D01*
X33830345Y-43815977D01*
X34002402Y-43930941D01*
X34193580Y-44010130D01*
X34396530Y-44050499D01*
X34396534Y-44050500D01*
X34396535Y-44050500D01*
X34603466Y-44050500D01*
X34603467Y-44050499D01*
X34806420Y-44010130D01*
X34997598Y-43930941D01*
X35169655Y-43815977D01*
X35315977Y-43669655D01*
X35430941Y-43497598D01*
X35510130Y-43306420D01*
X35535473Y-43179012D01*
X35551689Y-43097490D01*
X35553381Y-43097826D01*
X35576467Y-43040657D01*
X35633502Y-43000299D01*
X35673708Y-42993600D01*
X35787555Y-42993600D01*
X35787557Y-42993600D01*
X35940284Y-42952677D01*
X36077216Y-42873620D01*
X36189020Y-42761816D01*
X36268077Y-42624884D01*
X36309000Y-42472157D01*
X36309000Y-42314043D01*
X36268077Y-42161316D01*
X36241699Y-42115628D01*
X36239566Y-42106835D01*
X36233971Y-42099721D01*
X36231457Y-42073413D01*
X36225227Y-42047730D01*
X36228187Y-42039176D01*
X36227327Y-42030168D01*
X36239178Y-42007176D01*
X36239216Y-42006652D01*
X36239640Y-42006085D01*
X36248079Y-41981703D01*
X36256040Y-41974465D01*
X36259340Y-41968064D01*
X36280642Y-41951313D01*
X36281088Y-41950719D01*
X36283018Y-41949445D01*
X36287044Y-41946279D01*
X36287077Y-41946249D01*
X36293399Y-41942600D01*
X36394015Y-41884510D01*
X37253806Y-41024719D01*
X37315129Y-40991234D01*
X37341487Y-40988400D01*
X52292772Y-40988400D01*
X52292774Y-40988400D01*
X52292775Y-40988400D01*
X52432785Y-40950884D01*
X52461404Y-40934361D01*
X52558315Y-40878410D01*
X59208305Y-34228418D01*
X59269628Y-34194934D01*
X59295986Y-34192100D01*
X64977678Y-34192100D01*
X65044717Y-34211785D01*
X65090472Y-34264589D01*
X65100416Y-34333747D01*
X65088163Y-34372395D01*
X65013788Y-34518360D01*
X65013787Y-34518363D01*
X64957829Y-34690589D01*
X64929500Y-34869448D01*
X64929500Y-35050551D01*
X64957829Y-35229410D01*
X65013787Y-35401636D01*
X65013788Y-35401639D01*
X65053264Y-35479113D01*
X65086453Y-35544250D01*
X65096006Y-35562997D01*
X65202441Y-35709494D01*
X65202445Y-35709499D01*
X65330500Y-35837554D01*
X65330505Y-35837558D01*
X65446855Y-35922090D01*
X65477006Y-35943996D01*
X65567849Y-35990283D01*
X65638360Y-36026211D01*
X65638363Y-36026212D01*
X65724476Y-36054191D01*
X65810591Y-36082171D01*
X65877656Y-36092793D01*
X65970678Y-36107527D01*
X66033813Y-36137456D01*
X66070744Y-36196768D01*
X66069746Y-36266631D01*
X66031136Y-36324863D01*
X65970678Y-36352473D01*
X65810589Y-36377829D01*
X65638363Y-36433787D01*
X65638360Y-36433788D01*
X65477002Y-36516006D01*
X65330505Y-36622441D01*
X65330500Y-36622445D01*
X65202445Y-36750500D01*
X65202441Y-36750505D01*
X65096006Y-36897002D01*
X65029230Y-37028056D01*
X64981255Y-37078852D01*
X64913434Y-37095647D01*
X64847299Y-37073109D01*
X64803848Y-37018394D01*
X64800814Y-37010079D01*
X64791557Y-36981588D01*
X64695051Y-36792184D01*
X64695049Y-36792181D01*
X64695048Y-36792179D01*
X64570109Y-36620213D01*
X64419786Y-36469890D01*
X64247820Y-36344951D01*
X64058414Y-36248444D01*
X64058413Y-36248443D01*
X64058412Y-36248443D01*
X63856243Y-36182754D01*
X63856241Y-36182753D01*
X63856240Y-36182753D01*
X63694957Y-36157208D01*
X63646287Y-36149500D01*
X63433713Y-36149500D01*
X63385042Y-36157208D01*
X63223760Y-36182753D01*
X63021585Y-36248444D01*
X62832179Y-36344951D01*
X62660213Y-36469890D01*
X62509890Y-36620213D01*
X62384949Y-36792182D01*
X62380484Y-36800946D01*
X62332509Y-36851742D01*
X62264688Y-36868536D01*
X62198553Y-36845998D01*
X62159516Y-36800946D01*
X62155050Y-36792182D01*
X62030109Y-36620213D01*
X61879786Y-36469890D01*
X61707820Y-36344951D01*
X61518414Y-36248444D01*
X61518413Y-36248443D01*
X61518412Y-36248443D01*
X61316243Y-36182754D01*
X61316241Y-36182753D01*
X61316240Y-36182753D01*
X61154957Y-36157208D01*
X61106287Y-36149500D01*
X60893713Y-36149500D01*
X60845042Y-36157208D01*
X60683760Y-36182753D01*
X60481585Y-36248444D01*
X60292179Y-36344951D01*
X60120213Y-36469890D01*
X59969890Y-36620213D01*
X59844951Y-36792179D01*
X59748444Y-36981585D01*
X59682753Y-37183760D01*
X59649500Y-37393713D01*
X59649500Y-37606286D01*
X59679007Y-37792590D01*
X59682754Y-37816243D01*
X59747947Y-38016887D01*
X59748444Y-38018414D01*
X59844951Y-38207820D01*
X59969890Y-38379786D01*
X60120213Y-38530109D01*
X60292179Y-38655048D01*
X60292181Y-38655049D01*
X60292184Y-38655051D01*
X60481588Y-38751557D01*
X60683757Y-38817246D01*
X60893713Y-38850500D01*
X60893714Y-38850500D01*
X61106286Y-38850500D01*
X61106287Y-38850500D01*
X61316243Y-38817246D01*
X61518412Y-38751557D01*
X61707816Y-38655051D01*
X61767649Y-38611580D01*
X61879786Y-38530109D01*
X61879788Y-38530106D01*
X61879792Y-38530104D01*
X62030104Y-38379792D01*
X62030106Y-38379788D01*
X62030109Y-38379786D01*
X62155048Y-38207820D01*
X62155047Y-38207820D01*
X62155051Y-38207816D01*
X62159514Y-38199054D01*
X62207488Y-38148259D01*
X62275308Y-38131463D01*
X62341444Y-38153999D01*
X62380486Y-38199056D01*
X62384951Y-38207820D01*
X62509890Y-38379786D01*
X62660213Y-38530109D01*
X62832179Y-38655048D01*
X62832181Y-38655049D01*
X62832184Y-38655051D01*
X63021588Y-38751557D01*
X63223757Y-38817246D01*
X63433713Y-38850500D01*
X63433714Y-38850500D01*
X63646286Y-38850500D01*
X63646287Y-38850500D01*
X63856243Y-38817246D01*
X64058412Y-38751557D01*
X64247816Y-38655051D01*
X64307649Y-38611580D01*
X64419786Y-38530109D01*
X64419788Y-38530106D01*
X64419792Y-38530104D01*
X64570104Y-38379792D01*
X64570106Y-38379788D01*
X64570109Y-38379786D01*
X64695048Y-38207820D01*
X64695047Y-38207820D01*
X64695051Y-38207816D01*
X64791557Y-38018412D01*
X64800814Y-37989920D01*
X64840251Y-37932245D01*
X64904609Y-37905046D01*
X64973456Y-37916960D01*
X65024932Y-37964204D01*
X65029227Y-37971937D01*
X65076855Y-38065413D01*
X65096006Y-38102997D01*
X65202441Y-38249494D01*
X65202445Y-38249499D01*
X65330500Y-38377554D01*
X65330505Y-38377558D01*
X65395298Y-38424632D01*
X65477006Y-38483996D01*
X65572420Y-38532612D01*
X65638360Y-38566211D01*
X65638363Y-38566212D01*
X65724476Y-38594191D01*
X65810591Y-38622171D01*
X65893429Y-38635291D01*
X65989449Y-38650500D01*
X65989454Y-38650500D01*
X66170551Y-38650500D01*
X66257259Y-38636765D01*
X66349409Y-38622171D01*
X66391087Y-38608629D01*
X66406117Y-38603746D01*
X66475958Y-38601751D01*
X66535791Y-38637832D01*
X66566619Y-38700533D01*
X66558654Y-38769947D01*
X66532116Y-38809358D01*
X60213994Y-45127481D01*
X60152671Y-45160966D01*
X60126313Y-45163800D01*
X38089087Y-45163800D01*
X38022048Y-45144115D01*
X37976293Y-45091311D01*
X37966349Y-45022153D01*
X37995374Y-44958597D01*
X38001406Y-44952119D01*
X38916705Y-44036819D01*
X38978028Y-44003334D01*
X39004386Y-44000500D01*
X39480597Y-44000500D01*
X39480602Y-44000500D01*
X39569064Y-43989877D01*
X39709842Y-43934361D01*
X39830422Y-43842922D01*
X39921861Y-43722342D01*
X39972146Y-43594826D01*
X40015051Y-43539685D01*
X40080959Y-43516492D01*
X40148943Y-43532612D01*
X40197420Y-43582929D01*
X40202848Y-43594814D01*
X40226639Y-43655143D01*
X40253139Y-43722343D01*
X40344577Y-43842922D01*
X40465156Y-43934360D01*
X40465157Y-43934360D01*
X40465158Y-43934361D01*
X40605936Y-43989877D01*
X40694398Y-44000500D01*
X40694403Y-44000500D01*
X41305597Y-44000500D01*
X41305602Y-44000500D01*
X41394064Y-43989877D01*
X41534842Y-43934361D01*
X41655422Y-43842922D01*
X41746861Y-43722342D01*
X41783667Y-43629008D01*
X41826572Y-43573866D01*
X41892480Y-43550673D01*
X41899021Y-43550500D01*
X43275979Y-43550500D01*
X43343018Y-43570185D01*
X43388773Y-43622989D01*
X43391325Y-43628990D01*
X43401639Y-43655143D01*
X43428139Y-43722343D01*
X43519577Y-43842922D01*
X43640156Y-43934360D01*
X43640157Y-43934360D01*
X43640158Y-43934361D01*
X43780936Y-43989877D01*
X43869398Y-44000500D01*
X44345614Y-44000500D01*
X44412653Y-44020185D01*
X44433295Y-44036819D01*
X44992186Y-44595710D01*
X45075626Y-44643884D01*
X45117715Y-44668184D01*
X45257725Y-44705700D01*
X45257726Y-44705700D01*
X45257728Y-44705700D01*
X49417272Y-44705700D01*
X49417274Y-44705700D01*
X49417275Y-44705700D01*
X49557285Y-44668184D01*
X49682815Y-44595710D01*
X50209117Y-44069406D01*
X50270438Y-44035923D01*
X50320985Y-44035472D01*
X50381802Y-44047569D01*
X50396534Y-44050500D01*
X50396535Y-44050500D01*
X50603466Y-44050500D01*
X50603467Y-44050499D01*
X50806420Y-44010130D01*
X50997598Y-43930941D01*
X51169655Y-43815977D01*
X51315977Y-43669655D01*
X51430941Y-43497598D01*
X51510130Y-43306420D01*
X51550500Y-43103465D01*
X51550500Y-42896535D01*
X51510130Y-42693580D01*
X51430941Y-42502402D01*
X51315977Y-42330345D01*
X51315975Y-42330342D01*
X51169657Y-42184024D01*
X51043487Y-42099721D01*
X50997598Y-42069059D01*
X50989341Y-42065639D01*
X50806420Y-41989870D01*
X50806412Y-41989868D01*
X50603469Y-41949500D01*
X50603465Y-41949500D01*
X50396535Y-41949500D01*
X50396530Y-41949500D01*
X50193587Y-41989868D01*
X50193579Y-41989870D01*
X50002403Y-42069058D01*
X49830342Y-42184024D01*
X49684024Y-42330342D01*
X49569058Y-42502403D01*
X49489870Y-42693579D01*
X49489868Y-42693587D01*
X49449500Y-42896530D01*
X49449500Y-42896534D01*
X49449500Y-42896535D01*
X49449500Y-43103465D01*
X49464228Y-43177511D01*
X49464527Y-43179012D01*
X49458299Y-43248603D01*
X49430590Y-43290883D01*
X49153092Y-43568382D01*
X49091772Y-43601866D01*
X49065413Y-43604700D01*
X47136500Y-43604700D01*
X47069461Y-43585015D01*
X47023706Y-43532211D01*
X47012500Y-43480700D01*
X47012500Y-43250000D01*
X46124000Y-43250000D01*
X46056961Y-43230315D01*
X46011206Y-43177511D01*
X46000000Y-43126000D01*
X46000000Y-43000000D01*
X45874000Y-43000000D01*
X45806961Y-42980315D01*
X45761206Y-42927511D01*
X45750000Y-42876000D01*
X45750000Y-42750000D01*
X46250000Y-42750000D01*
X47012499Y-42750000D01*
X47012499Y-42500028D01*
X47012498Y-42500013D01*
X47002005Y-42397302D01*
X46946858Y-42230880D01*
X46946856Y-42230875D01*
X46854815Y-42081654D01*
X46730845Y-41957684D01*
X46581624Y-41865643D01*
X46581619Y-41865641D01*
X46415197Y-41810494D01*
X46415190Y-41810493D01*
X46312486Y-41800000D01*
X46250000Y-41800000D01*
X46250000Y-42750000D01*
X45750000Y-42750000D01*
X45750000Y-41800000D01*
X45749999Y-41799999D01*
X45687528Y-41800000D01*
X45687511Y-41800001D01*
X45584802Y-41810494D01*
X45418380Y-41865641D01*
X45418375Y-41865643D01*
X45269154Y-41957684D01*
X45145182Y-42081656D01*
X45073343Y-42198125D01*
X45021395Y-42244849D01*
X44952432Y-42256070D01*
X44888350Y-42228227D01*
X44869001Y-42207952D01*
X44830422Y-42157077D01*
X44709843Y-42065639D01*
X44569061Y-42010122D01*
X44523426Y-42004642D01*
X44480602Y-41999500D01*
X43869398Y-41999500D01*
X43830353Y-42004188D01*
X43780938Y-42010122D01*
X43640156Y-42065639D01*
X43519577Y-42157077D01*
X43428139Y-42277656D01*
X43407363Y-42330341D01*
X43391332Y-42370991D01*
X43348428Y-42426134D01*
X43282520Y-42449327D01*
X43275979Y-42449500D01*
X42571331Y-42449500D01*
X42504292Y-42429815D01*
X42458537Y-42377011D01*
X42448593Y-42307853D01*
X42453047Y-42291615D01*
X42452373Y-42291435D01*
X42454477Y-42283584D01*
X42495400Y-42130857D01*
X42495400Y-41972743D01*
X42454477Y-41820016D01*
X42448979Y-41810493D01*
X42375424Y-41683090D01*
X42375421Y-41683086D01*
X42375420Y-41683084D01*
X42263616Y-41571280D01*
X42263614Y-41571279D01*
X42263609Y-41571275D01*
X42126690Y-41492226D01*
X42126686Y-41492224D01*
X42126684Y-41492223D01*
X41973957Y-41451300D01*
X41815843Y-41451300D01*
X41663116Y-41492223D01*
X41663109Y-41492226D01*
X41526190Y-41571275D01*
X41526182Y-41571281D01*
X41414381Y-41683082D01*
X41414379Y-41683085D01*
X41392836Y-41720400D01*
X41335323Y-41820016D01*
X41335322Y-41820018D01*
X41331261Y-41827053D01*
X41330887Y-41826837D01*
X41329958Y-41831111D01*
X41308807Y-41859365D01*
X41204994Y-41963180D01*
X41143671Y-41996666D01*
X41117312Y-41999500D01*
X40694398Y-41999500D01*
X40655353Y-42004188D01*
X40605938Y-42010122D01*
X40465156Y-42065639D01*
X40344577Y-42157077D01*
X40253139Y-42277656D01*
X40223165Y-42353663D01*
X40202853Y-42405171D01*
X40159949Y-42460314D01*
X40094041Y-42483507D01*
X40026056Y-42467386D01*
X39977580Y-42417070D01*
X39972148Y-42405178D01*
X39921861Y-42277658D01*
X39921860Y-42277657D01*
X39921860Y-42277656D01*
X39830422Y-42157077D01*
X39709843Y-42065639D01*
X39569061Y-42010122D01*
X39523426Y-42004642D01*
X39480602Y-41999500D01*
X38869398Y-41999500D01*
X38830353Y-42004188D01*
X38780938Y-42010122D01*
X38640156Y-42065639D01*
X38519577Y-42157077D01*
X38428139Y-42277656D01*
X38372622Y-42418438D01*
X38367594Y-42460314D01*
X38362000Y-42506898D01*
X38362000Y-42506903D01*
X38362000Y-42983113D01*
X38342315Y-43050152D01*
X38325681Y-43070794D01*
X37058194Y-44338281D01*
X36996871Y-44371766D01*
X36970513Y-44374600D01*
X31493363Y-44374600D01*
X31454820Y-44366934D01*
X31454635Y-44367627D01*
X31446785Y-44365523D01*
X31446784Y-44365523D01*
X31294057Y-44324600D01*
X31135943Y-44324600D01*
X30983216Y-44365523D01*
X30983209Y-44365526D01*
X30846290Y-44444575D01*
X30846282Y-44444581D01*
X30734481Y-44556382D01*
X30734475Y-44556390D01*
X30655426Y-44693309D01*
X30655423Y-44693316D01*
X30614500Y-44846043D01*
X30614500Y-45004157D01*
X30615450Y-45007705D01*
X30615376Y-45010815D01*
X30615561Y-45012213D01*
X30615343Y-45012241D01*
X30613790Y-45077553D01*
X30574630Y-45135416D01*
X30510402Y-45162923D01*
X30495677Y-45163800D01*
X20543786Y-45163800D01*
X20476747Y-45144115D01*
X20456105Y-45127481D01*
X20148795Y-44820170D01*
X20126962Y-44787495D01*
X20126341Y-44787854D01*
X20043224Y-44643890D01*
X20043218Y-44643882D01*
X19931417Y-44532081D01*
X19931409Y-44532075D01*
X19794490Y-44453026D01*
X19794486Y-44453024D01*
X19794484Y-44453023D01*
X19641757Y-44412100D01*
X19483643Y-44412100D01*
X19330916Y-44453023D01*
X19330909Y-44453026D01*
X19193990Y-44532075D01*
X19193982Y-44532081D01*
X19082181Y-44643882D01*
X19082175Y-44643890D01*
X19003126Y-44780809D01*
X19003123Y-44780816D01*
X18962200Y-44933543D01*
X18962200Y-45091657D01*
X18980772Y-45160966D01*
X19003123Y-45244383D01*
X19003126Y-45244390D01*
X19082175Y-45381309D01*
X19082179Y-45381314D01*
X19082180Y-45381316D01*
X19193984Y-45493120D01*
X19193986Y-45493121D01*
X19193990Y-45493124D01*
X19337954Y-45576241D01*
X19337738Y-45576613D01*
X19342016Y-45577544D01*
X19370270Y-45598695D01*
X19425394Y-45653819D01*
X19458879Y-45715142D01*
X19453895Y-45784834D01*
X19412023Y-45840767D01*
X19346559Y-45865184D01*
X19337713Y-45865500D01*
X12955563Y-45865500D01*
X12917020Y-45857834D01*
X12916835Y-45858527D01*
X12908985Y-45856423D01*
X12908984Y-45856423D01*
X12756257Y-45815500D01*
X12598143Y-45815500D01*
X12445416Y-45856423D01*
X12445409Y-45856426D01*
X12308490Y-45935475D01*
X12308482Y-45935481D01*
X12196681Y-46047282D01*
X12196675Y-46047290D01*
X12117626Y-46184209D01*
X12117623Y-46184216D01*
X12076700Y-46336943D01*
X12076700Y-46495056D01*
X12117623Y-46647783D01*
X12117626Y-46647790D01*
X12196675Y-46784709D01*
X12196679Y-46784714D01*
X12196680Y-46784716D01*
X12308484Y-46896520D01*
X12308486Y-46896521D01*
X12308490Y-46896524D01*
X12429694Y-46966500D01*
X12445416Y-46975577D01*
X12598143Y-47016500D01*
X12598145Y-47016500D01*
X12756255Y-47016500D01*
X12756257Y-47016500D01*
X12908984Y-46975577D01*
X12908985Y-46975576D01*
X12916835Y-46973473D01*
X12917020Y-46974165D01*
X12955563Y-46966500D01*
X35238402Y-46966500D01*
X35305441Y-46986185D01*
X35351196Y-47038989D01*
X35361140Y-47108147D01*
X35332115Y-47171703D01*
X35326083Y-47178181D01*
X35227981Y-47276282D01*
X35227975Y-47276290D01*
X35148926Y-47413209D01*
X35148923Y-47413216D01*
X35108000Y-47565943D01*
X35108000Y-47724056D01*
X35148923Y-47876783D01*
X35148926Y-47876790D01*
X35227975Y-48013709D01*
X35227979Y-48013714D01*
X35227980Y-48013716D01*
X35339784Y-48125520D01*
X35339786Y-48125521D01*
X35339790Y-48125524D01*
X35460994Y-48195500D01*
X35476716Y-48204577D01*
X35629443Y-48245500D01*
X35629445Y-48245500D01*
X35787555Y-48245500D01*
X35787557Y-48245500D01*
X35940284Y-48204577D01*
X35940285Y-48204576D01*
X35948135Y-48202473D01*
X35948320Y-48203165D01*
X35986863Y-48195500D01*
X62953872Y-48195500D01*
X62953874Y-48195500D01*
X62953875Y-48195500D01*
X63093885Y-48157984D01*
X63219415Y-48085510D01*
X72932610Y-38372315D01*
X73005084Y-38246785D01*
X73008274Y-38234878D01*
X73008276Y-38234875D01*
X73008275Y-38234875D01*
X73042600Y-38106775D01*
X73042600Y-36219625D01*
X73005084Y-36079615D01*
X72975284Y-36028000D01*
X72932610Y-35954085D01*
X72316696Y-35338171D01*
X72283211Y-35276848D01*
X72281904Y-35231091D01*
X72282169Y-35229412D01*
X72282171Y-35229409D01*
X72302690Y-35099856D01*
X72310500Y-35050550D01*
X72310500Y-34869448D01*
X72290337Y-34742149D01*
X72282171Y-34690591D01*
X72248253Y-34586199D01*
X72226212Y-34518363D01*
X72226211Y-34518360D01*
X72190550Y-34448373D01*
X72143996Y-34357006D01*
X72093134Y-34287000D01*
X72037558Y-34210505D01*
X72037554Y-34210500D01*
X71909499Y-34082445D01*
X71909494Y-34082441D01*
X71762997Y-33976006D01*
X71762996Y-33976005D01*
X71762994Y-33976004D01*
X71681264Y-33934360D01*
X71601639Y-33893788D01*
X71601636Y-33893787D01*
X71429410Y-33837829D01*
X71250551Y-33809500D01*
X71250546Y-33809500D01*
X71069454Y-33809500D01*
X71069449Y-33809500D01*
X70890589Y-33837829D01*
X70718363Y-33893787D01*
X70718360Y-33893788D01*
X70557002Y-33976006D01*
X70410505Y-34082441D01*
X70410500Y-34082445D01*
X70282445Y-34210500D01*
X70282441Y-34210505D01*
X70176006Y-34357002D01*
X70093788Y-34518360D01*
X70093787Y-34518363D01*
X70037829Y-34690589D01*
X70012473Y-34850678D01*
X69982544Y-34913813D01*
X69923232Y-34950744D01*
X69853369Y-34949746D01*
X69795137Y-34911136D01*
X69767527Y-34850678D01*
X69750337Y-34742149D01*
X69742171Y-34690591D01*
X69708253Y-34586199D01*
X69686212Y-34518363D01*
X69686211Y-34518360D01*
X69650550Y-34448373D01*
X69603996Y-34357006D01*
X69553134Y-34287000D01*
X69497558Y-34210505D01*
X69497554Y-34210500D01*
X69369499Y-34082445D01*
X69369494Y-34082441D01*
X69222997Y-33976006D01*
X69222996Y-33976005D01*
X69222994Y-33976004D01*
X69141264Y-33934360D01*
X69061639Y-33893788D01*
X69061636Y-33893787D01*
X68889410Y-33837829D01*
X68710551Y-33809500D01*
X68710546Y-33809500D01*
X68529454Y-33809500D01*
X68529449Y-33809500D01*
X68348907Y-33838095D01*
X68279613Y-33829140D01*
X68241828Y-33803303D01*
X67639616Y-33201091D01*
X67639615Y-33201090D01*
X67514085Y-33128616D01*
X67514086Y-33128616D01*
X67420221Y-33103465D01*
X67420221Y-33103464D01*
X67374075Y-33091100D01*
X58944125Y-33091100D01*
X58944124Y-33091100D01*
X58897978Y-33103464D01*
X58897979Y-33103465D01*
X58804113Y-33128616D01*
X58804112Y-33128617D01*
X58678589Y-33201087D01*
X58678584Y-33201091D01*
X52028594Y-39851081D01*
X51967271Y-39884566D01*
X51940913Y-39887400D01*
X48390487Y-39887400D01*
X48323448Y-39867715D01*
X48277693Y-39814911D01*
X48267749Y-39745753D01*
X48296774Y-39682197D01*
X48302806Y-39675719D01*
X48518327Y-39460198D01*
X49199717Y-38778806D01*
X49261038Y-38745323D01*
X49330729Y-38750307D01*
X49386663Y-38792178D01*
X49400830Y-38816402D01*
X49412540Y-38842922D01*
X49447794Y-38922765D01*
X49527235Y-39002206D01*
X49630009Y-39047585D01*
X49655135Y-39050500D01*
X50744864Y-39050499D01*
X50744879Y-39050497D01*
X50744882Y-39050497D01*
X50769987Y-39047586D01*
X50769987Y-39047585D01*
X50769991Y-39047585D01*
X50799913Y-39034372D01*
X50869190Y-39025301D01*
X50900086Y-39034373D01*
X50930007Y-39047584D01*
X50930009Y-39047585D01*
X50955135Y-39050500D01*
X52044864Y-39050499D01*
X52044879Y-39050497D01*
X52044882Y-39050497D01*
X52069987Y-39047586D01*
X52069988Y-39047585D01*
X52069991Y-39047585D01*
X52172765Y-39002206D01*
X52252206Y-38922765D01*
X52297585Y-38819991D01*
X52300500Y-38794865D01*
X52300499Y-37205136D01*
X52298986Y-37192090D01*
X52297586Y-37180012D01*
X52297585Y-37180010D01*
X52297585Y-37180009D01*
X52252206Y-37077235D01*
X52189428Y-37014457D01*
X52155943Y-36953134D01*
X52160927Y-36883442D01*
X52189426Y-36839097D01*
X57302806Y-31725719D01*
X57364129Y-31692234D01*
X57390487Y-31689400D01*
X62551379Y-31689400D01*
X62589665Y-31697015D01*
X62589865Y-31696273D01*
X62597714Y-31698376D01*
X62597716Y-31698377D01*
X62750443Y-31739300D01*
X62750445Y-31739300D01*
X62908555Y-31739300D01*
X62908557Y-31739300D01*
X63061284Y-31698377D01*
X63162742Y-31639801D01*
X63198212Y-31619323D01*
X63198213Y-31619321D01*
X63198216Y-31619320D01*
X63310020Y-31507516D01*
X63377636Y-31390399D01*
X63428202Y-31342185D01*
X63485023Y-31328400D01*
X64725472Y-31328400D01*
X64725475Y-31328400D01*
X64865485Y-31290884D01*
X64991015Y-31218409D01*
X65034005Y-31175419D01*
X65095328Y-31141934D01*
X65121686Y-31139100D01*
X65804715Y-31139100D01*
X65866715Y-31155713D01*
X65881211Y-31164082D01*
X65881212Y-31164082D01*
X65881215Y-31164084D01*
X66021225Y-31201600D01*
X66021228Y-31201600D01*
X66166172Y-31201600D01*
X66166175Y-31201600D01*
X66306185Y-31164084D01*
X66431715Y-31091609D01*
X66534209Y-30989115D01*
X66606684Y-30863585D01*
X66644200Y-30723575D01*
X66644200Y-30620066D01*
X66663885Y-30553027D01*
X66716689Y-30507272D01*
X66753413Y-30496950D01*
X66811321Y-30489997D01*
X66950500Y-30435111D01*
X67069711Y-30344711D01*
X67160111Y-30225500D01*
X67214997Y-30086321D01*
X67225500Y-29998860D01*
X67225500Y-29001140D01*
X67214997Y-28913679D01*
X67177487Y-28818561D01*
X67160112Y-28774502D01*
X67160111Y-28774500D01*
X67069711Y-28655288D01*
X66950499Y-28564888D01*
X66950497Y-28564887D01*
X66811322Y-28510003D01*
X66798826Y-28508502D01*
X66723860Y-28499500D01*
X66151140Y-28499500D01*
X66085544Y-28507377D01*
X66063677Y-28510003D01*
X65924502Y-28564887D01*
X65924500Y-28564888D01*
X65805288Y-28655288D01*
X65709764Y-28781258D01*
X65707518Y-28779555D01*
X65667509Y-28818561D01*
X65599053Y-28832545D01*
X65533904Y-28807299D01*
X65492746Y-28750838D01*
X65491762Y-28747985D01*
X65484903Y-28727287D01*
X65484903Y-28727285D01*
X65393629Y-28579308D01*
X65270691Y-28456370D01*
X65122714Y-28365096D01*
X65122709Y-28365094D01*
X64957673Y-28310407D01*
X64855815Y-28300000D01*
X64812500Y-28300000D01*
X64812500Y-29376000D01*
X64792815Y-29443039D01*
X64740011Y-29488794D01*
X64688500Y-29500000D01*
X64562500Y-29500000D01*
X64562500Y-29626000D01*
X64542815Y-29693039D01*
X64490011Y-29738794D01*
X64438500Y-29750000D01*
X63575000Y-29750000D01*
X63572220Y-29752779D01*
X63555315Y-29810352D01*
X63502511Y-29856107D01*
X63433353Y-29866051D01*
X63369797Y-29837026D01*
X63363319Y-29830994D01*
X62761819Y-29229494D01*
X62747308Y-29202920D01*
X62730760Y-29177547D01*
X62729765Y-29170793D01*
X62728334Y-29168171D01*
X62725503Y-29142647D01*
X62725500Y-29142200D01*
X62725500Y-29006898D01*
X62723973Y-28994184D01*
X63575000Y-28994184D01*
X63575000Y-29250000D01*
X64312500Y-29250000D01*
X64312500Y-28300000D01*
X64269184Y-28300000D01*
X64167326Y-28310407D01*
X64002290Y-28365094D01*
X64002285Y-28365096D01*
X63854308Y-28456370D01*
X63731370Y-28579308D01*
X63640096Y-28727285D01*
X63640094Y-28727290D01*
X63585407Y-28892326D01*
X63575000Y-28994184D01*
X62723973Y-28994184D01*
X62714877Y-28918436D01*
X62659361Y-28777658D01*
X62659360Y-28777657D01*
X62659360Y-28777656D01*
X62567922Y-28657077D01*
X62447343Y-28565639D01*
X62306561Y-28510122D01*
X62260926Y-28504642D01*
X62218102Y-28499500D01*
X61606898Y-28499500D01*
X61567853Y-28504188D01*
X61518438Y-28510122D01*
X61377656Y-28565639D01*
X61257077Y-28657077D01*
X61165639Y-28777656D01*
X61146134Y-28827118D01*
X61115353Y-28905171D01*
X61072449Y-28960314D01*
X61006541Y-28983507D01*
X60938556Y-28967386D01*
X60890080Y-28917070D01*
X60884648Y-28905178D01*
X60834361Y-28777658D01*
X60834360Y-28777657D01*
X60834360Y-28777656D01*
X60742922Y-28657077D01*
X60622343Y-28565639D01*
X60481561Y-28510122D01*
X60435926Y-28504642D01*
X60393102Y-28499500D01*
X60393097Y-28499500D01*
X59906518Y-28499500D01*
X59844519Y-28482888D01*
X59796613Y-28455230D01*
X59729385Y-28416416D01*
X59729380Y-28416414D01*
X59697977Y-28407999D01*
X59697977Y-28408000D01*
X59638820Y-28392149D01*
X59589375Y-28378900D01*
X59589374Y-28378900D01*
X45832063Y-28378900D01*
X45800001Y-28374683D01*
X45788630Y-28371639D01*
X45785484Y-28369823D01*
X45632757Y-28328900D01*
X45628956Y-28328900D01*
X45617438Y-28325817D01*
X45594245Y-28311688D01*
X45569411Y-28300700D01*
X45564847Y-28293780D01*
X45557768Y-28289468D01*
X45545895Y-28265043D01*
X45530944Y-28242373D01*
X45529192Y-28230683D01*
X45527222Y-28226629D01*
X45527826Y-28221562D01*
X45525500Y-28206034D01*
X45525500Y-28004387D01*
X45545185Y-27937348D01*
X45561819Y-27916706D01*
X45978127Y-27500398D01*
X46165510Y-27313015D01*
X46415510Y-27063015D01*
X46487984Y-26937485D01*
X46491463Y-26924501D01*
X46494599Y-26912800D01*
X46500583Y-26890463D01*
X46525500Y-26797475D01*
X46525500Y-26402525D01*
X46525500Y-26200001D01*
X59827704Y-26200001D01*
X59827899Y-26202486D01*
X59873718Y-26360198D01*
X59957314Y-26501552D01*
X59957321Y-26501561D01*
X60073438Y-26617678D01*
X60073447Y-26617685D01*
X60214803Y-26701282D01*
X60214806Y-26701283D01*
X60372504Y-26747099D01*
X60372510Y-26747100D01*
X60409350Y-26749999D01*
X60409366Y-26750000D01*
X60812500Y-26750000D01*
X61312500Y-26750000D01*
X61715634Y-26750000D01*
X61715649Y-26749999D01*
X61752489Y-26747100D01*
X61752495Y-26747099D01*
X61910193Y-26701283D01*
X61910196Y-26701282D01*
X62051552Y-26617685D01*
X62051561Y-26617678D01*
X62167678Y-26501561D01*
X62167685Y-26501552D01*
X62251281Y-26360198D01*
X62297100Y-26202486D01*
X62297295Y-26200001D01*
X62297295Y-26200000D01*
X61312500Y-26200000D01*
X61312500Y-26750000D01*
X60812500Y-26750000D01*
X60812500Y-26200000D01*
X59827705Y-26200000D01*
X59827704Y-26200001D01*
X46525500Y-26200001D01*
X46525500Y-26152525D01*
X46525500Y-25902525D01*
X46525500Y-25699998D01*
X59827704Y-25699998D01*
X59827705Y-25700000D01*
X60812500Y-25700000D01*
X60812500Y-25150000D01*
X60409350Y-25150000D01*
X60372510Y-25152899D01*
X60372504Y-25152900D01*
X60214806Y-25198716D01*
X60214803Y-25198717D01*
X60073447Y-25282314D01*
X60073438Y-25282321D01*
X59957321Y-25398438D01*
X59957314Y-25398447D01*
X59873718Y-25539801D01*
X59827899Y-25697513D01*
X59827704Y-25699998D01*
X46525500Y-25699998D01*
X46525500Y-25652525D01*
X46525500Y-25402525D01*
X46487984Y-25262515D01*
X46473821Y-25237984D01*
X46415510Y-25136985D01*
X46279919Y-25001394D01*
X46246434Y-24940071D01*
X46243600Y-24913713D01*
X46243600Y-22441883D01*
X46263285Y-22374844D01*
X46316089Y-22329089D01*
X46322096Y-22326534D01*
X46397342Y-22296861D01*
X46517922Y-22205422D01*
X46609361Y-22084842D01*
X46664877Y-21944064D01*
X46675500Y-21855602D01*
X46675500Y-21144398D01*
X46675500Y-21143200D01*
X46695185Y-21076161D01*
X46747989Y-21030406D01*
X46799500Y-21019200D01*
X59691274Y-21019200D01*
X59691275Y-21019200D01*
X59745441Y-21004685D01*
X59778191Y-21001382D01*
X59778191Y-21000500D01*
X60393097Y-21000500D01*
X60393102Y-21000500D01*
X60481564Y-20989877D01*
X60622342Y-20934361D01*
X60742922Y-20842922D01*
X60834361Y-20722342D01*
X60884646Y-20594826D01*
X60927551Y-20539685D01*
X60993459Y-20516492D01*
X61061443Y-20532612D01*
X61109920Y-20582929D01*
X61115348Y-20594814D01*
X61134320Y-20642922D01*
X61165639Y-20722343D01*
X61257077Y-20842922D01*
X61377656Y-20934360D01*
X61377657Y-20934360D01*
X61377658Y-20934361D01*
X61518436Y-20989877D01*
X61606898Y-21000500D01*
X62083113Y-21000500D01*
X62150152Y-21020185D01*
X62170794Y-21036819D01*
X62476585Y-21342610D01*
X62601115Y-21414506D01*
X62601123Y-21414515D01*
X62601125Y-21414513D01*
X62602109Y-21415081D01*
X62602110Y-21415081D01*
X62602115Y-21415084D01*
X62742125Y-21452600D01*
X62742126Y-21452600D01*
X62887074Y-21452600D01*
X64782637Y-21452600D01*
X64821179Y-21460265D01*
X64821365Y-21459573D01*
X64829214Y-21461676D01*
X64829216Y-21461677D01*
X64981943Y-21502600D01*
X64981945Y-21502600D01*
X65140054Y-21502600D01*
X65140057Y-21502600D01*
X65205908Y-21484955D01*
X65275756Y-21486618D01*
X65333619Y-21525780D01*
X65361123Y-21590009D01*
X65362000Y-21604730D01*
X65362000Y-22920613D01*
X65342315Y-22987652D01*
X65325681Y-23008294D01*
X64920794Y-23413181D01*
X64859471Y-23446666D01*
X64833113Y-23449500D01*
X64420730Y-23449500D01*
X64390300Y-23452353D01*
X64390298Y-23452354D01*
X64275451Y-23492541D01*
X64234496Y-23499500D01*
X63815025Y-23499500D01*
X63685117Y-23534309D01*
X63685116Y-23534309D01*
X63675017Y-23537014D01*
X63549486Y-23609489D01*
X63549483Y-23609491D01*
X62795794Y-24363181D01*
X62734471Y-24396666D01*
X62708113Y-24399500D01*
X62295730Y-24399500D01*
X62265300Y-24402353D01*
X62265298Y-24402354D01*
X62263000Y-24403158D01*
X62261196Y-24403249D01*
X62257927Y-24403964D01*
X62257808Y-24403422D01*
X62193221Y-24406712D01*
X62132597Y-24371978D01*
X62100376Y-24309981D01*
X62098599Y-24274534D01*
X62100500Y-24254266D01*
X62100500Y-23877447D01*
X62120185Y-23810408D01*
X62162499Y-23770060D01*
X62281216Y-23701520D01*
X62393020Y-23589716D01*
X62472077Y-23452784D01*
X62513000Y-23300057D01*
X62513000Y-23141943D01*
X62472077Y-22989216D01*
X62434714Y-22924500D01*
X62393024Y-22852290D01*
X62393018Y-22852282D01*
X62281217Y-22740481D01*
X62281209Y-22740475D01*
X62144290Y-22661426D01*
X62144286Y-22661424D01*
X62144284Y-22661423D01*
X61991557Y-22620500D01*
X61833443Y-22620500D01*
X61680716Y-22661423D01*
X61680709Y-22661426D01*
X61543790Y-22740475D01*
X61543782Y-22740481D01*
X61431982Y-22852281D01*
X61431980Y-22852284D01*
X61372236Y-22955763D01*
X61352530Y-22981443D01*
X60920794Y-23413181D01*
X60859471Y-23446666D01*
X60833113Y-23449500D01*
X60420730Y-23449500D01*
X60390300Y-23452353D01*
X60390298Y-23452353D01*
X60262119Y-23497206D01*
X60262117Y-23497207D01*
X60152850Y-23577850D01*
X60072207Y-23687117D01*
X60072206Y-23687119D01*
X60027353Y-23815298D01*
X60027353Y-23815300D01*
X60024500Y-23845730D01*
X60024500Y-24254269D01*
X60027353Y-24284699D01*
X60027353Y-24284701D01*
X60069086Y-24403964D01*
X60072207Y-24412882D01*
X60152850Y-24522150D01*
X60262118Y-24602793D01*
X60275453Y-24607459D01*
X60390299Y-24647646D01*
X60420730Y-24650500D01*
X60420734Y-24650500D01*
X61704270Y-24650500D01*
X61734699Y-24647646D01*
X61736984Y-24646847D01*
X61738779Y-24646755D01*
X61742073Y-24646036D01*
X61742192Y-24646580D01*
X61806763Y-24643283D01*
X61867391Y-24678010D01*
X61899620Y-24740003D01*
X61901401Y-24775462D01*
X61899501Y-24795730D01*
X61899500Y-24795738D01*
X61899500Y-25031051D01*
X61879815Y-25098090D01*
X61827011Y-25143845D01*
X61757853Y-25153789D01*
X61753220Y-25153033D01*
X61752491Y-25152899D01*
X61715649Y-25150000D01*
X61312500Y-25150000D01*
X61312500Y-25700000D01*
X62297295Y-25700000D01*
X62310087Y-25686161D01*
X62314355Y-25665848D01*
X62363409Y-25616093D01*
X62423607Y-25600500D01*
X63579270Y-25600500D01*
X63609699Y-25597646D01*
X63609701Y-25597646D01*
X63673790Y-25575219D01*
X63737882Y-25552793D01*
X63847150Y-25472150D01*
X63927793Y-25362882D01*
X63951481Y-25295185D01*
X63972646Y-25234701D01*
X63972646Y-25234699D01*
X63975500Y-25204269D01*
X63975500Y-24792835D01*
X63976803Y-24792835D01*
X63983505Y-24765231D01*
X63990626Y-24732501D01*
X63991848Y-24730868D01*
X63992081Y-24729910D01*
X64011772Y-24704251D01*
X64079208Y-24636817D01*
X64140532Y-24603333D01*
X64166888Y-24600500D01*
X64234496Y-24600500D01*
X64275451Y-24607459D01*
X64390298Y-24647645D01*
X64390300Y-24647646D01*
X64420730Y-24650500D01*
X64420734Y-24650500D01*
X65704270Y-24650500D01*
X65734699Y-24647646D01*
X65736984Y-24646847D01*
X65738779Y-24646755D01*
X65742073Y-24646036D01*
X65742192Y-24646580D01*
X65806763Y-24643283D01*
X65867391Y-24678010D01*
X65899620Y-24740003D01*
X65901401Y-24775462D01*
X65899500Y-24795734D01*
X65899500Y-25204266D01*
X65900227Y-25212016D01*
X65901401Y-25224537D01*
X65888060Y-25293121D01*
X65839758Y-25343605D01*
X65771830Y-25359961D01*
X65736995Y-25353156D01*
X65734704Y-25352354D01*
X65734699Y-25352353D01*
X65704270Y-25349500D01*
X65704266Y-25349500D01*
X64420734Y-25349500D01*
X64420730Y-25349500D01*
X64390300Y-25352353D01*
X64390298Y-25352353D01*
X64262119Y-25397206D01*
X64262117Y-25397207D01*
X64152850Y-25477850D01*
X64072207Y-25587117D01*
X64072206Y-25587119D01*
X64027353Y-25715298D01*
X64027353Y-25715300D01*
X64024500Y-25745730D01*
X64024500Y-26130535D01*
X64004815Y-26197574D01*
X63962499Y-26237922D01*
X63927307Y-26258240D01*
X63874585Y-26288679D01*
X63874582Y-26288681D01*
X63762781Y-26400482D01*
X63762775Y-26400490D01*
X63683726Y-26537409D01*
X63683723Y-26537416D01*
X63642800Y-26690143D01*
X63642800Y-26848257D01*
X63683594Y-27000500D01*
X63683723Y-27000983D01*
X63683726Y-27000990D01*
X63762775Y-27137909D01*
X63762779Y-27137914D01*
X63762780Y-27137916D01*
X63874584Y-27249720D01*
X63874586Y-27249721D01*
X63874590Y-27249724D01*
X63996362Y-27320028D01*
X64011516Y-27328777D01*
X64164243Y-27369700D01*
X64164245Y-27369700D01*
X64322355Y-27369700D01*
X64322357Y-27369700D01*
X64475084Y-27328777D01*
X64612016Y-27249720D01*
X64723820Y-27137916D01*
X64802877Y-27000984D01*
X64802877Y-27000980D01*
X64806940Y-26993945D01*
X64807562Y-26994304D01*
X64829395Y-26961629D01*
X65204206Y-26586819D01*
X65265529Y-26553334D01*
X65291887Y-26550500D01*
X65704270Y-26550500D01*
X65734699Y-26547646D01*
X65734701Y-26547646D01*
X65823732Y-26516492D01*
X65862882Y-26502793D01*
X65972150Y-26422150D01*
X66052793Y-26312882D01*
X66090569Y-26204924D01*
X66092292Y-26200001D01*
X67827704Y-26200001D01*
X67827899Y-26202486D01*
X67873718Y-26360198D01*
X67957314Y-26501552D01*
X67957321Y-26501561D01*
X68073438Y-26617678D01*
X68073447Y-26617685D01*
X68214803Y-26701282D01*
X68214806Y-26701283D01*
X68372504Y-26747099D01*
X68372510Y-26747100D01*
X68409350Y-26749999D01*
X68409366Y-26750000D01*
X68812500Y-26750000D01*
X69312500Y-26750000D01*
X69715634Y-26750000D01*
X69715649Y-26749999D01*
X69752489Y-26747100D01*
X69752495Y-26747099D01*
X69910193Y-26701283D01*
X69910196Y-26701282D01*
X70051552Y-26617685D01*
X70051561Y-26617678D01*
X70167678Y-26501561D01*
X70167685Y-26501552D01*
X70251281Y-26360198D01*
X70297100Y-26202486D01*
X70297295Y-26200001D01*
X70297295Y-26200000D01*
X69312500Y-26200000D01*
X69312500Y-26750000D01*
X68812500Y-26750000D01*
X68812500Y-26200000D01*
X67827705Y-26200000D01*
X67827704Y-26200001D01*
X66092292Y-26200001D01*
X66097646Y-26184701D01*
X66097646Y-26184699D01*
X66100500Y-26154269D01*
X66100500Y-25745733D01*
X66098599Y-25725467D01*
X66111937Y-25656882D01*
X66160237Y-25606396D01*
X66228165Y-25590038D01*
X66263011Y-25596845D01*
X66264073Y-25597216D01*
X66265301Y-25597646D01*
X66265300Y-25597646D01*
X66295730Y-25600500D01*
X66295734Y-25600500D01*
X67579270Y-25600500D01*
X67599554Y-25598597D01*
X67609699Y-25597646D01*
X67662669Y-25579110D01*
X67732445Y-25575548D01*
X67793073Y-25610276D01*
X67825301Y-25672269D01*
X67826848Y-25699073D01*
X67827705Y-25700000D01*
X68812500Y-25700000D01*
X68812500Y-25150000D01*
X68409350Y-25150000D01*
X68372510Y-25152899D01*
X68372504Y-25152900D01*
X68214806Y-25198716D01*
X68214805Y-25198716D01*
X68162620Y-25229578D01*
X68094896Y-25246759D01*
X68028633Y-25224599D01*
X67984871Y-25170133D01*
X67975500Y-25122845D01*
X67975500Y-24795730D01*
X67972646Y-24765300D01*
X67972646Y-24765298D01*
X67939006Y-24669163D01*
X67927793Y-24637118D01*
X67847150Y-24527850D01*
X67737882Y-24447207D01*
X67737880Y-24447206D01*
X67609701Y-24402353D01*
X67600418Y-24401483D01*
X67535510Y-24375623D01*
X67494887Y-24318776D01*
X67488000Y-24278025D01*
X67488000Y-17429386D01*
X67507685Y-17362347D01*
X67524319Y-17341705D01*
X67829206Y-17036819D01*
X67890529Y-17003334D01*
X67916887Y-17000500D01*
X68393097Y-17000500D01*
X68393102Y-17000500D01*
X68481564Y-16989877D01*
X68622342Y-16934361D01*
X68742922Y-16842922D01*
X68834361Y-16722342D01*
X68884646Y-16594826D01*
X68927551Y-16539685D01*
X68993459Y-16516492D01*
X69061443Y-16532612D01*
X69109920Y-16582929D01*
X69115348Y-16594814D01*
X69150652Y-16684339D01*
X69165639Y-16722343D01*
X69257077Y-16842922D01*
X69312925Y-16885272D01*
X69354448Y-16941464D01*
X69362000Y-16984076D01*
X69362000Y-21100137D01*
X69354334Y-21138679D01*
X69355027Y-21138865D01*
X69352923Y-21146714D01*
X69352923Y-21146716D01*
X69312000Y-21299443D01*
X69312000Y-21457557D01*
X69347491Y-21590009D01*
X69352923Y-21610283D01*
X69352926Y-21610290D01*
X69431975Y-21747209D01*
X69431979Y-21747214D01*
X69431980Y-21747216D01*
X69543784Y-21859020D01*
X69543786Y-21859021D01*
X69543790Y-21859024D01*
X69687754Y-21942141D01*
X69687395Y-21942762D01*
X69720070Y-21964595D01*
X70350681Y-22595206D01*
X70384166Y-22656529D01*
X70387000Y-22682887D01*
X70387000Y-24278025D01*
X70378034Y-24308558D01*
X70370672Y-24339529D01*
X70368258Y-24341851D01*
X70367315Y-24345064D01*
X70343268Y-24365900D01*
X70320327Y-24387978D01*
X70316478Y-24389114D01*
X70314511Y-24390819D01*
X70287028Y-24399675D01*
X70280844Y-24400896D01*
X70265301Y-24402354D01*
X70254720Y-24406056D01*
X70246085Y-24407762D01*
X70219687Y-24405364D01*
X70193221Y-24406712D01*
X70185437Y-24402252D01*
X70176502Y-24401441D01*
X70155592Y-24385153D01*
X70132597Y-24371978D01*
X70128459Y-24364017D01*
X70121382Y-24358504D01*
X70112598Y-24333497D01*
X70100376Y-24309981D01*
X70099716Y-24296826D01*
X70098226Y-24292583D01*
X70099281Y-24288143D01*
X70098599Y-24274534D01*
X70100500Y-24254266D01*
X70100500Y-23845734D01*
X70097646Y-23815301D01*
X70097646Y-23815300D01*
X70097646Y-23815298D01*
X70052793Y-23687119D01*
X70052792Y-23687117D01*
X70052263Y-23686400D01*
X69972150Y-23577850D01*
X69862882Y-23497207D01*
X69862879Y-23497206D01*
X69733059Y-23451779D01*
X69676284Y-23411057D01*
X69650537Y-23346104D01*
X69654241Y-23302645D01*
X69663000Y-23269957D01*
X69663000Y-23111843D01*
X69622077Y-22959116D01*
X69602092Y-22924500D01*
X69543024Y-22822190D01*
X69543018Y-22822182D01*
X69431217Y-22710381D01*
X69431209Y-22710375D01*
X69294290Y-22631326D01*
X69294286Y-22631324D01*
X69294284Y-22631323D01*
X69141557Y-22590400D01*
X68983443Y-22590400D01*
X68830716Y-22631323D01*
X68830709Y-22631326D01*
X68693790Y-22710375D01*
X68693782Y-22710381D01*
X68581981Y-22822182D01*
X68581975Y-22822190D01*
X68502926Y-22959109D01*
X68502924Y-22959113D01*
X68502923Y-22959116D01*
X68462000Y-23111843D01*
X68462000Y-23269957D01*
X68470065Y-23300057D01*
X68470759Y-23302645D01*
X68469096Y-23372495D01*
X68429933Y-23430357D01*
X68391940Y-23451779D01*
X68262117Y-23497207D01*
X68152850Y-23577850D01*
X68072207Y-23687117D01*
X68072206Y-23687119D01*
X68027353Y-23815298D01*
X68027353Y-23815300D01*
X68024500Y-23845730D01*
X68024500Y-24254269D01*
X68027353Y-24284699D01*
X68027353Y-24284701D01*
X68069086Y-24403964D01*
X68072207Y-24412882D01*
X68152850Y-24522150D01*
X68262118Y-24602793D01*
X68275453Y-24607459D01*
X68390299Y-24647646D01*
X68420730Y-24650500D01*
X68420734Y-24650500D01*
X69704270Y-24650500D01*
X69734699Y-24647646D01*
X69736984Y-24646847D01*
X69738779Y-24646755D01*
X69742073Y-24646036D01*
X69742192Y-24646580D01*
X69806763Y-24643283D01*
X69867391Y-24678010D01*
X69899620Y-24740003D01*
X69901401Y-24775462D01*
X69899501Y-24795730D01*
X69899500Y-24795738D01*
X69899500Y-25031051D01*
X69879815Y-25098090D01*
X69827011Y-25143845D01*
X69757853Y-25153789D01*
X69753220Y-25153033D01*
X69752491Y-25152899D01*
X69715649Y-25150000D01*
X69312500Y-25150000D01*
X69312500Y-25700000D01*
X70297295Y-25700000D01*
X70310087Y-25686161D01*
X70314355Y-25665848D01*
X70363409Y-25616093D01*
X70423607Y-25600500D01*
X71579270Y-25600500D01*
X71609699Y-25597646D01*
X71609701Y-25597646D01*
X71673790Y-25575219D01*
X71737882Y-25552793D01*
X71847150Y-25472150D01*
X71927793Y-25362882D01*
X71951481Y-25295185D01*
X71972646Y-25234701D01*
X71972646Y-25234699D01*
X71975500Y-25204269D01*
X71975500Y-24795730D01*
X71972646Y-24765300D01*
X71972646Y-24765298D01*
X71939006Y-24669163D01*
X71927793Y-24637118D01*
X71847150Y-24527850D01*
X71737882Y-24447207D01*
X71737880Y-24447206D01*
X71609701Y-24402353D01*
X71600418Y-24401483D01*
X71535510Y-24375623D01*
X71494887Y-24318776D01*
X71488000Y-24278025D01*
X71488000Y-22331027D01*
X71488000Y-22331025D01*
X71450484Y-22191015D01*
X71425636Y-22147977D01*
X71378010Y-22065485D01*
X70499319Y-21186794D01*
X70465834Y-21125471D01*
X70463000Y-21099113D01*
X70463000Y-16984076D01*
X70482685Y-16917037D01*
X70512075Y-16885272D01*
X70520804Y-16878653D01*
X70567922Y-16842922D01*
X70659361Y-16722342D01*
X70714877Y-16581564D01*
X70725500Y-16493102D01*
X70725500Y-15506898D01*
X70714877Y-15418436D01*
X70659361Y-15277658D01*
X70659360Y-15277657D01*
X70659360Y-15277656D01*
X70567922Y-15157077D01*
X70447343Y-15065639D01*
X70351192Y-15027722D01*
X70306564Y-15010123D01*
X70306563Y-15010122D01*
X70306561Y-15010122D01*
X70260926Y-15004642D01*
X70218102Y-14999500D01*
X69606898Y-14999500D01*
X69567853Y-15004188D01*
X69518438Y-15010122D01*
X69377656Y-15065639D01*
X69257077Y-15157077D01*
X69165639Y-15277656D01*
X69135665Y-15353663D01*
X69115353Y-15405171D01*
X69072449Y-15460314D01*
X69006541Y-15483507D01*
X68938556Y-15467386D01*
X68890080Y-15417070D01*
X68884648Y-15405178D01*
X68834361Y-15277658D01*
X68834360Y-15277657D01*
X68834360Y-15277656D01*
X68742922Y-15157077D01*
X68622343Y-15065639D01*
X68526192Y-15027722D01*
X68481564Y-15010123D01*
X68481563Y-15010122D01*
X68481561Y-15010122D01*
X68435926Y-15004642D01*
X68393102Y-14999500D01*
X67781898Y-14999500D01*
X67742853Y-15004188D01*
X67693438Y-15010122D01*
X67552656Y-15065639D01*
X67432077Y-15157077D01*
X67340639Y-15277656D01*
X67285122Y-15418438D01*
X67280094Y-15460314D01*
X67274500Y-15506898D01*
X67274500Y-15506903D01*
X67274500Y-15983112D01*
X67254815Y-16050151D01*
X67238181Y-16070793D01*
X66937181Y-16371793D01*
X66875858Y-16405278D01*
X66806166Y-16400294D01*
X66750233Y-16358422D01*
X66725816Y-16292958D01*
X66725500Y-16284112D01*
X66725500Y-15506903D01*
X66725500Y-15506898D01*
X66714877Y-15418436D01*
X66659361Y-15277658D01*
X66659360Y-15277657D01*
X66659360Y-15277656D01*
X66567922Y-15157077D01*
X66447343Y-15065639D01*
X66351192Y-15027722D01*
X66306564Y-15010123D01*
X66306563Y-15010122D01*
X66306561Y-15010122D01*
X66260926Y-15004642D01*
X66218102Y-14999500D01*
X65606898Y-14999500D01*
X65567853Y-15004188D01*
X65518438Y-15010122D01*
X65377656Y-15065639D01*
X65257077Y-15157077D01*
X65165639Y-15277656D01*
X65135665Y-15353663D01*
X65115353Y-15405171D01*
X65072449Y-15460314D01*
X65006541Y-15483507D01*
X64938556Y-15467386D01*
X64890080Y-15417070D01*
X64884648Y-15405178D01*
X64834361Y-15277658D01*
X64834360Y-15277657D01*
X64834360Y-15277656D01*
X64742922Y-15157077D01*
X64622343Y-15065639D01*
X64526192Y-15027722D01*
X64481564Y-15010123D01*
X64481563Y-15010122D01*
X64481561Y-15010122D01*
X64435926Y-15004642D01*
X64393102Y-14999500D01*
X63781898Y-14999500D01*
X63742853Y-15004188D01*
X63693438Y-15010122D01*
X63552656Y-15065639D01*
X63432077Y-15157077D01*
X63340639Y-15277656D01*
X63285122Y-15418438D01*
X63280094Y-15460314D01*
X63274500Y-15506898D01*
X63274500Y-16493102D01*
X63277309Y-16516492D01*
X63285122Y-16581561D01*
X63340639Y-16722343D01*
X63432077Y-16842922D01*
X63487925Y-16885272D01*
X63529448Y-16941464D01*
X63537000Y-16984076D01*
X63537000Y-17132875D01*
X63554180Y-17196990D01*
X63574516Y-17272885D01*
X63635217Y-17378024D01*
X63646989Y-17398413D01*
X63646991Y-17398416D01*
X63657205Y-17408630D01*
X63679037Y-17441305D01*
X63679659Y-17440946D01*
X63762777Y-17584912D01*
X63762779Y-17584915D01*
X63762780Y-17584916D01*
X63874584Y-17696720D01*
X63874586Y-17696721D01*
X63874590Y-17696724D01*
X63997306Y-17767573D01*
X64011516Y-17775777D01*
X64164243Y-17816700D01*
X64164245Y-17816700D01*
X64322355Y-17816700D01*
X64322357Y-17816700D01*
X64475084Y-17775777D01*
X64612016Y-17696720D01*
X64723820Y-17584916D01*
X64802877Y-17447984D01*
X64843800Y-17295257D01*
X64843800Y-17137143D01*
X64802877Y-16984416D01*
X64771752Y-16930506D01*
X64755280Y-16862608D01*
X64778132Y-16796581D01*
X64780287Y-16793648D01*
X64834361Y-16722342D01*
X64884646Y-16594826D01*
X64927551Y-16539685D01*
X64993459Y-16516492D01*
X65061443Y-16532612D01*
X65109920Y-16582929D01*
X65115348Y-16594814D01*
X65150652Y-16684339D01*
X65165639Y-16722343D01*
X65257077Y-16842922D01*
X65312925Y-16885272D01*
X65354448Y-16941464D01*
X65362000Y-16984076D01*
X65362000Y-20199469D01*
X65342315Y-20266508D01*
X65289511Y-20312263D01*
X65220353Y-20322207D01*
X65205908Y-20319244D01*
X65140058Y-20301600D01*
X65140057Y-20301600D01*
X64981943Y-20301600D01*
X64829216Y-20342523D01*
X64829214Y-20342523D01*
X64821365Y-20344627D01*
X64821179Y-20343934D01*
X64782637Y-20351600D01*
X63093987Y-20351600D01*
X63026948Y-20331915D01*
X63006306Y-20315281D01*
X62761819Y-20070794D01*
X62728334Y-20009471D01*
X62725500Y-19983113D01*
X62725500Y-19506903D01*
X62725500Y-19506898D01*
X62714877Y-19418436D01*
X62659361Y-19277658D01*
X62659360Y-19277657D01*
X62659360Y-19277656D01*
X62567922Y-19157077D01*
X62447343Y-19065639D01*
X62346064Y-19025700D01*
X62306564Y-19010123D01*
X62306563Y-19010122D01*
X62306561Y-19010122D01*
X62260926Y-19004642D01*
X62218102Y-18999500D01*
X61606898Y-18999500D01*
X61567853Y-19004188D01*
X61518438Y-19010122D01*
X61377656Y-19065639D01*
X61257077Y-19157077D01*
X61165639Y-19277656D01*
X61135665Y-19353663D01*
X61115353Y-19405171D01*
X61072449Y-19460314D01*
X61006541Y-19483507D01*
X60938556Y-19467386D01*
X60890080Y-19417070D01*
X60884648Y-19405178D01*
X60834361Y-19277658D01*
X60834360Y-19277657D01*
X60834360Y-19277656D01*
X60742925Y-19157082D01*
X60742923Y-19157079D01*
X60742920Y-19157077D01*
X60687072Y-19114725D01*
X60645551Y-19058533D01*
X60638000Y-19015923D01*
X60638000Y-16984076D01*
X60657685Y-16917037D01*
X60687075Y-16885272D01*
X60695804Y-16878653D01*
X60742922Y-16842922D01*
X60834361Y-16722342D01*
X60884646Y-16594826D01*
X60927551Y-16539685D01*
X60993459Y-16516492D01*
X61061443Y-16532612D01*
X61109920Y-16582929D01*
X61115348Y-16594814D01*
X61150652Y-16684339D01*
X61165639Y-16722343D01*
X61257077Y-16842922D01*
X61299995Y-16875467D01*
X61341518Y-16931659D01*
X61346070Y-17001380D01*
X61344846Y-17006358D01*
X61312000Y-17128943D01*
X61312000Y-17287057D01*
X61344576Y-17408630D01*
X61352923Y-17439783D01*
X61352926Y-17439790D01*
X61431975Y-17576709D01*
X61431979Y-17576714D01*
X61431980Y-17576716D01*
X61543784Y-17688520D01*
X61543786Y-17688521D01*
X61543790Y-17688524D01*
X61680709Y-17767573D01*
X61680716Y-17767577D01*
X61833443Y-17808500D01*
X61833445Y-17808500D01*
X61991555Y-17808500D01*
X61991557Y-17808500D01*
X62144284Y-17767577D01*
X62281216Y-17688520D01*
X62393020Y-17576716D01*
X62472077Y-17439784D01*
X62513000Y-17287057D01*
X62513000Y-17128943D01*
X62480154Y-17006360D01*
X62481817Y-16936515D01*
X62520979Y-16878653D01*
X62524973Y-16875490D01*
X62567922Y-16842922D01*
X62659361Y-16722342D01*
X62714877Y-16581564D01*
X62725500Y-16493102D01*
X62725500Y-15506898D01*
X62714877Y-15418436D01*
X62659361Y-15277658D01*
X62659360Y-15277657D01*
X62659360Y-15277656D01*
X62567922Y-15157077D01*
X62447343Y-15065639D01*
X62351192Y-15027722D01*
X62306564Y-15010123D01*
X62306563Y-15010122D01*
X62306561Y-15010122D01*
X62260926Y-15004642D01*
X62218102Y-14999500D01*
X61606898Y-14999500D01*
X61567853Y-15004188D01*
X61518438Y-15010122D01*
X61377656Y-15065639D01*
X61257077Y-15157077D01*
X61165639Y-15277656D01*
X61135665Y-15353663D01*
X61115353Y-15405171D01*
X61072449Y-15460314D01*
X61006541Y-15483507D01*
X60938556Y-15467386D01*
X60890080Y-15417070D01*
X60884648Y-15405178D01*
X60834361Y-15277658D01*
X60834360Y-15277657D01*
X60834360Y-15277656D01*
X60742922Y-15157077D01*
X60622343Y-15065639D01*
X60526192Y-15027722D01*
X60481564Y-15010123D01*
X60481563Y-15010122D01*
X60481561Y-15010122D01*
X60435926Y-15004642D01*
X60393102Y-14999500D01*
X59781898Y-14999500D01*
X59742853Y-15004188D01*
X59693438Y-15010122D01*
X59552656Y-15065639D01*
X59432077Y-15157077D01*
X59340639Y-15277656D01*
X59285122Y-15418438D01*
X59280094Y-15460314D01*
X59274500Y-15506898D01*
X59274500Y-16493102D01*
X59277309Y-16516492D01*
X59285122Y-16581561D01*
X59340639Y-16722343D01*
X59432077Y-16842922D01*
X59487925Y-16885272D01*
X59529448Y-16941464D01*
X59537000Y-16984076D01*
X59537000Y-19015923D01*
X59517315Y-19082962D01*
X59487927Y-19114726D01*
X59432076Y-19157079D01*
X59432074Y-19157082D01*
X59340639Y-19277656D01*
X59285122Y-19418438D01*
X59281309Y-19450198D01*
X59274500Y-19506898D01*
X59274500Y-19506903D01*
X59274500Y-19794200D01*
X59254815Y-19861239D01*
X59202011Y-19906994D01*
X59150500Y-19918200D01*
X57459642Y-19918200D01*
X57392603Y-19898515D01*
X57346848Y-19845711D01*
X57336904Y-19776553D01*
X57339867Y-19762107D01*
X57344591Y-19744477D01*
X57355100Y-19705257D01*
X57355100Y-19547143D01*
X57314177Y-19394416D01*
X57301155Y-19371861D01*
X57235124Y-19257490D01*
X57235118Y-19257482D01*
X57123317Y-19145681D01*
X57123309Y-19145675D01*
X56986390Y-19066626D01*
X56986386Y-19066624D01*
X56986384Y-19066623D01*
X56833657Y-19025700D01*
X56675543Y-19025700D01*
X56522816Y-19066623D01*
X56522814Y-19066623D01*
X56514965Y-19068727D01*
X56514779Y-19068034D01*
X56476237Y-19075700D01*
X46830587Y-19075700D01*
X46801146Y-19067055D01*
X46771160Y-19060532D01*
X46766144Y-19056777D01*
X46763548Y-19056015D01*
X46742906Y-19039381D01*
X46711819Y-19008294D01*
X46678334Y-18946971D01*
X46675500Y-18920613D01*
X46675500Y-18219403D01*
X46675500Y-18219398D01*
X46664877Y-18130936D01*
X46609361Y-17990158D01*
X46609360Y-17990157D01*
X46609360Y-17990156D01*
X46517922Y-17869577D01*
X46397343Y-17778139D01*
X46256561Y-17722622D01*
X46197646Y-17715547D01*
X46168102Y-17712000D01*
X46168099Y-17712000D01*
X46168091Y-17711999D01*
X46167084Y-17711939D01*
X46166831Y-17711848D01*
X46164424Y-17711559D01*
X46164490Y-17711005D01*
X46101342Y-17688281D01*
X46058827Y-17632835D01*
X46050500Y-17588161D01*
X46050500Y-15961872D01*
X46070185Y-15894833D01*
X46105606Y-15858772D01*
X46169655Y-15815977D01*
X46315977Y-15669655D01*
X46430941Y-15497598D01*
X46510130Y-15306420D01*
X46550500Y-15103465D01*
X46550500Y-14896535D01*
X46510130Y-14693580D01*
X46430941Y-14502402D01*
X46315977Y-14330345D01*
X46315975Y-14330342D01*
X46169657Y-14184024D01*
X45997605Y-14069064D01*
X45997598Y-14069059D01*
X45884910Y-14022382D01*
X45806420Y-13989870D01*
X45806412Y-13989868D01*
X45603469Y-13949500D01*
X45603465Y-13949500D01*
X45396535Y-13949500D01*
X45396530Y-13949500D01*
X45193587Y-13989868D01*
X45193579Y-13989870D01*
X45002403Y-14069058D01*
X44830342Y-14184024D01*
X44684024Y-14330342D01*
X44569058Y-14502403D01*
X44489870Y-14693579D01*
X44489868Y-14693587D01*
X44449500Y-14896530D01*
X44449500Y-15103469D01*
X44489868Y-15306412D01*
X44489870Y-15306420D01*
X44555432Y-15464701D01*
X44569059Y-15497598D01*
X44581768Y-15516618D01*
X44684024Y-15669657D01*
X44830339Y-15815972D01*
X44830342Y-15815974D01*
X44830345Y-15815977D01*
X44894392Y-15858771D01*
X44939195Y-15912381D01*
X44949500Y-15961872D01*
X44949500Y-17588161D01*
X44929815Y-17655200D01*
X44877011Y-17700955D01*
X44835543Y-17711284D01*
X44835576Y-17711559D01*
X44833385Y-17711822D01*
X44832916Y-17711939D01*
X44831908Y-17711999D01*
X44831900Y-17712000D01*
X44831898Y-17712000D01*
X44813411Y-17714220D01*
X44743438Y-17722622D01*
X44602656Y-17778139D01*
X44482077Y-17869577D01*
X44390639Y-17990156D01*
X44335122Y-18130938D01*
X44329253Y-18179815D01*
X44324500Y-18219398D01*
X44324500Y-18930602D01*
X44325907Y-18942315D01*
X44335122Y-19019061D01*
X44335122Y-19019063D01*
X44335123Y-19019064D01*
X44344404Y-19042598D01*
X44390639Y-19159843D01*
X44482077Y-19280422D01*
X44602656Y-19371860D01*
X44602657Y-19371860D01*
X44602658Y-19371861D01*
X44743436Y-19427377D01*
X44831898Y-19438000D01*
X45533113Y-19438000D01*
X45600152Y-19457685D01*
X45620794Y-19474319D01*
X45852994Y-19706519D01*
X45886479Y-19767842D01*
X45881495Y-19837534D01*
X45839623Y-19893467D01*
X45774159Y-19917884D01*
X45765313Y-19918200D01*
X43122925Y-19918200D01*
X43017917Y-19946337D01*
X42982914Y-19955716D01*
X42857386Y-20028189D01*
X42857383Y-20028191D01*
X39688296Y-23197277D01*
X39626973Y-23230762D01*
X39557281Y-23225778D01*
X39501348Y-23183906D01*
X39493228Y-23171596D01*
X39455522Y-23106287D01*
X39455518Y-23106282D01*
X39343717Y-22994481D01*
X39343709Y-22994475D01*
X39206790Y-22915426D01*
X39206786Y-22915424D01*
X39206784Y-22915423D01*
X39054057Y-22874500D01*
X38895943Y-22874500D01*
X38743216Y-22915423D01*
X38743214Y-22915423D01*
X38735365Y-22917527D01*
X38735179Y-22916834D01*
X38696637Y-22924500D01*
X38652525Y-22924500D01*
X38523340Y-22959114D01*
X38523341Y-22959115D01*
X38512516Y-22962015D01*
X38512514Y-22962016D01*
X38386986Y-23034489D01*
X38386983Y-23034491D01*
X38033294Y-23388181D01*
X37971971Y-23421666D01*
X37945613Y-23424500D01*
X37902525Y-23424500D01*
X37809225Y-23449500D01*
X37762514Y-23462016D01*
X37636986Y-23534489D01*
X37636983Y-23534491D01*
X36033294Y-25138181D01*
X35971971Y-25171666D01*
X35945613Y-25174500D01*
X35797475Y-25174500D01*
X35547475Y-25174500D01*
X35297475Y-25174500D01*
X35041940Y-25174500D01*
X35036573Y-25173175D01*
X34969574Y-25174500D01*
X34902519Y-25174500D01*
X34897486Y-25175162D01*
X34897377Y-25175170D01*
X34896689Y-25175274D01*
X34896678Y-25175277D01*
X34891651Y-25176040D01*
X34828432Y-25194327D01*
X34826073Y-25194984D01*
X34766028Y-25211074D01*
X34733933Y-25215300D01*
X34582043Y-25215300D01*
X34429316Y-25256223D01*
X34429314Y-25256223D01*
X34421465Y-25258327D01*
X34421279Y-25257634D01*
X34382737Y-25265300D01*
X31111725Y-25265300D01*
X31040464Y-25284394D01*
X30975567Y-25301783D01*
X30975566Y-25301784D01*
X30972167Y-25302694D01*
X30971711Y-25302817D01*
X30846188Y-25375287D01*
X30846183Y-25375291D01*
X30437681Y-25783794D01*
X30376358Y-25817279D01*
X30306666Y-25812295D01*
X30262319Y-25783794D01*
X24038016Y-19559491D01*
X24038015Y-19559490D01*
X23912485Y-19487016D01*
X23912486Y-19487016D01*
X23869574Y-19475518D01*
X23772475Y-19449500D01*
X23772472Y-19449500D01*
X22999597Y-19449500D01*
X22932558Y-19429815D01*
X22900793Y-19400425D01*
X22867922Y-19357077D01*
X22740584Y-19260514D01*
X22741970Y-19258685D01*
X22701679Y-19217372D01*
X22687683Y-19148919D01*
X22712918Y-19083765D01*
X22769372Y-19042598D01*
X22772245Y-19041606D01*
X22794122Y-19034356D01*
X22794124Y-19034356D01*
X22943345Y-18942315D01*
X23067315Y-18818345D01*
X23159356Y-18669124D01*
X23159358Y-18669119D01*
X23214505Y-18502697D01*
X23214506Y-18502690D01*
X23224999Y-18399986D01*
X23225000Y-18399973D01*
X23225000Y-18350000D01*
X20775001Y-18350000D01*
X20775001Y-18399986D01*
X20785494Y-18502697D01*
X20840641Y-18669119D01*
X20840643Y-18669124D01*
X20932684Y-18818345D01*
X21056654Y-18942315D01*
X21205876Y-19034356D01*
X21227755Y-19041606D01*
X21285201Y-19081378D01*
X21312025Y-19145893D01*
X21299711Y-19214669D01*
X21258393Y-19259166D01*
X21259416Y-19260514D01*
X21132077Y-19357077D01*
X21040639Y-19477656D01*
X20985122Y-19618438D01*
X20979188Y-19667853D01*
X20974500Y-19706898D01*
X20974500Y-19706903D01*
X20974500Y-19825500D01*
X20954815Y-19892539D01*
X20902011Y-19938294D01*
X20850500Y-19949500D01*
X17231472Y-19949500D01*
X17164433Y-19929815D01*
X17132668Y-19900425D01*
X17042922Y-19782077D01*
X16922343Y-19690639D01*
X16795199Y-19640500D01*
X16781564Y-19635123D01*
X16781563Y-19635122D01*
X16781561Y-19635122D01*
X16735926Y-19629642D01*
X16693102Y-19624500D01*
X15306898Y-19624500D01*
X15267853Y-19629188D01*
X15218438Y-19635122D01*
X15077656Y-19690639D01*
X14957077Y-19782077D01*
X14867332Y-19900425D01*
X14811139Y-19941949D01*
X14768528Y-19949500D01*
X13531707Y-19949500D01*
X13495966Y-19942391D01*
X13495635Y-19943627D01*
X13487785Y-19941523D01*
X13487784Y-19941523D01*
X13335057Y-19900600D01*
X13176943Y-19900600D01*
X13176941Y-19900600D01*
X13139371Y-19910667D01*
X13069521Y-19909004D01*
X13019598Y-19878573D01*
X11211819Y-18070794D01*
X11197115Y-18043866D01*
X11180523Y-18018048D01*
X11179631Y-18011847D01*
X11178334Y-18009471D01*
X11175500Y-17983113D01*
X11175500Y-17924986D01*
X14600001Y-17924986D01*
X14610494Y-18027697D01*
X14665641Y-18194119D01*
X14665643Y-18194124D01*
X14757684Y-18343345D01*
X14881654Y-18467315D01*
X15030875Y-18559356D01*
X15030880Y-18559358D01*
X15197302Y-18614505D01*
X15197309Y-18614506D01*
X15300019Y-18624999D01*
X15749999Y-18624999D01*
X16250000Y-18624999D01*
X16699972Y-18624999D01*
X16699986Y-18624998D01*
X16802697Y-18614505D01*
X16969119Y-18559358D01*
X16969124Y-18559356D01*
X17118345Y-18467315D01*
X17242315Y-18343345D01*
X17334356Y-18194124D01*
X17334358Y-18194119D01*
X17389505Y-18027697D01*
X17389506Y-18027690D01*
X17399999Y-17924986D01*
X17400000Y-17924973D01*
X17400000Y-17800013D01*
X20775000Y-17800013D01*
X20775000Y-17850000D01*
X21750000Y-17850000D01*
X22250000Y-17850000D01*
X23224999Y-17850000D01*
X23224999Y-17800028D01*
X23224998Y-17800013D01*
X23214505Y-17697302D01*
X23159358Y-17530880D01*
X23159356Y-17530875D01*
X23067315Y-17381654D01*
X22943345Y-17257684D01*
X22794124Y-17165643D01*
X22794119Y-17165641D01*
X22627697Y-17110494D01*
X22627690Y-17110493D01*
X22524986Y-17100000D01*
X22250000Y-17100000D01*
X22250000Y-17850000D01*
X21750000Y-17850000D01*
X21750000Y-17100000D01*
X21475029Y-17100000D01*
X21475012Y-17100001D01*
X21372302Y-17110494D01*
X21205880Y-17165641D01*
X21205875Y-17165643D01*
X21056654Y-17257684D01*
X20932684Y-17381654D01*
X20840643Y-17530875D01*
X20840641Y-17530880D01*
X20785494Y-17697302D01*
X20785493Y-17697309D01*
X20775000Y-17800013D01*
X17400000Y-17800013D01*
X17400000Y-17800000D01*
X16250000Y-17800000D01*
X16250000Y-18624999D01*
X15749999Y-18624999D01*
X15750000Y-18624998D01*
X15750000Y-17800000D01*
X14600001Y-17800000D01*
X14600001Y-17924986D01*
X11175500Y-17924986D01*
X11175500Y-17281903D01*
X11175500Y-17281898D01*
X11164877Y-17193436D01*
X11157612Y-17175013D01*
X14600000Y-17175013D01*
X14600000Y-17300000D01*
X15750000Y-17300000D01*
X16250000Y-17300000D01*
X17399999Y-17300000D01*
X17399999Y-17175028D01*
X17399998Y-17175013D01*
X17389505Y-17072302D01*
X17334358Y-16905880D01*
X17334356Y-16905875D01*
X17251012Y-16770753D01*
X17251011Y-16770751D01*
X17242317Y-16756656D01*
X17235662Y-16750001D01*
X29077704Y-16750001D01*
X29077899Y-16752486D01*
X29123718Y-16910198D01*
X29207314Y-17051552D01*
X29207321Y-17051561D01*
X29323438Y-17167678D01*
X29323444Y-17167682D01*
X29327415Y-17170031D01*
X29375100Y-17221099D01*
X29387606Y-17289840D01*
X29364068Y-17350398D01*
X29322207Y-17407118D01*
X29322206Y-17407119D01*
X29277353Y-17535298D01*
X29277353Y-17535300D01*
X29274500Y-17565730D01*
X29274500Y-17974269D01*
X29277353Y-18004699D01*
X29277353Y-18004701D01*
X29322206Y-18132880D01*
X29322207Y-18132882D01*
X29402850Y-18242150D01*
X29453301Y-18279384D01*
X29488321Y-18305230D01*
X29530571Y-18360877D01*
X29536030Y-18430534D01*
X29502962Y-18492083D01*
X29488321Y-18504769D01*
X29456683Y-18528120D01*
X29402850Y-18567850D01*
X29322207Y-18677117D01*
X29322206Y-18677119D01*
X29277353Y-18805298D01*
X29277353Y-18805300D01*
X29274500Y-18835730D01*
X29274500Y-19244269D01*
X29277353Y-19274699D01*
X29277353Y-19274701D01*
X29321347Y-19400425D01*
X29322207Y-19402882D01*
X29402850Y-19512150D01*
X29512118Y-19592793D01*
X29554845Y-19607744D01*
X29640299Y-19637646D01*
X29670730Y-19640500D01*
X29670734Y-19640500D01*
X31429270Y-19640500D01*
X31459699Y-19637646D01*
X31459701Y-19637646D01*
X31540690Y-19609306D01*
X31587882Y-19592793D01*
X31619131Y-19569729D01*
X31639545Y-19562273D01*
X31657830Y-19550523D01*
X31680732Y-19547230D01*
X31684760Y-19545759D01*
X31692765Y-19545500D01*
X31762237Y-19545500D01*
X31800779Y-19553165D01*
X31800965Y-19552473D01*
X31808814Y-19554576D01*
X31808816Y-19554577D01*
X31961543Y-19595500D01*
X31961545Y-19595500D01*
X32119655Y-19595500D01*
X32119657Y-19595500D01*
X32272384Y-19554577D01*
X32409316Y-19475520D01*
X32521120Y-19363716D01*
X32563679Y-19290001D01*
X34027704Y-19290001D01*
X34027899Y-19292486D01*
X34073718Y-19450198D01*
X34157314Y-19591552D01*
X34157321Y-19591561D01*
X34273438Y-19707678D01*
X34273447Y-19707685D01*
X34414803Y-19791282D01*
X34414806Y-19791283D01*
X34572504Y-19837099D01*
X34572510Y-19837100D01*
X34609350Y-19839999D01*
X34609366Y-19840000D01*
X35250000Y-19840000D01*
X35250000Y-19290000D01*
X34027705Y-19290000D01*
X34027704Y-19290001D01*
X32563679Y-19290001D01*
X32600177Y-19226784D01*
X32641100Y-19074057D01*
X32641100Y-18915943D01*
X32600177Y-18763216D01*
X32537702Y-18655006D01*
X32521230Y-18587106D01*
X32544083Y-18521080D01*
X32557398Y-18505337D01*
X32646420Y-18416316D01*
X32725477Y-18279384D01*
X32766400Y-18126657D01*
X32766400Y-17968543D01*
X32725477Y-17815816D01*
X32714557Y-17796902D01*
X32646424Y-17678890D01*
X32646418Y-17678882D01*
X32534617Y-17567081D01*
X32534612Y-17567077D01*
X32390646Y-17483959D01*
X32391005Y-17483337D01*
X32358330Y-17461505D01*
X32226316Y-17329491D01*
X32226315Y-17329490D01*
X32100785Y-17257016D01*
X31974056Y-17223058D01*
X31914397Y-17186693D01*
X31883869Y-17123846D01*
X31892164Y-17054470D01*
X31899420Y-17040162D01*
X31976282Y-16910196D01*
X32022100Y-16752486D01*
X32022295Y-16750001D01*
X32022295Y-16750000D01*
X29077705Y-16750000D01*
X29077704Y-16750001D01*
X17235662Y-16750001D01*
X17118345Y-16632684D01*
X16969124Y-16540643D01*
X16969119Y-16540641D01*
X16802697Y-16485494D01*
X16802690Y-16485493D01*
X16699986Y-16475000D01*
X16250000Y-16475000D01*
X16250000Y-17300000D01*
X15750000Y-17300000D01*
X15750000Y-16475000D01*
X15300028Y-16475000D01*
X15300012Y-16475001D01*
X15197302Y-16485494D01*
X15030880Y-16540641D01*
X15030875Y-16540643D01*
X14881654Y-16632684D01*
X14757684Y-16756654D01*
X14665643Y-16905875D01*
X14665641Y-16905880D01*
X14610494Y-17072302D01*
X14610493Y-17072309D01*
X14600000Y-17175013D01*
X11157612Y-17175013D01*
X11137662Y-17124424D01*
X11137163Y-17123065D01*
X11134940Y-17089609D01*
X11131927Y-17056227D01*
X11132633Y-17054874D01*
X11132532Y-17053349D01*
X11148754Y-17023995D01*
X11164263Y-16994290D01*
X11165827Y-16992696D01*
X18431706Y-9726819D01*
X18493029Y-9693334D01*
X18519387Y-9690500D01*
X19483097Y-9690500D01*
X19483102Y-9690500D01*
X19571564Y-9679877D01*
X19712342Y-9624361D01*
X19832922Y-9532922D01*
X19924361Y-9412342D01*
X19979877Y-9271564D01*
X19990500Y-9183102D01*
X19990500Y-8697131D01*
X20010185Y-8630092D01*
X20062989Y-8584337D01*
X20132147Y-8574393D01*
X20195703Y-8603418D01*
X20233477Y-8662196D01*
X20236973Y-8677733D01*
X20257829Y-8809410D01*
X20313787Y-8981636D01*
X20313788Y-8981639D01*
X20396006Y-9142997D01*
X20502441Y-9289494D01*
X20502445Y-9289499D01*
X20630500Y-9417554D01*
X20630505Y-9417558D01*
X20726326Y-9487175D01*
X20777006Y-9523996D01*
X20882484Y-9577740D01*
X20938360Y-9606211D01*
X20938363Y-9606212D01*
X21024476Y-9634191D01*
X21110591Y-9662171D01*
X21193429Y-9675291D01*
X21289449Y-9690500D01*
X21289454Y-9690500D01*
X21470550Y-9690500D01*
X21563390Y-9675794D01*
X21649409Y-9662171D01*
X21649412Y-9662169D01*
X21651091Y-9661904D01*
X21720385Y-9670858D01*
X21758171Y-9696696D01*
X26401385Y-14339910D01*
X26526915Y-14412384D01*
X26666925Y-14449900D01*
X29443277Y-14449900D01*
X29510316Y-14469585D01*
X29556071Y-14522389D01*
X29566015Y-14591547D01*
X29536990Y-14655103D01*
X29516910Y-14673670D01*
X29402851Y-14757848D01*
X29322207Y-14867117D01*
X29322206Y-14867119D01*
X29277353Y-14995298D01*
X29277353Y-14995300D01*
X29274500Y-15025730D01*
X29274500Y-15434269D01*
X29277353Y-15464699D01*
X29277353Y-15464701D01*
X29322206Y-15592880D01*
X29322207Y-15592882D01*
X29364067Y-15649600D01*
X29388038Y-15715229D01*
X29372723Y-15783400D01*
X29327422Y-15829964D01*
X29323446Y-15832315D01*
X29323438Y-15832321D01*
X29207321Y-15948438D01*
X29207314Y-15948447D01*
X29123718Y-16089801D01*
X29077899Y-16247513D01*
X29077704Y-16249998D01*
X29077705Y-16250000D01*
X31334102Y-16250000D01*
X31401141Y-16269685D01*
X31421783Y-16286319D01*
X31463384Y-16327920D01*
X31463386Y-16327921D01*
X31463390Y-16327924D01*
X31597373Y-16405278D01*
X31600316Y-16406977D01*
X31753043Y-16447900D01*
X31753045Y-16447900D01*
X31911155Y-16447900D01*
X31911157Y-16447900D01*
X32063884Y-16406977D01*
X32200816Y-16327920D01*
X32312620Y-16216116D01*
X32349340Y-16152513D01*
X32367434Y-16135260D01*
X32382417Y-16115247D01*
X32392283Y-16111566D01*
X32399906Y-16104299D01*
X32424456Y-16099566D01*
X32447881Y-16090830D01*
X32458170Y-16093068D01*
X32468513Y-16091075D01*
X32491725Y-16100367D01*
X32516154Y-16105682D01*
X32528976Y-16115280D01*
X32533378Y-16117043D01*
X32544408Y-16126833D01*
X32650300Y-16232725D01*
X32682393Y-16288311D01*
X32695001Y-16335365D01*
X32695012Y-16335402D01*
X32698114Y-16346982D01*
X32698116Y-16346985D01*
X32747785Y-16433016D01*
X32770589Y-16472513D01*
X32770591Y-16472516D01*
X34188211Y-17890136D01*
X34221696Y-17951459D01*
X34224394Y-17972009D01*
X34224500Y-17974270D01*
X34227353Y-18004699D01*
X34227353Y-18004701D01*
X34272206Y-18132880D01*
X34272207Y-18132882D01*
X34309951Y-18184024D01*
X34314067Y-18189600D01*
X34338038Y-18255229D01*
X34322723Y-18323400D01*
X34277422Y-18369964D01*
X34273446Y-18372315D01*
X34273438Y-18372321D01*
X34157321Y-18488438D01*
X34157314Y-18488447D01*
X34073718Y-18629801D01*
X34027899Y-18787513D01*
X34027704Y-18789998D01*
X34027705Y-18790000D01*
X35376000Y-18790000D01*
X35443039Y-18809685D01*
X35488794Y-18862489D01*
X35500000Y-18914000D01*
X35500000Y-19040000D01*
X35626000Y-19040000D01*
X35693039Y-19059685D01*
X35738794Y-19112489D01*
X35750000Y-19164000D01*
X35750000Y-19840000D01*
X36390634Y-19840000D01*
X36390649Y-19839999D01*
X36427489Y-19837100D01*
X36427495Y-19837099D01*
X36585193Y-19791283D01*
X36585196Y-19791282D01*
X36726552Y-19707685D01*
X36726561Y-19707678D01*
X36842678Y-19591561D01*
X36842682Y-19591555D01*
X36871246Y-19543257D01*
X36922315Y-19495573D01*
X36991057Y-19483069D01*
X37055646Y-19509714D01*
X37065660Y-19518696D01*
X37505125Y-19958161D01*
X37538610Y-20019484D01*
X37537219Y-20077934D01*
X37498900Y-20220943D01*
X37498900Y-20379057D01*
X37499819Y-20382484D01*
X37539823Y-20531783D01*
X37539826Y-20531790D01*
X37618875Y-20668709D01*
X37618879Y-20668714D01*
X37618880Y-20668716D01*
X37730684Y-20780520D01*
X37730686Y-20780521D01*
X37730690Y-20780524D01*
X37838768Y-20842922D01*
X37867616Y-20859577D01*
X38020343Y-20900500D01*
X38020345Y-20900500D01*
X38178455Y-20900500D01*
X38178457Y-20900500D01*
X38331184Y-20859577D01*
X38331185Y-20859576D01*
X38339035Y-20857473D01*
X38339220Y-20858165D01*
X38377763Y-20850500D01*
X38863011Y-20850500D01*
X38930050Y-20870185D01*
X38975805Y-20922989D01*
X38976392Y-20924295D01*
X38997794Y-20972765D01*
X39077235Y-21052206D01*
X39180009Y-21097585D01*
X39205135Y-21100500D01*
X40794864Y-21100499D01*
X40794879Y-21100497D01*
X40794882Y-21100497D01*
X40819987Y-21097586D01*
X40819988Y-21097585D01*
X40819991Y-21097585D01*
X40922765Y-21052206D01*
X41002206Y-20972765D01*
X41047585Y-20869991D01*
X41050500Y-20844865D01*
X41050499Y-19755136D01*
X41050497Y-19755117D01*
X41047586Y-19730012D01*
X41047585Y-19730010D01*
X41047585Y-19730009D01*
X41037383Y-19706903D01*
X41034373Y-19700086D01*
X41025301Y-19630808D01*
X41034374Y-19599912D01*
X41047584Y-19569995D01*
X41047584Y-19569994D01*
X41047584Y-19569993D01*
X41047585Y-19569991D01*
X41050500Y-19544865D01*
X41050499Y-18455136D01*
X41048686Y-18439500D01*
X41047586Y-18430012D01*
X41047585Y-18430010D01*
X41047585Y-18430009D01*
X41002206Y-18327235D01*
X40922765Y-18247794D01*
X40909980Y-18242149D01*
X40819992Y-18202415D01*
X40794868Y-18199500D01*
X40794865Y-18199500D01*
X40674500Y-18199500D01*
X40607461Y-18179815D01*
X40561706Y-18127011D01*
X40550500Y-18075500D01*
X40550500Y-16399021D01*
X40570185Y-16331982D01*
X40622989Y-16286227D01*
X40628990Y-16283674D01*
X40722342Y-16246861D01*
X40842922Y-16155422D01*
X40934361Y-16034842D01*
X40989877Y-15894064D01*
X41000500Y-15805602D01*
X41000500Y-15194398D01*
X40989877Y-15105936D01*
X40934361Y-14965158D01*
X40934360Y-14965157D01*
X40934360Y-14965156D01*
X40842922Y-14844577D01*
X40722343Y-14753139D01*
X40684339Y-14738152D01*
X40594826Y-14702853D01*
X40539685Y-14659949D01*
X40516492Y-14594041D01*
X40532612Y-14526057D01*
X40582929Y-14477580D01*
X40594814Y-14472151D01*
X40722342Y-14421861D01*
X40842922Y-14330422D01*
X40934361Y-14209842D01*
X40989877Y-14069064D01*
X41000500Y-13980602D01*
X41000500Y-13369398D01*
X40989877Y-13280936D01*
X40934361Y-13140158D01*
X40934360Y-13140157D01*
X40934360Y-13140156D01*
X40842922Y-13019577D01*
X40722343Y-12928139D01*
X40581561Y-12872622D01*
X40535926Y-12867142D01*
X40493102Y-12862000D01*
X39506898Y-12862000D01*
X39467853Y-12866688D01*
X39418438Y-12872622D01*
X39277656Y-12928139D01*
X39157077Y-13019577D01*
X39114728Y-13075425D01*
X39058536Y-13116948D01*
X39015924Y-13124500D01*
X38807225Y-13124500D01*
X38702217Y-13152637D01*
X38667214Y-13162016D01*
X38541686Y-13234489D01*
X38541683Y-13234491D01*
X38408291Y-13367883D01*
X38408289Y-13367886D01*
X38335816Y-13493414D01*
X38335812Y-13493424D01*
X38331480Y-13509591D01*
X38299388Y-13565174D01*
X37650475Y-14214088D01*
X37589152Y-14247573D01*
X37519461Y-14242589D01*
X37475113Y-14214088D01*
X35935316Y-12674291D01*
X35935315Y-12674290D01*
X35809785Y-12601816D01*
X35809786Y-12601816D01*
X35774782Y-12592437D01*
X35669775Y-12564300D01*
X35669772Y-12564300D01*
X28774187Y-12564300D01*
X28707148Y-12544615D01*
X28686506Y-12527981D01*
X26007882Y-9849357D01*
X25974397Y-9788034D01*
X25979381Y-9718342D01*
X26021253Y-9662409D01*
X26086717Y-9637992D01*
X26133881Y-9643745D01*
X26190590Y-9662171D01*
X26369449Y-9690500D01*
X26369454Y-9690500D01*
X26550550Y-9690500D01*
X26643390Y-9675794D01*
X26729409Y-9662171D01*
X26729412Y-9662169D01*
X26731091Y-9661904D01*
X26800385Y-9670858D01*
X26838171Y-9696696D01*
X27549685Y-10408210D01*
X27675215Y-10480684D01*
X27815225Y-10518200D01*
X27815226Y-10518200D01*
X27960174Y-10518200D01*
X47071237Y-10518200D01*
X47109779Y-10525865D01*
X47109965Y-10525173D01*
X47117814Y-10527276D01*
X47117816Y-10527277D01*
X47270543Y-10568200D01*
X47270545Y-10568200D01*
X47428655Y-10568200D01*
X47428657Y-10568200D01*
X47581384Y-10527277D01*
X47718316Y-10448220D01*
X47830120Y-10336416D01*
X47909177Y-10199484D01*
X47950100Y-10046757D01*
X47950100Y-9888643D01*
X47909177Y-9735916D01*
X47886534Y-9696696D01*
X47830124Y-9598990D01*
X47830118Y-9598982D01*
X47718317Y-9487181D01*
X47718309Y-9487175D01*
X47581390Y-9408126D01*
X47581386Y-9408124D01*
X47581384Y-9408123D01*
X47428657Y-9367200D01*
X47270543Y-9367200D01*
X47117816Y-9408123D01*
X47117814Y-9408123D01*
X47109965Y-9410227D01*
X47109779Y-9409534D01*
X47071237Y-9417200D01*
X30028138Y-9417200D01*
X29961099Y-9397515D01*
X29915344Y-9344711D01*
X29905400Y-9275553D01*
X29927820Y-9220315D01*
X29954860Y-9183096D01*
X29983996Y-9142994D01*
X30066211Y-8981639D01*
X30122171Y-8809409D01*
X30139954Y-8697131D01*
X30150500Y-8630551D01*
X30150500Y-8449448D01*
X30134019Y-8345397D01*
X30122171Y-8270591D01*
X30094191Y-8184476D01*
X30066212Y-8098363D01*
X30066211Y-8098360D01*
X30037740Y-8042484D01*
X29983996Y-7937006D01*
X29954856Y-7896898D01*
X29877558Y-7790505D01*
X29877554Y-7790500D01*
X29749499Y-7662445D01*
X29749494Y-7662441D01*
X29602997Y-7556006D01*
X29602996Y-7556005D01*
X29602994Y-7556004D01*
X29551300Y-7529664D01*
X29441639Y-7473788D01*
X29441636Y-7473787D01*
X29269410Y-7417829D01*
X29090551Y-7389500D01*
X29090546Y-7389500D01*
X28909454Y-7389500D01*
X28909449Y-7389500D01*
X28730589Y-7417829D01*
X28558363Y-7473787D01*
X28558360Y-7473788D01*
X28397002Y-7556006D01*
X28250505Y-7662441D01*
X28250500Y-7662445D01*
X28122445Y-7790500D01*
X28122441Y-7790505D01*
X28016006Y-7937002D01*
X27933788Y-8098360D01*
X27933787Y-8098363D01*
X27877829Y-8270589D01*
X27852473Y-8430678D01*
X27822544Y-8493813D01*
X27763232Y-8530744D01*
X27693369Y-8529746D01*
X27635137Y-8491136D01*
X27607527Y-8430678D01*
X27593740Y-8343639D01*
X27582171Y-8270591D01*
X27554191Y-8184476D01*
X27526212Y-8098363D01*
X27526211Y-8098360D01*
X27497740Y-8042484D01*
X27443996Y-7937006D01*
X27414856Y-7896898D01*
X27337558Y-7790505D01*
X27337554Y-7790500D01*
X27209499Y-7662445D01*
X27209494Y-7662441D01*
X27062997Y-7556006D01*
X27062996Y-7556005D01*
X27062994Y-7556004D01*
X27011300Y-7529664D01*
X26901639Y-7473788D01*
X26901636Y-7473787D01*
X26729410Y-7417829D01*
X26550551Y-7389500D01*
X26550546Y-7389500D01*
X26369454Y-7389500D01*
X26369449Y-7389500D01*
X26190589Y-7417829D01*
X26018363Y-7473787D01*
X26018360Y-7473788D01*
X25857002Y-7556006D01*
X25710505Y-7662441D01*
X25710500Y-7662445D01*
X25582445Y-7790500D01*
X25582441Y-7790505D01*
X25476006Y-7937002D01*
X25393788Y-8098360D01*
X25393787Y-8098363D01*
X25337829Y-8270589D01*
X25312473Y-8430678D01*
X25282544Y-8493813D01*
X25223232Y-8530744D01*
X25153369Y-8529746D01*
X25095137Y-8491136D01*
X25067527Y-8430678D01*
X25053740Y-8343639D01*
X25042171Y-8270591D01*
X25014191Y-8184476D01*
X24986212Y-8098363D01*
X24986211Y-8098360D01*
X24957740Y-8042484D01*
X24903996Y-7937006D01*
X24874856Y-7896898D01*
X24797558Y-7790505D01*
X24797554Y-7790500D01*
X24669499Y-7662445D01*
X24669494Y-7662441D01*
X24522997Y-7556006D01*
X24522996Y-7556005D01*
X24522994Y-7556004D01*
X24471300Y-7529664D01*
X24361639Y-7473788D01*
X24361636Y-7473787D01*
X24189410Y-7417829D01*
X24010551Y-7389500D01*
X24010546Y-7389500D01*
X23829454Y-7389500D01*
X23829449Y-7389500D01*
X23650589Y-7417829D01*
X23478363Y-7473787D01*
X23478360Y-7473788D01*
X23317002Y-7556006D01*
X23170505Y-7662441D01*
X23170500Y-7662445D01*
X23042445Y-7790500D01*
X23042441Y-7790505D01*
X22936006Y-7937002D01*
X22853788Y-8098360D01*
X22853787Y-8098363D01*
X22797829Y-8270589D01*
X22772473Y-8430678D01*
X22742544Y-8493813D01*
X22683232Y-8530744D01*
X22613369Y-8529746D01*
X22555137Y-8491136D01*
X22527527Y-8430678D01*
X22513740Y-8343639D01*
X22502171Y-8270591D01*
X22474191Y-8184476D01*
X22446212Y-8098363D01*
X22446211Y-8098360D01*
X22417740Y-8042484D01*
X22363996Y-7937006D01*
X22334856Y-7896898D01*
X22257558Y-7790505D01*
X22257554Y-7790500D01*
X22129499Y-7662445D01*
X22129494Y-7662441D01*
X21982997Y-7556006D01*
X21982996Y-7556005D01*
X21982994Y-7556004D01*
X21931300Y-7529664D01*
X21821639Y-7473788D01*
X21821636Y-7473787D01*
X21649410Y-7417829D01*
X21470551Y-7389500D01*
X21470546Y-7389500D01*
X21289454Y-7389500D01*
X21289449Y-7389500D01*
X21110589Y-7417829D01*
X20938363Y-7473787D01*
X20938360Y-7473788D01*
X20777002Y-7556006D01*
X20630505Y-7662441D01*
X20630500Y-7662445D01*
X20502445Y-7790500D01*
X20502441Y-7790505D01*
X20396006Y-7937002D01*
X20313788Y-8098360D01*
X20313787Y-8098363D01*
X20257829Y-8270589D01*
X20236973Y-8402266D01*
X20207044Y-8465401D01*
X20147732Y-8502332D01*
X20077869Y-8501334D01*
X20019637Y-8462724D01*
X19991523Y-8398760D01*
X19990500Y-8382868D01*
X19990500Y-7896903D01*
X19990500Y-7896898D01*
X19979877Y-7808436D01*
X19924361Y-7667658D01*
X19924360Y-7667657D01*
X19924360Y-7667656D01*
X19832922Y-7547077D01*
X19712343Y-7455639D01*
X19571561Y-7400122D01*
X19525926Y-7394642D01*
X19483102Y-7389500D01*
X18196898Y-7389500D01*
X18157853Y-7394188D01*
X18108438Y-7400122D01*
X17967656Y-7455639D01*
X17847077Y-7547077D01*
X17755639Y-7667656D01*
X17700122Y-7808438D01*
X17694188Y-7857853D01*
X17689500Y-7896898D01*
X17689500Y-7896903D01*
X17689500Y-8860613D01*
X17669815Y-8927652D01*
X17653181Y-8948294D01*
X9863294Y-16738181D01*
X9801971Y-16771666D01*
X9775613Y-16774500D01*
X9331898Y-16774500D01*
X9292853Y-16779188D01*
X9243438Y-16785122D01*
X9102656Y-16840639D01*
X8982077Y-16932077D01*
X8890639Y-17052656D01*
X8835122Y-17193438D01*
X8830159Y-17234771D01*
X8824500Y-17281898D01*
X8824500Y-17281903D01*
X8824500Y-17808300D01*
X8804815Y-17875339D01*
X8752011Y-17921094D01*
X8700500Y-17932300D01*
X8620643Y-17932300D01*
X8467916Y-17973223D01*
X8467914Y-17973223D01*
X8460065Y-17975327D01*
X8459879Y-17974634D01*
X8421337Y-17982300D01*
X3894725Y-17982300D01*
X3894717Y-17982301D01*
X3868785Y-17989249D01*
X3812932Y-17988349D01*
X3812394Y-17991058D01*
X3603469Y-17949500D01*
X3603465Y-17949500D01*
X3396535Y-17949500D01*
X3396530Y-17949500D01*
X3193587Y-17989868D01*
X3193579Y-17989870D01*
X3002403Y-18069058D01*
X2830342Y-18184024D01*
X2684024Y-18330342D01*
X2569058Y-18502403D01*
X2489870Y-18693579D01*
X2489868Y-18693587D01*
X2449500Y-18896530D01*
X500500Y-18896530D01*
X500500Y-6881995D01*
X49119500Y-6881995D01*
X49119500Y-7118004D01*
X49119501Y-7118020D01*
X49150306Y-7352010D01*
X49211394Y-7579993D01*
X49301714Y-7798045D01*
X49301719Y-7798056D01*
X49358789Y-7896903D01*
X49419727Y-8002450D01*
X49419729Y-8002453D01*
X49419730Y-8002454D01*
X49563406Y-8189697D01*
X49563412Y-8189704D01*
X49730295Y-8356587D01*
X49730302Y-8356593D01*
X49826852Y-8430678D01*
X49917550Y-8500273D01*
X50045930Y-8574393D01*
X50121943Y-8618280D01*
X50121948Y-8618282D01*
X50121951Y-8618284D01*
X50340007Y-8708606D01*
X50567986Y-8769693D01*
X50801989Y-8800500D01*
X50801996Y-8800500D01*
X51038004Y-8800500D01*
X51038011Y-8800500D01*
X51272014Y-8769693D01*
X51499993Y-8708606D01*
X51718049Y-8618284D01*
X51922450Y-8500273D01*
X52109699Y-8356592D01*
X52276592Y-8189699D01*
X52420273Y-8002450D01*
X52538284Y-7798049D01*
X52628606Y-7579993D01*
X52689693Y-7352014D01*
X52720500Y-7118011D01*
X52720500Y-6881989D01*
X52689693Y-6647986D01*
X52628606Y-6420007D01*
X52538284Y-6201951D01*
X52538282Y-6201948D01*
X52538280Y-6201943D01*
X52482510Y-6105348D01*
X52420273Y-5997550D01*
X52345414Y-5899992D01*
X52345407Y-5899983D01*
X54199500Y-5899983D01*
X54199500Y-8100001D01*
X54199501Y-8100018D01*
X54210000Y-8202796D01*
X54210001Y-8202799D01*
X54260962Y-8356587D01*
X54265186Y-8369334D01*
X54357288Y-8518656D01*
X54481344Y-8642712D01*
X54630666Y-8734814D01*
X54797203Y-8789999D01*
X54899991Y-8800500D01*
X57100008Y-8800499D01*
X57202797Y-8789999D01*
X57369334Y-8734814D01*
X57518656Y-8642712D01*
X57642712Y-8518656D01*
X57734814Y-8369334D01*
X57789999Y-8202797D01*
X57800500Y-8100009D01*
X57800499Y-5899992D01*
X57789999Y-5797203D01*
X57734814Y-5630666D01*
X57642712Y-5481344D01*
X57518656Y-5357288D01*
X57369334Y-5265186D01*
X57202797Y-5210001D01*
X57202795Y-5210000D01*
X57100010Y-5199500D01*
X54899998Y-5199500D01*
X54899981Y-5199501D01*
X54797203Y-5210000D01*
X54797200Y-5210001D01*
X54630668Y-5265185D01*
X54630663Y-5265187D01*
X54481342Y-5357289D01*
X54357289Y-5481342D01*
X54265187Y-5630663D01*
X54265185Y-5630668D01*
X54237349Y-5714670D01*
X54210001Y-5797203D01*
X54210001Y-5797204D01*
X54210000Y-5797204D01*
X54199500Y-5899983D01*
X52345407Y-5899983D01*
X52276593Y-5810302D01*
X52276587Y-5810295D01*
X52109704Y-5643412D01*
X52109697Y-5643406D01*
X51922454Y-5499730D01*
X51922453Y-5499729D01*
X51922450Y-5499727D01*
X51840957Y-5452677D01*
X51718056Y-5381719D01*
X51718045Y-5381714D01*
X51499993Y-5291394D01*
X51272010Y-5230306D01*
X51038020Y-5199501D01*
X51038017Y-5199500D01*
X51038011Y-5199500D01*
X50801989Y-5199500D01*
X50801983Y-5199500D01*
X50801979Y-5199501D01*
X50567989Y-5230306D01*
X50340006Y-5291394D01*
X50121954Y-5381714D01*
X50121943Y-5381719D01*
X49917545Y-5499730D01*
X49730302Y-5643406D01*
X49730295Y-5643412D01*
X49563412Y-5810295D01*
X49563406Y-5810302D01*
X49419730Y-5997545D01*
X49301719Y-6201943D01*
X49301714Y-6201954D01*
X49211394Y-6420006D01*
X49150306Y-6647989D01*
X49119501Y-6881979D01*
X49119500Y-6881995D01*
X500500Y-6881995D01*
X500500Y-3878711D01*
X2149500Y-3878711D01*
X2149500Y-4121288D01*
X2181161Y-4361785D01*
X2243947Y-4596104D01*
X2336773Y-4820205D01*
X2336776Y-4820212D01*
X2458064Y-5030289D01*
X2458066Y-5030292D01*
X2458067Y-5030293D01*
X2605733Y-5222736D01*
X2605739Y-5222743D01*
X2777256Y-5394260D01*
X2777262Y-5394265D01*
X2969711Y-5541936D01*
X3179788Y-5663224D01*
X3403900Y-5756054D01*
X3638211Y-5818838D01*
X3818586Y-5842584D01*
X3878711Y-5850500D01*
X3878712Y-5850500D01*
X4121289Y-5850500D01*
X4169388Y-5844167D01*
X4361789Y-5818838D01*
X4596100Y-5756054D01*
X4820212Y-5663224D01*
X5030289Y-5541936D01*
X5222738Y-5394265D01*
X5394265Y-5222738D01*
X5541936Y-5030289D01*
X5663224Y-4820212D01*
X5756054Y-4596100D01*
X5818838Y-4361789D01*
X5850500Y-4121288D01*
X5850500Y-3878712D01*
X5850500Y-3878711D01*
X68149500Y-3878711D01*
X68149500Y-4121288D01*
X68181161Y-4361785D01*
X68243947Y-4596104D01*
X68336773Y-4820205D01*
X68336776Y-4820212D01*
X68458064Y-5030289D01*
X68458066Y-5030292D01*
X68458067Y-5030293D01*
X68605733Y-5222736D01*
X68605739Y-5222743D01*
X68777256Y-5394260D01*
X68777262Y-5394265D01*
X68969711Y-5541936D01*
X69179788Y-5663224D01*
X69403900Y-5756054D01*
X69638211Y-5818838D01*
X69818586Y-5842584D01*
X69878711Y-5850500D01*
X69878712Y-5850500D01*
X70121289Y-5850500D01*
X70169388Y-5844167D01*
X70361789Y-5818838D01*
X70596100Y-5756054D01*
X70820212Y-5663224D01*
X71030289Y-5541936D01*
X71222738Y-5394265D01*
X71394265Y-5222738D01*
X71541936Y-5030289D01*
X71663224Y-4820212D01*
X71756054Y-4596100D01*
X71818838Y-4361789D01*
X71850500Y-4121288D01*
X71850500Y-3878712D01*
X71818838Y-3638211D01*
X71756054Y-3403900D01*
X71663224Y-3179788D01*
X71541936Y-2969711D01*
X71394265Y-2777262D01*
X71394260Y-2777256D01*
X71222743Y-2605739D01*
X71222736Y-2605733D01*
X71030293Y-2458067D01*
X71030292Y-2458066D01*
X71030289Y-2458064D01*
X70820212Y-2336776D01*
X70820205Y-2336773D01*
X70596104Y-2243947D01*
X70361785Y-2181161D01*
X70121289Y-2149500D01*
X70121288Y-2149500D01*
X69878712Y-2149500D01*
X69878711Y-2149500D01*
X69638214Y-2181161D01*
X69403895Y-2243947D01*
X69179794Y-2336773D01*
X69179785Y-2336777D01*
X68969706Y-2458067D01*
X68777263Y-2605733D01*
X68777256Y-2605739D01*
X68605739Y-2777256D01*
X68605733Y-2777263D01*
X68458067Y-2969706D01*
X68336777Y-3179785D01*
X68336773Y-3179794D01*
X68243947Y-3403895D01*
X68181161Y-3638214D01*
X68149500Y-3878711D01*
X5850500Y-3878711D01*
X5818838Y-3638211D01*
X5756054Y-3403900D01*
X5663224Y-3179788D01*
X5541936Y-2969711D01*
X5394265Y-2777262D01*
X5394260Y-2777256D01*
X5222743Y-2605739D01*
X5222736Y-2605733D01*
X5030293Y-2458067D01*
X5030292Y-2458066D01*
X5030289Y-2458064D01*
X4820212Y-2336776D01*
X4820205Y-2336773D01*
X4596104Y-2243947D01*
X4361785Y-2181161D01*
X4121289Y-2149500D01*
X4121288Y-2149500D01*
X3878712Y-2149500D01*
X3878711Y-2149500D01*
X3638214Y-2181161D01*
X3403895Y-2243947D01*
X3179794Y-2336773D01*
X3179785Y-2336777D01*
X2969706Y-2458067D01*
X2777263Y-2605733D01*
X2777256Y-2605739D01*
X2605739Y-2777256D01*
X2605733Y-2777263D01*
X2458067Y-2969706D01*
X2336777Y-3179785D01*
X2336773Y-3179794D01*
X2243947Y-3403895D01*
X2181161Y-3638214D01*
X2149500Y-3878711D01*
X500500Y-3878711D01*
X500500Y-624500D01*
X520185Y-557461D01*
X572989Y-511706D01*
X624500Y-500500D01*
X73375500Y-500500D01*
X73442539Y-520185D01*
G37*
%TD.AperFunction*%
%TD*%
M02*
