%TF.GenerationSoftware,KiCad,Pcbnew,9.0.9-9.0.9~ubuntu24.04.1*%
%TF.CreationDate,2026-09-01T08:34:25+02:00*%
%TF.ProjectId,daughtercard,64617567-6874-4657-9263-6172642e6b69,rev?*%
%TF.SameCoordinates,Original*%
%TF.FileFunction,Legend,Bot*%
%TF.FilePolarity,Positive*%
%FSLAX46Y46*%
G04 Gerber Fmt 4.6, Leading zero omitted, Abs format (unit mm)*
G04 Created by KiCad (PCBNEW 9.0.9-9.0.9~ubuntu24.04.1) date 2026-09-01 08:34:25*
%MOMM*%
%LPD*%
G01*
G04 APERTURE LIST*
%ADD10C,0.350000*%
%ADD11C,0.000000*%
G04 APERTURE END LIST*
D10*
X41961904Y-33799561D02*
X40704761Y-33799561D01*
X41333332Y-35999561D02*
X41333332Y-33799561D01*
X39133333Y-35894800D02*
X39342857Y-35999561D01*
X39342857Y-35999561D02*
X39761904Y-35999561D01*
X39761904Y-35999561D02*
X39971428Y-35894800D01*
X39971428Y-35894800D02*
X40076190Y-35685276D01*
X40076190Y-35685276D02*
X40076190Y-34847180D01*
X40076190Y-34847180D02*
X39971428Y-34637657D01*
X39971428Y-34637657D02*
X39761904Y-34532895D01*
X39761904Y-34532895D02*
X39342857Y-34532895D01*
X39342857Y-34532895D02*
X39133333Y-34637657D01*
X39133333Y-34637657D02*
X39028571Y-34847180D01*
X39028571Y-34847180D02*
X39028571Y-35056704D01*
X39028571Y-35056704D02*
X40076190Y-35266228D01*
X38085714Y-34532895D02*
X38085714Y-35999561D01*
X38085714Y-34742419D02*
X37980952Y-34637657D01*
X37980952Y-34637657D02*
X37771428Y-34532895D01*
X37771428Y-34532895D02*
X37457143Y-34532895D01*
X37457143Y-34532895D02*
X37247619Y-34637657D01*
X37247619Y-34637657D02*
X37142857Y-34847180D01*
X37142857Y-34847180D02*
X37142857Y-35999561D01*
X35676190Y-33799561D02*
X35257143Y-33799561D01*
X35257143Y-33799561D02*
X35047619Y-33904323D01*
X35047619Y-33904323D02*
X34838095Y-34113847D01*
X34838095Y-34113847D02*
X34733333Y-34532895D01*
X34733333Y-34532895D02*
X34733333Y-35266228D01*
X34733333Y-35266228D02*
X34838095Y-35685276D01*
X34838095Y-35685276D02*
X35047619Y-35894800D01*
X35047619Y-35894800D02*
X35257143Y-35999561D01*
X35257143Y-35999561D02*
X35676190Y-35999561D01*
X35676190Y-35999561D02*
X35885714Y-35894800D01*
X35885714Y-35894800D02*
X36095238Y-35685276D01*
X36095238Y-35685276D02*
X36200000Y-35266228D01*
X36200000Y-35266228D02*
X36200000Y-34532895D01*
X36200000Y-34532895D02*
X36095238Y-34113847D01*
X36095238Y-34113847D02*
X35885714Y-33904323D01*
X35885714Y-33904323D02*
X35676190Y-33799561D01*
X34104762Y-34532895D02*
X33266666Y-34532895D01*
X33790476Y-35999561D02*
X33790476Y-34113847D01*
X33790476Y-34113847D02*
X33685714Y-33904323D01*
X33685714Y-33904323D02*
X33476190Y-33799561D01*
X33476190Y-33799561D02*
X33266666Y-33799561D01*
X32533333Y-35999561D02*
X32533333Y-33799561D01*
X32533333Y-33799561D02*
X31276190Y-35999561D01*
X31276190Y-35999561D02*
X31276190Y-33799561D01*
X30228571Y-35999561D02*
X30228571Y-34532895D01*
X30228571Y-33799561D02*
X30333333Y-33904323D01*
X30333333Y-33904323D02*
X30228571Y-34009085D01*
X30228571Y-34009085D02*
X30123809Y-33904323D01*
X30123809Y-33904323D02*
X30228571Y-33799561D01*
X30228571Y-33799561D02*
X30228571Y-34009085D01*
X29180952Y-34532895D02*
X29180952Y-35999561D01*
X29180952Y-34742419D02*
X29076190Y-34637657D01*
X29076190Y-34637657D02*
X28866666Y-34532895D01*
X28866666Y-34532895D02*
X28552381Y-34532895D01*
X28552381Y-34532895D02*
X28342857Y-34637657D01*
X28342857Y-34637657D02*
X28238095Y-34847180D01*
X28238095Y-34847180D02*
X28238095Y-35999561D01*
X26352381Y-35894800D02*
X26561905Y-35999561D01*
X26561905Y-35999561D02*
X26980952Y-35999561D01*
X26980952Y-35999561D02*
X27190476Y-35894800D01*
X27190476Y-35894800D02*
X27295238Y-35685276D01*
X27295238Y-35685276D02*
X27295238Y-34847180D01*
X27295238Y-34847180D02*
X27190476Y-34637657D01*
X27190476Y-34637657D02*
X26980952Y-34532895D01*
X26980952Y-34532895D02*
X26561905Y-34532895D01*
X26561905Y-34532895D02*
X26352381Y-34637657D01*
X26352381Y-34637657D02*
X26247619Y-34847180D01*
X26247619Y-34847180D02*
X26247619Y-35056704D01*
X26247619Y-35056704D02*
X27295238Y-35266228D01*
D11*
%TO.C,GH1*%
G36*
X34191500Y-20753800D02*
G01*
X34373000Y-20765100D01*
X34553300Y-20783800D01*
X34732300Y-20810000D01*
X34909600Y-20843500D01*
X35085300Y-20884300D01*
X35258900Y-20932300D01*
X35430300Y-20987400D01*
X35599400Y-21049700D01*
X35765800Y-21118900D01*
X35929500Y-21195200D01*
X36090100Y-21278400D01*
X36247600Y-21368400D01*
X36401600Y-21465200D01*
X36456800Y-21502000D01*
X36510000Y-21538400D01*
X36561500Y-21574800D01*
X36611500Y-21611300D01*
X36660400Y-21648000D01*
X36708400Y-21685400D01*
X36755600Y-21723400D01*
X36802500Y-21762400D01*
X36849200Y-21802500D01*
X36896000Y-21844100D01*
X36943100Y-21887200D01*
X36990900Y-21932000D01*
X37039500Y-21978900D01*
X37089200Y-22028000D01*
X37148300Y-22087700D01*
X37204800Y-22146600D01*
X37259100Y-22205000D01*
X37311300Y-22263000D01*
X37361500Y-22321000D01*
X37410100Y-22379300D01*
X37457200Y-22438000D01*
X37503000Y-22497400D01*
X37547800Y-22557900D01*
X37591600Y-22619500D01*
X37634800Y-22682700D01*
X37677500Y-22747600D01*
X37720000Y-22814600D01*
X37762300Y-22883800D01*
X37832900Y-23005400D01*
X37899200Y-23128400D01*
X37961200Y-23252900D01*
X38019100Y-23379100D01*
X38072700Y-23507000D01*
X38122200Y-23636600D01*
X38167600Y-23768200D01*
X38208900Y-23901800D01*
X38246100Y-24037400D01*
X38279200Y-24175100D01*
X38308300Y-24315000D01*
X38333500Y-24457300D01*
X38354600Y-24601900D01*
X38371800Y-24749000D01*
X38375500Y-24791600D01*
X38378700Y-24841100D01*
X38381200Y-24896400D01*
X38383200Y-24956400D01*
X38384700Y-25019800D01*
X38385500Y-25085500D01*
X38385800Y-25152400D01*
X38385600Y-25219400D01*
X38384700Y-25285300D01*
X38383300Y-25348900D01*
X38381300Y-25409200D01*
X38378800Y-25464800D01*
X38375700Y-25514800D01*
X38372000Y-25558000D01*
X38361700Y-25651300D01*
X38349900Y-25743300D01*
X38336400Y-25834100D01*
X38321400Y-25923800D01*
X38304700Y-26012500D01*
X38286300Y-26100300D01*
X38266200Y-26187300D01*
X38244400Y-26273600D01*
X38220900Y-26359400D01*
X38195500Y-26444600D01*
X38168400Y-26529500D01*
X38139500Y-26614100D01*
X38108700Y-26698500D01*
X38076100Y-26782900D01*
X38061800Y-26817600D01*
X38045300Y-26856100D01*
X38026700Y-26897600D01*
X38006600Y-26941400D01*
X37985100Y-26987100D01*
X37962700Y-27033800D01*
X37939500Y-27081100D01*
X37916000Y-27128100D01*
X37892500Y-27174300D01*
X37869200Y-27219100D01*
X37846500Y-27261700D01*
X37824700Y-27301600D01*
X37804200Y-27338100D01*
X37785200Y-27370500D01*
X37692700Y-27518300D01*
X37595200Y-27661700D01*
X37492800Y-27800400D01*
X37385600Y-27934500D01*
X37273700Y-28063800D01*
X37157100Y-28188200D01*
X37036000Y-28307800D01*
X36910500Y-28422300D01*
X36780600Y-28531600D01*
X36646500Y-28635800D01*
X36508200Y-28734600D01*
X36366000Y-28828100D01*
X36219700Y-28916000D01*
X36069600Y-28998400D01*
X36028600Y-29019500D01*
X35985200Y-29041000D01*
X35939900Y-29062800D01*
X35893500Y-29084600D01*
X35846600Y-29106000D01*
X35799800Y-29126900D01*
X35753800Y-29146900D01*
X35709100Y-29165800D01*
X35666500Y-29183300D01*
X35626500Y-29199100D01*
X35589800Y-29212900D01*
X35557100Y-29224600D01*
X35529000Y-29233700D01*
X35506000Y-29240100D01*
X35472900Y-29246500D01*
X35440200Y-29249800D01*
X35408000Y-29250000D01*
X35376400Y-29247200D01*
X35345600Y-29241500D01*
X35315900Y-29232900D01*
X35287200Y-29221500D01*
X35259900Y-29207500D01*
X35234100Y-29190800D01*
X35209900Y-29171500D01*
X35187600Y-29149700D01*
X35167200Y-29125600D01*
X35148900Y-29099100D01*
X35132900Y-29070300D01*
X35104200Y-29012200D01*
X35102000Y-28627400D01*
X35101700Y-28564200D01*
X35101500Y-28507900D01*
X35101400Y-28458300D01*
X35101400Y-28415000D01*
X35101500Y-28377500D01*
X35101800Y-28345500D01*
X35102200Y-28318800D01*
X35102800Y-28296800D01*
X35103500Y-28279400D01*
X35104400Y-28266000D01*
X35105400Y-28256400D01*
X35106600Y-28250100D01*
X35108100Y-28246900D01*
X35109700Y-28246300D01*
X35122300Y-28251000D01*
X35136500Y-28255900D01*
X35152200Y-28261100D01*
X35169000Y-28266400D01*
X35186700Y-28271800D01*
X35205000Y-28277200D01*
X35223500Y-28282500D01*
X35242100Y-28287600D01*
X35260500Y-28292500D01*
X35278300Y-28297000D01*
X35295400Y-28301200D01*
X35311400Y-28304900D01*
X35326000Y-28308100D01*
X35339100Y-28310600D01*
X35360100Y-28313900D01*
X35383600Y-28316700D01*
X35409400Y-28319000D01*
X35436800Y-28320700D01*
X35465700Y-28322000D01*
X35495500Y-28322700D01*
X35525800Y-28323000D01*
X35556200Y-28322700D01*
X35586400Y-28321900D01*
X35615900Y-28320700D01*
X35644200Y-28318900D01*
X35671100Y-28316600D01*
X35696000Y-28313800D01*
X35718600Y-28310500D01*
X35767100Y-28301500D01*
X35814000Y-28290800D01*
X35859500Y-28278400D01*
X35903600Y-28264300D01*
X35946500Y-28248400D01*
X35988100Y-28230800D01*
X36028600Y-28211200D01*
X36068100Y-28189800D01*
X36106600Y-28166500D01*
X36144200Y-28141200D01*
X36181000Y-28113900D01*
X36217000Y-28084500D01*
X36252400Y-28053100D01*
X36287200Y-28019600D01*
X36314000Y-27991700D01*
X36340400Y-27962700D01*
X36366300Y-27932400D01*
X36391600Y-27901000D01*
X36416300Y-27868500D01*
X36440500Y-27834800D01*
X36464100Y-27800100D01*
X36487100Y-27764400D01*
X36509400Y-27727600D01*
X36531000Y-27689900D01*
X36552000Y-27651200D01*
X36572300Y-27611700D01*
X36591800Y-27571200D01*
X36610600Y-27529900D01*
X36638600Y-27467300D01*
X36664600Y-27411100D01*
X36688900Y-27360900D01*
X36711800Y-27316300D01*
X36733600Y-27276800D01*
X36754700Y-27242100D01*
X36775400Y-27211600D01*
X36795800Y-27184900D01*
X36816500Y-27161600D01*
X36837700Y-27141200D01*
X36859700Y-27123400D01*
X36882800Y-27107600D01*
X36907400Y-27093500D01*
X36933700Y-27080500D01*
X36938900Y-27078300D01*
X36944700Y-27076000D01*
X36951200Y-27073700D01*
X36958300Y-27071300D01*
X36965900Y-27068800D01*
X36973900Y-27066400D01*
X36982200Y-27064100D01*
X36990700Y-27061800D01*
X36999300Y-27059500D01*
X37008100Y-27057400D01*
X37016800Y-27055400D01*
X37025400Y-27053500D01*
X37033900Y-27051800D01*
X37042100Y-27050300D01*
X37058800Y-27047200D01*
X37073900Y-27044100D01*
X37087700Y-27040800D01*
X37100100Y-27037400D01*
X37111300Y-27033700D01*
X37121300Y-27029800D01*
X37130300Y-27025500D01*
X37138300Y-27020800D01*
X37145400Y-27015800D01*
X37151800Y-27010200D01*
X37157500Y-27004100D01*
X37162600Y-26997500D01*
X37167200Y-26990200D01*
X37171500Y-26982300D01*
X37173900Y-26977200D01*
X37176000Y-26972500D01*
X37177800Y-26968200D01*
X37179300Y-26964200D01*
X37180400Y-26960400D01*
X37181200Y-26956700D01*
X37181700Y-26953100D01*
X37181800Y-26949500D01*
X37181700Y-26945800D01*
X37181300Y-26941900D01*
X37180700Y-26937900D01*
X37179700Y-26933500D01*
X37178500Y-26928800D01*
X37177000Y-26923700D01*
X37174000Y-26914700D01*
X37170600Y-26906200D01*
X37166700Y-26898000D01*
X37162200Y-26890200D01*
X37157100Y-26882700D01*
X37151400Y-26875500D01*
X37145000Y-26868500D01*
X37138000Y-26861700D01*
X37130100Y-26855000D01*
X37121500Y-26848500D01*
X37112100Y-26841900D01*
X37101700Y-26835400D01*
X37090500Y-26828900D01*
X37078300Y-26822200D01*
X37062600Y-26814300D01*
X37047000Y-26807100D01*
X37031500Y-26800600D01*
X37015900Y-26794800D01*
X37000100Y-26789600D01*
X36984100Y-26785100D01*
X36967800Y-26781100D01*
X36951000Y-26777800D01*
X36933700Y-26775100D01*
X36915900Y-26772900D01*
X36897300Y-26771300D01*
X36878000Y-26770100D01*
X36857800Y-26769500D01*
X36836600Y-26769400D01*
X36815500Y-26769800D01*
X36795100Y-26770600D01*
X36775400Y-26772100D01*
X36756300Y-26774100D01*
X36737700Y-26776700D01*
X36719400Y-26780000D01*
X36701500Y-26783900D01*
X36683800Y-26788400D01*
X36666200Y-26793700D01*
X36648600Y-26799600D01*
X36630800Y-26806300D01*
X36612900Y-26813800D01*
X36594700Y-26822100D01*
X36576100Y-26831100D01*
X36545400Y-26847500D01*
X36515100Y-26865600D01*
X36485000Y-26885400D01*
X36455100Y-26907000D01*
X36425300Y-26930600D01*
X36395700Y-26956100D01*
X36366000Y-26983600D01*
X36336300Y-27013100D01*
X36306400Y-27044900D01*
X36276300Y-27078800D01*
X36246000Y-27115000D01*
X36215300Y-27153500D01*
X36184300Y-27194500D01*
X36152700Y-27237900D01*
X36138700Y-27257100D01*
X36123900Y-27276600D01*
X36108400Y-27296300D01*
X36092300Y-27315800D01*
X36075900Y-27335200D01*
X36059200Y-27354300D01*
X36042300Y-27372800D01*
X36025500Y-27390800D01*
X36008800Y-27407900D01*
X35992400Y-27424200D01*
X35976400Y-27439300D01*
X35960900Y-27453300D01*
X35946200Y-27465800D01*
X35932200Y-27476900D01*
X35919600Y-27486400D01*
X35907300Y-27495200D01*
X35895400Y-27503500D01*
X35883700Y-27511200D01*
X35872100Y-27518500D01*
X35860600Y-27525300D01*
X35849100Y-27531800D01*
X35837400Y-27537900D01*
X35825500Y-27543700D01*
X35813400Y-27549300D01*
X35800800Y-27554700D01*
X35787700Y-27560000D01*
X35774000Y-27565200D01*
X35759700Y-27570300D01*
X35748400Y-27574200D01*
X35738000Y-27577600D01*
X35728400Y-27580500D01*
X35719100Y-27583000D01*
X35709900Y-27585100D01*
X35700500Y-27586800D01*
X35690500Y-27588200D01*
X35679800Y-27589300D01*
X35667900Y-27590100D01*
X35654600Y-27590700D01*
X35639600Y-27591100D01*
X35622500Y-27591400D01*
X35603200Y-27591500D01*
X35581200Y-27591600D01*
X35560300Y-27591600D01*
X35541700Y-27591500D01*
X35525000Y-27591300D01*
X35510100Y-27590900D01*
X35496700Y-27590400D01*
X35484600Y-27589700D01*
X35473500Y-27588700D01*
X35463200Y-27587500D01*
X35453600Y-27586100D01*
X35444200Y-27584400D01*
X35435000Y-27582300D01*
X35425600Y-27579900D01*
X35415900Y-27577200D01*
X35405600Y-27574100D01*
X35390600Y-27569200D01*
X35375600Y-27563800D01*
X35360700Y-27558000D01*
X35345700Y-27551700D01*
X35330700Y-27545000D01*
X35315700Y-27537700D01*
X35300700Y-27529900D01*
X35285500Y-27521600D01*
X35270300Y-27512800D01*
X35254900Y-27503400D01*
X35239400Y-27493500D01*
X35223800Y-27483000D01*
X35208000Y-27471900D01*
X35192000Y-27460300D01*
X35183800Y-27453800D01*
X35172900Y-27444600D01*
X35159500Y-27432700D01*
X35143900Y-27418500D01*
X35126200Y-27402100D01*
X35106600Y-27383700D01*
X35085400Y-27363600D01*
X35062800Y-27341900D01*
X35039000Y-27318800D01*
X35014200Y-27294600D01*
X34988700Y-27269500D01*
X34962600Y-27243600D01*
X34936100Y-27217200D01*
X34909600Y-27190500D01*
X34684400Y-26963200D01*
X34745500Y-26954500D01*
X34767200Y-26951300D01*
X34789900Y-26947600D01*
X34813600Y-26943400D01*
X34838100Y-26938800D01*
X34863200Y-26933900D01*
X34888900Y-26928600D01*
X34914900Y-26923000D01*
X34941200Y-26917100D01*
X34967600Y-26910900D01*
X34994000Y-26904500D01*
X35020200Y-26897900D01*
X35046100Y-26891200D01*
X35071500Y-26884300D01*
X35096400Y-26877300D01*
X35219500Y-26838200D01*
X35339000Y-26792900D01*
X35454600Y-26741400D01*
X35566100Y-26684200D01*
X35673300Y-26621200D01*
X35775900Y-26552800D01*
X35873700Y-26479100D01*
X35966400Y-26400300D01*
X36053700Y-26316600D01*
X36135500Y-26228200D01*
X36211500Y-26135400D01*
X36281400Y-26038200D01*
X36345000Y-25936900D01*
X36402100Y-25831700D01*
X36424000Y-25786700D01*
X36444600Y-25741500D01*
X36463900Y-25695800D01*
X36482000Y-25649900D01*
X36498900Y-25603500D01*
X36514500Y-25556700D01*
X36528900Y-25509400D01*
X36542100Y-25461700D01*
X36554100Y-25413400D01*
X36565000Y-25364600D01*
X36574600Y-25315100D01*
X36583100Y-25265100D01*
X36590400Y-25214400D01*
X36596600Y-25163000D01*
X36599100Y-25134200D01*
X36601000Y-25101700D01*
X36602400Y-25066100D01*
X36603100Y-25028100D01*
X36603200Y-24988200D01*
X36602800Y-24947100D01*
X36601800Y-24905500D01*
X36600400Y-24863800D01*
X36598400Y-24822900D01*
X36595900Y-24783200D01*
X36592900Y-24745400D01*
X36589500Y-24710200D01*
X36585700Y-24678100D01*
X36581500Y-24649800D01*
X36572400Y-24599700D01*
X36562100Y-24549800D01*
X36550600Y-24500000D01*
X36538000Y-24450600D01*
X36524400Y-24401700D01*
X36509700Y-24353300D01*
X36494000Y-24305500D01*
X36477400Y-24258600D01*
X36459800Y-24212600D01*
X36441300Y-24167600D01*
X36422000Y-24123700D01*
X36401900Y-24081000D01*
X36381100Y-24039700D01*
X36359500Y-23999800D01*
X36351200Y-23985400D01*
X36342000Y-23969900D01*
X36332100Y-23953500D01*
X36321500Y-23936500D01*
X36310500Y-23919100D01*
X36299200Y-23901500D01*
X36287700Y-23883900D01*
X36276200Y-23866600D01*
X36264700Y-23849700D01*
X36253500Y-23833400D01*
X36242700Y-23818100D01*
X36232500Y-23803800D01*
X36222800Y-23790900D01*
X36214100Y-23779500D01*
X36198800Y-23760100D01*
X36217800Y-23689100D01*
X36225600Y-23659100D01*
X36232500Y-23630900D01*
X36238600Y-23603800D01*
X36243900Y-23577600D01*
X36248400Y-23551500D01*
X36252300Y-23525300D01*
X36255500Y-23498300D01*
X36258100Y-23470200D01*
X36260100Y-23440400D01*
X36261700Y-23408400D01*
X36262800Y-23373800D01*
X36263500Y-23336100D01*
X36263900Y-23294800D01*
X36264000Y-23249400D01*
X36263800Y-23203800D01*
X36263300Y-23161700D01*
X36262500Y-23122700D01*
X36261200Y-23086500D01*
X36259600Y-23052600D01*
X36257400Y-23020800D01*
X36254800Y-22990600D01*
X36251600Y-22961600D01*
X36247800Y-22933500D01*
X36243400Y-22905900D01*
X36238400Y-22878400D01*
X36232700Y-22850700D01*
X36226200Y-22822400D01*
X36219000Y-22793000D01*
X36213200Y-22770700D01*
X36207500Y-22750100D01*
X36202000Y-22731200D01*
X36196500Y-22713900D01*
X36191200Y-22698200D01*
X36185900Y-22684100D01*
X36180700Y-22671600D01*
X36175600Y-22660700D01*
X36170600Y-22651300D01*
X36165600Y-22643400D01*
X36160600Y-22637000D01*
X36155700Y-22632100D01*
X36150800Y-22628600D01*
X36145900Y-22626500D01*
X36132400Y-22623800D01*
X36115200Y-22621800D01*
X36094800Y-22620800D01*
X36071700Y-22620500D01*
X36046300Y-22620900D01*
X36019000Y-22622100D01*
X35990200Y-22624000D01*
X35960400Y-22626600D01*
X35929900Y-22629800D01*
X35899300Y-22633600D01*
X35868900Y-22637900D01*
X35839200Y-22642800D01*
X35810500Y-22648200D01*
X35783400Y-22654100D01*
X35735300Y-22666400D01*
X35685200Y-22681400D01*
X35633800Y-22698800D01*
X35581500Y-22718300D01*
X35528800Y-22739800D01*
X35476200Y-22762900D01*
X35424300Y-22787500D01*
X35373600Y-22813100D01*
X35324500Y-22839700D01*
X35277600Y-22867000D01*
X35233500Y-22894700D01*
X35192500Y-22922500D01*
X35155200Y-22950200D01*
X35122100Y-22977600D01*
X35117900Y-22981300D01*
X35113800Y-22984800D01*
X35109600Y-22988200D01*
X35105600Y-22991400D01*
X35101700Y-22994400D01*
X35098000Y-22997200D01*
X35094500Y-22999800D01*
X35091200Y-23002100D01*
X35088100Y-23004100D01*
X35085400Y-23005800D01*
X35082900Y-23007100D01*
X35080900Y-23008100D01*
X35079200Y-23008700D01*
X35078000Y-23009000D01*
X35076500Y-23008800D01*
X35074000Y-23008400D01*
X35070600Y-23007600D01*
X35066400Y-23006600D01*
X35061400Y-23005400D01*
X35055700Y-23003900D01*
X35049400Y-23002300D01*
X35042400Y-23000400D01*
X35035000Y-22998400D01*
X35027200Y-22996200D01*
X35018900Y-22993800D01*
X35010400Y-22991400D01*
X35001600Y-22988800D01*
X34992600Y-22986200D01*
X34954400Y-22975200D01*
X34914000Y-22964600D01*
X34871700Y-22954300D01*
X34827700Y-22944300D01*
X34782200Y-22934600D01*
X34735400Y-22925400D01*
X34687400Y-22916600D01*
X34638600Y-22908300D01*
X34589000Y-22900500D01*
X34538900Y-22893300D01*
X34488400Y-22886600D01*
X34437900Y-22880600D01*
X34387400Y-22875200D01*
X34337200Y-22870500D01*
X34302900Y-22868000D01*
X34261600Y-22865900D01*
X34214500Y-22864200D01*
X34162700Y-22862900D01*
X34107300Y-22862000D01*
X34049600Y-22861400D01*
X33990600Y-22861300D01*
X33931700Y-22861400D01*
X33873900Y-22862000D01*
X33818400Y-22863000D01*
X33766300Y-22864300D01*
X33718900Y-22866000D01*
X33677300Y-22868100D01*
X33642700Y-22870600D01*
X33595300Y-22874900D01*
X33548600Y-22879700D01*
X33502700Y-22884900D01*
X33457400Y-22890600D01*
X33412700Y-22896700D01*
X33368500Y-22903300D01*
X33324700Y-22910400D01*
X33281400Y-22918100D01*
X33238300Y-22926200D01*
X33195500Y-22934900D01*
X33152900Y-22944100D01*
X33110400Y-22953800D01*
X33067900Y-22964100D01*
X33025400Y-22975000D01*
X33008100Y-22979500D01*
X32992700Y-22983400D01*
X32979100Y-22986800D01*
X32967200Y-22989600D01*
X32956700Y-22991900D01*
X32947700Y-22993700D01*
X32939900Y-22995000D01*
X32933300Y-22995800D01*
X32927600Y-22996200D01*
X32922900Y-22996200D01*
X32918900Y-22995700D01*
X32915500Y-22994900D01*
X32912700Y-22993600D01*
X32910200Y-22992000D01*
X32908200Y-22990600D01*
X32905500Y-22988500D01*
X32902100Y-22985900D01*
X32897900Y-22982800D01*
X32893200Y-22979200D01*
X32888000Y-22975300D01*
X32882200Y-22970900D01*
X32876000Y-22966200D01*
X32869500Y-22961300D01*
X32862600Y-22956100D01*
X32855500Y-22950700D01*
X32848300Y-22945200D01*
X32840800Y-22939600D01*
X32833300Y-22933900D01*
X32794600Y-22905700D01*
X32754100Y-22878400D01*
X32712000Y-22852100D01*
X32668400Y-22826900D01*
X32623300Y-22802800D01*
X32577100Y-22779800D01*
X32529700Y-22758100D01*
X32481400Y-22737600D01*
X32432200Y-22718500D01*
X32382400Y-22700900D01*
X32332000Y-22684600D01*
X32281300Y-22670000D01*
X32230200Y-22656900D01*
X32179100Y-22645500D01*
X32162900Y-22642200D01*
X32147600Y-22639300D01*
X32133000Y-22636700D01*
X32119000Y-22634400D01*
X32105200Y-22632400D01*
X32091700Y-22630700D01*
X32078000Y-22629200D01*
X32064200Y-22628000D01*
X32049900Y-22626900D01*
X32034900Y-22626100D01*
X32019200Y-22625500D01*
X32002400Y-22625000D01*
X31984400Y-22624700D01*
X31965000Y-22624500D01*
X31938000Y-22624200D01*
X31914900Y-22624100D01*
X31895500Y-22624300D01*
X31879300Y-22625100D01*
X31866000Y-22626600D01*
X31855100Y-22629100D01*
X31846200Y-22632900D01*
X31838900Y-22638100D01*
X31832900Y-22644900D01*
X31827800Y-22653700D01*
X31823000Y-22664500D01*
X31818400Y-22677700D01*
X31813300Y-22693400D01*
X31807500Y-22711900D01*
X31797600Y-22745200D01*
X31788500Y-22779900D01*
X31780300Y-22815800D01*
X31772800Y-22853000D01*
X31766300Y-22891500D01*
X31760500Y-22931200D01*
X31755600Y-22972100D01*
X31751500Y-23014200D01*
X31748300Y-23057500D01*
X31745900Y-23102000D01*
X31744300Y-23147700D01*
X31743600Y-23194400D01*
X31743700Y-23242300D01*
X31744700Y-23291300D01*
X31745900Y-23326400D01*
X31747300Y-23359500D01*
X31749000Y-23390700D01*
X31750900Y-23420400D01*
X31753200Y-23448700D01*
X31755900Y-23475700D01*
X31758900Y-23501800D01*
X31762300Y-23527100D01*
X31766100Y-23551900D01*
X31770400Y-23576200D01*
X31775200Y-23600400D01*
X31780500Y-23624600D01*
X31786300Y-23649100D01*
X31792600Y-23674000D01*
X31794900Y-23682700D01*
X31797000Y-23691200D01*
X31799000Y-23699500D01*
X31800800Y-23707500D01*
X31802500Y-23715100D01*
X31803900Y-23722200D01*
X31805200Y-23728900D01*
X31806300Y-23735000D01*
X31807100Y-23740400D01*
X31807700Y-23745200D01*
X31808100Y-23749200D01*
X31808300Y-23752400D01*
X31808100Y-23754700D01*
X31807700Y-23756100D01*
X31806900Y-23757400D01*
X31805400Y-23759600D01*
X31803300Y-23762500D01*
X31800600Y-23766200D01*
X31797500Y-23770500D01*
X31793900Y-23775500D01*
X31789800Y-23781000D01*
X31785400Y-23787000D01*
X31780700Y-23793400D01*
X31775600Y-23800300D01*
X31770300Y-23807500D01*
X31764800Y-23814900D01*
X31759100Y-23822600D01*
X31753300Y-23830400D01*
X31715100Y-23883900D01*
X31678800Y-23939600D01*
X31644500Y-23997200D01*
X31612300Y-24056600D01*
X31582000Y-24117800D01*
X31553900Y-24180600D01*
X31527900Y-24244800D01*
X31504100Y-24310400D01*
X31482600Y-24377200D01*
X31463300Y-24445100D01*
X31446400Y-24514000D01*
X31431900Y-24583700D01*
X31419800Y-24654200D01*
X31410200Y-24725200D01*
X31407300Y-24753200D01*
X31404900Y-24783700D01*
X31402900Y-24816400D01*
X31401300Y-24850700D01*
X31400200Y-24886300D01*
X31399600Y-24922700D01*
X31399400Y-24959600D01*
X31399600Y-24996500D01*
X31400300Y-25033000D01*
X31401500Y-25068700D01*
X31403100Y-25103200D01*
X31405100Y-25136000D01*
X31407600Y-25166700D01*
X31410500Y-25195000D01*
X31417000Y-25244400D01*
X31425000Y-25294200D01*
X31434400Y-25344200D01*
X31445200Y-25394300D01*
X31457300Y-25444200D01*
X31470700Y-25493900D01*
X31485300Y-25543200D01*
X31501100Y-25591900D01*
X31518100Y-25639800D01*
X31536100Y-25686900D01*
X31555100Y-25732800D01*
X31575100Y-25777500D01*
X31596000Y-25820800D01*
X31617800Y-25862500D01*
X31685400Y-25977400D01*
X31760300Y-26086900D01*
X31842300Y-26190800D01*
X31931200Y-26289000D01*
X32026700Y-26381400D01*
X32128700Y-26467700D01*
X32236900Y-26547800D01*
X32351100Y-26621600D01*
X32471100Y-26688900D01*
X32596700Y-26749600D01*
X32727600Y-26803500D01*
X32863700Y-26850500D01*
X33004700Y-26890500D01*
X33150400Y-26923200D01*
X33164000Y-26925800D01*
X33177600Y-26928500D01*
X33191100Y-26931000D01*
X33204400Y-26933600D01*
X33217400Y-26936000D01*
X33230000Y-26938300D01*
X33242100Y-26940500D01*
X33253500Y-26942600D01*
X33264100Y-26944500D01*
X33273800Y-26946200D01*
X33282600Y-26947700D01*
X33290200Y-26948900D01*
X33296600Y-26949900D01*
X33301600Y-26950700D01*
X33338300Y-26955700D01*
X33290200Y-26992100D01*
X33275800Y-27003400D01*
X33260800Y-27016000D01*
X33245400Y-27029800D01*
X33229700Y-27044500D01*
X33213800Y-27060000D01*
X33197800Y-27076300D01*
X33182000Y-27093100D01*
X33166300Y-27110400D01*
X33150900Y-27128000D01*
X33136100Y-27145700D01*
X33121800Y-27163400D01*
X33108200Y-27181000D01*
X33095500Y-27198400D01*
X33083700Y-27215300D01*
X33065400Y-27243700D01*
X33047400Y-27273800D01*
X33029800Y-27305200D01*
X33012800Y-27338000D01*
X32996300Y-27371700D01*
X32980600Y-27406400D01*
X32965500Y-27441800D01*
X32951300Y-27477600D01*
X32938000Y-27513800D01*
X32925700Y-27550100D01*
X32914400Y-27586400D01*
X32904300Y-27622400D01*
X32895300Y-27658000D01*
X32887700Y-27693000D01*
X32881400Y-27724300D01*
X32876100Y-27753600D01*
X32871400Y-27782300D01*
X32867400Y-27811700D01*
X32864100Y-27843300D01*
X32861300Y-27878500D01*
X32858900Y-27918700D01*
X32857000Y-27965300D01*
X32855300Y-28019700D01*
X32854000Y-28083300D01*
X32852800Y-28157500D01*
X32851700Y-28243800D01*
X32850700Y-28343500D01*
X32849700Y-28458100D01*
X32844800Y-29019000D01*
X32826600Y-29064800D01*
X32823700Y-29071900D01*
X32820600Y-29078700D01*
X32817200Y-29085400D01*
X32813600Y-29092000D01*
X32809800Y-29098600D01*
X32805600Y-29105100D01*
X32801100Y-29111600D01*
X32796300Y-29118200D01*
X32791100Y-29124800D01*
X32785400Y-29131600D01*
X32779300Y-29138600D01*
X32772800Y-29145800D01*
X32765700Y-29153200D01*
X32758100Y-29160900D01*
X32743700Y-29174800D01*
X32729900Y-29187300D01*
X32716500Y-29198300D01*
X32703200Y-29208000D01*
X32689900Y-29216400D01*
X32676400Y-29223600D01*
X32662500Y-29229700D01*
X32648100Y-29234800D01*
X32633000Y-29238900D01*
X32616900Y-29242000D01*
X32599800Y-29244400D01*
X32581300Y-29245900D01*
X32561400Y-29246800D01*
X32539900Y-29247000D01*
X32521800Y-29246800D01*
X32504800Y-29246200D01*
X32488600Y-29244900D01*
X32472600Y-29243000D01*
X32456500Y-29240200D01*
X32439700Y-29236400D01*
X32421800Y-29231500D01*
X32402300Y-29225400D01*
X32380800Y-29217800D01*
X32356800Y-29208700D01*
X32329900Y-29198000D01*
X32299600Y-29185400D01*
X32265500Y-29171000D01*
X32227000Y-29154400D01*
X32136400Y-29114100D01*
X32047200Y-29071900D01*
X31959400Y-29028000D01*
X31873000Y-28982200D01*
X31787800Y-28934600D01*
X31703900Y-28885100D01*
X31621200Y-28833700D01*
X31539800Y-28780400D01*
X31459500Y-28725200D01*
X31380300Y-28668000D01*
X31302300Y-28608800D01*
X31225400Y-28547700D01*
X31149500Y-28484500D01*
X31074600Y-28419300D01*
X31046800Y-28394100D01*
X31016600Y-28366000D01*
X30984400Y-28335300D01*
X30950800Y-28302600D01*
X30916100Y-28268300D01*
X30880900Y-28233000D01*
X30845700Y-28197100D01*
X30810900Y-28161200D01*
X30776900Y-28125500D01*
X30744300Y-28090800D01*
X30713400Y-28057400D01*
X30684900Y-28025800D01*
X30659100Y-27996600D01*
X30636500Y-27970100D01*
X30626700Y-27958300D01*
X30616300Y-27945600D01*
X30605200Y-27932000D01*
X30593700Y-27917700D01*
X30581800Y-27902900D01*
X30569700Y-27887700D01*
X30557500Y-27872300D01*
X30545300Y-27856700D01*
X30533200Y-27841300D01*
X30521400Y-27826100D01*
X30509900Y-27811200D01*
X30499000Y-27796900D01*
X30488600Y-27783300D01*
X30479000Y-27770500D01*
X30388400Y-27644500D01*
X30302400Y-27515400D01*
X30221100Y-27383500D01*
X30144700Y-27249000D01*
X30073000Y-27111900D01*
X30006400Y-26972600D01*
X29944700Y-26831000D01*
X29888200Y-26687500D01*
X29836700Y-26542200D01*
X29790600Y-26395200D01*
X29749700Y-26246800D01*
X29714100Y-26097100D01*
X29684100Y-25946300D01*
X29659500Y-25794600D01*
X29638500Y-25625300D01*
X29624000Y-25455900D01*
X29615900Y-25286600D01*
X29614200Y-25117600D01*
X29618900Y-24948900D01*
X29629900Y-24780900D01*
X29647300Y-24613600D01*
X29671000Y-24447200D01*
X29701000Y-24281900D01*
X29737300Y-24117900D01*
X29779800Y-23955300D01*
X29828600Y-23794400D01*
X29883600Y-23635200D01*
X29944800Y-23477900D01*
X29958600Y-23445300D01*
X29974200Y-23409700D01*
X29991300Y-23371700D01*
X30009800Y-23331700D01*
X30029300Y-23290400D01*
X30049700Y-23248200D01*
X30070500Y-23205700D01*
X30091600Y-23163400D01*
X30112700Y-23121800D01*
X30133500Y-23081600D01*
X30153800Y-23043100D01*
X30173300Y-23007000D01*
X30191700Y-22973900D01*
X30208800Y-22944100D01*
X30226800Y-22913600D01*
X30245500Y-22882700D01*
X30264800Y-22851500D01*
X30284500Y-22820000D01*
X30304700Y-22788400D01*
X30325200Y-22756800D01*
X30346000Y-22725200D01*
X30367000Y-22693900D01*
X30388200Y-22662800D01*
X30409500Y-22632000D01*
X30430800Y-22601800D01*
X30452000Y-22572200D01*
X30473200Y-22543200D01*
X30494100Y-22515000D01*
X30680100Y-22283700D01*
X30879400Y-22066900D01*
X31091200Y-21865000D01*
X31314700Y-21678500D01*
X31549100Y-21507800D01*
X31793400Y-21353200D01*
X32047000Y-21215300D01*
X32308900Y-21094400D01*
X32578400Y-20990900D01*
X32854500Y-20905300D01*
X33136400Y-20838000D01*
X33423400Y-20789400D01*
X33714500Y-20759900D01*
X34009000Y-20750000D01*
X34191500Y-20753800D01*
G37*
%TD*%
M02*
