%TF.GenerationSoftware,KiCad,Pcbnew,9.0.9-9.0.9~ubuntu24.04.1*%
%TF.CreationDate,2026-09-01T08:34:25+02:00*%
%TF.ProjectId,daughtercard,64617567-6874-4657-9263-6172642e6b69,rev?*%
%TF.SameCoordinates,Original*%
%TF.FileFunction,Drillmap*%
%TF.FilePolarity,Positive*%
%FSLAX45Y45*%
G04 Gerber Fmt 4.5, Leading zero omitted, Abs format (unit mm)*
G04 Created by KiCad (PCBNEW 9.0.9-9.0.9~ubuntu24.04.1) date 2026-09-01 08:34:25*
%MOMM*%
%LPD*%
G01*
G04 APERTURE LIST*
%ADD10C,0.150000*%
%ADD11C,0.200000*%
%ADD12C,0.100000*%
%ADD13C,0.130000*%
%ADD14C,0.320000*%
G04 APERTURE END LIST*
D10*
X0Y0D02*
X7400000Y0D01*
X7400000Y-6000000D01*
X0Y-6000000D01*
X0Y0D01*
D11*
D12*
X345920Y-2143840D02*
X375920Y-2173840D01*
X375920Y-2143840D02*
X345920Y-2173840D01*
X428000Y-2492000D02*
X458000Y-2522000D01*
X458000Y-2492000D02*
X428000Y-2522000D01*
X693750Y-2746900D02*
X723750Y-2776900D01*
X723750Y-2746900D02*
X693750Y-2776900D01*
X854970Y-1838280D02*
X884970Y-1868280D01*
X884970Y-1838280D02*
X854970Y-1868280D01*
X1193750Y-2708940D02*
X1223750Y-2738940D01*
X1223750Y-2708940D02*
X1193750Y-2738940D01*
X1252720Y-4626600D02*
X1282720Y-4656600D01*
X1282720Y-4626600D02*
X1252720Y-4656600D01*
X1282630Y-3373880D02*
X1312630Y-3403880D01*
X1312630Y-3373880D02*
X1282630Y-3403880D01*
X1310600Y-2035110D02*
X1340600Y-2065110D01*
X1340600Y-2035110D02*
X1310600Y-2065110D01*
X1690000Y-4109340D02*
X1720000Y-4139340D01*
X1720000Y-4109340D02*
X1690000Y-4139340D01*
X1795570Y-3383570D02*
X1825570Y-3413570D01*
X1825570Y-3383570D02*
X1795570Y-3413570D01*
X1904200Y-1795000D02*
X1934200Y-1825000D01*
X1934200Y-1795000D02*
X1904200Y-1825000D01*
X1941270Y-4486260D02*
X1971270Y-4516260D01*
X1971270Y-4486260D02*
X1941270Y-4516260D01*
X2085530Y-3985000D02*
X2115530Y-4015000D01*
X2115530Y-3985000D02*
X2085530Y-4015000D01*
X2154810Y-4270800D02*
X2184810Y-4300800D01*
X2184810Y-4270800D02*
X2154810Y-4300800D01*
X2227820Y-3560850D02*
X2257820Y-3590850D01*
X2257820Y-3560850D02*
X2227820Y-3590850D01*
X2273570Y-2762320D02*
X2303570Y-2792320D01*
X2303570Y-2762320D02*
X2273570Y-2792320D01*
X2378750Y-3903110D02*
X2408750Y-3933110D01*
X2408750Y-3903110D02*
X2378750Y-3933110D01*
X2496520Y-3235820D02*
X2526520Y-3265820D01*
X2526520Y-3235820D02*
X2496520Y-3265820D01*
X2497800Y-4285000D02*
X2527800Y-4315000D01*
X2527800Y-4285000D02*
X2497800Y-4315000D01*
X2699240Y-3360080D02*
X2729240Y-3390080D01*
X2729240Y-3360080D02*
X2699240Y-3390080D01*
X2794180Y-3233080D02*
X2824180Y-3263080D01*
X2824180Y-3233080D02*
X2794180Y-3263080D01*
X2884170Y-3093610D02*
X2914170Y-3123610D01*
X2914170Y-3093610D02*
X2884170Y-3123610D01*
X3027240Y-3954200D02*
X3057240Y-3984200D01*
X3057240Y-3954200D02*
X3027240Y-3984200D01*
X3106500Y-4477510D02*
X3136500Y-4507510D01*
X3136500Y-4477510D02*
X3106500Y-4507510D01*
X3163140Y-3487080D02*
X3193140Y-3517080D01*
X3193140Y-3487080D02*
X3163140Y-3517080D01*
X3168210Y-1569740D02*
X3198210Y-1599740D01*
X3198210Y-1569740D02*
X3168210Y-1599740D01*
X3189060Y-1884500D02*
X3219060Y-1914500D01*
X3219060Y-1884500D02*
X3189060Y-1914500D01*
X3201590Y-1789760D02*
X3231590Y-1819760D01*
X3231590Y-1789760D02*
X3201590Y-1819760D01*
X3325770Y-3614080D02*
X3355770Y-3644080D01*
X3355770Y-3614080D02*
X3325770Y-3644080D01*
X3417010Y-3741080D02*
X3447010Y-3771080D01*
X3447010Y-3741080D02*
X3417010Y-3771080D01*
X3451110Y-1424110D02*
X3481110Y-1454110D01*
X3481110Y-1424110D02*
X3451110Y-1454110D01*
X3451110Y-2566580D02*
X3481110Y-2596580D01*
X3481110Y-2566580D02*
X3451110Y-2596580D01*
X3555850Y-4224310D02*
X3585850Y-4254310D01*
X3585850Y-4224310D02*
X3555850Y-4254310D01*
X3555850Y-4749500D02*
X3585850Y-4779500D01*
X3585850Y-4749500D02*
X3555850Y-4779500D01*
X3736860Y-1488610D02*
X3766860Y-1518610D01*
X3766860Y-1488610D02*
X3736860Y-1518610D01*
X3794940Y-2015000D02*
X3824940Y-2045000D01*
X3824940Y-2015000D02*
X3794940Y-2045000D01*
X3882500Y-2332500D02*
X3912500Y-2362500D01*
X3912500Y-2332500D02*
X3882500Y-2362500D01*
X3895720Y-4113820D02*
X3925720Y-4143820D01*
X3925720Y-4113820D02*
X3895720Y-4143820D01*
X3957500Y-3157500D02*
X3987500Y-3187500D01*
X3987500Y-3157500D02*
X3957500Y-3187500D01*
X4007500Y-2457500D02*
X4037500Y-2487500D01*
X4037500Y-2457500D02*
X4007500Y-2487500D01*
X4090880Y-2595000D02*
X4120880Y-2625000D01*
X4120880Y-2595000D02*
X4090880Y-2625000D01*
X4107810Y-2904000D02*
X4137810Y-2934000D01*
X4137810Y-2904000D02*
X4107810Y-2934000D01*
X4115850Y-3031000D02*
X4145850Y-3061000D01*
X4145850Y-3031000D02*
X4115850Y-3061000D01*
X4174490Y-4190180D02*
X4204490Y-4220180D01*
X4204490Y-4190180D02*
X4174490Y-4220180D01*
X4305470Y-2828920D02*
X4335470Y-2858920D01*
X4335470Y-2828920D02*
X4305470Y-2858920D01*
X4402500Y-3658970D02*
X4432500Y-3688970D01*
X4432500Y-3658970D02*
X4402500Y-3688970D01*
X4540370Y-2877940D02*
X4570370Y-2907940D01*
X4570370Y-2877940D02*
X4540370Y-2907940D01*
X4719960Y-981770D02*
X4749960Y-1011770D01*
X4749960Y-981770D02*
X4719960Y-1011770D01*
X4719960Y-3664570D02*
X4749960Y-3694570D01*
X4749960Y-3664570D02*
X4719960Y-3694570D01*
X5660460Y-1947620D02*
X5690460Y-1977620D01*
X5690460Y-1947620D02*
X5660460Y-1977620D01*
X5753050Y-2751210D02*
X5783050Y-2781210D01*
X5783050Y-2751210D02*
X5753050Y-2781210D01*
X6176250Y-1705800D02*
X6206250Y-1735800D01*
X6206250Y-1705800D02*
X6176250Y-1735800D01*
X6176250Y-2307100D02*
X6206250Y-2337100D01*
X6206250Y-2307100D02*
X6176250Y-2337100D01*
X6267950Y-3098880D02*
X6297950Y-3128880D01*
X6297950Y-3098880D02*
X6267950Y-3128880D01*
X6409330Y-1706620D02*
X6439330Y-1736620D01*
X6439330Y-1706620D02*
X6409330Y-1736620D01*
X6409330Y-2661920D02*
X6439330Y-2691920D01*
X6439330Y-2661920D02*
X6409330Y-2691920D01*
X6491100Y-2075210D02*
X6521100Y-2105210D01*
X6521100Y-2075210D02*
X6491100Y-2105210D01*
X6891250Y-2304090D02*
X6921250Y-2334090D01*
X6921250Y-2304090D02*
X6891250Y-2334090D01*
X6976250Y-2122850D02*
X7006250Y-2152850D01*
X7006250Y-2122850D02*
X6976250Y-2152850D01*
X512500Y-992500D02*
G75*
G02*
X472500Y-992500I-20000J0D01*
G01*
X472500Y-992500D02*
G75*
G02*
X512500Y-992500I20000J0D01*
G01*
X512500Y-1492500D02*
G75*
G02*
X472500Y-1492500I-20000J0D01*
G01*
X472500Y-1492500D02*
G75*
G02*
X512500Y-1492500I20000J0D01*
G01*
X512500Y-1992500D02*
G75*
G02*
X472500Y-1992500I-20000J0D01*
G01*
X472500Y-1992500D02*
G75*
G02*
X512500Y-1992500I20000J0D01*
G01*
X512500Y-2992500D02*
G75*
G02*
X472500Y-2992500I-20000J0D01*
G01*
X472500Y-2992500D02*
G75*
G02*
X512500Y-2992500I20000J0D01*
G01*
X512500Y-3492500D02*
G75*
G02*
X472500Y-3492500I-20000J0D01*
G01*
X472500Y-3492500D02*
G75*
G02*
X512500Y-3492500I20000J0D01*
G01*
X512500Y-4492500D02*
G75*
G02*
X472500Y-4492500I-20000J0D01*
G01*
X472500Y-4492500D02*
G75*
G02*
X512500Y-4492500I20000J0D01*
G01*
X512500Y-4992500D02*
G75*
G02*
X472500Y-4992500I-20000J0D01*
G01*
X472500Y-4992500D02*
G75*
G02*
X512500Y-4992500I20000J0D01*
G01*
X1012500Y-492500D02*
G75*
G02*
X972500Y-492500I-20000J0D01*
G01*
X972500Y-492500D02*
G75*
G02*
X1012500Y-492500I20000J0D01*
G01*
X1012500Y-992500D02*
G75*
G02*
X972500Y-992500I-20000J0D01*
G01*
X972500Y-992500D02*
G75*
G02*
X1012500Y-992500I20000J0D01*
G01*
X1012500Y-1492500D02*
G75*
G02*
X972500Y-1492500I-20000J0D01*
G01*
X972500Y-1492500D02*
G75*
G02*
X1012500Y-1492500I20000J0D01*
G01*
X1012500Y-2992500D02*
G75*
G02*
X972500Y-2992500I-20000J0D01*
G01*
X972500Y-2992500D02*
G75*
G02*
X1012500Y-2992500I20000J0D01*
G01*
X1012500Y-3492500D02*
G75*
G02*
X972500Y-3492500I-20000J0D01*
G01*
X972500Y-3492500D02*
G75*
G02*
X1012500Y-3492500I20000J0D01*
G01*
X1012500Y-4992500D02*
G75*
G02*
X972500Y-4992500I-20000J0D01*
G01*
X972500Y-4992500D02*
G75*
G02*
X1012500Y-4992500I20000J0D01*
G01*
X1012500Y-5492500D02*
G75*
G02*
X972500Y-5492500I-20000J0D01*
G01*
X972500Y-5492500D02*
G75*
G02*
X1012500Y-5492500I20000J0D01*
G01*
X1512500Y-492500D02*
G75*
G02*
X1472500Y-492500I-20000J0D01*
G01*
X1472500Y-492500D02*
G75*
G02*
X1512500Y-492500I20000J0D01*
G01*
X1512500Y-992500D02*
G75*
G02*
X1472500Y-992500I-20000J0D01*
G01*
X1472500Y-992500D02*
G75*
G02*
X1512500Y-992500I20000J0D01*
G01*
X1512500Y-1492500D02*
G75*
G02*
X1472500Y-1492500I-20000J0D01*
G01*
X1472500Y-1492500D02*
G75*
G02*
X1512500Y-1492500I20000J0D01*
G01*
X1512500Y-2992500D02*
G75*
G02*
X1472500Y-2992500I-20000J0D01*
G01*
X1472500Y-2992500D02*
G75*
G02*
X1512500Y-2992500I20000J0D01*
G01*
X1512500Y-4492500D02*
G75*
G02*
X1472500Y-4492500I-20000J0D01*
G01*
X1472500Y-4492500D02*
G75*
G02*
X1512500Y-4492500I20000J0D01*
G01*
X1512500Y-5492500D02*
G75*
G02*
X1472500Y-5492500I-20000J0D01*
G01*
X1472500Y-5492500D02*
G75*
G02*
X1512500Y-5492500I20000J0D01*
G01*
X1620000Y-1615000D02*
G75*
G02*
X1580000Y-1615000I-20000J0D01*
G01*
X1580000Y-1615000D02*
G75*
G02*
X1620000Y-1615000I20000J0D01*
G01*
X1915000Y-3160000D02*
G75*
G02*
X1875000Y-3160000I-20000J0D01*
G01*
X1875000Y-3160000D02*
G75*
G02*
X1915000Y-3160000I20000J0D01*
G01*
X1915000Y-3820000D02*
G75*
G02*
X1875000Y-3820000I-20000J0D01*
G01*
X1875000Y-3820000D02*
G75*
G02*
X1915000Y-3820000I20000J0D01*
G01*
X2012500Y-492500D02*
G75*
G02*
X1972500Y-492500I-20000J0D01*
G01*
X1972500Y-492500D02*
G75*
G02*
X2012500Y-492500I20000J0D01*
G01*
X2012500Y-1492500D02*
G75*
G02*
X1972500Y-1492500I-20000J0D01*
G01*
X1972500Y-1492500D02*
G75*
G02*
X2012500Y-1492500I20000J0D01*
G01*
X2012500Y-2992500D02*
G75*
G02*
X1972500Y-2992500I-20000J0D01*
G01*
X1972500Y-2992500D02*
G75*
G02*
X2012500Y-2992500I20000J0D01*
G01*
X2012500Y-3492500D02*
G75*
G02*
X1972500Y-3492500I-20000J0D01*
G01*
X1972500Y-3492500D02*
G75*
G02*
X2012500Y-3492500I20000J0D01*
G01*
X2012500Y-4992500D02*
G75*
G02*
X1972500Y-4992500I-20000J0D01*
G01*
X1972500Y-4992500D02*
G75*
G02*
X2012500Y-4992500I20000J0D01*
G01*
X2055000Y-2600000D02*
G75*
G02*
X2015000Y-2600000I-20000J0D01*
G01*
X2015000Y-2600000D02*
G75*
G02*
X2055000Y-2600000I20000J0D01*
G01*
X2220000Y-1670000D02*
G75*
G02*
X2180000Y-1670000I-20000J0D01*
G01*
X2180000Y-1670000D02*
G75*
G02*
X2220000Y-1670000I20000J0D01*
G01*
X2226250Y-3065000D02*
G75*
G02*
X2186250Y-3065000I-20000J0D01*
G01*
X2186250Y-3065000D02*
G75*
G02*
X2226250Y-3065000I20000J0D01*
G01*
X2226250Y-3765000D02*
G75*
G02*
X2186250Y-3765000I-20000J0D01*
G01*
X2186250Y-3765000D02*
G75*
G02*
X2226250Y-3765000I20000J0D01*
G01*
X2512500Y-492500D02*
G75*
G02*
X2472500Y-492500I-20000J0D01*
G01*
X2472500Y-492500D02*
G75*
G02*
X2512500Y-492500I20000J0D01*
G01*
X2512500Y-1492500D02*
G75*
G02*
X2472500Y-1492500I-20000J0D01*
G01*
X2472500Y-1492500D02*
G75*
G02*
X2512500Y-1492500I20000J0D01*
G01*
X2512500Y-4992500D02*
G75*
G02*
X2472500Y-4992500I-20000J0D01*
G01*
X2472500Y-4992500D02*
G75*
G02*
X2512500Y-4992500I20000J0D01*
G01*
X2935000Y-1650000D02*
G75*
G02*
X2895000Y-1650000I-20000J0D01*
G01*
X2895000Y-1650000D02*
G75*
G02*
X2935000Y-1650000I20000J0D01*
G01*
X3012500Y-492500D02*
G75*
G02*
X2972500Y-492500I-20000J0D01*
G01*
X2972500Y-492500D02*
G75*
G02*
X3012500Y-492500I20000J0D01*
G01*
X3200000Y-4300000D02*
G75*
G02*
X3160000Y-4300000I-20000J0D01*
G01*
X3160000Y-4300000D02*
G75*
G02*
X3200000Y-4300000I20000J0D01*
G01*
X3512500Y-492500D02*
G75*
G02*
X3472500Y-492500I-20000J0D01*
G01*
X3472500Y-492500D02*
G75*
G02*
X3512500Y-492500I20000J0D01*
G01*
X3512500Y-5492500D02*
G75*
G02*
X3472500Y-5492500I-20000J0D01*
G01*
X3472500Y-5492500D02*
G75*
G02*
X3512500Y-5492500I20000J0D01*
G01*
X4012500Y-492500D02*
G75*
G02*
X3972500Y-492500I-20000J0D01*
G01*
X3972500Y-492500D02*
G75*
G02*
X4012500Y-492500I20000J0D01*
G01*
X4330000Y-2610000D02*
G75*
G02*
X4290000Y-2610000I-20000J0D01*
G01*
X4290000Y-2610000D02*
G75*
G02*
X4330000Y-2610000I20000J0D01*
G01*
X4512500Y-492500D02*
G75*
G02*
X4472500Y-492500I-20000J0D01*
G01*
X4472500Y-492500D02*
G75*
G02*
X4512500Y-492500I20000J0D01*
G01*
X4512500Y-4992500D02*
G75*
G02*
X4472500Y-4992500I-20000J0D01*
G01*
X4472500Y-4992500D02*
G75*
G02*
X4512500Y-4992500I20000J0D01*
G01*
X4512500Y-5492500D02*
G75*
G02*
X4472500Y-5492500I-20000J0D01*
G01*
X4472500Y-5492500D02*
G75*
G02*
X4512500Y-5492500I20000J0D01*
G01*
X4620000Y-4160000D02*
G75*
G02*
X4580000Y-4160000I-20000J0D01*
G01*
X4580000Y-4160000D02*
G75*
G02*
X4620000Y-4160000I20000J0D01*
G01*
X5012500Y-492500D02*
G75*
G02*
X4972500Y-492500I-20000J0D01*
G01*
X4972500Y-492500D02*
G75*
G02*
X5012500Y-492500I20000J0D01*
G01*
X5512500Y-3492500D02*
G75*
G02*
X5472500Y-3492500I-20000J0D01*
G01*
X5472500Y-3492500D02*
G75*
G02*
X5512500Y-3492500I20000J0D01*
G01*
X5512500Y-3992500D02*
G75*
G02*
X5472500Y-3992500I-20000J0D01*
G01*
X5472500Y-3992500D02*
G75*
G02*
X5512500Y-3992500I20000J0D01*
G01*
X5512500Y-4992500D02*
G75*
G02*
X5472500Y-4992500I-20000J0D01*
G01*
X5472500Y-4992500D02*
G75*
G02*
X5512500Y-4992500I20000J0D01*
G01*
X5946250Y-2595000D02*
G75*
G02*
X5906250Y-2595000I-20000J0D01*
G01*
X5906250Y-2595000D02*
G75*
G02*
X5946250Y-2595000I20000J0D01*
G01*
X6012500Y-492500D02*
G75*
G02*
X5972500Y-492500I-20000J0D01*
G01*
X5972500Y-492500D02*
G75*
G02*
X6012500Y-492500I20000J0D01*
G01*
X6012500Y-992500D02*
G75*
G02*
X5972500Y-992500I-20000J0D01*
G01*
X5972500Y-992500D02*
G75*
G02*
X6012500Y-992500I20000J0D01*
G01*
X6012500Y-5492500D02*
G75*
G02*
X5972500Y-5492500I-20000J0D01*
G01*
X5972500Y-5492500D02*
G75*
G02*
X6012500Y-5492500I20000J0D01*
G01*
X6512500Y-492500D02*
G75*
G02*
X6472500Y-492500I-20000J0D01*
G01*
X6472500Y-492500D02*
G75*
G02*
X6512500Y-492500I20000J0D01*
G01*
X6512500Y-992500D02*
G75*
G02*
X6472500Y-992500I-20000J0D01*
G01*
X6472500Y-992500D02*
G75*
G02*
X6512500Y-992500I20000J0D01*
G01*
X6512500Y-4992500D02*
G75*
G02*
X6472500Y-4992500I-20000J0D01*
G01*
X6472500Y-4992500D02*
G75*
G02*
X6512500Y-4992500I20000J0D01*
G01*
X6512500Y-5492500D02*
G75*
G02*
X6472500Y-5492500I-20000J0D01*
G01*
X6472500Y-5492500D02*
G75*
G02*
X6512500Y-5492500I20000J0D01*
G01*
X6926250Y-2735000D02*
G75*
G02*
X6886250Y-2735000I-20000J0D01*
G01*
X6886250Y-2735000D02*
G75*
G02*
X6926250Y-2735000I20000J0D01*
G01*
X7012500Y-992500D02*
G75*
G02*
X6972500Y-992500I-20000J0D01*
G01*
X6972500Y-992500D02*
G75*
G02*
X7012500Y-992500I20000J0D01*
G01*
X7012500Y-2992500D02*
G75*
G02*
X6972500Y-2992500I-20000J0D01*
G01*
X6972500Y-2992500D02*
G75*
G02*
X7012500Y-2992500I20000J0D01*
G01*
X7012500Y-4492500D02*
G75*
G02*
X6972500Y-4492500I-20000J0D01*
G01*
X6972500Y-4492500D02*
G75*
G02*
X7012500Y-4492500I20000J0D01*
G01*
X7012500Y-4992500D02*
G75*
G02*
X6972500Y-4992500I-20000J0D01*
G01*
X6972500Y-4992500D02*
G75*
G02*
X7012500Y-4992500I20000J0D01*
G01*
X1884000Y-550000D02*
X1884000Y-650000D01*
X1834000Y-600000D02*
X1934000Y-600000D01*
X1884000Y-804000D02*
X1884000Y-904000D01*
X1834000Y-854000D02*
X1934000Y-854000D01*
X1884000Y-5096000D02*
X1884000Y-5196000D01*
X1834000Y-5146000D02*
X1934000Y-5146000D01*
X1884000Y-5350000D02*
X1884000Y-5450000D01*
X1834000Y-5400000D02*
X1934000Y-5400000D01*
X2138000Y-550000D02*
X2138000Y-650000D01*
X2088000Y-600000D02*
X2188000Y-600000D01*
X2138000Y-804000D02*
X2138000Y-904000D01*
X2088000Y-854000D02*
X2188000Y-854000D01*
X2138000Y-5096000D02*
X2138000Y-5196000D01*
X2088000Y-5146000D02*
X2188000Y-5146000D01*
X2138000Y-5350000D02*
X2138000Y-5450000D01*
X2088000Y-5400000D02*
X2188000Y-5400000D01*
X2392000Y-550000D02*
X2392000Y-650000D01*
X2342000Y-600000D02*
X2442000Y-600000D01*
X2392000Y-804000D02*
X2392000Y-904000D01*
X2342000Y-854000D02*
X2442000Y-854000D01*
X2392000Y-5096000D02*
X2392000Y-5196000D01*
X2342000Y-5146000D02*
X2442000Y-5146000D01*
X2392000Y-5350000D02*
X2392000Y-5450000D01*
X2342000Y-5400000D02*
X2442000Y-5400000D01*
X2646000Y-550000D02*
X2646000Y-650000D01*
X2596000Y-600000D02*
X2696000Y-600000D01*
X2646000Y-804000D02*
X2646000Y-904000D01*
X2596000Y-854000D02*
X2696000Y-854000D01*
X2646000Y-5096000D02*
X2646000Y-5196000D01*
X2596000Y-5146000D02*
X2696000Y-5146000D01*
X2646000Y-5350000D02*
X2646000Y-5450000D01*
X2596000Y-5400000D02*
X2696000Y-5400000D01*
X2900000Y-550000D02*
X2900000Y-650000D01*
X2850000Y-600000D02*
X2950000Y-600000D01*
X2900000Y-804000D02*
X2900000Y-904000D01*
X2850000Y-854000D02*
X2950000Y-854000D01*
X2900000Y-5096000D02*
X2900000Y-5196000D01*
X2850000Y-5146000D02*
X2950000Y-5146000D01*
X2900000Y-5350000D02*
X2900000Y-5450000D01*
X2850000Y-5400000D02*
X2950000Y-5400000D01*
X3900000Y-5050000D02*
X3900000Y-5150000D01*
X3850000Y-5100000D02*
X3950000Y-5100000D01*
X3900000Y-5304000D02*
X3900000Y-5404000D01*
X3850000Y-5354000D02*
X3950000Y-5354000D01*
X3900000Y-5558000D02*
X3900000Y-5658000D01*
X3850000Y-5608000D02*
X3950000Y-5608000D01*
X6100000Y-3446000D02*
X6100000Y-3546000D01*
X6050000Y-3496000D02*
X6150000Y-3496000D01*
X6100000Y-3700000D02*
X6100000Y-3800000D01*
X6050000Y-3750000D02*
X6150000Y-3750000D01*
X6354000Y-3446000D02*
X6354000Y-3546000D01*
X6304000Y-3496000D02*
X6404000Y-3496000D01*
X6354000Y-3700000D02*
X6354000Y-3800000D01*
X6304000Y-3750000D02*
X6404000Y-3750000D01*
X6608000Y-3446000D02*
X6608000Y-3546000D01*
X6558000Y-3496000D02*
X6658000Y-3496000D01*
X6608000Y-3700000D02*
X6608000Y-3800000D01*
X6558000Y-3750000D02*
X6658000Y-3750000D01*
X6862000Y-3446000D02*
X6862000Y-3546000D01*
X6812000Y-3496000D02*
X6912000Y-3496000D01*
X6862000Y-3700000D02*
X6862000Y-3800000D01*
X6812000Y-3750000D02*
X6912000Y-3750000D01*
X7116000Y-3446000D02*
X7116000Y-3546000D01*
X7066000Y-3496000D02*
X7166000Y-3496000D01*
X7116000Y-3700000D02*
X7116000Y-3800000D01*
X7066000Y-3750000D02*
X7166000Y-3750000D01*
D13*
X5137962Y-745962D02*
X5137962Y-654038D01*
X5046038Y-654038D01*
X5046038Y-745962D01*
X5137962Y-745962D01*
X5137962Y-5345962D02*
X5137962Y-5254038D01*
X5046038Y-5254038D01*
X5046038Y-5345962D01*
X5137962Y-5345962D01*
X5645962Y-745962D02*
X5645962Y-654038D01*
X5554038Y-654038D01*
X5554038Y-745962D01*
X5645962Y-745962D01*
X5645962Y-5345962D02*
X5645962Y-5254038D01*
X5554038Y-5254038D01*
X5554038Y-5345962D01*
X5645962Y-5345962D01*
D14*
X400000Y-560000D02*
X560000Y-400000D01*
X400000Y-240000D01*
X240000Y-400000D01*
X400000Y-560000D01*
X400000Y-5760000D02*
X560000Y-5600000D01*
X400000Y-5440000D01*
X240000Y-5600000D01*
X400000Y-5760000D01*
X7000000Y-560000D02*
X7160000Y-400000D01*
X7000000Y-240000D01*
X6840000Y-400000D01*
X7000000Y-560000D01*
X7000000Y-5760000D02*
X7160000Y-5600000D01*
X7000000Y-5440000D01*
X6840000Y-5600000D01*
X7000000Y-5760000D01*
D11*
X253277Y-6318984D02*
X253277Y-6118984D01*
X253277Y-6118984D02*
X300896Y-6118984D01*
X300896Y-6118984D02*
X329467Y-6128508D01*
X329467Y-6128508D02*
X348515Y-6147555D01*
X348515Y-6147555D02*
X358039Y-6166603D01*
X358039Y-6166603D02*
X367562Y-6204698D01*
X367562Y-6204698D02*
X367562Y-6233269D01*
X367562Y-6233269D02*
X358039Y-6271365D01*
X358039Y-6271365D02*
X348515Y-6290412D01*
X348515Y-6290412D02*
X329467Y-6309460D01*
X329467Y-6309460D02*
X300896Y-6318984D01*
X300896Y-6318984D02*
X253277Y-6318984D01*
X453277Y-6318984D02*
X453277Y-6185650D01*
X453277Y-6223746D02*
X462801Y-6204698D01*
X462801Y-6204698D02*
X472324Y-6195174D01*
X472324Y-6195174D02*
X491372Y-6185650D01*
X491372Y-6185650D02*
X510420Y-6185650D01*
X577086Y-6318984D02*
X577086Y-6185650D01*
X577086Y-6118984D02*
X567563Y-6128508D01*
X567563Y-6128508D02*
X577086Y-6138031D01*
X577086Y-6138031D02*
X586610Y-6128508D01*
X586610Y-6128508D02*
X577086Y-6118984D01*
X577086Y-6118984D02*
X577086Y-6138031D01*
X700896Y-6318984D02*
X681848Y-6309460D01*
X681848Y-6309460D02*
X672324Y-6290412D01*
X672324Y-6290412D02*
X672324Y-6118984D01*
X805658Y-6318984D02*
X786610Y-6309460D01*
X786610Y-6309460D02*
X777086Y-6290412D01*
X777086Y-6290412D02*
X777086Y-6118984D01*
X1034229Y-6318984D02*
X1034229Y-6118984D01*
X1034229Y-6118984D02*
X1100896Y-6261841D01*
X1100896Y-6261841D02*
X1167563Y-6118984D01*
X1167563Y-6118984D02*
X1167563Y-6318984D01*
X1348515Y-6318984D02*
X1348515Y-6214222D01*
X1348515Y-6214222D02*
X1338991Y-6195174D01*
X1338991Y-6195174D02*
X1319944Y-6185650D01*
X1319944Y-6185650D02*
X1281848Y-6185650D01*
X1281848Y-6185650D02*
X1262801Y-6195174D01*
X1348515Y-6309460D02*
X1329467Y-6318984D01*
X1329467Y-6318984D02*
X1281848Y-6318984D01*
X1281848Y-6318984D02*
X1262801Y-6309460D01*
X1262801Y-6309460D02*
X1253277Y-6290412D01*
X1253277Y-6290412D02*
X1253277Y-6271365D01*
X1253277Y-6271365D02*
X1262801Y-6252317D01*
X1262801Y-6252317D02*
X1281848Y-6242793D01*
X1281848Y-6242793D02*
X1329467Y-6242793D01*
X1329467Y-6242793D02*
X1348515Y-6233269D01*
X1443753Y-6185650D02*
X1443753Y-6385650D01*
X1443753Y-6195174D02*
X1462801Y-6185650D01*
X1462801Y-6185650D02*
X1500896Y-6185650D01*
X1500896Y-6185650D02*
X1519943Y-6195174D01*
X1519943Y-6195174D02*
X1529467Y-6204698D01*
X1529467Y-6204698D02*
X1538991Y-6223746D01*
X1538991Y-6223746D02*
X1538991Y-6280888D01*
X1538991Y-6280888D02*
X1529467Y-6299936D01*
X1529467Y-6299936D02*
X1519943Y-6309460D01*
X1519943Y-6309460D02*
X1500896Y-6318984D01*
X1500896Y-6318984D02*
X1462801Y-6318984D01*
X1462801Y-6318984D02*
X1443753Y-6309460D01*
X1624705Y-6299936D02*
X1634229Y-6309460D01*
X1634229Y-6309460D02*
X1624705Y-6318984D01*
X1624705Y-6318984D02*
X1615182Y-6309460D01*
X1615182Y-6309460D02*
X1624705Y-6299936D01*
X1624705Y-6299936D02*
X1624705Y-6318984D01*
X1624705Y-6195174D02*
X1634229Y-6204698D01*
X1634229Y-6204698D02*
X1624705Y-6214222D01*
X1624705Y-6214222D02*
X1615182Y-6204698D01*
X1615182Y-6204698D02*
X1624705Y-6195174D01*
X1624705Y-6195174D02*
X1624705Y-6214222D01*
D12*
X-37500Y-6632500D02*
X-7500Y-6662500D01*
X-7500Y-6632500D02*
X-37500Y-6662500D01*
D11*
X291372Y-6538984D02*
X310420Y-6538984D01*
X310420Y-6538984D02*
X329467Y-6548508D01*
X329467Y-6548508D02*
X338991Y-6558031D01*
X338991Y-6558031D02*
X348515Y-6577079D01*
X348515Y-6577079D02*
X358039Y-6615174D01*
X358039Y-6615174D02*
X358039Y-6662793D01*
X358039Y-6662793D02*
X348515Y-6700888D01*
X348515Y-6700888D02*
X338991Y-6719936D01*
X338991Y-6719936D02*
X329467Y-6729460D01*
X329467Y-6729460D02*
X310420Y-6738984D01*
X310420Y-6738984D02*
X291372Y-6738984D01*
X291372Y-6738984D02*
X272324Y-6729460D01*
X272324Y-6729460D02*
X262801Y-6719936D01*
X262801Y-6719936D02*
X253277Y-6700888D01*
X253277Y-6700888D02*
X243753Y-6662793D01*
X243753Y-6662793D02*
X243753Y-6615174D01*
X243753Y-6615174D02*
X253277Y-6577079D01*
X253277Y-6577079D02*
X262801Y-6558031D01*
X262801Y-6558031D02*
X272324Y-6548508D01*
X272324Y-6548508D02*
X291372Y-6538984D01*
X443753Y-6719936D02*
X453277Y-6729460D01*
X453277Y-6729460D02*
X443753Y-6738984D01*
X443753Y-6738984D02*
X434229Y-6729460D01*
X434229Y-6729460D02*
X443753Y-6719936D01*
X443753Y-6719936D02*
X443753Y-6738984D01*
X519943Y-6538984D02*
X643753Y-6538984D01*
X643753Y-6538984D02*
X577086Y-6615174D01*
X577086Y-6615174D02*
X605658Y-6615174D01*
X605658Y-6615174D02*
X624705Y-6624698D01*
X624705Y-6624698D02*
X634229Y-6634222D01*
X634229Y-6634222D02*
X643753Y-6653269D01*
X643753Y-6653269D02*
X643753Y-6700888D01*
X643753Y-6700888D02*
X634229Y-6719936D01*
X634229Y-6719936D02*
X624705Y-6729460D01*
X624705Y-6729460D02*
X605658Y-6738984D01*
X605658Y-6738984D02*
X548515Y-6738984D01*
X548515Y-6738984D02*
X529467Y-6729460D01*
X529467Y-6729460D02*
X519943Y-6719936D01*
X767562Y-6538984D02*
X786610Y-6538984D01*
X786610Y-6538984D02*
X805658Y-6548508D01*
X805658Y-6548508D02*
X815182Y-6558031D01*
X815182Y-6558031D02*
X824705Y-6577079D01*
X824705Y-6577079D02*
X834229Y-6615174D01*
X834229Y-6615174D02*
X834229Y-6662793D01*
X834229Y-6662793D02*
X824705Y-6700888D01*
X824705Y-6700888D02*
X815182Y-6719936D01*
X815182Y-6719936D02*
X805658Y-6729460D01*
X805658Y-6729460D02*
X786610Y-6738984D01*
X786610Y-6738984D02*
X767562Y-6738984D01*
X767562Y-6738984D02*
X748515Y-6729460D01*
X748515Y-6729460D02*
X738991Y-6719936D01*
X738991Y-6719936D02*
X729467Y-6700888D01*
X729467Y-6700888D02*
X719943Y-6662793D01*
X719943Y-6662793D02*
X719943Y-6615174D01*
X719943Y-6615174D02*
X729467Y-6577079D01*
X729467Y-6577079D02*
X738991Y-6558031D01*
X738991Y-6558031D02*
X748515Y-6548508D01*
X748515Y-6548508D02*
X767562Y-6538984D01*
X958039Y-6538984D02*
X977086Y-6538984D01*
X977086Y-6538984D02*
X996134Y-6548508D01*
X996134Y-6548508D02*
X1005658Y-6558031D01*
X1005658Y-6558031D02*
X1015182Y-6577079D01*
X1015182Y-6577079D02*
X1024705Y-6615174D01*
X1024705Y-6615174D02*
X1024705Y-6662793D01*
X1024705Y-6662793D02*
X1015182Y-6700888D01*
X1015182Y-6700888D02*
X1005658Y-6719936D01*
X1005658Y-6719936D02*
X996134Y-6729460D01*
X996134Y-6729460D02*
X977086Y-6738984D01*
X977086Y-6738984D02*
X958039Y-6738984D01*
X958039Y-6738984D02*
X938991Y-6729460D01*
X938991Y-6729460D02*
X929467Y-6719936D01*
X929467Y-6719936D02*
X919943Y-6700888D01*
X919943Y-6700888D02*
X910420Y-6662793D01*
X910420Y-6662793D02*
X910420Y-6615174D01*
X910420Y-6615174D02*
X919943Y-6577079D01*
X919943Y-6577079D02*
X929467Y-6558031D01*
X929467Y-6558031D02*
X938991Y-6548508D01*
X938991Y-6548508D02*
X958039Y-6538984D01*
X1110420Y-6738984D02*
X1110420Y-6605650D01*
X1110420Y-6624698D02*
X1119944Y-6615174D01*
X1119944Y-6615174D02*
X1138991Y-6605650D01*
X1138991Y-6605650D02*
X1167563Y-6605650D01*
X1167563Y-6605650D02*
X1186610Y-6615174D01*
X1186610Y-6615174D02*
X1196134Y-6634222D01*
X1196134Y-6634222D02*
X1196134Y-6738984D01*
X1196134Y-6634222D02*
X1205658Y-6615174D01*
X1205658Y-6615174D02*
X1224705Y-6605650D01*
X1224705Y-6605650D02*
X1253277Y-6605650D01*
X1253277Y-6605650D02*
X1272325Y-6615174D01*
X1272325Y-6615174D02*
X1281848Y-6634222D01*
X1281848Y-6634222D02*
X1281848Y-6738984D01*
X1377086Y-6738984D02*
X1377086Y-6605650D01*
X1377086Y-6624698D02*
X1386610Y-6615174D01*
X1386610Y-6615174D02*
X1405658Y-6605650D01*
X1405658Y-6605650D02*
X1434229Y-6605650D01*
X1434229Y-6605650D02*
X1453277Y-6615174D01*
X1453277Y-6615174D02*
X1462801Y-6634222D01*
X1462801Y-6634222D02*
X1462801Y-6738984D01*
X1462801Y-6634222D02*
X1472324Y-6615174D01*
X1472324Y-6615174D02*
X1491372Y-6605650D01*
X1491372Y-6605650D02*
X1519943Y-6605650D01*
X1519943Y-6605650D02*
X1538991Y-6615174D01*
X1538991Y-6615174D02*
X1548515Y-6634222D01*
X1548515Y-6634222D02*
X1548515Y-6738984D01*
X1938991Y-6529460D02*
X1767563Y-6786603D01*
X2196134Y-6538984D02*
X2215182Y-6538984D01*
X2215182Y-6538984D02*
X2234229Y-6548508D01*
X2234229Y-6548508D02*
X2243753Y-6558031D01*
X2243753Y-6558031D02*
X2253277Y-6577079D01*
X2253277Y-6577079D02*
X2262801Y-6615174D01*
X2262801Y-6615174D02*
X2262801Y-6662793D01*
X2262801Y-6662793D02*
X2253277Y-6700888D01*
X2253277Y-6700888D02*
X2243753Y-6719936D01*
X2243753Y-6719936D02*
X2234229Y-6729460D01*
X2234229Y-6729460D02*
X2215182Y-6738984D01*
X2215182Y-6738984D02*
X2196134Y-6738984D01*
X2196134Y-6738984D02*
X2177087Y-6729460D01*
X2177087Y-6729460D02*
X2167563Y-6719936D01*
X2167563Y-6719936D02*
X2158039Y-6700888D01*
X2158039Y-6700888D02*
X2148515Y-6662793D01*
X2148515Y-6662793D02*
X2148515Y-6615174D01*
X2148515Y-6615174D02*
X2158039Y-6577079D01*
X2158039Y-6577079D02*
X2167563Y-6558031D01*
X2167563Y-6558031D02*
X2177087Y-6548508D01*
X2177087Y-6548508D02*
X2196134Y-6538984D01*
X2348515Y-6719936D02*
X2358039Y-6729460D01*
X2358039Y-6729460D02*
X2348515Y-6738984D01*
X2348515Y-6738984D02*
X2338991Y-6729460D01*
X2338991Y-6729460D02*
X2348515Y-6719936D01*
X2348515Y-6719936D02*
X2348515Y-6738984D01*
X2481848Y-6538984D02*
X2500896Y-6538984D01*
X2500896Y-6538984D02*
X2519944Y-6548508D01*
X2519944Y-6548508D02*
X2529468Y-6558031D01*
X2529468Y-6558031D02*
X2538991Y-6577079D01*
X2538991Y-6577079D02*
X2548515Y-6615174D01*
X2548515Y-6615174D02*
X2548515Y-6662793D01*
X2548515Y-6662793D02*
X2538991Y-6700888D01*
X2538991Y-6700888D02*
X2529468Y-6719936D01*
X2529468Y-6719936D02*
X2519944Y-6729460D01*
X2519944Y-6729460D02*
X2500896Y-6738984D01*
X2500896Y-6738984D02*
X2481848Y-6738984D01*
X2481848Y-6738984D02*
X2462801Y-6729460D01*
X2462801Y-6729460D02*
X2453277Y-6719936D01*
X2453277Y-6719936D02*
X2443753Y-6700888D01*
X2443753Y-6700888D02*
X2434229Y-6662793D01*
X2434229Y-6662793D02*
X2434229Y-6615174D01*
X2434229Y-6615174D02*
X2443753Y-6577079D01*
X2443753Y-6577079D02*
X2453277Y-6558031D01*
X2453277Y-6558031D02*
X2462801Y-6548508D01*
X2462801Y-6548508D02*
X2481848Y-6538984D01*
X2738991Y-6738984D02*
X2624706Y-6738984D01*
X2681848Y-6738984D02*
X2681848Y-6538984D01*
X2681848Y-6538984D02*
X2662801Y-6567555D01*
X2662801Y-6567555D02*
X2643753Y-6586603D01*
X2643753Y-6586603D02*
X2624706Y-6596127D01*
X2929467Y-6738984D02*
X2815182Y-6738984D01*
X2872325Y-6738984D02*
X2872325Y-6538984D01*
X2872325Y-6538984D02*
X2853277Y-6567555D01*
X2853277Y-6567555D02*
X2834229Y-6586603D01*
X2834229Y-6586603D02*
X2815182Y-6596127D01*
X3043753Y-6624698D02*
X3024706Y-6615174D01*
X3024706Y-6615174D02*
X3015182Y-6605650D01*
X3015182Y-6605650D02*
X3005658Y-6586603D01*
X3005658Y-6586603D02*
X3005658Y-6577079D01*
X3005658Y-6577079D02*
X3015182Y-6558031D01*
X3015182Y-6558031D02*
X3024706Y-6548508D01*
X3024706Y-6548508D02*
X3043753Y-6538984D01*
X3043753Y-6538984D02*
X3081848Y-6538984D01*
X3081848Y-6538984D02*
X3100896Y-6548508D01*
X3100896Y-6548508D02*
X3110420Y-6558031D01*
X3110420Y-6558031D02*
X3119944Y-6577079D01*
X3119944Y-6577079D02*
X3119944Y-6586603D01*
X3119944Y-6586603D02*
X3110420Y-6605650D01*
X3110420Y-6605650D02*
X3100896Y-6615174D01*
X3100896Y-6615174D02*
X3081848Y-6624698D01*
X3081848Y-6624698D02*
X3043753Y-6624698D01*
X3043753Y-6624698D02*
X3024706Y-6634222D01*
X3024706Y-6634222D02*
X3015182Y-6643746D01*
X3015182Y-6643746D02*
X3005658Y-6662793D01*
X3005658Y-6662793D02*
X3005658Y-6700888D01*
X3005658Y-6700888D02*
X3015182Y-6719936D01*
X3015182Y-6719936D02*
X3024706Y-6729460D01*
X3024706Y-6729460D02*
X3043753Y-6738984D01*
X3043753Y-6738984D02*
X3081848Y-6738984D01*
X3081848Y-6738984D02*
X3100896Y-6729460D01*
X3100896Y-6729460D02*
X3110420Y-6719936D01*
X3110420Y-6719936D02*
X3119944Y-6700888D01*
X3119944Y-6700888D02*
X3119944Y-6662793D01*
X3119944Y-6662793D02*
X3110420Y-6643746D01*
X3110420Y-6643746D02*
X3100896Y-6634222D01*
X3100896Y-6634222D02*
X3081848Y-6624698D01*
X3196134Y-6538984D02*
X3196134Y-6577079D01*
X3272325Y-6538984D02*
X3272325Y-6577079D01*
X3567563Y-6815174D02*
X3558039Y-6805650D01*
X3558039Y-6805650D02*
X3538991Y-6777079D01*
X3538991Y-6777079D02*
X3529468Y-6758031D01*
X3529468Y-6758031D02*
X3519944Y-6729460D01*
X3519944Y-6729460D02*
X3510420Y-6681841D01*
X3510420Y-6681841D02*
X3510420Y-6643746D01*
X3510420Y-6643746D02*
X3519944Y-6596127D01*
X3519944Y-6596127D02*
X3529468Y-6567555D01*
X3529468Y-6567555D02*
X3538991Y-6548508D01*
X3538991Y-6548508D02*
X3558039Y-6519936D01*
X3558039Y-6519936D02*
X3567563Y-6510412D01*
X3738991Y-6538984D02*
X3643753Y-6538984D01*
X3643753Y-6538984D02*
X3634229Y-6634222D01*
X3634229Y-6634222D02*
X3643753Y-6624698D01*
X3643753Y-6624698D02*
X3662801Y-6615174D01*
X3662801Y-6615174D02*
X3710420Y-6615174D01*
X3710420Y-6615174D02*
X3729468Y-6624698D01*
X3729468Y-6624698D02*
X3738991Y-6634222D01*
X3738991Y-6634222D02*
X3748515Y-6653269D01*
X3748515Y-6653269D02*
X3748515Y-6700888D01*
X3748515Y-6700888D02*
X3738991Y-6719936D01*
X3738991Y-6719936D02*
X3729468Y-6729460D01*
X3729468Y-6729460D02*
X3710420Y-6738984D01*
X3710420Y-6738984D02*
X3662801Y-6738984D01*
X3662801Y-6738984D02*
X3643753Y-6729460D01*
X3643753Y-6729460D02*
X3634229Y-6719936D01*
X3843753Y-6738984D02*
X3881848Y-6738984D01*
X3881848Y-6738984D02*
X3900896Y-6729460D01*
X3900896Y-6729460D02*
X3910420Y-6719936D01*
X3910420Y-6719936D02*
X3929468Y-6691365D01*
X3929468Y-6691365D02*
X3938991Y-6653269D01*
X3938991Y-6653269D02*
X3938991Y-6577079D01*
X3938991Y-6577079D02*
X3929468Y-6558031D01*
X3929468Y-6558031D02*
X3919944Y-6548508D01*
X3919944Y-6548508D02*
X3900896Y-6538984D01*
X3900896Y-6538984D02*
X3862801Y-6538984D01*
X3862801Y-6538984D02*
X3843753Y-6548508D01*
X3843753Y-6548508D02*
X3834229Y-6558031D01*
X3834229Y-6558031D02*
X3824706Y-6577079D01*
X3824706Y-6577079D02*
X3824706Y-6624698D01*
X3824706Y-6624698D02*
X3834229Y-6643746D01*
X3834229Y-6643746D02*
X3843753Y-6653269D01*
X3843753Y-6653269D02*
X3862801Y-6662793D01*
X3862801Y-6662793D02*
X3900896Y-6662793D01*
X3900896Y-6662793D02*
X3919944Y-6653269D01*
X3919944Y-6653269D02*
X3929468Y-6643746D01*
X3929468Y-6643746D02*
X3938991Y-6624698D01*
X4177087Y-6738984D02*
X4177087Y-6538984D01*
X4262801Y-6738984D02*
X4262801Y-6634222D01*
X4262801Y-6634222D02*
X4253277Y-6615174D01*
X4253277Y-6615174D02*
X4234230Y-6605650D01*
X4234230Y-6605650D02*
X4205658Y-6605650D01*
X4205658Y-6605650D02*
X4186610Y-6615174D01*
X4186610Y-6615174D02*
X4177087Y-6624698D01*
X4386611Y-6738984D02*
X4367563Y-6729460D01*
X4367563Y-6729460D02*
X4358039Y-6719936D01*
X4358039Y-6719936D02*
X4348515Y-6700888D01*
X4348515Y-6700888D02*
X4348515Y-6643746D01*
X4348515Y-6643746D02*
X4358039Y-6624698D01*
X4358039Y-6624698D02*
X4367563Y-6615174D01*
X4367563Y-6615174D02*
X4386611Y-6605650D01*
X4386611Y-6605650D02*
X4415182Y-6605650D01*
X4415182Y-6605650D02*
X4434230Y-6615174D01*
X4434230Y-6615174D02*
X4443753Y-6624698D01*
X4443753Y-6624698D02*
X4453277Y-6643746D01*
X4453277Y-6643746D02*
X4453277Y-6700888D01*
X4453277Y-6700888D02*
X4443753Y-6719936D01*
X4443753Y-6719936D02*
X4434230Y-6729460D01*
X4434230Y-6729460D02*
X4415182Y-6738984D01*
X4415182Y-6738984D02*
X4386611Y-6738984D01*
X4567563Y-6738984D02*
X4548515Y-6729460D01*
X4548515Y-6729460D02*
X4538992Y-6710412D01*
X4538992Y-6710412D02*
X4538992Y-6538984D01*
X4719944Y-6729460D02*
X4700896Y-6738984D01*
X4700896Y-6738984D02*
X4662801Y-6738984D01*
X4662801Y-6738984D02*
X4643753Y-6729460D01*
X4643753Y-6729460D02*
X4634230Y-6710412D01*
X4634230Y-6710412D02*
X4634230Y-6634222D01*
X4634230Y-6634222D02*
X4643753Y-6615174D01*
X4643753Y-6615174D02*
X4662801Y-6605650D01*
X4662801Y-6605650D02*
X4700896Y-6605650D01*
X4700896Y-6605650D02*
X4719944Y-6615174D01*
X4719944Y-6615174D02*
X4729468Y-6634222D01*
X4729468Y-6634222D02*
X4729468Y-6653269D01*
X4729468Y-6653269D02*
X4634230Y-6672317D01*
X4805658Y-6729460D02*
X4824706Y-6738984D01*
X4824706Y-6738984D02*
X4862801Y-6738984D01*
X4862801Y-6738984D02*
X4881849Y-6729460D01*
X4881849Y-6729460D02*
X4891373Y-6710412D01*
X4891373Y-6710412D02*
X4891373Y-6700888D01*
X4891373Y-6700888D02*
X4881849Y-6681841D01*
X4881849Y-6681841D02*
X4862801Y-6672317D01*
X4862801Y-6672317D02*
X4834230Y-6672317D01*
X4834230Y-6672317D02*
X4815182Y-6662793D01*
X4815182Y-6662793D02*
X4805658Y-6643746D01*
X4805658Y-6643746D02*
X4805658Y-6634222D01*
X4805658Y-6634222D02*
X4815182Y-6615174D01*
X4815182Y-6615174D02*
X4834230Y-6605650D01*
X4834230Y-6605650D02*
X4862801Y-6605650D01*
X4862801Y-6605650D02*
X4881849Y-6615174D01*
X4958039Y-6815174D02*
X4967563Y-6805650D01*
X4967563Y-6805650D02*
X4986611Y-6777079D01*
X4986611Y-6777079D02*
X4996134Y-6758031D01*
X4996134Y-6758031D02*
X5005658Y-6729460D01*
X5005658Y-6729460D02*
X5015182Y-6681841D01*
X5015182Y-6681841D02*
X5015182Y-6643746D01*
X5015182Y-6643746D02*
X5005658Y-6596127D01*
X5005658Y-6596127D02*
X4996134Y-6567555D01*
X4996134Y-6567555D02*
X4986611Y-6548508D01*
X4986611Y-6548508D02*
X4967563Y-6519936D01*
X4967563Y-6519936D02*
X4958039Y-6510412D01*
D12*
X-7500Y-6911500D02*
G75*
G02*
X-47500Y-6911500I-20000J0D01*
G01*
X-47500Y-6911500D02*
G75*
G02*
X-7500Y-6911500I20000J0D01*
G01*
D11*
X291372Y-6802984D02*
X310420Y-6802984D01*
X310420Y-6802984D02*
X329467Y-6812508D01*
X329467Y-6812508D02*
X338991Y-6822031D01*
X338991Y-6822031D02*
X348515Y-6841079D01*
X348515Y-6841079D02*
X358039Y-6879174D01*
X358039Y-6879174D02*
X358039Y-6926793D01*
X358039Y-6926793D02*
X348515Y-6964888D01*
X348515Y-6964888D02*
X338991Y-6983936D01*
X338991Y-6983936D02*
X329467Y-6993460D01*
X329467Y-6993460D02*
X310420Y-7002984D01*
X310420Y-7002984D02*
X291372Y-7002984D01*
X291372Y-7002984D02*
X272324Y-6993460D01*
X272324Y-6993460D02*
X262801Y-6983936D01*
X262801Y-6983936D02*
X253277Y-6964888D01*
X253277Y-6964888D02*
X243753Y-6926793D01*
X243753Y-6926793D02*
X243753Y-6879174D01*
X243753Y-6879174D02*
X253277Y-6841079D01*
X253277Y-6841079D02*
X262801Y-6822031D01*
X262801Y-6822031D02*
X272324Y-6812508D01*
X272324Y-6812508D02*
X291372Y-6802984D01*
X443753Y-6983936D02*
X453277Y-6993460D01*
X453277Y-6993460D02*
X443753Y-7002984D01*
X443753Y-7002984D02*
X434229Y-6993460D01*
X434229Y-6993460D02*
X443753Y-6983936D01*
X443753Y-6983936D02*
X443753Y-7002984D01*
X624705Y-6869650D02*
X624705Y-7002984D01*
X577086Y-6793460D02*
X529467Y-6936317D01*
X529467Y-6936317D02*
X653277Y-6936317D01*
X767562Y-6802984D02*
X786610Y-6802984D01*
X786610Y-6802984D02*
X805658Y-6812508D01*
X805658Y-6812508D02*
X815182Y-6822031D01*
X815182Y-6822031D02*
X824705Y-6841079D01*
X824705Y-6841079D02*
X834229Y-6879174D01*
X834229Y-6879174D02*
X834229Y-6926793D01*
X834229Y-6926793D02*
X824705Y-6964888D01*
X824705Y-6964888D02*
X815182Y-6983936D01*
X815182Y-6983936D02*
X805658Y-6993460D01*
X805658Y-6993460D02*
X786610Y-7002984D01*
X786610Y-7002984D02*
X767562Y-7002984D01*
X767562Y-7002984D02*
X748515Y-6993460D01*
X748515Y-6993460D02*
X738991Y-6983936D01*
X738991Y-6983936D02*
X729467Y-6964888D01*
X729467Y-6964888D02*
X719943Y-6926793D01*
X719943Y-6926793D02*
X719943Y-6879174D01*
X719943Y-6879174D02*
X729467Y-6841079D01*
X729467Y-6841079D02*
X738991Y-6822031D01*
X738991Y-6822031D02*
X748515Y-6812508D01*
X748515Y-6812508D02*
X767562Y-6802984D01*
X958039Y-6802984D02*
X977086Y-6802984D01*
X977086Y-6802984D02*
X996134Y-6812508D01*
X996134Y-6812508D02*
X1005658Y-6822031D01*
X1005658Y-6822031D02*
X1015182Y-6841079D01*
X1015182Y-6841079D02*
X1024705Y-6879174D01*
X1024705Y-6879174D02*
X1024705Y-6926793D01*
X1024705Y-6926793D02*
X1015182Y-6964888D01*
X1015182Y-6964888D02*
X1005658Y-6983936D01*
X1005658Y-6983936D02*
X996134Y-6993460D01*
X996134Y-6993460D02*
X977086Y-7002984D01*
X977086Y-7002984D02*
X958039Y-7002984D01*
X958039Y-7002984D02*
X938991Y-6993460D01*
X938991Y-6993460D02*
X929467Y-6983936D01*
X929467Y-6983936D02*
X919943Y-6964888D01*
X919943Y-6964888D02*
X910420Y-6926793D01*
X910420Y-6926793D02*
X910420Y-6879174D01*
X910420Y-6879174D02*
X919943Y-6841079D01*
X919943Y-6841079D02*
X929467Y-6822031D01*
X929467Y-6822031D02*
X938991Y-6812508D01*
X938991Y-6812508D02*
X958039Y-6802984D01*
X1110420Y-7002984D02*
X1110420Y-6869650D01*
X1110420Y-6888698D02*
X1119944Y-6879174D01*
X1119944Y-6879174D02*
X1138991Y-6869650D01*
X1138991Y-6869650D02*
X1167563Y-6869650D01*
X1167563Y-6869650D02*
X1186610Y-6879174D01*
X1186610Y-6879174D02*
X1196134Y-6898222D01*
X1196134Y-6898222D02*
X1196134Y-7002984D01*
X1196134Y-6898222D02*
X1205658Y-6879174D01*
X1205658Y-6879174D02*
X1224705Y-6869650D01*
X1224705Y-6869650D02*
X1253277Y-6869650D01*
X1253277Y-6869650D02*
X1272325Y-6879174D01*
X1272325Y-6879174D02*
X1281848Y-6898222D01*
X1281848Y-6898222D02*
X1281848Y-7002984D01*
X1377086Y-7002984D02*
X1377086Y-6869650D01*
X1377086Y-6888698D02*
X1386610Y-6879174D01*
X1386610Y-6879174D02*
X1405658Y-6869650D01*
X1405658Y-6869650D02*
X1434229Y-6869650D01*
X1434229Y-6869650D02*
X1453277Y-6879174D01*
X1453277Y-6879174D02*
X1462801Y-6898222D01*
X1462801Y-6898222D02*
X1462801Y-7002984D01*
X1462801Y-6898222D02*
X1472324Y-6879174D01*
X1472324Y-6879174D02*
X1491372Y-6869650D01*
X1491372Y-6869650D02*
X1519943Y-6869650D01*
X1519943Y-6869650D02*
X1538991Y-6879174D01*
X1538991Y-6879174D02*
X1548515Y-6898222D01*
X1548515Y-6898222D02*
X1548515Y-7002984D01*
X1938991Y-6793460D02*
X1767563Y-7050603D01*
X2196134Y-6802984D02*
X2215182Y-6802984D01*
X2215182Y-6802984D02*
X2234229Y-6812508D01*
X2234229Y-6812508D02*
X2243753Y-6822031D01*
X2243753Y-6822031D02*
X2253277Y-6841079D01*
X2253277Y-6841079D02*
X2262801Y-6879174D01*
X2262801Y-6879174D02*
X2262801Y-6926793D01*
X2262801Y-6926793D02*
X2253277Y-6964888D01*
X2253277Y-6964888D02*
X2243753Y-6983936D01*
X2243753Y-6983936D02*
X2234229Y-6993460D01*
X2234229Y-6993460D02*
X2215182Y-7002984D01*
X2215182Y-7002984D02*
X2196134Y-7002984D01*
X2196134Y-7002984D02*
X2177087Y-6993460D01*
X2177087Y-6993460D02*
X2167563Y-6983936D01*
X2167563Y-6983936D02*
X2158039Y-6964888D01*
X2158039Y-6964888D02*
X2148515Y-6926793D01*
X2148515Y-6926793D02*
X2148515Y-6879174D01*
X2148515Y-6879174D02*
X2158039Y-6841079D01*
X2158039Y-6841079D02*
X2167563Y-6822031D01*
X2167563Y-6822031D02*
X2177087Y-6812508D01*
X2177087Y-6812508D02*
X2196134Y-6802984D01*
X2348515Y-6983936D02*
X2358039Y-6993460D01*
X2358039Y-6993460D02*
X2348515Y-7002984D01*
X2348515Y-7002984D02*
X2338991Y-6993460D01*
X2338991Y-6993460D02*
X2348515Y-6983936D01*
X2348515Y-6983936D02*
X2348515Y-7002984D01*
X2481848Y-6802984D02*
X2500896Y-6802984D01*
X2500896Y-6802984D02*
X2519944Y-6812508D01*
X2519944Y-6812508D02*
X2529468Y-6822031D01*
X2529468Y-6822031D02*
X2538991Y-6841079D01*
X2538991Y-6841079D02*
X2548515Y-6879174D01*
X2548515Y-6879174D02*
X2548515Y-6926793D01*
X2548515Y-6926793D02*
X2538991Y-6964888D01*
X2538991Y-6964888D02*
X2529468Y-6983936D01*
X2529468Y-6983936D02*
X2519944Y-6993460D01*
X2519944Y-6993460D02*
X2500896Y-7002984D01*
X2500896Y-7002984D02*
X2481848Y-7002984D01*
X2481848Y-7002984D02*
X2462801Y-6993460D01*
X2462801Y-6993460D02*
X2453277Y-6983936D01*
X2453277Y-6983936D02*
X2443753Y-6964888D01*
X2443753Y-6964888D02*
X2434229Y-6926793D01*
X2434229Y-6926793D02*
X2434229Y-6879174D01*
X2434229Y-6879174D02*
X2443753Y-6841079D01*
X2443753Y-6841079D02*
X2453277Y-6822031D01*
X2453277Y-6822031D02*
X2462801Y-6812508D01*
X2462801Y-6812508D02*
X2481848Y-6802984D01*
X2738991Y-7002984D02*
X2624706Y-7002984D01*
X2681848Y-7002984D02*
X2681848Y-6802984D01*
X2681848Y-6802984D02*
X2662801Y-6831555D01*
X2662801Y-6831555D02*
X2643753Y-6850603D01*
X2643753Y-6850603D02*
X2624706Y-6860127D01*
X2919944Y-6802984D02*
X2824706Y-6802984D01*
X2824706Y-6802984D02*
X2815182Y-6898222D01*
X2815182Y-6898222D02*
X2824706Y-6888698D01*
X2824706Y-6888698D02*
X2843753Y-6879174D01*
X2843753Y-6879174D02*
X2891372Y-6879174D01*
X2891372Y-6879174D02*
X2910420Y-6888698D01*
X2910420Y-6888698D02*
X2919944Y-6898222D01*
X2919944Y-6898222D02*
X2929467Y-6917269D01*
X2929467Y-6917269D02*
X2929467Y-6964888D01*
X2929467Y-6964888D02*
X2919944Y-6983936D01*
X2919944Y-6983936D02*
X2910420Y-6993460D01*
X2910420Y-6993460D02*
X2891372Y-7002984D01*
X2891372Y-7002984D02*
X2843753Y-7002984D01*
X2843753Y-7002984D02*
X2824706Y-6993460D01*
X2824706Y-6993460D02*
X2815182Y-6983936D01*
X2996134Y-6802984D02*
X3129467Y-6802984D01*
X3129467Y-6802984D02*
X3043753Y-7002984D01*
X3196134Y-6802984D02*
X3196134Y-6841079D01*
X3272325Y-6802984D02*
X3272325Y-6841079D01*
X3567563Y-7079174D02*
X3558039Y-7069650D01*
X3558039Y-7069650D02*
X3538991Y-7041079D01*
X3538991Y-7041079D02*
X3529468Y-7022031D01*
X3529468Y-7022031D02*
X3519944Y-6993460D01*
X3519944Y-6993460D02*
X3510420Y-6945841D01*
X3510420Y-6945841D02*
X3510420Y-6907746D01*
X3510420Y-6907746D02*
X3519944Y-6860127D01*
X3519944Y-6860127D02*
X3529468Y-6831555D01*
X3529468Y-6831555D02*
X3538991Y-6812508D01*
X3538991Y-6812508D02*
X3558039Y-6783936D01*
X3558039Y-6783936D02*
X3567563Y-6774412D01*
X3729468Y-6802984D02*
X3691372Y-6802984D01*
X3691372Y-6802984D02*
X3672325Y-6812508D01*
X3672325Y-6812508D02*
X3662801Y-6822031D01*
X3662801Y-6822031D02*
X3643753Y-6850603D01*
X3643753Y-6850603D02*
X3634229Y-6888698D01*
X3634229Y-6888698D02*
X3634229Y-6964888D01*
X3634229Y-6964888D02*
X3643753Y-6983936D01*
X3643753Y-6983936D02*
X3653277Y-6993460D01*
X3653277Y-6993460D02*
X3672325Y-7002984D01*
X3672325Y-7002984D02*
X3710420Y-7002984D01*
X3710420Y-7002984D02*
X3729468Y-6993460D01*
X3729468Y-6993460D02*
X3738991Y-6983936D01*
X3738991Y-6983936D02*
X3748515Y-6964888D01*
X3748515Y-6964888D02*
X3748515Y-6917269D01*
X3748515Y-6917269D02*
X3738991Y-6898222D01*
X3738991Y-6898222D02*
X3729468Y-6888698D01*
X3729468Y-6888698D02*
X3710420Y-6879174D01*
X3710420Y-6879174D02*
X3672325Y-6879174D01*
X3672325Y-6879174D02*
X3653277Y-6888698D01*
X3653277Y-6888698D02*
X3643753Y-6898222D01*
X3643753Y-6898222D02*
X3634229Y-6917269D01*
X3815182Y-6802984D02*
X3938991Y-6802984D01*
X3938991Y-6802984D02*
X3872325Y-6879174D01*
X3872325Y-6879174D02*
X3900896Y-6879174D01*
X3900896Y-6879174D02*
X3919944Y-6888698D01*
X3919944Y-6888698D02*
X3929468Y-6898222D01*
X3929468Y-6898222D02*
X3938991Y-6917269D01*
X3938991Y-6917269D02*
X3938991Y-6964888D01*
X3938991Y-6964888D02*
X3929468Y-6983936D01*
X3929468Y-6983936D02*
X3919944Y-6993460D01*
X3919944Y-6993460D02*
X3900896Y-7002984D01*
X3900896Y-7002984D02*
X3843753Y-7002984D01*
X3843753Y-7002984D02*
X3824706Y-6993460D01*
X3824706Y-6993460D02*
X3815182Y-6983936D01*
X4177087Y-7002984D02*
X4177087Y-6802984D01*
X4262801Y-7002984D02*
X4262801Y-6898222D01*
X4262801Y-6898222D02*
X4253277Y-6879174D01*
X4253277Y-6879174D02*
X4234230Y-6869650D01*
X4234230Y-6869650D02*
X4205658Y-6869650D01*
X4205658Y-6869650D02*
X4186610Y-6879174D01*
X4186610Y-6879174D02*
X4177087Y-6888698D01*
X4386611Y-7002984D02*
X4367563Y-6993460D01*
X4367563Y-6993460D02*
X4358039Y-6983936D01*
X4358039Y-6983936D02*
X4348515Y-6964888D01*
X4348515Y-6964888D02*
X4348515Y-6907746D01*
X4348515Y-6907746D02*
X4358039Y-6888698D01*
X4358039Y-6888698D02*
X4367563Y-6879174D01*
X4367563Y-6879174D02*
X4386611Y-6869650D01*
X4386611Y-6869650D02*
X4415182Y-6869650D01*
X4415182Y-6869650D02*
X4434230Y-6879174D01*
X4434230Y-6879174D02*
X4443753Y-6888698D01*
X4443753Y-6888698D02*
X4453277Y-6907746D01*
X4453277Y-6907746D02*
X4453277Y-6964888D01*
X4453277Y-6964888D02*
X4443753Y-6983936D01*
X4443753Y-6983936D02*
X4434230Y-6993460D01*
X4434230Y-6993460D02*
X4415182Y-7002984D01*
X4415182Y-7002984D02*
X4386611Y-7002984D01*
X4567563Y-7002984D02*
X4548515Y-6993460D01*
X4548515Y-6993460D02*
X4538992Y-6974412D01*
X4538992Y-6974412D02*
X4538992Y-6802984D01*
X4719944Y-6993460D02*
X4700896Y-7002984D01*
X4700896Y-7002984D02*
X4662801Y-7002984D01*
X4662801Y-7002984D02*
X4643753Y-6993460D01*
X4643753Y-6993460D02*
X4634230Y-6974412D01*
X4634230Y-6974412D02*
X4634230Y-6898222D01*
X4634230Y-6898222D02*
X4643753Y-6879174D01*
X4643753Y-6879174D02*
X4662801Y-6869650D01*
X4662801Y-6869650D02*
X4700896Y-6869650D01*
X4700896Y-6869650D02*
X4719944Y-6879174D01*
X4719944Y-6879174D02*
X4729468Y-6898222D01*
X4729468Y-6898222D02*
X4729468Y-6917269D01*
X4729468Y-6917269D02*
X4634230Y-6936317D01*
X4805658Y-6993460D02*
X4824706Y-7002984D01*
X4824706Y-7002984D02*
X4862801Y-7002984D01*
X4862801Y-7002984D02*
X4881849Y-6993460D01*
X4881849Y-6993460D02*
X4891373Y-6974412D01*
X4891373Y-6974412D02*
X4891373Y-6964888D01*
X4891373Y-6964888D02*
X4881849Y-6945841D01*
X4881849Y-6945841D02*
X4862801Y-6936317D01*
X4862801Y-6936317D02*
X4834230Y-6936317D01*
X4834230Y-6936317D02*
X4815182Y-6926793D01*
X4815182Y-6926793D02*
X4805658Y-6907746D01*
X4805658Y-6907746D02*
X4805658Y-6898222D01*
X4805658Y-6898222D02*
X4815182Y-6879174D01*
X4815182Y-6879174D02*
X4834230Y-6869650D01*
X4834230Y-6869650D02*
X4862801Y-6869650D01*
X4862801Y-6869650D02*
X4881849Y-6879174D01*
X4958039Y-7079174D02*
X4967563Y-7069650D01*
X4967563Y-7069650D02*
X4986611Y-7041079D01*
X4986611Y-7041079D02*
X4996134Y-7022031D01*
X4996134Y-7022031D02*
X5005658Y-6993460D01*
X5005658Y-6993460D02*
X5015182Y-6945841D01*
X5015182Y-6945841D02*
X5015182Y-6907746D01*
X5015182Y-6907746D02*
X5005658Y-6860127D01*
X5005658Y-6860127D02*
X4996134Y-6831555D01*
X4996134Y-6831555D02*
X4986611Y-6812508D01*
X4986611Y-6812508D02*
X4967563Y-6783936D01*
X4967563Y-6783936D02*
X4958039Y-6774412D01*
D12*
X-57500Y-7125500D02*
X-57500Y-7225500D01*
X-107500Y-7175500D02*
X-7500Y-7175500D01*
D11*
X358039Y-7266984D02*
X243753Y-7266984D01*
X300896Y-7266984D02*
X300896Y-7066984D01*
X300896Y-7066984D02*
X281848Y-7095555D01*
X281848Y-7095555D02*
X262801Y-7114603D01*
X262801Y-7114603D02*
X243753Y-7124127D01*
X443753Y-7247936D02*
X453277Y-7257460D01*
X453277Y-7257460D02*
X443753Y-7266984D01*
X443753Y-7266984D02*
X434229Y-7257460D01*
X434229Y-7257460D02*
X443753Y-7247936D01*
X443753Y-7247936D02*
X443753Y-7266984D01*
X577086Y-7066984D02*
X596134Y-7066984D01*
X596134Y-7066984D02*
X615182Y-7076508D01*
X615182Y-7076508D02*
X624705Y-7086031D01*
X624705Y-7086031D02*
X634229Y-7105079D01*
X634229Y-7105079D02*
X643753Y-7143174D01*
X643753Y-7143174D02*
X643753Y-7190793D01*
X643753Y-7190793D02*
X634229Y-7228888D01*
X634229Y-7228888D02*
X624705Y-7247936D01*
X624705Y-7247936D02*
X615182Y-7257460D01*
X615182Y-7257460D02*
X596134Y-7266984D01*
X596134Y-7266984D02*
X577086Y-7266984D01*
X577086Y-7266984D02*
X558039Y-7257460D01*
X558039Y-7257460D02*
X548515Y-7247936D01*
X548515Y-7247936D02*
X538991Y-7228888D01*
X538991Y-7228888D02*
X529467Y-7190793D01*
X529467Y-7190793D02*
X529467Y-7143174D01*
X529467Y-7143174D02*
X538991Y-7105079D01*
X538991Y-7105079D02*
X548515Y-7086031D01*
X548515Y-7086031D02*
X558039Y-7076508D01*
X558039Y-7076508D02*
X577086Y-7066984D01*
X767562Y-7066984D02*
X786610Y-7066984D01*
X786610Y-7066984D02*
X805658Y-7076508D01*
X805658Y-7076508D02*
X815182Y-7086031D01*
X815182Y-7086031D02*
X824705Y-7105079D01*
X824705Y-7105079D02*
X834229Y-7143174D01*
X834229Y-7143174D02*
X834229Y-7190793D01*
X834229Y-7190793D02*
X824705Y-7228888D01*
X824705Y-7228888D02*
X815182Y-7247936D01*
X815182Y-7247936D02*
X805658Y-7257460D01*
X805658Y-7257460D02*
X786610Y-7266984D01*
X786610Y-7266984D02*
X767562Y-7266984D01*
X767562Y-7266984D02*
X748515Y-7257460D01*
X748515Y-7257460D02*
X738991Y-7247936D01*
X738991Y-7247936D02*
X729467Y-7228888D01*
X729467Y-7228888D02*
X719943Y-7190793D01*
X719943Y-7190793D02*
X719943Y-7143174D01*
X719943Y-7143174D02*
X729467Y-7105079D01*
X729467Y-7105079D02*
X738991Y-7086031D01*
X738991Y-7086031D02*
X748515Y-7076508D01*
X748515Y-7076508D02*
X767562Y-7066984D01*
X958039Y-7066984D02*
X977086Y-7066984D01*
X977086Y-7066984D02*
X996134Y-7076508D01*
X996134Y-7076508D02*
X1005658Y-7086031D01*
X1005658Y-7086031D02*
X1015182Y-7105079D01*
X1015182Y-7105079D02*
X1024705Y-7143174D01*
X1024705Y-7143174D02*
X1024705Y-7190793D01*
X1024705Y-7190793D02*
X1015182Y-7228888D01*
X1015182Y-7228888D02*
X1005658Y-7247936D01*
X1005658Y-7247936D02*
X996134Y-7257460D01*
X996134Y-7257460D02*
X977086Y-7266984D01*
X977086Y-7266984D02*
X958039Y-7266984D01*
X958039Y-7266984D02*
X938991Y-7257460D01*
X938991Y-7257460D02*
X929467Y-7247936D01*
X929467Y-7247936D02*
X919943Y-7228888D01*
X919943Y-7228888D02*
X910420Y-7190793D01*
X910420Y-7190793D02*
X910420Y-7143174D01*
X910420Y-7143174D02*
X919943Y-7105079D01*
X919943Y-7105079D02*
X929467Y-7086031D01*
X929467Y-7086031D02*
X938991Y-7076508D01*
X938991Y-7076508D02*
X958039Y-7066984D01*
X1110420Y-7266984D02*
X1110420Y-7133650D01*
X1110420Y-7152698D02*
X1119944Y-7143174D01*
X1119944Y-7143174D02*
X1138991Y-7133650D01*
X1138991Y-7133650D02*
X1167563Y-7133650D01*
X1167563Y-7133650D02*
X1186610Y-7143174D01*
X1186610Y-7143174D02*
X1196134Y-7162222D01*
X1196134Y-7162222D02*
X1196134Y-7266984D01*
X1196134Y-7162222D02*
X1205658Y-7143174D01*
X1205658Y-7143174D02*
X1224705Y-7133650D01*
X1224705Y-7133650D02*
X1253277Y-7133650D01*
X1253277Y-7133650D02*
X1272325Y-7143174D01*
X1272325Y-7143174D02*
X1281848Y-7162222D01*
X1281848Y-7162222D02*
X1281848Y-7266984D01*
X1377086Y-7266984D02*
X1377086Y-7133650D01*
X1377086Y-7152698D02*
X1386610Y-7143174D01*
X1386610Y-7143174D02*
X1405658Y-7133650D01*
X1405658Y-7133650D02*
X1434229Y-7133650D01*
X1434229Y-7133650D02*
X1453277Y-7143174D01*
X1453277Y-7143174D02*
X1462801Y-7162222D01*
X1462801Y-7162222D02*
X1462801Y-7266984D01*
X1462801Y-7162222D02*
X1472324Y-7143174D01*
X1472324Y-7143174D02*
X1491372Y-7133650D01*
X1491372Y-7133650D02*
X1519943Y-7133650D01*
X1519943Y-7133650D02*
X1538991Y-7143174D01*
X1538991Y-7143174D02*
X1548515Y-7162222D01*
X1548515Y-7162222D02*
X1548515Y-7266984D01*
X1938991Y-7057460D02*
X1767563Y-7314603D01*
X2196134Y-7066984D02*
X2215182Y-7066984D01*
X2215182Y-7066984D02*
X2234229Y-7076508D01*
X2234229Y-7076508D02*
X2243753Y-7086031D01*
X2243753Y-7086031D02*
X2253277Y-7105079D01*
X2253277Y-7105079D02*
X2262801Y-7143174D01*
X2262801Y-7143174D02*
X2262801Y-7190793D01*
X2262801Y-7190793D02*
X2253277Y-7228888D01*
X2253277Y-7228888D02*
X2243753Y-7247936D01*
X2243753Y-7247936D02*
X2234229Y-7257460D01*
X2234229Y-7257460D02*
X2215182Y-7266984D01*
X2215182Y-7266984D02*
X2196134Y-7266984D01*
X2196134Y-7266984D02*
X2177087Y-7257460D01*
X2177087Y-7257460D02*
X2167563Y-7247936D01*
X2167563Y-7247936D02*
X2158039Y-7228888D01*
X2158039Y-7228888D02*
X2148515Y-7190793D01*
X2148515Y-7190793D02*
X2148515Y-7143174D01*
X2148515Y-7143174D02*
X2158039Y-7105079D01*
X2158039Y-7105079D02*
X2167563Y-7086031D01*
X2167563Y-7086031D02*
X2177087Y-7076508D01*
X2177087Y-7076508D02*
X2196134Y-7066984D01*
X2348515Y-7247936D02*
X2358039Y-7257460D01*
X2358039Y-7257460D02*
X2348515Y-7266984D01*
X2348515Y-7266984D02*
X2338991Y-7257460D01*
X2338991Y-7257460D02*
X2348515Y-7247936D01*
X2348515Y-7247936D02*
X2348515Y-7266984D01*
X2481848Y-7066984D02*
X2500896Y-7066984D01*
X2500896Y-7066984D02*
X2519944Y-7076508D01*
X2519944Y-7076508D02*
X2529468Y-7086031D01*
X2529468Y-7086031D02*
X2538991Y-7105079D01*
X2538991Y-7105079D02*
X2548515Y-7143174D01*
X2548515Y-7143174D02*
X2548515Y-7190793D01*
X2548515Y-7190793D02*
X2538991Y-7228888D01*
X2538991Y-7228888D02*
X2529468Y-7247936D01*
X2529468Y-7247936D02*
X2519944Y-7257460D01*
X2519944Y-7257460D02*
X2500896Y-7266984D01*
X2500896Y-7266984D02*
X2481848Y-7266984D01*
X2481848Y-7266984D02*
X2462801Y-7257460D01*
X2462801Y-7257460D02*
X2453277Y-7247936D01*
X2453277Y-7247936D02*
X2443753Y-7228888D01*
X2443753Y-7228888D02*
X2434229Y-7190793D01*
X2434229Y-7190793D02*
X2434229Y-7143174D01*
X2434229Y-7143174D02*
X2443753Y-7105079D01*
X2443753Y-7105079D02*
X2453277Y-7086031D01*
X2453277Y-7086031D02*
X2462801Y-7076508D01*
X2462801Y-7076508D02*
X2481848Y-7066984D01*
X2615182Y-7066984D02*
X2738991Y-7066984D01*
X2738991Y-7066984D02*
X2672325Y-7143174D01*
X2672325Y-7143174D02*
X2700896Y-7143174D01*
X2700896Y-7143174D02*
X2719944Y-7152698D01*
X2719944Y-7152698D02*
X2729468Y-7162222D01*
X2729468Y-7162222D02*
X2738991Y-7181269D01*
X2738991Y-7181269D02*
X2738991Y-7228888D01*
X2738991Y-7228888D02*
X2729468Y-7247936D01*
X2729468Y-7247936D02*
X2719944Y-7257460D01*
X2719944Y-7257460D02*
X2700896Y-7266984D01*
X2700896Y-7266984D02*
X2643753Y-7266984D01*
X2643753Y-7266984D02*
X2624706Y-7257460D01*
X2624706Y-7257460D02*
X2615182Y-7247936D01*
X2834229Y-7266984D02*
X2872325Y-7266984D01*
X2872325Y-7266984D02*
X2891372Y-7257460D01*
X2891372Y-7257460D02*
X2900896Y-7247936D01*
X2900896Y-7247936D02*
X2919944Y-7219365D01*
X2919944Y-7219365D02*
X2929467Y-7181269D01*
X2929467Y-7181269D02*
X2929467Y-7105079D01*
X2929467Y-7105079D02*
X2919944Y-7086031D01*
X2919944Y-7086031D02*
X2910420Y-7076508D01*
X2910420Y-7076508D02*
X2891372Y-7066984D01*
X2891372Y-7066984D02*
X2853277Y-7066984D01*
X2853277Y-7066984D02*
X2834229Y-7076508D01*
X2834229Y-7076508D02*
X2824706Y-7086031D01*
X2824706Y-7086031D02*
X2815182Y-7105079D01*
X2815182Y-7105079D02*
X2815182Y-7152698D01*
X2815182Y-7152698D02*
X2824706Y-7171746D01*
X2824706Y-7171746D02*
X2834229Y-7181269D01*
X2834229Y-7181269D02*
X2853277Y-7190793D01*
X2853277Y-7190793D02*
X2891372Y-7190793D01*
X2891372Y-7190793D02*
X2910420Y-7181269D01*
X2910420Y-7181269D02*
X2919944Y-7171746D01*
X2919944Y-7171746D02*
X2929467Y-7152698D01*
X3100896Y-7133650D02*
X3100896Y-7266984D01*
X3053277Y-7057460D02*
X3005658Y-7200317D01*
X3005658Y-7200317D02*
X3129467Y-7200317D01*
X3196134Y-7066984D02*
X3196134Y-7105079D01*
X3272325Y-7066984D02*
X3272325Y-7105079D01*
X3567563Y-7343174D02*
X3558039Y-7333650D01*
X3558039Y-7333650D02*
X3538991Y-7305079D01*
X3538991Y-7305079D02*
X3529468Y-7286031D01*
X3529468Y-7286031D02*
X3519944Y-7257460D01*
X3519944Y-7257460D02*
X3510420Y-7209841D01*
X3510420Y-7209841D02*
X3510420Y-7171746D01*
X3510420Y-7171746D02*
X3519944Y-7124127D01*
X3519944Y-7124127D02*
X3529468Y-7095555D01*
X3529468Y-7095555D02*
X3538991Y-7076508D01*
X3538991Y-7076508D02*
X3558039Y-7047936D01*
X3558039Y-7047936D02*
X3567563Y-7038412D01*
X3624706Y-7066984D02*
X3748515Y-7066984D01*
X3748515Y-7066984D02*
X3681848Y-7143174D01*
X3681848Y-7143174D02*
X3710420Y-7143174D01*
X3710420Y-7143174D02*
X3729468Y-7152698D01*
X3729468Y-7152698D02*
X3738991Y-7162222D01*
X3738991Y-7162222D02*
X3748515Y-7181269D01*
X3748515Y-7181269D02*
X3748515Y-7228888D01*
X3748515Y-7228888D02*
X3738991Y-7247936D01*
X3738991Y-7247936D02*
X3729468Y-7257460D01*
X3729468Y-7257460D02*
X3710420Y-7266984D01*
X3710420Y-7266984D02*
X3653277Y-7266984D01*
X3653277Y-7266984D02*
X3634229Y-7257460D01*
X3634229Y-7257460D02*
X3624706Y-7247936D01*
X3815182Y-7066984D02*
X3938991Y-7066984D01*
X3938991Y-7066984D02*
X3872325Y-7143174D01*
X3872325Y-7143174D02*
X3900896Y-7143174D01*
X3900896Y-7143174D02*
X3919944Y-7152698D01*
X3919944Y-7152698D02*
X3929468Y-7162222D01*
X3929468Y-7162222D02*
X3938991Y-7181269D01*
X3938991Y-7181269D02*
X3938991Y-7228888D01*
X3938991Y-7228888D02*
X3929468Y-7247936D01*
X3929468Y-7247936D02*
X3919944Y-7257460D01*
X3919944Y-7257460D02*
X3900896Y-7266984D01*
X3900896Y-7266984D02*
X3843753Y-7266984D01*
X3843753Y-7266984D02*
X3824706Y-7257460D01*
X3824706Y-7257460D02*
X3815182Y-7247936D01*
X4177087Y-7266984D02*
X4177087Y-7066984D01*
X4262801Y-7266984D02*
X4262801Y-7162222D01*
X4262801Y-7162222D02*
X4253277Y-7143174D01*
X4253277Y-7143174D02*
X4234230Y-7133650D01*
X4234230Y-7133650D02*
X4205658Y-7133650D01*
X4205658Y-7133650D02*
X4186610Y-7143174D01*
X4186610Y-7143174D02*
X4177087Y-7152698D01*
X4386611Y-7266984D02*
X4367563Y-7257460D01*
X4367563Y-7257460D02*
X4358039Y-7247936D01*
X4358039Y-7247936D02*
X4348515Y-7228888D01*
X4348515Y-7228888D02*
X4348515Y-7171746D01*
X4348515Y-7171746D02*
X4358039Y-7152698D01*
X4358039Y-7152698D02*
X4367563Y-7143174D01*
X4367563Y-7143174D02*
X4386611Y-7133650D01*
X4386611Y-7133650D02*
X4415182Y-7133650D01*
X4415182Y-7133650D02*
X4434230Y-7143174D01*
X4434230Y-7143174D02*
X4443753Y-7152698D01*
X4443753Y-7152698D02*
X4453277Y-7171746D01*
X4453277Y-7171746D02*
X4453277Y-7228888D01*
X4453277Y-7228888D02*
X4443753Y-7247936D01*
X4443753Y-7247936D02*
X4434230Y-7257460D01*
X4434230Y-7257460D02*
X4415182Y-7266984D01*
X4415182Y-7266984D02*
X4386611Y-7266984D01*
X4567563Y-7266984D02*
X4548515Y-7257460D01*
X4548515Y-7257460D02*
X4538992Y-7238412D01*
X4538992Y-7238412D02*
X4538992Y-7066984D01*
X4719944Y-7257460D02*
X4700896Y-7266984D01*
X4700896Y-7266984D02*
X4662801Y-7266984D01*
X4662801Y-7266984D02*
X4643753Y-7257460D01*
X4643753Y-7257460D02*
X4634230Y-7238412D01*
X4634230Y-7238412D02*
X4634230Y-7162222D01*
X4634230Y-7162222D02*
X4643753Y-7143174D01*
X4643753Y-7143174D02*
X4662801Y-7133650D01*
X4662801Y-7133650D02*
X4700896Y-7133650D01*
X4700896Y-7133650D02*
X4719944Y-7143174D01*
X4719944Y-7143174D02*
X4729468Y-7162222D01*
X4729468Y-7162222D02*
X4729468Y-7181269D01*
X4729468Y-7181269D02*
X4634230Y-7200317D01*
X4805658Y-7257460D02*
X4824706Y-7266984D01*
X4824706Y-7266984D02*
X4862801Y-7266984D01*
X4862801Y-7266984D02*
X4881849Y-7257460D01*
X4881849Y-7257460D02*
X4891373Y-7238412D01*
X4891373Y-7238412D02*
X4891373Y-7228888D01*
X4891373Y-7228888D02*
X4881849Y-7209841D01*
X4881849Y-7209841D02*
X4862801Y-7200317D01*
X4862801Y-7200317D02*
X4834230Y-7200317D01*
X4834230Y-7200317D02*
X4815182Y-7190793D01*
X4815182Y-7190793D02*
X4805658Y-7171746D01*
X4805658Y-7171746D02*
X4805658Y-7162222D01*
X4805658Y-7162222D02*
X4815182Y-7143174D01*
X4815182Y-7143174D02*
X4834230Y-7133650D01*
X4834230Y-7133650D02*
X4862801Y-7133650D01*
X4862801Y-7133650D02*
X4881849Y-7143174D01*
X4958039Y-7343174D02*
X4967563Y-7333650D01*
X4967563Y-7333650D02*
X4986611Y-7305079D01*
X4986611Y-7305079D02*
X4996134Y-7286031D01*
X4996134Y-7286031D02*
X5005658Y-7257460D01*
X5005658Y-7257460D02*
X5015182Y-7209841D01*
X5015182Y-7209841D02*
X5015182Y-7171746D01*
X5015182Y-7171746D02*
X5005658Y-7124127D01*
X5005658Y-7124127D02*
X4996134Y-7095555D01*
X4996134Y-7095555D02*
X4986611Y-7076508D01*
X4986611Y-7076508D02*
X4967563Y-7047936D01*
X4967563Y-7047936D02*
X4958039Y-7038412D01*
D13*
X-26538Y-7485462D02*
X-26538Y-7393538D01*
X-118462Y-7393538D01*
X-118462Y-7485462D01*
X-26538Y-7485462D01*
D11*
X358039Y-7530984D02*
X243753Y-7530984D01*
X300896Y-7530984D02*
X300896Y-7330984D01*
X300896Y-7330984D02*
X281848Y-7359555D01*
X281848Y-7359555D02*
X262801Y-7378603D01*
X262801Y-7378603D02*
X243753Y-7388127D01*
X443753Y-7511936D02*
X453277Y-7521460D01*
X453277Y-7521460D02*
X443753Y-7530984D01*
X443753Y-7530984D02*
X434229Y-7521460D01*
X434229Y-7521460D02*
X443753Y-7511936D01*
X443753Y-7511936D02*
X443753Y-7530984D01*
X519943Y-7330984D02*
X643753Y-7330984D01*
X643753Y-7330984D02*
X577086Y-7407174D01*
X577086Y-7407174D02*
X605658Y-7407174D01*
X605658Y-7407174D02*
X624705Y-7416698D01*
X624705Y-7416698D02*
X634229Y-7426222D01*
X634229Y-7426222D02*
X643753Y-7445269D01*
X643753Y-7445269D02*
X643753Y-7492888D01*
X643753Y-7492888D02*
X634229Y-7511936D01*
X634229Y-7511936D02*
X624705Y-7521460D01*
X624705Y-7521460D02*
X605658Y-7530984D01*
X605658Y-7530984D02*
X548515Y-7530984D01*
X548515Y-7530984D02*
X529467Y-7521460D01*
X529467Y-7521460D02*
X519943Y-7511936D01*
X767562Y-7330984D02*
X786610Y-7330984D01*
X786610Y-7330984D02*
X805658Y-7340508D01*
X805658Y-7340508D02*
X815182Y-7350031D01*
X815182Y-7350031D02*
X824705Y-7369079D01*
X824705Y-7369079D02*
X834229Y-7407174D01*
X834229Y-7407174D02*
X834229Y-7454793D01*
X834229Y-7454793D02*
X824705Y-7492888D01*
X824705Y-7492888D02*
X815182Y-7511936D01*
X815182Y-7511936D02*
X805658Y-7521460D01*
X805658Y-7521460D02*
X786610Y-7530984D01*
X786610Y-7530984D02*
X767562Y-7530984D01*
X767562Y-7530984D02*
X748515Y-7521460D01*
X748515Y-7521460D02*
X738991Y-7511936D01*
X738991Y-7511936D02*
X729467Y-7492888D01*
X729467Y-7492888D02*
X719943Y-7454793D01*
X719943Y-7454793D02*
X719943Y-7407174D01*
X719943Y-7407174D02*
X729467Y-7369079D01*
X729467Y-7369079D02*
X738991Y-7350031D01*
X738991Y-7350031D02*
X748515Y-7340508D01*
X748515Y-7340508D02*
X767562Y-7330984D01*
X958039Y-7330984D02*
X977086Y-7330984D01*
X977086Y-7330984D02*
X996134Y-7340508D01*
X996134Y-7340508D02*
X1005658Y-7350031D01*
X1005658Y-7350031D02*
X1015182Y-7369079D01*
X1015182Y-7369079D02*
X1024705Y-7407174D01*
X1024705Y-7407174D02*
X1024705Y-7454793D01*
X1024705Y-7454793D02*
X1015182Y-7492888D01*
X1015182Y-7492888D02*
X1005658Y-7511936D01*
X1005658Y-7511936D02*
X996134Y-7521460D01*
X996134Y-7521460D02*
X977086Y-7530984D01*
X977086Y-7530984D02*
X958039Y-7530984D01*
X958039Y-7530984D02*
X938991Y-7521460D01*
X938991Y-7521460D02*
X929467Y-7511936D01*
X929467Y-7511936D02*
X919943Y-7492888D01*
X919943Y-7492888D02*
X910420Y-7454793D01*
X910420Y-7454793D02*
X910420Y-7407174D01*
X910420Y-7407174D02*
X919943Y-7369079D01*
X919943Y-7369079D02*
X929467Y-7350031D01*
X929467Y-7350031D02*
X938991Y-7340508D01*
X938991Y-7340508D02*
X958039Y-7330984D01*
X1110420Y-7530984D02*
X1110420Y-7397650D01*
X1110420Y-7416698D02*
X1119944Y-7407174D01*
X1119944Y-7407174D02*
X1138991Y-7397650D01*
X1138991Y-7397650D02*
X1167563Y-7397650D01*
X1167563Y-7397650D02*
X1186610Y-7407174D01*
X1186610Y-7407174D02*
X1196134Y-7426222D01*
X1196134Y-7426222D02*
X1196134Y-7530984D01*
X1196134Y-7426222D02*
X1205658Y-7407174D01*
X1205658Y-7407174D02*
X1224705Y-7397650D01*
X1224705Y-7397650D02*
X1253277Y-7397650D01*
X1253277Y-7397650D02*
X1272325Y-7407174D01*
X1272325Y-7407174D02*
X1281848Y-7426222D01*
X1281848Y-7426222D02*
X1281848Y-7530984D01*
X1377086Y-7530984D02*
X1377086Y-7397650D01*
X1377086Y-7416698D02*
X1386610Y-7407174D01*
X1386610Y-7407174D02*
X1405658Y-7397650D01*
X1405658Y-7397650D02*
X1434229Y-7397650D01*
X1434229Y-7397650D02*
X1453277Y-7407174D01*
X1453277Y-7407174D02*
X1462801Y-7426222D01*
X1462801Y-7426222D02*
X1462801Y-7530984D01*
X1462801Y-7426222D02*
X1472324Y-7407174D01*
X1472324Y-7407174D02*
X1491372Y-7397650D01*
X1491372Y-7397650D02*
X1519943Y-7397650D01*
X1519943Y-7397650D02*
X1538991Y-7407174D01*
X1538991Y-7407174D02*
X1548515Y-7426222D01*
X1548515Y-7426222D02*
X1548515Y-7530984D01*
X1938991Y-7321460D02*
X1767563Y-7578603D01*
X2196134Y-7330984D02*
X2215182Y-7330984D01*
X2215182Y-7330984D02*
X2234229Y-7340508D01*
X2234229Y-7340508D02*
X2243753Y-7350031D01*
X2243753Y-7350031D02*
X2253277Y-7369079D01*
X2253277Y-7369079D02*
X2262801Y-7407174D01*
X2262801Y-7407174D02*
X2262801Y-7454793D01*
X2262801Y-7454793D02*
X2253277Y-7492888D01*
X2253277Y-7492888D02*
X2243753Y-7511936D01*
X2243753Y-7511936D02*
X2234229Y-7521460D01*
X2234229Y-7521460D02*
X2215182Y-7530984D01*
X2215182Y-7530984D02*
X2196134Y-7530984D01*
X2196134Y-7530984D02*
X2177087Y-7521460D01*
X2177087Y-7521460D02*
X2167563Y-7511936D01*
X2167563Y-7511936D02*
X2158039Y-7492888D01*
X2158039Y-7492888D02*
X2148515Y-7454793D01*
X2148515Y-7454793D02*
X2148515Y-7407174D01*
X2148515Y-7407174D02*
X2158039Y-7369079D01*
X2158039Y-7369079D02*
X2167563Y-7350031D01*
X2167563Y-7350031D02*
X2177087Y-7340508D01*
X2177087Y-7340508D02*
X2196134Y-7330984D01*
X2348515Y-7511936D02*
X2358039Y-7521460D01*
X2358039Y-7521460D02*
X2348515Y-7530984D01*
X2348515Y-7530984D02*
X2338991Y-7521460D01*
X2338991Y-7521460D02*
X2348515Y-7511936D01*
X2348515Y-7511936D02*
X2348515Y-7530984D01*
X2481848Y-7330984D02*
X2500896Y-7330984D01*
X2500896Y-7330984D02*
X2519944Y-7340508D01*
X2519944Y-7340508D02*
X2529468Y-7350031D01*
X2529468Y-7350031D02*
X2538991Y-7369079D01*
X2538991Y-7369079D02*
X2548515Y-7407174D01*
X2548515Y-7407174D02*
X2548515Y-7454793D01*
X2548515Y-7454793D02*
X2538991Y-7492888D01*
X2538991Y-7492888D02*
X2529468Y-7511936D01*
X2529468Y-7511936D02*
X2519944Y-7521460D01*
X2519944Y-7521460D02*
X2500896Y-7530984D01*
X2500896Y-7530984D02*
X2481848Y-7530984D01*
X2481848Y-7530984D02*
X2462801Y-7521460D01*
X2462801Y-7521460D02*
X2453277Y-7511936D01*
X2453277Y-7511936D02*
X2443753Y-7492888D01*
X2443753Y-7492888D02*
X2434229Y-7454793D01*
X2434229Y-7454793D02*
X2434229Y-7407174D01*
X2434229Y-7407174D02*
X2443753Y-7369079D01*
X2443753Y-7369079D02*
X2453277Y-7350031D01*
X2453277Y-7350031D02*
X2462801Y-7340508D01*
X2462801Y-7340508D02*
X2481848Y-7330984D01*
X2729468Y-7330984D02*
X2634229Y-7330984D01*
X2634229Y-7330984D02*
X2624706Y-7426222D01*
X2624706Y-7426222D02*
X2634229Y-7416698D01*
X2634229Y-7416698D02*
X2653277Y-7407174D01*
X2653277Y-7407174D02*
X2700896Y-7407174D01*
X2700896Y-7407174D02*
X2719944Y-7416698D01*
X2719944Y-7416698D02*
X2729468Y-7426222D01*
X2729468Y-7426222D02*
X2738991Y-7445269D01*
X2738991Y-7445269D02*
X2738991Y-7492888D01*
X2738991Y-7492888D02*
X2729468Y-7511936D01*
X2729468Y-7511936D02*
X2719944Y-7521460D01*
X2719944Y-7521460D02*
X2700896Y-7530984D01*
X2700896Y-7530984D02*
X2653277Y-7530984D01*
X2653277Y-7530984D02*
X2634229Y-7521460D01*
X2634229Y-7521460D02*
X2624706Y-7511936D01*
X2929467Y-7530984D02*
X2815182Y-7530984D01*
X2872325Y-7530984D02*
X2872325Y-7330984D01*
X2872325Y-7330984D02*
X2853277Y-7359555D01*
X2853277Y-7359555D02*
X2834229Y-7378603D01*
X2834229Y-7378603D02*
X2815182Y-7388127D01*
X3005658Y-7350031D02*
X3015182Y-7340508D01*
X3015182Y-7340508D02*
X3034229Y-7330984D01*
X3034229Y-7330984D02*
X3081848Y-7330984D01*
X3081848Y-7330984D02*
X3100896Y-7340508D01*
X3100896Y-7340508D02*
X3110420Y-7350031D01*
X3110420Y-7350031D02*
X3119944Y-7369079D01*
X3119944Y-7369079D02*
X3119944Y-7388127D01*
X3119944Y-7388127D02*
X3110420Y-7416698D01*
X3110420Y-7416698D02*
X2996134Y-7530984D01*
X2996134Y-7530984D02*
X3119944Y-7530984D01*
X3196134Y-7330984D02*
X3196134Y-7369079D01*
X3272325Y-7330984D02*
X3272325Y-7369079D01*
X3567563Y-7607174D02*
X3558039Y-7597650D01*
X3558039Y-7597650D02*
X3538991Y-7569079D01*
X3538991Y-7569079D02*
X3529468Y-7550031D01*
X3529468Y-7550031D02*
X3519944Y-7521460D01*
X3519944Y-7521460D02*
X3510420Y-7473841D01*
X3510420Y-7473841D02*
X3510420Y-7435746D01*
X3510420Y-7435746D02*
X3519944Y-7388127D01*
X3519944Y-7388127D02*
X3529468Y-7359555D01*
X3529468Y-7359555D02*
X3538991Y-7340508D01*
X3538991Y-7340508D02*
X3558039Y-7311936D01*
X3558039Y-7311936D02*
X3567563Y-7302412D01*
X3729468Y-7397650D02*
X3729468Y-7530984D01*
X3681848Y-7321460D02*
X3634229Y-7464317D01*
X3634229Y-7464317D02*
X3758039Y-7464317D01*
X3986610Y-7530984D02*
X3986610Y-7330984D01*
X4072325Y-7530984D02*
X4072325Y-7426222D01*
X4072325Y-7426222D02*
X4062801Y-7407174D01*
X4062801Y-7407174D02*
X4043753Y-7397650D01*
X4043753Y-7397650D02*
X4015182Y-7397650D01*
X4015182Y-7397650D02*
X3996134Y-7407174D01*
X3996134Y-7407174D02*
X3986610Y-7416698D01*
X4196134Y-7530984D02*
X4177087Y-7521460D01*
X4177087Y-7521460D02*
X4167563Y-7511936D01*
X4167563Y-7511936D02*
X4158039Y-7492888D01*
X4158039Y-7492888D02*
X4158039Y-7435746D01*
X4158039Y-7435746D02*
X4167563Y-7416698D01*
X4167563Y-7416698D02*
X4177087Y-7407174D01*
X4177087Y-7407174D02*
X4196134Y-7397650D01*
X4196134Y-7397650D02*
X4224706Y-7397650D01*
X4224706Y-7397650D02*
X4243753Y-7407174D01*
X4243753Y-7407174D02*
X4253277Y-7416698D01*
X4253277Y-7416698D02*
X4262801Y-7435746D01*
X4262801Y-7435746D02*
X4262801Y-7492888D01*
X4262801Y-7492888D02*
X4253277Y-7511936D01*
X4253277Y-7511936D02*
X4243753Y-7521460D01*
X4243753Y-7521460D02*
X4224706Y-7530984D01*
X4224706Y-7530984D02*
X4196134Y-7530984D01*
X4377087Y-7530984D02*
X4358039Y-7521460D01*
X4358039Y-7521460D02*
X4348515Y-7502412D01*
X4348515Y-7502412D02*
X4348515Y-7330984D01*
X4529468Y-7521460D02*
X4510420Y-7530984D01*
X4510420Y-7530984D02*
X4472325Y-7530984D01*
X4472325Y-7530984D02*
X4453277Y-7521460D01*
X4453277Y-7521460D02*
X4443753Y-7502412D01*
X4443753Y-7502412D02*
X4443753Y-7426222D01*
X4443753Y-7426222D02*
X4453277Y-7407174D01*
X4453277Y-7407174D02*
X4472325Y-7397650D01*
X4472325Y-7397650D02*
X4510420Y-7397650D01*
X4510420Y-7397650D02*
X4529468Y-7407174D01*
X4529468Y-7407174D02*
X4538992Y-7426222D01*
X4538992Y-7426222D02*
X4538992Y-7445269D01*
X4538992Y-7445269D02*
X4443753Y-7464317D01*
X4615182Y-7521460D02*
X4634230Y-7530984D01*
X4634230Y-7530984D02*
X4672325Y-7530984D01*
X4672325Y-7530984D02*
X4691373Y-7521460D01*
X4691373Y-7521460D02*
X4700896Y-7502412D01*
X4700896Y-7502412D02*
X4700896Y-7492888D01*
X4700896Y-7492888D02*
X4691373Y-7473841D01*
X4691373Y-7473841D02*
X4672325Y-7464317D01*
X4672325Y-7464317D02*
X4643753Y-7464317D01*
X4643753Y-7464317D02*
X4624706Y-7454793D01*
X4624706Y-7454793D02*
X4615182Y-7435746D01*
X4615182Y-7435746D02*
X4615182Y-7426222D01*
X4615182Y-7426222D02*
X4624706Y-7407174D01*
X4624706Y-7407174D02*
X4643753Y-7397650D01*
X4643753Y-7397650D02*
X4672325Y-7397650D01*
X4672325Y-7397650D02*
X4691373Y-7407174D01*
X4767563Y-7607174D02*
X4777087Y-7597650D01*
X4777087Y-7597650D02*
X4796134Y-7569079D01*
X4796134Y-7569079D02*
X4805658Y-7550031D01*
X4805658Y-7550031D02*
X4815182Y-7521460D01*
X4815182Y-7521460D02*
X4824706Y-7473841D01*
X4824706Y-7473841D02*
X4824706Y-7435746D01*
X4824706Y-7435746D02*
X4815182Y-7388127D01*
X4815182Y-7388127D02*
X4805658Y-7359555D01*
X4805658Y-7359555D02*
X4796134Y-7340508D01*
X4796134Y-7340508D02*
X4777087Y-7311936D01*
X4777087Y-7311936D02*
X4767563Y-7302412D01*
X-107500Y-7803500D02*
X-7500Y-7703500D01*
X-107500Y-7603500D01*
X-207500Y-7703500D01*
X-107500Y-7803500D01*
X234229Y-7594984D02*
X358039Y-7594984D01*
X358039Y-7594984D02*
X291372Y-7671174D01*
X291372Y-7671174D02*
X319944Y-7671174D01*
X319944Y-7671174D02*
X338991Y-7680698D01*
X338991Y-7680698D02*
X348515Y-7690222D01*
X348515Y-7690222D02*
X358039Y-7709269D01*
X358039Y-7709269D02*
X358039Y-7756888D01*
X358039Y-7756888D02*
X348515Y-7775936D01*
X348515Y-7775936D02*
X338991Y-7785460D01*
X338991Y-7785460D02*
X319944Y-7794984D01*
X319944Y-7794984D02*
X262801Y-7794984D01*
X262801Y-7794984D02*
X243753Y-7785460D01*
X243753Y-7785460D02*
X234229Y-7775936D01*
X443753Y-7775936D02*
X453277Y-7785460D01*
X453277Y-7785460D02*
X443753Y-7794984D01*
X443753Y-7794984D02*
X434229Y-7785460D01*
X434229Y-7785460D02*
X443753Y-7775936D01*
X443753Y-7775936D02*
X443753Y-7794984D01*
X529467Y-7614031D02*
X538991Y-7604508D01*
X538991Y-7604508D02*
X558039Y-7594984D01*
X558039Y-7594984D02*
X605658Y-7594984D01*
X605658Y-7594984D02*
X624705Y-7604508D01*
X624705Y-7604508D02*
X634229Y-7614031D01*
X634229Y-7614031D02*
X643753Y-7633079D01*
X643753Y-7633079D02*
X643753Y-7652127D01*
X643753Y-7652127D02*
X634229Y-7680698D01*
X634229Y-7680698D02*
X519943Y-7794984D01*
X519943Y-7794984D02*
X643753Y-7794984D01*
X767562Y-7594984D02*
X786610Y-7594984D01*
X786610Y-7594984D02*
X805658Y-7604508D01*
X805658Y-7604508D02*
X815182Y-7614031D01*
X815182Y-7614031D02*
X824705Y-7633079D01*
X824705Y-7633079D02*
X834229Y-7671174D01*
X834229Y-7671174D02*
X834229Y-7718793D01*
X834229Y-7718793D02*
X824705Y-7756888D01*
X824705Y-7756888D02*
X815182Y-7775936D01*
X815182Y-7775936D02*
X805658Y-7785460D01*
X805658Y-7785460D02*
X786610Y-7794984D01*
X786610Y-7794984D02*
X767562Y-7794984D01*
X767562Y-7794984D02*
X748515Y-7785460D01*
X748515Y-7785460D02*
X738991Y-7775936D01*
X738991Y-7775936D02*
X729467Y-7756888D01*
X729467Y-7756888D02*
X719943Y-7718793D01*
X719943Y-7718793D02*
X719943Y-7671174D01*
X719943Y-7671174D02*
X729467Y-7633079D01*
X729467Y-7633079D02*
X738991Y-7614031D01*
X738991Y-7614031D02*
X748515Y-7604508D01*
X748515Y-7604508D02*
X767562Y-7594984D01*
X958039Y-7594984D02*
X977086Y-7594984D01*
X977086Y-7594984D02*
X996134Y-7604508D01*
X996134Y-7604508D02*
X1005658Y-7614031D01*
X1005658Y-7614031D02*
X1015182Y-7633079D01*
X1015182Y-7633079D02*
X1024705Y-7671174D01*
X1024705Y-7671174D02*
X1024705Y-7718793D01*
X1024705Y-7718793D02*
X1015182Y-7756888D01*
X1015182Y-7756888D02*
X1005658Y-7775936D01*
X1005658Y-7775936D02*
X996134Y-7785460D01*
X996134Y-7785460D02*
X977086Y-7794984D01*
X977086Y-7794984D02*
X958039Y-7794984D01*
X958039Y-7794984D02*
X938991Y-7785460D01*
X938991Y-7785460D02*
X929467Y-7775936D01*
X929467Y-7775936D02*
X919943Y-7756888D01*
X919943Y-7756888D02*
X910420Y-7718793D01*
X910420Y-7718793D02*
X910420Y-7671174D01*
X910420Y-7671174D02*
X919943Y-7633079D01*
X919943Y-7633079D02*
X929467Y-7614031D01*
X929467Y-7614031D02*
X938991Y-7604508D01*
X938991Y-7604508D02*
X958039Y-7594984D01*
X1110420Y-7794984D02*
X1110420Y-7661650D01*
X1110420Y-7680698D02*
X1119944Y-7671174D01*
X1119944Y-7671174D02*
X1138991Y-7661650D01*
X1138991Y-7661650D02*
X1167563Y-7661650D01*
X1167563Y-7661650D02*
X1186610Y-7671174D01*
X1186610Y-7671174D02*
X1196134Y-7690222D01*
X1196134Y-7690222D02*
X1196134Y-7794984D01*
X1196134Y-7690222D02*
X1205658Y-7671174D01*
X1205658Y-7671174D02*
X1224705Y-7661650D01*
X1224705Y-7661650D02*
X1253277Y-7661650D01*
X1253277Y-7661650D02*
X1272325Y-7671174D01*
X1272325Y-7671174D02*
X1281848Y-7690222D01*
X1281848Y-7690222D02*
X1281848Y-7794984D01*
X1377086Y-7794984D02*
X1377086Y-7661650D01*
X1377086Y-7680698D02*
X1386610Y-7671174D01*
X1386610Y-7671174D02*
X1405658Y-7661650D01*
X1405658Y-7661650D02*
X1434229Y-7661650D01*
X1434229Y-7661650D02*
X1453277Y-7671174D01*
X1453277Y-7671174D02*
X1462801Y-7690222D01*
X1462801Y-7690222D02*
X1462801Y-7794984D01*
X1462801Y-7690222D02*
X1472324Y-7671174D01*
X1472324Y-7671174D02*
X1491372Y-7661650D01*
X1491372Y-7661650D02*
X1519943Y-7661650D01*
X1519943Y-7661650D02*
X1538991Y-7671174D01*
X1538991Y-7671174D02*
X1548515Y-7690222D01*
X1548515Y-7690222D02*
X1548515Y-7794984D01*
X1938991Y-7585460D02*
X1767563Y-7842603D01*
X2196134Y-7594984D02*
X2215182Y-7594984D01*
X2215182Y-7594984D02*
X2234229Y-7604508D01*
X2234229Y-7604508D02*
X2243753Y-7614031D01*
X2243753Y-7614031D02*
X2253277Y-7633079D01*
X2253277Y-7633079D02*
X2262801Y-7671174D01*
X2262801Y-7671174D02*
X2262801Y-7718793D01*
X2262801Y-7718793D02*
X2253277Y-7756888D01*
X2253277Y-7756888D02*
X2243753Y-7775936D01*
X2243753Y-7775936D02*
X2234229Y-7785460D01*
X2234229Y-7785460D02*
X2215182Y-7794984D01*
X2215182Y-7794984D02*
X2196134Y-7794984D01*
X2196134Y-7794984D02*
X2177087Y-7785460D01*
X2177087Y-7785460D02*
X2167563Y-7775936D01*
X2167563Y-7775936D02*
X2158039Y-7756888D01*
X2158039Y-7756888D02*
X2148515Y-7718793D01*
X2148515Y-7718793D02*
X2148515Y-7671174D01*
X2148515Y-7671174D02*
X2158039Y-7633079D01*
X2158039Y-7633079D02*
X2167563Y-7614031D01*
X2167563Y-7614031D02*
X2177087Y-7604508D01*
X2177087Y-7604508D02*
X2196134Y-7594984D01*
X2348515Y-7775936D02*
X2358039Y-7785460D01*
X2358039Y-7785460D02*
X2348515Y-7794984D01*
X2348515Y-7794984D02*
X2338991Y-7785460D01*
X2338991Y-7785460D02*
X2348515Y-7775936D01*
X2348515Y-7775936D02*
X2348515Y-7794984D01*
X2548515Y-7794984D02*
X2434229Y-7794984D01*
X2491372Y-7794984D02*
X2491372Y-7594984D01*
X2491372Y-7594984D02*
X2472325Y-7623555D01*
X2472325Y-7623555D02*
X2453277Y-7642603D01*
X2453277Y-7642603D02*
X2434229Y-7652127D01*
X2624706Y-7614031D02*
X2634229Y-7604508D01*
X2634229Y-7604508D02*
X2653277Y-7594984D01*
X2653277Y-7594984D02*
X2700896Y-7594984D01*
X2700896Y-7594984D02*
X2719944Y-7604508D01*
X2719944Y-7604508D02*
X2729468Y-7614031D01*
X2729468Y-7614031D02*
X2738991Y-7633079D01*
X2738991Y-7633079D02*
X2738991Y-7652127D01*
X2738991Y-7652127D02*
X2729468Y-7680698D01*
X2729468Y-7680698D02*
X2615182Y-7794984D01*
X2615182Y-7794984D02*
X2738991Y-7794984D01*
X2910420Y-7594984D02*
X2872325Y-7594984D01*
X2872325Y-7594984D02*
X2853277Y-7604508D01*
X2853277Y-7604508D02*
X2843753Y-7614031D01*
X2843753Y-7614031D02*
X2824706Y-7642603D01*
X2824706Y-7642603D02*
X2815182Y-7680698D01*
X2815182Y-7680698D02*
X2815182Y-7756888D01*
X2815182Y-7756888D02*
X2824706Y-7775936D01*
X2824706Y-7775936D02*
X2834229Y-7785460D01*
X2834229Y-7785460D02*
X2853277Y-7794984D01*
X2853277Y-7794984D02*
X2891372Y-7794984D01*
X2891372Y-7794984D02*
X2910420Y-7785460D01*
X2910420Y-7785460D02*
X2919944Y-7775936D01*
X2919944Y-7775936D02*
X2929467Y-7756888D01*
X2929467Y-7756888D02*
X2929467Y-7709269D01*
X2929467Y-7709269D02*
X2919944Y-7690222D01*
X2919944Y-7690222D02*
X2910420Y-7680698D01*
X2910420Y-7680698D02*
X2891372Y-7671174D01*
X2891372Y-7671174D02*
X2853277Y-7671174D01*
X2853277Y-7671174D02*
X2834229Y-7680698D01*
X2834229Y-7680698D02*
X2824706Y-7690222D01*
X2824706Y-7690222D02*
X2815182Y-7709269D01*
X3053277Y-7594984D02*
X3072325Y-7594984D01*
X3072325Y-7594984D02*
X3091372Y-7604508D01*
X3091372Y-7604508D02*
X3100896Y-7614031D01*
X3100896Y-7614031D02*
X3110420Y-7633079D01*
X3110420Y-7633079D02*
X3119944Y-7671174D01*
X3119944Y-7671174D02*
X3119944Y-7718793D01*
X3119944Y-7718793D02*
X3110420Y-7756888D01*
X3110420Y-7756888D02*
X3100896Y-7775936D01*
X3100896Y-7775936D02*
X3091372Y-7785460D01*
X3091372Y-7785460D02*
X3072325Y-7794984D01*
X3072325Y-7794984D02*
X3053277Y-7794984D01*
X3053277Y-7794984D02*
X3034229Y-7785460D01*
X3034229Y-7785460D02*
X3024706Y-7775936D01*
X3024706Y-7775936D02*
X3015182Y-7756888D01*
X3015182Y-7756888D02*
X3005658Y-7718793D01*
X3005658Y-7718793D02*
X3005658Y-7671174D01*
X3005658Y-7671174D02*
X3015182Y-7633079D01*
X3015182Y-7633079D02*
X3024706Y-7614031D01*
X3024706Y-7614031D02*
X3034229Y-7604508D01*
X3034229Y-7604508D02*
X3053277Y-7594984D01*
X3196134Y-7594984D02*
X3196134Y-7633079D01*
X3272325Y-7594984D02*
X3272325Y-7633079D01*
X3567563Y-7871174D02*
X3558039Y-7861650D01*
X3558039Y-7861650D02*
X3538991Y-7833079D01*
X3538991Y-7833079D02*
X3529468Y-7814031D01*
X3529468Y-7814031D02*
X3519944Y-7785460D01*
X3519944Y-7785460D02*
X3510420Y-7737841D01*
X3510420Y-7737841D02*
X3510420Y-7699746D01*
X3510420Y-7699746D02*
X3519944Y-7652127D01*
X3519944Y-7652127D02*
X3529468Y-7623555D01*
X3529468Y-7623555D02*
X3538991Y-7604508D01*
X3538991Y-7604508D02*
X3558039Y-7575936D01*
X3558039Y-7575936D02*
X3567563Y-7566412D01*
X3729468Y-7661650D02*
X3729468Y-7794984D01*
X3681848Y-7585460D02*
X3634229Y-7728317D01*
X3634229Y-7728317D02*
X3758039Y-7728317D01*
X3986610Y-7794984D02*
X3986610Y-7594984D01*
X4072325Y-7794984D02*
X4072325Y-7690222D01*
X4072325Y-7690222D02*
X4062801Y-7671174D01*
X4062801Y-7671174D02*
X4043753Y-7661650D01*
X4043753Y-7661650D02*
X4015182Y-7661650D01*
X4015182Y-7661650D02*
X3996134Y-7671174D01*
X3996134Y-7671174D02*
X3986610Y-7680698D01*
X4196134Y-7794984D02*
X4177087Y-7785460D01*
X4177087Y-7785460D02*
X4167563Y-7775936D01*
X4167563Y-7775936D02*
X4158039Y-7756888D01*
X4158039Y-7756888D02*
X4158039Y-7699746D01*
X4158039Y-7699746D02*
X4167563Y-7680698D01*
X4167563Y-7680698D02*
X4177087Y-7671174D01*
X4177087Y-7671174D02*
X4196134Y-7661650D01*
X4196134Y-7661650D02*
X4224706Y-7661650D01*
X4224706Y-7661650D02*
X4243753Y-7671174D01*
X4243753Y-7671174D02*
X4253277Y-7680698D01*
X4253277Y-7680698D02*
X4262801Y-7699746D01*
X4262801Y-7699746D02*
X4262801Y-7756888D01*
X4262801Y-7756888D02*
X4253277Y-7775936D01*
X4253277Y-7775936D02*
X4243753Y-7785460D01*
X4243753Y-7785460D02*
X4224706Y-7794984D01*
X4224706Y-7794984D02*
X4196134Y-7794984D01*
X4377087Y-7794984D02*
X4358039Y-7785460D01*
X4358039Y-7785460D02*
X4348515Y-7766412D01*
X4348515Y-7766412D02*
X4348515Y-7594984D01*
X4529468Y-7785460D02*
X4510420Y-7794984D01*
X4510420Y-7794984D02*
X4472325Y-7794984D01*
X4472325Y-7794984D02*
X4453277Y-7785460D01*
X4453277Y-7785460D02*
X4443753Y-7766412D01*
X4443753Y-7766412D02*
X4443753Y-7690222D01*
X4443753Y-7690222D02*
X4453277Y-7671174D01*
X4453277Y-7671174D02*
X4472325Y-7661650D01*
X4472325Y-7661650D02*
X4510420Y-7661650D01*
X4510420Y-7661650D02*
X4529468Y-7671174D01*
X4529468Y-7671174D02*
X4538992Y-7690222D01*
X4538992Y-7690222D02*
X4538992Y-7709269D01*
X4538992Y-7709269D02*
X4443753Y-7728317D01*
X4615182Y-7785460D02*
X4634230Y-7794984D01*
X4634230Y-7794984D02*
X4672325Y-7794984D01*
X4672325Y-7794984D02*
X4691373Y-7785460D01*
X4691373Y-7785460D02*
X4700896Y-7766412D01*
X4700896Y-7766412D02*
X4700896Y-7756888D01*
X4700896Y-7756888D02*
X4691373Y-7737841D01*
X4691373Y-7737841D02*
X4672325Y-7728317D01*
X4672325Y-7728317D02*
X4643753Y-7728317D01*
X4643753Y-7728317D02*
X4624706Y-7718793D01*
X4624706Y-7718793D02*
X4615182Y-7699746D01*
X4615182Y-7699746D02*
X4615182Y-7690222D01*
X4615182Y-7690222D02*
X4624706Y-7671174D01*
X4624706Y-7671174D02*
X4643753Y-7661650D01*
X4643753Y-7661650D02*
X4672325Y-7661650D01*
X4672325Y-7661650D02*
X4691373Y-7671174D01*
X4767563Y-7871174D02*
X4777087Y-7861650D01*
X4777087Y-7861650D02*
X4796134Y-7833079D01*
X4796134Y-7833079D02*
X4805658Y-7814031D01*
X4805658Y-7814031D02*
X4815182Y-7785460D01*
X4815182Y-7785460D02*
X4824706Y-7737841D01*
X4824706Y-7737841D02*
X4824706Y-7699746D01*
X4824706Y-7699746D02*
X4815182Y-7652127D01*
X4815182Y-7652127D02*
X4805658Y-7623555D01*
X4805658Y-7623555D02*
X4796134Y-7604508D01*
X4796134Y-7604508D02*
X4777087Y-7575936D01*
X4777087Y-7575936D02*
X4767563Y-7566412D01*
X5129468Y-7871174D02*
X5119944Y-7861650D01*
X5119944Y-7861650D02*
X5100896Y-7833079D01*
X5100896Y-7833079D02*
X5091373Y-7814031D01*
X5091373Y-7814031D02*
X5081849Y-7785460D01*
X5081849Y-7785460D02*
X5072325Y-7737841D01*
X5072325Y-7737841D02*
X5072325Y-7699746D01*
X5072325Y-7699746D02*
X5081849Y-7652127D01*
X5081849Y-7652127D02*
X5091373Y-7623555D01*
X5091373Y-7623555D02*
X5100896Y-7604508D01*
X5100896Y-7604508D02*
X5119944Y-7575936D01*
X5119944Y-7575936D02*
X5129468Y-7566412D01*
X5205658Y-7661650D02*
X5205658Y-7794984D01*
X5205658Y-7680698D02*
X5215182Y-7671174D01*
X5215182Y-7671174D02*
X5234230Y-7661650D01*
X5234230Y-7661650D02*
X5262801Y-7661650D01*
X5262801Y-7661650D02*
X5281849Y-7671174D01*
X5281849Y-7671174D02*
X5291373Y-7690222D01*
X5291373Y-7690222D02*
X5291373Y-7794984D01*
X5415182Y-7794984D02*
X5396134Y-7785460D01*
X5396134Y-7785460D02*
X5386611Y-7775936D01*
X5386611Y-7775936D02*
X5377087Y-7756888D01*
X5377087Y-7756888D02*
X5377087Y-7699746D01*
X5377087Y-7699746D02*
X5386611Y-7680698D01*
X5386611Y-7680698D02*
X5396134Y-7671174D01*
X5396134Y-7671174D02*
X5415182Y-7661650D01*
X5415182Y-7661650D02*
X5443754Y-7661650D01*
X5443754Y-7661650D02*
X5462801Y-7671174D01*
X5462801Y-7671174D02*
X5472325Y-7680698D01*
X5472325Y-7680698D02*
X5481849Y-7699746D01*
X5481849Y-7699746D02*
X5481849Y-7756888D01*
X5481849Y-7756888D02*
X5472325Y-7775936D01*
X5472325Y-7775936D02*
X5462801Y-7785460D01*
X5462801Y-7785460D02*
X5443754Y-7794984D01*
X5443754Y-7794984D02*
X5415182Y-7794984D01*
X5538992Y-7661650D02*
X5615182Y-7661650D01*
X5567563Y-7594984D02*
X5567563Y-7766412D01*
X5567563Y-7766412D02*
X5577087Y-7785460D01*
X5577087Y-7785460D02*
X5596134Y-7794984D01*
X5596134Y-7794984D02*
X5615182Y-7794984D01*
X5834230Y-7661650D02*
X5834230Y-7861650D01*
X5834230Y-7671174D02*
X5853277Y-7661650D01*
X5853277Y-7661650D02*
X5891373Y-7661650D01*
X5891373Y-7661650D02*
X5910420Y-7671174D01*
X5910420Y-7671174D02*
X5919944Y-7680698D01*
X5919944Y-7680698D02*
X5929468Y-7699746D01*
X5929468Y-7699746D02*
X5929468Y-7756888D01*
X5929468Y-7756888D02*
X5919944Y-7775936D01*
X5919944Y-7775936D02*
X5910420Y-7785460D01*
X5910420Y-7785460D02*
X5891373Y-7794984D01*
X5891373Y-7794984D02*
X5853277Y-7794984D01*
X5853277Y-7794984D02*
X5834230Y-7785460D01*
X6043753Y-7794984D02*
X6024706Y-7785460D01*
X6024706Y-7785460D02*
X6015182Y-7766412D01*
X6015182Y-7766412D02*
X6015182Y-7594984D01*
X6205658Y-7794984D02*
X6205658Y-7690222D01*
X6205658Y-7690222D02*
X6196134Y-7671174D01*
X6196134Y-7671174D02*
X6177087Y-7661650D01*
X6177087Y-7661650D02*
X6138992Y-7661650D01*
X6138992Y-7661650D02*
X6119944Y-7671174D01*
X6205658Y-7785460D02*
X6186611Y-7794984D01*
X6186611Y-7794984D02*
X6138992Y-7794984D01*
X6138992Y-7794984D02*
X6119944Y-7785460D01*
X6119944Y-7785460D02*
X6110420Y-7766412D01*
X6110420Y-7766412D02*
X6110420Y-7747365D01*
X6110420Y-7747365D02*
X6119944Y-7728317D01*
X6119944Y-7728317D02*
X6138992Y-7718793D01*
X6138992Y-7718793D02*
X6186611Y-7718793D01*
X6186611Y-7718793D02*
X6205658Y-7709269D01*
X6272325Y-7661650D02*
X6348515Y-7661650D01*
X6300896Y-7594984D02*
X6300896Y-7766412D01*
X6300896Y-7766412D02*
X6310420Y-7785460D01*
X6310420Y-7785460D02*
X6329468Y-7794984D01*
X6329468Y-7794984D02*
X6348515Y-7794984D01*
X6491373Y-7785460D02*
X6472325Y-7794984D01*
X6472325Y-7794984D02*
X6434230Y-7794984D01*
X6434230Y-7794984D02*
X6415182Y-7785460D01*
X6415182Y-7785460D02*
X6405658Y-7766412D01*
X6405658Y-7766412D02*
X6405658Y-7690222D01*
X6405658Y-7690222D02*
X6415182Y-7671174D01*
X6415182Y-7671174D02*
X6434230Y-7661650D01*
X6434230Y-7661650D02*
X6472325Y-7661650D01*
X6472325Y-7661650D02*
X6491373Y-7671174D01*
X6491373Y-7671174D02*
X6500896Y-7690222D01*
X6500896Y-7690222D02*
X6500896Y-7709269D01*
X6500896Y-7709269D02*
X6405658Y-7728317D01*
X6672325Y-7794984D02*
X6672325Y-7594984D01*
X6672325Y-7785460D02*
X6653277Y-7794984D01*
X6653277Y-7794984D02*
X6615182Y-7794984D01*
X6615182Y-7794984D02*
X6596134Y-7785460D01*
X6596134Y-7785460D02*
X6586611Y-7775936D01*
X6586611Y-7775936D02*
X6577087Y-7756888D01*
X6577087Y-7756888D02*
X6577087Y-7699746D01*
X6577087Y-7699746D02*
X6586611Y-7680698D01*
X6586611Y-7680698D02*
X6596134Y-7671174D01*
X6596134Y-7671174D02*
X6615182Y-7661650D01*
X6615182Y-7661650D02*
X6653277Y-7661650D01*
X6653277Y-7661650D02*
X6672325Y-7671174D01*
X6748515Y-7871174D02*
X6758039Y-7861650D01*
X6758039Y-7861650D02*
X6777087Y-7833079D01*
X6777087Y-7833079D02*
X6786611Y-7814031D01*
X6786611Y-7814031D02*
X6796134Y-7785460D01*
X6796134Y-7785460D02*
X6805658Y-7737841D01*
X6805658Y-7737841D02*
X6805658Y-7699746D01*
X6805658Y-7699746D02*
X6796134Y-7652127D01*
X6796134Y-7652127D02*
X6786611Y-7623555D01*
X6786611Y-7623555D02*
X6777087Y-7604508D01*
X6777087Y-7604508D02*
X6758039Y-7575936D01*
X6758039Y-7575936D02*
X6748515Y-7566412D01*
M02*
