%TF.GenerationSoftware,KiCad,Pcbnew,9.0.9-9.0.9~ubuntu24.04.1*%
%TF.CreationDate,2026-09-01T08:34:25+02:00*%
%TF.ProjectId,daughtercard,64617567-6874-4657-9263-6172642e6b69,rev?*%
%TF.SameCoordinates,Original*%
%TF.FileFunction,Legend,Top*%
%TF.FilePolarity,Positive*%
%FSLAX46Y46*%
G04 Gerber Fmt 4.6, Leading zero omitted, Abs format (unit mm)*
G04 Created by KiCad (PCBNEW 9.0.9-9.0.9~ubuntu24.04.1) date 2026-09-01 08:34:25*
%MOMM*%
%LPD*%
G01*
G04 APERTURE LIST*
%ADD10C,0.150000*%
%ADD11C,0.120000*%
G04 APERTURE END LIST*
D10*
X69238095Y-52304819D02*
X69238095Y-51304819D01*
X69238095Y-51781009D02*
X69809523Y-51781009D01*
X69809523Y-52304819D02*
X69809523Y-51304819D01*
X70714285Y-51638152D02*
X70714285Y-52304819D01*
X70476190Y-51257200D02*
X70238095Y-51971485D01*
X70238095Y-51971485D02*
X70857142Y-51971485D01*
X17833333Y-24679580D02*
X17785714Y-24727200D01*
X17785714Y-24727200D02*
X17642857Y-24774819D01*
X17642857Y-24774819D02*
X17547619Y-24774819D01*
X17547619Y-24774819D02*
X17404762Y-24727200D01*
X17404762Y-24727200D02*
X17309524Y-24631961D01*
X17309524Y-24631961D02*
X17261905Y-24536723D01*
X17261905Y-24536723D02*
X17214286Y-24346247D01*
X17214286Y-24346247D02*
X17214286Y-24203390D01*
X17214286Y-24203390D02*
X17261905Y-24012914D01*
X17261905Y-24012914D02*
X17309524Y-23917676D01*
X17309524Y-23917676D02*
X17404762Y-23822438D01*
X17404762Y-23822438D02*
X17547619Y-23774819D01*
X17547619Y-23774819D02*
X17642857Y-23774819D01*
X17642857Y-23774819D02*
X17785714Y-23822438D01*
X17785714Y-23822438D02*
X17833333Y-23870057D01*
X18690476Y-24108152D02*
X18690476Y-24774819D01*
X18452381Y-23727200D02*
X18214286Y-24441485D01*
X18214286Y-24441485D02*
X18833333Y-24441485D01*
X44124819Y-20680357D02*
X43648628Y-21013690D01*
X44124819Y-21251785D02*
X43124819Y-21251785D01*
X43124819Y-21251785D02*
X43124819Y-20870833D01*
X43124819Y-20870833D02*
X43172438Y-20775595D01*
X43172438Y-20775595D02*
X43220057Y-20727976D01*
X43220057Y-20727976D02*
X43315295Y-20680357D01*
X43315295Y-20680357D02*
X43458152Y-20680357D01*
X43458152Y-20680357D02*
X43553390Y-20727976D01*
X43553390Y-20727976D02*
X43601009Y-20775595D01*
X43601009Y-20775595D02*
X43648628Y-20870833D01*
X43648628Y-20870833D02*
X43648628Y-21251785D01*
X44124819Y-19727976D02*
X44124819Y-20299404D01*
X44124819Y-20013690D02*
X43124819Y-20013690D01*
X43124819Y-20013690D02*
X43267676Y-20108928D01*
X43267676Y-20108928D02*
X43362914Y-20204166D01*
X43362914Y-20204166D02*
X43410533Y-20299404D01*
X43458152Y-18870833D02*
X44124819Y-18870833D01*
X43077200Y-19108928D02*
X43791485Y-19347023D01*
X43791485Y-19347023D02*
X43791485Y-18727976D01*
X2238095Y-30806819D02*
X2809523Y-30806819D01*
X2523809Y-31806819D02*
X2523809Y-30806819D01*
X3142857Y-31806819D02*
X3142857Y-30806819D01*
X3142857Y-30806819D02*
X3523809Y-30806819D01*
X3523809Y-30806819D02*
X3619047Y-30854438D01*
X3619047Y-30854438D02*
X3666666Y-30902057D01*
X3666666Y-30902057D02*
X3714285Y-30997295D01*
X3714285Y-30997295D02*
X3714285Y-31140152D01*
X3714285Y-31140152D02*
X3666666Y-31235390D01*
X3666666Y-31235390D02*
X3619047Y-31283009D01*
X3619047Y-31283009D02*
X3523809Y-31330628D01*
X3523809Y-31330628D02*
X3142857Y-31330628D01*
X4047619Y-30806819D02*
X4666666Y-30806819D01*
X4666666Y-30806819D02*
X4333333Y-31187771D01*
X4333333Y-31187771D02*
X4476190Y-31187771D01*
X4476190Y-31187771D02*
X4571428Y-31235390D01*
X4571428Y-31235390D02*
X4619047Y-31283009D01*
X4619047Y-31283009D02*
X4666666Y-31378247D01*
X4666666Y-31378247D02*
X4666666Y-31616342D01*
X4666666Y-31616342D02*
X4619047Y-31711580D01*
X4619047Y-31711580D02*
X4571428Y-31759200D01*
X4571428Y-31759200D02*
X4476190Y-31806819D01*
X4476190Y-31806819D02*
X4190476Y-31806819D01*
X4190476Y-31806819D02*
X4095238Y-31759200D01*
X4095238Y-31759200D02*
X4047619Y-31711580D01*
X39444642Y-41804819D02*
X39111309Y-41328628D01*
X38873214Y-41804819D02*
X38873214Y-40804819D01*
X38873214Y-40804819D02*
X39254166Y-40804819D01*
X39254166Y-40804819D02*
X39349404Y-40852438D01*
X39349404Y-40852438D02*
X39397023Y-40900057D01*
X39397023Y-40900057D02*
X39444642Y-40995295D01*
X39444642Y-40995295D02*
X39444642Y-41138152D01*
X39444642Y-41138152D02*
X39397023Y-41233390D01*
X39397023Y-41233390D02*
X39349404Y-41281009D01*
X39349404Y-41281009D02*
X39254166Y-41328628D01*
X39254166Y-41328628D02*
X38873214Y-41328628D01*
X40397023Y-41804819D02*
X39825595Y-41804819D01*
X40111309Y-41804819D02*
X40111309Y-40804819D01*
X40111309Y-40804819D02*
X40016071Y-40947676D01*
X40016071Y-40947676D02*
X39920833Y-41042914D01*
X39920833Y-41042914D02*
X39825595Y-41090533D01*
X41349404Y-41804819D02*
X40777976Y-41804819D01*
X41063690Y-41804819D02*
X41063690Y-40804819D01*
X41063690Y-40804819D02*
X40968452Y-40947676D01*
X40968452Y-40947676D02*
X40873214Y-41042914D01*
X40873214Y-41042914D02*
X40777976Y-41090533D01*
X22261905Y-24054819D02*
X22261905Y-23054819D01*
X22261905Y-23054819D02*
X22500000Y-23054819D01*
X22500000Y-23054819D02*
X22642857Y-23102438D01*
X22642857Y-23102438D02*
X22738095Y-23197676D01*
X22738095Y-23197676D02*
X22785714Y-23292914D01*
X22785714Y-23292914D02*
X22833333Y-23483390D01*
X22833333Y-23483390D02*
X22833333Y-23626247D01*
X22833333Y-23626247D02*
X22785714Y-23816723D01*
X22785714Y-23816723D02*
X22738095Y-23911961D01*
X22738095Y-23911961D02*
X22642857Y-24007200D01*
X22642857Y-24007200D02*
X22500000Y-24054819D01*
X22500000Y-24054819D02*
X22261905Y-24054819D01*
X23785714Y-24054819D02*
X23214286Y-24054819D01*
X23500000Y-24054819D02*
X23500000Y-23054819D01*
X23500000Y-23054819D02*
X23404762Y-23197676D01*
X23404762Y-23197676D02*
X23309524Y-23292914D01*
X23309524Y-23292914D02*
X23214286Y-23340533D01*
X7833333Y-38804819D02*
X7500000Y-38328628D01*
X7261905Y-38804819D02*
X7261905Y-37804819D01*
X7261905Y-37804819D02*
X7642857Y-37804819D01*
X7642857Y-37804819D02*
X7738095Y-37852438D01*
X7738095Y-37852438D02*
X7785714Y-37900057D01*
X7785714Y-37900057D02*
X7833333Y-37995295D01*
X7833333Y-37995295D02*
X7833333Y-38138152D01*
X7833333Y-38138152D02*
X7785714Y-38233390D01*
X7785714Y-38233390D02*
X7738095Y-38281009D01*
X7738095Y-38281009D02*
X7642857Y-38328628D01*
X7642857Y-38328628D02*
X7261905Y-38328628D01*
X8738095Y-37804819D02*
X8261905Y-37804819D01*
X8261905Y-37804819D02*
X8214286Y-38281009D01*
X8214286Y-38281009D02*
X8261905Y-38233390D01*
X8261905Y-38233390D02*
X8357143Y-38185771D01*
X8357143Y-38185771D02*
X8595238Y-38185771D01*
X8595238Y-38185771D02*
X8690476Y-38233390D01*
X8690476Y-38233390D02*
X8738095Y-38281009D01*
X8738095Y-38281009D02*
X8785714Y-38376247D01*
X8785714Y-38376247D02*
X8785714Y-38614342D01*
X8785714Y-38614342D02*
X8738095Y-38709580D01*
X8738095Y-38709580D02*
X8690476Y-38757200D01*
X8690476Y-38757200D02*
X8595238Y-38804819D01*
X8595238Y-38804819D02*
X8357143Y-38804819D01*
X8357143Y-38804819D02*
X8261905Y-38757200D01*
X8261905Y-38757200D02*
X8214286Y-38709580D01*
X53126666Y-46134819D02*
X53126666Y-46849104D01*
X53126666Y-46849104D02*
X53079047Y-46991961D01*
X53079047Y-46991961D02*
X52983809Y-47087200D01*
X52983809Y-47087200D02*
X52840952Y-47134819D01*
X52840952Y-47134819D02*
X52745714Y-47134819D01*
X54031428Y-46468152D02*
X54031428Y-47134819D01*
X53793333Y-46087200D02*
X53555238Y-46801485D01*
X53555238Y-46801485D02*
X54174285Y-46801485D01*
X12833333Y-24804819D02*
X12500000Y-24328628D01*
X12261905Y-24804819D02*
X12261905Y-23804819D01*
X12261905Y-23804819D02*
X12642857Y-23804819D01*
X12642857Y-23804819D02*
X12738095Y-23852438D01*
X12738095Y-23852438D02*
X12785714Y-23900057D01*
X12785714Y-23900057D02*
X12833333Y-23995295D01*
X12833333Y-23995295D02*
X12833333Y-24138152D01*
X12833333Y-24138152D02*
X12785714Y-24233390D01*
X12785714Y-24233390D02*
X12738095Y-24281009D01*
X12738095Y-24281009D02*
X12642857Y-24328628D01*
X12642857Y-24328628D02*
X12261905Y-24328628D01*
X13214286Y-23900057D02*
X13261905Y-23852438D01*
X13261905Y-23852438D02*
X13357143Y-23804819D01*
X13357143Y-23804819D02*
X13595238Y-23804819D01*
X13595238Y-23804819D02*
X13690476Y-23852438D01*
X13690476Y-23852438D02*
X13738095Y-23900057D01*
X13738095Y-23900057D02*
X13785714Y-23995295D01*
X13785714Y-23995295D02*
X13785714Y-24090533D01*
X13785714Y-24090533D02*
X13738095Y-24233390D01*
X13738095Y-24233390D02*
X13166667Y-24804819D01*
X13166667Y-24804819D02*
X13785714Y-24804819D01*
X44016666Y-30654819D02*
X44016666Y-31369104D01*
X44016666Y-31369104D02*
X43969047Y-31511961D01*
X43969047Y-31511961D02*
X43873809Y-31607200D01*
X43873809Y-31607200D02*
X43730952Y-31654819D01*
X43730952Y-31654819D02*
X43635714Y-31654819D01*
X44492857Y-31654819D02*
X44492857Y-30654819D01*
X44492857Y-30654819D02*
X44873809Y-30654819D01*
X44873809Y-30654819D02*
X44969047Y-30702438D01*
X44969047Y-30702438D02*
X45016666Y-30750057D01*
X45016666Y-30750057D02*
X45064285Y-30845295D01*
X45064285Y-30845295D02*
X45064285Y-30988152D01*
X45064285Y-30988152D02*
X45016666Y-31083390D01*
X45016666Y-31083390D02*
X44969047Y-31131009D01*
X44969047Y-31131009D02*
X44873809Y-31178628D01*
X44873809Y-31178628D02*
X44492857Y-31178628D01*
X46016666Y-31654819D02*
X45445238Y-31654819D01*
X45730952Y-31654819D02*
X45730952Y-30654819D01*
X45730952Y-30654819D02*
X45635714Y-30797676D01*
X45635714Y-30797676D02*
X45540476Y-30892914D01*
X45540476Y-30892914D02*
X45445238Y-30940533D01*
X37654819Y-20483333D02*
X38369104Y-20483333D01*
X38369104Y-20483333D02*
X38511961Y-20530952D01*
X38511961Y-20530952D02*
X38607200Y-20626190D01*
X38607200Y-20626190D02*
X38654819Y-20769047D01*
X38654819Y-20769047D02*
X38654819Y-20864285D01*
X38654819Y-20007142D02*
X37654819Y-20007142D01*
X37654819Y-20007142D02*
X37654819Y-19626190D01*
X37654819Y-19626190D02*
X37702438Y-19530952D01*
X37702438Y-19530952D02*
X37750057Y-19483333D01*
X37750057Y-19483333D02*
X37845295Y-19435714D01*
X37845295Y-19435714D02*
X37988152Y-19435714D01*
X37988152Y-19435714D02*
X38083390Y-19483333D01*
X38083390Y-19483333D02*
X38131009Y-19530952D01*
X38131009Y-19530952D02*
X38178628Y-19626190D01*
X38178628Y-19626190D02*
X38178628Y-20007142D01*
X37654819Y-19102380D02*
X37654819Y-18483333D01*
X37654819Y-18483333D02*
X38035771Y-18816666D01*
X38035771Y-18816666D02*
X38035771Y-18673809D01*
X38035771Y-18673809D02*
X38083390Y-18578571D01*
X38083390Y-18578571D02*
X38131009Y-18530952D01*
X38131009Y-18530952D02*
X38226247Y-18483333D01*
X38226247Y-18483333D02*
X38464342Y-18483333D01*
X38464342Y-18483333D02*
X38559580Y-18530952D01*
X38559580Y-18530952D02*
X38607200Y-18578571D01*
X38607200Y-18578571D02*
X38654819Y-18673809D01*
X38654819Y-18673809D02*
X38654819Y-18959523D01*
X38654819Y-18959523D02*
X38607200Y-19054761D01*
X38607200Y-19054761D02*
X38559580Y-19102380D01*
X44444642Y-36804819D02*
X44111309Y-36328628D01*
X43873214Y-36804819D02*
X43873214Y-35804819D01*
X43873214Y-35804819D02*
X44254166Y-35804819D01*
X44254166Y-35804819D02*
X44349404Y-35852438D01*
X44349404Y-35852438D02*
X44397023Y-35900057D01*
X44397023Y-35900057D02*
X44444642Y-35995295D01*
X44444642Y-35995295D02*
X44444642Y-36138152D01*
X44444642Y-36138152D02*
X44397023Y-36233390D01*
X44397023Y-36233390D02*
X44349404Y-36281009D01*
X44349404Y-36281009D02*
X44254166Y-36328628D01*
X44254166Y-36328628D02*
X43873214Y-36328628D01*
X45397023Y-36804819D02*
X44825595Y-36804819D01*
X45111309Y-36804819D02*
X45111309Y-35804819D01*
X45111309Y-35804819D02*
X45016071Y-35947676D01*
X45016071Y-35947676D02*
X44920833Y-36042914D01*
X44920833Y-36042914D02*
X44825595Y-36090533D01*
X45730357Y-35804819D02*
X46349404Y-35804819D01*
X46349404Y-35804819D02*
X46016071Y-36185771D01*
X46016071Y-36185771D02*
X46158928Y-36185771D01*
X46158928Y-36185771D02*
X46254166Y-36233390D01*
X46254166Y-36233390D02*
X46301785Y-36281009D01*
X46301785Y-36281009D02*
X46349404Y-36376247D01*
X46349404Y-36376247D02*
X46349404Y-36614342D01*
X46349404Y-36614342D02*
X46301785Y-36709580D01*
X46301785Y-36709580D02*
X46254166Y-36757200D01*
X46254166Y-36757200D02*
X46158928Y-36804819D01*
X46158928Y-36804819D02*
X45873214Y-36804819D01*
X45873214Y-36804819D02*
X45777976Y-36757200D01*
X45777976Y-36757200D02*
X45730357Y-36709580D01*
X60357142Y-28304819D02*
X60023809Y-27828628D01*
X59785714Y-28304819D02*
X59785714Y-27304819D01*
X59785714Y-27304819D02*
X60166666Y-27304819D01*
X60166666Y-27304819D02*
X60261904Y-27352438D01*
X60261904Y-27352438D02*
X60309523Y-27400057D01*
X60309523Y-27400057D02*
X60357142Y-27495295D01*
X60357142Y-27495295D02*
X60357142Y-27638152D01*
X60357142Y-27638152D02*
X60309523Y-27733390D01*
X60309523Y-27733390D02*
X60261904Y-27781009D01*
X60261904Y-27781009D02*
X60166666Y-27828628D01*
X60166666Y-27828628D02*
X59785714Y-27828628D01*
X61309523Y-28304819D02*
X60738095Y-28304819D01*
X61023809Y-28304819D02*
X61023809Y-27304819D01*
X61023809Y-27304819D02*
X60928571Y-27447676D01*
X60928571Y-27447676D02*
X60833333Y-27542914D01*
X60833333Y-27542914D02*
X60738095Y-27590533D01*
X62214285Y-27304819D02*
X61738095Y-27304819D01*
X61738095Y-27304819D02*
X61690476Y-27781009D01*
X61690476Y-27781009D02*
X61738095Y-27733390D01*
X61738095Y-27733390D02*
X61833333Y-27685771D01*
X61833333Y-27685771D02*
X62071428Y-27685771D01*
X62071428Y-27685771D02*
X62166666Y-27733390D01*
X62166666Y-27733390D02*
X62214285Y-27781009D01*
X62214285Y-27781009D02*
X62261904Y-27876247D01*
X62261904Y-27876247D02*
X62261904Y-28114342D01*
X62261904Y-28114342D02*
X62214285Y-28209580D01*
X62214285Y-28209580D02*
X62166666Y-28257200D01*
X62166666Y-28257200D02*
X62071428Y-28304819D01*
X62071428Y-28304819D02*
X61833333Y-28304819D01*
X61833333Y-28304819D02*
X61738095Y-28257200D01*
X61738095Y-28257200D02*
X61690476Y-28209580D01*
X22261905Y-38054819D02*
X22261905Y-37054819D01*
X22261905Y-37054819D02*
X22500000Y-37054819D01*
X22500000Y-37054819D02*
X22642857Y-37102438D01*
X22642857Y-37102438D02*
X22738095Y-37197676D01*
X22738095Y-37197676D02*
X22785714Y-37292914D01*
X22785714Y-37292914D02*
X22833333Y-37483390D01*
X22833333Y-37483390D02*
X22833333Y-37626247D01*
X22833333Y-37626247D02*
X22785714Y-37816723D01*
X22785714Y-37816723D02*
X22738095Y-37911961D01*
X22738095Y-37911961D02*
X22642857Y-38007200D01*
X22642857Y-38007200D02*
X22500000Y-38054819D01*
X22500000Y-38054819D02*
X22261905Y-38054819D01*
X23166667Y-37054819D02*
X23785714Y-37054819D01*
X23785714Y-37054819D02*
X23452381Y-37435771D01*
X23452381Y-37435771D02*
X23595238Y-37435771D01*
X23595238Y-37435771D02*
X23690476Y-37483390D01*
X23690476Y-37483390D02*
X23738095Y-37531009D01*
X23738095Y-37531009D02*
X23785714Y-37626247D01*
X23785714Y-37626247D02*
X23785714Y-37864342D01*
X23785714Y-37864342D02*
X23738095Y-37959580D01*
X23738095Y-37959580D02*
X23690476Y-38007200D01*
X23690476Y-38007200D02*
X23595238Y-38054819D01*
X23595238Y-38054819D02*
X23309524Y-38054819D01*
X23309524Y-38054819D02*
X23214286Y-38007200D01*
X23214286Y-38007200D02*
X23166667Y-37959580D01*
X12194819Y-53063333D02*
X12909104Y-53063333D01*
X12909104Y-53063333D02*
X13051961Y-53110952D01*
X13051961Y-53110952D02*
X13147200Y-53206190D01*
X13147200Y-53206190D02*
X13194819Y-53349047D01*
X13194819Y-53349047D02*
X13194819Y-53444285D01*
X12290057Y-52634761D02*
X12242438Y-52587142D01*
X12242438Y-52587142D02*
X12194819Y-52491904D01*
X12194819Y-52491904D02*
X12194819Y-52253809D01*
X12194819Y-52253809D02*
X12242438Y-52158571D01*
X12242438Y-52158571D02*
X12290057Y-52110952D01*
X12290057Y-52110952D02*
X12385295Y-52063333D01*
X12385295Y-52063333D02*
X12480533Y-52063333D01*
X12480533Y-52063333D02*
X12623390Y-52110952D01*
X12623390Y-52110952D02*
X13194819Y-52682380D01*
X13194819Y-52682380D02*
X13194819Y-52063333D01*
X17833333Y-38679580D02*
X17785714Y-38727200D01*
X17785714Y-38727200D02*
X17642857Y-38774819D01*
X17642857Y-38774819D02*
X17547619Y-38774819D01*
X17547619Y-38774819D02*
X17404762Y-38727200D01*
X17404762Y-38727200D02*
X17309524Y-38631961D01*
X17309524Y-38631961D02*
X17261905Y-38536723D01*
X17261905Y-38536723D02*
X17214286Y-38346247D01*
X17214286Y-38346247D02*
X17214286Y-38203390D01*
X17214286Y-38203390D02*
X17261905Y-38012914D01*
X17261905Y-38012914D02*
X17309524Y-37917676D01*
X17309524Y-37917676D02*
X17404762Y-37822438D01*
X17404762Y-37822438D02*
X17547619Y-37774819D01*
X17547619Y-37774819D02*
X17642857Y-37774819D01*
X17642857Y-37774819D02*
X17785714Y-37822438D01*
X17785714Y-37822438D02*
X17833333Y-37870057D01*
X18690476Y-37774819D02*
X18500000Y-37774819D01*
X18500000Y-37774819D02*
X18404762Y-37822438D01*
X18404762Y-37822438D02*
X18357143Y-37870057D01*
X18357143Y-37870057D02*
X18261905Y-38012914D01*
X18261905Y-38012914D02*
X18214286Y-38203390D01*
X18214286Y-38203390D02*
X18214286Y-38584342D01*
X18214286Y-38584342D02*
X18261905Y-38679580D01*
X18261905Y-38679580D02*
X18309524Y-38727200D01*
X18309524Y-38727200D02*
X18404762Y-38774819D01*
X18404762Y-38774819D02*
X18595238Y-38774819D01*
X18595238Y-38774819D02*
X18690476Y-38727200D01*
X18690476Y-38727200D02*
X18738095Y-38679580D01*
X18738095Y-38679580D02*
X18785714Y-38584342D01*
X18785714Y-38584342D02*
X18785714Y-38346247D01*
X18785714Y-38346247D02*
X18738095Y-38251009D01*
X18738095Y-38251009D02*
X18690476Y-38203390D01*
X18690476Y-38203390D02*
X18595238Y-38155771D01*
X18595238Y-38155771D02*
X18404762Y-38155771D01*
X18404762Y-38155771D02*
X18309524Y-38203390D01*
X18309524Y-38203390D02*
X18261905Y-38251009D01*
X18261905Y-38251009D02*
X18214286Y-38346247D01*
X61904761Y-23150057D02*
X61809523Y-23102438D01*
X61809523Y-23102438D02*
X61714285Y-23007200D01*
X61714285Y-23007200D02*
X61571428Y-22864342D01*
X61571428Y-22864342D02*
X61476190Y-22816723D01*
X61476190Y-22816723D02*
X61380952Y-22816723D01*
X61428571Y-23054819D02*
X61333333Y-23007200D01*
X61333333Y-23007200D02*
X61238095Y-22911961D01*
X61238095Y-22911961D02*
X61190476Y-22721485D01*
X61190476Y-22721485D02*
X61190476Y-22388152D01*
X61190476Y-22388152D02*
X61238095Y-22197676D01*
X61238095Y-22197676D02*
X61333333Y-22102438D01*
X61333333Y-22102438D02*
X61428571Y-22054819D01*
X61428571Y-22054819D02*
X61619047Y-22054819D01*
X61619047Y-22054819D02*
X61714285Y-22102438D01*
X61714285Y-22102438D02*
X61809523Y-22197676D01*
X61809523Y-22197676D02*
X61857142Y-22388152D01*
X61857142Y-22388152D02*
X61857142Y-22721485D01*
X61857142Y-22721485D02*
X61809523Y-22911961D01*
X61809523Y-22911961D02*
X61714285Y-23007200D01*
X61714285Y-23007200D02*
X61619047Y-23054819D01*
X61619047Y-23054819D02*
X61428571Y-23054819D01*
X62238095Y-22150057D02*
X62285714Y-22102438D01*
X62285714Y-22102438D02*
X62380952Y-22054819D01*
X62380952Y-22054819D02*
X62619047Y-22054819D01*
X62619047Y-22054819D02*
X62714285Y-22102438D01*
X62714285Y-22102438D02*
X62761904Y-22150057D01*
X62761904Y-22150057D02*
X62809523Y-22245295D01*
X62809523Y-22245295D02*
X62809523Y-22340533D01*
X62809523Y-22340533D02*
X62761904Y-22483390D01*
X62761904Y-22483390D02*
X62190476Y-23054819D01*
X62190476Y-23054819D02*
X62809523Y-23054819D01*
X65904761Y-23150057D02*
X65809523Y-23102438D01*
X65809523Y-23102438D02*
X65714285Y-23007200D01*
X65714285Y-23007200D02*
X65571428Y-22864342D01*
X65571428Y-22864342D02*
X65476190Y-22816723D01*
X65476190Y-22816723D02*
X65380952Y-22816723D01*
X65428571Y-23054819D02*
X65333333Y-23007200D01*
X65333333Y-23007200D02*
X65238095Y-22911961D01*
X65238095Y-22911961D02*
X65190476Y-22721485D01*
X65190476Y-22721485D02*
X65190476Y-22388152D01*
X65190476Y-22388152D02*
X65238095Y-22197676D01*
X65238095Y-22197676D02*
X65333333Y-22102438D01*
X65333333Y-22102438D02*
X65428571Y-22054819D01*
X65428571Y-22054819D02*
X65619047Y-22054819D01*
X65619047Y-22054819D02*
X65714285Y-22102438D01*
X65714285Y-22102438D02*
X65809523Y-22197676D01*
X65809523Y-22197676D02*
X65857142Y-22388152D01*
X65857142Y-22388152D02*
X65857142Y-22721485D01*
X65857142Y-22721485D02*
X65809523Y-22911961D01*
X65809523Y-22911961D02*
X65714285Y-23007200D01*
X65714285Y-23007200D02*
X65619047Y-23054819D01*
X65619047Y-23054819D02*
X65428571Y-23054819D01*
X66809523Y-23054819D02*
X66238095Y-23054819D01*
X66523809Y-23054819D02*
X66523809Y-22054819D01*
X66523809Y-22054819D02*
X66428571Y-22197676D01*
X66428571Y-22197676D02*
X66333333Y-22292914D01*
X66333333Y-22292914D02*
X66238095Y-22340533D01*
X69238095Y-8954819D02*
X69238095Y-7954819D01*
X69238095Y-8431009D02*
X69809523Y-8431009D01*
X69809523Y-8954819D02*
X69809523Y-7954819D01*
X70238095Y-8050057D02*
X70285714Y-8002438D01*
X70285714Y-8002438D02*
X70380952Y-7954819D01*
X70380952Y-7954819D02*
X70619047Y-7954819D01*
X70619047Y-7954819D02*
X70714285Y-8002438D01*
X70714285Y-8002438D02*
X70761904Y-8050057D01*
X70761904Y-8050057D02*
X70809523Y-8145295D01*
X70809523Y-8145295D02*
X70809523Y-8240533D01*
X70809523Y-8240533D02*
X70761904Y-8383390D01*
X70761904Y-8383390D02*
X70190476Y-8954819D01*
X70190476Y-8954819D02*
X70809523Y-8954819D01*
X38666666Y-48074819D02*
X38666666Y-48789104D01*
X38666666Y-48789104D02*
X38619047Y-48931961D01*
X38619047Y-48931961D02*
X38523809Y-49027200D01*
X38523809Y-49027200D02*
X38380952Y-49074819D01*
X38380952Y-49074819D02*
X38285714Y-49074819D01*
X39571428Y-48074819D02*
X39380952Y-48074819D01*
X39380952Y-48074819D02*
X39285714Y-48122438D01*
X39285714Y-48122438D02*
X39238095Y-48170057D01*
X39238095Y-48170057D02*
X39142857Y-48312914D01*
X39142857Y-48312914D02*
X39095238Y-48503390D01*
X39095238Y-48503390D02*
X39095238Y-48884342D01*
X39095238Y-48884342D02*
X39142857Y-48979580D01*
X39142857Y-48979580D02*
X39190476Y-49027200D01*
X39190476Y-49027200D02*
X39285714Y-49074819D01*
X39285714Y-49074819D02*
X39476190Y-49074819D01*
X39476190Y-49074819D02*
X39571428Y-49027200D01*
X39571428Y-49027200D02*
X39619047Y-48979580D01*
X39619047Y-48979580D02*
X39666666Y-48884342D01*
X39666666Y-48884342D02*
X39666666Y-48646247D01*
X39666666Y-48646247D02*
X39619047Y-48551009D01*
X39619047Y-48551009D02*
X39571428Y-48503390D01*
X39571428Y-48503390D02*
X39476190Y-48455771D01*
X39476190Y-48455771D02*
X39285714Y-48455771D01*
X39285714Y-48455771D02*
X39190476Y-48503390D01*
X39190476Y-48503390D02*
X39142857Y-48551009D01*
X39142857Y-48551009D02*
X39095238Y-48646247D01*
X3238095Y-52304819D02*
X3238095Y-51304819D01*
X3238095Y-51781009D02*
X3809523Y-51781009D01*
X3809523Y-52304819D02*
X3809523Y-51304819D01*
X4190476Y-51304819D02*
X4809523Y-51304819D01*
X4809523Y-51304819D02*
X4476190Y-51685771D01*
X4476190Y-51685771D02*
X4619047Y-51685771D01*
X4619047Y-51685771D02*
X4714285Y-51733390D01*
X4714285Y-51733390D02*
X4761904Y-51781009D01*
X4761904Y-51781009D02*
X4809523Y-51876247D01*
X4809523Y-51876247D02*
X4809523Y-52114342D01*
X4809523Y-52114342D02*
X4761904Y-52209580D01*
X4761904Y-52209580D02*
X4714285Y-52257200D01*
X4714285Y-52257200D02*
X4619047Y-52304819D01*
X4619047Y-52304819D02*
X4333333Y-52304819D01*
X4333333Y-52304819D02*
X4238095Y-52257200D01*
X4238095Y-52257200D02*
X4190476Y-52209580D01*
X7833333Y-31804819D02*
X7500000Y-31328628D01*
X7261905Y-31804819D02*
X7261905Y-30804819D01*
X7261905Y-30804819D02*
X7642857Y-30804819D01*
X7642857Y-30804819D02*
X7738095Y-30852438D01*
X7738095Y-30852438D02*
X7785714Y-30900057D01*
X7785714Y-30900057D02*
X7833333Y-30995295D01*
X7833333Y-30995295D02*
X7833333Y-31138152D01*
X7833333Y-31138152D02*
X7785714Y-31233390D01*
X7785714Y-31233390D02*
X7738095Y-31281009D01*
X7738095Y-31281009D02*
X7642857Y-31328628D01*
X7642857Y-31328628D02*
X7261905Y-31328628D01*
X8166667Y-30804819D02*
X8785714Y-30804819D01*
X8785714Y-30804819D02*
X8452381Y-31185771D01*
X8452381Y-31185771D02*
X8595238Y-31185771D01*
X8595238Y-31185771D02*
X8690476Y-31233390D01*
X8690476Y-31233390D02*
X8738095Y-31281009D01*
X8738095Y-31281009D02*
X8785714Y-31376247D01*
X8785714Y-31376247D02*
X8785714Y-31614342D01*
X8785714Y-31614342D02*
X8738095Y-31709580D01*
X8738095Y-31709580D02*
X8690476Y-31757200D01*
X8690476Y-31757200D02*
X8595238Y-31804819D01*
X8595238Y-31804819D02*
X8309524Y-31804819D01*
X8309524Y-31804819D02*
X8214286Y-31757200D01*
X8214286Y-31757200D02*
X8166667Y-31709580D01*
X28738095Y-40806819D02*
X29309523Y-40806819D01*
X29023809Y-41806819D02*
X29023809Y-40806819D01*
X29642857Y-41806819D02*
X29642857Y-40806819D01*
X29642857Y-40806819D02*
X30023809Y-40806819D01*
X30023809Y-40806819D02*
X30119047Y-40854438D01*
X30119047Y-40854438D02*
X30166666Y-40902057D01*
X30166666Y-40902057D02*
X30214285Y-40997295D01*
X30214285Y-40997295D02*
X30214285Y-41140152D01*
X30214285Y-41140152D02*
X30166666Y-41235390D01*
X30166666Y-41235390D02*
X30119047Y-41283009D01*
X30119047Y-41283009D02*
X30023809Y-41330628D01*
X30023809Y-41330628D02*
X29642857Y-41330628D01*
X30547619Y-40806819D02*
X31214285Y-40806819D01*
X31214285Y-40806819D02*
X30785714Y-41806819D01*
X49238095Y-40806819D02*
X49809523Y-40806819D01*
X49523809Y-41806819D02*
X49523809Y-40806819D01*
X50142857Y-41806819D02*
X50142857Y-40806819D01*
X50142857Y-40806819D02*
X50523809Y-40806819D01*
X50523809Y-40806819D02*
X50619047Y-40854438D01*
X50619047Y-40854438D02*
X50666666Y-40902057D01*
X50666666Y-40902057D02*
X50714285Y-40997295D01*
X50714285Y-40997295D02*
X50714285Y-41140152D01*
X50714285Y-41140152D02*
X50666666Y-41235390D01*
X50666666Y-41235390D02*
X50619047Y-41283009D01*
X50619047Y-41283009D02*
X50523809Y-41330628D01*
X50523809Y-41330628D02*
X50142857Y-41330628D01*
X51619047Y-40806819D02*
X51142857Y-40806819D01*
X51142857Y-40806819D02*
X51095238Y-41283009D01*
X51095238Y-41283009D02*
X51142857Y-41235390D01*
X51142857Y-41235390D02*
X51238095Y-41187771D01*
X51238095Y-41187771D02*
X51476190Y-41187771D01*
X51476190Y-41187771D02*
X51571428Y-41235390D01*
X51571428Y-41235390D02*
X51619047Y-41283009D01*
X51619047Y-41283009D02*
X51666666Y-41378247D01*
X51666666Y-41378247D02*
X51666666Y-41616342D01*
X51666666Y-41616342D02*
X51619047Y-41711580D01*
X51619047Y-41711580D02*
X51571428Y-41759200D01*
X51571428Y-41759200D02*
X51476190Y-41806819D01*
X51476190Y-41806819D02*
X51238095Y-41806819D01*
X51238095Y-41806819D02*
X51142857Y-41759200D01*
X51142857Y-41759200D02*
X51095238Y-41711580D01*
X12194819Y-7603333D02*
X12909104Y-7603333D01*
X12909104Y-7603333D02*
X13051961Y-7650952D01*
X13051961Y-7650952D02*
X13147200Y-7746190D01*
X13147200Y-7746190D02*
X13194819Y-7889047D01*
X13194819Y-7889047D02*
X13194819Y-7984285D01*
X12194819Y-7222380D02*
X12194819Y-6603333D01*
X12194819Y-6603333D02*
X12575771Y-6936666D01*
X12575771Y-6936666D02*
X12575771Y-6793809D01*
X12575771Y-6793809D02*
X12623390Y-6698571D01*
X12623390Y-6698571D02*
X12671009Y-6650952D01*
X12671009Y-6650952D02*
X12766247Y-6603333D01*
X12766247Y-6603333D02*
X13004342Y-6603333D01*
X13004342Y-6603333D02*
X13099580Y-6650952D01*
X13099580Y-6650952D02*
X13147200Y-6698571D01*
X13147200Y-6698571D02*
X13194819Y-6793809D01*
X13194819Y-6793809D02*
X13194819Y-7079523D01*
X13194819Y-7079523D02*
X13147200Y-7174761D01*
X13147200Y-7174761D02*
X13099580Y-7222380D01*
X34238095Y-24469819D02*
X34238095Y-25279342D01*
X34238095Y-25279342D02*
X34285714Y-25374580D01*
X34285714Y-25374580D02*
X34333333Y-25422200D01*
X34333333Y-25422200D02*
X34428571Y-25469819D01*
X34428571Y-25469819D02*
X34619047Y-25469819D01*
X34619047Y-25469819D02*
X34714285Y-25422200D01*
X34714285Y-25422200D02*
X34761904Y-25374580D01*
X34761904Y-25374580D02*
X34809523Y-25279342D01*
X34809523Y-25279342D02*
X34809523Y-24469819D01*
X35809523Y-25469819D02*
X35238095Y-25469819D01*
X35523809Y-25469819D02*
X35523809Y-24469819D01*
X35523809Y-24469819D02*
X35428571Y-24612676D01*
X35428571Y-24612676D02*
X35333333Y-24707914D01*
X35333333Y-24707914D02*
X35238095Y-24755533D01*
X7833333Y-24804819D02*
X7500000Y-24328628D01*
X7261905Y-24804819D02*
X7261905Y-23804819D01*
X7261905Y-23804819D02*
X7642857Y-23804819D01*
X7642857Y-23804819D02*
X7738095Y-23852438D01*
X7738095Y-23852438D02*
X7785714Y-23900057D01*
X7785714Y-23900057D02*
X7833333Y-23995295D01*
X7833333Y-23995295D02*
X7833333Y-24138152D01*
X7833333Y-24138152D02*
X7785714Y-24233390D01*
X7785714Y-24233390D02*
X7738095Y-24281009D01*
X7738095Y-24281009D02*
X7642857Y-24328628D01*
X7642857Y-24328628D02*
X7261905Y-24328628D01*
X8785714Y-24804819D02*
X8214286Y-24804819D01*
X8500000Y-24804819D02*
X8500000Y-23804819D01*
X8500000Y-23804819D02*
X8404762Y-23947676D01*
X8404762Y-23947676D02*
X8309524Y-24042914D01*
X8309524Y-24042914D02*
X8214286Y-24090533D01*
X60357142Y-18804819D02*
X60023809Y-18328628D01*
X59785714Y-18804819D02*
X59785714Y-17804819D01*
X59785714Y-17804819D02*
X60166666Y-17804819D01*
X60166666Y-17804819D02*
X60261904Y-17852438D01*
X60261904Y-17852438D02*
X60309523Y-17900057D01*
X60309523Y-17900057D02*
X60357142Y-17995295D01*
X60357142Y-17995295D02*
X60357142Y-18138152D01*
X60357142Y-18138152D02*
X60309523Y-18233390D01*
X60309523Y-18233390D02*
X60261904Y-18281009D01*
X60261904Y-18281009D02*
X60166666Y-18328628D01*
X60166666Y-18328628D02*
X59785714Y-18328628D01*
X61309523Y-18804819D02*
X60738095Y-18804819D01*
X61023809Y-18804819D02*
X61023809Y-17804819D01*
X61023809Y-17804819D02*
X60928571Y-17947676D01*
X60928571Y-17947676D02*
X60833333Y-18042914D01*
X60833333Y-18042914D02*
X60738095Y-18090533D01*
X61928571Y-17804819D02*
X62023809Y-17804819D01*
X62023809Y-17804819D02*
X62119047Y-17852438D01*
X62119047Y-17852438D02*
X62166666Y-17900057D01*
X62166666Y-17900057D02*
X62214285Y-17995295D01*
X62214285Y-17995295D02*
X62261904Y-18185771D01*
X62261904Y-18185771D02*
X62261904Y-18423866D01*
X62261904Y-18423866D02*
X62214285Y-18614342D01*
X62214285Y-18614342D02*
X62166666Y-18709580D01*
X62166666Y-18709580D02*
X62119047Y-18757200D01*
X62119047Y-18757200D02*
X62023809Y-18804819D01*
X62023809Y-18804819D02*
X61928571Y-18804819D01*
X61928571Y-18804819D02*
X61833333Y-18757200D01*
X61833333Y-18757200D02*
X61785714Y-18709580D01*
X61785714Y-18709580D02*
X61738095Y-18614342D01*
X61738095Y-18614342D02*
X61690476Y-18423866D01*
X61690476Y-18423866D02*
X61690476Y-18185771D01*
X61690476Y-18185771D02*
X61738095Y-17995295D01*
X61738095Y-17995295D02*
X61785714Y-17900057D01*
X61785714Y-17900057D02*
X61833333Y-17852438D01*
X61833333Y-17852438D02*
X61928571Y-17804819D01*
X2238095Y-16806819D02*
X2809523Y-16806819D01*
X2523809Y-17806819D02*
X2523809Y-16806819D01*
X3142857Y-17806819D02*
X3142857Y-16806819D01*
X3142857Y-16806819D02*
X3523809Y-16806819D01*
X3523809Y-16806819D02*
X3619047Y-16854438D01*
X3619047Y-16854438D02*
X3666666Y-16902057D01*
X3666666Y-16902057D02*
X3714285Y-16997295D01*
X3714285Y-16997295D02*
X3714285Y-17140152D01*
X3714285Y-17140152D02*
X3666666Y-17235390D01*
X3666666Y-17235390D02*
X3619047Y-17283009D01*
X3619047Y-17283009D02*
X3523809Y-17330628D01*
X3523809Y-17330628D02*
X3142857Y-17330628D01*
X4666666Y-17806819D02*
X4095238Y-17806819D01*
X4380952Y-17806819D02*
X4380952Y-16806819D01*
X4380952Y-16806819D02*
X4285714Y-16949676D01*
X4285714Y-16949676D02*
X4190476Y-17044914D01*
X4190476Y-17044914D02*
X4095238Y-17092533D01*
X44238095Y-12806819D02*
X44809523Y-12806819D01*
X44523809Y-13806819D02*
X44523809Y-12806819D01*
X45142857Y-13806819D02*
X45142857Y-12806819D01*
X45142857Y-12806819D02*
X45523809Y-12806819D01*
X45523809Y-12806819D02*
X45619047Y-12854438D01*
X45619047Y-12854438D02*
X45666666Y-12902057D01*
X45666666Y-12902057D02*
X45714285Y-12997295D01*
X45714285Y-12997295D02*
X45714285Y-13140152D01*
X45714285Y-13140152D02*
X45666666Y-13235390D01*
X45666666Y-13235390D02*
X45619047Y-13283009D01*
X45619047Y-13283009D02*
X45523809Y-13330628D01*
X45523809Y-13330628D02*
X45142857Y-13330628D01*
X46571428Y-12806819D02*
X46380952Y-12806819D01*
X46380952Y-12806819D02*
X46285714Y-12854438D01*
X46285714Y-12854438D02*
X46238095Y-12902057D01*
X46238095Y-12902057D02*
X46142857Y-13044914D01*
X46142857Y-13044914D02*
X46095238Y-13235390D01*
X46095238Y-13235390D02*
X46095238Y-13616342D01*
X46095238Y-13616342D02*
X46142857Y-13711580D01*
X46142857Y-13711580D02*
X46190476Y-13759200D01*
X46190476Y-13759200D02*
X46285714Y-13806819D01*
X46285714Y-13806819D02*
X46476190Y-13806819D01*
X46476190Y-13806819D02*
X46571428Y-13759200D01*
X46571428Y-13759200D02*
X46619047Y-13711580D01*
X46619047Y-13711580D02*
X46666666Y-13616342D01*
X46666666Y-13616342D02*
X46666666Y-13378247D01*
X46666666Y-13378247D02*
X46619047Y-13283009D01*
X46619047Y-13283009D02*
X46571428Y-13235390D01*
X46571428Y-13235390D02*
X46476190Y-13187771D01*
X46476190Y-13187771D02*
X46285714Y-13187771D01*
X46285714Y-13187771D02*
X46190476Y-13235390D01*
X46190476Y-13235390D02*
X46142857Y-13283009D01*
X46142857Y-13283009D02*
X46095238Y-13378247D01*
X68833333Y-14804819D02*
X68500000Y-14328628D01*
X68261905Y-14804819D02*
X68261905Y-13804819D01*
X68261905Y-13804819D02*
X68642857Y-13804819D01*
X68642857Y-13804819D02*
X68738095Y-13852438D01*
X68738095Y-13852438D02*
X68785714Y-13900057D01*
X68785714Y-13900057D02*
X68833333Y-13995295D01*
X68833333Y-13995295D02*
X68833333Y-14138152D01*
X68833333Y-14138152D02*
X68785714Y-14233390D01*
X68785714Y-14233390D02*
X68738095Y-14281009D01*
X68738095Y-14281009D02*
X68642857Y-14328628D01*
X68642857Y-14328628D02*
X68261905Y-14328628D01*
X69309524Y-14804819D02*
X69500000Y-14804819D01*
X69500000Y-14804819D02*
X69595238Y-14757200D01*
X69595238Y-14757200D02*
X69642857Y-14709580D01*
X69642857Y-14709580D02*
X69738095Y-14566723D01*
X69738095Y-14566723D02*
X69785714Y-14376247D01*
X69785714Y-14376247D02*
X69785714Y-13995295D01*
X69785714Y-13995295D02*
X69738095Y-13900057D01*
X69738095Y-13900057D02*
X69690476Y-13852438D01*
X69690476Y-13852438D02*
X69595238Y-13804819D01*
X69595238Y-13804819D02*
X69404762Y-13804819D01*
X69404762Y-13804819D02*
X69309524Y-13852438D01*
X69309524Y-13852438D02*
X69261905Y-13900057D01*
X69261905Y-13900057D02*
X69214286Y-13995295D01*
X69214286Y-13995295D02*
X69214286Y-14233390D01*
X69214286Y-14233390D02*
X69261905Y-14328628D01*
X69261905Y-14328628D02*
X69309524Y-14376247D01*
X69309524Y-14376247D02*
X69404762Y-14423866D01*
X69404762Y-14423866D02*
X69595238Y-14423866D01*
X69595238Y-14423866D02*
X69690476Y-14376247D01*
X69690476Y-14376247D02*
X69738095Y-14328628D01*
X69738095Y-14328628D02*
X69785714Y-14233390D01*
X44444642Y-41804819D02*
X44111309Y-41328628D01*
X43873214Y-41804819D02*
X43873214Y-40804819D01*
X43873214Y-40804819D02*
X44254166Y-40804819D01*
X44254166Y-40804819D02*
X44349404Y-40852438D01*
X44349404Y-40852438D02*
X44397023Y-40900057D01*
X44397023Y-40900057D02*
X44444642Y-40995295D01*
X44444642Y-40995295D02*
X44444642Y-41138152D01*
X44444642Y-41138152D02*
X44397023Y-41233390D01*
X44397023Y-41233390D02*
X44349404Y-41281009D01*
X44349404Y-41281009D02*
X44254166Y-41328628D01*
X44254166Y-41328628D02*
X43873214Y-41328628D01*
X45397023Y-41804819D02*
X44825595Y-41804819D01*
X45111309Y-41804819D02*
X45111309Y-40804819D01*
X45111309Y-40804819D02*
X45016071Y-40947676D01*
X45016071Y-40947676D02*
X44920833Y-41042914D01*
X44920833Y-41042914D02*
X44825595Y-41090533D01*
X45777976Y-40900057D02*
X45825595Y-40852438D01*
X45825595Y-40852438D02*
X45920833Y-40804819D01*
X45920833Y-40804819D02*
X46158928Y-40804819D01*
X46158928Y-40804819D02*
X46254166Y-40852438D01*
X46254166Y-40852438D02*
X46301785Y-40900057D01*
X46301785Y-40900057D02*
X46349404Y-40995295D01*
X46349404Y-40995295D02*
X46349404Y-41090533D01*
X46349404Y-41090533D02*
X46301785Y-41233390D01*
X46301785Y-41233390D02*
X45730357Y-41804819D01*
X45730357Y-41804819D02*
X46349404Y-41804819D01*
X53126666Y-12774819D02*
X53126666Y-13489104D01*
X53126666Y-13489104D02*
X53079047Y-13631961D01*
X53079047Y-13631961D02*
X52983809Y-13727200D01*
X52983809Y-13727200D02*
X52840952Y-13774819D01*
X52840952Y-13774819D02*
X52745714Y-13774819D01*
X54079047Y-12774819D02*
X53602857Y-12774819D01*
X53602857Y-12774819D02*
X53555238Y-13251009D01*
X53555238Y-13251009D02*
X53602857Y-13203390D01*
X53602857Y-13203390D02*
X53698095Y-13155771D01*
X53698095Y-13155771D02*
X53936190Y-13155771D01*
X53936190Y-13155771D02*
X54031428Y-13203390D01*
X54031428Y-13203390D02*
X54079047Y-13251009D01*
X54079047Y-13251009D02*
X54126666Y-13346247D01*
X54126666Y-13346247D02*
X54126666Y-13584342D01*
X54126666Y-13584342D02*
X54079047Y-13679580D01*
X54079047Y-13679580D02*
X54031428Y-13727200D01*
X54031428Y-13727200D02*
X53936190Y-13774819D01*
X53936190Y-13774819D02*
X53698095Y-13774819D01*
X53698095Y-13774819D02*
X53602857Y-13727200D01*
X53602857Y-13727200D02*
X53555238Y-13679580D01*
X3238095Y-8954819D02*
X3238095Y-7954819D01*
X3238095Y-8431009D02*
X3809523Y-8431009D01*
X3809523Y-8954819D02*
X3809523Y-7954819D01*
X4809523Y-8954819D02*
X4238095Y-8954819D01*
X4523809Y-8954819D02*
X4523809Y-7954819D01*
X4523809Y-7954819D02*
X4428571Y-8097676D01*
X4428571Y-8097676D02*
X4333333Y-8192914D01*
X4333333Y-8192914D02*
X4238095Y-8240533D01*
X50016666Y-35654819D02*
X50016666Y-36369104D01*
X50016666Y-36369104D02*
X49969047Y-36511961D01*
X49969047Y-36511961D02*
X49873809Y-36607200D01*
X49873809Y-36607200D02*
X49730952Y-36654819D01*
X49730952Y-36654819D02*
X49635714Y-36654819D01*
X50492857Y-36654819D02*
X50492857Y-35654819D01*
X50492857Y-35654819D02*
X50873809Y-35654819D01*
X50873809Y-35654819D02*
X50969047Y-35702438D01*
X50969047Y-35702438D02*
X51016666Y-35750057D01*
X51016666Y-35750057D02*
X51064285Y-35845295D01*
X51064285Y-35845295D02*
X51064285Y-35988152D01*
X51064285Y-35988152D02*
X51016666Y-36083390D01*
X51016666Y-36083390D02*
X50969047Y-36131009D01*
X50969047Y-36131009D02*
X50873809Y-36178628D01*
X50873809Y-36178628D02*
X50492857Y-36178628D01*
X51445238Y-35750057D02*
X51492857Y-35702438D01*
X51492857Y-35702438D02*
X51588095Y-35654819D01*
X51588095Y-35654819D02*
X51826190Y-35654819D01*
X51826190Y-35654819D02*
X51921428Y-35702438D01*
X51921428Y-35702438D02*
X51969047Y-35750057D01*
X51969047Y-35750057D02*
X52016666Y-35845295D01*
X52016666Y-35845295D02*
X52016666Y-35940533D01*
X52016666Y-35940533D02*
X51969047Y-36083390D01*
X51969047Y-36083390D02*
X51397619Y-36654819D01*
X51397619Y-36654819D02*
X52016666Y-36654819D01*
X38804819Y-15230357D02*
X38328628Y-15563690D01*
X38804819Y-15801785D02*
X37804819Y-15801785D01*
X37804819Y-15801785D02*
X37804819Y-15420833D01*
X37804819Y-15420833D02*
X37852438Y-15325595D01*
X37852438Y-15325595D02*
X37900057Y-15277976D01*
X37900057Y-15277976D02*
X37995295Y-15230357D01*
X37995295Y-15230357D02*
X38138152Y-15230357D01*
X38138152Y-15230357D02*
X38233390Y-15277976D01*
X38233390Y-15277976D02*
X38281009Y-15325595D01*
X38281009Y-15325595D02*
X38328628Y-15420833D01*
X38328628Y-15420833D02*
X38328628Y-15801785D01*
X38804819Y-14277976D02*
X38804819Y-14849404D01*
X38804819Y-14563690D02*
X37804819Y-14563690D01*
X37804819Y-14563690D02*
X37947676Y-14658928D01*
X37947676Y-14658928D02*
X38042914Y-14754166D01*
X38042914Y-14754166D02*
X38090533Y-14849404D01*
X37804819Y-13420833D02*
X37804819Y-13611309D01*
X37804819Y-13611309D02*
X37852438Y-13706547D01*
X37852438Y-13706547D02*
X37900057Y-13754166D01*
X37900057Y-13754166D02*
X38042914Y-13849404D01*
X38042914Y-13849404D02*
X38233390Y-13897023D01*
X38233390Y-13897023D02*
X38614342Y-13897023D01*
X38614342Y-13897023D02*
X38709580Y-13849404D01*
X38709580Y-13849404D02*
X38757200Y-13801785D01*
X38757200Y-13801785D02*
X38804819Y-13706547D01*
X38804819Y-13706547D02*
X38804819Y-13516071D01*
X38804819Y-13516071D02*
X38757200Y-13420833D01*
X38757200Y-13420833D02*
X38709580Y-13373214D01*
X38709580Y-13373214D02*
X38614342Y-13325595D01*
X38614342Y-13325595D02*
X38376247Y-13325595D01*
X38376247Y-13325595D02*
X38281009Y-13373214D01*
X38281009Y-13373214D02*
X38233390Y-13420833D01*
X38233390Y-13420833D02*
X38185771Y-13516071D01*
X38185771Y-13516071D02*
X38185771Y-13706547D01*
X38185771Y-13706547D02*
X38233390Y-13801785D01*
X38233390Y-13801785D02*
X38281009Y-13849404D01*
X38281009Y-13849404D02*
X38376247Y-13897023D01*
X64833333Y-14804819D02*
X64500000Y-14328628D01*
X64261905Y-14804819D02*
X64261905Y-13804819D01*
X64261905Y-13804819D02*
X64642857Y-13804819D01*
X64642857Y-13804819D02*
X64738095Y-13852438D01*
X64738095Y-13852438D02*
X64785714Y-13900057D01*
X64785714Y-13900057D02*
X64833333Y-13995295D01*
X64833333Y-13995295D02*
X64833333Y-14138152D01*
X64833333Y-14138152D02*
X64785714Y-14233390D01*
X64785714Y-14233390D02*
X64738095Y-14281009D01*
X64738095Y-14281009D02*
X64642857Y-14328628D01*
X64642857Y-14328628D02*
X64261905Y-14328628D01*
X65404762Y-14233390D02*
X65309524Y-14185771D01*
X65309524Y-14185771D02*
X65261905Y-14138152D01*
X65261905Y-14138152D02*
X65214286Y-14042914D01*
X65214286Y-14042914D02*
X65214286Y-13995295D01*
X65214286Y-13995295D02*
X65261905Y-13900057D01*
X65261905Y-13900057D02*
X65309524Y-13852438D01*
X65309524Y-13852438D02*
X65404762Y-13804819D01*
X65404762Y-13804819D02*
X65595238Y-13804819D01*
X65595238Y-13804819D02*
X65690476Y-13852438D01*
X65690476Y-13852438D02*
X65738095Y-13900057D01*
X65738095Y-13900057D02*
X65785714Y-13995295D01*
X65785714Y-13995295D02*
X65785714Y-14042914D01*
X65785714Y-14042914D02*
X65738095Y-14138152D01*
X65738095Y-14138152D02*
X65690476Y-14185771D01*
X65690476Y-14185771D02*
X65595238Y-14233390D01*
X65595238Y-14233390D02*
X65404762Y-14233390D01*
X65404762Y-14233390D02*
X65309524Y-14281009D01*
X65309524Y-14281009D02*
X65261905Y-14328628D01*
X65261905Y-14328628D02*
X65214286Y-14423866D01*
X65214286Y-14423866D02*
X65214286Y-14614342D01*
X65214286Y-14614342D02*
X65261905Y-14709580D01*
X65261905Y-14709580D02*
X65309524Y-14757200D01*
X65309524Y-14757200D02*
X65404762Y-14804819D01*
X65404762Y-14804819D02*
X65595238Y-14804819D01*
X65595238Y-14804819D02*
X65690476Y-14757200D01*
X65690476Y-14757200D02*
X65738095Y-14709580D01*
X65738095Y-14709580D02*
X65785714Y-14614342D01*
X65785714Y-14614342D02*
X65785714Y-14423866D01*
X65785714Y-14423866D02*
X65738095Y-14328628D01*
X65738095Y-14328628D02*
X65690476Y-14281009D01*
X65690476Y-14281009D02*
X65595238Y-14233390D01*
X32263095Y-13189819D02*
X32263095Y-13999342D01*
X32263095Y-13999342D02*
X32310714Y-14094580D01*
X32310714Y-14094580D02*
X32358333Y-14142200D01*
X32358333Y-14142200D02*
X32453571Y-14189819D01*
X32453571Y-14189819D02*
X32644047Y-14189819D01*
X32644047Y-14189819D02*
X32739285Y-14142200D01*
X32739285Y-14142200D02*
X32786904Y-14094580D01*
X32786904Y-14094580D02*
X32834523Y-13999342D01*
X32834523Y-13999342D02*
X32834523Y-13189819D01*
X33263095Y-13285057D02*
X33310714Y-13237438D01*
X33310714Y-13237438D02*
X33405952Y-13189819D01*
X33405952Y-13189819D02*
X33644047Y-13189819D01*
X33644047Y-13189819D02*
X33739285Y-13237438D01*
X33739285Y-13237438D02*
X33786904Y-13285057D01*
X33786904Y-13285057D02*
X33834523Y-13380295D01*
X33834523Y-13380295D02*
X33834523Y-13475533D01*
X33834523Y-13475533D02*
X33786904Y-13618390D01*
X33786904Y-13618390D02*
X33215476Y-14189819D01*
X33215476Y-14189819D02*
X33834523Y-14189819D01*
X69904761Y-23150057D02*
X69809523Y-23102438D01*
X69809523Y-23102438D02*
X69714285Y-23007200D01*
X69714285Y-23007200D02*
X69571428Y-22864342D01*
X69571428Y-22864342D02*
X69476190Y-22816723D01*
X69476190Y-22816723D02*
X69380952Y-22816723D01*
X69428571Y-23054819D02*
X69333333Y-23007200D01*
X69333333Y-23007200D02*
X69238095Y-22911961D01*
X69238095Y-22911961D02*
X69190476Y-22721485D01*
X69190476Y-22721485D02*
X69190476Y-22388152D01*
X69190476Y-22388152D02*
X69238095Y-22197676D01*
X69238095Y-22197676D02*
X69333333Y-22102438D01*
X69333333Y-22102438D02*
X69428571Y-22054819D01*
X69428571Y-22054819D02*
X69619047Y-22054819D01*
X69619047Y-22054819D02*
X69714285Y-22102438D01*
X69714285Y-22102438D02*
X69809523Y-22197676D01*
X69809523Y-22197676D02*
X69857142Y-22388152D01*
X69857142Y-22388152D02*
X69857142Y-22721485D01*
X69857142Y-22721485D02*
X69809523Y-22911961D01*
X69809523Y-22911961D02*
X69714285Y-23007200D01*
X69714285Y-23007200D02*
X69619047Y-23054819D01*
X69619047Y-23054819D02*
X69428571Y-23054819D01*
X70190476Y-22054819D02*
X70809523Y-22054819D01*
X70809523Y-22054819D02*
X70476190Y-22435771D01*
X70476190Y-22435771D02*
X70619047Y-22435771D01*
X70619047Y-22435771D02*
X70714285Y-22483390D01*
X70714285Y-22483390D02*
X70761904Y-22531009D01*
X70761904Y-22531009D02*
X70809523Y-22626247D01*
X70809523Y-22626247D02*
X70809523Y-22864342D01*
X70809523Y-22864342D02*
X70761904Y-22959580D01*
X70761904Y-22959580D02*
X70714285Y-23007200D01*
X70714285Y-23007200D02*
X70619047Y-23054819D01*
X70619047Y-23054819D02*
X70333333Y-23054819D01*
X70333333Y-23054819D02*
X70238095Y-23007200D01*
X70238095Y-23007200D02*
X70190476Y-22959580D01*
X64761905Y-28304819D02*
X64761905Y-27304819D01*
X64761905Y-27304819D02*
X65000000Y-27304819D01*
X65000000Y-27304819D02*
X65142857Y-27352438D01*
X65142857Y-27352438D02*
X65238095Y-27447676D01*
X65238095Y-27447676D02*
X65285714Y-27542914D01*
X65285714Y-27542914D02*
X65333333Y-27733390D01*
X65333333Y-27733390D02*
X65333333Y-27876247D01*
X65333333Y-27876247D02*
X65285714Y-28066723D01*
X65285714Y-28066723D02*
X65238095Y-28161961D01*
X65238095Y-28161961D02*
X65142857Y-28257200D01*
X65142857Y-28257200D02*
X65000000Y-28304819D01*
X65000000Y-28304819D02*
X64761905Y-28304819D01*
X66190476Y-27638152D02*
X66190476Y-28304819D01*
X65952381Y-27257200D02*
X65714286Y-27971485D01*
X65714286Y-27971485D02*
X66333333Y-27971485D01*
X60833333Y-14804819D02*
X60500000Y-14328628D01*
X60261905Y-14804819D02*
X60261905Y-13804819D01*
X60261905Y-13804819D02*
X60642857Y-13804819D01*
X60642857Y-13804819D02*
X60738095Y-13852438D01*
X60738095Y-13852438D02*
X60785714Y-13900057D01*
X60785714Y-13900057D02*
X60833333Y-13995295D01*
X60833333Y-13995295D02*
X60833333Y-14138152D01*
X60833333Y-14138152D02*
X60785714Y-14233390D01*
X60785714Y-14233390D02*
X60738095Y-14281009D01*
X60738095Y-14281009D02*
X60642857Y-14328628D01*
X60642857Y-14328628D02*
X60261905Y-14328628D01*
X61166667Y-13804819D02*
X61833333Y-13804819D01*
X61833333Y-13804819D02*
X61404762Y-14804819D01*
X17833333Y-31679580D02*
X17785714Y-31727200D01*
X17785714Y-31727200D02*
X17642857Y-31774819D01*
X17642857Y-31774819D02*
X17547619Y-31774819D01*
X17547619Y-31774819D02*
X17404762Y-31727200D01*
X17404762Y-31727200D02*
X17309524Y-31631961D01*
X17309524Y-31631961D02*
X17261905Y-31536723D01*
X17261905Y-31536723D02*
X17214286Y-31346247D01*
X17214286Y-31346247D02*
X17214286Y-31203390D01*
X17214286Y-31203390D02*
X17261905Y-31012914D01*
X17261905Y-31012914D02*
X17309524Y-30917676D01*
X17309524Y-30917676D02*
X17404762Y-30822438D01*
X17404762Y-30822438D02*
X17547619Y-30774819D01*
X17547619Y-30774819D02*
X17642857Y-30774819D01*
X17642857Y-30774819D02*
X17785714Y-30822438D01*
X17785714Y-30822438D02*
X17833333Y-30870057D01*
X18738095Y-30774819D02*
X18261905Y-30774819D01*
X18261905Y-30774819D02*
X18214286Y-31251009D01*
X18214286Y-31251009D02*
X18261905Y-31203390D01*
X18261905Y-31203390D02*
X18357143Y-31155771D01*
X18357143Y-31155771D02*
X18595238Y-31155771D01*
X18595238Y-31155771D02*
X18690476Y-31203390D01*
X18690476Y-31203390D02*
X18738095Y-31251009D01*
X18738095Y-31251009D02*
X18785714Y-31346247D01*
X18785714Y-31346247D02*
X18785714Y-31584342D01*
X18785714Y-31584342D02*
X18738095Y-31679580D01*
X18738095Y-31679580D02*
X18690476Y-31727200D01*
X18690476Y-31727200D02*
X18595238Y-31774819D01*
X18595238Y-31774819D02*
X18357143Y-31774819D01*
X18357143Y-31774819D02*
X18261905Y-31727200D01*
X18261905Y-31727200D02*
X18214286Y-31679580D01*
X33238095Y-40806819D02*
X33809523Y-40806819D01*
X33523809Y-41806819D02*
X33523809Y-40806819D01*
X34142857Y-41806819D02*
X34142857Y-40806819D01*
X34142857Y-40806819D02*
X34523809Y-40806819D01*
X34523809Y-40806819D02*
X34619047Y-40854438D01*
X34619047Y-40854438D02*
X34666666Y-40902057D01*
X34666666Y-40902057D02*
X34714285Y-40997295D01*
X34714285Y-40997295D02*
X34714285Y-41140152D01*
X34714285Y-41140152D02*
X34666666Y-41235390D01*
X34666666Y-41235390D02*
X34619047Y-41283009D01*
X34619047Y-41283009D02*
X34523809Y-41330628D01*
X34523809Y-41330628D02*
X34142857Y-41330628D01*
X35571428Y-41140152D02*
X35571428Y-41806819D01*
X35333333Y-40759200D02*
X35095238Y-41473485D01*
X35095238Y-41473485D02*
X35714285Y-41473485D01*
X2238095Y-23806819D02*
X2809523Y-23806819D01*
X2523809Y-24806819D02*
X2523809Y-23806819D01*
X3142857Y-24806819D02*
X3142857Y-23806819D01*
X3142857Y-23806819D02*
X3523809Y-23806819D01*
X3523809Y-23806819D02*
X3619047Y-23854438D01*
X3619047Y-23854438D02*
X3666666Y-23902057D01*
X3666666Y-23902057D02*
X3714285Y-23997295D01*
X3714285Y-23997295D02*
X3714285Y-24140152D01*
X3714285Y-24140152D02*
X3666666Y-24235390D01*
X3666666Y-24235390D02*
X3619047Y-24283009D01*
X3619047Y-24283009D02*
X3523809Y-24330628D01*
X3523809Y-24330628D02*
X3142857Y-24330628D01*
X4095238Y-23902057D02*
X4142857Y-23854438D01*
X4142857Y-23854438D02*
X4238095Y-23806819D01*
X4238095Y-23806819D02*
X4476190Y-23806819D01*
X4476190Y-23806819D02*
X4571428Y-23854438D01*
X4571428Y-23854438D02*
X4619047Y-23902057D01*
X4619047Y-23902057D02*
X4666666Y-23997295D01*
X4666666Y-23997295D02*
X4666666Y-24092533D01*
X4666666Y-24092533D02*
X4619047Y-24235390D01*
X4619047Y-24235390D02*
X4047619Y-24806819D01*
X4047619Y-24806819D02*
X4666666Y-24806819D01*
X22261905Y-31054819D02*
X22261905Y-30054819D01*
X22261905Y-30054819D02*
X22500000Y-30054819D01*
X22500000Y-30054819D02*
X22642857Y-30102438D01*
X22642857Y-30102438D02*
X22738095Y-30197676D01*
X22738095Y-30197676D02*
X22785714Y-30292914D01*
X22785714Y-30292914D02*
X22833333Y-30483390D01*
X22833333Y-30483390D02*
X22833333Y-30626247D01*
X22833333Y-30626247D02*
X22785714Y-30816723D01*
X22785714Y-30816723D02*
X22738095Y-30911961D01*
X22738095Y-30911961D02*
X22642857Y-31007200D01*
X22642857Y-31007200D02*
X22500000Y-31054819D01*
X22500000Y-31054819D02*
X22261905Y-31054819D01*
X23214286Y-30150057D02*
X23261905Y-30102438D01*
X23261905Y-30102438D02*
X23357143Y-30054819D01*
X23357143Y-30054819D02*
X23595238Y-30054819D01*
X23595238Y-30054819D02*
X23690476Y-30102438D01*
X23690476Y-30102438D02*
X23738095Y-30150057D01*
X23738095Y-30150057D02*
X23785714Y-30245295D01*
X23785714Y-30245295D02*
X23785714Y-30340533D01*
X23785714Y-30340533D02*
X23738095Y-30483390D01*
X23738095Y-30483390D02*
X23166667Y-31054819D01*
X23166667Y-31054819D02*
X23785714Y-31054819D01*
X8101009Y-19433333D02*
X8101009Y-19766666D01*
X8624819Y-19766666D02*
X7624819Y-19766666D01*
X7624819Y-19766666D02*
X7624819Y-19290476D01*
X8624819Y-18385714D02*
X8624819Y-18957142D01*
X8624819Y-18671428D02*
X7624819Y-18671428D01*
X7624819Y-18671428D02*
X7767676Y-18766666D01*
X7767676Y-18766666D02*
X7862914Y-18861904D01*
X7862914Y-18861904D02*
X7910533Y-18957142D01*
X57684819Y-36563333D02*
X58399104Y-36563333D01*
X58399104Y-36563333D02*
X58541961Y-36610952D01*
X58541961Y-36610952D02*
X58637200Y-36706190D01*
X58637200Y-36706190D02*
X58684819Y-36849047D01*
X58684819Y-36849047D02*
X58684819Y-36944285D01*
X58684819Y-35563333D02*
X58684819Y-36134761D01*
X58684819Y-35849047D02*
X57684819Y-35849047D01*
X57684819Y-35849047D02*
X57827676Y-35944285D01*
X57827676Y-35944285D02*
X57922914Y-36039523D01*
X57922914Y-36039523D02*
X57970533Y-36134761D01*
X43179580Y-27216666D02*
X43227200Y-27264285D01*
X43227200Y-27264285D02*
X43274819Y-27407142D01*
X43274819Y-27407142D02*
X43274819Y-27502380D01*
X43274819Y-27502380D02*
X43227200Y-27645237D01*
X43227200Y-27645237D02*
X43131961Y-27740475D01*
X43131961Y-27740475D02*
X43036723Y-27788094D01*
X43036723Y-27788094D02*
X42846247Y-27835713D01*
X42846247Y-27835713D02*
X42703390Y-27835713D01*
X42703390Y-27835713D02*
X42512914Y-27788094D01*
X42512914Y-27788094D02*
X42417676Y-27740475D01*
X42417676Y-27740475D02*
X42322438Y-27645237D01*
X42322438Y-27645237D02*
X42274819Y-27502380D01*
X42274819Y-27502380D02*
X42274819Y-27407142D01*
X42274819Y-27407142D02*
X42322438Y-27264285D01*
X42322438Y-27264285D02*
X42370057Y-27216666D01*
X43274819Y-26264285D02*
X43274819Y-26835713D01*
X43274819Y-26549999D02*
X42274819Y-26549999D01*
X42274819Y-26549999D02*
X42417676Y-26645237D01*
X42417676Y-26645237D02*
X42512914Y-26740475D01*
X42512914Y-26740475D02*
X42560533Y-26835713D01*
X20679580Y-19216666D02*
X20727200Y-19264285D01*
X20727200Y-19264285D02*
X20774819Y-19407142D01*
X20774819Y-19407142D02*
X20774819Y-19502380D01*
X20774819Y-19502380D02*
X20727200Y-19645237D01*
X20727200Y-19645237D02*
X20631961Y-19740475D01*
X20631961Y-19740475D02*
X20536723Y-19788094D01*
X20536723Y-19788094D02*
X20346247Y-19835713D01*
X20346247Y-19835713D02*
X20203390Y-19835713D01*
X20203390Y-19835713D02*
X20012914Y-19788094D01*
X20012914Y-19788094D02*
X19917676Y-19740475D01*
X19917676Y-19740475D02*
X19822438Y-19645237D01*
X19822438Y-19645237D02*
X19774819Y-19502380D01*
X19774819Y-19502380D02*
X19774819Y-19407142D01*
X19774819Y-19407142D02*
X19822438Y-19264285D01*
X19822438Y-19264285D02*
X19870057Y-19216666D01*
X19870057Y-18835713D02*
X19822438Y-18788094D01*
X19822438Y-18788094D02*
X19774819Y-18692856D01*
X19774819Y-18692856D02*
X19774819Y-18454761D01*
X19774819Y-18454761D02*
X19822438Y-18359523D01*
X19822438Y-18359523D02*
X19870057Y-18311904D01*
X19870057Y-18311904D02*
X19965295Y-18264285D01*
X19965295Y-18264285D02*
X20060533Y-18264285D01*
X20060533Y-18264285D02*
X20203390Y-18311904D01*
X20203390Y-18311904D02*
X20774819Y-18883332D01*
X20774819Y-18883332D02*
X20774819Y-18264285D01*
X12833333Y-31804819D02*
X12500000Y-31328628D01*
X12261905Y-31804819D02*
X12261905Y-30804819D01*
X12261905Y-30804819D02*
X12642857Y-30804819D01*
X12642857Y-30804819D02*
X12738095Y-30852438D01*
X12738095Y-30852438D02*
X12785714Y-30900057D01*
X12785714Y-30900057D02*
X12833333Y-30995295D01*
X12833333Y-30995295D02*
X12833333Y-31138152D01*
X12833333Y-31138152D02*
X12785714Y-31233390D01*
X12785714Y-31233390D02*
X12738095Y-31281009D01*
X12738095Y-31281009D02*
X12642857Y-31328628D01*
X12642857Y-31328628D02*
X12261905Y-31328628D01*
X13690476Y-31138152D02*
X13690476Y-31804819D01*
X13452381Y-30757200D02*
X13214286Y-31471485D01*
X13214286Y-31471485D02*
X13833333Y-31471485D01*
X14509580Y-19191666D02*
X14557200Y-19239285D01*
X14557200Y-19239285D02*
X14604819Y-19382142D01*
X14604819Y-19382142D02*
X14604819Y-19477380D01*
X14604819Y-19477380D02*
X14557200Y-19620237D01*
X14557200Y-19620237D02*
X14461961Y-19715475D01*
X14461961Y-19715475D02*
X14366723Y-19763094D01*
X14366723Y-19763094D02*
X14176247Y-19810713D01*
X14176247Y-19810713D02*
X14033390Y-19810713D01*
X14033390Y-19810713D02*
X13842914Y-19763094D01*
X13842914Y-19763094D02*
X13747676Y-19715475D01*
X13747676Y-19715475D02*
X13652438Y-19620237D01*
X13652438Y-19620237D02*
X13604819Y-19477380D01*
X13604819Y-19477380D02*
X13604819Y-19382142D01*
X13604819Y-19382142D02*
X13652438Y-19239285D01*
X13652438Y-19239285D02*
X13700057Y-19191666D01*
X13604819Y-18858332D02*
X13604819Y-18239285D01*
X13604819Y-18239285D02*
X13985771Y-18572618D01*
X13985771Y-18572618D02*
X13985771Y-18429761D01*
X13985771Y-18429761D02*
X14033390Y-18334523D01*
X14033390Y-18334523D02*
X14081009Y-18286904D01*
X14081009Y-18286904D02*
X14176247Y-18239285D01*
X14176247Y-18239285D02*
X14414342Y-18239285D01*
X14414342Y-18239285D02*
X14509580Y-18286904D01*
X14509580Y-18286904D02*
X14557200Y-18334523D01*
X14557200Y-18334523D02*
X14604819Y-18429761D01*
X14604819Y-18429761D02*
X14604819Y-18715475D01*
X14604819Y-18715475D02*
X14557200Y-18810713D01*
X14557200Y-18810713D02*
X14509580Y-18858332D01*
X12833333Y-38804819D02*
X12500000Y-38328628D01*
X12261905Y-38804819D02*
X12261905Y-37804819D01*
X12261905Y-37804819D02*
X12642857Y-37804819D01*
X12642857Y-37804819D02*
X12738095Y-37852438D01*
X12738095Y-37852438D02*
X12785714Y-37900057D01*
X12785714Y-37900057D02*
X12833333Y-37995295D01*
X12833333Y-37995295D02*
X12833333Y-38138152D01*
X12833333Y-38138152D02*
X12785714Y-38233390D01*
X12785714Y-38233390D02*
X12738095Y-38281009D01*
X12738095Y-38281009D02*
X12642857Y-38328628D01*
X12642857Y-38328628D02*
X12261905Y-38328628D01*
X13690476Y-37804819D02*
X13500000Y-37804819D01*
X13500000Y-37804819D02*
X13404762Y-37852438D01*
X13404762Y-37852438D02*
X13357143Y-37900057D01*
X13357143Y-37900057D02*
X13261905Y-38042914D01*
X13261905Y-38042914D02*
X13214286Y-38233390D01*
X13214286Y-38233390D02*
X13214286Y-38614342D01*
X13214286Y-38614342D02*
X13261905Y-38709580D01*
X13261905Y-38709580D02*
X13309524Y-38757200D01*
X13309524Y-38757200D02*
X13404762Y-38804819D01*
X13404762Y-38804819D02*
X13595238Y-38804819D01*
X13595238Y-38804819D02*
X13690476Y-38757200D01*
X13690476Y-38757200D02*
X13738095Y-38709580D01*
X13738095Y-38709580D02*
X13785714Y-38614342D01*
X13785714Y-38614342D02*
X13785714Y-38376247D01*
X13785714Y-38376247D02*
X13738095Y-38281009D01*
X13738095Y-38281009D02*
X13690476Y-38233390D01*
X13690476Y-38233390D02*
X13595238Y-38185771D01*
X13595238Y-38185771D02*
X13404762Y-38185771D01*
X13404762Y-38185771D02*
X13309524Y-38233390D01*
X13309524Y-38233390D02*
X13261905Y-38281009D01*
X13261905Y-38281009D02*
X13214286Y-38376247D01*
D11*
%TO.C,C4*%
X17738748Y-25265000D02*
X18261252Y-25265000D01*
X17738748Y-26735000D02*
X18261252Y-26735000D01*
%TO.C,R14*%
X44590000Y-20764564D02*
X44590000Y-19310436D01*
X46410000Y-20764564D02*
X46410000Y-19310436D01*
%TO.C,TP3*%
X4450000Y-33000000D02*
G75*
G02*
X2550000Y-33000000I-950000J0D01*
G01*
X2550000Y-33000000D02*
G75*
G02*
X4450000Y-33000000I950000J0D01*
G01*
%TO.C,R11*%
X39860436Y-42265000D02*
X40314564Y-42265000D01*
X39860436Y-43735000D02*
X40314564Y-43735000D01*
%TO.C,D1*%
X22240000Y-24440000D02*
X23760000Y-24440000D01*
X22240000Y-24490000D02*
X22240000Y-24440000D01*
X22240000Y-26390000D02*
X22240000Y-25610000D01*
X22240000Y-27560000D02*
X22240000Y-27510000D01*
X23760000Y-24440000D02*
X23760000Y-25440000D01*
X23760000Y-26560000D02*
X23760000Y-27560000D01*
X23760000Y-27560000D02*
X22240000Y-27560000D01*
X21940000Y-25950000D02*
X21460000Y-25950000D01*
X21700000Y-25620000D01*
X21940000Y-25950000D01*
G36*
X21940000Y-25950000D02*
G01*
X21460000Y-25950000D01*
X21700000Y-25620000D01*
X21940000Y-25950000D01*
G37*
%TO.C,R5*%
X7772936Y-39265000D02*
X8227064Y-39265000D01*
X7772936Y-40735000D02*
X8227064Y-40735000D01*
%TO.C,J4*%
X48260000Y-47680000D02*
X58660000Y-47680000D01*
X48260000Y-50700000D02*
X58660000Y-50700000D01*
X48260000Y-55600000D02*
X58660000Y-55600000D01*
X48260000Y-57100000D02*
X58660000Y-57100000D01*
X48260000Y-57720000D02*
X48260000Y-47680000D01*
X50620000Y-57720000D02*
X48260000Y-57720000D01*
X58660000Y-47680000D02*
X58660000Y-57720000D01*
X58660000Y-57720000D02*
X51220000Y-57720000D01*
X51360000Y-58330000D02*
X50480000Y-58330000D01*
X50920000Y-57720000D01*
X51360000Y-58330000D01*
G36*
X51360000Y-58330000D02*
G01*
X50480000Y-58330000D01*
X50920000Y-57720000D01*
X51360000Y-58330000D01*
G37*
%TO.C,R2*%
X12772936Y-25265000D02*
X13227064Y-25265000D01*
X12772936Y-26735000D02*
X13227064Y-26735000D01*
%TO.C,JP1*%
X43450000Y-32000000D02*
X46250000Y-32000000D01*
X43450000Y-34000000D02*
X43450000Y-32000000D01*
X46250000Y-32000000D02*
X46250000Y-34000000D01*
X46250000Y-34000000D02*
X43450000Y-34000000D01*
%TO.C,JP3*%
X39000000Y-18250000D02*
X41000000Y-18250000D01*
X39000000Y-21050000D02*
X39000000Y-18250000D01*
X41000000Y-18250000D02*
X41000000Y-21050000D01*
X41000000Y-21050000D02*
X39000000Y-21050000D01*
%TO.C,R13*%
X44860436Y-37265000D02*
X45314564Y-37265000D01*
X44860436Y-38735000D02*
X45314564Y-38735000D01*
%TO.C,R15*%
X60772936Y-28765000D02*
X61227064Y-28765000D01*
X60772936Y-30235000D02*
X61227064Y-30235000D01*
%TO.C,D3*%
X22240000Y-38440000D02*
X23760000Y-38440000D01*
X22240000Y-38490000D02*
X22240000Y-38440000D01*
X22240000Y-40390000D02*
X22240000Y-39610000D01*
X22240000Y-41560000D02*
X22240000Y-41510000D01*
X23760000Y-38440000D02*
X23760000Y-39440000D01*
X23760000Y-40560000D02*
X23760000Y-41560000D01*
X23760000Y-41560000D02*
X22240000Y-41560000D01*
X21940000Y-39950000D02*
X21460000Y-39950000D01*
X21700000Y-39620000D01*
X21940000Y-39950000D01*
G36*
X21940000Y-39950000D02*
G01*
X21460000Y-39950000D01*
X21700000Y-39620000D01*
X21940000Y-39950000D01*
G37*
%TO.C,J2*%
X13630000Y-48170000D02*
X34210000Y-48170000D01*
X13630000Y-57290000D02*
X13630000Y-48170000D01*
X14930000Y-49480000D02*
X32910000Y-49480000D01*
X14930000Y-55980000D02*
X14930000Y-49480000D01*
X18340000Y-58680000D02*
X19340000Y-58680000D01*
X18840000Y-57680000D02*
X18340000Y-58680000D01*
X19340000Y-58680000D02*
X18840000Y-57680000D01*
X21870000Y-55980000D02*
X14930000Y-55980000D01*
X21870000Y-57290000D02*
X21870000Y-55980000D01*
X25970000Y-55980000D02*
X25970000Y-57290000D01*
X32910000Y-49480000D02*
X32910000Y-55980000D01*
X32910000Y-55980000D02*
X25970000Y-55980000D01*
X34210000Y-48170000D02*
X34210000Y-57290000D01*
X34210000Y-57290000D02*
X13630000Y-57290000D01*
%TO.C,C6*%
X17738748Y-39265000D02*
X18261252Y-39265000D01*
X17738748Y-40735000D02*
X18261252Y-40735000D01*
%TO.C,Q2*%
X61240000Y-23440000D02*
X62760000Y-23440000D01*
X61240000Y-23490000D02*
X61240000Y-23440000D01*
X61240000Y-25390000D02*
X61240000Y-24610000D01*
X61240000Y-26560000D02*
X61240000Y-26510000D01*
X62760000Y-23440000D02*
X62760000Y-24440000D01*
X62760000Y-25560000D02*
X62760000Y-26560000D01*
X62760000Y-26560000D02*
X61240000Y-26560000D01*
X60940000Y-24950000D02*
X60460000Y-24950000D01*
X60700000Y-24620000D01*
X60940000Y-24950000D01*
G36*
X60940000Y-24950000D02*
G01*
X60460000Y-24950000D01*
X60700000Y-24620000D01*
X60940000Y-24950000D01*
G37*
%TO.C,Q1*%
X65240000Y-23440000D02*
X66760000Y-23440000D01*
X65240000Y-23490000D02*
X65240000Y-23440000D01*
X65240000Y-25390000D02*
X65240000Y-24610000D01*
X65240000Y-26560000D02*
X65240000Y-26510000D01*
X66760000Y-23440000D02*
X66760000Y-24440000D01*
X66760000Y-25560000D02*
X66760000Y-26560000D01*
X66760000Y-26560000D02*
X65240000Y-26560000D01*
X64940000Y-24950000D02*
X64460000Y-24950000D01*
X64700000Y-24620000D01*
X64940000Y-24950000D01*
G36*
X64940000Y-24950000D02*
G01*
X64460000Y-24950000D01*
X64700000Y-24620000D01*
X64940000Y-24950000D01*
G37*
%TO.C,J6*%
X37620000Y-49620000D02*
X39000000Y-49620000D01*
X37620000Y-51000000D02*
X37620000Y-49620000D01*
X37620000Y-52270000D02*
X37620000Y-57460000D01*
X37620000Y-52270000D02*
X40380000Y-52270000D01*
X37620000Y-57460000D02*
X40380000Y-57460000D01*
X40380000Y-52270000D02*
X40380000Y-57460000D01*
%TO.C,R3*%
X7772936Y-32265000D02*
X8227064Y-32265000D01*
X7772936Y-33735000D02*
X8227064Y-33735000D01*
%TO.C,TP7*%
X30950000Y-43000000D02*
G75*
G02*
X29050000Y-43000000I-950000J0D01*
G01*
X29050000Y-43000000D02*
G75*
G02*
X30950000Y-43000000I950000J0D01*
G01*
%TO.C,TP5*%
X51450000Y-43000000D02*
G75*
G02*
X49550000Y-43000000I-950000J0D01*
G01*
X49550000Y-43000000D02*
G75*
G02*
X51450000Y-43000000I950000J0D01*
G01*
%TO.C,J3*%
X13630000Y-2710000D02*
X34210000Y-2710000D01*
X13630000Y-11830000D02*
X13630000Y-2710000D01*
X14930000Y-4020000D02*
X32910000Y-4020000D01*
X14930000Y-10520000D02*
X14930000Y-4020000D01*
X18340000Y-13220000D02*
X19340000Y-13220000D01*
X18840000Y-12220000D02*
X18340000Y-13220000D01*
X19340000Y-13220000D02*
X18840000Y-12220000D01*
X21870000Y-10520000D02*
X14930000Y-10520000D01*
X21870000Y-11830000D02*
X21870000Y-10520000D01*
X25970000Y-10520000D02*
X25970000Y-11830000D01*
X32910000Y-4020000D02*
X32910000Y-10520000D01*
X32910000Y-10520000D02*
X25970000Y-10520000D01*
X34210000Y-2710000D02*
X34210000Y-11830000D01*
X34210000Y-11830000D02*
X13630000Y-11830000D01*
%TO.C,U1*%
X31140000Y-25855000D02*
X38860000Y-25855000D01*
X31140000Y-26090000D02*
X31140000Y-25855000D01*
X31140000Y-38875000D02*
X31140000Y-38640000D01*
X38860000Y-25855000D02*
X38860000Y-26090000D01*
X38860000Y-38640000D02*
X38860000Y-38875000D01*
X38860000Y-38875000D02*
X31140000Y-38875000D01*
X30350000Y-26085000D02*
X30010000Y-25615000D01*
X30690000Y-25615000D01*
X30350000Y-26085000D01*
G36*
X30350000Y-26085000D02*
G01*
X30010000Y-25615000D01*
X30690000Y-25615000D01*
X30350000Y-26085000D01*
G37*
%TO.C,R1*%
X7772936Y-25265000D02*
X8227064Y-25265000D01*
X7772936Y-26735000D02*
X8227064Y-26735000D01*
%TO.C,R10*%
X60772936Y-19265000D02*
X61227064Y-19265000D01*
X60772936Y-20735000D02*
X61227064Y-20735000D01*
%TO.C,TP1*%
X4450000Y-19000000D02*
G75*
G02*
X2550000Y-19000000I-950000J0D01*
G01*
X2550000Y-19000000D02*
G75*
G02*
X4450000Y-19000000I950000J0D01*
G01*
%TO.C,TP6*%
X46450000Y-15000000D02*
G75*
G02*
X44550000Y-15000000I-950000J0D01*
G01*
X44550000Y-15000000D02*
G75*
G02*
X46450000Y-15000000I950000J0D01*
G01*
%TO.C,R9*%
X68772936Y-15265000D02*
X69227064Y-15265000D01*
X68772936Y-16735000D02*
X69227064Y-16735000D01*
%TO.C,R12*%
X44860436Y-42265000D02*
X45314564Y-42265000D01*
X44860436Y-43735000D02*
X45314564Y-43735000D01*
%TO.C,J5*%
X48260000Y-2280000D02*
X55700000Y-2280000D01*
X48260000Y-12320000D02*
X48260000Y-2280000D01*
X56300000Y-2280000D02*
X58660000Y-2280000D01*
X58660000Y-2280000D02*
X58660000Y-12320000D01*
X58660000Y-2900000D02*
X48260000Y-2900000D01*
X58660000Y-4400000D02*
X48260000Y-4400000D01*
X58660000Y-9300000D02*
X48260000Y-9300000D01*
X58660000Y-12320000D02*
X48260000Y-12320000D01*
X56000000Y-2280000D02*
X55560000Y-1670000D01*
X56440000Y-1670000D01*
X56000000Y-2280000D01*
G36*
X56000000Y-2280000D02*
G01*
X55560000Y-1670000D01*
X56440000Y-1670000D01*
X56000000Y-2280000D01*
G37*
%TO.C,JP2*%
X49450000Y-37000000D02*
X52250000Y-37000000D01*
X49450000Y-39000000D02*
X49450000Y-37000000D01*
X52250000Y-37000000D02*
X52250000Y-39000000D01*
X52250000Y-39000000D02*
X49450000Y-39000000D01*
%TO.C,R16*%
X39265000Y-14814564D02*
X39265000Y-14360436D01*
X40735000Y-14814564D02*
X40735000Y-14360436D01*
%TO.C,R8*%
X64772936Y-15265000D02*
X65227064Y-15265000D01*
X64772936Y-16735000D02*
X65227064Y-16735000D01*
%TO.C,U2*%
X30965000Y-14575000D02*
X35085000Y-14575000D01*
X30965000Y-14670000D02*
X30965000Y-14575000D01*
X30965000Y-19695000D02*
X30965000Y-19600000D01*
X35085000Y-14575000D02*
X35085000Y-14670000D01*
X35085000Y-19600000D02*
X35085000Y-19695000D01*
X35085000Y-19695000D02*
X30965000Y-19695000D01*
X30425000Y-14665000D02*
X30185000Y-14335000D01*
X30665000Y-14335000D01*
X30425000Y-14665000D01*
G36*
X30425000Y-14665000D02*
G01*
X30185000Y-14335000D01*
X30665000Y-14335000D01*
X30425000Y-14665000D01*
G37*
%TO.C,Q3*%
X69240000Y-23440000D02*
X70760000Y-23440000D01*
X69240000Y-23490000D02*
X69240000Y-23440000D01*
X69240000Y-25390000D02*
X69240000Y-24610000D01*
X69240000Y-26560000D02*
X69240000Y-26510000D01*
X70760000Y-23440000D02*
X70760000Y-24440000D01*
X70760000Y-25560000D02*
X70760000Y-26560000D01*
X70760000Y-26560000D02*
X69240000Y-26560000D01*
X68940000Y-24950000D02*
X68460000Y-24950000D01*
X68700000Y-24620000D01*
X68940000Y-24950000D01*
G36*
X68940000Y-24950000D02*
G01*
X68460000Y-24950000D01*
X68700000Y-24620000D01*
X68940000Y-24950000D01*
G37*
%TO.C,D4*%
X63815000Y-28540000D02*
X63815000Y-30460000D01*
X63815000Y-30460000D02*
X66500000Y-30460000D01*
X66500000Y-28540000D02*
X63815000Y-28540000D01*
%TO.C,R7*%
X60772936Y-15265000D02*
X61227064Y-15265000D01*
X60772936Y-16735000D02*
X61227064Y-16735000D01*
%TO.C,C5*%
X17738748Y-32265000D02*
X18261252Y-32265000D01*
X17738748Y-33735000D02*
X18261252Y-33735000D01*
%TO.C,TP4*%
X35450000Y-43000000D02*
G75*
G02*
X33550000Y-43000000I-950000J0D01*
G01*
X33550000Y-43000000D02*
G75*
G02*
X35450000Y-43000000I950000J0D01*
G01*
%TO.C,TP2*%
X4450000Y-26000000D02*
G75*
G02*
X2550000Y-26000000I-950000J0D01*
G01*
X2550000Y-26000000D02*
G75*
G02*
X4450000Y-26000000I950000J0D01*
G01*
%TO.C,D2*%
X22240000Y-31440000D02*
X23760000Y-31440000D01*
X22240000Y-31490000D02*
X22240000Y-31440000D01*
X22240000Y-33390000D02*
X22240000Y-32610000D01*
X22240000Y-34560000D02*
X22240000Y-34510000D01*
X23760000Y-31440000D02*
X23760000Y-32440000D01*
X23760000Y-33560000D02*
X23760000Y-34560000D01*
X23760000Y-34560000D02*
X22240000Y-34560000D01*
X21940000Y-32950000D02*
X21460000Y-32950000D01*
X21700000Y-32620000D01*
X21940000Y-32950000D01*
G36*
X21940000Y-32950000D02*
G01*
X21460000Y-32950000D01*
X21700000Y-32620000D01*
X21940000Y-32950000D01*
G37*
%TO.C,F1*%
X9090000Y-19827064D02*
X9090000Y-18372936D01*
X10910000Y-19827064D02*
X10910000Y-18372936D01*
%TO.C,J1*%
X59670000Y-33630000D02*
X61000000Y-33630000D01*
X59670000Y-34960000D02*
X59670000Y-33630000D01*
X59670000Y-36230000D02*
X62270000Y-36230000D01*
X59670000Y-38830000D02*
X59670000Y-36230000D01*
X59670000Y-38830000D02*
X72490000Y-38830000D01*
X62270000Y-33630000D02*
X72490000Y-33630000D01*
X62270000Y-36230000D02*
X62270000Y-33630000D01*
X72490000Y-38830000D02*
X72490000Y-33630000D01*
%TO.C,C1*%
X43765000Y-27311252D02*
X43765000Y-26788748D01*
X45235000Y-27311252D02*
X45235000Y-26788748D01*
%TO.C,C2*%
X21265000Y-19311252D02*
X21265000Y-18788748D01*
X22735000Y-19311252D02*
X22735000Y-18788748D01*
%TO.C,R4*%
X12772936Y-32265000D02*
X13227064Y-32265000D01*
X12772936Y-33735000D02*
X13227064Y-33735000D01*
%TO.C,C3*%
X15090000Y-19736252D02*
X15090000Y-18313748D01*
X16910000Y-19736252D02*
X16910000Y-18313748D01*
%TO.C,R6*%
X12772936Y-39265000D02*
X13227064Y-39265000D01*
X12772936Y-40735000D02*
X13227064Y-40735000D01*
%TD*%
M02*
