M48
; DRILL file {KiCad 9.0.9-9.0.9~ubuntu24.04.1} date 2026-09-01T08:34:25+0200
; FORMAT={-:-/ absolute / metric / decimal}
; #@! TF.CreationDate,2026-09-01T08:34:25+02:00
; #@! TF.GenerationSoftware,Kicad,Pcbnew,9.0.9-9.0.9~ubuntu24.04.1
; #@! TF.FileFunction,MixedPlating,1,2
FMAT,2
METRIC
; #@! TA.AperFunction,Plated,PTH,ViaDrill
T1C0.300
; #@! TA.AperFunction,Plated,PTH,ViaDrill
T2C0.400
; #@! TA.AperFunction,Plated,PTH,ComponentDrill
T3C1.000
; #@! TA.AperFunction,Plated,PTH,ComponentDrill
T4C1.300
; #@! TA.AperFunction,NonPlated,NPTH,ComponentDrill
T5C3.200
%
G90
G05
T1
X3.609Y-21.588
X4.43Y-25.07
X7.087Y-27.619
X8.7Y-18.533
X12.087Y-27.239
X12.677Y-46.416
X12.976Y-33.889
X13.256Y-20.501
X17.05Y-41.243
X18.106Y-33.986
X19.192Y-18.1
X19.563Y-45.013
X21.005Y-40.0
X21.698Y-42.858
X22.428Y-35.758
X22.886Y-27.773
X23.938Y-39.181
X25.115Y-32.508
X25.128Y-43.0
X27.142Y-33.751
X28.092Y-32.481
X28.992Y-31.086
X30.422Y-39.692
X31.215Y-44.925
X31.781Y-35.021
X31.832Y-15.847
X32.041Y-18.995
X32.166Y-18.048
X33.408Y-36.291
X34.32Y-37.561
X34.661Y-14.391
X34.661Y-25.816
X35.709Y-42.393
X35.709Y-47.645
X37.519Y-15.036
X38.099Y-20.3
X38.975Y-23.475
X39.107Y-41.288
X39.725Y-31.725
X40.225Y-24.725
X41.059Y-26.1
X41.228Y-29.19
X41.308Y-30.46
X41.895Y-42.052
X43.205Y-28.439
X44.175Y-36.74
X45.554Y-28.929
X47.35Y-9.968
X47.35Y-36.796
X56.755Y-19.626
X57.68Y-27.662
X61.912Y-17.208
X61.912Y-23.221
X62.829Y-31.139
X64.243Y-17.216
X64.243Y-26.769
X65.061Y-20.902
X69.062Y-23.191
X69.912Y-21.378
T2
X4.925Y-9.925
X4.925Y-14.925
X4.925Y-19.925
X4.925Y-29.925
X4.925Y-34.925
X4.925Y-44.925
X4.925Y-49.925
X9.925Y-4.925
X9.925Y-9.925
X9.925Y-14.925
X9.925Y-29.925
X9.925Y-34.925
X9.925Y-49.925
X9.925Y-54.925
X14.925Y-4.925
X14.925Y-9.925
X14.925Y-14.925
X14.925Y-29.925
X14.925Y-44.925
X14.925Y-54.925
X16.0Y-16.15
X18.95Y-31.6
X18.95Y-38.2
X19.925Y-4.925
X19.925Y-14.925
X19.925Y-29.925
X19.925Y-34.925
X19.925Y-49.925
X20.35Y-26.0
X22.0Y-16.7
X22.062Y-30.65
X22.062Y-37.65
X24.925Y-4.925
X24.925Y-14.925
X24.925Y-49.925
X29.15Y-16.5
X29.925Y-4.925
X31.8Y-43.0
X34.925Y-4.925
X34.925Y-54.925
X39.925Y-4.925
X43.1Y-26.1
X44.925Y-4.925
X44.925Y-49.925
X44.925Y-54.925
X46.0Y-41.6
X49.925Y-4.925
X54.925Y-34.925
X54.925Y-39.925
X54.925Y-49.925
X59.262Y-25.95
X59.925Y-4.925
X59.925Y-9.925
X59.925Y-54.925
X64.925Y-4.925
X64.925Y-9.925
X64.925Y-49.925
X64.925Y-54.925
X69.062Y-27.35
X69.925Y-9.925
X69.925Y-29.925
X69.925Y-44.925
X69.925Y-49.925
T3
X18.84Y-6.0
X18.84Y-8.54
X18.84Y-51.46
X18.84Y-54.0
X21.38Y-6.0
X21.38Y-8.54
X21.38Y-51.46
X21.38Y-54.0
X23.92Y-6.0
X23.92Y-8.54
X23.92Y-51.46
X23.92Y-54.0
X26.46Y-6.0
X26.46Y-8.54
X26.46Y-51.46
X26.46Y-54.0
X29.0Y-6.0
X29.0Y-8.54
X29.0Y-51.46
X29.0Y-54.0
X39.0Y-51.0
X39.0Y-53.54
X39.0Y-56.08
X61.0Y-34.96
X61.0Y-37.5
X63.54Y-34.96
X63.54Y-37.5
X66.08Y-34.96
X66.08Y-37.5
X68.62Y-34.96
X68.62Y-37.5
X71.16Y-34.96
X71.16Y-37.5
T4
X50.92Y-7.0
X50.92Y-53.0
X56.0Y-7.0
X56.0Y-53.0
T5
X4.0Y-4.0
X4.0Y-56.0
X70.0Y-4.0
X70.0Y-56.0
M30
