%TF.GenerationSoftware,KiCad,Pcbnew,9.0.9-9.0.9~ubuntu24.04.1*%
%TF.CreationDate,2026-09-01T08:34:25+02:00*%
%TF.ProjectId,daughtercard,64617567-6874-4657-9263-6172642e6b69,rev?*%
%TF.SameCoordinates,Original*%
%TF.FileFunction,Soldermask,Bot*%
%TF.FilePolarity,Negative*%
%FSLAX46Y46*%
G04 Gerber Fmt 4.6, Leading zero omitted, Abs format (unit mm)*
G04 Created by KiCad (PCBNEW 9.0.9-9.0.9~ubuntu24.04.1) date 2026-09-01 08:34:25*
%MOMM*%
%LPD*%
G01*
G04 APERTURE LIST*
G04 Aperture macros list*
%AMRoundRect*
0 Rectangle with rounded corners*
0 $1 Rounding radius*
0 $2 $3 $4 $5 $6 $7 $8 $9 X,Y pos of 4 corners*
0 Add a 4 corners polygon primitive as box body*
4,1,4,$2,$3,$4,$5,$6,$7,$8,$9,$2,$3,0*
0 Add four circle primitives for the rounded corners*
1,1,$1+$1,$2,$3*
1,1,$1+$1,$4,$5*
1,1,$1+$1,$6,$7*
1,1,$1+$1,$8,$9*
0 Add four rect primitives between the rounded corners*
20,1,$1+$1,$2,$3,$4,$5,0*
20,1,$1+$1,$4,$5,$6,$7,0*
20,1,$1+$1,$6,$7,$8,$9,0*
20,1,$1+$1,$8,$9,$2,$3,0*%
G04 Aperture macros list end*
%ADD10C,3.200000*%
%ADD11RoundRect,0.250000X-1.050000X-1.050000X1.050000X-1.050000X1.050000X1.050000X-1.050000X1.050000X0*%
%ADD12C,2.600000*%
%ADD13RoundRect,0.250000X0.600000X-0.600000X0.600000X0.600000X-0.600000X0.600000X-0.600000X-0.600000X0*%
%ADD14C,1.700000*%
%ADD15R,1.700000X1.700000*%
%ADD16RoundRect,0.250000X1.050000X1.050000X-1.050000X1.050000X-1.050000X-1.050000X1.050000X-1.050000X0*%
G04 APERTURE END LIST*
D10*
%TO.C,H4*%
X70000000Y-56000000D03*
%TD*%
D11*
%TO.C,J4*%
X50920000Y-53000000D03*
D12*
X56000000Y-53000000D03*
%TD*%
D13*
%TO.C,J2*%
X18840000Y-54000000D03*
D14*
X18840000Y-51460000D03*
X21380000Y-54000000D03*
X21380000Y-51460000D03*
X23920000Y-54000000D03*
X23920000Y-51460000D03*
X26460000Y-54000000D03*
X26460000Y-51460000D03*
X29000000Y-54000000D03*
X29000000Y-51460000D03*
%TD*%
D10*
%TO.C,H2*%
X70000000Y-4000000D03*
%TD*%
D15*
%TO.C,J6*%
X39000000Y-51000000D03*
D14*
X39000000Y-53540000D03*
X39000000Y-56080000D03*
%TD*%
D10*
%TO.C,H3*%
X4000000Y-56000000D03*
%TD*%
D13*
%TO.C,J3*%
X18840000Y-8540000D03*
D14*
X18840000Y-6000000D03*
X21380000Y-8540000D03*
X21380000Y-6000000D03*
X23920000Y-8540000D03*
X23920000Y-6000000D03*
X26460000Y-8540000D03*
X26460000Y-6000000D03*
X29000000Y-8540000D03*
X29000000Y-6000000D03*
%TD*%
D16*
%TO.C,J5*%
X56000000Y-7000000D03*
D12*
X50920000Y-7000000D03*
%TD*%
D10*
%TO.C,H1*%
X4000000Y-4000000D03*
%TD*%
D15*
%TO.C,J1*%
X61000000Y-34960000D03*
D14*
X61000000Y-37500000D03*
X63540000Y-34960000D03*
X63540000Y-37500000D03*
X66080000Y-34960000D03*
X66080000Y-37500000D03*
X68620000Y-34960000D03*
X68620000Y-37500000D03*
X71160000Y-34960000D03*
X71160000Y-37500000D03*
%TD*%
M02*
