%TF.GenerationSoftware,KiCad,Pcbnew,9.0.9-9.0.9~ubuntu24.04.1*%
%TF.CreationDate,2026-09-01T08:34:25+02:00*%
%TF.ProjectId,daughtercard,64617567-6874-4657-9263-6172642e6b69,rev?*%
%TF.SameCoordinates,Original*%
%TF.FileFunction,Copper,L2,Bot*%
%TF.FilePolarity,Positive*%
%FSLAX46Y46*%
G04 Gerber Fmt 4.6, Leading zero omitted, Abs format (unit mm)*
G04 Created by KiCad (PCBNEW 9.0.9-9.0.9~ubuntu24.04.1) date 2026-09-01 08:34:25*
%MOMM*%
%LPD*%
G01*
G04 APERTURE LIST*
G04 Aperture macros list*
%AMRoundRect*
0 Rectangle with rounded corners*
0 $1 Rounding radius*
0 $2 $3 $4 $5 $6 $7 $8 $9 X,Y pos of 4 corners*
0 Add a 4 corners polygon primitive as box body*
4,1,4,$2,$3,$4,$5,$6,$7,$8,$9,$2,$3,0*
0 Add four circle primitives for the rounded corners*
1,1,$1+$1,$2,$3*
1,1,$1+$1,$4,$5*
1,1,$1+$1,$6,$7*
1,1,$1+$1,$8,$9*
0 Add four rect primitives between the rounded corners*
20,1,$1+$1,$2,$3,$4,$5,0*
20,1,$1+$1,$4,$5,$6,$7,0*
20,1,$1+$1,$6,$7,$8,$9,0*
20,1,$1+$1,$8,$9,$2,$3,0*%
G04 Aperture macros list end*
%TA.AperFunction,ComponentPad*%
%ADD10RoundRect,0.250000X-1.050000X-1.050000X1.050000X-1.050000X1.050000X1.050000X-1.050000X1.050000X0*%
%TD*%
%TA.AperFunction,ComponentPad*%
%ADD11C,2.600000*%
%TD*%
%TA.AperFunction,ComponentPad*%
%ADD12RoundRect,0.250000X0.600000X-0.600000X0.600000X0.600000X-0.600000X0.600000X-0.600000X-0.600000X0*%
%TD*%
%TA.AperFunction,ComponentPad*%
%ADD13C,1.700000*%
%TD*%
%TA.AperFunction,ComponentPad*%
%ADD14R,1.700000X1.700000*%
%TD*%
%TA.AperFunction,ComponentPad*%
%ADD15RoundRect,0.250000X1.050000X1.050000X-1.050000X1.050000X-1.050000X-1.050000X1.050000X-1.050000X0*%
%TD*%
%TA.AperFunction,ViaPad*%
%ADD16C,0.600000*%
%TD*%
%TA.AperFunction,ViaPad*%
%ADD17C,0.800000*%
%TD*%
%TA.AperFunction,Conductor*%
%ADD18C,0.500000*%
%TD*%
%TA.AperFunction,Conductor*%
%ADD19C,1.500000*%
%TD*%
G04 APERTURE END LIST*
D10*
%TO.P,J4,1*%
%TO.N,/AC1*%
X50920000Y-53000000D03*
D11*
%TO.P,J4,2*%
%TO.N,/AC2*%
X56000000Y-53000000D03*
%TD*%
D12*
%TO.P,J2,1*%
%TO.N,/+5V_IN*%
X18840000Y-54000000D03*
D13*
%TO.P,J2,2*%
%TO.N,/GND*%
X18840000Y-51460000D03*
%TO.P,J2,3*%
%TO.N,/RS485_A*%
X21380000Y-54000000D03*
%TO.P,J2,4*%
%TO.N,/GND*%
X21380000Y-51460000D03*
%TO.P,J2,5*%
%TO.N,/RS485_B*%
X23920000Y-54000000D03*
%TO.P,J2,6*%
%TO.N,/GND*%
X23920000Y-51460000D03*
%TO.P,J2,7*%
%TO.N,/CHAIN_IN_RAW*%
X26460000Y-54000000D03*
%TO.P,J2,8*%
%TO.N,/GND*%
X26460000Y-51460000D03*
%TO.P,J2,9*%
%TO.N,/+15V*%
X29000000Y-54000000D03*
%TO.P,J2,10*%
%TO.N,/GND*%
X29000000Y-51460000D03*
%TD*%
D14*
%TO.P,J6,1*%
%TO.N,/GND*%
X39000000Y-51000000D03*
D13*
%TO.P,J6,2*%
%TO.N,/UPDI*%
X39000000Y-53540000D03*
%TO.P,J6,3*%
%TO.N,/+5V_IN*%
X39000000Y-56080000D03*
%TD*%
D12*
%TO.P,J3,1*%
%TO.N,/+5V*%
X18840000Y-8540000D03*
D13*
%TO.P,J3,2*%
%TO.N,/GND*%
X18840000Y-6000000D03*
%TO.P,J3,3*%
%TO.N,/RS485_A*%
X21380000Y-8540000D03*
%TO.P,J3,4*%
%TO.N,/GND*%
X21380000Y-6000000D03*
%TO.P,J3,5*%
%TO.N,/RS485_B*%
X23920000Y-8540000D03*
%TO.P,J3,6*%
%TO.N,/GND*%
X23920000Y-6000000D03*
%TO.P,J3,7*%
%TO.N,/CHAIN_OUT_EXT*%
X26460000Y-8540000D03*
%TO.P,J3,8*%
%TO.N,/GND*%
X26460000Y-6000000D03*
%TO.P,J3,9*%
%TO.N,/+15V*%
X29000000Y-8540000D03*
%TO.P,J3,10*%
%TO.N,/GND*%
X29000000Y-6000000D03*
%TD*%
D15*
%TO.P,J5,1*%
%TO.N,/AC1*%
X56000000Y-7000000D03*
D11*
%TO.P,J5,2*%
%TO.N,/AC2*%
X50920000Y-7000000D03*
%TD*%
D14*
%TO.P,J1,1*%
%TO.N,/GND*%
X61000000Y-34960000D03*
D13*
%TO.P,J1,2*%
%TO.N,/AC1*%
X61000000Y-37500000D03*
%TO.P,J1,3*%
%TO.N,/GND*%
X63540000Y-34960000D03*
%TO.P,J1,4*%
%TO.N,/AC2*%
X63540000Y-37500000D03*
%TO.P,J1,5*%
%TO.N,/VSENS*%
X66080000Y-34960000D03*
%TO.P,J1,6*%
X66080000Y-37500000D03*
%TO.P,J1,7*%
%TO.N,/PULSE_NULL_RAW*%
X68620000Y-34960000D03*
%TO.P,J1,8*%
%TO.N,/PULSE_LEER_RAW*%
X68620000Y-37500000D03*
%TO.P,J1,9*%
%TO.N,/TRIAC_CTRL*%
X71160000Y-34960000D03*
%TO.P,J1,10*%
%TO.N,/PULSE_BLATT_RAW*%
X71160000Y-37500000D03*
%TD*%
D16*
%TO.N,/+5V*%
X22428200Y-35758500D03*
X38975000Y-23475000D03*
X13256000Y-20501100D03*
X34661100Y-25815800D03*
X7087500Y-27619000D03*
X40225000Y-24725000D03*
X34661100Y-14391100D03*
X22885700Y-27773200D03*
%TO.N,/+5V_IN*%
X3609200Y-21588400D03*
%TO.N,/+15V*%
X30422400Y-39692000D03*
%TO.N,/CHAIN_IN*%
X41308500Y-30460000D03*
X41894900Y-42051800D03*
%TO.N,/CHAIN_IN_RAW*%
X31215000Y-44925100D03*
%TO.N,/CHAIN_OUT*%
X41228100Y-29190000D03*
X44175000Y-36739700D03*
%TO.N,/CHAIN_OUT_EXT*%
X47349600Y-36795700D03*
X47349600Y-9967700D03*
%TO.N,/DE*%
X34320100Y-37560800D03*
X32165900Y-18047600D03*
%TO.N,/DI*%
X32040600Y-18995000D03*
X33407700Y-36290800D03*
D17*
%TO.N,/GND*%
X4925000Y-29925000D03*
X19925000Y-49925000D03*
X9925000Y-49925000D03*
X18950000Y-31600000D03*
X69925000Y-9925000D03*
D16*
X57680500Y-27662100D03*
D17*
X44925000Y-49925000D03*
X59925000Y-4925000D03*
X4925000Y-44925000D03*
X19925000Y-14925000D03*
X64925000Y-49925000D03*
X9925000Y-29925000D03*
X14925000Y-14925000D03*
D16*
X19192000Y-18100000D03*
D17*
X4925000Y-19925000D03*
X54925000Y-34925000D03*
X20349999Y-26000000D03*
X9925000Y-9925000D03*
X22000000Y-16700000D03*
X34925000Y-4925000D03*
X39925000Y-4925000D03*
D16*
X21698100Y-42858000D03*
D17*
X64925000Y-4925000D03*
X54925000Y-39925000D03*
D16*
X41058800Y-26100000D03*
X25128000Y-43000000D03*
D17*
X64925000Y-54925000D03*
X59925000Y-9925000D03*
X69925000Y-44925000D03*
X59262500Y-25950000D03*
X69925000Y-49925000D03*
X4925000Y-9925000D03*
X29150000Y-16500000D03*
X9925000Y-14925000D03*
X24925000Y-4925000D03*
X9925000Y-4925000D03*
X18950000Y-38200000D03*
X9925000Y-54925000D03*
X44925000Y-54925000D03*
X19925000Y-29925000D03*
X14925000Y-4925000D03*
X16000000Y-16150000D03*
X34925000Y-54925000D03*
X31800000Y-43000000D03*
X49925000Y-4925000D03*
D16*
X39107200Y-41288200D03*
D17*
X64925000Y-9925000D03*
X14925000Y-29925000D03*
X14925000Y-44925000D03*
X69925000Y-29925000D03*
X24925000Y-14925000D03*
X59925000Y-54925000D03*
D16*
X21005300Y-40000000D03*
D17*
X9925000Y-34925000D03*
X46000000Y-41600000D03*
X44925000Y-4925000D03*
X4925000Y-49925000D03*
X69062500Y-27349999D03*
X43100000Y-26100000D03*
X19925000Y-4925000D03*
X14925000Y-9925000D03*
X14925000Y-54925000D03*
X4925000Y-14925000D03*
X19925000Y-34925000D03*
X22062500Y-30650000D03*
X29925000Y-4925000D03*
X24925000Y-49925000D03*
X22062500Y-37650000D03*
X54925000Y-49925000D03*
X4925000Y-34925000D03*
D16*
%TO.N,/LED_A*%
X45553700Y-28929400D03*
X43204700Y-28439200D03*
%TO.N,/PULSE_BLATT_RAW*%
X12677200Y-46416000D03*
X12087500Y-27239400D03*
%TO.N,/PULSE_LEER*%
X18105700Y-33985700D03*
X25115200Y-32508200D03*
%TO.N,/PULSE_LEER_RAW*%
X19562700Y-45012600D03*
X12976300Y-33888800D03*
%TO.N,/PULSE_NULL*%
X28991700Y-31086100D03*
X17050000Y-41243400D03*
X23937500Y-39181100D03*
%TO.N,/Q2_BASE*%
X61912500Y-17208000D03*
X61912500Y-23221000D03*
%TO.N,/Q3_BASE*%
X69062500Y-23190900D03*
X65061000Y-20902100D03*
%TO.N,/RO*%
X31781400Y-35020800D03*
X31832100Y-15847400D03*
%TO.N,/RS485_A*%
X38099400Y-20300000D03*
%TO.N,/RS485_B*%
X37518600Y-15036100D03*
%TO.N,/TP_PB4*%
X4430000Y-25070000D03*
X27142400Y-33750800D03*
%TO.N,/TP_PB5*%
X28091800Y-32480800D03*
X8699700Y-18532800D03*
%TO.N,/TRIAC_CTRL*%
X35708500Y-47645000D03*
X69912500Y-21378500D03*
X35708500Y-42393100D03*
%TO.N,/UPDI*%
X39725000Y-31725000D03*
%TO.N,/VDRV*%
X64243300Y-26769200D03*
X62829500Y-31138800D03*
X64243300Y-17216200D03*
%TO.N,/VSENS*%
X56754600Y-19626200D03*
%TD*%
D18*
%TO.N,/+5V*%
X22885700Y-27773200D02*
X19578700Y-27773200D01*
X38975000Y-23475000D02*
X39225000Y-23725000D01*
X22937200Y-35758500D02*
X25912400Y-32783300D01*
X39725000Y-24225000D02*
X39975000Y-24475000D01*
X25912400Y-30799900D02*
X22885700Y-27773200D01*
X13256000Y-21450500D02*
X7087500Y-27619000D01*
X39475000Y-23975000D02*
X39725000Y-24225000D01*
X39975000Y-24475000D02*
X40225000Y-24725000D01*
X34661100Y-14391100D02*
X34661100Y-25815800D01*
X19578700Y-27773200D02*
X13256000Y-21450500D01*
X39225000Y-23725000D02*
X39475000Y-23975000D01*
X25912400Y-32783300D02*
X25912400Y-30799900D01*
X22428200Y-35758500D02*
X22937200Y-35758500D01*
X13256000Y-21450500D02*
X13256000Y-20501100D01*
%TO.N,/+5V_IN*%
X3609200Y-38769200D02*
X3609200Y-21588400D01*
X18840000Y-54000000D02*
X3609200Y-38769200D01*
%TO.N,/+15V*%
X29000000Y-8540000D02*
X30422400Y-9962400D01*
X30422400Y-39692000D02*
X30422400Y-52577600D01*
X30422400Y-52577600D02*
X29000000Y-54000000D01*
X30422400Y-9962400D02*
X30422400Y-39692000D01*
D19*
%TO.N,/AC1*%
X50920000Y-47580000D02*
X50920000Y-53000000D01*
X61000000Y-37500000D02*
X50920000Y-47580000D01*
X55181300Y-32693600D02*
X59987700Y-37500000D01*
X59987700Y-37500000D02*
X61000000Y-37500000D01*
X56000000Y-7000000D02*
X55181300Y-7818700D01*
X55181300Y-7818700D02*
X55181300Y-32693600D01*
%TO.N,/AC2*%
X49214400Y-55561200D02*
X53438800Y-55561200D01*
X50920000Y-7000000D02*
X50920000Y-40272400D01*
X63540000Y-37500000D02*
X63540000Y-45460000D01*
X53438800Y-55561200D02*
X56000000Y-53000000D01*
X50920000Y-40272400D02*
X48318500Y-42873900D01*
X63540000Y-45460000D02*
X56000000Y-53000000D01*
X48318500Y-54665300D02*
X49214400Y-55561200D01*
X48318500Y-42873900D02*
X48318500Y-54665300D01*
D18*
%TO.N,/CHAIN_IN*%
X41894900Y-42051800D02*
X41894900Y-31046400D01*
X41894900Y-31046400D02*
X41308500Y-30460000D01*
%TO.N,/CHAIN_IN_RAW*%
X29555500Y-55312400D02*
X27772400Y-55312400D01*
X31215000Y-44925100D02*
X31215000Y-53652900D01*
X27772400Y-55312400D02*
X26460000Y-54000000D01*
X31215000Y-53652900D02*
X29555500Y-55312400D01*
%TO.N,/CHAIN_OUT*%
X44175000Y-32136900D02*
X44175000Y-36739700D01*
X41228100Y-29190000D02*
X44175000Y-32136900D01*
%TO.N,/CHAIN_OUT_EXT*%
X47349600Y-9967700D02*
X47349600Y-36795700D01*
%TO.N,/DE*%
X34320100Y-29458500D02*
X34320100Y-37560800D01*
X32870900Y-28009300D02*
X34320100Y-29458500D01*
X32165900Y-18047600D02*
X32870900Y-18752600D01*
X32870900Y-18752600D02*
X32870900Y-28009300D01*
%TO.N,/DI*%
X32040600Y-28171500D02*
X33407700Y-29538600D01*
X33407700Y-29538600D02*
X33407700Y-36290800D01*
X32040600Y-18995000D02*
X32040600Y-28171500D01*
%TO.N,/LED_A*%
X43694900Y-28929400D02*
X45553700Y-28929400D01*
X43204700Y-28439200D02*
X43694900Y-28929400D01*
%TO.N,/PULSE_BLATT_RAW*%
X12087500Y-45826300D02*
X12677200Y-46416000D01*
X12087500Y-27239400D02*
X12087500Y-45826300D01*
%TO.N,/PULSE_LEER*%
X25115200Y-32508200D02*
X19583200Y-32508200D01*
X19583200Y-32508200D02*
X18105700Y-33985700D01*
%TO.N,/PULSE_LEER_RAW*%
X12976300Y-33888800D02*
X19562700Y-40475200D01*
X19562700Y-40475200D02*
X19562700Y-45012600D01*
%TO.N,/PULSE_NULL*%
X19263200Y-45815400D02*
X17050000Y-43602200D01*
X23937500Y-39181100D02*
X28991700Y-34126900D01*
X19874700Y-45815400D02*
X19263200Y-45815400D01*
X28991700Y-34126900D02*
X28991700Y-31086100D01*
X23937500Y-41752600D02*
X19874700Y-45815400D01*
X17050000Y-43602200D02*
X17050000Y-41243400D01*
X23937500Y-39181100D02*
X23937500Y-41752600D01*
%TO.N,/Q2_BASE*%
X61912500Y-17208000D02*
X61912500Y-23221000D01*
%TO.N,/Q3_BASE*%
X66773700Y-20902100D02*
X65061000Y-20902100D01*
X69062500Y-23190900D02*
X66773700Y-20902100D01*
%TO.N,/RO*%
X32706000Y-30199400D02*
X32706000Y-34096200D01*
X32706000Y-34096200D02*
X31781400Y-35020800D01*
X31277100Y-28770500D02*
X32706000Y-30199400D01*
X31277100Y-16402400D02*
X31277100Y-28770500D01*
X31832100Y-15847400D02*
X31277100Y-16402400D01*
%TO.N,/RS485_A*%
X24139200Y-56759200D02*
X30098500Y-56759200D01*
X30098500Y-56759200D02*
X38099400Y-48758300D01*
X21380000Y-54000000D02*
X24139200Y-56759200D01*
X38099400Y-48758300D02*
X38099400Y-20300000D01*
%TO.N,/RS485_B*%
X29844700Y-56015600D02*
X25935600Y-56015600D01*
X36816900Y-15737800D02*
X36816900Y-49043400D01*
X25935600Y-56015600D02*
X23920000Y-54000000D01*
X37518600Y-15036100D02*
X36816900Y-15737800D01*
X36816900Y-49043400D02*
X29844700Y-56015600D01*
%TO.N,/TP_PB4*%
X4430000Y-25070000D02*
X9801100Y-19698900D01*
X15934500Y-19698900D02*
X27142400Y-30906800D01*
X27142400Y-30906800D02*
X27142400Y-33750800D01*
X9801100Y-19698900D02*
X15934500Y-19698900D01*
%TO.N,/TP_PB5*%
X15816900Y-18532800D02*
X28091800Y-30807700D01*
X8699700Y-18532800D02*
X15816900Y-18532800D01*
X28091800Y-30807700D02*
X28091800Y-32480800D01*
%TO.N,/TRIAC_CTRL*%
X35708500Y-42393100D02*
X35708500Y-47645000D01*
X71160000Y-34960000D02*
X71160000Y-22626000D01*
X71160000Y-22626000D02*
X69912500Y-21378500D01*
%TO.N,/UPDI*%
X40225000Y-40975000D02*
X40225000Y-40725000D01*
X40225000Y-48475000D02*
X40225000Y-48225000D01*
X40725000Y-50225000D02*
X40725000Y-49975000D01*
X40225000Y-41975000D02*
X40225000Y-41725000D01*
X39975000Y-37975000D02*
X39975000Y-37725000D01*
X39975000Y-33725000D02*
X39975000Y-33475000D01*
X39975000Y-39975000D02*
X39975000Y-39725000D01*
X39975000Y-35225000D02*
X39975000Y-34975000D01*
X39975000Y-31975000D02*
X39725000Y-31725000D01*
X40225000Y-42975000D02*
X40225000Y-42725000D01*
X39975000Y-36225000D02*
X39975000Y-35975000D01*
X40225000Y-41225000D02*
X40225000Y-40975000D01*
X40225000Y-40725000D02*
X39975000Y-40475000D01*
X39975000Y-32975000D02*
X39975000Y-32725000D01*
X40225000Y-44225000D02*
X40225000Y-43975000D01*
X40225000Y-48225000D02*
X40225000Y-47975000D01*
X40225000Y-47475000D02*
X40225000Y-47225000D01*
X39725000Y-52975000D02*
X39975000Y-52725000D01*
X40225000Y-42475000D02*
X40225000Y-42225000D01*
X40225000Y-43475000D02*
X40225000Y-43225000D01*
X39975000Y-38975000D02*
X39975000Y-38725000D01*
X40225000Y-41725000D02*
X40225000Y-41475000D01*
X40225000Y-44475000D02*
X40225000Y-44225000D01*
X40725000Y-49975000D02*
X40475000Y-49725000D01*
X39975000Y-37475000D02*
X39975000Y-37225000D01*
X40225000Y-46975000D02*
X40225000Y-46725000D01*
X39975000Y-34975000D02*
X39975000Y-34725000D01*
X40725000Y-51225000D02*
X40725000Y-50975000D01*
X40725000Y-50475000D02*
X40725000Y-50225000D01*
X39975000Y-37725000D02*
X39975000Y-37475000D01*
X39975000Y-36475000D02*
X39975000Y-36225000D01*
X39975000Y-32225000D02*
X39975000Y-31975000D01*
X39975000Y-40225000D02*
X39975000Y-39975000D01*
X40225000Y-42225000D02*
X40225000Y-41975000D01*
X40225000Y-46225000D02*
X40225000Y-45975000D01*
X39975000Y-33225000D02*
X39975000Y-32975000D01*
X40225000Y-42725000D02*
X40225000Y-42475000D01*
X39975000Y-36725000D02*
X39975000Y-36475000D01*
X39975000Y-38475000D02*
X39975000Y-38225000D01*
X40225000Y-45725000D02*
X40225000Y-45475000D01*
X39975000Y-32475000D02*
X39975000Y-32225000D01*
X40225000Y-43725000D02*
X40225000Y-43475000D01*
X39225000Y-53225000D02*
X39475000Y-53225000D01*
X40725000Y-51975000D02*
X40725000Y-51725000D01*
X39475000Y-53225000D02*
X39725000Y-52975000D01*
X40225000Y-46475000D02*
X40225000Y-46225000D01*
X39975000Y-33975000D02*
X39975000Y-33725000D01*
X40225000Y-43975000D02*
X40225000Y-43725000D01*
X39975000Y-35725000D02*
X39975000Y-35475000D01*
X39975000Y-38225000D02*
X39975000Y-37975000D01*
X39975000Y-40475000D02*
X39975000Y-40225000D01*
X40725000Y-50725000D02*
X40725000Y-50475000D01*
X40225000Y-49225000D02*
X40225000Y-48975000D01*
X39975000Y-39475000D02*
X39975000Y-39225000D01*
X39975000Y-39225000D02*
X39975000Y-38975000D01*
X40475000Y-52225000D02*
X40725000Y-51975000D01*
X39975000Y-39725000D02*
X39975000Y-39475000D01*
X40225000Y-46725000D02*
X40225000Y-46475000D01*
X40225000Y-41475000D02*
X40225000Y-41225000D01*
X39975000Y-37225000D02*
X39975000Y-36975000D01*
X40475000Y-49725000D02*
X40225000Y-49475000D01*
X40225000Y-45975000D02*
X40225000Y-45725000D01*
X39975000Y-36975000D02*
X39975000Y-36725000D01*
X39975000Y-35475000D02*
X39975000Y-35225000D01*
X39975000Y-35975000D02*
X39975000Y-35725000D01*
X40225000Y-47225000D02*
X40225000Y-46975000D01*
X40225000Y-48975000D02*
X40225000Y-48725000D01*
X40225000Y-45475000D02*
X40225000Y-45225000D01*
X40225000Y-44725000D02*
X40225000Y-44475000D01*
X40725000Y-51475000D02*
X40725000Y-51225000D01*
X39975000Y-52725000D02*
X40225000Y-52475000D01*
X40225000Y-47975000D02*
X40225000Y-47725000D01*
X40225000Y-49475000D02*
X40225000Y-49225000D01*
X40725000Y-50975000D02*
X40725000Y-50725000D01*
X40225000Y-48725000D02*
X40225000Y-48475000D01*
X39975000Y-38725000D02*
X39975000Y-38475000D01*
X40225000Y-47725000D02*
X40225000Y-47475000D01*
X39975000Y-33475000D02*
X39975000Y-33225000D01*
X40225000Y-45225000D02*
X40225000Y-44975000D01*
X39975000Y-34475000D02*
X39975000Y-34225000D01*
X39975000Y-34225000D02*
X39975000Y-33975000D01*
X39000000Y-53540000D02*
X39225000Y-53225000D01*
X40725000Y-51725000D02*
X40725000Y-51475000D01*
X39975000Y-32725000D02*
X39975000Y-32475000D01*
X40225000Y-43225000D02*
X40225000Y-42975000D01*
X39975000Y-34725000D02*
X39975000Y-34475000D01*
X40225000Y-52475000D02*
X40475000Y-52225000D01*
X40225000Y-44975000D02*
X40225000Y-44725000D01*
%TO.N,/VDRV*%
X62829500Y-31138800D02*
X64243300Y-29725000D01*
X64243300Y-29725000D02*
X64243300Y-26769200D01*
X64243300Y-26769200D02*
X64243300Y-17216200D01*
%TO.N,/VSENS*%
X66080000Y-37500000D02*
X66080000Y-34960000D01*
X60480100Y-23351700D02*
X56754600Y-19626200D01*
X66080000Y-34960000D02*
X65587700Y-34960000D01*
X60480100Y-29852400D02*
X60480100Y-23351700D01*
X65587700Y-34960000D02*
X60480100Y-29852400D01*
%TD*%
%TA.AperFunction,Conductor*%
%TO.N,/GND*%
G36*
X12607199Y-20269085D02*
G01*
X12652954Y-20321889D01*
X12662898Y-20391047D01*
X12659937Y-20405482D01*
X12655500Y-20422043D01*
X12655500Y-20422045D01*
X12655500Y-20580156D01*
X12698527Y-20740736D01*
X12697832Y-20740922D01*
X12705500Y-20779462D01*
X12705500Y-21171112D01*
X12685815Y-21238151D01*
X12669181Y-21258793D01*
X6895067Y-27032906D01*
X6862394Y-27054740D01*
X6862753Y-27055361D01*
X6855718Y-27059422D01*
X6855716Y-27059423D01*
X6769528Y-27109182D01*
X6718785Y-27138479D01*
X6718782Y-27138481D01*
X6606981Y-27250282D01*
X6606975Y-27250290D01*
X6527926Y-27387209D01*
X6527923Y-27387216D01*
X6487000Y-27539943D01*
X6487000Y-27698057D01*
X6502599Y-27756271D01*
X6527923Y-27850783D01*
X6527926Y-27850790D01*
X6606975Y-27987709D01*
X6606979Y-27987714D01*
X6606980Y-27987716D01*
X6718784Y-28099520D01*
X6718786Y-28099521D01*
X6718790Y-28099524D01*
X6855709Y-28178573D01*
X6855716Y-28178577D01*
X7008443Y-28219500D01*
X7008445Y-28219500D01*
X7166555Y-28219500D01*
X7166557Y-28219500D01*
X7319284Y-28178577D01*
X7456216Y-28099520D01*
X7568020Y-27987716D01*
X7647077Y-27850784D01*
X7647077Y-27850780D01*
X7651140Y-27843745D01*
X7651762Y-27844104D01*
X7673592Y-27811431D01*
X13168322Y-22316702D01*
X13229641Y-22283220D01*
X13299333Y-22288204D01*
X13343680Y-22316705D01*
X19240685Y-28213710D01*
X19240687Y-28213711D01*
X19240691Y-28213714D01*
X19330059Y-28265310D01*
X19330062Y-28265311D01*
X19330067Y-28265314D01*
X19366215Y-28286184D01*
X19506225Y-28323700D01*
X19506226Y-28323700D01*
X19651174Y-28323700D01*
X22606313Y-28323700D01*
X22673352Y-28343385D01*
X22693994Y-28360019D01*
X25325581Y-30991606D01*
X25359066Y-31052929D01*
X25361900Y-31079287D01*
X25361900Y-31791020D01*
X25342215Y-31858059D01*
X25289411Y-31903814D01*
X25220253Y-31913758D01*
X25205808Y-31910795D01*
X25194258Y-31907700D01*
X25194257Y-31907700D01*
X25036143Y-31907700D01*
X24883416Y-31948623D01*
X24883414Y-31948623D01*
X24875565Y-31950727D01*
X24875379Y-31950034D01*
X24836837Y-31957700D01*
X19510725Y-31957700D01*
X19426719Y-31980209D01*
X19370713Y-31995216D01*
X19370712Y-31995217D01*
X19245189Y-32067687D01*
X19245184Y-32067691D01*
X17913267Y-33399606D01*
X17880594Y-33421440D01*
X17880953Y-33422061D01*
X17873918Y-33426122D01*
X17873916Y-33426123D01*
X17793697Y-33472437D01*
X17736985Y-33505179D01*
X17736982Y-33505181D01*
X17625181Y-33616982D01*
X17625175Y-33616990D01*
X17546126Y-33753909D01*
X17546123Y-33753916D01*
X17505200Y-33906643D01*
X17505200Y-34064757D01*
X17544252Y-34210499D01*
X17546123Y-34217483D01*
X17546126Y-34217490D01*
X17625175Y-34354409D01*
X17625179Y-34354414D01*
X17625180Y-34354416D01*
X17736984Y-34466220D01*
X17736986Y-34466221D01*
X17736990Y-34466224D01*
X17865999Y-34540706D01*
X17873916Y-34545277D01*
X18026643Y-34586200D01*
X18026645Y-34586200D01*
X18184755Y-34586200D01*
X18184757Y-34586200D01*
X18337484Y-34545277D01*
X18474416Y-34466220D01*
X18586220Y-34354416D01*
X18665277Y-34217484D01*
X18665277Y-34217480D01*
X18669340Y-34210445D01*
X18669962Y-34210804D01*
X18691792Y-34178131D01*
X19774905Y-33095019D01*
X19836228Y-33061534D01*
X19862586Y-33058700D01*
X24559113Y-33058700D01*
X24626152Y-33078385D01*
X24671907Y-33131189D01*
X24681851Y-33200347D01*
X24652826Y-33263903D01*
X24646794Y-33270381D01*
X22756561Y-35160613D01*
X22695238Y-35194098D01*
X22636787Y-35192707D01*
X22558573Y-35171750D01*
X22507257Y-35158000D01*
X22349143Y-35158000D01*
X22196416Y-35198923D01*
X22196409Y-35198926D01*
X22059490Y-35277975D01*
X22059482Y-35277981D01*
X21947681Y-35389782D01*
X21947675Y-35389790D01*
X21868626Y-35526709D01*
X21868623Y-35526716D01*
X21827700Y-35679443D01*
X21827700Y-35837557D01*
X21856489Y-35944997D01*
X21868623Y-35990283D01*
X21868626Y-35990290D01*
X21947675Y-36127209D01*
X21947679Y-36127214D01*
X21947680Y-36127216D01*
X22059484Y-36239020D01*
X22059486Y-36239021D01*
X22059490Y-36239024D01*
X22180694Y-36309000D01*
X22196416Y-36318077D01*
X22349143Y-36359000D01*
X22349145Y-36359000D01*
X22507255Y-36359000D01*
X22507257Y-36359000D01*
X22659984Y-36318077D01*
X22659985Y-36318076D01*
X22667835Y-36315973D01*
X22668020Y-36316665D01*
X22706563Y-36309000D01*
X23009672Y-36309000D01*
X23009674Y-36309000D01*
X23009675Y-36309000D01*
X23149685Y-36271484D01*
X23170992Y-36259181D01*
X23170996Y-36259181D01*
X23275208Y-36199014D01*
X23275207Y-36199014D01*
X23275215Y-36199010D01*
X26352910Y-33121315D01*
X26360512Y-33108148D01*
X26411078Y-33059931D01*
X26479685Y-33046707D01*
X26544550Y-33072674D01*
X26585079Y-33129587D01*
X26591900Y-33170146D01*
X26591900Y-33472437D01*
X26584234Y-33510979D01*
X26584927Y-33511165D01*
X26582823Y-33519014D01*
X26582823Y-33519016D01*
X26541900Y-33671743D01*
X26541900Y-33829857D01*
X26581061Y-33976006D01*
X26582823Y-33982583D01*
X26582826Y-33982590D01*
X26661875Y-34119509D01*
X26661879Y-34119514D01*
X26661880Y-34119516D01*
X26773684Y-34231320D01*
X26773686Y-34231321D01*
X26773690Y-34231324D01*
X26910609Y-34310373D01*
X26910616Y-34310377D01*
X27063343Y-34351300D01*
X27063345Y-34351300D01*
X27221455Y-34351300D01*
X27221457Y-34351300D01*
X27374184Y-34310377D01*
X27511116Y-34231320D01*
X27622920Y-34119516D01*
X27701977Y-33982584D01*
X27742900Y-33829857D01*
X27742900Y-33671743D01*
X27701977Y-33519016D01*
X27701976Y-33519014D01*
X27699873Y-33511165D01*
X27700565Y-33510979D01*
X27692900Y-33472437D01*
X27692900Y-33156734D01*
X27712585Y-33089695D01*
X27765389Y-33043940D01*
X27834547Y-33033996D01*
X27852026Y-33038791D01*
X27852165Y-33038273D01*
X27860014Y-33040376D01*
X27860016Y-33040377D01*
X28012743Y-33081300D01*
X28012745Y-33081300D01*
X28170854Y-33081300D01*
X28170857Y-33081300D01*
X28285109Y-33050686D01*
X28354956Y-33052349D01*
X28412819Y-33091511D01*
X28440323Y-33155739D01*
X28441200Y-33170461D01*
X28441200Y-33847512D01*
X28421515Y-33914551D01*
X28404881Y-33935193D01*
X23745067Y-38595006D01*
X23712394Y-38616840D01*
X23712753Y-38617461D01*
X23705718Y-38621522D01*
X23705716Y-38621523D01*
X23619528Y-38671282D01*
X23568785Y-38700579D01*
X23568782Y-38700581D01*
X23456981Y-38812382D01*
X23456975Y-38812390D01*
X23377926Y-38949309D01*
X23377923Y-38949316D01*
X23337000Y-39102043D01*
X23337000Y-39260156D01*
X23380027Y-39420736D01*
X23379332Y-39420922D01*
X23387000Y-39459462D01*
X23387000Y-41473212D01*
X23367315Y-41540251D01*
X23350681Y-41560893D01*
X20324881Y-44586693D01*
X20263558Y-44620178D01*
X20193866Y-44615194D01*
X20137933Y-44573322D01*
X20113516Y-44507858D01*
X20113200Y-44499012D01*
X20113200Y-40402727D01*
X20113200Y-40402725D01*
X20075684Y-40262715D01*
X20075569Y-40262515D01*
X20003210Y-40137185D01*
X13562395Y-33696370D01*
X13540562Y-33663695D01*
X13539941Y-33664054D01*
X13456824Y-33520090D01*
X13456818Y-33520082D01*
X13345017Y-33408281D01*
X13345009Y-33408275D01*
X13208090Y-33329226D01*
X13208086Y-33329224D01*
X13208084Y-33329223D01*
X13055357Y-33288300D01*
X12897243Y-33288300D01*
X12794093Y-33315939D01*
X12724243Y-33314276D01*
X12666381Y-33275113D01*
X12638877Y-33210885D01*
X12638000Y-33196164D01*
X12638000Y-27517762D01*
X12645667Y-27479222D01*
X12644973Y-27479036D01*
X12647077Y-27471184D01*
X12688000Y-27318457D01*
X12688000Y-27160343D01*
X12647077Y-27007616D01*
X12643248Y-27000984D01*
X12568024Y-26870690D01*
X12568018Y-26870682D01*
X12456217Y-26758881D01*
X12456209Y-26758875D01*
X12319290Y-26679826D01*
X12319286Y-26679824D01*
X12319284Y-26679823D01*
X12166557Y-26638900D01*
X12008443Y-26638900D01*
X11855716Y-26679823D01*
X11855709Y-26679826D01*
X11718790Y-26758875D01*
X11718782Y-26758881D01*
X11606981Y-26870682D01*
X11606975Y-26870690D01*
X11527926Y-27007609D01*
X11527923Y-27007616D01*
X11487000Y-27160343D01*
X11487000Y-27318456D01*
X11530027Y-27479036D01*
X11529332Y-27479222D01*
X11537000Y-27517762D01*
X11537000Y-45619113D01*
X11517315Y-45686152D01*
X11464511Y-45731907D01*
X11395353Y-45741851D01*
X11331797Y-45712826D01*
X11325319Y-45706794D01*
X4196019Y-38577494D01*
X4162534Y-38516171D01*
X4159700Y-38489813D01*
X4159700Y-25780856D01*
X4179385Y-25713817D01*
X4232189Y-25668062D01*
X4301347Y-25658118D01*
X4315780Y-25661078D01*
X4350943Y-25670500D01*
X4350946Y-25670500D01*
X4509055Y-25670500D01*
X4509057Y-25670500D01*
X4661784Y-25629577D01*
X4798716Y-25550520D01*
X4910520Y-25438716D01*
X4989577Y-25301784D01*
X4989577Y-25301780D01*
X4993640Y-25294745D01*
X4994262Y-25295104D01*
X5016092Y-25262431D01*
X9992806Y-20285719D01*
X10054129Y-20252234D01*
X10080487Y-20249400D01*
X12540160Y-20249400D01*
X12607199Y-20269085D01*
G37*
%TD.AperFunction*%
%TA.AperFunction,Conductor*%
G36*
X15722152Y-20269085D02*
G01*
X15742794Y-20285719D01*
X22468094Y-27011019D01*
X22501579Y-27072342D01*
X22496595Y-27142034D01*
X22454723Y-27197967D01*
X22389259Y-27222384D01*
X22380413Y-27222700D01*
X19858087Y-27222700D01*
X19791048Y-27203015D01*
X19770406Y-27186381D01*
X13842819Y-21258794D01*
X13809334Y-21197471D01*
X13806500Y-21171113D01*
X13806500Y-20779462D01*
X13814167Y-20740922D01*
X13813473Y-20740736D01*
X13815577Y-20732884D01*
X13856500Y-20580157D01*
X13856500Y-20422043D01*
X13852065Y-20405491D01*
X13853728Y-20335644D01*
X13892890Y-20277781D01*
X13957119Y-20250277D01*
X13971840Y-20249400D01*
X15655113Y-20249400D01*
X15722152Y-20269085D01*
G37*
%TD.AperFunction*%
%TA.AperFunction,Conductor*%
G36*
X62251920Y-38315472D02*
G01*
X62286277Y-38376311D01*
X62289500Y-38404397D01*
X62289500Y-44890664D01*
X62269815Y-44957703D01*
X62253181Y-44978345D01*
X56068345Y-51163181D01*
X56007022Y-51196666D01*
X55980664Y-51199500D01*
X55881989Y-51199500D01*
X55881983Y-51199500D01*
X55881979Y-51199501D01*
X55647989Y-51230306D01*
X55420006Y-51291394D01*
X55201954Y-51381714D01*
X55201943Y-51381719D01*
X54997545Y-51499730D01*
X54810302Y-51643406D01*
X54810295Y-51643412D01*
X54643412Y-51810295D01*
X54643406Y-51810302D01*
X54499730Y-51997545D01*
X54381719Y-52201943D01*
X54381714Y-52201954D01*
X54291394Y-52420006D01*
X54230306Y-52647989D01*
X54199501Y-52881979D01*
X54199500Y-52881995D01*
X54199500Y-52980663D01*
X54179815Y-53047702D01*
X54163181Y-53068344D01*
X52957145Y-54274381D01*
X52930217Y-54289084D01*
X52904399Y-54305677D01*
X52898198Y-54306568D01*
X52895822Y-54307866D01*
X52869464Y-54310700D01*
X52836289Y-54310700D01*
X52769250Y-54291015D01*
X52723495Y-54238211D01*
X52712931Y-54174097D01*
X52716108Y-54142997D01*
X52720500Y-54100009D01*
X52720499Y-51899992D01*
X52709999Y-51797203D01*
X52654814Y-51630666D01*
X52562712Y-51481344D01*
X52438656Y-51357288D01*
X52289334Y-51265186D01*
X52289328Y-51265184D01*
X52255494Y-51253972D01*
X52198050Y-51214199D01*
X52171228Y-51149683D01*
X52170500Y-51136267D01*
X52170500Y-48149335D01*
X52190185Y-48082296D01*
X52206814Y-48061659D01*
X61501476Y-38766996D01*
X61532858Y-38744196D01*
X61707816Y-38655051D01*
X61760431Y-38616824D01*
X61879786Y-38530109D01*
X61879788Y-38530106D01*
X61879792Y-38530104D01*
X62030104Y-38379792D01*
X62065181Y-38331511D01*
X62120511Y-38288846D01*
X62190124Y-38282867D01*
X62251920Y-38315472D01*
G37*
%TD.AperFunction*%
%TA.AperFunction,Conductor*%
G36*
X56637003Y-20287573D02*
G01*
X56643466Y-20293591D01*
X58287953Y-21938077D01*
X59893281Y-23543405D01*
X59926766Y-23604728D01*
X59929600Y-23631086D01*
X59929600Y-29924874D01*
X59954951Y-30019489D01*
X59967113Y-30064878D01*
X59967116Y-30064885D01*
X60039589Y-30190413D01*
X60039591Y-30190416D01*
X64906614Y-35057439D01*
X64940099Y-35118762D01*
X64941406Y-35125722D01*
X64957829Y-35229410D01*
X65013787Y-35401636D01*
X65013788Y-35401639D01*
X65096006Y-35562997D01*
X65202441Y-35709494D01*
X65202445Y-35709499D01*
X65202447Y-35709501D01*
X65330499Y-35837553D01*
X65477006Y-35943996D01*
X65477010Y-35943998D01*
X65478385Y-35944997D01*
X65521051Y-36000327D01*
X65529500Y-36045316D01*
X65529500Y-36414683D01*
X65509815Y-36481722D01*
X65478385Y-36515001D01*
X65330505Y-36622441D01*
X65330500Y-36622445D01*
X65202445Y-36750500D01*
X65202441Y-36750505D01*
X65096006Y-36897002D01*
X65029230Y-37028056D01*
X64981255Y-37078852D01*
X64913434Y-37095647D01*
X64847299Y-37073109D01*
X64803848Y-37018394D01*
X64800814Y-37010079D01*
X64791557Y-36981588D01*
X64695051Y-36792184D01*
X64695049Y-36792181D01*
X64695048Y-36792179D01*
X64570109Y-36620213D01*
X64419786Y-36469890D01*
X64247820Y-36344951D01*
X64058414Y-36248444D01*
X64058413Y-36248443D01*
X64058412Y-36248443D01*
X63856243Y-36182754D01*
X63856241Y-36182753D01*
X63856240Y-36182753D01*
X63694957Y-36157208D01*
X63646287Y-36149500D01*
X63433713Y-36149500D01*
X63385042Y-36157208D01*
X63223760Y-36182753D01*
X63223757Y-36182754D01*
X63111241Y-36219313D01*
X63021585Y-36248444D01*
X62832179Y-36344951D01*
X62660213Y-36469890D01*
X62509890Y-36620213D01*
X62384949Y-36792182D01*
X62380484Y-36800946D01*
X62332509Y-36851742D01*
X62264688Y-36868536D01*
X62198553Y-36845998D01*
X62159516Y-36800946D01*
X62155050Y-36792182D01*
X62030109Y-36620213D01*
X61879786Y-36469890D01*
X61707820Y-36344951D01*
X61518414Y-36248444D01*
X61518413Y-36248443D01*
X61518412Y-36248443D01*
X61316243Y-36182754D01*
X61316241Y-36182753D01*
X61316240Y-36182753D01*
X61154957Y-36157208D01*
X61106287Y-36149500D01*
X60893713Y-36149500D01*
X60823727Y-36160584D01*
X60683755Y-36182754D01*
X60683752Y-36182754D01*
X60571236Y-36219313D01*
X60501394Y-36221308D01*
X60445237Y-36189063D01*
X56468119Y-32211945D01*
X56434634Y-32150622D01*
X56431800Y-32124264D01*
X56431800Y-20381286D01*
X56451485Y-20314247D01*
X56504289Y-20268492D01*
X56573447Y-20258548D01*
X56637003Y-20287573D01*
G37*
%TD.AperFunction*%
%TA.AperFunction,Conductor*%
G36*
X73442539Y-520185D02*
G01*
X73488294Y-572989D01*
X73499500Y-624500D01*
X73499500Y-59375500D01*
X73479815Y-59442539D01*
X73427011Y-59488294D01*
X73375500Y-59499500D01*
X624500Y-59499500D01*
X557461Y-59479815D01*
X511706Y-59427011D01*
X500500Y-59375500D01*
X500500Y-55878711D01*
X2149500Y-55878711D01*
X2149500Y-56121288D01*
X2181161Y-56361785D01*
X2243947Y-56596104D01*
X2320496Y-56780909D01*
X2336776Y-56820212D01*
X2458064Y-57030289D01*
X2458066Y-57030292D01*
X2458067Y-57030293D01*
X2605733Y-57222736D01*
X2605739Y-57222743D01*
X2777256Y-57394260D01*
X2777262Y-57394265D01*
X2969711Y-57541936D01*
X3179788Y-57663224D01*
X3403900Y-57756054D01*
X3638211Y-57818838D01*
X3818586Y-57842584D01*
X3878711Y-57850500D01*
X3878712Y-57850500D01*
X4121289Y-57850500D01*
X4169388Y-57844167D01*
X4361789Y-57818838D01*
X4596100Y-57756054D01*
X4820212Y-57663224D01*
X5030289Y-57541936D01*
X5222738Y-57394265D01*
X5394265Y-57222738D01*
X5541936Y-57030289D01*
X5663224Y-56820212D01*
X5756054Y-56596100D01*
X5818838Y-56361789D01*
X5850500Y-56121288D01*
X5850500Y-55878712D01*
X5818838Y-55638211D01*
X5756054Y-55403900D01*
X5663224Y-55179788D01*
X5541936Y-54969711D01*
X5447494Y-54846631D01*
X5394266Y-54777263D01*
X5394260Y-54777256D01*
X5222743Y-54605739D01*
X5222736Y-54605733D01*
X5030293Y-54458067D01*
X5030292Y-54458066D01*
X5030289Y-54458064D01*
X4820212Y-54336776D01*
X4820205Y-54336773D01*
X4596104Y-54243947D01*
X4361785Y-54181161D01*
X4121289Y-54149500D01*
X4121288Y-54149500D01*
X3878712Y-54149500D01*
X3878711Y-54149500D01*
X3638214Y-54181161D01*
X3403895Y-54243947D01*
X3179794Y-54336773D01*
X3179785Y-54336777D01*
X2969706Y-54458067D01*
X2777263Y-54605733D01*
X2777256Y-54605739D01*
X2605739Y-54777256D01*
X2605733Y-54777263D01*
X2458067Y-54969706D01*
X2336777Y-55179785D01*
X2336773Y-55179794D01*
X2243947Y-55403895D01*
X2181161Y-55638214D01*
X2149500Y-55878711D01*
X500500Y-55878711D01*
X500500Y-21509343D01*
X3008700Y-21509343D01*
X3008700Y-21667457D01*
X3030071Y-21747216D01*
X3051727Y-21828036D01*
X3051032Y-21828222D01*
X3058700Y-21866762D01*
X3058700Y-38696726D01*
X3058700Y-38841674D01*
X3087541Y-38949309D01*
X3096216Y-38981685D01*
X3168689Y-39107213D01*
X3168691Y-39107216D01*
X17653181Y-53591706D01*
X17686666Y-53653029D01*
X17689500Y-53679387D01*
X17689500Y-54643102D01*
X17691790Y-54662170D01*
X17700122Y-54731561D01*
X17700122Y-54731563D01*
X17700123Y-54731564D01*
X17712086Y-54761900D01*
X17755639Y-54872343D01*
X17847077Y-54992922D01*
X17967656Y-55084360D01*
X17967657Y-55084360D01*
X17967658Y-55084361D01*
X18108436Y-55139877D01*
X18196898Y-55150500D01*
X18196903Y-55150500D01*
X19483097Y-55150500D01*
X19483102Y-55150500D01*
X19571564Y-55139877D01*
X19712342Y-55084361D01*
X19832922Y-54992922D01*
X19924361Y-54872342D01*
X19979877Y-54731564D01*
X19990500Y-54643102D01*
X19990500Y-54157131D01*
X20010185Y-54090092D01*
X20062989Y-54044337D01*
X20132147Y-54034393D01*
X20195703Y-54063418D01*
X20233477Y-54122196D01*
X20236973Y-54137733D01*
X20257829Y-54269410D01*
X20313787Y-54441636D01*
X20313788Y-54441639D01*
X20355752Y-54523996D01*
X20377604Y-54566883D01*
X20396006Y-54602997D01*
X20502441Y-54749494D01*
X20502445Y-54749499D01*
X20630500Y-54877554D01*
X20630505Y-54877558D01*
X20664896Y-54902544D01*
X20777006Y-54983996D01*
X20882484Y-55037740D01*
X20938360Y-55066211D01*
X20938363Y-55066212D01*
X21024476Y-55094191D01*
X21110591Y-55122171D01*
X21193429Y-55135291D01*
X21289449Y-55150500D01*
X21289454Y-55150500D01*
X21470550Y-55150500D01*
X21563390Y-55135794D01*
X21649409Y-55122171D01*
X21649412Y-55122169D01*
X21651091Y-55121904D01*
X21720385Y-55130858D01*
X21758171Y-55156696D01*
X23801185Y-57199710D01*
X23926715Y-57272184D01*
X24066725Y-57309700D01*
X24066726Y-57309700D01*
X24066728Y-57309700D01*
X30170972Y-57309700D01*
X30170974Y-57309700D01*
X30170975Y-57309700D01*
X30310985Y-57272184D01*
X30436515Y-57199710D01*
X34186777Y-53449448D01*
X37849500Y-53449448D01*
X37849500Y-53630551D01*
X37877829Y-53809410D01*
X37933787Y-53981636D01*
X37933788Y-53981639D01*
X37989049Y-54090092D01*
X38013323Y-54137733D01*
X38016006Y-54142997D01*
X38122441Y-54289494D01*
X38122445Y-54289499D01*
X38250500Y-54417554D01*
X38250505Y-54417558D01*
X38306262Y-54458067D01*
X38397006Y-54523996D01*
X38481176Y-54566883D01*
X38558360Y-54606211D01*
X38558363Y-54606212D01*
X38644476Y-54634191D01*
X38730591Y-54662171D01*
X38803639Y-54673740D01*
X38890678Y-54687527D01*
X38953813Y-54717456D01*
X38990744Y-54776768D01*
X38989746Y-54846631D01*
X38951136Y-54904863D01*
X38890678Y-54932473D01*
X38730589Y-54957829D01*
X38558363Y-55013787D01*
X38558360Y-55013788D01*
X38397002Y-55096006D01*
X38250505Y-55202441D01*
X38250500Y-55202445D01*
X38122445Y-55330500D01*
X38122441Y-55330505D01*
X38016006Y-55477002D01*
X37933788Y-55638360D01*
X37933787Y-55638363D01*
X37877829Y-55810589D01*
X37849500Y-55989448D01*
X37849500Y-56170551D01*
X37877829Y-56349410D01*
X37933787Y-56521636D01*
X37933788Y-56521639D01*
X38016006Y-56682997D01*
X38122441Y-56829494D01*
X38122445Y-56829499D01*
X38250500Y-56957554D01*
X38250505Y-56957558D01*
X38378287Y-57050396D01*
X38397006Y-57063996D01*
X38502484Y-57117740D01*
X38558360Y-57146211D01*
X38558363Y-57146212D01*
X38644476Y-57174191D01*
X38730591Y-57202171D01*
X38813429Y-57215291D01*
X38909449Y-57230500D01*
X38909454Y-57230500D01*
X39090551Y-57230500D01*
X39177259Y-57216765D01*
X39269409Y-57202171D01*
X39441639Y-57146211D01*
X39602994Y-57063996D01*
X39749501Y-56957553D01*
X39877553Y-56829501D01*
X39983996Y-56682994D01*
X40066211Y-56521639D01*
X40122171Y-56349409D01*
X40144457Y-56208700D01*
X40150500Y-56170551D01*
X40150500Y-55989448D01*
X40132960Y-55878711D01*
X40122171Y-55810591D01*
X40066211Y-55638361D01*
X40066211Y-55638360D01*
X40037740Y-55582484D01*
X39983996Y-55477006D01*
X39916739Y-55384434D01*
X39877558Y-55330505D01*
X39877554Y-55330500D01*
X39749499Y-55202445D01*
X39749494Y-55202441D01*
X39602997Y-55096006D01*
X39602996Y-55096005D01*
X39602994Y-55096004D01*
X39544522Y-55066211D01*
X39441639Y-55013788D01*
X39441636Y-55013787D01*
X39269410Y-54957829D01*
X39109321Y-54932473D01*
X39046186Y-54902544D01*
X39009255Y-54843232D01*
X39010253Y-54773370D01*
X39048863Y-54715137D01*
X39109321Y-54687527D01*
X39179425Y-54676422D01*
X39269409Y-54662171D01*
X39441639Y-54606211D01*
X39602994Y-54523996D01*
X39749501Y-54417553D01*
X39877553Y-54289501D01*
X39983996Y-54142994D01*
X40066211Y-53981639D01*
X40122171Y-53809409D01*
X40136765Y-53717259D01*
X40150500Y-53630551D01*
X40150500Y-53449457D01*
X40150499Y-53449448D01*
X40143780Y-53407029D01*
X40152734Y-53337740D01*
X40178572Y-53299953D01*
X40665510Y-52813015D01*
X40915510Y-52563015D01*
X41165510Y-52313015D01*
X41237984Y-52187485D01*
X41241463Y-52174501D01*
X41275500Y-52047475D01*
X41275500Y-51652525D01*
X41275500Y-51402525D01*
X41275500Y-51152525D01*
X41275500Y-50902525D01*
X41275500Y-50652525D01*
X41275500Y-50402525D01*
X41275500Y-50152525D01*
X41275500Y-49902525D01*
X41237984Y-49762515D01*
X41223821Y-49737984D01*
X41165510Y-49636985D01*
X40813015Y-49284490D01*
X40811819Y-49283294D01*
X40778334Y-49221971D01*
X40775500Y-49195613D01*
X40775500Y-42775477D01*
X47068000Y-42775477D01*
X47068000Y-54763722D01*
X47098790Y-54958126D01*
X47159617Y-55145330D01*
X47211948Y-55248034D01*
X47248976Y-55320705D01*
X47364672Y-55479946D01*
X48399754Y-56515028D01*
X48558995Y-56630724D01*
X48641854Y-56672942D01*
X48734369Y-56720082D01*
X48734371Y-56720082D01*
X48734374Y-56720084D01*
X48834718Y-56752687D01*
X48921573Y-56780909D01*
X49115978Y-56811700D01*
X49115983Y-56811700D01*
X53537222Y-56811700D01*
X53731626Y-56780909D01*
X53918826Y-56720084D01*
X54094205Y-56630724D01*
X54253446Y-56515028D01*
X54889763Y-55878711D01*
X68149500Y-55878711D01*
X68149500Y-56121288D01*
X68181161Y-56361785D01*
X68243947Y-56596104D01*
X68320496Y-56780909D01*
X68336776Y-56820212D01*
X68458064Y-57030289D01*
X68458066Y-57030292D01*
X68458067Y-57030293D01*
X68605733Y-57222736D01*
X68605739Y-57222743D01*
X68777256Y-57394260D01*
X68777262Y-57394265D01*
X68969711Y-57541936D01*
X69179788Y-57663224D01*
X69403900Y-57756054D01*
X69638211Y-57818838D01*
X69818586Y-57842584D01*
X69878711Y-57850500D01*
X69878712Y-57850500D01*
X70121289Y-57850500D01*
X70169388Y-57844167D01*
X70361789Y-57818838D01*
X70596100Y-57756054D01*
X70820212Y-57663224D01*
X71030289Y-57541936D01*
X71222738Y-57394265D01*
X71394265Y-57222738D01*
X71541936Y-57030289D01*
X71663224Y-56820212D01*
X71756054Y-56596100D01*
X71818838Y-56361789D01*
X71850500Y-56121288D01*
X71850500Y-55878712D01*
X71818838Y-55638211D01*
X71756054Y-55403900D01*
X71663224Y-55179788D01*
X71541936Y-54969711D01*
X71447494Y-54846631D01*
X71394266Y-54777263D01*
X71394260Y-54777256D01*
X71222743Y-54605739D01*
X71222736Y-54605733D01*
X71030293Y-54458067D01*
X71030292Y-54458066D01*
X71030289Y-54458064D01*
X70820212Y-54336776D01*
X70820205Y-54336773D01*
X70596104Y-54243947D01*
X70361785Y-54181161D01*
X70121289Y-54149500D01*
X70121288Y-54149500D01*
X69878712Y-54149500D01*
X69878711Y-54149500D01*
X69638214Y-54181161D01*
X69403895Y-54243947D01*
X69179794Y-54336773D01*
X69179785Y-54336777D01*
X68969706Y-54458067D01*
X68777263Y-54605733D01*
X68777256Y-54605739D01*
X68605739Y-54777256D01*
X68605733Y-54777263D01*
X68458067Y-54969706D01*
X68336777Y-55179785D01*
X68336773Y-55179794D01*
X68243947Y-55403895D01*
X68181161Y-55638214D01*
X68149500Y-55878711D01*
X54889763Y-55878711D01*
X55931656Y-54836819D01*
X55992979Y-54803334D01*
X56019337Y-54800500D01*
X56118004Y-54800500D01*
X56118011Y-54800500D01*
X56352014Y-54769693D01*
X56579993Y-54708606D01*
X56798049Y-54618284D01*
X57002450Y-54500273D01*
X57189699Y-54356592D01*
X57356592Y-54189699D01*
X57500273Y-54002450D01*
X57618284Y-53798049D01*
X57708606Y-53579993D01*
X57769693Y-53352014D01*
X57800500Y-53118011D01*
X57800500Y-53019336D01*
X57820185Y-52952297D01*
X57836819Y-52931655D01*
X61131491Y-49636983D01*
X64493828Y-46274646D01*
X64609524Y-46115405D01*
X64644233Y-46047284D01*
X64698884Y-45940025D01*
X64745202Y-45797475D01*
X64759709Y-45752827D01*
X64780887Y-45619113D01*
X64790500Y-45558422D01*
X64790500Y-38041306D01*
X64790868Y-38038981D01*
X64790550Y-38037771D01*
X64796567Y-38002994D01*
X64800812Y-37989927D01*
X64840247Y-37932249D01*
X64904604Y-37905048D01*
X64973451Y-37916959D01*
X65024929Y-37964200D01*
X65029230Y-37971944D01*
X65091335Y-38093831D01*
X65096006Y-38102997D01*
X65202441Y-38249494D01*
X65202445Y-38249499D01*
X65330500Y-38377554D01*
X65330505Y-38377558D01*
X65458287Y-38470396D01*
X65477006Y-38483996D01*
X65582484Y-38537740D01*
X65638360Y-38566211D01*
X65638363Y-38566212D01*
X65724476Y-38594191D01*
X65810591Y-38622171D01*
X65893429Y-38635291D01*
X65989449Y-38650500D01*
X65989454Y-38650500D01*
X66170551Y-38650500D01*
X66257259Y-38636765D01*
X66349409Y-38622171D01*
X66521639Y-38566211D01*
X66682994Y-38483996D01*
X66829501Y-38377553D01*
X66957553Y-38249501D01*
X67063996Y-38102994D01*
X67146211Y-37941639D01*
X67202171Y-37769409D01*
X67222690Y-37639856D01*
X67227527Y-37609321D01*
X67257456Y-37546186D01*
X67316768Y-37509255D01*
X67386630Y-37510253D01*
X67444863Y-37548863D01*
X67472473Y-37609321D01*
X67497829Y-37769410D01*
X67553787Y-37941636D01*
X67553788Y-37941639D01*
X67604572Y-38041306D01*
X67631335Y-38093831D01*
X67636006Y-38102997D01*
X67742441Y-38249494D01*
X67742445Y-38249499D01*
X67870500Y-38377554D01*
X67870505Y-38377558D01*
X67998287Y-38470396D01*
X68017006Y-38483996D01*
X68122484Y-38537740D01*
X68178360Y-38566211D01*
X68178363Y-38566212D01*
X68264476Y-38594191D01*
X68350591Y-38622171D01*
X68433429Y-38635291D01*
X68529449Y-38650500D01*
X68529454Y-38650500D01*
X68710551Y-38650500D01*
X68797259Y-38636765D01*
X68889409Y-38622171D01*
X69061639Y-38566211D01*
X69222994Y-38483996D01*
X69369501Y-38377553D01*
X69497553Y-38249501D01*
X69603996Y-38102994D01*
X69686211Y-37941639D01*
X69742171Y-37769409D01*
X69762690Y-37639856D01*
X69767527Y-37609321D01*
X69797456Y-37546186D01*
X69856768Y-37509255D01*
X69926630Y-37510253D01*
X69984863Y-37548863D01*
X70012473Y-37609321D01*
X70037829Y-37769410D01*
X70093787Y-37941636D01*
X70093788Y-37941639D01*
X70144572Y-38041306D01*
X70171335Y-38093831D01*
X70176006Y-38102997D01*
X70282441Y-38249494D01*
X70282445Y-38249499D01*
X70410500Y-38377554D01*
X70410505Y-38377558D01*
X70538287Y-38470396D01*
X70557006Y-38483996D01*
X70662484Y-38537740D01*
X70718360Y-38566211D01*
X70718363Y-38566212D01*
X70804476Y-38594191D01*
X70890591Y-38622171D01*
X70973429Y-38635291D01*
X71069449Y-38650500D01*
X71069454Y-38650500D01*
X71250551Y-38650500D01*
X71337259Y-38636765D01*
X71429409Y-38622171D01*
X71601639Y-38566211D01*
X71762994Y-38483996D01*
X71909501Y-38377553D01*
X72037553Y-38249501D01*
X72143996Y-38102994D01*
X72226211Y-37941639D01*
X72282171Y-37769409D01*
X72302690Y-37639856D01*
X72310500Y-37590551D01*
X72310500Y-37409448D01*
X72293049Y-37299273D01*
X72282171Y-37230591D01*
X72226211Y-37058361D01*
X72226211Y-37058360D01*
X72184812Y-36977112D01*
X72143996Y-36897006D01*
X72087145Y-36818757D01*
X72037558Y-36750505D01*
X72037554Y-36750500D01*
X71909499Y-36622445D01*
X71909494Y-36622441D01*
X71762997Y-36516006D01*
X71762996Y-36516005D01*
X71762994Y-36516004D01*
X71672491Y-36469890D01*
X71601639Y-36433788D01*
X71601636Y-36433787D01*
X71429410Y-36377829D01*
X71269321Y-36352473D01*
X71206186Y-36322544D01*
X71169255Y-36263232D01*
X71170253Y-36193370D01*
X71208863Y-36135137D01*
X71269321Y-36107527D01*
X71339425Y-36096422D01*
X71429409Y-36082171D01*
X71601639Y-36026211D01*
X71762994Y-35943996D01*
X71909501Y-35837553D01*
X72037553Y-35709501D01*
X72143996Y-35562994D01*
X72226211Y-35401639D01*
X72282171Y-35229409D01*
X72304896Y-35085929D01*
X72310500Y-35050551D01*
X72310500Y-34869448D01*
X72287387Y-34723525D01*
X72282171Y-34690591D01*
X72240178Y-34561348D01*
X72226212Y-34518363D01*
X72226211Y-34518360D01*
X72167189Y-34402525D01*
X72143996Y-34357006D01*
X72112035Y-34313015D01*
X72037558Y-34210505D01*
X72037554Y-34210500D01*
X71909499Y-34082445D01*
X71909494Y-34082441D01*
X71761615Y-33975001D01*
X71718949Y-33919671D01*
X71710500Y-33874683D01*
X71710500Y-22553527D01*
X71710500Y-22553525D01*
X71672984Y-22413515D01*
X71600510Y-22287985D01*
X70498595Y-21186070D01*
X70476762Y-21153395D01*
X70476141Y-21153754D01*
X70393024Y-21009790D01*
X70393018Y-21009782D01*
X70281217Y-20897981D01*
X70281209Y-20897975D01*
X70144290Y-20818926D01*
X70144286Y-20818924D01*
X70144284Y-20818923D01*
X69991557Y-20778000D01*
X69833443Y-20778000D01*
X69680716Y-20818923D01*
X69680709Y-20818926D01*
X69543790Y-20897975D01*
X69543782Y-20897981D01*
X69431981Y-21009782D01*
X69431975Y-21009790D01*
X69352926Y-21146709D01*
X69352923Y-21146716D01*
X69312000Y-21299443D01*
X69312000Y-21457557D01*
X69335899Y-21546747D01*
X69352923Y-21610283D01*
X69352926Y-21610290D01*
X69431975Y-21747209D01*
X69431979Y-21747214D01*
X69431980Y-21747216D01*
X69543784Y-21859020D01*
X69543786Y-21859021D01*
X69543790Y-21859024D01*
X69687754Y-21942141D01*
X69687395Y-21942762D01*
X69720070Y-21964595D01*
X70573181Y-22817706D01*
X70606666Y-22879029D01*
X70609500Y-22905387D01*
X70609500Y-33874683D01*
X70589815Y-33941722D01*
X70558385Y-33975001D01*
X70410505Y-34082441D01*
X70410500Y-34082445D01*
X70282445Y-34210500D01*
X70282441Y-34210505D01*
X70176006Y-34357002D01*
X70093788Y-34518360D01*
X70093787Y-34518363D01*
X70037829Y-34690589D01*
X70012473Y-34850678D01*
X69982544Y-34913813D01*
X69923232Y-34950744D01*
X69853369Y-34949746D01*
X69795137Y-34911136D01*
X69767527Y-34850678D01*
X69747387Y-34723525D01*
X69742171Y-34690591D01*
X69700178Y-34561348D01*
X69686212Y-34518363D01*
X69686211Y-34518360D01*
X69627189Y-34402525D01*
X69603996Y-34357006D01*
X69572035Y-34313015D01*
X69497558Y-34210505D01*
X69497554Y-34210500D01*
X69369499Y-34082445D01*
X69369494Y-34082441D01*
X69222997Y-33976006D01*
X69222996Y-33976005D01*
X69222994Y-33976004D01*
X69155712Y-33941722D01*
X69061639Y-33893788D01*
X69061636Y-33893787D01*
X68889410Y-33837829D01*
X68710551Y-33809500D01*
X68710546Y-33809500D01*
X68529454Y-33809500D01*
X68529449Y-33809500D01*
X68350589Y-33837829D01*
X68178363Y-33893787D01*
X68178360Y-33893788D01*
X68017002Y-33976006D01*
X67870505Y-34082441D01*
X67870500Y-34082445D01*
X67742445Y-34210500D01*
X67742441Y-34210505D01*
X67636006Y-34357002D01*
X67553788Y-34518360D01*
X67553787Y-34518363D01*
X67497829Y-34690589D01*
X67472473Y-34850678D01*
X67442544Y-34913813D01*
X67383232Y-34950744D01*
X67313369Y-34949746D01*
X67255137Y-34911136D01*
X67227527Y-34850678D01*
X67207387Y-34723525D01*
X67202171Y-34690591D01*
X67160178Y-34561348D01*
X67146212Y-34518363D01*
X67146211Y-34518360D01*
X67087189Y-34402525D01*
X67063996Y-34357006D01*
X67032035Y-34313015D01*
X66957558Y-34210505D01*
X66957554Y-34210500D01*
X66829499Y-34082445D01*
X66829494Y-34082441D01*
X66682997Y-33976006D01*
X66682996Y-33976005D01*
X66682994Y-33976004D01*
X66615712Y-33941722D01*
X66521639Y-33893788D01*
X66521636Y-33893787D01*
X66349410Y-33837829D01*
X66170551Y-33809500D01*
X66170546Y-33809500D01*
X65989454Y-33809500D01*
X65989449Y-33809500D01*
X65810589Y-33837829D01*
X65638363Y-33893787D01*
X65638360Y-33893789D01*
X65494491Y-33967094D01*
X65425821Y-33979990D01*
X65361081Y-33953714D01*
X65350515Y-33944290D01*
X63199561Y-31793336D01*
X63166076Y-31732013D01*
X63171060Y-31662321D01*
X63199557Y-31617978D01*
X63310020Y-31507516D01*
X63389077Y-31370584D01*
X63389077Y-31370581D01*
X63393140Y-31363545D01*
X63393762Y-31363904D01*
X63415592Y-31331231D01*
X64683810Y-30063015D01*
X64756284Y-29937485D01*
X64759667Y-29924860D01*
X64766593Y-29899012D01*
X64766593Y-29899010D01*
X64777047Y-29859996D01*
X64793800Y-29797475D01*
X64793800Y-27047562D01*
X64801467Y-27009022D01*
X64800773Y-27008836D01*
X64802877Y-27000984D01*
X64843800Y-26848257D01*
X64843800Y-26690143D01*
X64802877Y-26537416D01*
X64802876Y-26537414D01*
X64800773Y-26529565D01*
X64801465Y-26529379D01*
X64793800Y-26490837D01*
X64793800Y-21613786D01*
X64813485Y-21546747D01*
X64866289Y-21500992D01*
X64935447Y-21491048D01*
X64949879Y-21494008D01*
X64981943Y-21502600D01*
X64981945Y-21502600D01*
X65140055Y-21502600D01*
X65140057Y-21502600D01*
X65292784Y-21461677D01*
X65292785Y-21461676D01*
X65300635Y-21459573D01*
X65300820Y-21460265D01*
X65339363Y-21452600D01*
X66494313Y-21452600D01*
X66561352Y-21472285D01*
X66581994Y-21488919D01*
X68476405Y-23383330D01*
X68498237Y-23416005D01*
X68498859Y-23415646D01*
X68581977Y-23559612D01*
X68581979Y-23559615D01*
X68581980Y-23559616D01*
X68693784Y-23671420D01*
X68693786Y-23671421D01*
X68693790Y-23671424D01*
X68745919Y-23701520D01*
X68830716Y-23750477D01*
X68983443Y-23791400D01*
X68983445Y-23791400D01*
X69141555Y-23791400D01*
X69141557Y-23791400D01*
X69294284Y-23750477D01*
X69431216Y-23671420D01*
X69543020Y-23559616D01*
X69622077Y-23422684D01*
X69663000Y-23269957D01*
X69663000Y-23111843D01*
X69622077Y-22959116D01*
X69587140Y-22898602D01*
X69543024Y-22822190D01*
X69543018Y-22822182D01*
X69431217Y-22710381D01*
X69431212Y-22710377D01*
X69287246Y-22627259D01*
X69287605Y-22626637D01*
X69254930Y-22604805D01*
X67111716Y-20461591D01*
X67111715Y-20461590D01*
X66986185Y-20389116D01*
X66986186Y-20389116D01*
X66948637Y-20379055D01*
X66846175Y-20351600D01*
X66846172Y-20351600D01*
X65339363Y-20351600D01*
X65300820Y-20343934D01*
X65300635Y-20344627D01*
X65292785Y-20342523D01*
X65292784Y-20342523D01*
X65140057Y-20301600D01*
X64981943Y-20301600D01*
X64949892Y-20310187D01*
X64880043Y-20308525D01*
X64822181Y-20269362D01*
X64794677Y-20205134D01*
X64793800Y-20190413D01*
X64793800Y-17494562D01*
X64801467Y-17456022D01*
X64800773Y-17455836D01*
X64806647Y-17433913D01*
X64843800Y-17295257D01*
X64843800Y-17137143D01*
X64802877Y-16984416D01*
X64798139Y-16976209D01*
X64723824Y-16847490D01*
X64723818Y-16847482D01*
X64612017Y-16735681D01*
X64612009Y-16735675D01*
X64475090Y-16656626D01*
X64475086Y-16656624D01*
X64475084Y-16656623D01*
X64322357Y-16615700D01*
X64164243Y-16615700D01*
X64011516Y-16656623D01*
X64011509Y-16656626D01*
X63874590Y-16735675D01*
X63874582Y-16735681D01*
X63762781Y-16847482D01*
X63762775Y-16847490D01*
X63683726Y-16984409D01*
X63683723Y-16984416D01*
X63642800Y-17137143D01*
X63642800Y-17295257D01*
X63662743Y-17369685D01*
X63685827Y-17455836D01*
X63685132Y-17456022D01*
X63692800Y-17494562D01*
X63692800Y-26490837D01*
X63685134Y-26529379D01*
X63685827Y-26529565D01*
X63683723Y-26537414D01*
X63683723Y-26537416D01*
X63642800Y-26690143D01*
X63642800Y-26848257D01*
X63648811Y-26870690D01*
X63685827Y-27008836D01*
X63685132Y-27009022D01*
X63692800Y-27047562D01*
X63692800Y-29445612D01*
X63673115Y-29512651D01*
X63656481Y-29533293D01*
X62637067Y-30552706D01*
X62604394Y-30574540D01*
X62604753Y-30575161D01*
X62597718Y-30579222D01*
X62597716Y-30579223D01*
X62535824Y-30614955D01*
X62460786Y-30658278D01*
X62350325Y-30768739D01*
X62289002Y-30802223D01*
X62219310Y-30797239D01*
X62174963Y-30768738D01*
X61066919Y-29660694D01*
X61033434Y-29599371D01*
X61030600Y-29573013D01*
X61030600Y-23279227D01*
X61030600Y-23279225D01*
X60993084Y-23139215D01*
X60951108Y-23066510D01*
X60920610Y-23013686D01*
X59145075Y-21238151D01*
X57340695Y-19433770D01*
X57318862Y-19401095D01*
X57318241Y-19401454D01*
X57235124Y-19257490D01*
X57235118Y-19257482D01*
X57123317Y-19145681D01*
X57123309Y-19145675D01*
X56986390Y-19066626D01*
X56986386Y-19066624D01*
X56986384Y-19066623D01*
X56833657Y-19025700D01*
X56675543Y-19025700D01*
X56587891Y-19049185D01*
X56518044Y-19047523D01*
X56460181Y-19008360D01*
X56432677Y-18944132D01*
X56431800Y-18929411D01*
X56431800Y-17128943D01*
X61312000Y-17128943D01*
X61312000Y-17287056D01*
X61355027Y-17447636D01*
X61354332Y-17447822D01*
X61362000Y-17486362D01*
X61362000Y-22942637D01*
X61354334Y-22981179D01*
X61355027Y-22981365D01*
X61352923Y-22989214D01*
X61352923Y-22989216D01*
X61312000Y-23141943D01*
X61312000Y-23300057D01*
X61344860Y-23422690D01*
X61352923Y-23452783D01*
X61352926Y-23452790D01*
X61431975Y-23589709D01*
X61431979Y-23589714D01*
X61431980Y-23589716D01*
X61543784Y-23701520D01*
X61543786Y-23701521D01*
X61543790Y-23701524D01*
X61680709Y-23780573D01*
X61680716Y-23780577D01*
X61833443Y-23821500D01*
X61833445Y-23821500D01*
X61991555Y-23821500D01*
X61991557Y-23821500D01*
X62144284Y-23780577D01*
X62281216Y-23701520D01*
X62393020Y-23589716D01*
X62472077Y-23452784D01*
X62513000Y-23300057D01*
X62513000Y-23141943D01*
X62472077Y-22989216D01*
X62472076Y-22989214D01*
X62469973Y-22981365D01*
X62470665Y-22981179D01*
X62463000Y-22942637D01*
X62463000Y-17486362D01*
X62470667Y-17447822D01*
X62469973Y-17447636D01*
X62473650Y-17433913D01*
X62513000Y-17287057D01*
X62513000Y-17128943D01*
X62472077Y-16976216D01*
X62397758Y-16847490D01*
X62393024Y-16839290D01*
X62393018Y-16839282D01*
X62281217Y-16727481D01*
X62281209Y-16727475D01*
X62144290Y-16648426D01*
X62144286Y-16648424D01*
X62144284Y-16648423D01*
X61991557Y-16607500D01*
X61833443Y-16607500D01*
X61680716Y-16648423D01*
X61680709Y-16648426D01*
X61543790Y-16727475D01*
X61543782Y-16727481D01*
X61431981Y-16839282D01*
X61431975Y-16839290D01*
X61352926Y-16976209D01*
X61352923Y-16976216D01*
X61312000Y-17128943D01*
X56431800Y-17128943D01*
X56431800Y-8924499D01*
X56451485Y-8857460D01*
X56504289Y-8811705D01*
X56555800Y-8800499D01*
X57100002Y-8800499D01*
X57100008Y-8800499D01*
X57202797Y-8789999D01*
X57369334Y-8734814D01*
X57518656Y-8642712D01*
X57642712Y-8518656D01*
X57734814Y-8369334D01*
X57789999Y-8202797D01*
X57800500Y-8100009D01*
X57800499Y-5899992D01*
X57789999Y-5797203D01*
X57734814Y-5630666D01*
X57642712Y-5481344D01*
X57518656Y-5357288D01*
X57369334Y-5265186D01*
X57202797Y-5210001D01*
X57202795Y-5210000D01*
X57100010Y-5199500D01*
X54899998Y-5199500D01*
X54899981Y-5199501D01*
X54797203Y-5210000D01*
X54797200Y-5210001D01*
X54630668Y-5265185D01*
X54630663Y-5265187D01*
X54481342Y-5357289D01*
X54357289Y-5481342D01*
X54265187Y-5630663D01*
X54265185Y-5630668D01*
X54237349Y-5714670D01*
X54210001Y-5797203D01*
X54210001Y-5797204D01*
X54210000Y-5797204D01*
X54199500Y-5899983D01*
X54199500Y-7002263D01*
X54179815Y-7069302D01*
X54175818Y-7075148D01*
X54111778Y-7163291D01*
X54022417Y-7338671D01*
X54022416Y-7338673D01*
X54022416Y-7338674D01*
X53976488Y-7480026D01*
X53969180Y-7502514D01*
X53961590Y-7525875D01*
X53930800Y-7720277D01*
X53930800Y-32792022D01*
X53961590Y-32986426D01*
X54022417Y-33173630D01*
X54101698Y-33329226D01*
X54111776Y-33349005D01*
X54227472Y-33508246D01*
X54227474Y-33508248D01*
X58637695Y-37918469D01*
X58671180Y-37979792D01*
X58666196Y-38049484D01*
X58637695Y-38093831D01*
X49966174Y-46765351D01*
X49966174Y-46765352D01*
X49966172Y-46765354D01*
X49952110Y-46784709D01*
X49850476Y-46924594D01*
X49803485Y-47016820D01*
X49755510Y-47067616D01*
X49687689Y-47084411D01*
X49621554Y-47061874D01*
X49578103Y-47007158D01*
X49569000Y-46960525D01*
X49569000Y-43443236D01*
X49588685Y-43376197D01*
X49605319Y-43355555D01*
X50677291Y-42283583D01*
X51873829Y-41087045D01*
X51989524Y-40927805D01*
X52078884Y-40752426D01*
X52139709Y-40565226D01*
X52146001Y-40525500D01*
X52151943Y-40487983D01*
X52170500Y-40370822D01*
X52170500Y-8347153D01*
X52190185Y-8280114D01*
X52206814Y-8259476D01*
X52276592Y-8189699D01*
X52420273Y-8002450D01*
X52538284Y-7798049D01*
X52628606Y-7579993D01*
X52689693Y-7352014D01*
X52720500Y-7118011D01*
X52720500Y-6881989D01*
X52689693Y-6647986D01*
X52628606Y-6420007D01*
X52538284Y-6201951D01*
X52538282Y-6201948D01*
X52538280Y-6201943D01*
X52496118Y-6128918D01*
X52420273Y-5997550D01*
X52276592Y-5810301D01*
X52276587Y-5810295D01*
X52109704Y-5643412D01*
X52109697Y-5643406D01*
X51922454Y-5499730D01*
X51922453Y-5499729D01*
X51922450Y-5499727D01*
X51840957Y-5452677D01*
X51718056Y-5381719D01*
X51718045Y-5381714D01*
X51499993Y-5291394D01*
X51272010Y-5230306D01*
X51038020Y-5199501D01*
X51038017Y-5199500D01*
X51038011Y-5199500D01*
X50801989Y-5199500D01*
X50801983Y-5199500D01*
X50801979Y-5199501D01*
X50567989Y-5230306D01*
X50340006Y-5291394D01*
X50121954Y-5381714D01*
X50121943Y-5381719D01*
X49917545Y-5499730D01*
X49730302Y-5643406D01*
X49730295Y-5643412D01*
X49563412Y-5810295D01*
X49563406Y-5810302D01*
X49419730Y-5997545D01*
X49301719Y-6201943D01*
X49301714Y-6201954D01*
X49211394Y-6420006D01*
X49150306Y-6647989D01*
X49119501Y-6881979D01*
X49119500Y-6881995D01*
X49119500Y-7118004D01*
X49119501Y-7118020D01*
X49150306Y-7352010D01*
X49211394Y-7579993D01*
X49301714Y-7798045D01*
X49301719Y-7798056D01*
X49358789Y-7896903D01*
X49419727Y-8002450D01*
X49419729Y-8002453D01*
X49419730Y-8002454D01*
X49563405Y-8189696D01*
X49563407Y-8189698D01*
X49563408Y-8189699D01*
X49633182Y-8259473D01*
X49666666Y-8320794D01*
X49669500Y-8347153D01*
X49669500Y-39703064D01*
X49649815Y-39770103D01*
X49633181Y-39790745D01*
X47364674Y-42059251D01*
X47364674Y-42059252D01*
X47364672Y-42059254D01*
X47341887Y-42090615D01*
X47248976Y-42218494D01*
X47159615Y-42393873D01*
X47159614Y-42393876D01*
X47134362Y-42471598D01*
X47098790Y-42581076D01*
X47098790Y-42581077D01*
X47068000Y-42775477D01*
X40775500Y-42775477D01*
X40775500Y-40652527D01*
X40775500Y-40652525D01*
X40737984Y-40512515D01*
X40723821Y-40487984D01*
X40665510Y-40386985D01*
X40561819Y-40283294D01*
X40528334Y-40221971D01*
X40525500Y-40195613D01*
X40525500Y-31902527D01*
X40525500Y-31902525D01*
X40487984Y-31762515D01*
X40474581Y-31739300D01*
X40415510Y-31636985D01*
X40311095Y-31532570D01*
X40289262Y-31499895D01*
X40288641Y-31500254D01*
X40205524Y-31356290D01*
X40205518Y-31356282D01*
X40093717Y-31244481D01*
X40093709Y-31244475D01*
X39956790Y-31165426D01*
X39956786Y-31165424D01*
X39956784Y-31165423D01*
X39804057Y-31124500D01*
X39645943Y-31124500D01*
X39493216Y-31165423D01*
X39493209Y-31165426D01*
X39356290Y-31244475D01*
X39356282Y-31244481D01*
X39244481Y-31356282D01*
X39244475Y-31356290D01*
X39165426Y-31493209D01*
X39165423Y-31493216D01*
X39124500Y-31645943D01*
X39124500Y-31804057D01*
X39163615Y-31950034D01*
X39165423Y-31956783D01*
X39165426Y-31956790D01*
X39244475Y-32093709D01*
X39244481Y-32093717D01*
X39356284Y-32205520D01*
X39362499Y-32209108D01*
X39410715Y-32259675D01*
X39424500Y-32316496D01*
X39424500Y-32402525D01*
X39424500Y-32652525D01*
X39424500Y-32902525D01*
X39424500Y-33152525D01*
X39424500Y-33402525D01*
X39424500Y-33652525D01*
X39424500Y-33902525D01*
X39424500Y-34152525D01*
X39424500Y-34402525D01*
X39424500Y-34652525D01*
X39424500Y-34902525D01*
X39424500Y-35152525D01*
X39424500Y-35402525D01*
X39424500Y-35652525D01*
X39424500Y-35902525D01*
X39424500Y-36152525D01*
X39424500Y-36402525D01*
X39424500Y-36652525D01*
X39424500Y-36902525D01*
X39424500Y-37152525D01*
X39424500Y-37402525D01*
X39424500Y-37652525D01*
X39424500Y-37902525D01*
X39424500Y-38152525D01*
X39424500Y-38402525D01*
X39424500Y-38652525D01*
X39424500Y-38902525D01*
X39424500Y-39152525D01*
X39424500Y-39402525D01*
X39424500Y-39652525D01*
X39424500Y-39902525D01*
X39424500Y-40152525D01*
X39424500Y-40547475D01*
X39450070Y-40642900D01*
X39458536Y-40674496D01*
X39458536Y-40674497D01*
X39461036Y-40683826D01*
X39462016Y-40687485D01*
X39499509Y-40752426D01*
X39534489Y-40813014D01*
X39638181Y-40916706D01*
X39671666Y-40978029D01*
X39674500Y-41004387D01*
X39674500Y-41152525D01*
X39674500Y-41402525D01*
X39674500Y-41652525D01*
X39674500Y-41902525D01*
X39674500Y-42152525D01*
X39674500Y-42402525D01*
X39674500Y-42652525D01*
X39674500Y-42902525D01*
X39674500Y-43152525D01*
X39674500Y-43402525D01*
X39674500Y-43652525D01*
X39674500Y-43902525D01*
X39674500Y-44152525D01*
X39674500Y-44402525D01*
X39674500Y-44652525D01*
X39674500Y-44902525D01*
X39674500Y-45152525D01*
X39674500Y-45402525D01*
X39674500Y-45652525D01*
X39674500Y-45902525D01*
X39674500Y-46152525D01*
X39674500Y-46402525D01*
X39674500Y-46652525D01*
X39674500Y-46902525D01*
X39674500Y-47152525D01*
X39674500Y-47402525D01*
X39674500Y-47652525D01*
X39674500Y-47902525D01*
X39674500Y-48152525D01*
X39674500Y-48402525D01*
X39674500Y-48652525D01*
X39674500Y-48902525D01*
X39674500Y-49152525D01*
X39674500Y-49547475D01*
X39708537Y-49674500D01*
X39712016Y-49687485D01*
X39755332Y-49762512D01*
X39784489Y-49813014D01*
X40138181Y-50166706D01*
X40171666Y-50228029D01*
X40174500Y-50254387D01*
X40174500Y-51695613D01*
X40154815Y-51762652D01*
X40138181Y-51783294D01*
X39636987Y-52284487D01*
X39636986Y-52284489D01*
X39636985Y-52284490D01*
X39531974Y-52389500D01*
X39499933Y-52421541D01*
X39438609Y-52455025D01*
X39373935Y-52451790D01*
X39269411Y-52417829D01*
X39269412Y-52417829D01*
X39090551Y-52389500D01*
X39090546Y-52389500D01*
X38909454Y-52389500D01*
X38909449Y-52389500D01*
X38730589Y-52417829D01*
X38558363Y-52473787D01*
X38558360Y-52473788D01*
X38397002Y-52556006D01*
X38250505Y-52662441D01*
X38250500Y-52662445D01*
X38122445Y-52790500D01*
X38122441Y-52790505D01*
X38016006Y-52937002D01*
X37933788Y-53098360D01*
X37933787Y-53098363D01*
X37877829Y-53270589D01*
X37849500Y-53449448D01*
X34186777Y-53449448D01*
X38539910Y-49096315D01*
X38612384Y-48970785D01*
X38634838Y-48886985D01*
X38649900Y-48830775D01*
X38649900Y-29110943D01*
X40627600Y-29110943D01*
X40627600Y-29269057D01*
X40668434Y-29421449D01*
X40668523Y-29421783D01*
X40668526Y-29421790D01*
X40747575Y-29558709D01*
X40747579Y-29558714D01*
X40747580Y-29558716D01*
X40859384Y-29670520D01*
X40859385Y-29670521D01*
X40859387Y-29670522D01*
X40981151Y-29740822D01*
X41029366Y-29791389D01*
X41042590Y-29859996D01*
X41016622Y-29924860D01*
X40981152Y-29955596D01*
X40939784Y-29979479D01*
X40827981Y-30091282D01*
X40827975Y-30091290D01*
X40748926Y-30228209D01*
X40748923Y-30228216D01*
X40708000Y-30380943D01*
X40708000Y-30539057D01*
X40725824Y-30605575D01*
X40748923Y-30691783D01*
X40748926Y-30691790D01*
X40827975Y-30828709D01*
X40827979Y-30828714D01*
X40827980Y-30828716D01*
X40939784Y-30940520D01*
X40939786Y-30940521D01*
X40939790Y-30940524D01*
X41083754Y-31023641D01*
X41083395Y-31024262D01*
X41116070Y-31046095D01*
X41308081Y-31238106D01*
X41341566Y-31299429D01*
X41344400Y-31325787D01*
X41344400Y-41773437D01*
X41336734Y-41811979D01*
X41337427Y-41812165D01*
X41335323Y-41820014D01*
X41335323Y-41820016D01*
X41294400Y-41972743D01*
X41294400Y-42130857D01*
X41317883Y-42218495D01*
X41335323Y-42283583D01*
X41335326Y-42283590D01*
X41414375Y-42420509D01*
X41414379Y-42420514D01*
X41414380Y-42420516D01*
X41526184Y-42532320D01*
X41526186Y-42532321D01*
X41526190Y-42532324D01*
X41610634Y-42581077D01*
X41663116Y-42611377D01*
X41815843Y-42652300D01*
X41815845Y-42652300D01*
X41973954Y-42652300D01*
X41973957Y-42652300D01*
X42126684Y-42611377D01*
X42263616Y-42532320D01*
X42375420Y-42420516D01*
X42454477Y-42283584D01*
X42495400Y-42130857D01*
X42495400Y-41972743D01*
X42454477Y-41820016D01*
X42454476Y-41820014D01*
X42452373Y-41812165D01*
X42453065Y-41811979D01*
X42445400Y-41773437D01*
X42445400Y-31485187D01*
X42465085Y-31418148D01*
X42517889Y-31372393D01*
X42587047Y-31362449D01*
X42650603Y-31391474D01*
X42657081Y-31397506D01*
X43588181Y-32328606D01*
X43621666Y-32389929D01*
X43624500Y-32416287D01*
X43624500Y-36461337D01*
X43616834Y-36499879D01*
X43617527Y-36500065D01*
X43615423Y-36507914D01*
X43615423Y-36507916D01*
X43574500Y-36660643D01*
X43574500Y-36818757D01*
X43595777Y-36898162D01*
X43615423Y-36971483D01*
X43615426Y-36971490D01*
X43694475Y-37108409D01*
X43694479Y-37108414D01*
X43694480Y-37108416D01*
X43806284Y-37220220D01*
X43806286Y-37220221D01*
X43806290Y-37220224D01*
X43914048Y-37282437D01*
X43943216Y-37299277D01*
X44095943Y-37340200D01*
X44095945Y-37340200D01*
X44254055Y-37340200D01*
X44254057Y-37340200D01*
X44406784Y-37299277D01*
X44543716Y-37220220D01*
X44655520Y-37108416D01*
X44734577Y-36971484D01*
X44775500Y-36818757D01*
X44775500Y-36660643D01*
X44734577Y-36507916D01*
X44734576Y-36507914D01*
X44732473Y-36500065D01*
X44733165Y-36499879D01*
X44725500Y-36461337D01*
X44725500Y-32064427D01*
X44725500Y-32064425D01*
X44687984Y-31924415D01*
X44678334Y-31907700D01*
X44678334Y-31907699D01*
X44615512Y-31798888D01*
X44615508Y-31798883D01*
X41814195Y-28997570D01*
X41792362Y-28964895D01*
X41791741Y-28965254D01*
X41708624Y-28821290D01*
X41708618Y-28821282D01*
X41596817Y-28709481D01*
X41596809Y-28709475D01*
X41459890Y-28630426D01*
X41459886Y-28630424D01*
X41459884Y-28630423D01*
X41307157Y-28589500D01*
X41149043Y-28589500D01*
X40996316Y-28630423D01*
X40996309Y-28630426D01*
X40859390Y-28709475D01*
X40859382Y-28709481D01*
X40747581Y-28821282D01*
X40747575Y-28821290D01*
X40668526Y-28958209D01*
X40668523Y-28958216D01*
X40627600Y-29110943D01*
X38649900Y-29110943D01*
X38649900Y-28360143D01*
X42604200Y-28360143D01*
X42604200Y-28518257D01*
X42623290Y-28589500D01*
X42645123Y-28670983D01*
X42645126Y-28670990D01*
X42724175Y-28807909D01*
X42724179Y-28807914D01*
X42724180Y-28807916D01*
X42835984Y-28919720D01*
X42835986Y-28919721D01*
X42835990Y-28919724D01*
X42979954Y-29002841D01*
X42979595Y-29003462D01*
X43012270Y-29025295D01*
X43356885Y-29369910D01*
X43482415Y-29442384D01*
X43622425Y-29479900D01*
X45275337Y-29479900D01*
X45313879Y-29487565D01*
X45314065Y-29486873D01*
X45321914Y-29488976D01*
X45321916Y-29488977D01*
X45474643Y-29529900D01*
X45474645Y-29529900D01*
X45632755Y-29529900D01*
X45632757Y-29529900D01*
X45785484Y-29488977D01*
X45922416Y-29409920D01*
X46034220Y-29298116D01*
X46113277Y-29161184D01*
X46154200Y-29008457D01*
X46154200Y-28850343D01*
X46113277Y-28697616D01*
X46074485Y-28630426D01*
X46034224Y-28560690D01*
X46034218Y-28560682D01*
X45922417Y-28448881D01*
X45922409Y-28448875D01*
X45785490Y-28369826D01*
X45785486Y-28369824D01*
X45785484Y-28369823D01*
X45632757Y-28328900D01*
X45474643Y-28328900D01*
X45321916Y-28369823D01*
X45321914Y-28369823D01*
X45314065Y-28371927D01*
X45313879Y-28371234D01*
X45275337Y-28378900D01*
X43974287Y-28378900D01*
X43944846Y-28370255D01*
X43914860Y-28363732D01*
X43909844Y-28359977D01*
X43907248Y-28359215D01*
X43886606Y-28342581D01*
X43790795Y-28246770D01*
X43768962Y-28214095D01*
X43768341Y-28214454D01*
X43685224Y-28070490D01*
X43685218Y-28070482D01*
X43573417Y-27958681D01*
X43573409Y-27958675D01*
X43436490Y-27879626D01*
X43436486Y-27879624D01*
X43436484Y-27879623D01*
X43283757Y-27838700D01*
X43125643Y-27838700D01*
X42972916Y-27879623D01*
X42972909Y-27879626D01*
X42835990Y-27958675D01*
X42835982Y-27958681D01*
X42724181Y-28070482D01*
X42724175Y-28070490D01*
X42645126Y-28207409D01*
X42645123Y-28207416D01*
X42604200Y-28360143D01*
X38649900Y-28360143D01*
X38649900Y-24227787D01*
X38669585Y-24160748D01*
X38722389Y-24114993D01*
X38791547Y-24105049D01*
X38855103Y-24134074D01*
X38861581Y-24140106D01*
X39638905Y-24917430D01*
X39660737Y-24950105D01*
X39661359Y-24949746D01*
X39744477Y-25093712D01*
X39744479Y-25093715D01*
X39744480Y-25093716D01*
X39856284Y-25205520D01*
X39856286Y-25205521D01*
X39856290Y-25205524D01*
X39954852Y-25262428D01*
X39993216Y-25284577D01*
X40145943Y-25325500D01*
X40145945Y-25325500D01*
X40304055Y-25325500D01*
X40304057Y-25325500D01*
X40456784Y-25284577D01*
X40593716Y-25205520D01*
X40705520Y-25093716D01*
X40784577Y-24956784D01*
X40825500Y-24804057D01*
X40825500Y-24645943D01*
X40784577Y-24493216D01*
X40718401Y-24378594D01*
X40705524Y-24356290D01*
X40705518Y-24356282D01*
X40593717Y-24244481D01*
X40593712Y-24244477D01*
X40449746Y-24161359D01*
X40450105Y-24160737D01*
X40417430Y-24138905D01*
X39561095Y-23282570D01*
X39539262Y-23249895D01*
X39538641Y-23250254D01*
X39455524Y-23106290D01*
X39455518Y-23106282D01*
X39343717Y-22994481D01*
X39343709Y-22994475D01*
X39206790Y-22915426D01*
X39206786Y-22915424D01*
X39206784Y-22915423D01*
X39054057Y-22874500D01*
X38895943Y-22874500D01*
X38805993Y-22898602D01*
X38736143Y-22896939D01*
X38678281Y-22857776D01*
X38650777Y-22793548D01*
X38649900Y-22778827D01*
X38649900Y-20578362D01*
X38657567Y-20539822D01*
X38656873Y-20539636D01*
X38658977Y-20531784D01*
X38699900Y-20379057D01*
X38699900Y-20220943D01*
X38658977Y-20068216D01*
X38635483Y-20027523D01*
X38579924Y-19931290D01*
X38579918Y-19931282D01*
X38468117Y-19819481D01*
X38468109Y-19819475D01*
X38331190Y-19740426D01*
X38331186Y-19740424D01*
X38331184Y-19740423D01*
X38178457Y-19699500D01*
X38020343Y-19699500D01*
X37867616Y-19740423D01*
X37867609Y-19740426D01*
X37730690Y-19819475D01*
X37730682Y-19819481D01*
X37618881Y-19931282D01*
X37618877Y-19931287D01*
X37598787Y-19966085D01*
X37548220Y-20014301D01*
X37479613Y-20027523D01*
X37414748Y-20001555D01*
X37374220Y-19944641D01*
X37367400Y-19904085D01*
X37367400Y-16017185D01*
X37387085Y-15950146D01*
X37403715Y-15929508D01*
X37711029Y-15622193D01*
X37743703Y-15600364D01*
X37743344Y-15599742D01*
X37831696Y-15548731D01*
X37887316Y-15516620D01*
X37999120Y-15404816D01*
X38078177Y-15267884D01*
X38119100Y-15115157D01*
X38119100Y-14957043D01*
X38078177Y-14804316D01*
X38000320Y-14669462D01*
X37999124Y-14667390D01*
X37999118Y-14667382D01*
X37887317Y-14555581D01*
X37887309Y-14555575D01*
X37750390Y-14476526D01*
X37750386Y-14476524D01*
X37750384Y-14476523D01*
X37597657Y-14435600D01*
X37439543Y-14435600D01*
X37286816Y-14476523D01*
X37286809Y-14476526D01*
X37149890Y-14555575D01*
X37149882Y-14555581D01*
X37038081Y-14667382D01*
X37038077Y-14667387D01*
X36954959Y-14811354D01*
X36954337Y-14810995D01*
X36932505Y-14843669D01*
X36376391Y-15399783D01*
X36376387Y-15399788D01*
X36313112Y-15509386D01*
X36303918Y-15525310D01*
X36303916Y-15525313D01*
X36285158Y-15595320D01*
X36266400Y-15665325D01*
X36266400Y-15665327D01*
X36266400Y-41807030D01*
X36246715Y-41874069D01*
X36193911Y-41919824D01*
X36124753Y-41929768D01*
X36080401Y-41914418D01*
X35940284Y-41833523D01*
X35787557Y-41792600D01*
X35629443Y-41792600D01*
X35476716Y-41833523D01*
X35476709Y-41833526D01*
X35339790Y-41912575D01*
X35339782Y-41912581D01*
X35227981Y-42024382D01*
X35227975Y-42024390D01*
X35148926Y-42161309D01*
X35148923Y-42161316D01*
X35108000Y-42314043D01*
X35108000Y-42472156D01*
X35151027Y-42632736D01*
X35150332Y-42632922D01*
X35158000Y-42671462D01*
X35158000Y-47366637D01*
X35150334Y-47405179D01*
X35151027Y-47405365D01*
X35108000Y-47565943D01*
X35108000Y-47724056D01*
X35148923Y-47876783D01*
X35148926Y-47876790D01*
X35227975Y-48013709D01*
X35227979Y-48013714D01*
X35227980Y-48013716D01*
X35339784Y-48125520D01*
X35339786Y-48125521D01*
X35339790Y-48125524D01*
X35386558Y-48152525D01*
X35476716Y-48204577D01*
X35629443Y-48245500D01*
X35629445Y-48245500D01*
X35787555Y-48245500D01*
X35787557Y-48245500D01*
X35940284Y-48204577D01*
X36030442Y-48152525D01*
X36080401Y-48123682D01*
X36148301Y-48107209D01*
X36214328Y-48130062D01*
X36257518Y-48184983D01*
X36266400Y-48231069D01*
X36266400Y-48764013D01*
X36246715Y-48831052D01*
X36230081Y-48851694D01*
X31977181Y-53104594D01*
X31915858Y-53138079D01*
X31846166Y-53133095D01*
X31790233Y-53091223D01*
X31765816Y-53025759D01*
X31765500Y-53016913D01*
X31765500Y-45203462D01*
X31773167Y-45164922D01*
X31772473Y-45164736D01*
X31775745Y-45152525D01*
X31815500Y-45004157D01*
X31815500Y-44846043D01*
X31774577Y-44693316D01*
X31729474Y-44615194D01*
X31695524Y-44556390D01*
X31695518Y-44556382D01*
X31583717Y-44444581D01*
X31583709Y-44444575D01*
X31446790Y-44365526D01*
X31446786Y-44365524D01*
X31446784Y-44365523D01*
X31294057Y-44324600D01*
X31135943Y-44324600D01*
X31135940Y-44324600D01*
X31128989Y-44326463D01*
X31059139Y-44324798D01*
X31001278Y-44285633D01*
X30973776Y-44221403D01*
X30972900Y-44206687D01*
X30972900Y-39970362D01*
X30980567Y-39931822D01*
X30979873Y-39931636D01*
X30987673Y-39902525D01*
X31022900Y-39771057D01*
X31022900Y-39612943D01*
X30981977Y-39460216D01*
X30981976Y-39460214D01*
X30979873Y-39452365D01*
X30980565Y-39452179D01*
X30972900Y-39413637D01*
X30972900Y-35265463D01*
X30992585Y-35198424D01*
X31045389Y-35152669D01*
X31114547Y-35142725D01*
X31178103Y-35171750D01*
X31215877Y-35230528D01*
X31216675Y-35233370D01*
X31221823Y-35252583D01*
X31221826Y-35252590D01*
X31300875Y-35389509D01*
X31300879Y-35389514D01*
X31300880Y-35389516D01*
X31412684Y-35501320D01*
X31412686Y-35501321D01*
X31412690Y-35501324D01*
X31549609Y-35580373D01*
X31549616Y-35580377D01*
X31702343Y-35621300D01*
X31702345Y-35621300D01*
X31860455Y-35621300D01*
X31860457Y-35621300D01*
X32013184Y-35580377D01*
X32150116Y-35501320D01*
X32261920Y-35389516D01*
X32340977Y-35252584D01*
X32340977Y-35252580D01*
X32345040Y-35245545D01*
X32345662Y-35245904D01*
X32367492Y-35213231D01*
X32645520Y-34935204D01*
X32706842Y-34901720D01*
X32776534Y-34906704D01*
X32832467Y-34948576D01*
X32856884Y-35014040D01*
X32857200Y-35022886D01*
X32857200Y-36012437D01*
X32849534Y-36050979D01*
X32850227Y-36051165D01*
X32848123Y-36059014D01*
X32848123Y-36059016D01*
X32807200Y-36211743D01*
X32807200Y-36369857D01*
X32846361Y-36516006D01*
X32848123Y-36522583D01*
X32848126Y-36522590D01*
X32927175Y-36659509D01*
X32927179Y-36659514D01*
X32927180Y-36659516D01*
X33038984Y-36771320D01*
X33038986Y-36771321D01*
X33038990Y-36771324D01*
X33121146Y-36818756D01*
X33175916Y-36850377D01*
X33328643Y-36891300D01*
X33328645Y-36891300D01*
X33486754Y-36891300D01*
X33486757Y-36891300D01*
X33613508Y-36857337D01*
X33683356Y-36859000D01*
X33741219Y-36898162D01*
X33768723Y-36962391D01*
X33769600Y-36977112D01*
X33769600Y-37282437D01*
X33761934Y-37320979D01*
X33762627Y-37321165D01*
X33760523Y-37329014D01*
X33760523Y-37329016D01*
X33719600Y-37481743D01*
X33719600Y-37639857D01*
X33754314Y-37769409D01*
X33760523Y-37792583D01*
X33760526Y-37792590D01*
X33839575Y-37929509D01*
X33839579Y-37929514D01*
X33839580Y-37929516D01*
X33951384Y-38041320D01*
X33951386Y-38041321D01*
X33951390Y-38041324D01*
X34088309Y-38120373D01*
X34088316Y-38120377D01*
X34241043Y-38161300D01*
X34241045Y-38161300D01*
X34399155Y-38161300D01*
X34399157Y-38161300D01*
X34551884Y-38120377D01*
X34688816Y-38041320D01*
X34800620Y-37929516D01*
X34879677Y-37792584D01*
X34920600Y-37639857D01*
X34920600Y-37481743D01*
X34879677Y-37329016D01*
X34879676Y-37329014D01*
X34877573Y-37321165D01*
X34878265Y-37320979D01*
X34870600Y-37282437D01*
X34870600Y-29386027D01*
X34870600Y-29386025D01*
X34833084Y-29246015D01*
X34784107Y-29161184D01*
X34760610Y-29120485D01*
X33457719Y-27817594D01*
X33424234Y-27756271D01*
X33421400Y-27729913D01*
X33421400Y-18680127D01*
X33421400Y-18680125D01*
X33383884Y-18540115D01*
X33383880Y-18540108D01*
X33359627Y-18498099D01*
X33359627Y-18498100D01*
X33311410Y-18414586D01*
X32751995Y-17855170D01*
X32730162Y-17822495D01*
X32729541Y-17822854D01*
X32646424Y-17678890D01*
X32646418Y-17678882D01*
X32534617Y-17567081D01*
X32534609Y-17567075D01*
X32397690Y-17488026D01*
X32397686Y-17488024D01*
X32397684Y-17488023D01*
X32244957Y-17447100D01*
X32086843Y-17447100D01*
X31983693Y-17474739D01*
X31913843Y-17473076D01*
X31855981Y-17433913D01*
X31828477Y-17369685D01*
X31827600Y-17354964D01*
X31827600Y-16681785D01*
X31836244Y-16652344D01*
X31842768Y-16622358D01*
X31846522Y-16617342D01*
X31847285Y-16614746D01*
X31863910Y-16594113D01*
X32024531Y-16433491D01*
X32057203Y-16411664D01*
X32056844Y-16411042D01*
X32145196Y-16360031D01*
X32200816Y-16327920D01*
X32312620Y-16216116D01*
X32391677Y-16079184D01*
X32432600Y-15926457D01*
X32432600Y-15768343D01*
X32391677Y-15615616D01*
X32380165Y-15595677D01*
X32312624Y-15478690D01*
X32312618Y-15478682D01*
X32200817Y-15366881D01*
X32200809Y-15366875D01*
X32063890Y-15287826D01*
X32063886Y-15287824D01*
X32063884Y-15287823D01*
X31911157Y-15246900D01*
X31753043Y-15246900D01*
X31600316Y-15287823D01*
X31600309Y-15287826D01*
X31463390Y-15366875D01*
X31463382Y-15366881D01*
X31351581Y-15478682D01*
X31351577Y-15478687D01*
X31268459Y-15622654D01*
X31268086Y-15622439D01*
X31267157Y-15626714D01*
X31246006Y-15654969D01*
X31184579Y-15716395D01*
X31123259Y-15749879D01*
X31053567Y-15744895D01*
X30997633Y-15703024D01*
X30973216Y-15637560D01*
X30972900Y-15628713D01*
X30972900Y-14312043D01*
X34060600Y-14312043D01*
X34060600Y-14470156D01*
X34103627Y-14630736D01*
X34102932Y-14630922D01*
X34110600Y-14669462D01*
X34110600Y-25537437D01*
X34102934Y-25575979D01*
X34103627Y-25576165D01*
X34101523Y-25584014D01*
X34101523Y-25584016D01*
X34080874Y-25661081D01*
X34060600Y-25736743D01*
X34060600Y-25894856D01*
X34101523Y-26047583D01*
X34101526Y-26047590D01*
X34180575Y-26184509D01*
X34180579Y-26184514D01*
X34180580Y-26184516D01*
X34292384Y-26296320D01*
X34292386Y-26296321D01*
X34292390Y-26296324D01*
X34429309Y-26375373D01*
X34429316Y-26375377D01*
X34582043Y-26416300D01*
X34582045Y-26416300D01*
X34740155Y-26416300D01*
X34740157Y-26416300D01*
X34892884Y-26375377D01*
X35029816Y-26296320D01*
X35141620Y-26184516D01*
X35220677Y-26047584D01*
X35261600Y-25894857D01*
X35261600Y-25736743D01*
X35220677Y-25584016D01*
X35220676Y-25584014D01*
X35218573Y-25576165D01*
X35219265Y-25575979D01*
X35211600Y-25537437D01*
X35211600Y-14669462D01*
X35219267Y-14630922D01*
X35218573Y-14630736D01*
X35220677Y-14622884D01*
X35261600Y-14470157D01*
X35261600Y-14312043D01*
X35220677Y-14159316D01*
X35220673Y-14159309D01*
X35141624Y-14022390D01*
X35141618Y-14022382D01*
X35029817Y-13910581D01*
X35029809Y-13910575D01*
X34892890Y-13831526D01*
X34892886Y-13831524D01*
X34892884Y-13831523D01*
X34740157Y-13790600D01*
X34582043Y-13790600D01*
X34429316Y-13831523D01*
X34429309Y-13831526D01*
X34292390Y-13910575D01*
X34292382Y-13910581D01*
X34180581Y-14022382D01*
X34180575Y-14022390D01*
X34101526Y-14159309D01*
X34101523Y-14159316D01*
X34060600Y-14312043D01*
X30972900Y-14312043D01*
X30972900Y-9889927D01*
X30972900Y-9889925D01*
X30972556Y-9888643D01*
X46749100Y-9888643D01*
X46749100Y-10046756D01*
X46792127Y-10207336D01*
X46791432Y-10207522D01*
X46799100Y-10246062D01*
X46799100Y-36517337D01*
X46791434Y-36555879D01*
X46792127Y-36556065D01*
X46790023Y-36563914D01*
X46790023Y-36563916D01*
X46749100Y-36716643D01*
X46749100Y-36874757D01*
X46787588Y-37018394D01*
X46790023Y-37027483D01*
X46790026Y-37027490D01*
X46869075Y-37164409D01*
X46869079Y-37164414D01*
X46869080Y-37164416D01*
X46980884Y-37276220D01*
X46980886Y-37276221D01*
X46980890Y-37276224D01*
X47117809Y-37355273D01*
X47117816Y-37355277D01*
X47270543Y-37396200D01*
X47270545Y-37396200D01*
X47428655Y-37396200D01*
X47428657Y-37396200D01*
X47581384Y-37355277D01*
X47718316Y-37276220D01*
X47830120Y-37164416D01*
X47909177Y-37027484D01*
X47950100Y-36874757D01*
X47950100Y-36716643D01*
X47909177Y-36563916D01*
X47909176Y-36563914D01*
X47907073Y-36556065D01*
X47907765Y-36555879D01*
X47900100Y-36517337D01*
X47900100Y-10246062D01*
X47907767Y-10207522D01*
X47907073Y-10207336D01*
X47921336Y-10154106D01*
X47950100Y-10046757D01*
X47950100Y-9888643D01*
X47909177Y-9735916D01*
X47886534Y-9696696D01*
X47830124Y-9598990D01*
X47830118Y-9598982D01*
X47718317Y-9487181D01*
X47718309Y-9487175D01*
X47581390Y-9408126D01*
X47581386Y-9408124D01*
X47581384Y-9408123D01*
X47428657Y-9367200D01*
X47270543Y-9367200D01*
X47117816Y-9408123D01*
X47117809Y-9408126D01*
X46980890Y-9487175D01*
X46980882Y-9487181D01*
X46869081Y-9598982D01*
X46869075Y-9598990D01*
X46790026Y-9735909D01*
X46790023Y-9735916D01*
X46749100Y-9888643D01*
X30972556Y-9888643D01*
X30935384Y-9749915D01*
X30901081Y-9690500D01*
X30862910Y-9624385D01*
X30156696Y-8918171D01*
X30123211Y-8856848D01*
X30121904Y-8811091D01*
X30122169Y-8809412D01*
X30122171Y-8809409D01*
X30139954Y-8697131D01*
X30150500Y-8630550D01*
X30150500Y-8449448D01*
X30123679Y-8280114D01*
X30122171Y-8270591D01*
X30066749Y-8100016D01*
X30066212Y-8098363D01*
X30066211Y-8098360D01*
X30037740Y-8042484D01*
X29983996Y-7937006D01*
X29954856Y-7896898D01*
X29877558Y-7790505D01*
X29877554Y-7790500D01*
X29749499Y-7662445D01*
X29749494Y-7662441D01*
X29602997Y-7556006D01*
X29602996Y-7556005D01*
X29602994Y-7556004D01*
X29543861Y-7525874D01*
X29441639Y-7473788D01*
X29441636Y-7473787D01*
X29269410Y-7417829D01*
X29090551Y-7389500D01*
X29090546Y-7389500D01*
X28909454Y-7389500D01*
X28909449Y-7389500D01*
X28730589Y-7417829D01*
X28558363Y-7473787D01*
X28558360Y-7473788D01*
X28397002Y-7556006D01*
X28250505Y-7662441D01*
X28250500Y-7662445D01*
X28122445Y-7790500D01*
X28122441Y-7790505D01*
X28016006Y-7937002D01*
X27933788Y-8098360D01*
X27933787Y-8098363D01*
X27877829Y-8270589D01*
X27852473Y-8430678D01*
X27822544Y-8493813D01*
X27763232Y-8530744D01*
X27693369Y-8529746D01*
X27635137Y-8491136D01*
X27607527Y-8430678D01*
X27583679Y-8280114D01*
X27582171Y-8270591D01*
X27526749Y-8100016D01*
X27526212Y-8098363D01*
X27526211Y-8098360D01*
X27497740Y-8042484D01*
X27443996Y-7937006D01*
X27414856Y-7896898D01*
X27337558Y-7790505D01*
X27337554Y-7790500D01*
X27209499Y-7662445D01*
X27209494Y-7662441D01*
X27062997Y-7556006D01*
X27062996Y-7556005D01*
X27062994Y-7556004D01*
X27003861Y-7525874D01*
X26901639Y-7473788D01*
X26901636Y-7473787D01*
X26729410Y-7417829D01*
X26550551Y-7389500D01*
X26550546Y-7389500D01*
X26369454Y-7389500D01*
X26369449Y-7389500D01*
X26190589Y-7417829D01*
X26018363Y-7473787D01*
X26018360Y-7473788D01*
X25857002Y-7556006D01*
X25710505Y-7662441D01*
X25710500Y-7662445D01*
X25582445Y-7790500D01*
X25582441Y-7790505D01*
X25476006Y-7937002D01*
X25393788Y-8098360D01*
X25393787Y-8098363D01*
X25337829Y-8270589D01*
X25312473Y-8430678D01*
X25282544Y-8493813D01*
X25223232Y-8530744D01*
X25153369Y-8529746D01*
X25095137Y-8491136D01*
X25067527Y-8430678D01*
X25043679Y-8280114D01*
X25042171Y-8270591D01*
X24986749Y-8100016D01*
X24986212Y-8098363D01*
X24986211Y-8098360D01*
X24957740Y-8042484D01*
X24903996Y-7937006D01*
X24874856Y-7896898D01*
X24797558Y-7790505D01*
X24797554Y-7790500D01*
X24669499Y-7662445D01*
X24669494Y-7662441D01*
X24522997Y-7556006D01*
X24522996Y-7556005D01*
X24522994Y-7556004D01*
X24463861Y-7525874D01*
X24361639Y-7473788D01*
X24361636Y-7473787D01*
X24189410Y-7417829D01*
X24010551Y-7389500D01*
X24010546Y-7389500D01*
X23829454Y-7389500D01*
X23829449Y-7389500D01*
X23650589Y-7417829D01*
X23478363Y-7473787D01*
X23478360Y-7473788D01*
X23317002Y-7556006D01*
X23170505Y-7662441D01*
X23170500Y-7662445D01*
X23042445Y-7790500D01*
X23042441Y-7790505D01*
X22936006Y-7937002D01*
X22853788Y-8098360D01*
X22853787Y-8098363D01*
X22797829Y-8270589D01*
X22772473Y-8430678D01*
X22742544Y-8493813D01*
X22683232Y-8530744D01*
X22613369Y-8529746D01*
X22555137Y-8491136D01*
X22527527Y-8430678D01*
X22503679Y-8280114D01*
X22502171Y-8270591D01*
X22446749Y-8100016D01*
X22446212Y-8098363D01*
X22446211Y-8098360D01*
X22417740Y-8042484D01*
X22363996Y-7937006D01*
X22334856Y-7896898D01*
X22257558Y-7790505D01*
X22257554Y-7790500D01*
X22129499Y-7662445D01*
X22129494Y-7662441D01*
X21982997Y-7556006D01*
X21982996Y-7556005D01*
X21982994Y-7556004D01*
X21923861Y-7525874D01*
X21821639Y-7473788D01*
X21821636Y-7473787D01*
X21649410Y-7417829D01*
X21470551Y-7389500D01*
X21470546Y-7389500D01*
X21289454Y-7389500D01*
X21289449Y-7389500D01*
X21110589Y-7417829D01*
X20938363Y-7473787D01*
X20938360Y-7473788D01*
X20777002Y-7556006D01*
X20630505Y-7662441D01*
X20630500Y-7662445D01*
X20502445Y-7790500D01*
X20502441Y-7790505D01*
X20396006Y-7937002D01*
X20313788Y-8098360D01*
X20313787Y-8098363D01*
X20257829Y-8270589D01*
X20236973Y-8402266D01*
X20207044Y-8465401D01*
X20147732Y-8502332D01*
X20077869Y-8501334D01*
X20019637Y-8462724D01*
X19991523Y-8398760D01*
X19990500Y-8382868D01*
X19990500Y-7896903D01*
X19990500Y-7896898D01*
X19979877Y-7808436D01*
X19924361Y-7667658D01*
X19924360Y-7667657D01*
X19924360Y-7667656D01*
X19832922Y-7547077D01*
X19712343Y-7455639D01*
X19571561Y-7400122D01*
X19525926Y-7394642D01*
X19483102Y-7389500D01*
X18196898Y-7389500D01*
X18157853Y-7394188D01*
X18108438Y-7400122D01*
X17967656Y-7455639D01*
X17847077Y-7547077D01*
X17755639Y-7667656D01*
X17700122Y-7808438D01*
X17694188Y-7857853D01*
X17689500Y-7896898D01*
X17689500Y-9183102D01*
X17695126Y-9229954D01*
X17700122Y-9271561D01*
X17700122Y-9271563D01*
X17700123Y-9271564D01*
X17717722Y-9316192D01*
X17755639Y-9412343D01*
X17847077Y-9532922D01*
X17967656Y-9624360D01*
X17967657Y-9624360D01*
X17967658Y-9624361D01*
X18108436Y-9679877D01*
X18196898Y-9690500D01*
X18196903Y-9690500D01*
X19483097Y-9690500D01*
X19483102Y-9690500D01*
X19571564Y-9679877D01*
X19712342Y-9624361D01*
X19832922Y-9532922D01*
X19924361Y-9412342D01*
X19979877Y-9271564D01*
X19990500Y-9183102D01*
X19990500Y-8697131D01*
X20010185Y-8630092D01*
X20062989Y-8584337D01*
X20132147Y-8574393D01*
X20195703Y-8603418D01*
X20233477Y-8662196D01*
X20236973Y-8677733D01*
X20257829Y-8809410D01*
X20313787Y-8981636D01*
X20313788Y-8981639D01*
X20396006Y-9142997D01*
X20502441Y-9289494D01*
X20502445Y-9289499D01*
X20630500Y-9417554D01*
X20630505Y-9417558D01*
X20726326Y-9487175D01*
X20777006Y-9523996D01*
X20882484Y-9577740D01*
X20938360Y-9606211D01*
X20938363Y-9606212D01*
X21024476Y-9634191D01*
X21110591Y-9662171D01*
X21193429Y-9675291D01*
X21289449Y-9690500D01*
X21289454Y-9690500D01*
X21470551Y-9690500D01*
X21557259Y-9676765D01*
X21649409Y-9662171D01*
X21821639Y-9606211D01*
X21982994Y-9523996D01*
X22129501Y-9417553D01*
X22257553Y-9289501D01*
X22363996Y-9142994D01*
X22446211Y-8981639D01*
X22502171Y-8809409D01*
X22519954Y-8697131D01*
X22527527Y-8649321D01*
X22557456Y-8586186D01*
X22616768Y-8549255D01*
X22686630Y-8550253D01*
X22744863Y-8588863D01*
X22772473Y-8649321D01*
X22797829Y-8809410D01*
X22853787Y-8981636D01*
X22853788Y-8981639D01*
X22936006Y-9142997D01*
X23042441Y-9289494D01*
X23042445Y-9289499D01*
X23170500Y-9417554D01*
X23170505Y-9417558D01*
X23266326Y-9487175D01*
X23317006Y-9523996D01*
X23422484Y-9577740D01*
X23478360Y-9606211D01*
X23478363Y-9606212D01*
X23564476Y-9634191D01*
X23650591Y-9662171D01*
X23733429Y-9675291D01*
X23829449Y-9690500D01*
X23829454Y-9690500D01*
X24010551Y-9690500D01*
X24097259Y-9676765D01*
X24189409Y-9662171D01*
X24361639Y-9606211D01*
X24522994Y-9523996D01*
X24669501Y-9417553D01*
X24797553Y-9289501D01*
X24903996Y-9142994D01*
X24986211Y-8981639D01*
X25042171Y-8809409D01*
X25059954Y-8697131D01*
X25067527Y-8649321D01*
X25097456Y-8586186D01*
X25156768Y-8549255D01*
X25226630Y-8550253D01*
X25284863Y-8588863D01*
X25312473Y-8649321D01*
X25337829Y-8809410D01*
X25393787Y-8981636D01*
X25393788Y-8981639D01*
X25476006Y-9142997D01*
X25582441Y-9289494D01*
X25582445Y-9289499D01*
X25710500Y-9417554D01*
X25710505Y-9417558D01*
X25806326Y-9487175D01*
X25857006Y-9523996D01*
X25962484Y-9577740D01*
X26018360Y-9606211D01*
X26018363Y-9606212D01*
X26104476Y-9634191D01*
X26190591Y-9662171D01*
X26273429Y-9675291D01*
X26369449Y-9690500D01*
X26369454Y-9690500D01*
X26550551Y-9690500D01*
X26637259Y-9676765D01*
X26729409Y-9662171D01*
X26901639Y-9606211D01*
X27062994Y-9523996D01*
X27209501Y-9417553D01*
X27337553Y-9289501D01*
X27443996Y-9142994D01*
X27526211Y-8981639D01*
X27582171Y-8809409D01*
X27599954Y-8697131D01*
X27607527Y-8649321D01*
X27637456Y-8586186D01*
X27696768Y-8549255D01*
X27766630Y-8550253D01*
X27824863Y-8588863D01*
X27852473Y-8649321D01*
X27877829Y-8809410D01*
X27933787Y-8981636D01*
X27933788Y-8981639D01*
X28016006Y-9142997D01*
X28122441Y-9289494D01*
X28122445Y-9289499D01*
X28250500Y-9417554D01*
X28250505Y-9417558D01*
X28346326Y-9487175D01*
X28397006Y-9523996D01*
X28502484Y-9577740D01*
X28558360Y-9606211D01*
X28558363Y-9606212D01*
X28644476Y-9634191D01*
X28730591Y-9662171D01*
X28813429Y-9675291D01*
X28909449Y-9690500D01*
X28909454Y-9690500D01*
X29090550Y-9690500D01*
X29183390Y-9675794D01*
X29269409Y-9662171D01*
X29269412Y-9662169D01*
X29271091Y-9661904D01*
X29340385Y-9670858D01*
X29378171Y-9696696D01*
X29835581Y-10154106D01*
X29869066Y-10215429D01*
X29871900Y-10241787D01*
X29871900Y-39413637D01*
X29864234Y-39452179D01*
X29864927Y-39452365D01*
X29862823Y-39460214D01*
X29862823Y-39460216D01*
X29821900Y-39612943D01*
X29821900Y-39771057D01*
X29857127Y-39902525D01*
X29864927Y-39931636D01*
X29864232Y-39931822D01*
X29871900Y-39970362D01*
X29871900Y-52298212D01*
X29852215Y-52365251D01*
X29835581Y-52385893D01*
X29378170Y-52843303D01*
X29316847Y-52876788D01*
X29271091Y-52878095D01*
X29090551Y-52849500D01*
X29090546Y-52849500D01*
X28909454Y-52849500D01*
X28909449Y-52849500D01*
X28730589Y-52877829D01*
X28558363Y-52933787D01*
X28558360Y-52933788D01*
X28397002Y-53016006D01*
X28250505Y-53122441D01*
X28250500Y-53122445D01*
X28122445Y-53250500D01*
X28122441Y-53250505D01*
X28016006Y-53397002D01*
X27933788Y-53558360D01*
X27933787Y-53558363D01*
X27877829Y-53730589D01*
X27852473Y-53890678D01*
X27822544Y-53953813D01*
X27763232Y-53990744D01*
X27693369Y-53989746D01*
X27635137Y-53951136D01*
X27607527Y-53890678D01*
X27592855Y-53798045D01*
X27582171Y-53730591D01*
X27526211Y-53558361D01*
X27526211Y-53558360D01*
X27470721Y-53449457D01*
X27443996Y-53397006D01*
X27385342Y-53316275D01*
X27337558Y-53250505D01*
X27337554Y-53250500D01*
X27209499Y-53122445D01*
X27209494Y-53122441D01*
X27062997Y-53016006D01*
X27062996Y-53016005D01*
X27062994Y-53016004D01*
X26993634Y-52980663D01*
X26901639Y-52933788D01*
X26901636Y-52933787D01*
X26729410Y-52877829D01*
X26550551Y-52849500D01*
X26550546Y-52849500D01*
X26369454Y-52849500D01*
X26369449Y-52849500D01*
X26190589Y-52877829D01*
X26018363Y-52933787D01*
X26018360Y-52933788D01*
X25857002Y-53016006D01*
X25710505Y-53122441D01*
X25710500Y-53122445D01*
X25582445Y-53250500D01*
X25582441Y-53250505D01*
X25476006Y-53397002D01*
X25393788Y-53558360D01*
X25393787Y-53558363D01*
X25337829Y-53730589D01*
X25312473Y-53890678D01*
X25282544Y-53953813D01*
X25223232Y-53990744D01*
X25153369Y-53989746D01*
X25095137Y-53951136D01*
X25067527Y-53890678D01*
X25052855Y-53798045D01*
X25042171Y-53730591D01*
X24986211Y-53558361D01*
X24986211Y-53558360D01*
X24930721Y-53449457D01*
X24903996Y-53397006D01*
X24845342Y-53316275D01*
X24797558Y-53250505D01*
X24797554Y-53250500D01*
X24669499Y-53122445D01*
X24669494Y-53122441D01*
X24522997Y-53016006D01*
X24522996Y-53016005D01*
X24522994Y-53016004D01*
X24453634Y-52980663D01*
X24361639Y-52933788D01*
X24361636Y-52933787D01*
X24189410Y-52877829D01*
X24010551Y-52849500D01*
X24010546Y-52849500D01*
X23829454Y-52849500D01*
X23829449Y-52849500D01*
X23650589Y-52877829D01*
X23478363Y-52933787D01*
X23478360Y-52933788D01*
X23317002Y-53016006D01*
X23170505Y-53122441D01*
X23170500Y-53122445D01*
X23042445Y-53250500D01*
X23042441Y-53250505D01*
X22936006Y-53397002D01*
X22853788Y-53558360D01*
X22853787Y-53558363D01*
X22797829Y-53730589D01*
X22772473Y-53890678D01*
X22742544Y-53953813D01*
X22683232Y-53990744D01*
X22613369Y-53989746D01*
X22555137Y-53951136D01*
X22527527Y-53890678D01*
X22512855Y-53798045D01*
X22502171Y-53730591D01*
X22446211Y-53558361D01*
X22446211Y-53558360D01*
X22390721Y-53449457D01*
X22363996Y-53397006D01*
X22305342Y-53316275D01*
X22257558Y-53250505D01*
X22257554Y-53250500D01*
X22129499Y-53122445D01*
X22129494Y-53122441D01*
X21982997Y-53016006D01*
X21982996Y-53016005D01*
X21982994Y-53016004D01*
X21913634Y-52980663D01*
X21821639Y-52933788D01*
X21821636Y-52933787D01*
X21649410Y-52877829D01*
X21470551Y-52849500D01*
X21470546Y-52849500D01*
X21289454Y-52849500D01*
X21289449Y-52849500D01*
X21110589Y-52877829D01*
X20938363Y-52933787D01*
X20938360Y-52933788D01*
X20777002Y-53016006D01*
X20630505Y-53122441D01*
X20630500Y-53122445D01*
X20502445Y-53250500D01*
X20502441Y-53250505D01*
X20396006Y-53397002D01*
X20313788Y-53558360D01*
X20313787Y-53558363D01*
X20257829Y-53730589D01*
X20236973Y-53862266D01*
X20207044Y-53925401D01*
X20147732Y-53962332D01*
X20077869Y-53961334D01*
X20019637Y-53922724D01*
X19991523Y-53858760D01*
X19990500Y-53842868D01*
X19990500Y-53356901D01*
X19989913Y-53352014D01*
X19979877Y-53268436D01*
X19924361Y-53127658D01*
X19924360Y-53127657D01*
X19924360Y-53127656D01*
X19832922Y-53007077D01*
X19712343Y-52915639D01*
X19571561Y-52860122D01*
X19525926Y-52854642D01*
X19483102Y-52849500D01*
X19483097Y-52849500D01*
X18519387Y-52849500D01*
X18452348Y-52829815D01*
X18431706Y-52813181D01*
X12812512Y-47193987D01*
X12779027Y-47132664D01*
X12784011Y-47062972D01*
X12825883Y-47007039D01*
X12868098Y-46986532D01*
X12908984Y-46975577D01*
X13045916Y-46896520D01*
X13157720Y-46784716D01*
X13236777Y-46647784D01*
X13277700Y-46495057D01*
X13277700Y-46336943D01*
X13236777Y-46184216D01*
X13236773Y-46184209D01*
X13157724Y-46047290D01*
X13157721Y-46047286D01*
X13157720Y-46047284D01*
X13045916Y-45935480D01*
X13045915Y-45935479D01*
X13045912Y-45935477D01*
X12901946Y-45852359D01*
X12902305Y-45851737D01*
X12869630Y-45829905D01*
X12674319Y-45634594D01*
X12640834Y-45573271D01*
X12638000Y-45546913D01*
X12638000Y-34628387D01*
X12657685Y-34561348D01*
X12710489Y-34515593D01*
X12779647Y-34505649D01*
X12843203Y-34534674D01*
X12849681Y-34540706D01*
X18975881Y-40666906D01*
X19009366Y-40728229D01*
X19012200Y-40754587D01*
X19012200Y-44486513D01*
X18992515Y-44553552D01*
X18939711Y-44599307D01*
X18870553Y-44609251D01*
X18806997Y-44580226D01*
X18800519Y-44574194D01*
X17636819Y-43410494D01*
X17603334Y-43349171D01*
X17600500Y-43322813D01*
X17600500Y-41521762D01*
X17608167Y-41483222D01*
X17607473Y-41483036D01*
X17610105Y-41473212D01*
X17650500Y-41322457D01*
X17650500Y-41164343D01*
X17609577Y-41011616D01*
X17561189Y-40927805D01*
X17530524Y-40874690D01*
X17530518Y-40874682D01*
X17418717Y-40762881D01*
X17418709Y-40762875D01*
X17281790Y-40683826D01*
X17281786Y-40683824D01*
X17281784Y-40683823D01*
X17129057Y-40642900D01*
X16970943Y-40642900D01*
X16818216Y-40683823D01*
X16818209Y-40683826D01*
X16681290Y-40762875D01*
X16681282Y-40762881D01*
X16569481Y-40874682D01*
X16569475Y-40874690D01*
X16490426Y-41011609D01*
X16490423Y-41011616D01*
X16449500Y-41164343D01*
X16449500Y-41322456D01*
X16492527Y-41483036D01*
X16491832Y-41483222D01*
X16499500Y-41521762D01*
X16499500Y-43674675D01*
X16532405Y-43797475D01*
X16537016Y-43814685D01*
X16609490Y-43940215D01*
X18925185Y-46255910D01*
X19024095Y-46313015D01*
X19050715Y-46328384D01*
X19190725Y-46365900D01*
X19190728Y-46365900D01*
X19947172Y-46365900D01*
X19947174Y-46365900D01*
X19947175Y-46365900D01*
X20087185Y-46328384D01*
X20113805Y-46313015D01*
X20212715Y-46255910D01*
X24378010Y-42090615D01*
X24450484Y-41965085D01*
X24471411Y-41886985D01*
X24488000Y-41825075D01*
X24488000Y-39460486D01*
X24507685Y-39393447D01*
X24524319Y-39372805D01*
X26934733Y-36962391D01*
X29432210Y-34464915D01*
X29504684Y-34339385D01*
X29511750Y-34313015D01*
X29512458Y-34310376D01*
X29519909Y-34282563D01*
X29542200Y-34199375D01*
X29542200Y-31364462D01*
X29549867Y-31325922D01*
X29549173Y-31325736D01*
X29556222Y-31299429D01*
X29592200Y-31165157D01*
X29592200Y-31007043D01*
X29551277Y-30854316D01*
X29536493Y-30828709D01*
X29472224Y-30717390D01*
X29472218Y-30717382D01*
X29360417Y-30605581D01*
X29360409Y-30605575D01*
X29223490Y-30526526D01*
X29223486Y-30526524D01*
X29223484Y-30526523D01*
X29070757Y-30485600D01*
X28912643Y-30485600D01*
X28759916Y-30526523D01*
X28759911Y-30526525D01*
X28721208Y-30548870D01*
X28653308Y-30565341D01*
X28587281Y-30542488D01*
X28551823Y-30503482D01*
X28532312Y-30469688D01*
X28532308Y-30469683D01*
X16154916Y-18092291D01*
X16154915Y-18092290D01*
X16029385Y-18019816D01*
X16029386Y-18019816D01*
X15911733Y-17988291D01*
X15911730Y-17988289D01*
X15889377Y-17982300D01*
X15889375Y-17982300D01*
X8978063Y-17982300D01*
X8939520Y-17974634D01*
X8939335Y-17975327D01*
X8931485Y-17973223D01*
X8931484Y-17973223D01*
X8778757Y-17932300D01*
X8620643Y-17932300D01*
X8467916Y-17973223D01*
X8467909Y-17973226D01*
X8330990Y-18052275D01*
X8330982Y-18052281D01*
X8219181Y-18164082D01*
X8219175Y-18164090D01*
X8140126Y-18301009D01*
X8140123Y-18301016D01*
X8099200Y-18453743D01*
X8099200Y-18611857D01*
X8117493Y-18680125D01*
X8140123Y-18764583D01*
X8140126Y-18764590D01*
X8219175Y-18901509D01*
X8219179Y-18901514D01*
X8219180Y-18901516D01*
X8330984Y-19013320D01*
X8330986Y-19013321D01*
X8330990Y-19013324D01*
X8452194Y-19083300D01*
X8467916Y-19092377D01*
X8620643Y-19133300D01*
X8620645Y-19133300D01*
X8778755Y-19133300D01*
X8778757Y-19133300D01*
X8931484Y-19092377D01*
X8931485Y-19092376D01*
X8939335Y-19090273D01*
X8939520Y-19090965D01*
X8978063Y-19083300D01*
X9338813Y-19083300D01*
X9405852Y-19102985D01*
X9451607Y-19155789D01*
X9461551Y-19224947D01*
X9432526Y-19288503D01*
X9426494Y-19294981D01*
X4371381Y-24350093D01*
X4310058Y-24383578D01*
X4240366Y-24378594D01*
X4184433Y-24336722D01*
X4160016Y-24271258D01*
X4159700Y-24262412D01*
X4159700Y-21866762D01*
X4167367Y-21828222D01*
X4166673Y-21828036D01*
X4188328Y-21747217D01*
X4209700Y-21667457D01*
X4209700Y-21509343D01*
X4168777Y-21356616D01*
X4168773Y-21356609D01*
X4089724Y-21219690D01*
X4089718Y-21219682D01*
X3977917Y-21107881D01*
X3977909Y-21107875D01*
X3840990Y-21028826D01*
X3840986Y-21028824D01*
X3840984Y-21028823D01*
X3688257Y-20987900D01*
X3530143Y-20987900D01*
X3377416Y-21028823D01*
X3377409Y-21028826D01*
X3240490Y-21107875D01*
X3240482Y-21107881D01*
X3128681Y-21219682D01*
X3128675Y-21219690D01*
X3049626Y-21356609D01*
X3049623Y-21356616D01*
X3008700Y-21509343D01*
X500500Y-21509343D01*
X500500Y-3878711D01*
X2149500Y-3878711D01*
X2149500Y-4121288D01*
X2181161Y-4361785D01*
X2243947Y-4596104D01*
X2336773Y-4820205D01*
X2336776Y-4820212D01*
X2458064Y-5030289D01*
X2458066Y-5030292D01*
X2458067Y-5030293D01*
X2605733Y-5222736D01*
X2605739Y-5222743D01*
X2777256Y-5394260D01*
X2777262Y-5394265D01*
X2969711Y-5541936D01*
X3179788Y-5663224D01*
X3403900Y-5756054D01*
X3638211Y-5818838D01*
X3818586Y-5842584D01*
X3878711Y-5850500D01*
X3878712Y-5850500D01*
X4121289Y-5850500D01*
X4169388Y-5844167D01*
X4361789Y-5818838D01*
X4596100Y-5756054D01*
X4820212Y-5663224D01*
X5030289Y-5541936D01*
X5222738Y-5394265D01*
X5394265Y-5222738D01*
X5541936Y-5030289D01*
X5663224Y-4820212D01*
X5756054Y-4596100D01*
X5818838Y-4361789D01*
X5850500Y-4121288D01*
X5850500Y-3878712D01*
X5850500Y-3878711D01*
X68149500Y-3878711D01*
X68149500Y-4121288D01*
X68181161Y-4361785D01*
X68243947Y-4596104D01*
X68336773Y-4820205D01*
X68336776Y-4820212D01*
X68458064Y-5030289D01*
X68458066Y-5030292D01*
X68458067Y-5030293D01*
X68605733Y-5222736D01*
X68605739Y-5222743D01*
X68777256Y-5394260D01*
X68777262Y-5394265D01*
X68969711Y-5541936D01*
X69179788Y-5663224D01*
X69403900Y-5756054D01*
X69638211Y-5818838D01*
X69818586Y-5842584D01*
X69878711Y-5850500D01*
X69878712Y-5850500D01*
X70121289Y-5850500D01*
X70169388Y-5844167D01*
X70361789Y-5818838D01*
X70596100Y-5756054D01*
X70820212Y-5663224D01*
X71030289Y-5541936D01*
X71222738Y-5394265D01*
X71394265Y-5222738D01*
X71541936Y-5030289D01*
X71663224Y-4820212D01*
X71756054Y-4596100D01*
X71818838Y-4361789D01*
X71850500Y-4121288D01*
X71850500Y-3878712D01*
X71818838Y-3638211D01*
X71756054Y-3403900D01*
X71663224Y-3179788D01*
X71541936Y-2969711D01*
X71394265Y-2777262D01*
X71394260Y-2777256D01*
X71222743Y-2605739D01*
X71222736Y-2605733D01*
X71030293Y-2458067D01*
X71030292Y-2458066D01*
X71030289Y-2458064D01*
X70820212Y-2336776D01*
X70820205Y-2336773D01*
X70596104Y-2243947D01*
X70361785Y-2181161D01*
X70121289Y-2149500D01*
X70121288Y-2149500D01*
X69878712Y-2149500D01*
X69878711Y-2149500D01*
X69638214Y-2181161D01*
X69403895Y-2243947D01*
X69179794Y-2336773D01*
X69179785Y-2336777D01*
X68969706Y-2458067D01*
X68777263Y-2605733D01*
X68777256Y-2605739D01*
X68605739Y-2777256D01*
X68605733Y-2777263D01*
X68458067Y-2969706D01*
X68336777Y-3179785D01*
X68336773Y-3179794D01*
X68243947Y-3403895D01*
X68181161Y-3638214D01*
X68149500Y-3878711D01*
X5850500Y-3878711D01*
X5818838Y-3638211D01*
X5756054Y-3403900D01*
X5663224Y-3179788D01*
X5541936Y-2969711D01*
X5394265Y-2777262D01*
X5394260Y-2777256D01*
X5222743Y-2605739D01*
X5222736Y-2605733D01*
X5030293Y-2458067D01*
X5030292Y-2458066D01*
X5030289Y-2458064D01*
X4820212Y-2336776D01*
X4820205Y-2336773D01*
X4596104Y-2243947D01*
X4361785Y-2181161D01*
X4121289Y-2149500D01*
X4121288Y-2149500D01*
X3878712Y-2149500D01*
X3878711Y-2149500D01*
X3638214Y-2181161D01*
X3403895Y-2243947D01*
X3179794Y-2336773D01*
X3179785Y-2336777D01*
X2969706Y-2458067D01*
X2777263Y-2605733D01*
X2777256Y-2605739D01*
X2605739Y-2777256D01*
X2605733Y-2777263D01*
X2458067Y-2969706D01*
X2336777Y-3179785D01*
X2336773Y-3179794D01*
X2243947Y-3403895D01*
X2181161Y-3638214D01*
X2149500Y-3878711D01*
X500500Y-3878711D01*
X500500Y-624500D01*
X520185Y-557461D01*
X572989Y-511706D01*
X624500Y-500500D01*
X73375500Y-500500D01*
X73442539Y-520185D01*
G37*
%TD.AperFunction*%
%TD*%
M02*
