%TF.GenerationSoftware,KiCad,Pcbnew,9.0.9-9.0.9~ubuntu24.04.1*%
%TF.CreationDate,2026-09-01T08:34:25+02:00*%
%TF.ProjectId,daughtercard,64617567-6874-4657-9263-6172642e6b69,rev?*%
%TF.SameCoordinates,Original*%
%TF.FileFunction,Soldermask,Top*%
%TF.FilePolarity,Negative*%
%FSLAX46Y46*%
G04 Gerber Fmt 4.6, Leading zero omitted, Abs format (unit mm)*
G04 Created by KiCad (PCBNEW 9.0.9-9.0.9~ubuntu24.04.1) date 2026-09-01 08:34:25*
%MOMM*%
%LPD*%
G01*
G04 APERTURE LIST*
G04 Aperture macros list*
%AMRoundRect*
0 Rectangle with rounded corners*
0 $1 Rounding radius*
0 $2 $3 $4 $5 $6 $7 $8 $9 X,Y pos of 4 corners*
0 Add a 4 corners polygon primitive as box body*
4,1,4,$2,$3,$4,$5,$6,$7,$8,$9,$2,$3,0*
0 Add four circle primitives for the rounded corners*
1,1,$1+$1,$2,$3*
1,1,$1+$1,$4,$5*
1,1,$1+$1,$6,$7*
1,1,$1+$1,$8,$9*
0 Add four rect primitives between the rounded corners*
20,1,$1+$1,$2,$3,$4,$5,0*
20,1,$1+$1,$4,$5,$6,$7,0*
20,1,$1+$1,$6,$7,$8,$9,0*
20,1,$1+$1,$8,$9,$2,$3,0*%
G04 Aperture macros list end*
%ADD10C,3.200000*%
%ADD11RoundRect,0.250000X-0.250000X-0.475000X0.250000X-0.475000X0.250000X0.475000X-0.250000X0.475000X0*%
%ADD12RoundRect,0.250000X0.625000X-0.312500X0.625000X0.312500X-0.625000X0.312500X-0.625000X-0.312500X0*%
%ADD13C,1.500000*%
%ADD14RoundRect,0.250000X-0.262500X-0.450000X0.262500X-0.450000X0.262500X0.450000X-0.262500X0.450000X0*%
%ADD15RoundRect,0.150000X-0.587500X-0.150000X0.587500X-0.150000X0.587500X0.150000X-0.587500X0.150000X0*%
%ADD16RoundRect,0.250000X-1.050000X-1.050000X1.050000X-1.050000X1.050000X1.050000X-1.050000X1.050000X0*%
%ADD17C,2.600000*%
%ADD18R,1.000000X1.500000*%
%ADD19R,1.500000X1.000000*%
%ADD20RoundRect,0.250000X0.600000X-0.600000X0.600000X0.600000X-0.600000X0.600000X-0.600000X-0.600000X0*%
%ADD21C,1.700000*%
%ADD22R,1.700000X1.700000*%
%ADD23RoundRect,0.150000X-0.875000X-0.150000X0.875000X-0.150000X0.875000X0.150000X-0.875000X0.150000X0*%
%ADD24RoundRect,0.250000X1.050000X1.050000X-1.050000X1.050000X-1.050000X-1.050000X1.050000X-1.050000X0*%
%ADD25RoundRect,0.250000X0.450000X-0.262500X0.450000X0.262500X-0.450000X0.262500X-0.450000X-0.262500X0*%
%ADD26RoundRect,0.150000X-0.825000X-0.150000X0.825000X-0.150000X0.825000X0.150000X-0.825000X0.150000X0*%
%ADD27RoundRect,0.243750X-0.243750X-0.456250X0.243750X-0.456250X0.243750X0.456250X-0.243750X0.456250X0*%
%ADD28RoundRect,0.250000X0.475000X-0.250000X0.475000X0.250000X-0.475000X0.250000X-0.475000X-0.250000X0*%
%ADD29RoundRect,0.250000X0.650000X-0.325000X0.650000X0.325000X-0.650000X0.325000X-0.650000X-0.325000X0*%
G04 APERTURE END LIST*
%TO.C,JP1*%
G36*
X44700000Y-32250000D02*
G01*
X45000000Y-32250000D01*
X45000000Y-33750000D01*
X44700000Y-33750000D01*
X44700000Y-32250000D01*
G37*
%TO.C,JP3*%
G36*
X39250000Y-19800000D02*
G01*
X40750000Y-19800000D01*
X40750000Y-19500000D01*
X39250000Y-19500000D01*
X39250000Y-19800000D01*
G37*
%TO.C,JP2*%
G36*
X50700000Y-37250000D02*
G01*
X51000000Y-37250000D01*
X51000000Y-38750000D01*
X50700000Y-38750000D01*
X50700000Y-37250000D01*
G37*
%TD*%
D10*
%TO.C,H4*%
X70000000Y-56000000D03*
%TD*%
D11*
%TO.C,C4*%
X17050000Y-26000000D03*
X18950000Y-26000000D03*
%TD*%
D12*
%TO.C,R14*%
X45500000Y-21500000D03*
X45500000Y-18575000D03*
%TD*%
D13*
%TO.C,TP3*%
X3500000Y-33000000D03*
%TD*%
D14*
%TO.C,R11*%
X39175000Y-43000000D03*
X41000000Y-43000000D03*
%TD*%
D15*
%TO.C,D1*%
X22062500Y-25050000D03*
X22062500Y-26950000D03*
X23937500Y-26000000D03*
%TD*%
D14*
%TO.C,R5*%
X7087500Y-40000000D03*
X8912500Y-40000000D03*
%TD*%
D16*
%TO.C,J4*%
X50920000Y-53000000D03*
D17*
X56000000Y-53000000D03*
%TD*%
D14*
%TO.C,R2*%
X12087500Y-26000000D03*
X13912500Y-26000000D03*
%TD*%
D18*
%TO.C,JP1*%
X44200000Y-33000000D03*
X45500000Y-33000000D03*
%TD*%
D19*
%TO.C,JP3*%
X40000000Y-20300000D03*
X40000000Y-19000000D03*
%TD*%
D14*
%TO.C,R13*%
X44175000Y-38000000D03*
X46000000Y-38000000D03*
%TD*%
%TO.C,R15*%
X60087500Y-29500000D03*
X61912500Y-29500000D03*
%TD*%
D15*
%TO.C,D3*%
X22062500Y-39050000D03*
X22062500Y-40950000D03*
X23937500Y-40000000D03*
%TD*%
D20*
%TO.C,J2*%
X18840000Y-54000000D03*
D21*
X18840000Y-51460000D03*
X21380000Y-54000000D03*
X21380000Y-51460000D03*
X23920000Y-54000000D03*
X23920000Y-51460000D03*
X26460000Y-54000000D03*
X26460000Y-51460000D03*
X29000000Y-54000000D03*
X29000000Y-51460000D03*
%TD*%
D11*
%TO.C,C6*%
X17050000Y-40000000D03*
X18950000Y-40000000D03*
%TD*%
D15*
%TO.C,Q2*%
X61062500Y-24050000D03*
X61062500Y-25950000D03*
X62937500Y-25000000D03*
%TD*%
%TO.C,Q1*%
X65062500Y-24050000D03*
X65062500Y-25950000D03*
X66937500Y-25000000D03*
%TD*%
D10*
%TO.C,H2*%
X70000000Y-4000000D03*
%TD*%
D22*
%TO.C,J6*%
X39000000Y-51000000D03*
D21*
X39000000Y-53540000D03*
X39000000Y-56080000D03*
%TD*%
D10*
%TO.C,H3*%
X4000000Y-56000000D03*
%TD*%
D14*
%TO.C,R3*%
X7087500Y-33000000D03*
X8912500Y-33000000D03*
%TD*%
D13*
%TO.C,TP7*%
X30000000Y-43000000D03*
%TD*%
%TO.C,TP5*%
X50500000Y-43000000D03*
%TD*%
D20*
%TO.C,J3*%
X18840000Y-8540000D03*
D21*
X18840000Y-6000000D03*
X21380000Y-8540000D03*
X21380000Y-6000000D03*
X23920000Y-8540000D03*
X23920000Y-6000000D03*
X26460000Y-8540000D03*
X26460000Y-6000000D03*
X29000000Y-8540000D03*
X29000000Y-6000000D03*
%TD*%
D23*
%TO.C,U1*%
X30350000Y-26650000D03*
X30350000Y-27920000D03*
X30350000Y-29190000D03*
X30350000Y-30460000D03*
X30350000Y-31730000D03*
X30350000Y-33000000D03*
X30350000Y-34270000D03*
X30350000Y-35540000D03*
X30350000Y-36810000D03*
X30350000Y-38080000D03*
X39650000Y-38080000D03*
X39650000Y-36810000D03*
X39650000Y-35540000D03*
X39650000Y-34270000D03*
X39650000Y-33000000D03*
X39650000Y-31730000D03*
X39650000Y-30460000D03*
X39650000Y-29190000D03*
X39650000Y-27920000D03*
X39650000Y-26650000D03*
%TD*%
D14*
%TO.C,R1*%
X7087500Y-26000000D03*
X8912500Y-26000000D03*
%TD*%
%TO.C,R10*%
X60087500Y-20000000D03*
X61912500Y-20000000D03*
%TD*%
D13*
%TO.C,TP1*%
X3500000Y-19000000D03*
%TD*%
%TO.C,TP6*%
X45500000Y-15000000D03*
%TD*%
D14*
%TO.C,R9*%
X68087500Y-16000000D03*
X69912500Y-16000000D03*
%TD*%
%TO.C,R12*%
X44175000Y-43000000D03*
X46000000Y-43000000D03*
%TD*%
D24*
%TO.C,J5*%
X56000000Y-7000000D03*
D17*
X50920000Y-7000000D03*
%TD*%
D10*
%TO.C,H1*%
X4000000Y-4000000D03*
%TD*%
D18*
%TO.C,JP2*%
X50200000Y-38000000D03*
X51500000Y-38000000D03*
%TD*%
D25*
%TO.C,R16*%
X40000000Y-15500000D03*
X40000000Y-13675000D03*
%TD*%
D14*
%TO.C,R8*%
X64087500Y-16000000D03*
X65912500Y-16000000D03*
%TD*%
D26*
%TO.C,U2*%
X30550000Y-15230000D03*
X30550000Y-16500000D03*
X30550000Y-17770000D03*
X30550000Y-19040000D03*
X35500000Y-19040000D03*
X35500000Y-17770000D03*
X35500000Y-16500000D03*
X35500000Y-15230000D03*
%TD*%
D15*
%TO.C,Q3*%
X69062500Y-24050000D03*
X69062500Y-25950000D03*
X70937500Y-25000000D03*
%TD*%
D27*
%TO.C,D4*%
X64562500Y-29500000D03*
X66437500Y-29500000D03*
%TD*%
D14*
%TO.C,R7*%
X60087500Y-16000000D03*
X61912500Y-16000000D03*
%TD*%
D11*
%TO.C,C5*%
X17050000Y-33000000D03*
X18950000Y-33000000D03*
%TD*%
D13*
%TO.C,TP4*%
X34500000Y-43000000D03*
%TD*%
%TO.C,TP2*%
X3500000Y-26000000D03*
%TD*%
D15*
%TO.C,D2*%
X22062500Y-32050000D03*
X22062500Y-33950000D03*
X23937500Y-33000000D03*
%TD*%
D12*
%TO.C,F1*%
X10000000Y-20562500D03*
X10000000Y-17637500D03*
%TD*%
D22*
%TO.C,J1*%
X61000000Y-34960000D03*
D21*
X61000000Y-37500000D03*
X63540000Y-34960000D03*
X63540000Y-37500000D03*
X66080000Y-34960000D03*
X66080000Y-37500000D03*
X68620000Y-34960000D03*
X68620000Y-37500000D03*
X71160000Y-34960000D03*
X71160000Y-37500000D03*
%TD*%
D28*
%TO.C,C1*%
X44500000Y-28000000D03*
X44500000Y-26100000D03*
%TD*%
%TO.C,C2*%
X22000000Y-20000000D03*
X22000000Y-18100000D03*
%TD*%
D14*
%TO.C,R4*%
X12087500Y-33000000D03*
X13912500Y-33000000D03*
%TD*%
D29*
%TO.C,C3*%
X16000000Y-20500000D03*
X16000000Y-17550000D03*
%TD*%
D14*
%TO.C,R6*%
X12087500Y-40000000D03*
X13912500Y-40000000D03*
%TD*%
M02*
