%TF.GenerationSoftware,KiCad,Pcbnew,9.0.9-9.0.9~ubuntu24.04.1*%
%TF.CreationDate,2026-09-01T13:34:32+02:00*%
%TF.ProjectId,master,6d617374-6572-42e6-9b69-6361645f7063,rev?*%
%TF.SameCoordinates,Original*%
%TF.FileFunction,Copper,L1,Top*%
%TF.FilePolarity,Positive*%
%FSLAX46Y46*%
G04 Gerber Fmt 4.6, Leading zero omitted, Abs format (unit mm)*
G04 Created by KiCad (PCBNEW 9.0.9-9.0.9~ubuntu24.04.1) date 2026-09-01 13:34:32*
%MOMM*%
%LPD*%
G01*
G04 APERTURE LIST*
G04 Aperture macros list*
%AMRoundRect*
0 Rectangle with rounded corners*
0 $1 Rounding radius*
0 $2 $3 $4 $5 $6 $7 $8 $9 X,Y pos of 4 corners*
0 Add a 4 corners polygon primitive as box body*
4,1,4,$2,$3,$4,$5,$6,$7,$8,$9,$2,$3,0*
0 Add four circle primitives for the rounded corners*
1,1,$1+$1,$2,$3*
1,1,$1+$1,$4,$5*
1,1,$1+$1,$6,$7*
1,1,$1+$1,$8,$9*
0 Add four rect primitives between the rounded corners*
20,1,$1+$1,$2,$3,$4,$5,0*
20,1,$1+$1,$4,$5,$6,$7,0*
20,1,$1+$1,$6,$7,$8,$9,0*
20,1,$1+$1,$8,$9,$2,$3,0*%
G04 Aperture macros list end*
%TA.AperFunction,SMDPad,CuDef*%
%ADD10C,1.500000*%
%TD*%
%TA.AperFunction,ComponentPad*%
%ADD11RoundRect,0.250000X-0.600000X-0.600000X0.600000X-0.600000X0.600000X0.600000X-0.600000X0.600000X0*%
%TD*%
%TA.AperFunction,ComponentPad*%
%ADD12C,1.700000*%
%TD*%
%TA.AperFunction,SMDPad,CuDef*%
%ADD13RoundRect,0.250000X-0.250000X-0.475000X0.250000X-0.475000X0.250000X0.475000X-0.250000X0.475000X0*%
%TD*%
%TA.AperFunction,SMDPad,CuDef*%
%ADD14RoundRect,0.218750X0.381250X-0.218750X0.381250X0.218750X-0.381250X0.218750X-0.381250X-0.218750X0*%
%TD*%
%TA.AperFunction,SMDPad,CuDef*%
%ADD15RoundRect,0.150000X-0.512500X-0.150000X0.512500X-0.150000X0.512500X0.150000X-0.512500X0.150000X0*%
%TD*%
%TA.AperFunction,SMDPad,CuDef*%
%ADD16RoundRect,0.250000X-0.262500X-0.450000X0.262500X-0.450000X0.262500X0.450000X-0.262500X0.450000X0*%
%TD*%
%TA.AperFunction,ComponentPad*%
%ADD17R,1.700000X1.700000*%
%TD*%
%TA.AperFunction,SMDPad,CuDef*%
%ADD18RoundRect,0.250000X0.450000X-0.262500X0.450000X0.262500X-0.450000X0.262500X-0.450000X-0.262500X0*%
%TD*%
%TA.AperFunction,SMDPad,CuDef*%
%ADD19RoundRect,0.243750X-0.243750X-0.456250X0.243750X-0.456250X0.243750X0.456250X-0.243750X0.456250X0*%
%TD*%
%TA.AperFunction,ComponentPad*%
%ADD20RoundRect,0.250000X-1.050000X-1.050000X1.050000X-1.050000X1.050000X1.050000X-1.050000X1.050000X0*%
%TD*%
%TA.AperFunction,ComponentPad*%
%ADD21C,2.600000*%
%TD*%
%TA.AperFunction,SMDPad,CuDef*%
%ADD22RoundRect,0.250000X0.475000X-0.250000X0.475000X0.250000X-0.475000X0.250000X-0.475000X-0.250000X0*%
%TD*%
%TA.AperFunction,SMDPad,CuDef*%
%ADD23R,1.000000X1.500000*%
%TD*%
%TA.AperFunction,SMDPad,CuDef*%
%ADD24RoundRect,0.250000X0.650000X-0.325000X0.650000X0.325000X-0.650000X0.325000X-0.650000X-0.325000X0*%
%TD*%
%TA.AperFunction,SMDPad,CuDef*%
%ADD25RoundRect,0.150000X-0.825000X-0.150000X0.825000X-0.150000X0.825000X0.150000X-0.825000X0.150000X0*%
%TD*%
%TA.AperFunction,ViaPad*%
%ADD26C,0.800000*%
%TD*%
%TA.AperFunction,ViaPad*%
%ADD27C,0.600000*%
%TD*%
%TA.AperFunction,Conductor*%
%ADD28C,0.800000*%
%TD*%
%TA.AperFunction,Conductor*%
%ADD29C,0.600000*%
%TD*%
%TA.AperFunction,Conductor*%
%ADD30C,0.480000*%
%TD*%
%TA.AperFunction,Conductor*%
%ADD31C,0.500000*%
%TD*%
%TA.AperFunction,Conductor*%
%ADD32C,0.375000*%
%TD*%
G04 APERTURE END LIST*
D10*
%TO.P,TP4,1*%
%TO.N,/+3V3*%
X55000000Y-35000000D03*
%TD*%
D11*
%TO.P,J2,1*%
%TO.N,/+5V_IN*%
X50000000Y-9000000D03*
D12*
%TO.P,J2,2*%
%TO.N,/GND*%
X52540000Y-9000000D03*
%TO.P,J2,3*%
%TO.N,/RS485_A*%
X50000000Y-11540000D03*
%TO.P,J2,4*%
%TO.N,/GND*%
X52540000Y-11540000D03*
%TO.P,J2,5*%
%TO.N,/RS485_B*%
X50000000Y-14080000D03*
%TO.P,J2,6*%
%TO.N,/GND*%
X52540000Y-14080000D03*
%TO.P,J2,7*%
%TO.N,/CHAIN_BUS*%
X50000000Y-16620000D03*
%TO.P,J2,8*%
%TO.N,/GND*%
X52540000Y-16620000D03*
%TO.P,J2,9*%
%TO.N,/ADER9*%
X50000000Y-19160000D03*
%TO.P,J2,10*%
%TO.N,/GND*%
X52540000Y-19160000D03*
%TD*%
D13*
%TO.P,C5,1*%
%TO.N,/+3V3*%
X43050000Y-15000000D03*
%TO.P,C5,2*%
%TO.N,/GND*%
X44950000Y-15000000D03*
%TD*%
D14*
%TO.P,FB1,1*%
%TO.N,/+5V_IN*%
X24000000Y-49062500D03*
%TO.P,FB1,2*%
%TO.N,/+5V*%
X24000000Y-46937500D03*
%TD*%
D10*
%TO.P,TP7,1*%
%TO.N,/ADER9*%
X55000000Y-44000000D03*
%TD*%
D15*
%TO.P,U3,1*%
%TO.N,unconnected-(U3-NC-Pad1)*%
X32862500Y-37050000D03*
%TO.P,U3,2*%
%TO.N,/CHAIN_GPIO*%
X32862500Y-38000000D03*
%TO.P,U3,3*%
%TO.N,/GND*%
X32862500Y-38950000D03*
%TO.P,U3,4*%
%TO.N,/CHAIN_OUT*%
X35137500Y-38950000D03*
%TO.P,U3,5*%
%TO.N,/+5V*%
X35137500Y-37050000D03*
%TD*%
D10*
%TO.P,TP1,1*%
%TO.N,/RS485_A*%
X50000000Y-30000000D03*
%TD*%
%TO.P,TP3,1*%
%TO.N,/CHAIN_BUS*%
X50000000Y-35000000D03*
%TD*%
D16*
%TO.P,R6,1*%
%TO.N,/LED_DRV*%
X36087500Y-48000000D03*
%TO.P,R6,2*%
%TO.N,/LED_A*%
X37912500Y-48000000D03*
%TD*%
D17*
%TO.P,U1,1*%
%TO.N,/+5V*%
X25620000Y-5110000D03*
D12*
%TO.P,U1,2*%
%TO.N,/GND*%
X25620000Y-7650000D03*
%TO.P,U1,3*%
%TO.N,/+3V3*%
X25620000Y-10190000D03*
%TO.P,U1,4*%
%TO.N,/RO*%
X25620000Y-12730000D03*
%TO.P,U1,5*%
%TO.N,/DI*%
X25620000Y-15270000D03*
%TO.P,U1,6*%
%TO.N,unconnected-(U1-GPIO2-Pad6)*%
X25620000Y-17810000D03*
%TO.P,U1,7*%
%TO.N,/IO1_RSV*%
X25620000Y-20350000D03*
%TO.P,U1,8*%
%TO.N,/IO0_RSV*%
X25620000Y-22890000D03*
%TO.P,U1,9*%
%TO.N,/CHAIN_GPIO*%
X10380000Y-5110000D03*
%TO.P,U1,10*%
%TO.N,/LED_DRV*%
X10380000Y-7650000D03*
%TO.P,U1,11*%
%TO.N,/IO7_RSV*%
X10380000Y-10190000D03*
%TO.P,U1,12*%
%TO.N,unconnected-(U1-GPIO8-Pad12)*%
X10380000Y-12730000D03*
%TO.P,U1,13*%
%TO.N,unconnected-(U1-GPIO9-Pad13)*%
X10380000Y-15270000D03*
%TO.P,U1,14*%
%TO.N,/DE*%
X10380000Y-17810000D03*
%TO.P,U1,15*%
%TO.N,unconnected-(U1-GPIO20-Pad15)*%
X10380000Y-20350000D03*
%TO.P,U1,16*%
%TO.N,unconnected-(U1-GPIO21-Pad16)*%
X10380000Y-22890000D03*
%TD*%
D18*
%TO.P,R1,1*%
%TO.N,/RS485_A*%
X33000000Y-22912500D03*
%TO.P,R1,2*%
%TO.N,/RS485_B*%
X33000000Y-21087500D03*
%TD*%
D19*
%TO.P,D1,1*%
%TO.N,/GND*%
X41062500Y-48000000D03*
%TO.P,D1,2*%
%TO.N,/LED_A*%
X42937500Y-48000000D03*
%TD*%
D10*
%TO.P,TP5,1*%
%TO.N,/+15V*%
X50000000Y-40000000D03*
%TD*%
D20*
%TO.P,J1,1*%
%TO.N,/+5V_IN*%
X11000000Y-48000000D03*
D21*
%TO.P,J1,2*%
%TO.N,/GND*%
X16080000Y-48000000D03*
%TD*%
D13*
%TO.P,C4,1*%
%TO.N,/+5V*%
X31050000Y-6000000D03*
%TO.P,C4,2*%
%TO.N,/GND*%
X32950000Y-6000000D03*
%TD*%
D22*
%TO.P,C1,1*%
%TO.N,/+3V3*%
X40000000Y-21950000D03*
%TO.P,C1,2*%
%TO.N,/GND*%
X40000000Y-20050000D03*
%TD*%
D18*
%TO.P,R3,1*%
%TO.N,/RS485_B*%
X33000000Y-30912500D03*
%TO.P,R3,2*%
%TO.N,/GND*%
X33000000Y-29087500D03*
%TD*%
D23*
%TO.P,JP1,1*%
%TO.N,/+5V_IN*%
X42700000Y-42000000D03*
%TO.P,JP1,2*%
%TO.N,/ADER9*%
X44000000Y-42000000D03*
%TO.P,JP1,3*%
%TO.N,/+15V*%
X45300000Y-42000000D03*
%TD*%
D18*
%TO.P,R2,1*%
%TO.N,/+3V3*%
X33000000Y-26912500D03*
%TO.P,R2,2*%
%TO.N,/RS485_A*%
X33000000Y-25087500D03*
%TD*%
D24*
%TO.P,C3,1*%
%TO.N,/+5V_IN*%
X29000000Y-49475000D03*
%TO.P,C3,2*%
%TO.N,/GND*%
X29000000Y-46525000D03*
%TD*%
D10*
%TO.P,TP6,1*%
%TO.N,/GND*%
X55000000Y-40000000D03*
%TD*%
D16*
%TO.P,R4,1*%
%TO.N,/DE*%
X43087500Y-30000000D03*
%TO.P,R4,2*%
%TO.N,/GND*%
X44912500Y-30000000D03*
%TD*%
D13*
%TO.P,C2,1*%
%TO.N,/+5V*%
X33050000Y-34000000D03*
%TO.P,C2,2*%
%TO.N,/GND*%
X34950000Y-34000000D03*
%TD*%
D16*
%TO.P,R5,1*%
%TO.N,/CHAIN_OUT*%
X39087500Y-38000000D03*
%TO.P,R5,2*%
%TO.N,/CHAIN_BUS*%
X40912500Y-38000000D03*
%TD*%
D25*
%TO.P,U2,1*%
%TO.N,/RO*%
X37525000Y-24095000D03*
%TO.P,U2,2*%
%TO.N,/GND*%
X37525000Y-25365000D03*
%TO.P,U2,3*%
%TO.N,/DE*%
X37525000Y-26635000D03*
%TO.P,U2,4*%
%TO.N,/DI*%
X37525000Y-27905000D03*
%TO.P,U2,5*%
%TO.N,/GND*%
X42475000Y-27905000D03*
%TO.P,U2,6*%
%TO.N,/RS485_A*%
X42475000Y-26635000D03*
%TO.P,U2,7*%
%TO.N,/RS485_B*%
X42475000Y-25365000D03*
%TO.P,U2,8*%
%TO.N,/+3V3*%
X42475000Y-24095000D03*
%TD*%
D16*
%TO.P,R7,1*%
%TO.N,/CHAIN_GPIO*%
X29087500Y-42000000D03*
%TO.P,R7,2*%
%TO.N,/CHAIN_OUT*%
X30912500Y-42000000D03*
%TD*%
D17*
%TO.P,J3,1*%
%TO.N,/IO0_RSV*%
X62000000Y-20000000D03*
D12*
%TO.P,J3,2*%
%TO.N,/IO1_RSV*%
X62000000Y-22540000D03*
%TO.P,J3,3*%
%TO.N,/IO7_RSV*%
X62000000Y-25080000D03*
%TO.P,J3,4*%
%TO.N,/GND*%
X62000000Y-27620000D03*
%TD*%
D10*
%TO.P,TP2,1*%
%TO.N,/RS485_B*%
X55000000Y-30000000D03*
%TD*%
D17*
%TO.P,J4,1*%
%TO.N,/+5V_IN*%
X46000000Y-50000000D03*
D12*
%TO.P,J4,2*%
%TO.N,/GND*%
X48540000Y-50000000D03*
%TO.P,J4,3*%
%TO.N,/+15V*%
X51080000Y-50000000D03*
%TO.P,J4,4*%
%TO.N,/GND*%
X53620000Y-50000000D03*
%TD*%
D26*
%TO.N,/+3V3*%
X52340700Y-35557400D03*
X52340700Y-22636000D03*
%TO.N,/+5V_IN*%
X48403600Y-16719300D03*
X41550000Y-42000000D03*
%TO.N,/+15V*%
X47913900Y-42086100D03*
%TO.N,/ADER9*%
X53531900Y-44115500D03*
D27*
%TO.N,/CHAIN_BUS*%
X48681700Y-35557400D03*
%TO.N,/CHAIN_GPIO*%
X29087500Y-38410100D03*
%TO.N,/DE*%
X39076600Y-26999300D03*
%TO.N,/DI*%
X35811400Y-27385800D03*
D26*
%TO.N,/GND*%
X9925000Y-29925000D03*
X19925000Y-19925000D03*
X39662500Y-48000000D03*
D27*
X55887900Y-40887900D03*
D26*
X29925000Y-24925000D03*
X64925000Y-19925000D03*
X4925000Y-24925000D03*
X36125000Y-25365000D03*
X19925000Y-4925000D03*
X44912500Y-31400000D03*
X44925000Y-9925000D03*
X59925000Y-29925000D03*
X34925000Y-29925000D03*
X4925000Y-34925000D03*
X30400000Y-46525000D03*
X64925000Y-34925000D03*
X59925000Y-34925000D03*
X64925000Y-14925000D03*
X64925000Y-44925000D03*
X29925000Y-14925000D03*
X39925000Y-29925000D03*
X44950000Y-13600000D03*
X14925000Y-34925000D03*
X14925000Y-39925000D03*
X19925000Y-14925000D03*
X39925000Y-39925000D03*
X39925000Y-9925000D03*
X64925000Y-9925000D03*
X29925000Y-29925000D03*
X59925000Y-9925000D03*
X9925000Y-44925000D03*
X19925000Y-44925000D03*
D27*
X41997400Y-47083400D03*
D26*
X55000000Y-38600000D03*
X39925000Y-44925000D03*
X44925000Y-4925000D03*
X4925000Y-19925000D03*
X14925000Y-19925000D03*
X39925000Y-34925000D03*
X54925000Y-14925000D03*
X14925000Y-9925000D03*
X34925000Y-4925000D03*
X9925000Y-34925000D03*
X19925000Y-9925000D03*
D27*
X34950000Y-32350000D03*
D26*
X4925000Y-39925000D03*
X14925000Y-14925000D03*
D27*
X27555600Y-46968200D03*
D26*
X64925000Y-29925000D03*
D27*
X42252900Y-17797200D03*
D26*
X59925000Y-4925000D03*
X24925000Y-34925000D03*
X64925000Y-39925000D03*
X39925000Y-4925000D03*
X32862499Y-40350000D03*
X19925000Y-39925000D03*
X59925000Y-44925000D03*
X64925000Y-24925000D03*
X59925000Y-49925000D03*
X9925000Y-39925000D03*
X54925000Y-19925000D03*
X32950000Y-7800000D03*
X43875000Y-27905000D03*
X4925000Y-44925000D03*
X24925000Y-29925000D03*
X34925000Y-14925000D03*
X54925000Y-4925000D03*
X4925000Y-14925000D03*
X59925000Y-39925000D03*
X4925000Y-29925000D03*
X19925000Y-29925000D03*
X4925000Y-9925000D03*
X14925000Y-44925000D03*
D27*
X31653000Y-39195800D03*
X33851600Y-6901600D03*
D26*
X29925000Y-44925000D03*
D27*
%TO.N,/IO0_RSV*%
X42513000Y-23085600D03*
X37642800Y-20083600D03*
%TO.N,/IO1_RSV*%
X37621900Y-19267200D03*
X43996100Y-24281300D03*
%TO.N,/LED_DRV*%
X35184700Y-47097200D03*
%TO.N,/RO*%
X36704400Y-23274400D03*
%TO.N,/RS485_A*%
X31951400Y-25923900D03*
X43986500Y-26635000D03*
%TO.N,/RS485_B*%
X40966800Y-25365000D03*
X36156200Y-21077200D03*
X46372900Y-25365000D03*
%TD*%
D28*
%TO.N,/+3V3*%
X54442600Y-35557400D02*
X52340700Y-35557400D01*
D29*
X39201200Y-21151200D02*
X40000000Y-21950000D01*
D30*
X34321500Y-25101700D02*
X34159100Y-25264100D01*
D28*
X42145000Y-24095000D02*
X42475000Y-24095000D01*
X34321500Y-24380900D02*
X34321500Y-25101700D01*
D29*
X38103600Y-21151200D02*
X38602500Y-21151200D01*
D28*
X38103600Y-21151200D02*
X37551200Y-21151200D01*
X41829000Y-15588500D02*
X36430500Y-10190000D01*
D30*
X34159100Y-25264100D02*
X34159100Y-25715300D01*
D28*
X38602500Y-21151200D02*
X38602500Y-18815000D01*
X40000000Y-21950000D02*
X42145000Y-24095000D01*
D29*
X34159100Y-25753400D02*
X33000000Y-26912500D01*
D28*
X55000000Y-35000000D02*
X54442600Y-35557400D01*
X36430500Y-10190000D02*
X25620000Y-10190000D01*
D29*
X38602500Y-21151200D02*
X39201200Y-21151200D01*
D28*
X40000000Y-21950000D02*
X51654700Y-21950000D01*
X38602500Y-18815000D02*
X41829000Y-15588500D01*
X41829000Y-15588500D02*
X42461500Y-15588500D01*
X42461500Y-15588500D02*
X43050000Y-15000000D01*
D29*
X34159100Y-25715300D02*
X34159100Y-25753400D01*
D28*
X37551200Y-21151200D02*
X34321500Y-24380900D01*
X51654700Y-21950000D02*
X52340700Y-22636000D01*
%TO.N,/+5V*%
X32133100Y-34000000D02*
X24168300Y-26035200D01*
X24000000Y-42133100D02*
X24000000Y-45864400D01*
X33050000Y-34000000D02*
X32133100Y-34000000D01*
X24000000Y-45864400D02*
X24000000Y-46937500D01*
X33050000Y-34000000D02*
X33050000Y-34962500D01*
X32133100Y-34000000D02*
X24000000Y-42133100D01*
X25620000Y-5110000D02*
X30160000Y-5110000D01*
X33050000Y-34962500D02*
X35137500Y-37050000D01*
X30160000Y-5110000D02*
X31050000Y-6000000D01*
X24168300Y-26035200D02*
X24168300Y-6561700D01*
X24168300Y-6561700D02*
X25620000Y-5110000D01*
%TO.N,/+5V_IN*%
X50000000Y-9000000D02*
X48403600Y-10596400D01*
X23110200Y-49952300D02*
X12952300Y-49952300D01*
X46000000Y-50000000D02*
X29525000Y-50000000D01*
X24412500Y-49475000D02*
X24000000Y-49062500D01*
X41721500Y-44221500D02*
X46000000Y-48500000D01*
X41721500Y-42000000D02*
X41550000Y-42000000D01*
X48403600Y-10596400D02*
X48403600Y-16719300D01*
X24000000Y-49062500D02*
X23110200Y-49952300D01*
X41721500Y-42000000D02*
X41721500Y-44221500D01*
X29000000Y-49475000D02*
X24412500Y-49475000D01*
X29525000Y-50000000D02*
X29000000Y-49475000D01*
X42700000Y-42000000D02*
X41721500Y-42000000D01*
X46000000Y-50000000D02*
X46000000Y-48500000D01*
X12952300Y-49952300D02*
X11000000Y-48000000D01*
%TO.N,/+15V*%
X50000000Y-40000000D02*
X47913900Y-42086100D01*
X45300000Y-42000000D02*
X46450000Y-42000000D01*
X47913900Y-42086100D02*
X47827800Y-42000000D01*
X47827800Y-42000000D02*
X46450000Y-42000000D01*
%TO.N,/ADER9*%
X54884500Y-44115500D02*
X55000000Y-44000000D01*
X44600000Y-44000000D02*
X55000000Y-44000000D01*
X44000000Y-42000000D02*
X44000000Y-43400000D01*
X44000000Y-43400000D02*
X44600000Y-44000000D01*
X53531900Y-44115500D02*
X54884500Y-44115500D01*
D31*
%TO.N,/CHAIN_BUS*%
X50000000Y-35000000D02*
X43912500Y-35000000D01*
X50000000Y-35000000D02*
X49442600Y-35557400D01*
X49442600Y-35557400D02*
X48681700Y-35557400D01*
X43912500Y-35000000D02*
X40912500Y-38000000D01*
%TO.N,/CHAIN_GPIO*%
X29087500Y-38410100D02*
X29591300Y-38410100D01*
X29087500Y-42000000D02*
X29087500Y-38410100D01*
D32*
X29802200Y-38199200D02*
X32663300Y-38199200D01*
D31*
X29591300Y-38410100D02*
X29802200Y-38199200D01*
D32*
X32663300Y-38199200D02*
X32862500Y-38000000D01*
D31*
%TO.N,/CHAIN_OUT*%
X35137500Y-38950000D02*
X35137500Y-39774900D01*
X32912400Y-42000000D02*
X30912500Y-42000000D01*
X39087500Y-38000000D02*
X36087500Y-38000000D01*
X35137500Y-39774900D02*
X32912400Y-42000000D01*
X36087500Y-38000000D02*
X35137500Y-38950000D01*
%TO.N,/DE*%
X39076600Y-26999300D02*
X42077300Y-30000000D01*
X37889300Y-26999300D02*
X37525000Y-26635000D01*
X42077300Y-30000000D02*
X43087500Y-30000000D01*
X39076600Y-26999300D02*
X37889300Y-26999300D01*
D32*
%TO.N,/DI*%
X37005800Y-27385800D02*
X35811400Y-27385800D01*
X37525000Y-27905000D02*
X37005800Y-27385800D01*
D31*
%TO.N,/IO0_RSV*%
X42513000Y-23085600D02*
X51585800Y-23085600D01*
X28426400Y-20083600D02*
X37642800Y-20083600D01*
X52018000Y-23517800D02*
X57132200Y-23517800D01*
X25620000Y-22890000D02*
X28426400Y-20083600D01*
X57132200Y-23517800D02*
X60650000Y-20000000D01*
X62000000Y-20000000D02*
X60650000Y-20000000D01*
X51585800Y-23085600D02*
X52018000Y-23517800D01*
%TO.N,/IO1_RSV*%
X25620000Y-20350000D02*
X26702800Y-19267200D01*
X26702800Y-19267200D02*
X37621900Y-19267200D01*
X60258700Y-24281300D02*
X62000000Y-22540000D01*
X43996100Y-24281300D02*
X60258700Y-24281300D01*
%TO.N,/IO7_RSV*%
X16766200Y-3803800D02*
X49232000Y-3803800D01*
X63312600Y-17884400D02*
X63312600Y-23767400D01*
X49232000Y-3803800D02*
X63312600Y-17884400D01*
X10380000Y-10190000D02*
X16766200Y-3803800D01*
X63312600Y-23767400D02*
X62000000Y-25080000D01*
%TO.N,/LED_A*%
X38822900Y-49093900D02*
X38851500Y-49122500D01*
X42827900Y-48000000D02*
X42937500Y-48000000D01*
X41705400Y-49122500D02*
X42827900Y-48000000D01*
X38822900Y-48910400D02*
X38822900Y-49093900D01*
X37912500Y-48000000D02*
X38822900Y-48910400D01*
D32*
X38851500Y-49122500D02*
X41705400Y-49122500D01*
D31*
%TO.N,/LED_DRV*%
X35184700Y-47097200D02*
X36087500Y-48000000D01*
%TO.N,/RO*%
X36704400Y-23274400D02*
X37525000Y-24095000D01*
%TO.N,/RS485_A*%
X32787800Y-25087500D02*
X33000000Y-25087500D01*
X43986500Y-26635000D02*
X47891900Y-26635000D01*
X43986500Y-26635000D02*
X42475000Y-26635000D01*
X31951400Y-25923900D02*
X32787800Y-25087500D01*
X47891900Y-26635000D02*
X50000000Y-28743100D01*
X50000000Y-28743100D02*
X50000000Y-30000000D01*
X33000000Y-25087500D02*
X33000000Y-22912500D01*
%TO.N,/RS485_B*%
X31193300Y-29105800D02*
X31193300Y-22894200D01*
X33000000Y-30912500D02*
X31193300Y-29105800D01*
X53718800Y-29852000D02*
X54852000Y-29852000D01*
X31193300Y-22894200D02*
X33000000Y-21087500D01*
X49231800Y-25365000D02*
X53718800Y-29852000D01*
X46372900Y-25365000D02*
X49231800Y-25365000D01*
X54852000Y-29852000D02*
X55000000Y-30000000D01*
X33000000Y-21087500D02*
X33010300Y-21077200D01*
X40966800Y-25365000D02*
X42475000Y-25365000D01*
X33010300Y-21077200D02*
X36156200Y-21077200D01*
X42475000Y-25365000D02*
X46372900Y-25365000D01*
%TD*%
%TA.AperFunction,Conductor*%
%TO.N,/GND*%
G36*
X31680226Y-38700000D02*
G01*
X32738500Y-38700000D01*
X32805539Y-38719685D01*
X32851294Y-38772489D01*
X32862500Y-38824000D01*
X32862500Y-38950000D01*
X32988500Y-38950000D01*
X33055539Y-38969685D01*
X33101294Y-39022489D01*
X33112500Y-39074000D01*
X33112500Y-39750000D01*
X33440634Y-39750000D01*
X33440649Y-39749999D01*
X33477489Y-39747100D01*
X33477495Y-39747099D01*
X33635193Y-39701283D01*
X33635196Y-39701282D01*
X33776552Y-39617685D01*
X33776561Y-39617678D01*
X33892678Y-39501561D01*
X33892685Y-39501552D01*
X33976282Y-39360197D01*
X33987231Y-39322509D01*
X34024836Y-39263623D01*
X34088308Y-39234415D01*
X34157495Y-39244160D01*
X34210430Y-39289763D01*
X34217758Y-39304726D01*
X34217867Y-39304669D01*
X34222206Y-39312880D01*
X34222207Y-39312882D01*
X34302850Y-39422150D01*
X34411590Y-39502403D01*
X34419595Y-39508311D01*
X34417829Y-39510703D01*
X34456901Y-39548728D01*
X34472679Y-39616793D01*
X34449153Y-39682583D01*
X34436567Y-39697308D01*
X32720694Y-41413181D01*
X32659371Y-41446666D01*
X32633013Y-41449500D01*
X31811521Y-41449500D01*
X31744482Y-41429815D01*
X31698727Y-41377011D01*
X31696174Y-41371009D01*
X31659361Y-41277658D01*
X31659360Y-41277657D01*
X31659360Y-41277656D01*
X31567922Y-41157077D01*
X31447343Y-41065639D01*
X31351192Y-41027722D01*
X31306564Y-41010123D01*
X31306563Y-41010122D01*
X31306561Y-41010122D01*
X31260926Y-41004642D01*
X31218102Y-40999500D01*
X30606898Y-40999500D01*
X30567853Y-41004188D01*
X30518438Y-41010122D01*
X30377656Y-41065639D01*
X30257077Y-41157077D01*
X30165639Y-41277656D01*
X30146409Y-41326421D01*
X30115353Y-41405171D01*
X30072449Y-41460314D01*
X30006541Y-41483507D01*
X29938556Y-41467386D01*
X29890080Y-41417070D01*
X29884648Y-41405178D01*
X29834361Y-41277658D01*
X29834360Y-41277657D01*
X29834360Y-41277656D01*
X29742925Y-41157082D01*
X29742923Y-41157079D01*
X29742920Y-41157077D01*
X29687072Y-41114725D01*
X29645551Y-41058533D01*
X29638000Y-41015923D01*
X29638000Y-39200001D01*
X31702704Y-39200001D01*
X31702899Y-39202486D01*
X31748718Y-39360198D01*
X31832314Y-39501552D01*
X31832321Y-39501561D01*
X31948438Y-39617678D01*
X31948447Y-39617685D01*
X32089803Y-39701282D01*
X32089806Y-39701283D01*
X32247504Y-39747099D01*
X32247510Y-39747100D01*
X32284350Y-39749999D01*
X32284366Y-39750000D01*
X32612500Y-39750000D01*
X32612500Y-39200000D01*
X31702705Y-39200000D01*
X31702704Y-39200001D01*
X29638000Y-39200001D01*
X29638000Y-39062654D01*
X29657685Y-38995615D01*
X29710489Y-38949860D01*
X29729898Y-38942882D01*
X29803785Y-38923084D01*
X29929315Y-38850610D01*
X30009989Y-38769936D01*
X30056406Y-38723519D01*
X30117729Y-38690034D01*
X30144087Y-38687200D01*
X31636634Y-38687200D01*
X31680226Y-38700000D01*
G37*
%TD.AperFunction*%
%TA.AperFunction,Conductor*%
G36*
X49019652Y-4373985D02*
G01*
X49040294Y-4390619D01*
X62725781Y-18076106D01*
X62759266Y-18137429D01*
X62762100Y-18163787D01*
X62762100Y-18725500D01*
X62742415Y-18792539D01*
X62689611Y-18838294D01*
X62638100Y-18849500D01*
X61105143Y-18849500D01*
X61105117Y-18849502D01*
X61080012Y-18852413D01*
X61080008Y-18852415D01*
X60977235Y-18897793D01*
X60897794Y-18977234D01*
X60852415Y-19080006D01*
X60852415Y-19080008D01*
X60849500Y-19105131D01*
X60849500Y-19325500D01*
X60829815Y-19392539D01*
X60777011Y-19438294D01*
X60725500Y-19449500D01*
X60577525Y-19449500D01*
X60452132Y-19483098D01*
X60452133Y-19483099D01*
X60437514Y-19487016D01*
X60311986Y-19559489D01*
X60311983Y-19559491D01*
X56940494Y-22930981D01*
X56879171Y-22964466D01*
X56852813Y-22967300D01*
X53140118Y-22967300D01*
X53073079Y-22947615D01*
X53027324Y-22894811D01*
X53017380Y-22825653D01*
X53018501Y-22819108D01*
X53041200Y-22704996D01*
X53041200Y-22567004D01*
X53014281Y-22431677D01*
X53014280Y-22431676D01*
X53014280Y-22431672D01*
X52991906Y-22377656D01*
X52961477Y-22304192D01*
X52884812Y-22189454D01*
X52101245Y-21405887D01*
X51986507Y-21329222D01*
X51859032Y-21276421D01*
X51859022Y-21276418D01*
X51723696Y-21249500D01*
X51723694Y-21249500D01*
X51723693Y-21249500D01*
X40833693Y-21249500D01*
X40813475Y-21243563D01*
X40792436Y-21242435D01*
X40771817Y-21231331D01*
X40766654Y-21229815D01*
X40761163Y-21226075D01*
X40759955Y-21225204D01*
X40747342Y-21215639D01*
X40745907Y-21215073D01*
X40738717Y-21209888D01*
X40721394Y-21187587D01*
X40701679Y-21167372D01*
X40700245Y-21160360D01*
X40695856Y-21154710D01*
X40693339Y-21126586D01*
X40687683Y-21098919D01*
X40690267Y-21092245D01*
X40689630Y-21085118D01*
X40702718Y-21060099D01*
X40712918Y-21033765D01*
X40718701Y-21029547D01*
X40722018Y-21023208D01*
X40746554Y-21009236D01*
X40769372Y-20992598D01*
X40772245Y-20991606D01*
X40794122Y-20984356D01*
X40794124Y-20984356D01*
X40943345Y-20892315D01*
X41067315Y-20768345D01*
X41159356Y-20619124D01*
X41159358Y-20619119D01*
X41214505Y-20452697D01*
X41214506Y-20452690D01*
X41224999Y-20349986D01*
X41225000Y-20349973D01*
X41225000Y-20300000D01*
X40124000Y-20300000D01*
X40056961Y-20280315D01*
X40011206Y-20227511D01*
X40000000Y-20176000D01*
X40000000Y-20050000D01*
X39874000Y-20050000D01*
X39806961Y-20030315D01*
X39761206Y-19977511D01*
X39750000Y-19926000D01*
X39750000Y-19800000D01*
X40250000Y-19800000D01*
X41224999Y-19800000D01*
X41224999Y-19750028D01*
X41224998Y-19750013D01*
X41214505Y-19647302D01*
X41159358Y-19480880D01*
X41159356Y-19480875D01*
X41067315Y-19331654D01*
X40943345Y-19207684D01*
X40794124Y-19115643D01*
X40794119Y-19115641D01*
X40627697Y-19060494D01*
X40627690Y-19060493D01*
X40524986Y-19050000D01*
X40250000Y-19050000D01*
X40250000Y-19800000D01*
X39750000Y-19800000D01*
X39750000Y-19087825D01*
X39618072Y-19043559D01*
X39605354Y-19034683D01*
X39590478Y-19030315D01*
X39577292Y-19015098D01*
X39560776Y-19003571D01*
X39554876Y-18989228D01*
X39544723Y-18977511D01*
X39541857Y-18957579D01*
X39534196Y-18938955D01*
X39536986Y-18923702D01*
X39534779Y-18908353D01*
X39543144Y-18890035D01*
X39546768Y-18870226D01*
X39557362Y-18858902D01*
X39563804Y-18844797D01*
X39569808Y-18838348D01*
X41619862Y-16788295D01*
X47703099Y-16788295D01*
X47730018Y-16923622D01*
X47730021Y-16923632D01*
X47782821Y-17051104D01*
X47782828Y-17051117D01*
X47859485Y-17165841D01*
X47859488Y-17165845D01*
X47957054Y-17263411D01*
X47957058Y-17263414D01*
X48071782Y-17340071D01*
X48071795Y-17340078D01*
X48199267Y-17392878D01*
X48199272Y-17392880D01*
X48199276Y-17392880D01*
X48199277Y-17392881D01*
X48334604Y-17419800D01*
X48334607Y-17419800D01*
X48472595Y-17419800D01*
X48563641Y-17401689D01*
X48607928Y-17392880D01*
X48735411Y-17340075D01*
X48850142Y-17263414D01*
X48860552Y-17253004D01*
X48921874Y-17219517D01*
X48991566Y-17224499D01*
X49047501Y-17266368D01*
X49048554Y-17267797D01*
X49122441Y-17369494D01*
X49122445Y-17369499D01*
X49250500Y-17497554D01*
X49250505Y-17497558D01*
X49359165Y-17576503D01*
X49397006Y-17603996D01*
X49502484Y-17657740D01*
X49558360Y-17686211D01*
X49558363Y-17686212D01*
X49644476Y-17714191D01*
X49730591Y-17742171D01*
X49803639Y-17753740D01*
X49890678Y-17767527D01*
X49953813Y-17797456D01*
X49990744Y-17856768D01*
X49989746Y-17926631D01*
X49951136Y-17984863D01*
X49890678Y-18012473D01*
X49730589Y-18037829D01*
X49558363Y-18093787D01*
X49558360Y-18093788D01*
X49397002Y-18176006D01*
X49250505Y-18282441D01*
X49250500Y-18282445D01*
X49122445Y-18410500D01*
X49122441Y-18410505D01*
X49016006Y-18557002D01*
X48933788Y-18718360D01*
X48933787Y-18718363D01*
X48877829Y-18890589D01*
X48849500Y-19069448D01*
X48849500Y-19250551D01*
X48877829Y-19429410D01*
X48933787Y-19601636D01*
X48933788Y-19601639D01*
X48989664Y-19711300D01*
X49009397Y-19750028D01*
X49016006Y-19762997D01*
X49122441Y-19909494D01*
X49122445Y-19909499D01*
X49250500Y-20037554D01*
X49250505Y-20037558D01*
X49309733Y-20080589D01*
X49397006Y-20143996D01*
X49502484Y-20197740D01*
X49558360Y-20226211D01*
X49558363Y-20226212D01*
X49644476Y-20254191D01*
X49730591Y-20282171D01*
X49813429Y-20295291D01*
X49909449Y-20310500D01*
X49909454Y-20310500D01*
X50090551Y-20310500D01*
X50177259Y-20296765D01*
X50269409Y-20282171D01*
X50441639Y-20226211D01*
X50602994Y-20143996D01*
X50749501Y-20037553D01*
X50877553Y-19909501D01*
X50983996Y-19762994D01*
X51066211Y-19601639D01*
X51122171Y-19429409D01*
X51145235Y-19283788D01*
X51150500Y-19250551D01*
X51150500Y-19069448D01*
X51129831Y-18938955D01*
X51122171Y-18890591D01*
X51090785Y-18793993D01*
X51066212Y-18718363D01*
X51066211Y-18718360D01*
X50993191Y-18575053D01*
X50983996Y-18557006D01*
X50930365Y-18483189D01*
X50877558Y-18410505D01*
X50877554Y-18410500D01*
X50749499Y-18282445D01*
X50749494Y-18282441D01*
X50602997Y-18176006D01*
X50602996Y-18176005D01*
X50602994Y-18176004D01*
X50527287Y-18137429D01*
X50441639Y-18093788D01*
X50441636Y-18093787D01*
X50269410Y-18037829D01*
X50109321Y-18012473D01*
X50046186Y-17982544D01*
X50009255Y-17923232D01*
X50010253Y-17853370D01*
X50048863Y-17795137D01*
X50109321Y-17767527D01*
X50179425Y-17756422D01*
X50269409Y-17742171D01*
X50441639Y-17686211D01*
X50602994Y-17603996D01*
X50749501Y-17497553D01*
X50877553Y-17369501D01*
X50983996Y-17222994D01*
X51066211Y-17061639D01*
X51122171Y-16889409D01*
X51145235Y-16743788D01*
X51150500Y-16710551D01*
X51150500Y-16529448D01*
X51132773Y-16417527D01*
X51122171Y-16350591D01*
X51090785Y-16253993D01*
X51066212Y-16178363D01*
X51066211Y-16178360D01*
X51037740Y-16122484D01*
X50983996Y-16017006D01*
X50942114Y-15959360D01*
X50877558Y-15870505D01*
X50877554Y-15870500D01*
X50749499Y-15742445D01*
X50749494Y-15742441D01*
X50602997Y-15636006D01*
X50602996Y-15636005D01*
X50602994Y-15636004D01*
X50509763Y-15588500D01*
X50441639Y-15553788D01*
X50441636Y-15553787D01*
X50269410Y-15497829D01*
X50109321Y-15472473D01*
X50046186Y-15442544D01*
X50009255Y-15383232D01*
X50010253Y-15313370D01*
X50048863Y-15255137D01*
X50109321Y-15227527D01*
X50179425Y-15216422D01*
X50269409Y-15202171D01*
X50441639Y-15146211D01*
X50602994Y-15063996D01*
X50749501Y-14957553D01*
X50877553Y-14829501D01*
X50983996Y-14682994D01*
X51066211Y-14521639D01*
X51122171Y-14349409D01*
X51137495Y-14252656D01*
X51150500Y-14170551D01*
X51150500Y-13989448D01*
X51132773Y-13877527D01*
X51122171Y-13810591D01*
X51066211Y-13638361D01*
X51066211Y-13638360D01*
X51037740Y-13582484D01*
X50983996Y-13477006D01*
X50895900Y-13355751D01*
X50877558Y-13330505D01*
X50877554Y-13330500D01*
X50749499Y-13202445D01*
X50749494Y-13202441D01*
X50602997Y-13096006D01*
X50602996Y-13096005D01*
X50602994Y-13096004D01*
X50543025Y-13065448D01*
X50441639Y-13013788D01*
X50441636Y-13013787D01*
X50269410Y-12957829D01*
X50109321Y-12932473D01*
X50046186Y-12902544D01*
X50009255Y-12843232D01*
X50010253Y-12773370D01*
X50048863Y-12715137D01*
X50109321Y-12687527D01*
X50179425Y-12676422D01*
X50269409Y-12662171D01*
X50441639Y-12606211D01*
X50602994Y-12523996D01*
X50749501Y-12417553D01*
X50877553Y-12289501D01*
X50983996Y-12142994D01*
X51066211Y-11981639D01*
X51122171Y-11809409D01*
X51145235Y-11663788D01*
X51150500Y-11630551D01*
X51150500Y-11449448D01*
X51132773Y-11337527D01*
X51122171Y-11270591D01*
X51066211Y-11098361D01*
X51066211Y-11098360D01*
X51037740Y-11042484D01*
X50983996Y-10937006D01*
X50950208Y-10890500D01*
X50877558Y-10790505D01*
X50877554Y-10790500D01*
X50749499Y-10662445D01*
X50749494Y-10662441D01*
X50602997Y-10556006D01*
X50602996Y-10556005D01*
X50602994Y-10556004D01*
X50526237Y-10516894D01*
X50441639Y-10473788D01*
X50441636Y-10473787D01*
X50269410Y-10417829D01*
X50137733Y-10396973D01*
X50074598Y-10367044D01*
X50037667Y-10307732D01*
X50038665Y-10237869D01*
X50077275Y-10179637D01*
X50141239Y-10151523D01*
X50157131Y-10150500D01*
X50643097Y-10150500D01*
X50643102Y-10150500D01*
X50731564Y-10139877D01*
X50872342Y-10084361D01*
X50992922Y-9992922D01*
X51084361Y-9872342D01*
X51139877Y-9731564D01*
X51150500Y-9643102D01*
X51150500Y-8356898D01*
X51139877Y-8268436D01*
X51084361Y-8127658D01*
X51084360Y-8127657D01*
X51084360Y-8127656D01*
X50992922Y-8007077D01*
X50872343Y-7915639D01*
X50731561Y-7860122D01*
X50685926Y-7854642D01*
X50643102Y-7849500D01*
X49356898Y-7849500D01*
X49317853Y-7854188D01*
X49268438Y-7860122D01*
X49127656Y-7915639D01*
X49007077Y-8007077D01*
X48915639Y-8127656D01*
X48860122Y-8268438D01*
X48854188Y-8317853D01*
X48849500Y-8356898D01*
X48849500Y-8356903D01*
X48849500Y-9108480D01*
X48829815Y-9175519D01*
X48813181Y-9196161D01*
X47859488Y-10149853D01*
X47859482Y-10149861D01*
X47786567Y-10258985D01*
X47786568Y-10258986D01*
X47782826Y-10264586D01*
X47782825Y-10264587D01*
X47730020Y-10392071D01*
X47730018Y-10392077D01*
X47703100Y-10527404D01*
X47703100Y-10527407D01*
X47703100Y-16650307D01*
X47703100Y-16788293D01*
X47703100Y-16788295D01*
X47703099Y-16788295D01*
X41619862Y-16788295D01*
X42082838Y-16325319D01*
X42144161Y-16291834D01*
X42170519Y-16289000D01*
X42530496Y-16289000D01*
X42624273Y-16270346D01*
X42665828Y-16262080D01*
X42755350Y-16224999D01*
X42793307Y-16209277D01*
X42793308Y-16209276D01*
X42793311Y-16209275D01*
X42908043Y-16132614D01*
X42978839Y-16061817D01*
X43040160Y-16028334D01*
X43066519Y-16025500D01*
X43343097Y-16025500D01*
X43343102Y-16025500D01*
X43431564Y-16014877D01*
X43572342Y-15959361D01*
X43692922Y-15867922D01*
X43748892Y-15794115D01*
X43789486Y-15740584D01*
X43791317Y-15741972D01*
X43832607Y-15701689D01*
X43901058Y-15687682D01*
X43966216Y-15712905D01*
X44007394Y-15769351D01*
X44008391Y-15772241D01*
X44015640Y-15794115D01*
X44015643Y-15794124D01*
X44107684Y-15943345D01*
X44231654Y-16067315D01*
X44380875Y-16159356D01*
X44380880Y-16159358D01*
X44547302Y-16214505D01*
X44547309Y-16214506D01*
X44650019Y-16224999D01*
X45200000Y-16224999D01*
X45249972Y-16224999D01*
X45249986Y-16224998D01*
X45352697Y-16214505D01*
X45519119Y-16159358D01*
X45519124Y-16159356D01*
X45668345Y-16067315D01*
X45792315Y-15943345D01*
X45884356Y-15794124D01*
X45884358Y-15794119D01*
X45939505Y-15627697D01*
X45939506Y-15627690D01*
X45949999Y-15524986D01*
X45950000Y-15524973D01*
X45950000Y-15250000D01*
X45200000Y-15250000D01*
X45200000Y-16224999D01*
X44650019Y-16224999D01*
X44699999Y-16224998D01*
X44700000Y-16224998D01*
X44700000Y-14750000D01*
X45200000Y-14750000D01*
X45949999Y-14750000D01*
X45949999Y-14475028D01*
X45949998Y-14475013D01*
X45939505Y-14372302D01*
X45884358Y-14205880D01*
X45884356Y-14205875D01*
X45792315Y-14056654D01*
X45668345Y-13932684D01*
X45519124Y-13840643D01*
X45519119Y-13840641D01*
X45352697Y-13785494D01*
X45352690Y-13785493D01*
X45249986Y-13775000D01*
X45200000Y-13775000D01*
X45200000Y-14750000D01*
X44700000Y-14750000D01*
X44700000Y-13775000D01*
X44699999Y-13774999D01*
X44650029Y-13775000D01*
X44650011Y-13775001D01*
X44547302Y-13785494D01*
X44380880Y-13840641D01*
X44380875Y-13840643D01*
X44231654Y-13932684D01*
X44107684Y-14056654D01*
X44015643Y-14205875D01*
X44015640Y-14205884D01*
X44008391Y-14227759D01*
X43968618Y-14285203D01*
X43904102Y-14312025D01*
X43835326Y-14299709D01*
X43790834Y-14258393D01*
X43789486Y-14259416D01*
X43692922Y-14132077D01*
X43572343Y-14040639D01*
X43476192Y-14002722D01*
X43431564Y-13985123D01*
X43431563Y-13985122D01*
X43431561Y-13985122D01*
X43385926Y-13979642D01*
X43343102Y-13974500D01*
X42756898Y-13974500D01*
X42717853Y-13979188D01*
X42668438Y-13985122D01*
X42527656Y-14040639D01*
X42407077Y-14132077D01*
X42315639Y-14252656D01*
X42260122Y-14393438D01*
X42254188Y-14442853D01*
X42249500Y-14481898D01*
X42249500Y-14481903D01*
X42249500Y-14718980D01*
X42229815Y-14786019D01*
X42177011Y-14831774D01*
X42107853Y-14841718D01*
X42044297Y-14812693D01*
X42037819Y-14806661D01*
X36877045Y-9645887D01*
X36762307Y-9569222D01*
X36634832Y-9516421D01*
X36634822Y-9516418D01*
X36499496Y-9489500D01*
X36499494Y-9489500D01*
X36499493Y-9489500D01*
X26596336Y-9489500D01*
X26529297Y-9469815D01*
X26501493Y-9443555D01*
X26500725Y-9444212D01*
X26497554Y-9440500D01*
X26369499Y-9312445D01*
X26369494Y-9312441D01*
X26222995Y-9206004D01*
X26091314Y-9138908D01*
X26040519Y-9090934D01*
X26023724Y-9023113D01*
X26046262Y-8956978D01*
X26100977Y-8913527D01*
X26109295Y-8910492D01*
X26138217Y-8901095D01*
X26327554Y-8804622D01*
X26381716Y-8765270D01*
X26381717Y-8765270D01*
X25749409Y-8132962D01*
X25812993Y-8115925D01*
X25927007Y-8050099D01*
X26020099Y-7957007D01*
X26085925Y-7842993D01*
X26102962Y-7779409D01*
X26735270Y-8411717D01*
X26735270Y-8411716D01*
X26774622Y-8357554D01*
X26871095Y-8168217D01*
X26936757Y-7966130D01*
X26936757Y-7966127D01*
X26970000Y-7756246D01*
X26970000Y-7543753D01*
X26936757Y-7333872D01*
X26936757Y-7333869D01*
X26871095Y-7131782D01*
X26774624Y-6942449D01*
X26735270Y-6888282D01*
X26735269Y-6888282D01*
X26102962Y-7520590D01*
X26085925Y-7457007D01*
X26020099Y-7342993D01*
X25927007Y-7249901D01*
X25812993Y-7184075D01*
X25749407Y-7167036D01*
X26381716Y-6534728D01*
X26327550Y-6495375D01*
X26326786Y-6494986D01*
X26326546Y-6494759D01*
X26323396Y-6492829D01*
X26323801Y-6492167D01*
X26275988Y-6447013D01*
X26259191Y-6379192D01*
X26281726Y-6313057D01*
X26336440Y-6269604D01*
X26383077Y-6260499D01*
X26514856Y-6260499D01*
X26514864Y-6260499D01*
X26514879Y-6260497D01*
X26514882Y-6260497D01*
X26539987Y-6257586D01*
X26539988Y-6257585D01*
X26539991Y-6257585D01*
X26642765Y-6212206D01*
X26722206Y-6132765D01*
X26767585Y-6029991D01*
X26770500Y-6004865D01*
X26770500Y-5934500D01*
X26790185Y-5867461D01*
X26842989Y-5821706D01*
X26894500Y-5810500D01*
X29818481Y-5810500D01*
X29885520Y-5830185D01*
X29906162Y-5846819D01*
X30213181Y-6153838D01*
X30246666Y-6215161D01*
X30249500Y-6241519D01*
X30249500Y-6518102D01*
X30251497Y-6534728D01*
X30260122Y-6606561D01*
X30315639Y-6747343D01*
X30407077Y-6867922D01*
X30527656Y-6959360D01*
X30527657Y-6959360D01*
X30527658Y-6959361D01*
X30668436Y-7014877D01*
X30756898Y-7025500D01*
X30756903Y-7025500D01*
X31343097Y-7025500D01*
X31343102Y-7025500D01*
X31431564Y-7014877D01*
X31572342Y-6959361D01*
X31692922Y-6867922D01*
X31765328Y-6772441D01*
X31789486Y-6740584D01*
X31791317Y-6741972D01*
X31832607Y-6701689D01*
X31901058Y-6687682D01*
X31966216Y-6712905D01*
X32007394Y-6769351D01*
X32008391Y-6772241D01*
X32015640Y-6794115D01*
X32015643Y-6794124D01*
X32107684Y-6943345D01*
X32231654Y-7067315D01*
X32380875Y-7159356D01*
X32380880Y-7159358D01*
X32547302Y-7214505D01*
X32547309Y-7214506D01*
X32650019Y-7224999D01*
X33200000Y-7224999D01*
X33249972Y-7224999D01*
X33249986Y-7224998D01*
X33352697Y-7214505D01*
X33519119Y-7159358D01*
X33519124Y-7159356D01*
X33668345Y-7067315D01*
X33792315Y-6943345D01*
X33884356Y-6794124D01*
X33884358Y-6794119D01*
X33939505Y-6627697D01*
X33939506Y-6627690D01*
X33949999Y-6524986D01*
X33950000Y-6524973D01*
X33950000Y-6250000D01*
X33200000Y-6250000D01*
X33200000Y-7224999D01*
X32650019Y-7224999D01*
X32699999Y-7224998D01*
X32700000Y-7224998D01*
X32700000Y-5750000D01*
X33200000Y-5750000D01*
X33949999Y-5750000D01*
X33949999Y-5475028D01*
X33949998Y-5475013D01*
X33939505Y-5372302D01*
X33884358Y-5205880D01*
X33884356Y-5205875D01*
X33792315Y-5056654D01*
X33668345Y-4932684D01*
X33519124Y-4840643D01*
X33519119Y-4840641D01*
X33352697Y-4785494D01*
X33352690Y-4785493D01*
X33249986Y-4775000D01*
X33200000Y-4775000D01*
X33200000Y-5750000D01*
X32700000Y-5750000D01*
X32700000Y-4775000D01*
X32699999Y-4774999D01*
X32650029Y-4775000D01*
X32650011Y-4775001D01*
X32547302Y-4785494D01*
X32380880Y-4840641D01*
X32380875Y-4840643D01*
X32231654Y-4932684D01*
X32107684Y-5056654D01*
X32015643Y-5205875D01*
X32015640Y-5205884D01*
X32008391Y-5227759D01*
X31968618Y-5285203D01*
X31904102Y-5312025D01*
X31835326Y-5299709D01*
X31790834Y-5258393D01*
X31789486Y-5259416D01*
X31692922Y-5132077D01*
X31572343Y-5040639D01*
X31431561Y-4985122D01*
X31385926Y-4979642D01*
X31343102Y-4974500D01*
X31343097Y-4974500D01*
X31066519Y-4974500D01*
X30999480Y-4954815D01*
X30978838Y-4938181D01*
X30606639Y-4565981D01*
X30573154Y-4504658D01*
X30578138Y-4434966D01*
X30620010Y-4379033D01*
X30685474Y-4354616D01*
X30694320Y-4354300D01*
X48952613Y-4354300D01*
X49019652Y-4373985D01*
G37*
%TD.AperFunction*%
%TA.AperFunction,Conductor*%
G36*
X36156020Y-10910185D02*
G01*
X36176662Y-10926819D01*
X40750661Y-15500818D01*
X40784146Y-15562141D01*
X40779162Y-15631833D01*
X40750661Y-15676180D01*
X38058387Y-18368454D01*
X37981724Y-18483190D01*
X37926872Y-18615616D01*
X37883031Y-18670019D01*
X37816737Y-18692084D01*
X37780218Y-18687938D01*
X37778785Y-18687554D01*
X37700957Y-18666700D01*
X37542843Y-18666700D01*
X37390116Y-18707623D01*
X37390114Y-18707623D01*
X37382265Y-18709727D01*
X37382079Y-18709034D01*
X37343537Y-18716700D01*
X26626705Y-18716700D01*
X26559666Y-18697015D01*
X26513911Y-18644211D01*
X26503967Y-18575053D01*
X26526387Y-18519815D01*
X26558742Y-18475280D01*
X26603996Y-18412994D01*
X26686211Y-18251639D01*
X26742171Y-18079409D01*
X26766907Y-17923232D01*
X26770500Y-17900551D01*
X26770500Y-17719448D01*
X26747859Y-17576503D01*
X26742171Y-17540591D01*
X26694177Y-17392878D01*
X26686212Y-17368363D01*
X26686211Y-17368360D01*
X26657740Y-17312484D01*
X26603996Y-17207006D01*
X26549925Y-17132583D01*
X26497558Y-17060505D01*
X26497554Y-17060500D01*
X26369499Y-16932445D01*
X26369494Y-16932441D01*
X26222997Y-16826006D01*
X26222996Y-16826005D01*
X26222994Y-16826004D01*
X26164644Y-16796273D01*
X26061639Y-16743788D01*
X26061636Y-16743787D01*
X25889410Y-16687829D01*
X25729321Y-16662473D01*
X25666186Y-16632544D01*
X25629255Y-16573232D01*
X25630253Y-16503370D01*
X25668863Y-16445137D01*
X25729321Y-16417527D01*
X25799425Y-16406422D01*
X25889409Y-16392171D01*
X26061639Y-16336211D01*
X26222994Y-16253996D01*
X26369501Y-16147553D01*
X26497553Y-16019501D01*
X26603996Y-15872994D01*
X26686211Y-15711639D01*
X26742171Y-15539409D01*
X26766907Y-15383232D01*
X26770500Y-15360551D01*
X26770500Y-15179448D01*
X26749930Y-15049580D01*
X26742171Y-15000591D01*
X26687320Y-14831774D01*
X26686212Y-14828363D01*
X26686211Y-14828360D01*
X26630478Y-14718980D01*
X26603996Y-14667006D01*
X26590396Y-14648287D01*
X26497558Y-14520505D01*
X26497554Y-14520500D01*
X26369499Y-14392445D01*
X26369494Y-14392441D01*
X26222997Y-14286006D01*
X26222996Y-14286005D01*
X26222994Y-14286004D01*
X26157549Y-14252658D01*
X26061639Y-14203788D01*
X26061636Y-14203787D01*
X25889410Y-14147829D01*
X25729321Y-14122473D01*
X25666186Y-14092544D01*
X25629255Y-14033232D01*
X25630253Y-13963370D01*
X25668863Y-13905137D01*
X25729321Y-13877527D01*
X25799425Y-13866422D01*
X25889409Y-13852171D01*
X26061639Y-13796211D01*
X26222994Y-13713996D01*
X26369501Y-13607553D01*
X26497553Y-13479501D01*
X26603996Y-13332994D01*
X26686211Y-13171639D01*
X26742171Y-12999409D01*
X26766907Y-12843232D01*
X26770500Y-12820551D01*
X26770500Y-12639448D01*
X26752213Y-12523993D01*
X26742171Y-12460591D01*
X26714191Y-12374476D01*
X26686212Y-12288363D01*
X26686211Y-12288360D01*
X26657740Y-12232484D01*
X26603996Y-12127006D01*
X26590396Y-12108287D01*
X26497558Y-11980505D01*
X26497554Y-11980500D01*
X26369499Y-11852445D01*
X26369494Y-11852441D01*
X26222997Y-11746006D01*
X26222996Y-11746005D01*
X26222994Y-11746004D01*
X26164644Y-11716273D01*
X26061639Y-11663788D01*
X26061636Y-11663787D01*
X25889410Y-11607829D01*
X25729321Y-11582473D01*
X25666186Y-11552544D01*
X25629255Y-11493232D01*
X25630253Y-11423370D01*
X25668863Y-11365137D01*
X25729321Y-11337527D01*
X25799425Y-11326422D01*
X25889409Y-11312171D01*
X26061639Y-11256211D01*
X26222994Y-11173996D01*
X26369501Y-11067553D01*
X26497553Y-10939501D01*
X26497558Y-10939494D01*
X26500725Y-10935788D01*
X26502077Y-10936943D01*
X26551343Y-10898951D01*
X26596336Y-10890500D01*
X36088981Y-10890500D01*
X36156020Y-10910185D01*
G37*
%TD.AperFunction*%
%TA.AperFunction,Conductor*%
G36*
X67442539Y-520185D02*
G01*
X67488294Y-572989D01*
X67499500Y-624500D01*
X67499500Y-53375500D01*
X67479815Y-53442539D01*
X67427011Y-53488294D01*
X67375500Y-53499500D01*
X624500Y-53499500D01*
X557461Y-53479815D01*
X511706Y-53427011D01*
X500500Y-53375500D01*
X500500Y-49878711D01*
X2149500Y-49878711D01*
X2149500Y-50121288D01*
X2179675Y-50350500D01*
X2181162Y-50361789D01*
X2243946Y-50596100D01*
X2336776Y-50820212D01*
X2458064Y-51030289D01*
X2458066Y-51030292D01*
X2458067Y-51030293D01*
X2605733Y-51222736D01*
X2605739Y-51222743D01*
X2777256Y-51394260D01*
X2777262Y-51394265D01*
X2969711Y-51541936D01*
X3179788Y-51663224D01*
X3403900Y-51756054D01*
X3638211Y-51818838D01*
X3818586Y-51842584D01*
X3878711Y-51850500D01*
X3878712Y-51850500D01*
X4121289Y-51850500D01*
X4169388Y-51844167D01*
X4361789Y-51818838D01*
X4596100Y-51756054D01*
X4820212Y-51663224D01*
X5030289Y-51541936D01*
X5222738Y-51394265D01*
X5394265Y-51222738D01*
X5541936Y-51030289D01*
X5663224Y-50820212D01*
X5756054Y-50596100D01*
X5818838Y-50361789D01*
X5850500Y-50121288D01*
X5850500Y-49878712D01*
X5818838Y-49638211D01*
X5756054Y-49403900D01*
X5663224Y-49179788D01*
X5541936Y-48969711D01*
X5394265Y-48777262D01*
X5394260Y-48777256D01*
X5222743Y-48605739D01*
X5222736Y-48605733D01*
X5030293Y-48458067D01*
X5030292Y-48458066D01*
X5030289Y-48458064D01*
X4820212Y-48336776D01*
X4790575Y-48324500D01*
X4596104Y-48243947D01*
X4361785Y-48181161D01*
X4121289Y-48149500D01*
X4121288Y-48149500D01*
X3878712Y-48149500D01*
X3878711Y-48149500D01*
X3638214Y-48181161D01*
X3403895Y-48243947D01*
X3179794Y-48336773D01*
X3179785Y-48336777D01*
X2969706Y-48458067D01*
X2777263Y-48605733D01*
X2777256Y-48605739D01*
X2605739Y-48777256D01*
X2605733Y-48777263D01*
X2458067Y-48969706D01*
X2458064Y-48969710D01*
X2458064Y-48969711D01*
X2453721Y-48977234D01*
X2336777Y-49179785D01*
X2336773Y-49179794D01*
X2243947Y-49403895D01*
X2181161Y-49638214D01*
X2149500Y-49878711D01*
X500500Y-49878711D01*
X500500Y-46906898D01*
X9399500Y-46906898D01*
X9399500Y-49093102D01*
X9403023Y-49122441D01*
X9410122Y-49181561D01*
X9410122Y-49181563D01*
X9410123Y-49181564D01*
X9427722Y-49226192D01*
X9465639Y-49322343D01*
X9557077Y-49442922D01*
X9677656Y-49534360D01*
X9677657Y-49534360D01*
X9677658Y-49534361D01*
X9818436Y-49589877D01*
X9906898Y-49600500D01*
X11558481Y-49600500D01*
X11625520Y-49620185D01*
X11646162Y-49636819D01*
X12505753Y-50496411D01*
X12505754Y-50496412D01*
X12620490Y-50573076D01*
X12719090Y-50613917D01*
X12747971Y-50625880D01*
X12747972Y-50625880D01*
X12747977Y-50625882D01*
X12774845Y-50631225D01*
X12774851Y-50631226D01*
X12774891Y-50631234D01*
X12865237Y-50649205D01*
X12883306Y-50652800D01*
X12883307Y-50652800D01*
X23179196Y-50652800D01*
X23287657Y-50631225D01*
X23314528Y-50625880D01*
X23386426Y-50596099D01*
X23442007Y-50573077D01*
X23442008Y-50573076D01*
X23442011Y-50573075D01*
X23556743Y-50496414D01*
X23935306Y-50117849D01*
X23996625Y-50084367D01*
X24066317Y-50089351D01*
X24079014Y-50095081D01*
X24080688Y-50095774D01*
X24080689Y-50095775D01*
X24208172Y-50148580D01*
X24208176Y-50148580D01*
X24208177Y-50148581D01*
X24343503Y-50175500D01*
X24343506Y-50175500D01*
X24343507Y-50175500D01*
X27892405Y-50175500D01*
X27959444Y-50195185D01*
X27967331Y-50200697D01*
X28077656Y-50284360D01*
X28077657Y-50284360D01*
X28077658Y-50284361D01*
X28218436Y-50339877D01*
X28306898Y-50350500D01*
X28833481Y-50350500D01*
X28900520Y-50370185D01*
X28921157Y-50386814D01*
X29078457Y-50544114D01*
X29156260Y-50596100D01*
X29193189Y-50620775D01*
X29320672Y-50673580D01*
X29320676Y-50673580D01*
X29320677Y-50673581D01*
X29456004Y-50700500D01*
X29456007Y-50700500D01*
X44725501Y-50700500D01*
X44792540Y-50720185D01*
X44838295Y-50772989D01*
X44849501Y-50824500D01*
X44849501Y-50894856D01*
X44849502Y-50894882D01*
X44852413Y-50919987D01*
X44852415Y-50919991D01*
X44897793Y-51022764D01*
X44897794Y-51022765D01*
X44977235Y-51102206D01*
X45080009Y-51147585D01*
X45105135Y-51150500D01*
X46894864Y-51150499D01*
X46894879Y-51150497D01*
X46894882Y-51150497D01*
X46919987Y-51147586D01*
X46919988Y-51147585D01*
X46919991Y-51147585D01*
X47022765Y-51102206D01*
X47102206Y-51022765D01*
X47147585Y-50919991D01*
X47150500Y-50894865D01*
X47150499Y-49909448D01*
X49929500Y-49909448D01*
X49929500Y-50090551D01*
X49957829Y-50269410D01*
X50013787Y-50441636D01*
X50013788Y-50441639D01*
X50041698Y-50496414D01*
X50092491Y-50596100D01*
X50096006Y-50602997D01*
X50202441Y-50749494D01*
X50202445Y-50749499D01*
X50330500Y-50877554D01*
X50330505Y-50877558D01*
X50458287Y-50970396D01*
X50477006Y-50983996D01*
X50582484Y-51037740D01*
X50638360Y-51066211D01*
X50638363Y-51066212D01*
X50724476Y-51094191D01*
X50810591Y-51122171D01*
X50893429Y-51135291D01*
X50989449Y-51150500D01*
X50989454Y-51150500D01*
X51170551Y-51150500D01*
X51257259Y-51136765D01*
X51349409Y-51122171D01*
X51521639Y-51066211D01*
X51682994Y-50983996D01*
X51829501Y-50877553D01*
X51957553Y-50749501D01*
X52063996Y-50602994D01*
X52146211Y-50441639D01*
X52202171Y-50269409D01*
X52221308Y-50148581D01*
X52230500Y-50090551D01*
X52230500Y-49909449D01*
X52228061Y-49894052D01*
X52228061Y-49894051D01*
X52225631Y-49878711D01*
X62149500Y-49878711D01*
X62149500Y-50121288D01*
X62179675Y-50350500D01*
X62181162Y-50361789D01*
X62243946Y-50596100D01*
X62336776Y-50820212D01*
X62458064Y-51030289D01*
X62458066Y-51030292D01*
X62458067Y-51030293D01*
X62605733Y-51222736D01*
X62605739Y-51222743D01*
X62777256Y-51394260D01*
X62777262Y-51394265D01*
X62969711Y-51541936D01*
X63179788Y-51663224D01*
X63403900Y-51756054D01*
X63638211Y-51818838D01*
X63818586Y-51842584D01*
X63878711Y-51850500D01*
X63878712Y-51850500D01*
X64121289Y-51850500D01*
X64169388Y-51844167D01*
X64361789Y-51818838D01*
X64596100Y-51756054D01*
X64820212Y-51663224D01*
X65030289Y-51541936D01*
X65222738Y-51394265D01*
X65394265Y-51222738D01*
X65541936Y-51030289D01*
X65663224Y-50820212D01*
X65756054Y-50596100D01*
X65818838Y-50361789D01*
X65850500Y-50121288D01*
X65850500Y-49878712D01*
X65818838Y-49638211D01*
X65756054Y-49403900D01*
X65663224Y-49179788D01*
X65541936Y-48969711D01*
X65394265Y-48777262D01*
X65394260Y-48777256D01*
X65222743Y-48605739D01*
X65222736Y-48605733D01*
X65030293Y-48458067D01*
X65030292Y-48458066D01*
X65030289Y-48458064D01*
X64820212Y-48336776D01*
X64790575Y-48324500D01*
X64596104Y-48243947D01*
X64361785Y-48181161D01*
X64121289Y-48149500D01*
X64121288Y-48149500D01*
X63878712Y-48149500D01*
X63878711Y-48149500D01*
X63638214Y-48181161D01*
X63403895Y-48243947D01*
X63179794Y-48336773D01*
X63179785Y-48336777D01*
X62969706Y-48458067D01*
X62777263Y-48605733D01*
X62777256Y-48605739D01*
X62605739Y-48777256D01*
X62605733Y-48777263D01*
X62458067Y-48969706D01*
X62458064Y-48969710D01*
X62458064Y-48969711D01*
X62453721Y-48977234D01*
X62336777Y-49179785D01*
X62336773Y-49179794D01*
X62243947Y-49403895D01*
X62181161Y-49638214D01*
X62149500Y-49878711D01*
X52225631Y-49878711D01*
X52216112Y-49818613D01*
X52202171Y-49730591D01*
X52146211Y-49558361D01*
X52146211Y-49558360D01*
X52117740Y-49502484D01*
X52063996Y-49397006D01*
X52050396Y-49378287D01*
X51957558Y-49250505D01*
X51957554Y-49250500D01*
X51829499Y-49122445D01*
X51829494Y-49122441D01*
X51682997Y-49016006D01*
X51682996Y-49016005D01*
X51682994Y-49016004D01*
X51606906Y-48977235D01*
X51521639Y-48933788D01*
X51521636Y-48933787D01*
X51349410Y-48877829D01*
X51170551Y-48849500D01*
X51170546Y-48849500D01*
X50989454Y-48849500D01*
X50989449Y-48849500D01*
X50810589Y-48877829D01*
X50638363Y-48933787D01*
X50638360Y-48933788D01*
X50477002Y-49016006D01*
X50330505Y-49122441D01*
X50330500Y-49122445D01*
X50202445Y-49250500D01*
X50202441Y-49250505D01*
X50096006Y-49397002D01*
X50013788Y-49558360D01*
X50013787Y-49558363D01*
X49957829Y-49730589D01*
X49929500Y-49909448D01*
X47150499Y-49909448D01*
X47150499Y-49105136D01*
X47149242Y-49094297D01*
X47147586Y-49080012D01*
X47147585Y-49080010D01*
X47147585Y-49080009D01*
X47102206Y-48977235D01*
X47022765Y-48897794D01*
X47022763Y-48897793D01*
X46919992Y-48852415D01*
X46894868Y-48849500D01*
X46894865Y-48849500D01*
X46824500Y-48849500D01*
X46757461Y-48829815D01*
X46711706Y-48777011D01*
X46700500Y-48725500D01*
X46700500Y-48431004D01*
X46673581Y-48295677D01*
X46673580Y-48295676D01*
X46673580Y-48295672D01*
X46652155Y-48243947D01*
X46620778Y-48168195D01*
X46620771Y-48168182D01*
X46556821Y-48072475D01*
X46556819Y-48072472D01*
X46544116Y-48053459D01*
X42458319Y-43967662D01*
X42424834Y-43906339D01*
X42422000Y-43879981D01*
X42422000Y-43174499D01*
X42441685Y-43107460D01*
X42494489Y-43061705D01*
X42546000Y-43050499D01*
X43175500Y-43050499D01*
X43242539Y-43070184D01*
X43288294Y-43122988D01*
X43299500Y-43174499D01*
X43299500Y-43331006D01*
X43299500Y-43468994D01*
X43299500Y-43468996D01*
X43299499Y-43468996D01*
X43326418Y-43604322D01*
X43326421Y-43604332D01*
X43379222Y-43731807D01*
X43455887Y-43846545D01*
X44153454Y-44544112D01*
X44268190Y-44620776D01*
X44366790Y-44661617D01*
X44395671Y-44673580D01*
X44395672Y-44673580D01*
X44395677Y-44673582D01*
X44422545Y-44678925D01*
X44422551Y-44678926D01*
X44422591Y-44678934D01*
X44512937Y-44696905D01*
X44531006Y-44700500D01*
X44531007Y-44700500D01*
X53108932Y-44700500D01*
X53175971Y-44720185D01*
X53177823Y-44721398D01*
X53200082Y-44736271D01*
X53200095Y-44736278D01*
X53327567Y-44789078D01*
X53327572Y-44789080D01*
X53327576Y-44789080D01*
X53327577Y-44789081D01*
X53462904Y-44816000D01*
X53462907Y-44816000D01*
X53600893Y-44816000D01*
X54292764Y-44816000D01*
X54359803Y-44835685D01*
X54361647Y-44836892D01*
X54502402Y-44930941D01*
X54693580Y-45010130D01*
X54896530Y-45050499D01*
X54896534Y-45050500D01*
X54896535Y-45050500D01*
X55103466Y-45050500D01*
X55103467Y-45050499D01*
X55306420Y-45010130D01*
X55497598Y-44930941D01*
X55669655Y-44815977D01*
X55815977Y-44669655D01*
X55930941Y-44497598D01*
X56010130Y-44306420D01*
X56050500Y-44103465D01*
X56050500Y-43896535D01*
X56010130Y-43693580D01*
X55930941Y-43502402D01*
X55815977Y-43330345D01*
X55815975Y-43330342D01*
X55669657Y-43184024D01*
X55558636Y-43109843D01*
X55497598Y-43069059D01*
X55453553Y-43050815D01*
X55306420Y-42989870D01*
X55306412Y-42989868D01*
X55103469Y-42949500D01*
X55103465Y-42949500D01*
X54896535Y-42949500D01*
X54896530Y-42949500D01*
X54693587Y-42989868D01*
X54693579Y-42989870D01*
X54502403Y-43069058D01*
X54502402Y-43069059D01*
X54330345Y-43184023D01*
X54251185Y-43263182D01*
X54189865Y-43296666D01*
X54163506Y-43299500D01*
X44941519Y-43299500D01*
X44912078Y-43290855D01*
X44882092Y-43284332D01*
X44877076Y-43280577D01*
X44874480Y-43279815D01*
X44853838Y-43263181D01*
X44852837Y-43262180D01*
X44819352Y-43200857D01*
X44824336Y-43131165D01*
X44866208Y-43075232D01*
X44931672Y-43050815D01*
X44940494Y-43050499D01*
X45844864Y-43050499D01*
X45844879Y-43050497D01*
X45844882Y-43050497D01*
X45869987Y-43047586D01*
X45869988Y-43047585D01*
X45869991Y-43047585D01*
X45972765Y-43002206D01*
X46052206Y-42922765D01*
X46097585Y-42819991D01*
X46098720Y-42810208D01*
X46126001Y-42745884D01*
X46183727Y-42706520D01*
X46221894Y-42700500D01*
X46381007Y-42700500D01*
X47542034Y-42700500D01*
X47589485Y-42709938D01*
X47709572Y-42759680D01*
X47709576Y-42759680D01*
X47709577Y-42759681D01*
X47844903Y-42786600D01*
X47844906Y-42786600D01*
X47982896Y-42786600D01*
X48073942Y-42768489D01*
X48118229Y-42759680D01*
X48245711Y-42706875D01*
X48360443Y-42630214D01*
X48458014Y-42532643D01*
X48458015Y-42532642D01*
X49903838Y-41086819D01*
X49965161Y-41053334D01*
X49991519Y-41050500D01*
X50103466Y-41050500D01*
X50103467Y-41050499D01*
X50137764Y-41043677D01*
X54309873Y-41043677D01*
X54309873Y-41043678D01*
X54344858Y-41069096D01*
X54520164Y-41158418D01*
X54707294Y-41219221D01*
X54901618Y-41250000D01*
X55098382Y-41250000D01*
X55292705Y-41219221D01*
X55479835Y-41158418D01*
X55655143Y-41069095D01*
X55690125Y-41043678D01*
X55690126Y-41043678D01*
X55000001Y-40353553D01*
X55000000Y-40353553D01*
X54309873Y-41043677D01*
X50137764Y-41043677D01*
X50306420Y-41010130D01*
X50497598Y-40930941D01*
X50669655Y-40815977D01*
X50815977Y-40669655D01*
X50930941Y-40497598D01*
X51010130Y-40306420D01*
X51050500Y-40103465D01*
X51050500Y-39901617D01*
X53750000Y-39901617D01*
X53750000Y-40098382D01*
X53780778Y-40292705D01*
X53841581Y-40479835D01*
X53930905Y-40655145D01*
X53956319Y-40690125D01*
X53956320Y-40690125D01*
X54646446Y-40000000D01*
X54646446Y-39999999D01*
X55353553Y-39999999D01*
X55353553Y-40000000D01*
X56043678Y-40690126D01*
X56043678Y-40690125D01*
X56069095Y-40655143D01*
X56158418Y-40479835D01*
X56219221Y-40292705D01*
X56250000Y-40098382D01*
X56250000Y-39901617D01*
X56219221Y-39707294D01*
X56158418Y-39520164D01*
X56069096Y-39344858D01*
X56043678Y-39309873D01*
X56043677Y-39309873D01*
X55353553Y-39999999D01*
X54646446Y-39999999D01*
X53956320Y-39309872D01*
X53956320Y-39309873D01*
X53930902Y-39344859D01*
X53930899Y-39344863D01*
X53841582Y-39520161D01*
X53780778Y-39707294D01*
X53750000Y-39901617D01*
X51050500Y-39901617D01*
X51050500Y-39896535D01*
X51010130Y-39693580D01*
X50930941Y-39502402D01*
X50815977Y-39330345D01*
X50815975Y-39330342D01*
X50669658Y-39184025D01*
X50669650Y-39184019D01*
X50553979Y-39106730D01*
X50553905Y-39106682D01*
X50497598Y-39069059D01*
X50306420Y-38989870D01*
X50306412Y-38989868D01*
X50137755Y-38956320D01*
X54309872Y-38956320D01*
X55000000Y-39646446D01*
X55000001Y-39646446D01*
X55690125Y-38956320D01*
X55690125Y-38956319D01*
X55655145Y-38930905D01*
X55479835Y-38841581D01*
X55292705Y-38780778D01*
X55098382Y-38750000D01*
X54901618Y-38750000D01*
X54707294Y-38780778D01*
X54520161Y-38841582D01*
X54344863Y-38930899D01*
X54344859Y-38930902D01*
X54309873Y-38956320D01*
X54309872Y-38956320D01*
X50137755Y-38956320D01*
X50103469Y-38949500D01*
X50103465Y-38949500D01*
X49896535Y-38949500D01*
X49896530Y-38949500D01*
X49693587Y-38989868D01*
X49693579Y-38989870D01*
X49502403Y-39069058D01*
X49330342Y-39184024D01*
X49184024Y-39330342D01*
X49069058Y-39502403D01*
X48989870Y-39693579D01*
X48989868Y-39693587D01*
X48949500Y-39896530D01*
X48949500Y-40008481D01*
X48929815Y-40075520D01*
X48913181Y-40096162D01*
X47746162Y-41263181D01*
X47684839Y-41296666D01*
X47658481Y-41299500D01*
X46221893Y-41299500D01*
X46154854Y-41279815D01*
X46109099Y-41227011D01*
X46098718Y-41189783D01*
X46097585Y-41180009D01*
X46052206Y-41077235D01*
X45972765Y-40997794D01*
X45972763Y-40997793D01*
X45869992Y-40952415D01*
X45844865Y-40949500D01*
X44755143Y-40949500D01*
X44755117Y-40949502D01*
X44730014Y-40952413D01*
X44730010Y-40952414D01*
X44700083Y-40965628D01*
X44630804Y-40974697D01*
X44599915Y-40965627D01*
X44569992Y-40952415D01*
X44544865Y-40949500D01*
X43455143Y-40949500D01*
X43455117Y-40949502D01*
X43430014Y-40952413D01*
X43430010Y-40952414D01*
X43400083Y-40965628D01*
X43330804Y-40974697D01*
X43299915Y-40965627D01*
X43269992Y-40952415D01*
X43244865Y-40949500D01*
X42155143Y-40949500D01*
X42155117Y-40949502D01*
X42130012Y-40952413D01*
X42130008Y-40952415D01*
X42027235Y-40997793D01*
X41947794Y-41077234D01*
X41902415Y-41180006D01*
X41902415Y-41180008D01*
X41901280Y-41189792D01*
X41873999Y-41254116D01*
X41816273Y-41293480D01*
X41778106Y-41299500D01*
X41481005Y-41299500D01*
X41345677Y-41326418D01*
X41345667Y-41326421D01*
X41218195Y-41379221D01*
X41218182Y-41379228D01*
X41103458Y-41455885D01*
X41103454Y-41455888D01*
X41005888Y-41553454D01*
X41005885Y-41553458D01*
X40929228Y-41668182D01*
X40929221Y-41668195D01*
X40876421Y-41795667D01*
X40876418Y-41795677D01*
X40849500Y-41931004D01*
X40849500Y-41931007D01*
X40849500Y-42068993D01*
X40849500Y-42068995D01*
X40849499Y-42068995D01*
X40876418Y-42204322D01*
X40876421Y-42204332D01*
X40929221Y-42331804D01*
X40929228Y-42331817D01*
X41000102Y-42437886D01*
X41020980Y-42504563D01*
X41021000Y-42506777D01*
X41021000Y-44152506D01*
X41021000Y-44290494D01*
X41021000Y-44290496D01*
X41020999Y-44290496D01*
X41047918Y-44425822D01*
X41047921Y-44425832D01*
X41100722Y-44553307D01*
X41177387Y-44668045D01*
X41177388Y-44668046D01*
X43297162Y-46787819D01*
X43330647Y-46849142D01*
X43325663Y-46918834D01*
X43283791Y-46974767D01*
X43218327Y-46999184D01*
X43209481Y-46999500D01*
X42651140Y-46999500D01*
X42585544Y-47007377D01*
X42563677Y-47010003D01*
X42424502Y-47064887D01*
X42424500Y-47064888D01*
X42305288Y-47155288D01*
X42209764Y-47281258D01*
X42207518Y-47279555D01*
X42167509Y-47318561D01*
X42099053Y-47332545D01*
X42033904Y-47307299D01*
X41992746Y-47250838D01*
X41991762Y-47247985D01*
X41984903Y-47227287D01*
X41984903Y-47227285D01*
X41893629Y-47079308D01*
X41770691Y-46956370D01*
X41622714Y-46865096D01*
X41622709Y-46865094D01*
X41457673Y-46810407D01*
X41355815Y-46800000D01*
X41312500Y-46800000D01*
X41312500Y-47876000D01*
X41292815Y-47943039D01*
X41240011Y-47988794D01*
X41188500Y-48000000D01*
X41062500Y-48000000D01*
X41062500Y-48126000D01*
X41042815Y-48193039D01*
X40990011Y-48238794D01*
X40938500Y-48250000D01*
X40075000Y-48250000D01*
X40075000Y-48508965D01*
X40073780Y-48508965D01*
X40058661Y-48572159D01*
X40008247Y-48620535D01*
X39951078Y-48634500D01*
X39370864Y-48634500D01*
X39303825Y-48614815D01*
X39269028Y-48578322D01*
X39268360Y-48578836D01*
X39263588Y-48572617D01*
X39263478Y-48572502D01*
X39263412Y-48572388D01*
X39263408Y-48572383D01*
X38761819Y-48070794D01*
X38728334Y-48009471D01*
X38725500Y-47983113D01*
X38725500Y-47506901D01*
X38725369Y-47505810D01*
X38724808Y-47501140D01*
X38723973Y-47494184D01*
X40075000Y-47494184D01*
X40075000Y-47750000D01*
X40812500Y-47750000D01*
X40812500Y-46800000D01*
X40769184Y-46800000D01*
X40667326Y-46810407D01*
X40502290Y-46865094D01*
X40502285Y-46865096D01*
X40354308Y-46956370D01*
X40231370Y-47079308D01*
X40140096Y-47227285D01*
X40140094Y-47227290D01*
X40085407Y-47392326D01*
X40075000Y-47494184D01*
X38723973Y-47494184D01*
X38714877Y-47418436D01*
X38659361Y-47277658D01*
X38659360Y-47277657D01*
X38659360Y-47277656D01*
X38567922Y-47157077D01*
X38447343Y-47065639D01*
X38306561Y-47010122D01*
X38260926Y-47004642D01*
X38218102Y-46999500D01*
X37606898Y-46999500D01*
X37567853Y-47004188D01*
X37518438Y-47010122D01*
X37377656Y-47065639D01*
X37257077Y-47157077D01*
X37165639Y-47277656D01*
X37145396Y-47328990D01*
X37115353Y-47405171D01*
X37072449Y-47460314D01*
X37006541Y-47483507D01*
X36938556Y-47467386D01*
X36890080Y-47417070D01*
X36884648Y-47405178D01*
X36834361Y-47277658D01*
X36834360Y-47277657D01*
X36834360Y-47277656D01*
X36742922Y-47157077D01*
X36622343Y-47065639D01*
X36481561Y-47010122D01*
X36435926Y-47004642D01*
X36393102Y-46999500D01*
X36393097Y-46999500D01*
X35916887Y-46999500D01*
X35887446Y-46990855D01*
X35857460Y-46984332D01*
X35852444Y-46980577D01*
X35849848Y-46979815D01*
X35829206Y-46963181D01*
X35770795Y-46904770D01*
X35748962Y-46872095D01*
X35748341Y-46872454D01*
X35665224Y-46728490D01*
X35665218Y-46728482D01*
X35553417Y-46616681D01*
X35553409Y-46616675D01*
X35416490Y-46537626D01*
X35416486Y-46537624D01*
X35416484Y-46537623D01*
X35263757Y-46496700D01*
X35105643Y-46496700D01*
X34952916Y-46537623D01*
X34952909Y-46537626D01*
X34815990Y-46616675D01*
X34815982Y-46616681D01*
X34704181Y-46728482D01*
X34704175Y-46728490D01*
X34625126Y-46865409D01*
X34625123Y-46865416D01*
X34584200Y-47018143D01*
X34584200Y-47176257D01*
X34622273Y-47318345D01*
X34625123Y-47328983D01*
X34625126Y-47328990D01*
X34704175Y-47465909D01*
X34704179Y-47465914D01*
X34704180Y-47465916D01*
X34815984Y-47577720D01*
X34815986Y-47577721D01*
X34815990Y-47577724D01*
X34959954Y-47660841D01*
X34959595Y-47661462D01*
X34992270Y-47683295D01*
X35238181Y-47929206D01*
X35271666Y-47990529D01*
X35274500Y-48016887D01*
X35274500Y-48493102D01*
X35276405Y-48508965D01*
X35285122Y-48581561D01*
X35285122Y-48581563D01*
X35285123Y-48581564D01*
X35296275Y-48609843D01*
X35340639Y-48722343D01*
X35432077Y-48842922D01*
X35552656Y-48934360D01*
X35552657Y-48934360D01*
X35552658Y-48934361D01*
X35693436Y-48989877D01*
X35781898Y-49000500D01*
X35781903Y-49000500D01*
X36393097Y-49000500D01*
X36393102Y-49000500D01*
X36481564Y-48989877D01*
X36622342Y-48934361D01*
X36742922Y-48842922D01*
X36834361Y-48722342D01*
X36884646Y-48594826D01*
X36927551Y-48539685D01*
X36993459Y-48516492D01*
X37061443Y-48532612D01*
X37109920Y-48582929D01*
X37115348Y-48594814D01*
X37143278Y-48665639D01*
X37165639Y-48722343D01*
X37257077Y-48842922D01*
X37377656Y-48934360D01*
X37377657Y-48934360D01*
X37377658Y-48934361D01*
X37518436Y-48989877D01*
X37606898Y-49000500D01*
X38083113Y-49000500D01*
X38112553Y-49009144D01*
X38142540Y-49015668D01*
X38147555Y-49019422D01*
X38150152Y-49020185D01*
X38170794Y-49036819D01*
X38221794Y-49087819D01*
X38255279Y-49149142D01*
X38250295Y-49218834D01*
X38208423Y-49274767D01*
X38142959Y-49299184D01*
X38134113Y-49299500D01*
X30324500Y-49299500D01*
X30257461Y-49279815D01*
X30211706Y-49227011D01*
X30200500Y-49175500D01*
X30200500Y-49106903D01*
X30200500Y-49106898D01*
X30189877Y-49018436D01*
X30134361Y-48877658D01*
X30134360Y-48877657D01*
X30134360Y-48877656D01*
X30042922Y-48757077D01*
X29922343Y-48665639D01*
X29781561Y-48610122D01*
X29735926Y-48604642D01*
X29693102Y-48599500D01*
X28306898Y-48599500D01*
X28267853Y-48604188D01*
X28218438Y-48610122D01*
X28077656Y-48665639D01*
X27967331Y-48749303D01*
X27902019Y-48774127D01*
X27892405Y-48774500D01*
X24996502Y-48774500D01*
X24929463Y-48754815D01*
X24883708Y-48702011D01*
X24881148Y-48695990D01*
X24838116Y-48586871D01*
X24838115Y-48586868D01*
X24837700Y-48586321D01*
X24751867Y-48473132D01*
X24638134Y-48386886D01*
X24638132Y-48386885D01*
X24505346Y-48334521D01*
X24505345Y-48334520D01*
X24505343Y-48334520D01*
X24421902Y-48324500D01*
X23578098Y-48324500D01*
X23494656Y-48334520D01*
X23494655Y-48334520D01*
X23361865Y-48386886D01*
X23248132Y-48473132D01*
X23161886Y-48586865D01*
X23109520Y-48719655D01*
X23109520Y-48719656D01*
X23099500Y-48803097D01*
X23099500Y-48920981D01*
X23079815Y-48988020D01*
X23063181Y-49008662D01*
X22856362Y-49215481D01*
X22795039Y-49248966D01*
X22768681Y-49251800D01*
X13293819Y-49251800D01*
X13226780Y-49232115D01*
X13206138Y-49215481D01*
X12636819Y-48646162D01*
X12603334Y-48584839D01*
X12600500Y-48558481D01*
X12600500Y-46906903D01*
X12600500Y-46906898D01*
X12589877Y-46818436D01*
X12534361Y-46677658D01*
X12534360Y-46677657D01*
X12534360Y-46677656D01*
X12442922Y-46557077D01*
X12322343Y-46465639D01*
X12181561Y-46410122D01*
X12135926Y-46404642D01*
X12093102Y-46399500D01*
X9906898Y-46399500D01*
X9867853Y-46404188D01*
X9818438Y-46410122D01*
X9677656Y-46465639D01*
X9557077Y-46557077D01*
X9465639Y-46677656D01*
X9410122Y-46818438D01*
X9404520Y-46865094D01*
X9399500Y-46906898D01*
X500500Y-46906898D01*
X500500Y-24490000D01*
X7500000Y-24490000D01*
X7500000Y-28260000D01*
X25351081Y-28260000D01*
X25418120Y-28279685D01*
X25438762Y-28296319D01*
X31054761Y-33912318D01*
X31088246Y-33973641D01*
X31083262Y-34043333D01*
X31054761Y-34087680D01*
X23455885Y-41686556D01*
X23382977Y-41795671D01*
X23382978Y-41795672D01*
X23379226Y-41801285D01*
X23379224Y-41801289D01*
X23326420Y-41928771D01*
X23326418Y-41928777D01*
X23299500Y-42064104D01*
X23299500Y-46247590D01*
X23279815Y-46314629D01*
X23250428Y-46346392D01*
X23248132Y-46348132D01*
X23161886Y-46461865D01*
X23109520Y-46594655D01*
X23109520Y-46594656D01*
X23099500Y-46678097D01*
X23099500Y-47196902D01*
X23109520Y-47280343D01*
X23109520Y-47280344D01*
X23161886Y-47413134D01*
X23248132Y-47526867D01*
X23344572Y-47599999D01*
X23361868Y-47613115D01*
X23494654Y-47665479D01*
X23578098Y-47675500D01*
X24421902Y-47675500D01*
X24505346Y-47665479D01*
X24638132Y-47613115D01*
X24751867Y-47526867D01*
X24838115Y-47413132D01*
X24890479Y-47280346D01*
X24900500Y-47196902D01*
X24900500Y-46899986D01*
X27600001Y-46899986D01*
X27610494Y-47002697D01*
X27665641Y-47169119D01*
X27665643Y-47169124D01*
X27757684Y-47318345D01*
X27881654Y-47442315D01*
X28030875Y-47534356D01*
X28030880Y-47534358D01*
X28197302Y-47589505D01*
X28197309Y-47589506D01*
X28300019Y-47599999D01*
X28749999Y-47599999D01*
X29250000Y-47599999D01*
X29699972Y-47599999D01*
X29699986Y-47599998D01*
X29802697Y-47589505D01*
X29969119Y-47534358D01*
X29969124Y-47534356D01*
X30118345Y-47442315D01*
X30242315Y-47318345D01*
X30334356Y-47169124D01*
X30334358Y-47169119D01*
X30389505Y-47002697D01*
X30389506Y-47002690D01*
X30399999Y-46899986D01*
X30400000Y-46899973D01*
X30400000Y-46775000D01*
X29250000Y-46775000D01*
X29250000Y-47599999D01*
X28749999Y-47599999D01*
X28750000Y-47599998D01*
X28750000Y-46775000D01*
X27600001Y-46775000D01*
X27600001Y-46899986D01*
X24900500Y-46899986D01*
X24900500Y-46678098D01*
X24890479Y-46594654D01*
X24838115Y-46461868D01*
X24790820Y-46399500D01*
X24751867Y-46348132D01*
X24749572Y-46346392D01*
X24748001Y-46344266D01*
X24746501Y-46342766D01*
X24743297Y-46341303D01*
X24726506Y-46315175D01*
X24708050Y-46290198D01*
X24707134Y-46285032D01*
X24705523Y-46282525D01*
X24700500Y-46247590D01*
X24700500Y-46150013D01*
X27600000Y-46150013D01*
X27600000Y-46275000D01*
X28750000Y-46275000D01*
X29250000Y-46275000D01*
X30399999Y-46275000D01*
X30399999Y-46150028D01*
X30399998Y-46150013D01*
X30389505Y-46047302D01*
X30334358Y-45880880D01*
X30334356Y-45880875D01*
X30242315Y-45731654D01*
X30118345Y-45607684D01*
X29969124Y-45515643D01*
X29969119Y-45515641D01*
X29802697Y-45460494D01*
X29802690Y-45460493D01*
X29699986Y-45450000D01*
X29250000Y-45450000D01*
X29250000Y-46275000D01*
X28750000Y-46275000D01*
X28750000Y-45450000D01*
X28300028Y-45450000D01*
X28300012Y-45450001D01*
X28197302Y-45460494D01*
X28030880Y-45515641D01*
X28030875Y-45515643D01*
X27881654Y-45607684D01*
X27757684Y-45731654D01*
X27665643Y-45880875D01*
X27665641Y-45880880D01*
X27610494Y-46047302D01*
X27610493Y-46047309D01*
X27600000Y-46150013D01*
X24700500Y-46150013D01*
X24700500Y-42474618D01*
X24720185Y-42407579D01*
X24736819Y-42386937D01*
X28325319Y-38798437D01*
X28386642Y-38764952D01*
X28456334Y-38769936D01*
X28512267Y-38811808D01*
X28536684Y-38877272D01*
X28537000Y-38886118D01*
X28537000Y-41015923D01*
X28517315Y-41082962D01*
X28487927Y-41114726D01*
X28432076Y-41157079D01*
X28432074Y-41157082D01*
X28340639Y-41277656D01*
X28285122Y-41418438D01*
X28280094Y-41460314D01*
X28274500Y-41506898D01*
X28274500Y-42493102D01*
X28276888Y-42512984D01*
X28285122Y-42581561D01*
X28340639Y-42722343D01*
X28432077Y-42842922D01*
X28552656Y-42934360D01*
X28552657Y-42934360D01*
X28552658Y-42934361D01*
X28693436Y-42989877D01*
X28781898Y-43000500D01*
X28781903Y-43000500D01*
X29393097Y-43000500D01*
X29393102Y-43000500D01*
X29481564Y-42989877D01*
X29622342Y-42934361D01*
X29742922Y-42842922D01*
X29834361Y-42722342D01*
X29884646Y-42594826D01*
X29927551Y-42539685D01*
X29993459Y-42516492D01*
X30061443Y-42532612D01*
X30109920Y-42582929D01*
X30115348Y-42594814D01*
X30150652Y-42684339D01*
X30165639Y-42722343D01*
X30257077Y-42842922D01*
X30377656Y-42934360D01*
X30377657Y-42934360D01*
X30377658Y-42934361D01*
X30518436Y-42989877D01*
X30606898Y-43000500D01*
X30606903Y-43000500D01*
X31218097Y-43000500D01*
X31218102Y-43000500D01*
X31306564Y-42989877D01*
X31447342Y-42934361D01*
X31567922Y-42842922D01*
X31659361Y-42722342D01*
X31696167Y-42629008D01*
X31739072Y-42573866D01*
X31804980Y-42550673D01*
X31811521Y-42550500D01*
X32984872Y-42550500D01*
X32984874Y-42550500D01*
X32984875Y-42550500D01*
X33124885Y-42512984D01*
X33159322Y-42493102D01*
X33250415Y-42440510D01*
X35578010Y-40112914D01*
X35650484Y-39987385D01*
X35688000Y-39847374D01*
X35688000Y-39702426D01*
X35688000Y-39651969D01*
X35707685Y-39584930D01*
X35760489Y-39539175D01*
X35771025Y-39534934D01*
X35862882Y-39502793D01*
X35972150Y-39422150D01*
X36052793Y-39312882D01*
X36080250Y-39234415D01*
X36097646Y-39184701D01*
X36097646Y-39184699D01*
X36100500Y-39154269D01*
X36100500Y-38816887D01*
X36109144Y-38787446D01*
X36115668Y-38757460D01*
X36119422Y-38752444D01*
X36120185Y-38749848D01*
X36136819Y-38729206D01*
X36279206Y-38586819D01*
X36340529Y-38553334D01*
X36366887Y-38550500D01*
X38188479Y-38550500D01*
X38255518Y-38570185D01*
X38301273Y-38622989D01*
X38303825Y-38628990D01*
X38313258Y-38652909D01*
X38340639Y-38722343D01*
X38432077Y-38842922D01*
X38552656Y-38934360D01*
X38552657Y-38934360D01*
X38552658Y-38934361D01*
X38693436Y-38989877D01*
X38781898Y-39000500D01*
X38781903Y-39000500D01*
X39393097Y-39000500D01*
X39393102Y-39000500D01*
X39481564Y-38989877D01*
X39622342Y-38934361D01*
X39742922Y-38842922D01*
X39834361Y-38722342D01*
X39884646Y-38594826D01*
X39927551Y-38539685D01*
X39993459Y-38516492D01*
X40061443Y-38532612D01*
X40109920Y-38582929D01*
X40115348Y-38594814D01*
X40138258Y-38652909D01*
X40165639Y-38722343D01*
X40257077Y-38842922D01*
X40377656Y-38934360D01*
X40377657Y-38934360D01*
X40377658Y-38934361D01*
X40518436Y-38989877D01*
X40606898Y-39000500D01*
X40606903Y-39000500D01*
X41218097Y-39000500D01*
X41218102Y-39000500D01*
X41306564Y-38989877D01*
X41447342Y-38934361D01*
X41567922Y-38842922D01*
X41659361Y-38722342D01*
X41714877Y-38581564D01*
X41725500Y-38493102D01*
X41725500Y-38016886D01*
X41745185Y-37949847D01*
X41761819Y-37929205D01*
X44104205Y-35586819D01*
X44165528Y-35553334D01*
X44191886Y-35550500D01*
X47963020Y-35550500D01*
X48030059Y-35570185D01*
X48075814Y-35622989D01*
X48082792Y-35642399D01*
X48122123Y-35789183D01*
X48122126Y-35789190D01*
X48201175Y-35926109D01*
X48201179Y-35926114D01*
X48201180Y-35926116D01*
X48312984Y-36037920D01*
X48312986Y-36037921D01*
X48312990Y-36037924D01*
X48423133Y-36101514D01*
X48449916Y-36116977D01*
X48602643Y-36157900D01*
X48602645Y-36157900D01*
X48760755Y-36157900D01*
X48760757Y-36157900D01*
X48913484Y-36116977D01*
X48913485Y-36116976D01*
X48921335Y-36114873D01*
X48921520Y-36115565D01*
X48960063Y-36107900D01*
X49515072Y-36107900D01*
X49515074Y-36107900D01*
X49515075Y-36107900D01*
X49655085Y-36070384D01*
X49655087Y-36070382D01*
X49655089Y-36070382D01*
X49655090Y-36070381D01*
X49689520Y-36050503D01*
X49691592Y-36049306D01*
X49702148Y-36043211D01*
X49770046Y-36026736D01*
X49788342Y-36028978D01*
X49810154Y-36033317D01*
X49896532Y-36050500D01*
X49896535Y-36050500D01*
X50103466Y-36050500D01*
X50103467Y-36050499D01*
X50306420Y-36010130D01*
X50497598Y-35930941D01*
X50669655Y-35815977D01*
X50815977Y-35669655D01*
X50844882Y-35626395D01*
X51640199Y-35626395D01*
X51667118Y-35761722D01*
X51667121Y-35761732D01*
X51719921Y-35889204D01*
X51719928Y-35889217D01*
X51796585Y-36003941D01*
X51796588Y-36003945D01*
X51894154Y-36101511D01*
X51894158Y-36101514D01*
X52008882Y-36178171D01*
X52008895Y-36178178D01*
X52136367Y-36230978D01*
X52136372Y-36230980D01*
X52136376Y-36230980D01*
X52136377Y-36230981D01*
X52271704Y-36257900D01*
X52271707Y-36257900D01*
X54511596Y-36257900D01*
X54602640Y-36239789D01*
X54646928Y-36230980D01*
X54710669Y-36204577D01*
X54774407Y-36178177D01*
X54774408Y-36178176D01*
X54774411Y-36178175D01*
X54889143Y-36101514D01*
X54889146Y-36101511D01*
X54903839Y-36086819D01*
X54965162Y-36053334D01*
X54991520Y-36050500D01*
X55103466Y-36050500D01*
X55103467Y-36050499D01*
X55306420Y-36010130D01*
X55497598Y-35930941D01*
X55669655Y-35815977D01*
X55815977Y-35669655D01*
X55930941Y-35497598D01*
X56010130Y-35306420D01*
X56050500Y-35103465D01*
X56050500Y-34896535D01*
X56010130Y-34693580D01*
X55930941Y-34502402D01*
X55815977Y-34330345D01*
X55815975Y-34330342D01*
X55669657Y-34184024D01*
X55525466Y-34087680D01*
X55497598Y-34069059D01*
X55435490Y-34043333D01*
X55306420Y-33989870D01*
X55306412Y-33989868D01*
X55103469Y-33949500D01*
X55103465Y-33949500D01*
X54896535Y-33949500D01*
X54896530Y-33949500D01*
X54693587Y-33989868D01*
X54693579Y-33989870D01*
X54502403Y-34069058D01*
X54330342Y-34184024D01*
X54184024Y-34330342D01*
X54069058Y-34502403D01*
X53989870Y-34693579D01*
X53987306Y-34706465D01*
X53977236Y-34757092D01*
X53944853Y-34819001D01*
X53884138Y-34853576D01*
X53855620Y-34856900D01*
X52271705Y-34856900D01*
X52136377Y-34883818D01*
X52136367Y-34883821D01*
X52008895Y-34936621D01*
X52008882Y-34936628D01*
X51894158Y-35013285D01*
X51894154Y-35013288D01*
X51796588Y-35110854D01*
X51796585Y-35110858D01*
X51719928Y-35225582D01*
X51719921Y-35225595D01*
X51667121Y-35353067D01*
X51667118Y-35353077D01*
X51640200Y-35488404D01*
X51640200Y-35488407D01*
X51640200Y-35626393D01*
X51640200Y-35626395D01*
X51640199Y-35626395D01*
X50844882Y-35626395D01*
X50930941Y-35497598D01*
X50934750Y-35488404D01*
X50956927Y-35434863D01*
X50956927Y-35434862D01*
X50958115Y-35431994D01*
X51010130Y-35306420D01*
X51050500Y-35103465D01*
X51050500Y-34896535D01*
X51010130Y-34693580D01*
X50930941Y-34502402D01*
X50815977Y-34330345D01*
X50815975Y-34330342D01*
X50669657Y-34184024D01*
X50525466Y-34087680D01*
X50497598Y-34069059D01*
X50435490Y-34043333D01*
X50306420Y-33989870D01*
X50306412Y-33989868D01*
X50103469Y-33949500D01*
X50103465Y-33949500D01*
X49896535Y-33949500D01*
X49896530Y-33949500D01*
X49693587Y-33989868D01*
X49693579Y-33989870D01*
X49502403Y-34069058D01*
X49330342Y-34184024D01*
X49184024Y-34330342D01*
X49141229Y-34394391D01*
X49087617Y-34439196D01*
X49038127Y-34449500D01*
X43840025Y-34449500D01*
X43756019Y-34472009D01*
X43700013Y-34487016D01*
X43700012Y-34487017D01*
X43574489Y-34559487D01*
X43574484Y-34559491D01*
X41170794Y-36963181D01*
X41109471Y-36996666D01*
X41083113Y-36999500D01*
X40606898Y-36999500D01*
X40567853Y-37004188D01*
X40518438Y-37010122D01*
X40377656Y-37065639D01*
X40257077Y-37157077D01*
X40165639Y-37277656D01*
X40135665Y-37353663D01*
X40115353Y-37405171D01*
X40072449Y-37460314D01*
X40006541Y-37483507D01*
X39938556Y-37467386D01*
X39890080Y-37417070D01*
X39884648Y-37405178D01*
X39834361Y-37277658D01*
X39834360Y-37277657D01*
X39834360Y-37277656D01*
X39742922Y-37157077D01*
X39622343Y-37065639D01*
X39481561Y-37010122D01*
X39435926Y-37004642D01*
X39393102Y-36999500D01*
X38781898Y-36999500D01*
X38742853Y-37004188D01*
X38693438Y-37010122D01*
X38552656Y-37065639D01*
X38432077Y-37157077D01*
X38340639Y-37277656D01*
X38319795Y-37330514D01*
X38303832Y-37370991D01*
X38260928Y-37426134D01*
X38195020Y-37449327D01*
X38188479Y-37449500D01*
X36214742Y-37449500D01*
X36147703Y-37429815D01*
X36101948Y-37377011D01*
X36092004Y-37307853D01*
X36097513Y-37285307D01*
X36097646Y-37284699D01*
X36100500Y-37254269D01*
X36100500Y-36845730D01*
X36097646Y-36815300D01*
X36097646Y-36815298D01*
X36052793Y-36687119D01*
X36052792Y-36687117D01*
X36035416Y-36663573D01*
X35972150Y-36577850D01*
X35862882Y-36497207D01*
X35862880Y-36497206D01*
X35734700Y-36452353D01*
X35704270Y-36449500D01*
X35704266Y-36449500D01*
X35579019Y-36449500D01*
X35511980Y-36429815D01*
X35491338Y-36413181D01*
X34510151Y-35431994D01*
X34476666Y-35370671D01*
X34481650Y-35300979D01*
X34523522Y-35245046D01*
X34588986Y-35220629D01*
X34610437Y-35220955D01*
X34650022Y-35224999D01*
X35200000Y-35224999D01*
X35249972Y-35224999D01*
X35249986Y-35224998D01*
X35352697Y-35214505D01*
X35519119Y-35159358D01*
X35519124Y-35159356D01*
X35668345Y-35067315D01*
X35792315Y-34943345D01*
X35884356Y-34794124D01*
X35884358Y-34794119D01*
X35939505Y-34627697D01*
X35939506Y-34627690D01*
X35949999Y-34524986D01*
X35950000Y-34524973D01*
X35950000Y-34250000D01*
X35200000Y-34250000D01*
X35200000Y-35224999D01*
X34650022Y-35224999D01*
X34699999Y-35224998D01*
X34700000Y-35224998D01*
X34700000Y-33750000D01*
X35200000Y-33750000D01*
X35949999Y-33750000D01*
X35949999Y-33475028D01*
X35949998Y-33475013D01*
X35939505Y-33372302D01*
X35884358Y-33205880D01*
X35884356Y-33205875D01*
X35792315Y-33056654D01*
X35668345Y-32932684D01*
X35519124Y-32840643D01*
X35519119Y-32840641D01*
X35352697Y-32785494D01*
X35352690Y-32785493D01*
X35249986Y-32775000D01*
X35200000Y-32775000D01*
X35200000Y-33750000D01*
X34700000Y-33750000D01*
X34700000Y-32775000D01*
X34699999Y-32774999D01*
X34650029Y-32775000D01*
X34650011Y-32775001D01*
X34547302Y-32785494D01*
X34380880Y-32840641D01*
X34380875Y-32840643D01*
X34231654Y-32932684D01*
X34107684Y-33056654D01*
X34015643Y-33205875D01*
X34015640Y-33205884D01*
X34008391Y-33227759D01*
X33968618Y-33285203D01*
X33904102Y-33312025D01*
X33835326Y-33299709D01*
X33790834Y-33258393D01*
X33789486Y-33259416D01*
X33692922Y-33132077D01*
X33572343Y-33040639D01*
X33431561Y-32985122D01*
X33385926Y-32979642D01*
X33343102Y-32974500D01*
X32756898Y-32974500D01*
X32717853Y-32979188D01*
X32668438Y-32985122D01*
X32527656Y-33040639D01*
X32407214Y-33131974D01*
X32341903Y-33156797D01*
X32273539Y-33142369D01*
X32244608Y-33120851D01*
X27595438Y-28471681D01*
X27561953Y-28410358D01*
X27566937Y-28340666D01*
X27608809Y-28284733D01*
X27674273Y-28260316D01*
X27683119Y-28260000D01*
X28500000Y-28260000D01*
X28500000Y-24490000D01*
X24992800Y-24490000D01*
X24925761Y-24470315D01*
X24880006Y-24417511D01*
X24868800Y-24366000D01*
X24868800Y-24000831D01*
X24888485Y-23933792D01*
X24941289Y-23888037D01*
X25010447Y-23878093D01*
X25049093Y-23890345D01*
X25049856Y-23890734D01*
X25178360Y-23956211D01*
X25178363Y-23956212D01*
X25239371Y-23976034D01*
X25350591Y-24012171D01*
X25433429Y-24025291D01*
X25529449Y-24040500D01*
X25529454Y-24040500D01*
X25710551Y-24040500D01*
X25797259Y-24026765D01*
X25889409Y-24012171D01*
X26061639Y-23956211D01*
X26222994Y-23873996D01*
X26369501Y-23767553D01*
X26497553Y-23639501D01*
X26603996Y-23492994D01*
X26686211Y-23331639D01*
X26742171Y-23159409D01*
X26757892Y-23060150D01*
X26770500Y-22980551D01*
X26770500Y-22799448D01*
X26745188Y-22639642D01*
X26742171Y-22620591D01*
X26742170Y-22620590D01*
X26741904Y-22618906D01*
X26750858Y-22549613D01*
X26776693Y-22511830D01*
X28618106Y-20670419D01*
X28679429Y-20636934D01*
X28705787Y-20634100D01*
X31877467Y-20634100D01*
X31944506Y-20653785D01*
X31990261Y-20706589D01*
X32000583Y-20772882D01*
X31999500Y-20781902D01*
X31999500Y-21258113D01*
X31979815Y-21325152D01*
X31963181Y-21345794D01*
X30752791Y-22556183D01*
X30752789Y-22556185D01*
X30731580Y-22592922D01*
X30709859Y-22630546D01*
X30701462Y-22645090D01*
X30701460Y-22645092D01*
X30680318Y-22681709D01*
X30680317Y-22681710D01*
X30680316Y-22681715D01*
X30642800Y-22821725D01*
X30642800Y-29033326D01*
X30642800Y-29178274D01*
X30680190Y-29317815D01*
X30680316Y-29318285D01*
X30752789Y-29443813D01*
X30752791Y-29443816D01*
X31963181Y-30654205D01*
X31996666Y-30715528D01*
X31999500Y-30741886D01*
X31999500Y-31218102D01*
X32005126Y-31264954D01*
X32010122Y-31306561D01*
X32065639Y-31447343D01*
X32157077Y-31567922D01*
X32277656Y-31659360D01*
X32277657Y-31659360D01*
X32277658Y-31659361D01*
X32418436Y-31714877D01*
X32506898Y-31725500D01*
X32506903Y-31725500D01*
X33493097Y-31725500D01*
X33493102Y-31725500D01*
X33581564Y-31714877D01*
X33722342Y-31659361D01*
X33842922Y-31567922D01*
X33934361Y-31447342D01*
X33989877Y-31306564D01*
X34000500Y-31218102D01*
X34000500Y-30606898D01*
X33989877Y-30518436D01*
X33934361Y-30377658D01*
X33934360Y-30377657D01*
X33934360Y-30377656D01*
X33842922Y-30257077D01*
X33792047Y-30218498D01*
X33750524Y-30162306D01*
X33745972Y-30092584D01*
X33779837Y-30031470D01*
X33801875Y-30014155D01*
X33918345Y-29942315D01*
X34042315Y-29818345D01*
X34134356Y-29669124D01*
X34134358Y-29669119D01*
X34189505Y-29502697D01*
X34189506Y-29502690D01*
X34199999Y-29399986D01*
X34200000Y-29399973D01*
X34200000Y-29337500D01*
X33124000Y-29337500D01*
X33056961Y-29317815D01*
X33011206Y-29265011D01*
X33000000Y-29213500D01*
X33000000Y-29087500D01*
X32874000Y-29087500D01*
X32806961Y-29067815D01*
X32761206Y-29015011D01*
X32750000Y-28963500D01*
X32750000Y-28837500D01*
X33250000Y-28837500D01*
X34199999Y-28837500D01*
X34199999Y-28775028D01*
X34199998Y-28775013D01*
X34189505Y-28672302D01*
X34134358Y-28505880D01*
X34134356Y-28505875D01*
X34042315Y-28356654D01*
X33918345Y-28232684D01*
X33769124Y-28140643D01*
X33769119Y-28140641D01*
X33602697Y-28085494D01*
X33602690Y-28085493D01*
X33499986Y-28075000D01*
X33250000Y-28075000D01*
X33250000Y-28837500D01*
X32750000Y-28837500D01*
X32750000Y-28075000D01*
X32500029Y-28075000D01*
X32500012Y-28075001D01*
X32397302Y-28085494D01*
X32230880Y-28140641D01*
X32230875Y-28140643D01*
X32081654Y-28232684D01*
X31955481Y-28358858D01*
X31894158Y-28392343D01*
X31824466Y-28387359D01*
X31768533Y-28345487D01*
X31744116Y-28280023D01*
X31743800Y-28271177D01*
X31743800Y-26648400D01*
X31746350Y-26639714D01*
X31745062Y-26630753D01*
X31756040Y-26606712D01*
X31763485Y-26581361D01*
X31770325Y-26575433D01*
X31774087Y-26567197D01*
X31796321Y-26552907D01*
X31816289Y-26535606D01*
X31826803Y-26533318D01*
X31832865Y-26529423D01*
X31867800Y-26524400D01*
X31872343Y-26524400D01*
X31875500Y-26524400D01*
X31942539Y-26544085D01*
X31988294Y-26596889D01*
X31999500Y-26648400D01*
X31999500Y-27218102D01*
X32001808Y-27237321D01*
X32010122Y-27306561D01*
X32065639Y-27447343D01*
X32157077Y-27567922D01*
X32277656Y-27659360D01*
X32277657Y-27659360D01*
X32277658Y-27659361D01*
X32418436Y-27714877D01*
X32506898Y-27725500D01*
X32506903Y-27725500D01*
X33493097Y-27725500D01*
X33493102Y-27725500D01*
X33581564Y-27714877D01*
X33722342Y-27659361D01*
X33842922Y-27567922D01*
X33934361Y-27447342D01*
X33989806Y-27306743D01*
X35210900Y-27306743D01*
X35210900Y-27464857D01*
X35237352Y-27563575D01*
X35251823Y-27617583D01*
X35251826Y-27617590D01*
X35330875Y-27754509D01*
X35330879Y-27754514D01*
X35330880Y-27754516D01*
X35442684Y-27866320D01*
X35442686Y-27866321D01*
X35442690Y-27866324D01*
X35570346Y-27940025D01*
X35579616Y-27945377D01*
X35732343Y-27986300D01*
X35732345Y-27986300D01*
X35890455Y-27986300D01*
X35890457Y-27986300D01*
X36043184Y-27945377D01*
X36063500Y-27933647D01*
X36131398Y-27917174D01*
X36197425Y-27940025D01*
X36240617Y-27994946D01*
X36249500Y-28041034D01*
X36249500Y-28109269D01*
X36252353Y-28139699D01*
X36252353Y-28139701D01*
X36297206Y-28267880D01*
X36297207Y-28267882D01*
X36377850Y-28377150D01*
X36487118Y-28457793D01*
X36526808Y-28471681D01*
X36615299Y-28502646D01*
X36645730Y-28505500D01*
X36645734Y-28505500D01*
X38404270Y-28505500D01*
X38434699Y-28502646D01*
X38434701Y-28502646D01*
X38498790Y-28480219D01*
X38562882Y-28457793D01*
X38672150Y-28377150D01*
X38752793Y-28267882D01*
X38775219Y-28203790D01*
X38797646Y-28139701D01*
X38797646Y-28139699D01*
X38800500Y-28109269D01*
X38800500Y-27801086D01*
X38820185Y-27734047D01*
X38872989Y-27688292D01*
X38942147Y-27678348D01*
X39005703Y-27707373D01*
X39012167Y-27713392D01*
X41739286Y-30440510D01*
X41830378Y-30493102D01*
X41864815Y-30512984D01*
X42004825Y-30550500D01*
X42004826Y-30550500D01*
X42149774Y-30550500D01*
X42188479Y-30550500D01*
X42255518Y-30570185D01*
X42301273Y-30622989D01*
X42303825Y-30628990D01*
X42313769Y-30654205D01*
X42340639Y-30722343D01*
X42432077Y-30842922D01*
X42552656Y-30934360D01*
X42552657Y-30934360D01*
X42552658Y-30934361D01*
X42693436Y-30989877D01*
X42781898Y-31000500D01*
X42781903Y-31000500D01*
X43393097Y-31000500D01*
X43393102Y-31000500D01*
X43481564Y-30989877D01*
X43622342Y-30934361D01*
X43742922Y-30842922D01*
X43781502Y-30792046D01*
X43837692Y-30750524D01*
X43907413Y-30745971D01*
X43968528Y-30779836D01*
X43985843Y-30801875D01*
X44057680Y-30918340D01*
X44057683Y-30918344D01*
X44181654Y-31042315D01*
X44330875Y-31134356D01*
X44330880Y-31134358D01*
X44497302Y-31189505D01*
X44497309Y-31189506D01*
X44600019Y-31199999D01*
X45162500Y-31199999D01*
X45224972Y-31199999D01*
X45224986Y-31199998D01*
X45327697Y-31189505D01*
X45494119Y-31134358D01*
X45494124Y-31134356D01*
X45643345Y-31042315D01*
X45767315Y-30918345D01*
X45859356Y-30769124D01*
X45859358Y-30769119D01*
X45914505Y-30602697D01*
X45914506Y-30602690D01*
X45924999Y-30499986D01*
X45925000Y-30499973D01*
X45925000Y-30250000D01*
X45162500Y-30250000D01*
X45162500Y-31199999D01*
X44600019Y-31199999D01*
X44662499Y-31199998D01*
X44662500Y-31199998D01*
X44662500Y-29750000D01*
X45162500Y-29750000D01*
X45924999Y-29750000D01*
X45924999Y-29500028D01*
X45924998Y-29500013D01*
X45914505Y-29397302D01*
X45859358Y-29230880D01*
X45859356Y-29230875D01*
X45767315Y-29081654D01*
X45643345Y-28957684D01*
X45494124Y-28865643D01*
X45494119Y-28865641D01*
X45327697Y-28810494D01*
X45327690Y-28810493D01*
X45224986Y-28800000D01*
X45162500Y-28800000D01*
X45162500Y-29750000D01*
X44662500Y-29750000D01*
X44662500Y-28800000D01*
X44662499Y-28799999D01*
X44600028Y-28800000D01*
X44600011Y-28800001D01*
X44497302Y-28810494D01*
X44330880Y-28865641D01*
X44330875Y-28865643D01*
X44181654Y-28957684D01*
X44057682Y-29081656D01*
X43985843Y-29198125D01*
X43933895Y-29244849D01*
X43864932Y-29256070D01*
X43800850Y-29228227D01*
X43781501Y-29207952D01*
X43742922Y-29157077D01*
X43622343Y-29065639D01*
X43481561Y-29010122D01*
X43435926Y-29004642D01*
X43393102Y-28999500D01*
X42781898Y-28999500D01*
X42742853Y-29004188D01*
X42693438Y-29010122D01*
X42552656Y-29065639D01*
X42432076Y-29157078D01*
X42337223Y-29282160D01*
X42281031Y-29323683D01*
X42211309Y-29328234D01*
X42150739Y-29294915D01*
X41772505Y-28916681D01*
X41739020Y-28855358D01*
X41744004Y-28785666D01*
X41785876Y-28729733D01*
X41851340Y-28705316D01*
X41860186Y-28705000D01*
X42225000Y-28705000D01*
X42725000Y-28705000D01*
X43365634Y-28705000D01*
X43365649Y-28704999D01*
X43402489Y-28702100D01*
X43402495Y-28702099D01*
X43560193Y-28656283D01*
X43560196Y-28656282D01*
X43701552Y-28572685D01*
X43701561Y-28572678D01*
X43817678Y-28456561D01*
X43817685Y-28456552D01*
X43901281Y-28315198D01*
X43947100Y-28157486D01*
X43947295Y-28155001D01*
X43947295Y-28155000D01*
X42725000Y-28155000D01*
X42725000Y-28705000D01*
X42225000Y-28705000D01*
X42225000Y-28155000D01*
X41062186Y-28155000D01*
X40995147Y-28135315D01*
X40974505Y-28118681D01*
X40941318Y-28085494D01*
X39662695Y-26806870D01*
X39640862Y-26774195D01*
X39640241Y-26774554D01*
X39557124Y-26630590D01*
X39557118Y-26630582D01*
X39445317Y-26518781D01*
X39445309Y-26518775D01*
X39308390Y-26439726D01*
X39308386Y-26439724D01*
X39308384Y-26439723D01*
X39155657Y-26398800D01*
X38997543Y-26398800D01*
X38925435Y-26418121D01*
X38855585Y-26416458D01*
X38797723Y-26377295D01*
X38783678Y-26356224D01*
X38779360Y-26348042D01*
X38752793Y-26272118D01*
X38705389Y-26207888D01*
X38701038Y-26199643D01*
X38695875Y-26174175D01*
X38686961Y-26149770D01*
X38689046Y-26140489D01*
X38687156Y-26131166D01*
X38696580Y-26106951D01*
X38702276Y-26081600D01*
X38709229Y-26074453D01*
X38712498Y-26066055D01*
X38729233Y-26053893D01*
X38747589Y-26035028D01*
X38751557Y-26032681D01*
X38751561Y-26032678D01*
X38867678Y-25916561D01*
X38867685Y-25916552D01*
X38951281Y-25775198D01*
X38997100Y-25617486D01*
X38997295Y-25615001D01*
X38997295Y-25615000D01*
X36052705Y-25615000D01*
X36052704Y-25615001D01*
X36052899Y-25617486D01*
X36098718Y-25775198D01*
X36182314Y-25916552D01*
X36182321Y-25916561D01*
X36298438Y-26032678D01*
X36298444Y-26032682D01*
X36302415Y-26035031D01*
X36350100Y-26086099D01*
X36362606Y-26154840D01*
X36339068Y-26215398D01*
X36297207Y-26272118D01*
X36297206Y-26272119D01*
X36252353Y-26400298D01*
X36252353Y-26400300D01*
X36249500Y-26430730D01*
X36249500Y-26730565D01*
X36229815Y-26797604D01*
X36177011Y-26843359D01*
X36107853Y-26853303D01*
X36063501Y-26837953D01*
X36043184Y-26826223D01*
X35936376Y-26797604D01*
X35890457Y-26785300D01*
X35732343Y-26785300D01*
X35579616Y-26826223D01*
X35579609Y-26826226D01*
X35442690Y-26905275D01*
X35442682Y-26905281D01*
X35330881Y-27017082D01*
X35330875Y-27017090D01*
X35251826Y-27154009D01*
X35251823Y-27154016D01*
X35210900Y-27306743D01*
X33989806Y-27306743D01*
X33989877Y-27306564D01*
X33989878Y-27306558D01*
X33992607Y-27283835D01*
X33992607Y-27283833D01*
X33998192Y-27237321D01*
X34000500Y-27218102D01*
X34000500Y-26812596D01*
X34020185Y-26745557D01*
X34036815Y-26724919D01*
X34517606Y-26244127D01*
X34517611Y-26244124D01*
X34527814Y-26233920D01*
X34527816Y-26233920D01*
X34639620Y-26122116D01*
X34712217Y-25996374D01*
X34718677Y-25985185D01*
X34759601Y-25832457D01*
X34759601Y-25705617D01*
X34779286Y-25638578D01*
X34795915Y-25617940D01*
X34865614Y-25548242D01*
X34942275Y-25433511D01*
X34995080Y-25306028D01*
X35003889Y-25261741D01*
X35022000Y-25170695D01*
X35022000Y-24722418D01*
X35041685Y-24655379D01*
X35058314Y-24634741D01*
X36049229Y-23643826D01*
X36057174Y-23639488D01*
X36062600Y-23632241D01*
X36087359Y-23623006D01*
X36110552Y-23610342D01*
X36119581Y-23610987D01*
X36128064Y-23607824D01*
X36153884Y-23613440D01*
X36180244Y-23615326D01*
X36189297Y-23621144D01*
X36196337Y-23622676D01*
X36224591Y-23643827D01*
X36246176Y-23665412D01*
X36279661Y-23726735D01*
X36275537Y-23794048D01*
X36252353Y-23860303D01*
X36249500Y-23890730D01*
X36249500Y-24299269D01*
X36252353Y-24329699D01*
X36252353Y-24329701D01*
X36297206Y-24457880D01*
X36297207Y-24457882D01*
X36339067Y-24514600D01*
X36363038Y-24580229D01*
X36347723Y-24648400D01*
X36302422Y-24694964D01*
X36298446Y-24697315D01*
X36298438Y-24697321D01*
X36182321Y-24813438D01*
X36182314Y-24813447D01*
X36098718Y-24954801D01*
X36052899Y-25112513D01*
X36052704Y-25114998D01*
X36052705Y-25115000D01*
X38997295Y-25115000D01*
X38997295Y-25114998D01*
X38997100Y-25112513D01*
X38951281Y-24954801D01*
X38867685Y-24813447D01*
X38867678Y-24813438D01*
X38751561Y-24697321D01*
X38751553Y-24697315D01*
X38747578Y-24694964D01*
X38699896Y-24643893D01*
X38687395Y-24575150D01*
X38710933Y-24514600D01*
X38752793Y-24457882D01*
X38784944Y-24366000D01*
X38797646Y-24329701D01*
X38797646Y-24329699D01*
X38800500Y-24299269D01*
X38800500Y-23890730D01*
X38797646Y-23860300D01*
X38797646Y-23860298D01*
X38752793Y-23732119D01*
X38752792Y-23732117D01*
X38751820Y-23730800D01*
X38672150Y-23622850D01*
X38562882Y-23542207D01*
X38562880Y-23542206D01*
X38434700Y-23497353D01*
X38404270Y-23494500D01*
X38404266Y-23494500D01*
X37754386Y-23494500D01*
X37687347Y-23474815D01*
X37666705Y-23458181D01*
X37290495Y-23081970D01*
X37268662Y-23049295D01*
X37268041Y-23049654D01*
X37184924Y-22905690D01*
X37184918Y-22905682D01*
X37073827Y-22794591D01*
X37040342Y-22733268D01*
X37045326Y-22663576D01*
X37073827Y-22619229D01*
X37406051Y-22287006D01*
X37805038Y-21888019D01*
X37866361Y-21854534D01*
X37892719Y-21851700D01*
X38172595Y-21851700D01*
X38307923Y-21824781D01*
X38307923Y-21824780D01*
X38307928Y-21824780D01*
X38307932Y-21824778D01*
X38313759Y-21823011D01*
X38314305Y-21824813D01*
X38375043Y-21818272D01*
X38392246Y-21823323D01*
X38392341Y-21823011D01*
X38398170Y-21824779D01*
X38398172Y-21824780D01*
X38398174Y-21824780D01*
X38398176Y-21824781D01*
X38533504Y-21851700D01*
X38533507Y-21851700D01*
X38671495Y-21851700D01*
X38765991Y-21832903D01*
X38806828Y-21824780D01*
X38806835Y-21824776D01*
X38812655Y-21823012D01*
X38813333Y-21825250D01*
X38872463Y-21818867D01*
X38934956Y-21850114D01*
X38970635Y-21910187D01*
X38974500Y-21940906D01*
X38974500Y-22243102D01*
X38977801Y-22270589D01*
X38985122Y-22331561D01*
X39040639Y-22472343D01*
X39132077Y-22592922D01*
X39252656Y-22684360D01*
X39252657Y-22684360D01*
X39252658Y-22684361D01*
X39393436Y-22739877D01*
X39481898Y-22750500D01*
X39758481Y-22750500D01*
X39825520Y-22770185D01*
X39846162Y-22786819D01*
X41163181Y-24103838D01*
X41196666Y-24165161D01*
X41199500Y-24191519D01*
X41199500Y-24299269D01*
X41202353Y-24329699D01*
X41202353Y-24329701D01*
X41238514Y-24433039D01*
X41247207Y-24457882D01*
X41327850Y-24567150D01*
X41359801Y-24590731D01*
X41378606Y-24615498D01*
X41398961Y-24638989D01*
X41399549Y-24643082D01*
X41402051Y-24646377D01*
X41404480Y-24677374D01*
X41408905Y-24708147D01*
X41407186Y-24711909D01*
X41407510Y-24716033D01*
X41392796Y-24743420D01*
X41379880Y-24771703D01*
X41376399Y-24773939D01*
X41374443Y-24777582D01*
X41347261Y-24792665D01*
X41321102Y-24809477D01*
X41315519Y-24810279D01*
X41313349Y-24811484D01*
X41286167Y-24814500D01*
X41245163Y-24814500D01*
X41206620Y-24806834D01*
X41206435Y-24807527D01*
X41198585Y-24805423D01*
X41198584Y-24805423D01*
X41045857Y-24764500D01*
X40887743Y-24764500D01*
X40735016Y-24805423D01*
X40735009Y-24805426D01*
X40598090Y-24884475D01*
X40598082Y-24884481D01*
X40486281Y-24996282D01*
X40486275Y-24996290D01*
X40407226Y-25133209D01*
X40407223Y-25133216D01*
X40366300Y-25285943D01*
X40366300Y-25444057D01*
X40394217Y-25548242D01*
X40407223Y-25596783D01*
X40407226Y-25596790D01*
X40486275Y-25733709D01*
X40486279Y-25733714D01*
X40486280Y-25733716D01*
X40598084Y-25845520D01*
X40598086Y-25845521D01*
X40598090Y-25845524D01*
X40735009Y-25924573D01*
X40735016Y-25924577D01*
X40887743Y-25965500D01*
X40887745Y-25965500D01*
X41045855Y-25965500D01*
X41045857Y-25965500D01*
X41198584Y-25924577D01*
X41198585Y-25924576D01*
X41206435Y-25922473D01*
X41206546Y-25922888D01*
X41210228Y-25920523D01*
X41245163Y-25915500D01*
X41286167Y-25915500D01*
X41353206Y-25935185D01*
X41398961Y-25987989D01*
X41408905Y-26057147D01*
X41379880Y-26120703D01*
X41359805Y-26139265D01*
X41327850Y-26162850D01*
X41327849Y-26162851D01*
X41247207Y-26272117D01*
X41247206Y-26272119D01*
X41202353Y-26400298D01*
X41202353Y-26400300D01*
X41199500Y-26430730D01*
X41199500Y-26839269D01*
X41202353Y-26869699D01*
X41202353Y-26869701D01*
X41247206Y-26997880D01*
X41247207Y-26997882D01*
X41289067Y-27054600D01*
X41313038Y-27120229D01*
X41297723Y-27188400D01*
X41252422Y-27234964D01*
X41248446Y-27237315D01*
X41248438Y-27237321D01*
X41132321Y-27353438D01*
X41132314Y-27353447D01*
X41048718Y-27494801D01*
X41002899Y-27652513D01*
X41002704Y-27654998D01*
X41002705Y-27655000D01*
X43947295Y-27655000D01*
X43947295Y-27654998D01*
X43947100Y-27652513D01*
X43901281Y-27494801D01*
X43858594Y-27422621D01*
X43841411Y-27354897D01*
X43863571Y-27288635D01*
X43918037Y-27244871D01*
X43965326Y-27235500D01*
X44065555Y-27235500D01*
X44065557Y-27235500D01*
X44218284Y-27194577D01*
X44218285Y-27194576D01*
X44226135Y-27192473D01*
X44226320Y-27193165D01*
X44264863Y-27185500D01*
X47612513Y-27185500D01*
X47679552Y-27205185D01*
X47700194Y-27221819D01*
X49413181Y-28934805D01*
X49427884Y-28961732D01*
X49444477Y-28987551D01*
X49445368Y-28993751D01*
X49446666Y-28996128D01*
X49449500Y-29022486D01*
X49449500Y-29038126D01*
X49429815Y-29105165D01*
X49394391Y-29141228D01*
X49330345Y-29184022D01*
X49330341Y-29184025D01*
X49184024Y-29330342D01*
X49069058Y-29502403D01*
X48989870Y-29693579D01*
X48989868Y-29693587D01*
X48949500Y-29896530D01*
X48949500Y-30103469D01*
X48987103Y-30292510D01*
X48989870Y-30306420D01*
X49069059Y-30497598D01*
X49082984Y-30518438D01*
X49184024Y-30669657D01*
X49330342Y-30815975D01*
X49330345Y-30815977D01*
X49502402Y-30930941D01*
X49693580Y-31010130D01*
X49855386Y-31042315D01*
X49896530Y-31050499D01*
X49896534Y-31050500D01*
X49896535Y-31050500D01*
X50103466Y-31050500D01*
X50103467Y-31050499D01*
X50306420Y-31010130D01*
X50497598Y-30930941D01*
X50669655Y-30815977D01*
X50815977Y-30669655D01*
X50930941Y-30497598D01*
X51010130Y-30306420D01*
X51050500Y-30103465D01*
X51050500Y-29896535D01*
X51010130Y-29693580D01*
X50930941Y-29502402D01*
X50815977Y-29330345D01*
X50815975Y-29330342D01*
X50669658Y-29184025D01*
X50669654Y-29184022D01*
X50605609Y-29141228D01*
X50560804Y-29087615D01*
X50550500Y-29038126D01*
X50550500Y-28670627D01*
X50550500Y-28670625D01*
X50512984Y-28530615D01*
X50498700Y-28505875D01*
X50440511Y-28405088D01*
X50440506Y-28405082D01*
X50338015Y-28302591D01*
X48229916Y-26194491D01*
X48229911Y-26194487D01*
X48147464Y-26146887D01*
X48099249Y-26096321D01*
X48086025Y-26027714D01*
X48111993Y-25962849D01*
X48168907Y-25922320D01*
X48209464Y-25915500D01*
X48952413Y-25915500D01*
X49019452Y-25935185D01*
X49040094Y-25951819D01*
X53380785Y-30292510D01*
X53380787Y-30292511D01*
X53380791Y-30292514D01*
X53459595Y-30338011D01*
X53459598Y-30338012D01*
X53459603Y-30338015D01*
X53506315Y-30364984D01*
X53646325Y-30402500D01*
X53946814Y-30402500D01*
X54013853Y-30422185D01*
X54059608Y-30474989D01*
X54061362Y-30479015D01*
X54067197Y-30493102D01*
X54069059Y-30497598D01*
X54184024Y-30669657D01*
X54330342Y-30815975D01*
X54330345Y-30815977D01*
X54502402Y-30930941D01*
X54693580Y-31010130D01*
X54855386Y-31042315D01*
X54896530Y-31050499D01*
X54896534Y-31050500D01*
X54896535Y-31050500D01*
X55103466Y-31050500D01*
X55103467Y-31050499D01*
X55306420Y-31010130D01*
X55497598Y-30930941D01*
X55669655Y-30815977D01*
X55815977Y-30669655D01*
X55930941Y-30497598D01*
X56010130Y-30306420D01*
X56050500Y-30103465D01*
X56050500Y-29896535D01*
X56010130Y-29693580D01*
X55930941Y-29502402D01*
X55815977Y-29330345D01*
X55815975Y-29330342D01*
X55669657Y-29184024D01*
X55525197Y-29087500D01*
X55497598Y-29069059D01*
X55489341Y-29065639D01*
X55306420Y-28989870D01*
X55306412Y-28989868D01*
X55103469Y-28949500D01*
X55103465Y-28949500D01*
X54896535Y-28949500D01*
X54896530Y-28949500D01*
X54693587Y-28989868D01*
X54693579Y-28989870D01*
X54502403Y-29069058D01*
X54449501Y-29104406D01*
X54330345Y-29184023D01*
X54249185Y-29265182D01*
X54222254Y-29279888D01*
X54196441Y-29296477D01*
X54190241Y-29297368D01*
X54187865Y-29298666D01*
X54161506Y-29301500D01*
X53998187Y-29301500D01*
X53931148Y-29281815D01*
X53910506Y-29265181D01*
X49688806Y-25043481D01*
X49655321Y-24982158D01*
X49660305Y-24912466D01*
X49702177Y-24856533D01*
X49767641Y-24832116D01*
X49776487Y-24831800D01*
X60331172Y-24831800D01*
X60331174Y-24831800D01*
X60331175Y-24831800D01*
X60471185Y-24794284D01*
X60492634Y-24781899D01*
X60492638Y-24781899D01*
X60492638Y-24781898D01*
X60500114Y-24777582D01*
X60596715Y-24721810D01*
X60690645Y-24627879D01*
X60751964Y-24594397D01*
X60821656Y-24599381D01*
X60877590Y-24641252D01*
X60902007Y-24706716D01*
X60896255Y-24753880D01*
X60877828Y-24810593D01*
X60849500Y-24989448D01*
X60849500Y-25170551D01*
X60877829Y-25349410D01*
X60933787Y-25521636D01*
X60933788Y-25521639D01*
X60989664Y-25631300D01*
X60999933Y-25651454D01*
X61016006Y-25682997D01*
X61122441Y-25829494D01*
X61122445Y-25829499D01*
X61250500Y-25957554D01*
X61250505Y-25957558D01*
X61347068Y-26027714D01*
X61397006Y-26063996D01*
X61502484Y-26117740D01*
X61558360Y-26146211D01*
X61558363Y-26146212D01*
X61609571Y-26162850D01*
X61730591Y-26202171D01*
X61813429Y-26215291D01*
X61909449Y-26230500D01*
X61909454Y-26230500D01*
X62090551Y-26230500D01*
X62177259Y-26216765D01*
X62269409Y-26202171D01*
X62435424Y-26148230D01*
X62441636Y-26146212D01*
X62441639Y-26146211D01*
X62471166Y-26131166D01*
X62602994Y-26063996D01*
X62749501Y-25957553D01*
X62877553Y-25829501D01*
X62983996Y-25682994D01*
X63066211Y-25521639D01*
X63122171Y-25349409D01*
X63149830Y-25174779D01*
X63150500Y-25170551D01*
X63150500Y-24989448D01*
X63121904Y-24808906D01*
X63130858Y-24739613D01*
X63156693Y-24701830D01*
X63753110Y-24105415D01*
X63825584Y-23979885D01*
X63831494Y-23957829D01*
X63831928Y-23956212D01*
X63849576Y-23890346D01*
X63863100Y-23839875D01*
X63863100Y-17811925D01*
X63825584Y-17671915D01*
X63770498Y-17576503D01*
X63753110Y-17546385D01*
X63753108Y-17546383D01*
X63753107Y-17546381D01*
X63753106Y-17546380D01*
X50169059Y-3962334D01*
X50085436Y-3878711D01*
X62149500Y-3878711D01*
X62149500Y-4121288D01*
X62180992Y-4360505D01*
X62181162Y-4361789D01*
X62212381Y-4478300D01*
X62243947Y-4596104D01*
X62318049Y-4775001D01*
X62336776Y-4820212D01*
X62458064Y-5030289D01*
X62458066Y-5030292D01*
X62458067Y-5030293D01*
X62605733Y-5222736D01*
X62605739Y-5222743D01*
X62777256Y-5394260D01*
X62777262Y-5394265D01*
X62969711Y-5541936D01*
X63179788Y-5663224D01*
X63403900Y-5756054D01*
X63638211Y-5818838D01*
X63818586Y-5842584D01*
X63878711Y-5850500D01*
X63878712Y-5850500D01*
X64121289Y-5850500D01*
X64169388Y-5844167D01*
X64361789Y-5818838D01*
X64596100Y-5756054D01*
X64820212Y-5663224D01*
X65030289Y-5541936D01*
X65222738Y-5394265D01*
X65394265Y-5222738D01*
X65541936Y-5030289D01*
X65663224Y-4820212D01*
X65756054Y-4596100D01*
X65818838Y-4361789D01*
X65850500Y-4121288D01*
X65850500Y-3878712D01*
X65818838Y-3638211D01*
X65756054Y-3403900D01*
X65663224Y-3179788D01*
X65541936Y-2969711D01*
X65394265Y-2777262D01*
X65394260Y-2777256D01*
X65222743Y-2605739D01*
X65222736Y-2605733D01*
X65030293Y-2458067D01*
X65030292Y-2458066D01*
X65030289Y-2458064D01*
X64820212Y-2336776D01*
X64820205Y-2336773D01*
X64596104Y-2243947D01*
X64361785Y-2181161D01*
X64121289Y-2149500D01*
X64121288Y-2149500D01*
X63878712Y-2149500D01*
X63878711Y-2149500D01*
X63638214Y-2181161D01*
X63403895Y-2243947D01*
X63179794Y-2336773D01*
X63179785Y-2336777D01*
X62969706Y-2458067D01*
X62777263Y-2605733D01*
X62777256Y-2605739D01*
X62605739Y-2777256D01*
X62605733Y-2777263D01*
X62458067Y-2969706D01*
X62336777Y-3179785D01*
X62336773Y-3179794D01*
X62243947Y-3403895D01*
X62181161Y-3638214D01*
X62149500Y-3878711D01*
X50085436Y-3878711D01*
X49570016Y-3363291D01*
X49570015Y-3363290D01*
X49444485Y-3290816D01*
X49444486Y-3290816D01*
X49409482Y-3281437D01*
X49304475Y-3253300D01*
X16693725Y-3253300D01*
X16609719Y-3275809D01*
X16553713Y-3290816D01*
X16553712Y-3290817D01*
X16428189Y-3363287D01*
X16428184Y-3363291D01*
X11689357Y-8102116D01*
X11628034Y-8135601D01*
X11558342Y-8130617D01*
X11502409Y-8088745D01*
X11477992Y-8023281D01*
X11483744Y-7976121D01*
X11502171Y-7919409D01*
X11512668Y-7853134D01*
X11530500Y-7740551D01*
X11530500Y-7559448D01*
X11509979Y-7429888D01*
X11502171Y-7380591D01*
X11448208Y-7214506D01*
X11446212Y-7208363D01*
X11446211Y-7208360D01*
X11407192Y-7131782D01*
X11363996Y-7047006D01*
X11300318Y-6959360D01*
X11257558Y-6900505D01*
X11257554Y-6900500D01*
X11129499Y-6772445D01*
X11129494Y-6772441D01*
X10982997Y-6666006D01*
X10982996Y-6666005D01*
X10982994Y-6666004D01*
X10907799Y-6627690D01*
X10821639Y-6583788D01*
X10821636Y-6583787D01*
X10649410Y-6527829D01*
X10489321Y-6502473D01*
X10426186Y-6472544D01*
X10389255Y-6413232D01*
X10390253Y-6343370D01*
X10428863Y-6285137D01*
X10489321Y-6257527D01*
X10559425Y-6246422D01*
X10649409Y-6232171D01*
X10821639Y-6176211D01*
X10982994Y-6093996D01*
X11129501Y-5987553D01*
X11257553Y-5859501D01*
X11363996Y-5712994D01*
X11446211Y-5551639D01*
X11502171Y-5379409D01*
X11521338Y-5258393D01*
X11530500Y-5200551D01*
X11530500Y-5019448D01*
X11502179Y-4840643D01*
X11502171Y-4840591D01*
X11446211Y-4668361D01*
X11446211Y-4668360D01*
X11393997Y-4565886D01*
X11363996Y-4507006D01*
X11311656Y-4434966D01*
X11257558Y-4360505D01*
X11257554Y-4360500D01*
X11129499Y-4232445D01*
X11129494Y-4232441D01*
X10982997Y-4126006D01*
X10982996Y-4126005D01*
X10982994Y-4126004D01*
X10931300Y-4099664D01*
X10821639Y-4043788D01*
X10821636Y-4043787D01*
X10649410Y-3987829D01*
X10470551Y-3959500D01*
X10470546Y-3959500D01*
X10289454Y-3959500D01*
X10289449Y-3959500D01*
X10110589Y-3987829D01*
X9938363Y-4043787D01*
X9938360Y-4043788D01*
X9777002Y-4126006D01*
X9630505Y-4232441D01*
X9630500Y-4232445D01*
X9502445Y-4360500D01*
X9502441Y-4360505D01*
X9396006Y-4507002D01*
X9313788Y-4668360D01*
X9313787Y-4668363D01*
X9257829Y-4840589D01*
X9229500Y-5019448D01*
X9229500Y-5200551D01*
X9257829Y-5379410D01*
X9313787Y-5551636D01*
X9313788Y-5551639D01*
X9396006Y-5712997D01*
X9502441Y-5859494D01*
X9502445Y-5859499D01*
X9630500Y-5987554D01*
X9630505Y-5987558D01*
X9758287Y-6080396D01*
X9777006Y-6093996D01*
X9853094Y-6132765D01*
X9938360Y-6176211D01*
X9938363Y-6176212D01*
X9981283Y-6190157D01*
X10110591Y-6232171D01*
X10183639Y-6243740D01*
X10270678Y-6257527D01*
X10333813Y-6287456D01*
X10370744Y-6346768D01*
X10369746Y-6416631D01*
X10331136Y-6474863D01*
X10270678Y-6502473D01*
X10110589Y-6527829D01*
X9938363Y-6583787D01*
X9938360Y-6583788D01*
X9777002Y-6666006D01*
X9630505Y-6772441D01*
X9630500Y-6772445D01*
X9502445Y-6900500D01*
X9502441Y-6900505D01*
X9396006Y-7047002D01*
X9313788Y-7208360D01*
X9313787Y-7208363D01*
X9257829Y-7380589D01*
X9229500Y-7559448D01*
X9229500Y-7740551D01*
X9257829Y-7919410D01*
X9313787Y-8091636D01*
X9313788Y-8091639D01*
X9396006Y-8252997D01*
X9502441Y-8399494D01*
X9502445Y-8399499D01*
X9630500Y-8527554D01*
X9630505Y-8527558D01*
X9758287Y-8620396D01*
X9777006Y-8633996D01*
X9882484Y-8687740D01*
X9938360Y-8716211D01*
X9938363Y-8716212D01*
X10024476Y-8744191D01*
X10110591Y-8772171D01*
X10183639Y-8783740D01*
X10270678Y-8797527D01*
X10333813Y-8827456D01*
X10370744Y-8886768D01*
X10369746Y-8956631D01*
X10331136Y-9014863D01*
X10270678Y-9042473D01*
X10110589Y-9067829D01*
X9938363Y-9123787D01*
X9938360Y-9123788D01*
X9777002Y-9206006D01*
X9630505Y-9312441D01*
X9630500Y-9312445D01*
X9502445Y-9440500D01*
X9502441Y-9440505D01*
X9396006Y-9587002D01*
X9313788Y-9748360D01*
X9313787Y-9748363D01*
X9257829Y-9920589D01*
X9229500Y-10099448D01*
X9229500Y-10280551D01*
X9257829Y-10459410D01*
X9313787Y-10631636D01*
X9313788Y-10631639D01*
X9369664Y-10741300D01*
X9394733Y-10790500D01*
X9396006Y-10792997D01*
X9502441Y-10939494D01*
X9502445Y-10939499D01*
X9630500Y-11067554D01*
X9630505Y-11067558D01*
X9758287Y-11160396D01*
X9777006Y-11173996D01*
X9882484Y-11227740D01*
X9938360Y-11256211D01*
X9938363Y-11256212D01*
X10024476Y-11284191D01*
X10110591Y-11312171D01*
X10183639Y-11323740D01*
X10270678Y-11337527D01*
X10333813Y-11367456D01*
X10370744Y-11426768D01*
X10369746Y-11496631D01*
X10331136Y-11554863D01*
X10270678Y-11582473D01*
X10110589Y-11607829D01*
X9938363Y-11663787D01*
X9938360Y-11663788D01*
X9777002Y-11746006D01*
X9630505Y-11852441D01*
X9630500Y-11852445D01*
X9502445Y-11980500D01*
X9502441Y-11980505D01*
X9396006Y-12127002D01*
X9313788Y-12288360D01*
X9313787Y-12288363D01*
X9257829Y-12460589D01*
X9229500Y-12639448D01*
X9229500Y-12820551D01*
X9257829Y-12999410D01*
X9313787Y-13171636D01*
X9313788Y-13171639D01*
X9369664Y-13281300D01*
X9394733Y-13330500D01*
X9396006Y-13332997D01*
X9502441Y-13479494D01*
X9502445Y-13479499D01*
X9630500Y-13607554D01*
X9630505Y-13607558D01*
X9758287Y-13700396D01*
X9777006Y-13713996D01*
X9882484Y-13767740D01*
X9938360Y-13796211D01*
X9938363Y-13796212D01*
X10024476Y-13824191D01*
X10110591Y-13852171D01*
X10183639Y-13863740D01*
X10270678Y-13877527D01*
X10333813Y-13907456D01*
X10370744Y-13966768D01*
X10369746Y-14036631D01*
X10331136Y-14094863D01*
X10270678Y-14122473D01*
X10110589Y-14147829D01*
X9938363Y-14203787D01*
X9938360Y-14203788D01*
X9777002Y-14286006D01*
X9630505Y-14392441D01*
X9630500Y-14392445D01*
X9502445Y-14520500D01*
X9502441Y-14520505D01*
X9396006Y-14667002D01*
X9313788Y-14828360D01*
X9313787Y-14828363D01*
X9257829Y-15000589D01*
X9229500Y-15179448D01*
X9229500Y-15360551D01*
X9257829Y-15539410D01*
X9313787Y-15711636D01*
X9313788Y-15711639D01*
X9344667Y-15772241D01*
X9394733Y-15870500D01*
X9396006Y-15872997D01*
X9502441Y-16019494D01*
X9502445Y-16019499D01*
X9630500Y-16147554D01*
X9630505Y-16147558D01*
X9715452Y-16209275D01*
X9777006Y-16253996D01*
X9845705Y-16289000D01*
X9938360Y-16336211D01*
X9938363Y-16336212D01*
X10024476Y-16364191D01*
X10110591Y-16392171D01*
X10183639Y-16403740D01*
X10270678Y-16417527D01*
X10333813Y-16447456D01*
X10370744Y-16506768D01*
X10369746Y-16576631D01*
X10331136Y-16634863D01*
X10270678Y-16662473D01*
X10110589Y-16687829D01*
X9938363Y-16743787D01*
X9938360Y-16743788D01*
X9777002Y-16826006D01*
X9630505Y-16932441D01*
X9630500Y-16932445D01*
X9502445Y-17060500D01*
X9502441Y-17060505D01*
X9396006Y-17207002D01*
X9313788Y-17368360D01*
X9313787Y-17368363D01*
X9257829Y-17540589D01*
X9229500Y-17719448D01*
X9229500Y-17900551D01*
X9257829Y-18079410D01*
X9313787Y-18251636D01*
X9313788Y-18251639D01*
X9369664Y-18361300D01*
X9394733Y-18410500D01*
X9396006Y-18412997D01*
X9502441Y-18559494D01*
X9502445Y-18559499D01*
X9630500Y-18687554D01*
X9630505Y-18687558D01*
X9698004Y-18736598D01*
X9777006Y-18793996D01*
X9876708Y-18844797D01*
X9938360Y-18876211D01*
X9938363Y-18876212D01*
X10024476Y-18904191D01*
X10110591Y-18932171D01*
X10183639Y-18943740D01*
X10270678Y-18957527D01*
X10333813Y-18987456D01*
X10370744Y-19046768D01*
X10369746Y-19116631D01*
X10331136Y-19174863D01*
X10270678Y-19202473D01*
X10110589Y-19227829D01*
X9938363Y-19283787D01*
X9938360Y-19283788D01*
X9777002Y-19366006D01*
X9630505Y-19472441D01*
X9630500Y-19472445D01*
X9502445Y-19600500D01*
X9502441Y-19600505D01*
X9396006Y-19747002D01*
X9313788Y-19908360D01*
X9313787Y-19908363D01*
X9257829Y-20080589D01*
X9229500Y-20259448D01*
X9229500Y-20440551D01*
X9257829Y-20619410D01*
X9313787Y-20791636D01*
X9313788Y-20791639D01*
X9396006Y-20952997D01*
X9502441Y-21099494D01*
X9502445Y-21099499D01*
X9630500Y-21227554D01*
X9630505Y-21227558D01*
X9758287Y-21320396D01*
X9777006Y-21333996D01*
X9882484Y-21387740D01*
X9938360Y-21416211D01*
X9938363Y-21416212D01*
X9995333Y-21434722D01*
X10110591Y-21472171D01*
X10183639Y-21483740D01*
X10270678Y-21497527D01*
X10333813Y-21527456D01*
X10370744Y-21586768D01*
X10369746Y-21656631D01*
X10331136Y-21714863D01*
X10270678Y-21742473D01*
X10110589Y-21767829D01*
X9938363Y-21823787D01*
X9938360Y-21823788D01*
X9777002Y-21906006D01*
X9630505Y-22012441D01*
X9630500Y-22012445D01*
X9502445Y-22140500D01*
X9502441Y-22140505D01*
X9396006Y-22287002D01*
X9313788Y-22448360D01*
X9313787Y-22448363D01*
X9257829Y-22620589D01*
X9229500Y-22799448D01*
X9229500Y-22980551D01*
X9257829Y-23159410D01*
X9313787Y-23331636D01*
X9313788Y-23331639D01*
X9367553Y-23437157D01*
X9386741Y-23474815D01*
X9396006Y-23492997D01*
X9502441Y-23639494D01*
X9502445Y-23639499D01*
X9630500Y-23767554D01*
X9630505Y-23767558D01*
X9666966Y-23794048D01*
X9777006Y-23873996D01*
X9882484Y-23927740D01*
X9938360Y-23956211D01*
X9938363Y-23956212D01*
X9999371Y-23976034D01*
X10110591Y-24012171D01*
X10193429Y-24025291D01*
X10289449Y-24040500D01*
X10289454Y-24040500D01*
X10470551Y-24040500D01*
X10557259Y-24026765D01*
X10649409Y-24012171D01*
X10821639Y-23956211D01*
X10982994Y-23873996D01*
X11129501Y-23767553D01*
X11257553Y-23639501D01*
X11363996Y-23492994D01*
X11446211Y-23331639D01*
X11502171Y-23159409D01*
X11517892Y-23060150D01*
X11530500Y-22980551D01*
X11530500Y-22799448D01*
X11506908Y-22650500D01*
X11502171Y-22620591D01*
X11446566Y-22449454D01*
X11446212Y-22448363D01*
X11446211Y-22448360D01*
X11410185Y-22377656D01*
X11363996Y-22287006D01*
X11293121Y-22189454D01*
X11257558Y-22140505D01*
X11257554Y-22140500D01*
X11129499Y-22012445D01*
X11129494Y-22012441D01*
X10982997Y-21906006D01*
X10982996Y-21906005D01*
X10982994Y-21906004D01*
X10924644Y-21876273D01*
X10821639Y-21823788D01*
X10821636Y-21823787D01*
X10649410Y-21767829D01*
X10489321Y-21742473D01*
X10426186Y-21712544D01*
X10389255Y-21653232D01*
X10390253Y-21583370D01*
X10428863Y-21525137D01*
X10489321Y-21497527D01*
X10559425Y-21486422D01*
X10649409Y-21472171D01*
X10821639Y-21416211D01*
X10982994Y-21333996D01*
X11129501Y-21227553D01*
X11257553Y-21099501D01*
X11363996Y-20952994D01*
X11446211Y-20791639D01*
X11502171Y-20619409D01*
X11516765Y-20527259D01*
X11530500Y-20440551D01*
X11530500Y-20259448D01*
X11512213Y-20143993D01*
X11502171Y-20080591D01*
X11451942Y-19926000D01*
X11446212Y-19908363D01*
X11446211Y-19908360D01*
X11410047Y-19837385D01*
X11363996Y-19747006D01*
X11350396Y-19728287D01*
X11257558Y-19600505D01*
X11257554Y-19600500D01*
X11129499Y-19472445D01*
X11129494Y-19472441D01*
X10982997Y-19366006D01*
X10982996Y-19366005D01*
X10982994Y-19366004D01*
X10903501Y-19325500D01*
X10821639Y-19283788D01*
X10821636Y-19283787D01*
X10649410Y-19227829D01*
X10489321Y-19202473D01*
X10426186Y-19172544D01*
X10389255Y-19113232D01*
X10390253Y-19043370D01*
X10428863Y-18985137D01*
X10489321Y-18957527D01*
X10559425Y-18946422D01*
X10649409Y-18932171D01*
X10821639Y-18876211D01*
X10982994Y-18793996D01*
X11129501Y-18687553D01*
X11257553Y-18559501D01*
X11363996Y-18412994D01*
X11446211Y-18251639D01*
X11502171Y-18079409D01*
X11526907Y-17923232D01*
X11530500Y-17900551D01*
X11530500Y-17719448D01*
X11507859Y-17576503D01*
X11502171Y-17540591D01*
X11454177Y-17392878D01*
X11446212Y-17368363D01*
X11446211Y-17368360D01*
X11417740Y-17312484D01*
X11363996Y-17207006D01*
X11309925Y-17132583D01*
X11257558Y-17060505D01*
X11257554Y-17060500D01*
X11129499Y-16932445D01*
X11129494Y-16932441D01*
X10982997Y-16826006D01*
X10982996Y-16826005D01*
X10982994Y-16826004D01*
X10924644Y-16796273D01*
X10821639Y-16743788D01*
X10821636Y-16743787D01*
X10649410Y-16687829D01*
X10489321Y-16662473D01*
X10426186Y-16632544D01*
X10389255Y-16573232D01*
X10390253Y-16503370D01*
X10428863Y-16445137D01*
X10489321Y-16417527D01*
X10559425Y-16406422D01*
X10649409Y-16392171D01*
X10821639Y-16336211D01*
X10982994Y-16253996D01*
X11129501Y-16147553D01*
X11257553Y-16019501D01*
X11363996Y-15872994D01*
X11446211Y-15711639D01*
X11502171Y-15539409D01*
X11526907Y-15383232D01*
X11530500Y-15360551D01*
X11530500Y-15179448D01*
X11509930Y-15049580D01*
X11502171Y-15000591D01*
X11447320Y-14831774D01*
X11446212Y-14828363D01*
X11446211Y-14828360D01*
X11390478Y-14718980D01*
X11363996Y-14667006D01*
X11350396Y-14648287D01*
X11257558Y-14520505D01*
X11257554Y-14520500D01*
X11129499Y-14392445D01*
X11129494Y-14392441D01*
X10982997Y-14286006D01*
X10982996Y-14286005D01*
X10982994Y-14286004D01*
X10917549Y-14252658D01*
X10821639Y-14203788D01*
X10821636Y-14203787D01*
X10649410Y-14147829D01*
X10489321Y-14122473D01*
X10426186Y-14092544D01*
X10389255Y-14033232D01*
X10390253Y-13963370D01*
X10428863Y-13905137D01*
X10489321Y-13877527D01*
X10559425Y-13866422D01*
X10649409Y-13852171D01*
X10821639Y-13796211D01*
X10982994Y-13713996D01*
X11129501Y-13607553D01*
X11257553Y-13479501D01*
X11363996Y-13332994D01*
X11446211Y-13171639D01*
X11502171Y-12999409D01*
X11526907Y-12843232D01*
X11530500Y-12820551D01*
X11530500Y-12639448D01*
X11512213Y-12523993D01*
X11502171Y-12460591D01*
X11474191Y-12374476D01*
X11446212Y-12288363D01*
X11446211Y-12288360D01*
X11417740Y-12232484D01*
X11363996Y-12127006D01*
X11350396Y-12108287D01*
X11257558Y-11980505D01*
X11257554Y-11980500D01*
X11129499Y-11852445D01*
X11129494Y-11852441D01*
X10982997Y-11746006D01*
X10982996Y-11746005D01*
X10982994Y-11746004D01*
X10924644Y-11716273D01*
X10821639Y-11663788D01*
X10821636Y-11663787D01*
X10649410Y-11607829D01*
X10489321Y-11582473D01*
X10426186Y-11552544D01*
X10389255Y-11493232D01*
X10390253Y-11423370D01*
X10428863Y-11365137D01*
X10489321Y-11337527D01*
X10559425Y-11326422D01*
X10649409Y-11312171D01*
X10821639Y-11256211D01*
X10982994Y-11173996D01*
X11129501Y-11067553D01*
X11257553Y-10939501D01*
X11363996Y-10792994D01*
X11446211Y-10631639D01*
X11502171Y-10459409D01*
X11516800Y-10367044D01*
X11530500Y-10280551D01*
X11530500Y-10099448D01*
X11501904Y-9918906D01*
X11510858Y-9849613D01*
X11536693Y-9811830D01*
X16957905Y-4390619D01*
X17019228Y-4357134D01*
X17045586Y-4354300D01*
X24345500Y-4354300D01*
X24412539Y-4373985D01*
X24458294Y-4426789D01*
X24469500Y-4478300D01*
X24469500Y-5218480D01*
X24449815Y-5285519D01*
X24433181Y-5306161D01*
X23624188Y-6115153D01*
X23624185Y-6115156D01*
X23564603Y-6204329D01*
X23547530Y-6229880D01*
X23547523Y-6229892D01*
X23494720Y-6357371D01*
X23494718Y-6357377D01*
X23467800Y-6492704D01*
X23467800Y-24366000D01*
X23448115Y-24433039D01*
X23395311Y-24478794D01*
X23343800Y-24490000D01*
X7500000Y-24490000D01*
X500500Y-24490000D01*
X500500Y-3878711D01*
X2149500Y-3878711D01*
X2149500Y-4121288D01*
X2180992Y-4360505D01*
X2181162Y-4361789D01*
X2212381Y-4478300D01*
X2243947Y-4596104D01*
X2318049Y-4775001D01*
X2336776Y-4820212D01*
X2458064Y-5030289D01*
X2458066Y-5030292D01*
X2458067Y-5030293D01*
X2605733Y-5222736D01*
X2605739Y-5222743D01*
X2777256Y-5394260D01*
X2777262Y-5394265D01*
X2969711Y-5541936D01*
X3179788Y-5663224D01*
X3403900Y-5756054D01*
X3638211Y-5818838D01*
X3818586Y-5842584D01*
X3878711Y-5850500D01*
X3878712Y-5850500D01*
X4121289Y-5850500D01*
X4169388Y-5844167D01*
X4361789Y-5818838D01*
X4596100Y-5756054D01*
X4820212Y-5663224D01*
X5030289Y-5541936D01*
X5222738Y-5394265D01*
X5394265Y-5222738D01*
X5541936Y-5030289D01*
X5663224Y-4820212D01*
X5756054Y-4596100D01*
X5818838Y-4361789D01*
X5850500Y-4121288D01*
X5850500Y-3878712D01*
X5818838Y-3638211D01*
X5756054Y-3403900D01*
X5663224Y-3179788D01*
X5541936Y-2969711D01*
X5394265Y-2777262D01*
X5394260Y-2777256D01*
X5222743Y-2605739D01*
X5222736Y-2605733D01*
X5030293Y-2458067D01*
X5030292Y-2458066D01*
X5030289Y-2458064D01*
X4820212Y-2336776D01*
X4820205Y-2336773D01*
X4596104Y-2243947D01*
X4361785Y-2181161D01*
X4121289Y-2149500D01*
X4121288Y-2149500D01*
X3878712Y-2149500D01*
X3878711Y-2149500D01*
X3638214Y-2181161D01*
X3403895Y-2243947D01*
X3179794Y-2336773D01*
X3179785Y-2336777D01*
X2969706Y-2458067D01*
X2777263Y-2605733D01*
X2777256Y-2605739D01*
X2605739Y-2777256D01*
X2605733Y-2777263D01*
X2458067Y-2969706D01*
X2336777Y-3179785D01*
X2336773Y-3179794D01*
X2243947Y-3403895D01*
X2181161Y-3638214D01*
X2149500Y-3878711D01*
X500500Y-3878711D01*
X500500Y-624500D01*
X520185Y-557461D01*
X572989Y-511706D01*
X624500Y-500500D01*
X67375500Y-500500D01*
X67442539Y-520185D01*
G37*
%TD.AperFunction*%
%TD*%
M02*
