%TF.GenerationSoftware,KiCad,Pcbnew,9.0.9-9.0.9~ubuntu24.04.1*%
%TF.CreationDate,2026-09-01T13:34:32+02:00*%
%TF.ProjectId,master,6d617374-6572-42e6-9b69-6361645f7063,rev?*%
%TF.SameCoordinates,Original*%
%TF.FileFunction,Paste,Top*%
%TF.FilePolarity,Positive*%
%FSLAX46Y46*%
G04 Gerber Fmt 4.6, Leading zero omitted, Abs format (unit mm)*
G04 Created by KiCad (PCBNEW 9.0.9-9.0.9~ubuntu24.04.1) date 2026-09-01 13:34:32*
%MOMM*%
%LPD*%
G01*
G04 APERTURE LIST*
G04 Aperture macros list*
%AMRoundRect*
0 Rectangle with rounded corners*
0 $1 Rounding radius*
0 $2 $3 $4 $5 $6 $7 $8 $9 X,Y pos of 4 corners*
0 Add a 4 corners polygon primitive as box body*
4,1,4,$2,$3,$4,$5,$6,$7,$8,$9,$2,$3,0*
0 Add four circle primitives for the rounded corners*
1,1,$1+$1,$2,$3*
1,1,$1+$1,$4,$5*
1,1,$1+$1,$6,$7*
1,1,$1+$1,$8,$9*
0 Add four rect primitives between the rounded corners*
20,1,$1+$1,$2,$3,$4,$5,0*
20,1,$1+$1,$4,$5,$6,$7,0*
20,1,$1+$1,$6,$7,$8,$9,0*
20,1,$1+$1,$8,$9,$2,$3,0*%
G04 Aperture macros list end*
%ADD10RoundRect,0.250000X-0.250000X-0.475000X0.250000X-0.475000X0.250000X0.475000X-0.250000X0.475000X0*%
%ADD11RoundRect,0.218750X0.381250X-0.218750X0.381250X0.218750X-0.381250X0.218750X-0.381250X-0.218750X0*%
%ADD12RoundRect,0.150000X-0.512500X-0.150000X0.512500X-0.150000X0.512500X0.150000X-0.512500X0.150000X0*%
%ADD13RoundRect,0.250000X-0.262500X-0.450000X0.262500X-0.450000X0.262500X0.450000X-0.262500X0.450000X0*%
%ADD14RoundRect,0.250000X0.450000X-0.262500X0.450000X0.262500X-0.450000X0.262500X-0.450000X-0.262500X0*%
%ADD15RoundRect,0.243750X-0.243750X-0.456250X0.243750X-0.456250X0.243750X0.456250X-0.243750X0.456250X0*%
%ADD16RoundRect,0.250000X0.475000X-0.250000X0.475000X0.250000X-0.475000X0.250000X-0.475000X-0.250000X0*%
%ADD17RoundRect,0.250000X0.650000X-0.325000X0.650000X0.325000X-0.650000X0.325000X-0.650000X-0.325000X0*%
%ADD18RoundRect,0.150000X-0.825000X-0.150000X0.825000X-0.150000X0.825000X0.150000X-0.825000X0.150000X0*%
G04 APERTURE END LIST*
D10*
%TO.C,C5*%
X43050000Y-15000000D03*
X44950000Y-15000000D03*
%TD*%
D11*
%TO.C,FB1*%
X24000000Y-49062500D03*
X24000000Y-46937500D03*
%TD*%
D12*
%TO.C,U3*%
X32862500Y-37050000D03*
X32862500Y-38000000D03*
X32862500Y-38950000D03*
X35137500Y-38950000D03*
X35137500Y-37050000D03*
%TD*%
D13*
%TO.C,R6*%
X36087500Y-48000000D03*
X37912500Y-48000000D03*
%TD*%
D14*
%TO.C,R1*%
X33000000Y-22912500D03*
X33000000Y-21087500D03*
%TD*%
D15*
%TO.C,D1*%
X41062500Y-48000000D03*
X42937500Y-48000000D03*
%TD*%
D10*
%TO.C,C4*%
X31050000Y-6000000D03*
X32950000Y-6000000D03*
%TD*%
D16*
%TO.C,C1*%
X40000000Y-21950000D03*
X40000000Y-20050000D03*
%TD*%
D14*
%TO.C,R3*%
X33000000Y-30912500D03*
X33000000Y-29087500D03*
%TD*%
%TO.C,R2*%
X33000000Y-26912500D03*
X33000000Y-25087500D03*
%TD*%
D17*
%TO.C,C3*%
X29000000Y-49475000D03*
X29000000Y-46525000D03*
%TD*%
D13*
%TO.C,R4*%
X43087500Y-30000000D03*
X44912500Y-30000000D03*
%TD*%
D10*
%TO.C,C2*%
X33050000Y-34000000D03*
X34950000Y-34000000D03*
%TD*%
D13*
%TO.C,R5*%
X39087500Y-38000000D03*
X40912500Y-38000000D03*
%TD*%
D18*
%TO.C,U2*%
X37525000Y-24095000D03*
X37525000Y-25365000D03*
X37525000Y-26635000D03*
X37525000Y-27905000D03*
X42475000Y-27905000D03*
X42475000Y-26635000D03*
X42475000Y-25365000D03*
X42475000Y-24095000D03*
%TD*%
D13*
%TO.C,R7*%
X29087500Y-42000000D03*
X30912500Y-42000000D03*
%TD*%
M02*
