M48
; DRILL file {KiCad 9.0.9-9.0.9~ubuntu24.04.1} date 2026-09-01T13:34:33+0200
; FORMAT={-:-/ absolute / metric / decimal}
; #@! TF.CreationDate,2026-09-01T13:34:33+02:00
; #@! TF.GenerationSoftware,Kicad,Pcbnew,9.0.9-9.0.9~ubuntu24.04.1
; #@! TF.FileFunction,MixedPlating,1,2
FMAT,2
METRIC
; #@! TA.AperFunction,Plated,PTH,ViaDrill
T1C0.300
; #@! TA.AperFunction,Plated,PTH,ViaDrill
T2C0.400
; #@! TA.AperFunction,Plated,PTH,ComponentDrill
T3C1.000
; #@! TA.AperFunction,Plated,PTH,ComponentDrill
T4C1.300
; #@! TA.AperFunction,NonPlated,NPTH,ComponentDrill
T5C3.200
%
G90
G05
T1
X27.556Y-46.968
X29.087Y-38.41
X31.653Y-39.196
X31.951Y-25.924
X33.852Y-6.902
X34.95Y-32.35
X35.185Y-47.097
X35.811Y-27.386
X36.156Y-21.077
X36.704Y-23.274
X37.622Y-19.267
X37.643Y-20.084
X39.077Y-26.999
X40.967Y-25.365
X41.997Y-47.083
X42.253Y-17.797
X42.513Y-23.086
X43.986Y-26.635
X43.996Y-24.281
X46.373Y-25.365
X48.682Y-35.557
X55.888Y-40.888
T2
X4.925Y-9.925
X4.925Y-14.925
X4.925Y-19.925
X4.925Y-24.925
X4.925Y-29.925
X4.925Y-34.925
X4.925Y-39.925
X4.925Y-44.925
X9.925Y-29.925
X9.925Y-34.925
X9.925Y-39.925
X9.925Y-44.925
X14.925Y-9.925
X14.925Y-14.925
X14.925Y-19.925
X14.925Y-34.925
X14.925Y-39.925
X14.925Y-44.925
X19.925Y-4.925
X19.925Y-9.925
X19.925Y-14.925
X19.925Y-19.925
X19.925Y-29.925
X19.925Y-39.925
X19.925Y-44.925
X24.925Y-29.925
X24.925Y-34.925
X29.925Y-14.925
X29.925Y-24.925
X29.925Y-29.925
X29.925Y-44.925
X30.4Y-46.525
X32.862Y-40.35
X32.95Y-7.8
X34.925Y-4.925
X34.925Y-14.925
X34.925Y-29.925
X36.125Y-25.365
X39.663Y-48.0
X39.925Y-4.925
X39.925Y-9.925
X39.925Y-29.925
X39.925Y-34.925
X39.925Y-39.925
X39.925Y-44.925
X41.55Y-42.0
X43.875Y-27.905
X44.913Y-31.4
X44.925Y-4.925
X44.925Y-9.925
X44.95Y-13.6
X47.914Y-42.086
X48.404Y-16.719
X52.341Y-22.636
X52.341Y-35.557
X53.532Y-44.115
X54.925Y-4.925
X54.925Y-14.925
X54.925Y-19.925
X55.0Y-38.6
X59.925Y-4.925
X59.925Y-9.925
X59.925Y-29.925
X59.925Y-34.925
X59.925Y-39.925
X59.925Y-44.925
X59.925Y-49.925
X64.925Y-9.925
X64.925Y-14.925
X64.925Y-19.925
X64.925Y-24.925
X64.925Y-29.925
X64.925Y-34.925
X64.925Y-39.925
X64.925Y-44.925
T3
X10.38Y-5.11
X10.38Y-7.65
X10.38Y-10.19
X10.38Y-12.73
X10.38Y-15.27
X10.38Y-17.81
X10.38Y-20.35
X10.38Y-22.89
X25.62Y-5.11
X25.62Y-7.65
X25.62Y-10.19
X25.62Y-12.73
X25.62Y-15.27
X25.62Y-17.81
X25.62Y-20.35
X25.62Y-22.89
X46.0Y-50.0
X48.54Y-50.0
X50.0Y-9.0
X50.0Y-11.54
X50.0Y-14.08
X50.0Y-16.62
X50.0Y-19.16
X51.08Y-50.0
X52.54Y-9.0
X52.54Y-11.54
X52.54Y-14.08
X52.54Y-16.62
X52.54Y-19.16
X53.62Y-50.0
X62.0Y-20.0
X62.0Y-22.54
X62.0Y-25.08
X62.0Y-27.62
T4
X11.0Y-48.0
X16.08Y-48.0
T5
X4.0Y-4.0
X4.0Y-50.0
X64.0Y-4.0
X64.0Y-50.0
M30
