%TF.GenerationSoftware,KiCad,Pcbnew,9.0.9-9.0.9~ubuntu24.04.1*%
%TF.CreationDate,2026-09-01T13:34:32+02:00*%
%TF.ProjectId,master,6d617374-6572-42e6-9b69-6361645f7063,rev?*%
%TF.SameCoordinates,Original*%
%TF.FileFunction,Legend,Top*%
%TF.FilePolarity,Positive*%
%FSLAX46Y46*%
G04 Gerber Fmt 4.6, Leading zero omitted, Abs format (unit mm)*
G04 Created by KiCad (PCBNEW 9.0.9-9.0.9~ubuntu24.04.1) date 2026-09-01 13:34:32*
%MOMM*%
%LPD*%
G01*
G04 APERTURE LIST*
%ADD10C,0.150000*%
%ADD11C,0.130000*%
%ADD12C,0.120000*%
%ADD13C,0.350000*%
G04 APERTURE END LIST*
D10*
X53738095Y-32806819D02*
X54309523Y-32806819D01*
X54023809Y-33806819D02*
X54023809Y-32806819D01*
X54642857Y-33806819D02*
X54642857Y-32806819D01*
X54642857Y-32806819D02*
X55023809Y-32806819D01*
X55023809Y-32806819D02*
X55119047Y-32854438D01*
X55119047Y-32854438D02*
X55166666Y-32902057D01*
X55166666Y-32902057D02*
X55214285Y-32997295D01*
X55214285Y-32997295D02*
X55214285Y-33140152D01*
X55214285Y-33140152D02*
X55166666Y-33235390D01*
X55166666Y-33235390D02*
X55119047Y-33283009D01*
X55119047Y-33283009D02*
X55023809Y-33330628D01*
X55023809Y-33330628D02*
X54642857Y-33330628D01*
X56071428Y-33140152D02*
X56071428Y-33806819D01*
X55833333Y-32759200D02*
X55595238Y-33473485D01*
X55595238Y-33473485D02*
X56214285Y-33473485D01*
X50936666Y-2354819D02*
X50936666Y-3069104D01*
X50936666Y-3069104D02*
X50889047Y-3211961D01*
X50889047Y-3211961D02*
X50793809Y-3307200D01*
X50793809Y-3307200D02*
X50650952Y-3354819D01*
X50650952Y-3354819D02*
X50555714Y-3354819D01*
X51365238Y-2450057D02*
X51412857Y-2402438D01*
X51412857Y-2402438D02*
X51508095Y-2354819D01*
X51508095Y-2354819D02*
X51746190Y-2354819D01*
X51746190Y-2354819D02*
X51841428Y-2402438D01*
X51841428Y-2402438D02*
X51889047Y-2450057D01*
X51889047Y-2450057D02*
X51936666Y-2545295D01*
X51936666Y-2545295D02*
X51936666Y-2640533D01*
X51936666Y-2640533D02*
X51889047Y-2783390D01*
X51889047Y-2783390D02*
X51317619Y-3354819D01*
X51317619Y-3354819D02*
X51936666Y-3354819D01*
X43833333Y-13679580D02*
X43785714Y-13727200D01*
X43785714Y-13727200D02*
X43642857Y-13774819D01*
X43642857Y-13774819D02*
X43547619Y-13774819D01*
X43547619Y-13774819D02*
X43404762Y-13727200D01*
X43404762Y-13727200D02*
X43309524Y-13631961D01*
X43309524Y-13631961D02*
X43261905Y-13536723D01*
X43261905Y-13536723D02*
X43214286Y-13346247D01*
X43214286Y-13346247D02*
X43214286Y-13203390D01*
X43214286Y-13203390D02*
X43261905Y-13012914D01*
X43261905Y-13012914D02*
X43309524Y-12917676D01*
X43309524Y-12917676D02*
X43404762Y-12822438D01*
X43404762Y-12822438D02*
X43547619Y-12774819D01*
X43547619Y-12774819D02*
X43642857Y-12774819D01*
X43642857Y-12774819D02*
X43785714Y-12822438D01*
X43785714Y-12822438D02*
X43833333Y-12870057D01*
X44738095Y-12774819D02*
X44261905Y-12774819D01*
X44261905Y-12774819D02*
X44214286Y-13251009D01*
X44214286Y-13251009D02*
X44261905Y-13203390D01*
X44261905Y-13203390D02*
X44357143Y-13155771D01*
X44357143Y-13155771D02*
X44595238Y-13155771D01*
X44595238Y-13155771D02*
X44690476Y-13203390D01*
X44690476Y-13203390D02*
X44738095Y-13251009D01*
X44738095Y-13251009D02*
X44785714Y-13346247D01*
X44785714Y-13346247D02*
X44785714Y-13584342D01*
X44785714Y-13584342D02*
X44738095Y-13679580D01*
X44738095Y-13679580D02*
X44690476Y-13727200D01*
X44690476Y-13727200D02*
X44595238Y-13774819D01*
X44595238Y-13774819D02*
X44357143Y-13774819D01*
X44357143Y-13774819D02*
X44261905Y-13727200D01*
X44261905Y-13727200D02*
X44214286Y-13679580D01*
X22381009Y-48833333D02*
X22381009Y-49166666D01*
X22904819Y-49166666D02*
X21904819Y-49166666D01*
X21904819Y-49166666D02*
X21904819Y-48690476D01*
X22381009Y-47976190D02*
X22428628Y-47833333D01*
X22428628Y-47833333D02*
X22476247Y-47785714D01*
X22476247Y-47785714D02*
X22571485Y-47738095D01*
X22571485Y-47738095D02*
X22714342Y-47738095D01*
X22714342Y-47738095D02*
X22809580Y-47785714D01*
X22809580Y-47785714D02*
X22857200Y-47833333D01*
X22857200Y-47833333D02*
X22904819Y-47928571D01*
X22904819Y-47928571D02*
X22904819Y-48309523D01*
X22904819Y-48309523D02*
X21904819Y-48309523D01*
X21904819Y-48309523D02*
X21904819Y-47976190D01*
X21904819Y-47976190D02*
X21952438Y-47880952D01*
X21952438Y-47880952D02*
X22000057Y-47833333D01*
X22000057Y-47833333D02*
X22095295Y-47785714D01*
X22095295Y-47785714D02*
X22190533Y-47785714D01*
X22190533Y-47785714D02*
X22285771Y-47833333D01*
X22285771Y-47833333D02*
X22333390Y-47880952D01*
X22333390Y-47880952D02*
X22381009Y-47976190D01*
X22381009Y-47976190D02*
X22381009Y-48309523D01*
X22904819Y-46785714D02*
X22904819Y-47357142D01*
X22904819Y-47071428D02*
X21904819Y-47071428D01*
X21904819Y-47071428D02*
X22047676Y-47166666D01*
X22047676Y-47166666D02*
X22142914Y-47261904D01*
X22142914Y-47261904D02*
X22190533Y-47357142D01*
X53738095Y-41806819D02*
X54309523Y-41806819D01*
X54023809Y-42806819D02*
X54023809Y-41806819D01*
X54642857Y-42806819D02*
X54642857Y-41806819D01*
X54642857Y-41806819D02*
X55023809Y-41806819D01*
X55023809Y-41806819D02*
X55119047Y-41854438D01*
X55119047Y-41854438D02*
X55166666Y-41902057D01*
X55166666Y-41902057D02*
X55214285Y-41997295D01*
X55214285Y-41997295D02*
X55214285Y-42140152D01*
X55214285Y-42140152D02*
X55166666Y-42235390D01*
X55166666Y-42235390D02*
X55119047Y-42283009D01*
X55119047Y-42283009D02*
X55023809Y-42330628D01*
X55023809Y-42330628D02*
X54642857Y-42330628D01*
X55547619Y-41806819D02*
X56214285Y-41806819D01*
X56214285Y-41806819D02*
X55785714Y-42806819D01*
X33238095Y-35054819D02*
X33238095Y-35864342D01*
X33238095Y-35864342D02*
X33285714Y-35959580D01*
X33285714Y-35959580D02*
X33333333Y-36007200D01*
X33333333Y-36007200D02*
X33428571Y-36054819D01*
X33428571Y-36054819D02*
X33619047Y-36054819D01*
X33619047Y-36054819D02*
X33714285Y-36007200D01*
X33714285Y-36007200D02*
X33761904Y-35959580D01*
X33761904Y-35959580D02*
X33809523Y-35864342D01*
X33809523Y-35864342D02*
X33809523Y-35054819D01*
X34190476Y-35054819D02*
X34809523Y-35054819D01*
X34809523Y-35054819D02*
X34476190Y-35435771D01*
X34476190Y-35435771D02*
X34619047Y-35435771D01*
X34619047Y-35435771D02*
X34714285Y-35483390D01*
X34714285Y-35483390D02*
X34761904Y-35531009D01*
X34761904Y-35531009D02*
X34809523Y-35626247D01*
X34809523Y-35626247D02*
X34809523Y-35864342D01*
X34809523Y-35864342D02*
X34761904Y-35959580D01*
X34761904Y-35959580D02*
X34714285Y-36007200D01*
X34714285Y-36007200D02*
X34619047Y-36054819D01*
X34619047Y-36054819D02*
X34333333Y-36054819D01*
X34333333Y-36054819D02*
X34238095Y-36007200D01*
X34238095Y-36007200D02*
X34190476Y-35959580D01*
X48738095Y-27806819D02*
X49309523Y-27806819D01*
X49023809Y-28806819D02*
X49023809Y-27806819D01*
X49642857Y-28806819D02*
X49642857Y-27806819D01*
X49642857Y-27806819D02*
X50023809Y-27806819D01*
X50023809Y-27806819D02*
X50119047Y-27854438D01*
X50119047Y-27854438D02*
X50166666Y-27902057D01*
X50166666Y-27902057D02*
X50214285Y-27997295D01*
X50214285Y-27997295D02*
X50214285Y-28140152D01*
X50214285Y-28140152D02*
X50166666Y-28235390D01*
X50166666Y-28235390D02*
X50119047Y-28283009D01*
X50119047Y-28283009D02*
X50023809Y-28330628D01*
X50023809Y-28330628D02*
X49642857Y-28330628D01*
X51166666Y-28806819D02*
X50595238Y-28806819D01*
X50880952Y-28806819D02*
X50880952Y-27806819D01*
X50880952Y-27806819D02*
X50785714Y-27949676D01*
X50785714Y-27949676D02*
X50690476Y-28044914D01*
X50690476Y-28044914D02*
X50595238Y-28092533D01*
X48738095Y-32806819D02*
X49309523Y-32806819D01*
X49023809Y-33806819D02*
X49023809Y-32806819D01*
X49642857Y-33806819D02*
X49642857Y-32806819D01*
X49642857Y-32806819D02*
X50023809Y-32806819D01*
X50023809Y-32806819D02*
X50119047Y-32854438D01*
X50119047Y-32854438D02*
X50166666Y-32902057D01*
X50166666Y-32902057D02*
X50214285Y-32997295D01*
X50214285Y-32997295D02*
X50214285Y-33140152D01*
X50214285Y-33140152D02*
X50166666Y-33235390D01*
X50166666Y-33235390D02*
X50119047Y-33283009D01*
X50119047Y-33283009D02*
X50023809Y-33330628D01*
X50023809Y-33330628D02*
X49642857Y-33330628D01*
X50547619Y-32806819D02*
X51166666Y-32806819D01*
X51166666Y-32806819D02*
X50833333Y-33187771D01*
X50833333Y-33187771D02*
X50976190Y-33187771D01*
X50976190Y-33187771D02*
X51071428Y-33235390D01*
X51071428Y-33235390D02*
X51119047Y-33283009D01*
X51119047Y-33283009D02*
X51166666Y-33378247D01*
X51166666Y-33378247D02*
X51166666Y-33616342D01*
X51166666Y-33616342D02*
X51119047Y-33711580D01*
X51119047Y-33711580D02*
X51071428Y-33759200D01*
X51071428Y-33759200D02*
X50976190Y-33806819D01*
X50976190Y-33806819D02*
X50690476Y-33806819D01*
X50690476Y-33806819D02*
X50595238Y-33759200D01*
X50595238Y-33759200D02*
X50547619Y-33711580D01*
X36833333Y-46804819D02*
X36500000Y-46328628D01*
X36261905Y-46804819D02*
X36261905Y-45804819D01*
X36261905Y-45804819D02*
X36642857Y-45804819D01*
X36642857Y-45804819D02*
X36738095Y-45852438D01*
X36738095Y-45852438D02*
X36785714Y-45900057D01*
X36785714Y-45900057D02*
X36833333Y-45995295D01*
X36833333Y-45995295D02*
X36833333Y-46138152D01*
X36833333Y-46138152D02*
X36785714Y-46233390D01*
X36785714Y-46233390D02*
X36738095Y-46281009D01*
X36738095Y-46281009D02*
X36642857Y-46328628D01*
X36642857Y-46328628D02*
X36261905Y-46328628D01*
X37690476Y-45804819D02*
X37500000Y-45804819D01*
X37500000Y-45804819D02*
X37404762Y-45852438D01*
X37404762Y-45852438D02*
X37357143Y-45900057D01*
X37357143Y-45900057D02*
X37261905Y-46042914D01*
X37261905Y-46042914D02*
X37214286Y-46233390D01*
X37214286Y-46233390D02*
X37214286Y-46614342D01*
X37214286Y-46614342D02*
X37261905Y-46709580D01*
X37261905Y-46709580D02*
X37309524Y-46757200D01*
X37309524Y-46757200D02*
X37404762Y-46804819D01*
X37404762Y-46804819D02*
X37595238Y-46804819D01*
X37595238Y-46804819D02*
X37690476Y-46757200D01*
X37690476Y-46757200D02*
X37738095Y-46709580D01*
X37738095Y-46709580D02*
X37785714Y-46614342D01*
X37785714Y-46614342D02*
X37785714Y-46376247D01*
X37785714Y-46376247D02*
X37738095Y-46281009D01*
X37738095Y-46281009D02*
X37690476Y-46233390D01*
X37690476Y-46233390D02*
X37595238Y-46185771D01*
X37595238Y-46185771D02*
X37404762Y-46185771D01*
X37404762Y-46185771D02*
X37309524Y-46233390D01*
X37309524Y-46233390D02*
X37261905Y-46281009D01*
X37261905Y-46281009D02*
X37214286Y-46376247D01*
X17238095Y-26954819D02*
X17238095Y-27764342D01*
X17238095Y-27764342D02*
X17285714Y-27859580D01*
X17285714Y-27859580D02*
X17333333Y-27907200D01*
X17333333Y-27907200D02*
X17428571Y-27954819D01*
X17428571Y-27954819D02*
X17619047Y-27954819D01*
X17619047Y-27954819D02*
X17714285Y-27907200D01*
X17714285Y-27907200D02*
X17761904Y-27859580D01*
X17761904Y-27859580D02*
X17809523Y-27764342D01*
X17809523Y-27764342D02*
X17809523Y-26954819D01*
X18809523Y-27954819D02*
X18238095Y-27954819D01*
X18523809Y-27954819D02*
X18523809Y-26954819D01*
X18523809Y-26954819D02*
X18428571Y-27097676D01*
X18428571Y-27097676D02*
X18333333Y-27192914D01*
X18333333Y-27192914D02*
X18238095Y-27240533D01*
X15857142Y-3848557D02*
X15857142Y-4577128D01*
X15857142Y-4577128D02*
X15899999Y-4662842D01*
X15899999Y-4662842D02*
X15942857Y-4705700D01*
X15942857Y-4705700D02*
X16028571Y-4748557D01*
X16028571Y-4748557D02*
X16199999Y-4748557D01*
X16199999Y-4748557D02*
X16285714Y-4705700D01*
X16285714Y-4705700D02*
X16328571Y-4662842D01*
X16328571Y-4662842D02*
X16371428Y-4577128D01*
X16371428Y-4577128D02*
X16371428Y-3848557D01*
X16757142Y-4705700D02*
X16885714Y-4748557D01*
X16885714Y-4748557D02*
X17099999Y-4748557D01*
X17099999Y-4748557D02*
X17185714Y-4705700D01*
X17185714Y-4705700D02*
X17228571Y-4662842D01*
X17228571Y-4662842D02*
X17271428Y-4577128D01*
X17271428Y-4577128D02*
X17271428Y-4491414D01*
X17271428Y-4491414D02*
X17228571Y-4405700D01*
X17228571Y-4405700D02*
X17185714Y-4362842D01*
X17185714Y-4362842D02*
X17099999Y-4319985D01*
X17099999Y-4319985D02*
X16928571Y-4277128D01*
X16928571Y-4277128D02*
X16842856Y-4234271D01*
X16842856Y-4234271D02*
X16799999Y-4191414D01*
X16799999Y-4191414D02*
X16757142Y-4105700D01*
X16757142Y-4105700D02*
X16757142Y-4019985D01*
X16757142Y-4019985D02*
X16799999Y-3934271D01*
X16799999Y-3934271D02*
X16842856Y-3891414D01*
X16842856Y-3891414D02*
X16928571Y-3848557D01*
X16928571Y-3848557D02*
X17142856Y-3848557D01*
X17142856Y-3848557D02*
X17271428Y-3891414D01*
X17957142Y-4277128D02*
X18085714Y-4319985D01*
X18085714Y-4319985D02*
X18128571Y-4362842D01*
X18128571Y-4362842D02*
X18171428Y-4448557D01*
X18171428Y-4448557D02*
X18171428Y-4577128D01*
X18171428Y-4577128D02*
X18128571Y-4662842D01*
X18128571Y-4662842D02*
X18085714Y-4705700D01*
X18085714Y-4705700D02*
X17999999Y-4748557D01*
X17999999Y-4748557D02*
X17657142Y-4748557D01*
X17657142Y-4748557D02*
X17657142Y-3848557D01*
X17657142Y-3848557D02*
X17957142Y-3848557D01*
X17957142Y-3848557D02*
X18042857Y-3891414D01*
X18042857Y-3891414D02*
X18085714Y-3934271D01*
X18085714Y-3934271D02*
X18128571Y-4019985D01*
X18128571Y-4019985D02*
X18128571Y-4105700D01*
X18128571Y-4105700D02*
X18085714Y-4191414D01*
X18085714Y-4191414D02*
X18042857Y-4234271D01*
X18042857Y-4234271D02*
X17957142Y-4277128D01*
X17957142Y-4277128D02*
X17657142Y-4277128D01*
X18557142Y-4405700D02*
X19242857Y-4405700D01*
X20185714Y-4662842D02*
X20142857Y-4705700D01*
X20142857Y-4705700D02*
X20014285Y-4748557D01*
X20014285Y-4748557D02*
X19928571Y-4748557D01*
X19928571Y-4748557D02*
X19800000Y-4705700D01*
X19800000Y-4705700D02*
X19714285Y-4619985D01*
X19714285Y-4619985D02*
X19671428Y-4534271D01*
X19671428Y-4534271D02*
X19628571Y-4362842D01*
X19628571Y-4362842D02*
X19628571Y-4234271D01*
X19628571Y-4234271D02*
X19671428Y-4062842D01*
X19671428Y-4062842D02*
X19714285Y-3977128D01*
X19714285Y-3977128D02*
X19800000Y-3891414D01*
X19800000Y-3891414D02*
X19928571Y-3848557D01*
X19928571Y-3848557D02*
X20014285Y-3848557D01*
X20014285Y-3848557D02*
X20142857Y-3891414D01*
X20142857Y-3891414D02*
X20185714Y-3934271D01*
D11*
X11161904Y-26794763D02*
X11542857Y-26794763D01*
X11085714Y-27023335D02*
X11352381Y-26223335D01*
X11352381Y-26223335D02*
X11619047Y-27023335D01*
X11885714Y-27023335D02*
X11885714Y-26223335D01*
X11885714Y-26223335D02*
X12342857Y-27023335D01*
X12342857Y-27023335D02*
X12342857Y-26223335D01*
X12609523Y-26223335D02*
X13066666Y-26223335D01*
X12838094Y-27023335D02*
X12838094Y-26223335D01*
X13333333Y-26947144D02*
X13371428Y-26985240D01*
X13371428Y-26985240D02*
X13333333Y-27023335D01*
X13333333Y-27023335D02*
X13295237Y-26985240D01*
X13295237Y-26985240D02*
X13333333Y-26947144D01*
X13333333Y-26947144D02*
X13333333Y-27023335D01*
X13333333Y-26528097D02*
X13371428Y-26566192D01*
X13371428Y-26566192D02*
X13333333Y-26604287D01*
X13333333Y-26604287D02*
X13295237Y-26566192D01*
X13295237Y-26566192D02*
X13333333Y-26528097D01*
X13333333Y-26528097D02*
X13333333Y-26604287D01*
X14323809Y-27023335D02*
X14323809Y-26223335D01*
X14399999Y-26718573D02*
X14628571Y-27023335D01*
X14628571Y-26490001D02*
X14323809Y-26794763D01*
X15276190Y-26985240D02*
X15199999Y-27023335D01*
X15199999Y-27023335D02*
X15047618Y-27023335D01*
X15047618Y-27023335D02*
X14971428Y-26985240D01*
X14971428Y-26985240D02*
X14933332Y-26909049D01*
X14933332Y-26909049D02*
X14933332Y-26604287D01*
X14933332Y-26604287D02*
X14971428Y-26528097D01*
X14971428Y-26528097D02*
X15047618Y-26490001D01*
X15047618Y-26490001D02*
X15199999Y-26490001D01*
X15199999Y-26490001D02*
X15276190Y-26528097D01*
X15276190Y-26528097D02*
X15314285Y-26604287D01*
X15314285Y-26604287D02*
X15314285Y-26680478D01*
X15314285Y-26680478D02*
X14933332Y-26756668D01*
X15657142Y-27023335D02*
X15657142Y-26490001D01*
X15657142Y-26223335D02*
X15619046Y-26261430D01*
X15619046Y-26261430D02*
X15657142Y-26299525D01*
X15657142Y-26299525D02*
X15695237Y-26261430D01*
X15695237Y-26261430D02*
X15657142Y-26223335D01*
X15657142Y-26223335D02*
X15657142Y-26299525D01*
X16038094Y-26490001D02*
X16038094Y-27023335D01*
X16038094Y-26566192D02*
X16076189Y-26528097D01*
X16076189Y-26528097D02*
X16152379Y-26490001D01*
X16152379Y-26490001D02*
X16266665Y-26490001D01*
X16266665Y-26490001D02*
X16342856Y-26528097D01*
X16342856Y-26528097D02*
X16380951Y-26604287D01*
X16380951Y-26604287D02*
X16380951Y-27023335D01*
X17066666Y-26985240D02*
X16990475Y-27023335D01*
X16990475Y-27023335D02*
X16838094Y-27023335D01*
X16838094Y-27023335D02*
X16761904Y-26985240D01*
X16761904Y-26985240D02*
X16723808Y-26909049D01*
X16723808Y-26909049D02*
X16723808Y-26604287D01*
X16723808Y-26604287D02*
X16761904Y-26528097D01*
X16761904Y-26528097D02*
X16838094Y-26490001D01*
X16838094Y-26490001D02*
X16990475Y-26490001D01*
X16990475Y-26490001D02*
X17066666Y-26528097D01*
X17066666Y-26528097D02*
X17104761Y-26604287D01*
X17104761Y-26604287D02*
X17104761Y-26680478D01*
X17104761Y-26680478D02*
X16723808Y-26756668D01*
X18514285Y-26947144D02*
X18476189Y-26985240D01*
X18476189Y-26985240D02*
X18361904Y-27023335D01*
X18361904Y-27023335D02*
X18285713Y-27023335D01*
X18285713Y-27023335D02*
X18171427Y-26985240D01*
X18171427Y-26985240D02*
X18095237Y-26909049D01*
X18095237Y-26909049D02*
X18057142Y-26832859D01*
X18057142Y-26832859D02*
X18019046Y-26680478D01*
X18019046Y-26680478D02*
X18019046Y-26566192D01*
X18019046Y-26566192D02*
X18057142Y-26413811D01*
X18057142Y-26413811D02*
X18095237Y-26337620D01*
X18095237Y-26337620D02*
X18171427Y-26261430D01*
X18171427Y-26261430D02*
X18285713Y-26223335D01*
X18285713Y-26223335D02*
X18361904Y-26223335D01*
X18361904Y-26223335D02*
X18476189Y-26261430D01*
X18476189Y-26261430D02*
X18514285Y-26299525D01*
X19199999Y-26490001D02*
X19199999Y-27023335D01*
X18857142Y-26490001D02*
X18857142Y-26909049D01*
X18857142Y-26909049D02*
X18895237Y-26985240D01*
X18895237Y-26985240D02*
X18971427Y-27023335D01*
X18971427Y-27023335D02*
X19085713Y-27023335D01*
X19085713Y-27023335D02*
X19161904Y-26985240D01*
X19161904Y-26985240D02*
X19199999Y-26947144D01*
X19580952Y-26718573D02*
X20190476Y-26718573D01*
X20838094Y-26604287D02*
X20571428Y-26604287D01*
X20571428Y-27023335D02*
X20571428Y-26223335D01*
X20571428Y-26223335D02*
X20952380Y-26223335D01*
X21371427Y-27023335D02*
X21295237Y-26985240D01*
X21295237Y-26985240D02*
X21257142Y-26909049D01*
X21257142Y-26909049D02*
X21257142Y-26223335D01*
X22019047Y-27023335D02*
X22019047Y-26604287D01*
X22019047Y-26604287D02*
X21980952Y-26528097D01*
X21980952Y-26528097D02*
X21904761Y-26490001D01*
X21904761Y-26490001D02*
X21752380Y-26490001D01*
X21752380Y-26490001D02*
X21676190Y-26528097D01*
X22019047Y-26985240D02*
X21942856Y-27023335D01*
X21942856Y-27023335D02*
X21752380Y-27023335D01*
X21752380Y-27023335D02*
X21676190Y-26985240D01*
X21676190Y-26985240D02*
X21638094Y-26909049D01*
X21638094Y-26909049D02*
X21638094Y-26832859D01*
X21638094Y-26832859D02*
X21676190Y-26756668D01*
X21676190Y-26756668D02*
X21752380Y-26718573D01*
X21752380Y-26718573D02*
X21942856Y-26718573D01*
X21942856Y-26718573D02*
X22019047Y-26680478D01*
X22704762Y-26985240D02*
X22628571Y-27023335D01*
X22628571Y-27023335D02*
X22476190Y-27023335D01*
X22476190Y-27023335D02*
X22400000Y-26985240D01*
X22400000Y-26985240D02*
X22361904Y-26909049D01*
X22361904Y-26909049D02*
X22361904Y-26604287D01*
X22361904Y-26604287D02*
X22400000Y-26528097D01*
X22400000Y-26528097D02*
X22476190Y-26490001D01*
X22476190Y-26490001D02*
X22628571Y-26490001D01*
X22628571Y-26490001D02*
X22704762Y-26528097D01*
X22704762Y-26528097D02*
X22742857Y-26604287D01*
X22742857Y-26604287D02*
X22742857Y-26680478D01*
X22742857Y-26680478D02*
X22361904Y-26756668D01*
X23428571Y-26985240D02*
X23352380Y-27023335D01*
X23352380Y-27023335D02*
X23199999Y-27023335D01*
X23199999Y-27023335D02*
X23123809Y-26985240D01*
X23123809Y-26985240D02*
X23085714Y-26947144D01*
X23085714Y-26947144D02*
X23047618Y-26870954D01*
X23047618Y-26870954D02*
X23047618Y-26642382D01*
X23047618Y-26642382D02*
X23085714Y-26566192D01*
X23085714Y-26566192D02*
X23123809Y-26528097D01*
X23123809Y-26528097D02*
X23199999Y-26490001D01*
X23199999Y-26490001D02*
X23352380Y-26490001D01*
X23352380Y-26490001D02*
X23428571Y-26528097D01*
X23771428Y-27023335D02*
X23771428Y-26223335D01*
X24114285Y-27023335D02*
X24114285Y-26604287D01*
X24114285Y-26604287D02*
X24076190Y-26528097D01*
X24076190Y-26528097D02*
X23999999Y-26490001D01*
X23999999Y-26490001D02*
X23885713Y-26490001D01*
X23885713Y-26490001D02*
X23809523Y-26528097D01*
X23809523Y-26528097D02*
X23771428Y-26566192D01*
X24800000Y-26985240D02*
X24723809Y-27023335D01*
X24723809Y-27023335D02*
X24571428Y-27023335D01*
X24571428Y-27023335D02*
X24495238Y-26985240D01*
X24495238Y-26985240D02*
X24457142Y-26909049D01*
X24457142Y-26909049D02*
X24457142Y-26604287D01*
X24457142Y-26604287D02*
X24495238Y-26528097D01*
X24495238Y-26528097D02*
X24571428Y-26490001D01*
X24571428Y-26490001D02*
X24723809Y-26490001D01*
X24723809Y-26490001D02*
X24800000Y-26528097D01*
X24800000Y-26528097D02*
X24838095Y-26604287D01*
X24838095Y-26604287D02*
X24838095Y-26680478D01*
X24838095Y-26680478D02*
X24457142Y-26756668D01*
D10*
X31804819Y-22166666D02*
X31328628Y-22499999D01*
X31804819Y-22738094D02*
X30804819Y-22738094D01*
X30804819Y-22738094D02*
X30804819Y-22357142D01*
X30804819Y-22357142D02*
X30852438Y-22261904D01*
X30852438Y-22261904D02*
X30900057Y-22214285D01*
X30900057Y-22214285D02*
X30995295Y-22166666D01*
X30995295Y-22166666D02*
X31138152Y-22166666D01*
X31138152Y-22166666D02*
X31233390Y-22214285D01*
X31233390Y-22214285D02*
X31281009Y-22261904D01*
X31281009Y-22261904D02*
X31328628Y-22357142D01*
X31328628Y-22357142D02*
X31328628Y-22738094D01*
X31804819Y-21214285D02*
X31804819Y-21785713D01*
X31804819Y-21499999D02*
X30804819Y-21499999D01*
X30804819Y-21499999D02*
X30947676Y-21595237D01*
X30947676Y-21595237D02*
X31042914Y-21690475D01*
X31042914Y-21690475D02*
X31090533Y-21785713D01*
X41261905Y-46804819D02*
X41261905Y-45804819D01*
X41261905Y-45804819D02*
X41500000Y-45804819D01*
X41500000Y-45804819D02*
X41642857Y-45852438D01*
X41642857Y-45852438D02*
X41738095Y-45947676D01*
X41738095Y-45947676D02*
X41785714Y-46042914D01*
X41785714Y-46042914D02*
X41833333Y-46233390D01*
X41833333Y-46233390D02*
X41833333Y-46376247D01*
X41833333Y-46376247D02*
X41785714Y-46566723D01*
X41785714Y-46566723D02*
X41738095Y-46661961D01*
X41738095Y-46661961D02*
X41642857Y-46757200D01*
X41642857Y-46757200D02*
X41500000Y-46804819D01*
X41500000Y-46804819D02*
X41261905Y-46804819D01*
X42785714Y-46804819D02*
X42214286Y-46804819D01*
X42500000Y-46804819D02*
X42500000Y-45804819D01*
X42500000Y-45804819D02*
X42404762Y-45947676D01*
X42404762Y-45947676D02*
X42309524Y-46042914D01*
X42309524Y-46042914D02*
X42214286Y-46090533D01*
X48738095Y-37806819D02*
X49309523Y-37806819D01*
X49023809Y-38806819D02*
X49023809Y-37806819D01*
X49642857Y-38806819D02*
X49642857Y-37806819D01*
X49642857Y-37806819D02*
X50023809Y-37806819D01*
X50023809Y-37806819D02*
X50119047Y-37854438D01*
X50119047Y-37854438D02*
X50166666Y-37902057D01*
X50166666Y-37902057D02*
X50214285Y-37997295D01*
X50214285Y-37997295D02*
X50214285Y-38140152D01*
X50214285Y-38140152D02*
X50166666Y-38235390D01*
X50166666Y-38235390D02*
X50119047Y-38283009D01*
X50119047Y-38283009D02*
X50023809Y-38330628D01*
X50023809Y-38330628D02*
X49642857Y-38330628D01*
X51119047Y-37806819D02*
X50642857Y-37806819D01*
X50642857Y-37806819D02*
X50595238Y-38283009D01*
X50595238Y-38283009D02*
X50642857Y-38235390D01*
X50642857Y-38235390D02*
X50738095Y-38187771D01*
X50738095Y-38187771D02*
X50976190Y-38187771D01*
X50976190Y-38187771D02*
X51071428Y-38235390D01*
X51071428Y-38235390D02*
X51119047Y-38283009D01*
X51119047Y-38283009D02*
X51166666Y-38378247D01*
X51166666Y-38378247D02*
X51166666Y-38616342D01*
X51166666Y-38616342D02*
X51119047Y-38711580D01*
X51119047Y-38711580D02*
X51071428Y-38759200D01*
X51071428Y-38759200D02*
X50976190Y-38806819D01*
X50976190Y-38806819D02*
X50738095Y-38806819D01*
X50738095Y-38806819D02*
X50642857Y-38759200D01*
X50642857Y-38759200D02*
X50595238Y-38711580D01*
X13206666Y-41134819D02*
X13206666Y-41849104D01*
X13206666Y-41849104D02*
X13159047Y-41991961D01*
X13159047Y-41991961D02*
X13063809Y-42087200D01*
X13063809Y-42087200D02*
X12920952Y-42134819D01*
X12920952Y-42134819D02*
X12825714Y-42134819D01*
X14206666Y-42134819D02*
X13635238Y-42134819D01*
X13920952Y-42134819D02*
X13920952Y-41134819D01*
X13920952Y-41134819D02*
X13825714Y-41277676D01*
X13825714Y-41277676D02*
X13730476Y-41372914D01*
X13730476Y-41372914D02*
X13635238Y-41420533D01*
X31833333Y-4679580D02*
X31785714Y-4727200D01*
X31785714Y-4727200D02*
X31642857Y-4774819D01*
X31642857Y-4774819D02*
X31547619Y-4774819D01*
X31547619Y-4774819D02*
X31404762Y-4727200D01*
X31404762Y-4727200D02*
X31309524Y-4631961D01*
X31309524Y-4631961D02*
X31261905Y-4536723D01*
X31261905Y-4536723D02*
X31214286Y-4346247D01*
X31214286Y-4346247D02*
X31214286Y-4203390D01*
X31214286Y-4203390D02*
X31261905Y-4012914D01*
X31261905Y-4012914D02*
X31309524Y-3917676D01*
X31309524Y-3917676D02*
X31404762Y-3822438D01*
X31404762Y-3822438D02*
X31547619Y-3774819D01*
X31547619Y-3774819D02*
X31642857Y-3774819D01*
X31642857Y-3774819D02*
X31785714Y-3822438D01*
X31785714Y-3822438D02*
X31833333Y-3870057D01*
X32690476Y-4108152D02*
X32690476Y-4774819D01*
X32452381Y-3727200D02*
X32214286Y-4441485D01*
X32214286Y-4441485D02*
X32833333Y-4441485D01*
X38679580Y-21166666D02*
X38727200Y-21214285D01*
X38727200Y-21214285D02*
X38774819Y-21357142D01*
X38774819Y-21357142D02*
X38774819Y-21452380D01*
X38774819Y-21452380D02*
X38727200Y-21595237D01*
X38727200Y-21595237D02*
X38631961Y-21690475D01*
X38631961Y-21690475D02*
X38536723Y-21738094D01*
X38536723Y-21738094D02*
X38346247Y-21785713D01*
X38346247Y-21785713D02*
X38203390Y-21785713D01*
X38203390Y-21785713D02*
X38012914Y-21738094D01*
X38012914Y-21738094D02*
X37917676Y-21690475D01*
X37917676Y-21690475D02*
X37822438Y-21595237D01*
X37822438Y-21595237D02*
X37774819Y-21452380D01*
X37774819Y-21452380D02*
X37774819Y-21357142D01*
X37774819Y-21357142D02*
X37822438Y-21214285D01*
X37822438Y-21214285D02*
X37870057Y-21166666D01*
X38774819Y-20214285D02*
X38774819Y-20785713D01*
X38774819Y-20499999D02*
X37774819Y-20499999D01*
X37774819Y-20499999D02*
X37917676Y-20595237D01*
X37917676Y-20595237D02*
X38012914Y-20690475D01*
X38012914Y-20690475D02*
X38060533Y-20785713D01*
X31804819Y-30166666D02*
X31328628Y-30499999D01*
X31804819Y-30738094D02*
X30804819Y-30738094D01*
X30804819Y-30738094D02*
X30804819Y-30357142D01*
X30804819Y-30357142D02*
X30852438Y-30261904D01*
X30852438Y-30261904D02*
X30900057Y-30214285D01*
X30900057Y-30214285D02*
X30995295Y-30166666D01*
X30995295Y-30166666D02*
X31138152Y-30166666D01*
X31138152Y-30166666D02*
X31233390Y-30214285D01*
X31233390Y-30214285D02*
X31281009Y-30261904D01*
X31281009Y-30261904D02*
X31328628Y-30357142D01*
X31328628Y-30357142D02*
X31328628Y-30738094D01*
X30804819Y-29833332D02*
X30804819Y-29214285D01*
X30804819Y-29214285D02*
X31185771Y-29547618D01*
X31185771Y-29547618D02*
X31185771Y-29404761D01*
X31185771Y-29404761D02*
X31233390Y-29309523D01*
X31233390Y-29309523D02*
X31281009Y-29261904D01*
X31281009Y-29261904D02*
X31376247Y-29214285D01*
X31376247Y-29214285D02*
X31614342Y-29214285D01*
X31614342Y-29214285D02*
X31709580Y-29261904D01*
X31709580Y-29261904D02*
X31757200Y-29309523D01*
X31757200Y-29309523D02*
X31804819Y-29404761D01*
X31804819Y-29404761D02*
X31804819Y-29690475D01*
X31804819Y-29690475D02*
X31757200Y-29785713D01*
X31757200Y-29785713D02*
X31709580Y-29833332D01*
X43166666Y-39654819D02*
X43166666Y-40369104D01*
X43166666Y-40369104D02*
X43119047Y-40511961D01*
X43119047Y-40511961D02*
X43023809Y-40607200D01*
X43023809Y-40607200D02*
X42880952Y-40654819D01*
X42880952Y-40654819D02*
X42785714Y-40654819D01*
X43642857Y-40654819D02*
X43642857Y-39654819D01*
X43642857Y-39654819D02*
X44023809Y-39654819D01*
X44023809Y-39654819D02*
X44119047Y-39702438D01*
X44119047Y-39702438D02*
X44166666Y-39750057D01*
X44166666Y-39750057D02*
X44214285Y-39845295D01*
X44214285Y-39845295D02*
X44214285Y-39988152D01*
X44214285Y-39988152D02*
X44166666Y-40083390D01*
X44166666Y-40083390D02*
X44119047Y-40131009D01*
X44119047Y-40131009D02*
X44023809Y-40178628D01*
X44023809Y-40178628D02*
X43642857Y-40178628D01*
X45166666Y-40654819D02*
X44595238Y-40654819D01*
X44880952Y-40654819D02*
X44880952Y-39654819D01*
X44880952Y-39654819D02*
X44785714Y-39797676D01*
X44785714Y-39797676D02*
X44690476Y-39892914D01*
X44690476Y-39892914D02*
X44595238Y-39940533D01*
X31804819Y-26166666D02*
X31328628Y-26499999D01*
X31804819Y-26738094D02*
X30804819Y-26738094D01*
X30804819Y-26738094D02*
X30804819Y-26357142D01*
X30804819Y-26357142D02*
X30852438Y-26261904D01*
X30852438Y-26261904D02*
X30900057Y-26214285D01*
X30900057Y-26214285D02*
X30995295Y-26166666D01*
X30995295Y-26166666D02*
X31138152Y-26166666D01*
X31138152Y-26166666D02*
X31233390Y-26214285D01*
X31233390Y-26214285D02*
X31281009Y-26261904D01*
X31281009Y-26261904D02*
X31328628Y-26357142D01*
X31328628Y-26357142D02*
X31328628Y-26738094D01*
X30900057Y-25785713D02*
X30852438Y-25738094D01*
X30852438Y-25738094D02*
X30804819Y-25642856D01*
X30804819Y-25642856D02*
X30804819Y-25404761D01*
X30804819Y-25404761D02*
X30852438Y-25309523D01*
X30852438Y-25309523D02*
X30900057Y-25261904D01*
X30900057Y-25261904D02*
X30995295Y-25214285D01*
X30995295Y-25214285D02*
X31090533Y-25214285D01*
X31090533Y-25214285D02*
X31233390Y-25261904D01*
X31233390Y-25261904D02*
X31804819Y-25833332D01*
X31804819Y-25833332D02*
X31804819Y-25214285D01*
X27509580Y-48166666D02*
X27557200Y-48214285D01*
X27557200Y-48214285D02*
X27604819Y-48357142D01*
X27604819Y-48357142D02*
X27604819Y-48452380D01*
X27604819Y-48452380D02*
X27557200Y-48595237D01*
X27557200Y-48595237D02*
X27461961Y-48690475D01*
X27461961Y-48690475D02*
X27366723Y-48738094D01*
X27366723Y-48738094D02*
X27176247Y-48785713D01*
X27176247Y-48785713D02*
X27033390Y-48785713D01*
X27033390Y-48785713D02*
X26842914Y-48738094D01*
X26842914Y-48738094D02*
X26747676Y-48690475D01*
X26747676Y-48690475D02*
X26652438Y-48595237D01*
X26652438Y-48595237D02*
X26604819Y-48452380D01*
X26604819Y-48452380D02*
X26604819Y-48357142D01*
X26604819Y-48357142D02*
X26652438Y-48214285D01*
X26652438Y-48214285D02*
X26700057Y-48166666D01*
X26604819Y-47833332D02*
X26604819Y-47214285D01*
X26604819Y-47214285D02*
X26985771Y-47547618D01*
X26985771Y-47547618D02*
X26985771Y-47404761D01*
X26985771Y-47404761D02*
X27033390Y-47309523D01*
X27033390Y-47309523D02*
X27081009Y-47261904D01*
X27081009Y-47261904D02*
X27176247Y-47214285D01*
X27176247Y-47214285D02*
X27414342Y-47214285D01*
X27414342Y-47214285D02*
X27509580Y-47261904D01*
X27509580Y-47261904D02*
X27557200Y-47309523D01*
X27557200Y-47309523D02*
X27604819Y-47404761D01*
X27604819Y-47404761D02*
X27604819Y-47690475D01*
X27604819Y-47690475D02*
X27557200Y-47785713D01*
X27557200Y-47785713D02*
X27509580Y-47833332D01*
X53738095Y-37806819D02*
X54309523Y-37806819D01*
X54023809Y-38806819D02*
X54023809Y-37806819D01*
X54642857Y-38806819D02*
X54642857Y-37806819D01*
X54642857Y-37806819D02*
X55023809Y-37806819D01*
X55023809Y-37806819D02*
X55119047Y-37854438D01*
X55119047Y-37854438D02*
X55166666Y-37902057D01*
X55166666Y-37902057D02*
X55214285Y-37997295D01*
X55214285Y-37997295D02*
X55214285Y-38140152D01*
X55214285Y-38140152D02*
X55166666Y-38235390D01*
X55166666Y-38235390D02*
X55119047Y-38283009D01*
X55119047Y-38283009D02*
X55023809Y-38330628D01*
X55023809Y-38330628D02*
X54642857Y-38330628D01*
X56071428Y-37806819D02*
X55880952Y-37806819D01*
X55880952Y-37806819D02*
X55785714Y-37854438D01*
X55785714Y-37854438D02*
X55738095Y-37902057D01*
X55738095Y-37902057D02*
X55642857Y-38044914D01*
X55642857Y-38044914D02*
X55595238Y-38235390D01*
X55595238Y-38235390D02*
X55595238Y-38616342D01*
X55595238Y-38616342D02*
X55642857Y-38711580D01*
X55642857Y-38711580D02*
X55690476Y-38759200D01*
X55690476Y-38759200D02*
X55785714Y-38806819D01*
X55785714Y-38806819D02*
X55976190Y-38806819D01*
X55976190Y-38806819D02*
X56071428Y-38759200D01*
X56071428Y-38759200D02*
X56119047Y-38711580D01*
X56119047Y-38711580D02*
X56166666Y-38616342D01*
X56166666Y-38616342D02*
X56166666Y-38378247D01*
X56166666Y-38378247D02*
X56119047Y-38283009D01*
X56119047Y-38283009D02*
X56071428Y-38235390D01*
X56071428Y-38235390D02*
X55976190Y-38187771D01*
X55976190Y-38187771D02*
X55785714Y-38187771D01*
X55785714Y-38187771D02*
X55690476Y-38235390D01*
X55690476Y-38235390D02*
X55642857Y-38283009D01*
X55642857Y-38283009D02*
X55595238Y-38378247D01*
X43833333Y-28804819D02*
X43500000Y-28328628D01*
X43261905Y-28804819D02*
X43261905Y-27804819D01*
X43261905Y-27804819D02*
X43642857Y-27804819D01*
X43642857Y-27804819D02*
X43738095Y-27852438D01*
X43738095Y-27852438D02*
X43785714Y-27900057D01*
X43785714Y-27900057D02*
X43833333Y-27995295D01*
X43833333Y-27995295D02*
X43833333Y-28138152D01*
X43833333Y-28138152D02*
X43785714Y-28233390D01*
X43785714Y-28233390D02*
X43738095Y-28281009D01*
X43738095Y-28281009D02*
X43642857Y-28328628D01*
X43642857Y-28328628D02*
X43261905Y-28328628D01*
X44690476Y-28138152D02*
X44690476Y-28804819D01*
X44452381Y-27757200D02*
X44214286Y-28471485D01*
X44214286Y-28471485D02*
X44833333Y-28471485D01*
X33833333Y-32679580D02*
X33785714Y-32727200D01*
X33785714Y-32727200D02*
X33642857Y-32774819D01*
X33642857Y-32774819D02*
X33547619Y-32774819D01*
X33547619Y-32774819D02*
X33404762Y-32727200D01*
X33404762Y-32727200D02*
X33309524Y-32631961D01*
X33309524Y-32631961D02*
X33261905Y-32536723D01*
X33261905Y-32536723D02*
X33214286Y-32346247D01*
X33214286Y-32346247D02*
X33214286Y-32203390D01*
X33214286Y-32203390D02*
X33261905Y-32012914D01*
X33261905Y-32012914D02*
X33309524Y-31917676D01*
X33309524Y-31917676D02*
X33404762Y-31822438D01*
X33404762Y-31822438D02*
X33547619Y-31774819D01*
X33547619Y-31774819D02*
X33642857Y-31774819D01*
X33642857Y-31774819D02*
X33785714Y-31822438D01*
X33785714Y-31822438D02*
X33833333Y-31870057D01*
X34214286Y-31870057D02*
X34261905Y-31822438D01*
X34261905Y-31822438D02*
X34357143Y-31774819D01*
X34357143Y-31774819D02*
X34595238Y-31774819D01*
X34595238Y-31774819D02*
X34690476Y-31822438D01*
X34690476Y-31822438D02*
X34738095Y-31870057D01*
X34738095Y-31870057D02*
X34785714Y-31965295D01*
X34785714Y-31965295D02*
X34785714Y-32060533D01*
X34785714Y-32060533D02*
X34738095Y-32203390D01*
X34738095Y-32203390D02*
X34166667Y-32774819D01*
X34166667Y-32774819D02*
X34785714Y-32774819D01*
X39833333Y-36804819D02*
X39500000Y-36328628D01*
X39261905Y-36804819D02*
X39261905Y-35804819D01*
X39261905Y-35804819D02*
X39642857Y-35804819D01*
X39642857Y-35804819D02*
X39738095Y-35852438D01*
X39738095Y-35852438D02*
X39785714Y-35900057D01*
X39785714Y-35900057D02*
X39833333Y-35995295D01*
X39833333Y-35995295D02*
X39833333Y-36138152D01*
X39833333Y-36138152D02*
X39785714Y-36233390D01*
X39785714Y-36233390D02*
X39738095Y-36281009D01*
X39738095Y-36281009D02*
X39642857Y-36328628D01*
X39642857Y-36328628D02*
X39261905Y-36328628D01*
X40738095Y-35804819D02*
X40261905Y-35804819D01*
X40261905Y-35804819D02*
X40214286Y-36281009D01*
X40214286Y-36281009D02*
X40261905Y-36233390D01*
X40261905Y-36233390D02*
X40357143Y-36185771D01*
X40357143Y-36185771D02*
X40595238Y-36185771D01*
X40595238Y-36185771D02*
X40690476Y-36233390D01*
X40690476Y-36233390D02*
X40738095Y-36281009D01*
X40738095Y-36281009D02*
X40785714Y-36376247D01*
X40785714Y-36376247D02*
X40785714Y-36614342D01*
X40785714Y-36614342D02*
X40738095Y-36709580D01*
X40738095Y-36709580D02*
X40690476Y-36757200D01*
X40690476Y-36757200D02*
X40595238Y-36804819D01*
X40595238Y-36804819D02*
X40357143Y-36804819D01*
X40357143Y-36804819D02*
X40261905Y-36757200D01*
X40261905Y-36757200D02*
X40214286Y-36709580D01*
X39238095Y-22054819D02*
X39238095Y-22864342D01*
X39238095Y-22864342D02*
X39285714Y-22959580D01*
X39285714Y-22959580D02*
X39333333Y-23007200D01*
X39333333Y-23007200D02*
X39428571Y-23054819D01*
X39428571Y-23054819D02*
X39619047Y-23054819D01*
X39619047Y-23054819D02*
X39714285Y-23007200D01*
X39714285Y-23007200D02*
X39761904Y-22959580D01*
X39761904Y-22959580D02*
X39809523Y-22864342D01*
X39809523Y-22864342D02*
X39809523Y-22054819D01*
X40238095Y-22150057D02*
X40285714Y-22102438D01*
X40285714Y-22102438D02*
X40380952Y-22054819D01*
X40380952Y-22054819D02*
X40619047Y-22054819D01*
X40619047Y-22054819D02*
X40714285Y-22102438D01*
X40714285Y-22102438D02*
X40761904Y-22150057D01*
X40761904Y-22150057D02*
X40809523Y-22245295D01*
X40809523Y-22245295D02*
X40809523Y-22340533D01*
X40809523Y-22340533D02*
X40761904Y-22483390D01*
X40761904Y-22483390D02*
X40190476Y-23054819D01*
X40190476Y-23054819D02*
X40809523Y-23054819D01*
X29833333Y-40804819D02*
X29500000Y-40328628D01*
X29261905Y-40804819D02*
X29261905Y-39804819D01*
X29261905Y-39804819D02*
X29642857Y-39804819D01*
X29642857Y-39804819D02*
X29738095Y-39852438D01*
X29738095Y-39852438D02*
X29785714Y-39900057D01*
X29785714Y-39900057D02*
X29833333Y-39995295D01*
X29833333Y-39995295D02*
X29833333Y-40138152D01*
X29833333Y-40138152D02*
X29785714Y-40233390D01*
X29785714Y-40233390D02*
X29738095Y-40281009D01*
X29738095Y-40281009D02*
X29642857Y-40328628D01*
X29642857Y-40328628D02*
X29261905Y-40328628D01*
X30166667Y-39804819D02*
X30833333Y-39804819D01*
X30833333Y-39804819D02*
X30404762Y-40804819D01*
X61666666Y-17074819D02*
X61666666Y-17789104D01*
X61666666Y-17789104D02*
X61619047Y-17931961D01*
X61619047Y-17931961D02*
X61523809Y-18027200D01*
X61523809Y-18027200D02*
X61380952Y-18074819D01*
X61380952Y-18074819D02*
X61285714Y-18074819D01*
X62047619Y-17074819D02*
X62666666Y-17074819D01*
X62666666Y-17074819D02*
X62333333Y-17455771D01*
X62333333Y-17455771D02*
X62476190Y-17455771D01*
X62476190Y-17455771D02*
X62571428Y-17503390D01*
X62571428Y-17503390D02*
X62619047Y-17551009D01*
X62619047Y-17551009D02*
X62666666Y-17646247D01*
X62666666Y-17646247D02*
X62666666Y-17884342D01*
X62666666Y-17884342D02*
X62619047Y-17979580D01*
X62619047Y-17979580D02*
X62571428Y-18027200D01*
X62571428Y-18027200D02*
X62476190Y-18074819D01*
X62476190Y-18074819D02*
X62190476Y-18074819D01*
X62190476Y-18074819D02*
X62095238Y-18027200D01*
X62095238Y-18027200D02*
X62047619Y-17979580D01*
X53738095Y-27806819D02*
X54309523Y-27806819D01*
X54023809Y-28806819D02*
X54023809Y-27806819D01*
X54642857Y-28806819D02*
X54642857Y-27806819D01*
X54642857Y-27806819D02*
X55023809Y-27806819D01*
X55023809Y-27806819D02*
X55119047Y-27854438D01*
X55119047Y-27854438D02*
X55166666Y-27902057D01*
X55166666Y-27902057D02*
X55214285Y-27997295D01*
X55214285Y-27997295D02*
X55214285Y-28140152D01*
X55214285Y-28140152D02*
X55166666Y-28235390D01*
X55166666Y-28235390D02*
X55119047Y-28283009D01*
X55119047Y-28283009D02*
X55023809Y-28330628D01*
X55023809Y-28330628D02*
X54642857Y-28330628D01*
X55595238Y-27902057D02*
X55642857Y-27854438D01*
X55642857Y-27854438D02*
X55738095Y-27806819D01*
X55738095Y-27806819D02*
X55976190Y-27806819D01*
X55976190Y-27806819D02*
X56071428Y-27854438D01*
X56071428Y-27854438D02*
X56119047Y-27902057D01*
X56119047Y-27902057D02*
X56166666Y-27997295D01*
X56166666Y-27997295D02*
X56166666Y-28092533D01*
X56166666Y-28092533D02*
X56119047Y-28235390D01*
X56119047Y-28235390D02*
X55547619Y-28806819D01*
X55547619Y-28806819D02*
X56166666Y-28806819D01*
X43074819Y-50333333D02*
X43789104Y-50333333D01*
X43789104Y-50333333D02*
X43931961Y-50380952D01*
X43931961Y-50380952D02*
X44027200Y-50476190D01*
X44027200Y-50476190D02*
X44074819Y-50619047D01*
X44074819Y-50619047D02*
X44074819Y-50714285D01*
X43408152Y-49428571D02*
X44074819Y-49428571D01*
X43027200Y-49666666D02*
X43741485Y-49904761D01*
X43741485Y-49904761D02*
X43741485Y-49285714D01*
D12*
%TO.C,TP4*%
X55950000Y-35000000D02*
G75*
G02*
X54050000Y-35000000I-950000J0D01*
G01*
X54050000Y-35000000D02*
G75*
G02*
X55950000Y-35000000I950000J0D01*
G01*
%TO.C,J2*%
X45320000Y-8500000D02*
X45320000Y-9500000D01*
X45320000Y-9500000D02*
X46320000Y-9000000D01*
X46320000Y-9000000D02*
X45320000Y-8500000D01*
X46710000Y-3790000D02*
X55830000Y-3790000D01*
X46710000Y-12030000D02*
X48020000Y-12030000D01*
X46710000Y-24370000D02*
X46710000Y-3790000D01*
X48020000Y-5090000D02*
X54520000Y-5090000D01*
X48020000Y-12030000D02*
X48020000Y-5090000D01*
X48020000Y-16130000D02*
X46710000Y-16130000D01*
X48020000Y-23070000D02*
X48020000Y-16130000D01*
X54520000Y-5090000D02*
X54520000Y-23070000D01*
X54520000Y-23070000D02*
X48020000Y-23070000D01*
X55830000Y-3790000D02*
X55830000Y-24370000D01*
X55830000Y-24370000D02*
X46710000Y-24370000D01*
%TO.C,C5*%
X43738748Y-14265000D02*
X44261252Y-14265000D01*
X43738748Y-15735000D02*
X44261252Y-15735000D01*
%TO.C,FB1*%
X23440000Y-48399622D02*
X23440000Y-47600378D01*
X24560000Y-48399622D02*
X24560000Y-47600378D01*
%TO.C,TP7*%
X55950000Y-44000000D02*
G75*
G02*
X54050000Y-44000000I-950000J0D01*
G01*
X54050000Y-44000000D02*
G75*
G02*
X55950000Y-44000000I950000J0D01*
G01*
%TO.C,U3*%
X33090000Y-36440000D02*
X34910000Y-36440000D01*
X33090000Y-36490000D02*
X33090000Y-36440000D01*
X33090000Y-39560000D02*
X33090000Y-39510000D01*
X34910000Y-36440000D02*
X34910000Y-36490000D01*
X34910000Y-37610000D02*
X34910000Y-38390000D01*
X34910000Y-39510000D02*
X34910000Y-39560000D01*
X34910000Y-39560000D02*
X33090000Y-39560000D01*
X32550000Y-36490000D02*
X32310000Y-36160000D01*
X32790000Y-36160000D01*
X32550000Y-36490000D01*
G36*
X32550000Y-36490000D02*
G01*
X32310000Y-36160000D01*
X32790000Y-36160000D01*
X32550000Y-36490000D01*
G37*
%TO.C,TP1*%
X50950000Y-30000000D02*
G75*
G02*
X49050000Y-30000000I-950000J0D01*
G01*
X49050000Y-30000000D02*
G75*
G02*
X50950000Y-30000000I950000J0D01*
G01*
%TO.C,TP3*%
X50950000Y-35000000D02*
G75*
G02*
X49050000Y-35000000I-950000J0D01*
G01*
X49050000Y-35000000D02*
G75*
G02*
X50950000Y-35000000I950000J0D01*
G01*
%TO.C,R6*%
X36772936Y-47265000D02*
X37227064Y-47265000D01*
X36772936Y-48735000D02*
X37227064Y-48735000D01*
%TO.C,U1*%
D10*
X8800000Y-2540000D02*
X27200000Y-2540000D01*
X27200000Y-25460000D01*
X8800000Y-25460000D01*
X8800000Y-2540000D01*
D13*
X27195000Y-5110000D02*
G75*
G02*
X26845000Y-5110000I-175000J0D01*
G01*
X26845000Y-5110000D02*
G75*
G02*
X27195000Y-5110000I175000J0D01*
G01*
D12*
%TO.C,R1*%
X32265000Y-22227064D02*
X32265000Y-21772936D01*
X33735000Y-22227064D02*
X33735000Y-21772936D01*
%TO.C,D1*%
X40315000Y-47040000D02*
X40315000Y-48960000D01*
X40315000Y-48960000D02*
X43000000Y-48960000D01*
X43000000Y-47040000D02*
X40315000Y-47040000D01*
%TO.C,TP5*%
X50950000Y-40000000D02*
G75*
G02*
X49050000Y-40000000I-950000J0D01*
G01*
X49050000Y-40000000D02*
G75*
G02*
X50950000Y-40000000I950000J0D01*
G01*
%TO.C,J1*%
X8340000Y-42680000D02*
X18740000Y-42680000D01*
X8340000Y-45700000D02*
X18740000Y-45700000D01*
X8340000Y-50600000D02*
X18740000Y-50600000D01*
X8340000Y-52100000D02*
X18740000Y-52100000D01*
X8340000Y-52720000D02*
X8340000Y-42680000D01*
X10700000Y-52720000D02*
X8340000Y-52720000D01*
X18740000Y-42680000D02*
X18740000Y-52720000D01*
X18740000Y-52720000D02*
X11300000Y-52720000D01*
X11440000Y-53330000D02*
X10560000Y-53330000D01*
X11000000Y-52720000D01*
X11440000Y-53330000D01*
G36*
X11440000Y-53330000D02*
G01*
X10560000Y-53330000D01*
X11000000Y-52720000D01*
X11440000Y-53330000D01*
G37*
%TO.C,C4*%
X31738748Y-5265000D02*
X32261252Y-5265000D01*
X31738748Y-6735000D02*
X32261252Y-6735000D01*
%TO.C,C1*%
X39265000Y-21261252D02*
X39265000Y-20738748D01*
X40735000Y-21261252D02*
X40735000Y-20738748D01*
%TO.C,R3*%
X32265000Y-30227064D02*
X32265000Y-29772936D01*
X33735000Y-30227064D02*
X33735000Y-29772936D01*
%TO.C,JP1*%
X41950000Y-41000000D02*
X46050000Y-41000000D01*
X41950000Y-43000000D02*
X41950000Y-41000000D01*
X42400000Y-43500000D02*
X43000000Y-43500000D01*
X42700000Y-43200000D02*
X42400000Y-43500000D01*
X42700000Y-43200000D02*
X43000000Y-43500000D01*
X46050000Y-41000000D02*
X46050000Y-43000000D01*
X46050000Y-43000000D02*
X41950000Y-43000000D01*
%TO.C,R2*%
X32265000Y-26227064D02*
X32265000Y-25772936D01*
X33735000Y-26227064D02*
X33735000Y-25772936D01*
%TO.C,C3*%
X28090000Y-48711252D02*
X28090000Y-47288748D01*
X29910000Y-48711252D02*
X29910000Y-47288748D01*
%TO.C,TP6*%
X55950000Y-40000000D02*
G75*
G02*
X54050000Y-40000000I-950000J0D01*
G01*
X54050000Y-40000000D02*
G75*
G02*
X55950000Y-40000000I950000J0D01*
G01*
%TO.C,R4*%
X43772936Y-29265000D02*
X44227064Y-29265000D01*
X43772936Y-30735000D02*
X44227064Y-30735000D01*
%TO.C,C2*%
X33738748Y-33265000D02*
X34261252Y-33265000D01*
X33738748Y-34735000D02*
X34261252Y-34735000D01*
%TO.C,R5*%
X39772936Y-37265000D02*
X40227064Y-37265000D01*
X39772936Y-38735000D02*
X40227064Y-38735000D01*
%TO.C,U2*%
X37940000Y-23440000D02*
X42060000Y-23440000D01*
X37940000Y-23535000D02*
X37940000Y-23440000D01*
X37940000Y-28560000D02*
X37940000Y-28465000D01*
X42060000Y-23440000D02*
X42060000Y-23535000D01*
X42060000Y-28465000D02*
X42060000Y-28560000D01*
X42060000Y-28560000D02*
X37940000Y-28560000D01*
X37400000Y-23530000D02*
X37160000Y-23200000D01*
X37640000Y-23200000D01*
X37400000Y-23530000D01*
G36*
X37400000Y-23530000D02*
G01*
X37160000Y-23200000D01*
X37640000Y-23200000D01*
X37400000Y-23530000D01*
G37*
%TO.C,R7*%
X29772936Y-41265000D02*
X30227064Y-41265000D01*
X29772936Y-42735000D02*
X30227064Y-42735000D01*
%TO.C,J3*%
X60620000Y-18620000D02*
X62000000Y-18620000D01*
X60620000Y-20000000D02*
X60620000Y-18620000D01*
X60620000Y-21270000D02*
X60620000Y-29000000D01*
X60620000Y-21270000D02*
X63380000Y-21270000D01*
X60620000Y-29000000D02*
X63380000Y-29000000D01*
X63380000Y-21270000D02*
X63380000Y-29000000D01*
%TO.C,TP2*%
X55950000Y-30000000D02*
G75*
G02*
X54050000Y-30000000I-950000J0D01*
G01*
X54050000Y-30000000D02*
G75*
G02*
X55950000Y-30000000I950000J0D01*
G01*
%TO.C,J4*%
X44620000Y-51380000D02*
X44620000Y-50000000D01*
X46000000Y-51380000D02*
X44620000Y-51380000D01*
X47270000Y-48620000D02*
X55000000Y-48620000D01*
X47270000Y-51380000D02*
X47270000Y-48620000D01*
X47270000Y-51380000D02*
X55000000Y-51380000D01*
X55000000Y-51380000D02*
X55000000Y-48620000D01*
%TD*%
M02*
