%TF.GenerationSoftware,KiCad,Pcbnew,9.0.9-9.0.9~ubuntu24.04.1*%
%TF.CreationDate,2026-09-01T13:34:32+02:00*%
%TF.ProjectId,master,6d617374-6572-42e6-9b69-6361645f7063,rev?*%
%TF.SameCoordinates,Original*%
%TF.FileFunction,Copper,L2,Bot*%
%TF.FilePolarity,Positive*%
%FSLAX46Y46*%
G04 Gerber Fmt 4.6, Leading zero omitted, Abs format (unit mm)*
G04 Created by KiCad (PCBNEW 9.0.9-9.0.9~ubuntu24.04.1) date 2026-09-01 13:34:32*
%MOMM*%
%LPD*%
G01*
G04 APERTURE LIST*
G04 Aperture macros list*
%AMRoundRect*
0 Rectangle with rounded corners*
0 $1 Rounding radius*
0 $2 $3 $4 $5 $6 $7 $8 $9 X,Y pos of 4 corners*
0 Add a 4 corners polygon primitive as box body*
4,1,4,$2,$3,$4,$5,$6,$7,$8,$9,$2,$3,0*
0 Add four circle primitives for the rounded corners*
1,1,$1+$1,$2,$3*
1,1,$1+$1,$4,$5*
1,1,$1+$1,$6,$7*
1,1,$1+$1,$8,$9*
0 Add four rect primitives between the rounded corners*
20,1,$1+$1,$2,$3,$4,$5,0*
20,1,$1+$1,$4,$5,$6,$7,0*
20,1,$1+$1,$6,$7,$8,$9,0*
20,1,$1+$1,$8,$9,$2,$3,0*%
G04 Aperture macros list end*
%TA.AperFunction,ComponentPad*%
%ADD10RoundRect,0.250000X-0.600000X-0.600000X0.600000X-0.600000X0.600000X0.600000X-0.600000X0.600000X0*%
%TD*%
%TA.AperFunction,ComponentPad*%
%ADD11C,1.700000*%
%TD*%
%TA.AperFunction,ComponentPad*%
%ADD12R,1.700000X1.700000*%
%TD*%
%TA.AperFunction,ComponentPad*%
%ADD13RoundRect,0.250000X-1.050000X-1.050000X1.050000X-1.050000X1.050000X1.050000X-1.050000X1.050000X0*%
%TD*%
%TA.AperFunction,ComponentPad*%
%ADD14C,2.600000*%
%TD*%
%TA.AperFunction,ViaPad*%
%ADD15C,0.800000*%
%TD*%
%TA.AperFunction,ViaPad*%
%ADD16C,0.600000*%
%TD*%
%TA.AperFunction,Conductor*%
%ADD17C,0.800000*%
%TD*%
%TA.AperFunction,Conductor*%
%ADD18C,0.500000*%
%TD*%
G04 APERTURE END LIST*
D10*
%TO.P,J2,1*%
%TO.N,/+5V_IN*%
X50000000Y-9000000D03*
D11*
%TO.P,J2,2*%
%TO.N,/GND*%
X52540000Y-9000000D03*
%TO.P,J2,3*%
%TO.N,/RS485_A*%
X50000000Y-11540000D03*
%TO.P,J2,4*%
%TO.N,/GND*%
X52540000Y-11540000D03*
%TO.P,J2,5*%
%TO.N,/RS485_B*%
X50000000Y-14080000D03*
%TO.P,J2,6*%
%TO.N,/GND*%
X52540000Y-14080000D03*
%TO.P,J2,7*%
%TO.N,/CHAIN_BUS*%
X50000000Y-16620000D03*
%TO.P,J2,8*%
%TO.N,/GND*%
X52540000Y-16620000D03*
%TO.P,J2,9*%
%TO.N,/ADER9*%
X50000000Y-19160000D03*
%TO.P,J2,10*%
%TO.N,/GND*%
X52540000Y-19160000D03*
%TD*%
D12*
%TO.P,U1,1*%
%TO.N,/+5V*%
X25620000Y-5110000D03*
D11*
%TO.P,U1,2*%
%TO.N,/GND*%
X25620000Y-7650000D03*
%TO.P,U1,3*%
%TO.N,/+3V3*%
X25620000Y-10190000D03*
%TO.P,U1,4*%
%TO.N,/RO*%
X25620000Y-12730000D03*
%TO.P,U1,5*%
%TO.N,/DI*%
X25620000Y-15270000D03*
%TO.P,U1,6*%
%TO.N,unconnected-(U1-GPIO2-Pad6)*%
X25620000Y-17810000D03*
%TO.P,U1,7*%
%TO.N,/IO1_RSV*%
X25620000Y-20350000D03*
%TO.P,U1,8*%
%TO.N,/IO0_RSV*%
X25620000Y-22890000D03*
%TO.P,U1,9*%
%TO.N,/CHAIN_GPIO*%
X10380000Y-5110000D03*
%TO.P,U1,10*%
%TO.N,/LED_DRV*%
X10380000Y-7650000D03*
%TO.P,U1,11*%
%TO.N,/IO7_RSV*%
X10380000Y-10190000D03*
%TO.P,U1,12*%
%TO.N,unconnected-(U1-GPIO8-Pad12)*%
X10380000Y-12730000D03*
%TO.P,U1,13*%
%TO.N,unconnected-(U1-GPIO9-Pad13)*%
X10380000Y-15270000D03*
%TO.P,U1,14*%
%TO.N,/DE*%
X10380000Y-17810000D03*
%TO.P,U1,15*%
%TO.N,unconnected-(U1-GPIO20-Pad15)*%
X10380000Y-20350000D03*
%TO.P,U1,16*%
%TO.N,unconnected-(U1-GPIO21-Pad16)*%
X10380000Y-22890000D03*
%TD*%
D13*
%TO.P,J1,1*%
%TO.N,/+5V_IN*%
X11000000Y-48000000D03*
D14*
%TO.P,J1,2*%
%TO.N,/GND*%
X16080000Y-48000000D03*
%TD*%
D12*
%TO.P,J3,1*%
%TO.N,/IO0_RSV*%
X62000000Y-20000000D03*
D11*
%TO.P,J3,2*%
%TO.N,/IO1_RSV*%
X62000000Y-22540000D03*
%TO.P,J3,3*%
%TO.N,/IO7_RSV*%
X62000000Y-25080000D03*
%TO.P,J3,4*%
%TO.N,/GND*%
X62000000Y-27620000D03*
%TD*%
D12*
%TO.P,J4,1*%
%TO.N,/+5V_IN*%
X46000000Y-50000000D03*
D11*
%TO.P,J4,2*%
%TO.N,/GND*%
X48540000Y-50000000D03*
%TO.P,J4,3*%
%TO.N,/+15V*%
X51080000Y-50000000D03*
%TO.P,J4,4*%
%TO.N,/GND*%
X53620000Y-50000000D03*
%TD*%
D15*
%TO.N,/+3V3*%
X52340700Y-35557400D03*
X52340700Y-22636000D03*
%TO.N,/+5V_IN*%
X48403600Y-16719300D03*
X41550000Y-42000000D03*
%TO.N,/+15V*%
X47913900Y-42086100D03*
%TO.N,/ADER9*%
X53531900Y-44115500D03*
D16*
%TO.N,/CHAIN_BUS*%
X48681700Y-35557400D03*
%TO.N,/CHAIN_GPIO*%
X29087500Y-38410100D03*
%TO.N,/DE*%
X39076600Y-26999300D03*
%TO.N,/DI*%
X35811400Y-27385800D03*
D15*
%TO.N,/GND*%
X9925000Y-29925000D03*
X19925000Y-19925000D03*
X39662500Y-48000000D03*
D16*
X55887900Y-40887900D03*
D15*
X29925000Y-24925000D03*
X64925000Y-19925000D03*
X4925000Y-24925000D03*
X36125000Y-25365000D03*
X19925000Y-4925000D03*
X44912500Y-31400000D03*
X44925000Y-9925000D03*
X59925000Y-29925000D03*
X34925000Y-29925000D03*
X4925000Y-34925000D03*
X30400000Y-46525000D03*
X64925000Y-34925000D03*
X59925000Y-34925000D03*
X64925000Y-14925000D03*
X64925000Y-44925000D03*
X29925000Y-14925000D03*
X39925000Y-29925000D03*
X44950000Y-13600000D03*
X14925000Y-34925000D03*
X14925000Y-39925000D03*
X19925000Y-14925000D03*
X39925000Y-39925000D03*
X39925000Y-9925000D03*
X64925000Y-9925000D03*
X29925000Y-29925000D03*
X59925000Y-9925000D03*
X9925000Y-44925000D03*
X19925000Y-44925000D03*
D16*
X41997400Y-47083400D03*
D15*
X55000000Y-38600000D03*
X39925000Y-44925000D03*
X44925000Y-4925000D03*
X4925000Y-19925000D03*
X14925000Y-19925000D03*
X39925000Y-34925000D03*
X54925000Y-14925000D03*
X14925000Y-9925000D03*
X34925000Y-4925000D03*
X9925000Y-34925000D03*
X19925000Y-9925000D03*
D16*
X34950000Y-32350000D03*
D15*
X4925000Y-39925000D03*
X14925000Y-14925000D03*
D16*
X27555600Y-46968200D03*
D15*
X64925000Y-29925000D03*
D16*
X42252900Y-17797200D03*
D15*
X59925000Y-4925000D03*
X24925000Y-34925000D03*
X64925000Y-39925000D03*
X39925000Y-4925000D03*
X32862499Y-40350000D03*
X19925000Y-39925000D03*
X59925000Y-44925000D03*
X64925000Y-24925000D03*
X59925000Y-49925000D03*
X9925000Y-39925000D03*
X54925000Y-19925000D03*
X32950000Y-7800000D03*
X43875000Y-27905000D03*
X4925000Y-44925000D03*
X24925000Y-29925000D03*
X34925000Y-14925000D03*
X54925000Y-4925000D03*
X4925000Y-14925000D03*
X59925000Y-39925000D03*
X4925000Y-29925000D03*
X19925000Y-29925000D03*
X4925000Y-9925000D03*
X14925000Y-44925000D03*
D16*
X31653000Y-39195800D03*
X33851600Y-6901600D03*
D15*
X29925000Y-44925000D03*
D16*
%TO.N,/IO0_RSV*%
X42513000Y-23085600D03*
X37642800Y-20083600D03*
%TO.N,/IO1_RSV*%
X37621900Y-19267200D03*
X43996100Y-24281300D03*
%TO.N,/LED_DRV*%
X35184700Y-47097200D03*
%TO.N,/RO*%
X36704400Y-23274400D03*
%TO.N,/RS485_A*%
X31951400Y-25923900D03*
X43986500Y-26635000D03*
%TO.N,/RS485_B*%
X40966800Y-25365000D03*
X36156200Y-21077200D03*
X46372900Y-25365000D03*
%TD*%
D17*
%TO.N,/+3V3*%
X52340700Y-22636000D02*
X52340700Y-35557400D01*
%TO.N,/+5V_IN*%
X48403600Y-16719300D02*
X48403600Y-16946400D01*
X47417200Y-36132800D02*
X41550000Y-42000000D01*
X48403600Y-16946400D02*
X47417200Y-17932800D01*
X47417200Y-17932800D02*
X47417200Y-36132800D01*
%TO.N,/+15V*%
X55075000Y-49247200D02*
X47913900Y-42086100D01*
X52536300Y-51456300D02*
X54228100Y-51456300D01*
X51080000Y-50000000D02*
X52536300Y-51456300D01*
X55075000Y-50609400D02*
X55075000Y-49247200D01*
X54228100Y-51456300D02*
X55075000Y-50609400D01*
%TO.N,/ADER9*%
X51089800Y-41673400D02*
X51089800Y-20249800D01*
X53531900Y-44115500D02*
X51089800Y-41673400D01*
X51089800Y-20249800D02*
X50000000Y-19160000D01*
D18*
%TO.N,/CHAIN_BUS*%
X48681700Y-17938300D02*
X50000000Y-16620000D01*
X48681700Y-35557400D02*
X48681700Y-17938300D01*
%TO.N,/CHAIN_GPIO*%
X23005000Y-38410100D02*
X29087500Y-38410100D01*
X7672600Y-23077700D02*
X23005000Y-38410100D01*
X7672600Y-7817400D02*
X7672600Y-23077700D01*
X10380000Y-5110000D02*
X7672600Y-7817400D01*
%TO.N,/DE*%
X21445100Y-28875100D02*
X10380000Y-17810000D01*
X39076600Y-26999300D02*
X37200800Y-28875100D01*
X37200800Y-28875100D02*
X21445100Y-28875100D01*
%TO.N,/DI*%
X33280100Y-22930100D02*
X25620000Y-15270000D01*
X35811400Y-27385800D02*
X35301800Y-27385800D01*
X33280100Y-25364100D02*
X33280100Y-22930100D01*
X35301800Y-27385800D02*
X33280100Y-25364100D01*
%TO.N,/IO0_RSV*%
X39511000Y-20083600D02*
X37642800Y-20083600D01*
X42513000Y-23085600D02*
X39511000Y-20083600D01*
%TO.N,/IO1_RSV*%
X37621900Y-19267200D02*
X39822900Y-19267200D01*
X43996100Y-23440400D02*
X43996100Y-24281300D01*
X39822900Y-19267200D02*
X43996100Y-23440400D01*
%TO.N,/LED_DRV*%
X17129800Y-31081800D02*
X10839300Y-24791300D01*
X8374300Y-22787000D02*
X8374300Y-9655700D01*
X8374300Y-9655700D02*
X10380000Y-7650000D01*
X10378600Y-24791300D02*
X8374300Y-22787000D01*
X10839300Y-24791300D02*
X10378600Y-24791300D01*
X35896300Y-46385600D02*
X35896300Y-32219600D01*
X35184700Y-47097200D02*
X35896300Y-46385600D01*
X34758500Y-31081800D02*
X17129800Y-31081800D01*
X35896300Y-32219600D02*
X34758500Y-31081800D01*
%TO.N,/RO*%
X36704400Y-23274400D02*
X26160000Y-12730000D01*
X26160000Y-12730000D02*
X25620000Y-12730000D01*
%TO.N,/RS485_A*%
X43554100Y-26202600D02*
X43986500Y-26635000D01*
X31951400Y-25923900D02*
X34200900Y-28173400D01*
X45050900Y-24705800D02*
X43554100Y-26202600D01*
X36125500Y-28173400D02*
X38096300Y-26202600D01*
X34200900Y-28173400D02*
X36125500Y-28173400D01*
X45050900Y-16489100D02*
X45050900Y-24705800D01*
X50000000Y-11540000D02*
X45050900Y-16489100D01*
X38096300Y-26202600D02*
X43554100Y-26202600D01*
%TO.N,/RS485_B*%
X46372900Y-17545500D02*
X46372900Y-25365000D01*
X40966800Y-25365000D02*
X36679000Y-21077200D01*
X50000000Y-14080000D02*
X49838400Y-14080000D01*
X49838400Y-14080000D02*
X46372900Y-17545500D01*
X36679000Y-21077200D02*
X36156200Y-21077200D01*
%TD*%
%TA.AperFunction,Conductor*%
%TO.N,/GND*%
G36*
X26353620Y-13708592D02*
G01*
X26380402Y-13728927D01*
X36118305Y-23466830D01*
X36140137Y-23499505D01*
X36140759Y-23499146D01*
X36223877Y-23643112D01*
X36223879Y-23643115D01*
X36223880Y-23643116D01*
X36335684Y-23754920D01*
X36335686Y-23754921D01*
X36335690Y-23754924D01*
X36373526Y-23776768D01*
X36472616Y-23833977D01*
X36625343Y-23874900D01*
X36625345Y-23874900D01*
X36783455Y-23874900D01*
X36783457Y-23874900D01*
X36936184Y-23833977D01*
X37073116Y-23754920D01*
X37184920Y-23643116D01*
X37263977Y-23506184D01*
X37304900Y-23353457D01*
X37304900Y-23195343D01*
X37263977Y-23042616D01*
X37216583Y-22960526D01*
X37184924Y-22905690D01*
X37184918Y-22905682D01*
X37073117Y-22793881D01*
X37073112Y-22793877D01*
X36929146Y-22710759D01*
X36929505Y-22710137D01*
X36896830Y-22688305D01*
X36097906Y-21889381D01*
X36064421Y-21828058D01*
X36069405Y-21758366D01*
X36111277Y-21702433D01*
X36162633Y-21679843D01*
X36174010Y-21677700D01*
X36235257Y-21677700D01*
X36380219Y-21638857D01*
X36384809Y-21637993D01*
X36415090Y-21641013D01*
X36445519Y-21641738D01*
X36450051Y-21644500D01*
X36454334Y-21644928D01*
X36466216Y-21654353D01*
X36495444Y-21672169D01*
X40263694Y-25440419D01*
X40297179Y-25501742D01*
X40292195Y-25571434D01*
X40250323Y-25627367D01*
X40184859Y-25651784D01*
X40176013Y-25652100D01*
X38023825Y-25652100D01*
X37918817Y-25680237D01*
X37883814Y-25689616D01*
X37758286Y-25762089D01*
X37758283Y-25762091D01*
X36483555Y-27036818D01*
X36422232Y-27070303D01*
X36352540Y-27065319D01*
X36296607Y-27023447D01*
X36295409Y-27021632D01*
X36291918Y-27017082D01*
X36180117Y-26905281D01*
X36180109Y-26905275D01*
X36043190Y-26826226D01*
X36043186Y-26826224D01*
X36043184Y-26826223D01*
X35890457Y-26785300D01*
X35732343Y-26785300D01*
X35602338Y-26820134D01*
X35532488Y-26818471D01*
X35482564Y-26788040D01*
X33866919Y-25172394D01*
X33833434Y-25111071D01*
X33830600Y-25084713D01*
X33830600Y-22857627D01*
X33830600Y-22857625D01*
X33793084Y-22717615D01*
X33757801Y-22656503D01*
X33720610Y-22592085D01*
X26776696Y-15648171D01*
X26743211Y-15586848D01*
X26741904Y-15541091D01*
X26742169Y-15539412D01*
X26742171Y-15539409D01*
X26766907Y-15383232D01*
X26770500Y-15360550D01*
X26770500Y-15179448D01*
X26752213Y-15063993D01*
X26742171Y-15000591D01*
X26714191Y-14914476D01*
X26686212Y-14828363D01*
X26686211Y-14828360D01*
X26657740Y-14772484D01*
X26603996Y-14667006D01*
X26590396Y-14648287D01*
X26497558Y-14520505D01*
X26497554Y-14520500D01*
X26369499Y-14392445D01*
X26369494Y-14392441D01*
X26222997Y-14286006D01*
X26222996Y-14286005D01*
X26222994Y-14286004D01*
X26171300Y-14259664D01*
X26061639Y-14203788D01*
X26061636Y-14203787D01*
X25889410Y-14147829D01*
X25729321Y-14122473D01*
X25666186Y-14092544D01*
X25629255Y-14033232D01*
X25630253Y-13963370D01*
X25668863Y-13905137D01*
X25729321Y-13877527D01*
X25799425Y-13866422D01*
X25889409Y-13852171D01*
X26061639Y-13796211D01*
X26222994Y-13713996D01*
X26223000Y-13713991D01*
X26227147Y-13711451D01*
X26228278Y-13713296D01*
X26285555Y-13692815D01*
X26353620Y-13708592D01*
G37*
%TD.AperFunction*%
%TA.AperFunction,Conductor*%
G36*
X67442539Y-520185D02*
G01*
X67488294Y-572989D01*
X67499500Y-624500D01*
X67499500Y-53375500D01*
X67479815Y-53442539D01*
X67427011Y-53488294D01*
X67375500Y-53499500D01*
X624500Y-53499500D01*
X557461Y-53479815D01*
X511706Y-53427011D01*
X500500Y-53375500D01*
X500500Y-49878711D01*
X2149500Y-49878711D01*
X2149500Y-50121288D01*
X2181161Y-50361785D01*
X2243947Y-50596104D01*
X2334091Y-50813729D01*
X2336776Y-50820212D01*
X2458064Y-51030289D01*
X2458066Y-51030292D01*
X2458067Y-51030293D01*
X2605733Y-51222736D01*
X2605739Y-51222743D01*
X2777256Y-51394260D01*
X2777262Y-51394265D01*
X2969711Y-51541936D01*
X3179788Y-51663224D01*
X3403900Y-51756054D01*
X3638211Y-51818838D01*
X3818586Y-51842584D01*
X3878711Y-51850500D01*
X3878712Y-51850500D01*
X4121289Y-51850500D01*
X4169388Y-51844167D01*
X4361789Y-51818838D01*
X4596100Y-51756054D01*
X4820212Y-51663224D01*
X5030289Y-51541936D01*
X5222738Y-51394265D01*
X5394265Y-51222738D01*
X5541936Y-51030289D01*
X5663224Y-50820212D01*
X5756054Y-50596100D01*
X5818838Y-50361789D01*
X5850500Y-50121288D01*
X5850500Y-49878712D01*
X5818838Y-49638211D01*
X5756054Y-49403900D01*
X5663224Y-49179788D01*
X5541936Y-48969711D01*
X5394265Y-48777262D01*
X5394260Y-48777256D01*
X5222743Y-48605739D01*
X5222736Y-48605733D01*
X5030293Y-48458067D01*
X5030292Y-48458066D01*
X5030289Y-48458064D01*
X4820212Y-48336776D01*
X4820205Y-48336773D01*
X4596104Y-48243947D01*
X4361785Y-48181161D01*
X4121289Y-48149500D01*
X4121288Y-48149500D01*
X3878712Y-48149500D01*
X3878711Y-48149500D01*
X3638214Y-48181161D01*
X3403895Y-48243947D01*
X3179794Y-48336773D01*
X3179785Y-48336777D01*
X2969706Y-48458067D01*
X2777263Y-48605733D01*
X2777256Y-48605739D01*
X2605739Y-48777256D01*
X2605733Y-48777263D01*
X2458067Y-48969706D01*
X2336777Y-49179785D01*
X2336773Y-49179794D01*
X2243947Y-49403895D01*
X2181161Y-49638214D01*
X2149500Y-49878711D01*
X500500Y-49878711D01*
X500500Y-46906898D01*
X9399500Y-46906898D01*
X9399500Y-49093102D01*
X9400946Y-49105143D01*
X9410122Y-49181561D01*
X9465639Y-49322343D01*
X9557077Y-49442922D01*
X9677656Y-49534360D01*
X9677657Y-49534360D01*
X9677658Y-49534361D01*
X9818436Y-49589877D01*
X9906898Y-49600500D01*
X9906903Y-49600500D01*
X12093097Y-49600500D01*
X12093102Y-49600500D01*
X12181564Y-49589877D01*
X12322342Y-49534361D01*
X12442922Y-49442922D01*
X12534361Y-49322342D01*
X12589877Y-49181564D01*
X12599055Y-49105131D01*
X44849500Y-49105131D01*
X44849500Y-50894856D01*
X44849502Y-50894882D01*
X44852413Y-50919987D01*
X44852415Y-50919991D01*
X44897793Y-51022764D01*
X44897794Y-51022765D01*
X44977235Y-51102206D01*
X45080009Y-51147585D01*
X45105135Y-51150500D01*
X46894864Y-51150499D01*
X46894879Y-51150497D01*
X46894882Y-51150497D01*
X46919987Y-51147586D01*
X46919988Y-51147585D01*
X46919991Y-51147585D01*
X47022765Y-51102206D01*
X47102206Y-51022765D01*
X47147585Y-50919991D01*
X47150500Y-50894865D01*
X47150499Y-49105136D01*
X47149104Y-49093105D01*
X47147586Y-49080012D01*
X47147585Y-49080010D01*
X47147585Y-49080009D01*
X47102206Y-48977235D01*
X47022765Y-48897794D01*
X47022763Y-48897793D01*
X46919992Y-48852415D01*
X46894865Y-48849500D01*
X45105143Y-48849500D01*
X45105117Y-48849502D01*
X45080012Y-48852413D01*
X45080008Y-48852415D01*
X44977235Y-48897793D01*
X44897794Y-48977234D01*
X44852415Y-49080006D01*
X44852415Y-49080008D01*
X44849500Y-49105131D01*
X12599055Y-49105131D01*
X12600500Y-49093102D01*
X12600500Y-46906898D01*
X12589877Y-46818436D01*
X12534361Y-46677658D01*
X12534360Y-46677657D01*
X12534360Y-46677656D01*
X12442922Y-46557077D01*
X12322343Y-46465639D01*
X12181561Y-46410122D01*
X12135926Y-46404642D01*
X12093102Y-46399500D01*
X9906898Y-46399500D01*
X9867853Y-46404188D01*
X9818438Y-46410122D01*
X9677656Y-46465639D01*
X9557077Y-46557077D01*
X9465639Y-46677656D01*
X9410122Y-46818438D01*
X9404482Y-46865409D01*
X9399500Y-46906898D01*
X500500Y-46906898D01*
X500500Y-7744925D01*
X7122100Y-7744925D01*
X7122100Y-23150175D01*
X7142822Y-23227509D01*
X7159616Y-23290185D01*
X7196145Y-23353455D01*
X7232089Y-23415713D01*
X7232091Y-23415716D01*
X8094694Y-24278319D01*
X8128179Y-24339642D01*
X8123195Y-24409334D01*
X8081323Y-24465267D01*
X8015859Y-24489684D01*
X8007013Y-24490000D01*
X7500000Y-24490000D01*
X7500000Y-28260000D01*
X12025013Y-28260000D01*
X12092052Y-28279685D01*
X12112694Y-28296319D01*
X22666985Y-38850610D01*
X22792515Y-38923084D01*
X22932525Y-38960600D01*
X22932526Y-38960600D01*
X23077474Y-38960600D01*
X28809137Y-38960600D01*
X28847679Y-38968265D01*
X28847865Y-38967573D01*
X28855714Y-38969676D01*
X28855716Y-38969677D01*
X29008443Y-39010600D01*
X29008445Y-39010600D01*
X29166555Y-39010600D01*
X29166557Y-39010600D01*
X29319284Y-38969677D01*
X29456216Y-38890620D01*
X29568020Y-38778816D01*
X29647077Y-38641884D01*
X29688000Y-38489157D01*
X29688000Y-38331043D01*
X29647077Y-38178316D01*
X29647073Y-38178309D01*
X29568024Y-38041390D01*
X29568018Y-38041382D01*
X29456217Y-37929581D01*
X29456209Y-37929575D01*
X29319290Y-37850526D01*
X29319286Y-37850524D01*
X29319284Y-37850523D01*
X29166557Y-37809600D01*
X29008443Y-37809600D01*
X28855716Y-37850523D01*
X28855714Y-37850523D01*
X28847865Y-37852627D01*
X28847679Y-37851934D01*
X28809137Y-37859600D01*
X23284387Y-37859600D01*
X23217348Y-37839915D01*
X23196706Y-37823281D01*
X17217406Y-31843981D01*
X17183921Y-31782658D01*
X17188905Y-31712966D01*
X17230777Y-31657033D01*
X17296241Y-31632616D01*
X17305087Y-31632300D01*
X34479113Y-31632300D01*
X34546152Y-31651985D01*
X34566794Y-31668619D01*
X35309481Y-32411306D01*
X35342966Y-32472629D01*
X35345800Y-32498987D01*
X35345800Y-46106212D01*
X35326115Y-46173251D01*
X35309481Y-46193893D01*
X34992267Y-46511106D01*
X34959594Y-46532940D01*
X34959953Y-46533561D01*
X34952918Y-46537622D01*
X34952916Y-46537623D01*
X34919219Y-46557078D01*
X34815985Y-46616679D01*
X34815982Y-46616681D01*
X34704181Y-46728482D01*
X34704175Y-46728490D01*
X34625126Y-46865409D01*
X34625123Y-46865416D01*
X34584200Y-47018143D01*
X34584200Y-47176256D01*
X34625123Y-47328983D01*
X34625126Y-47328990D01*
X34704175Y-47465909D01*
X34704179Y-47465914D01*
X34704180Y-47465916D01*
X34815984Y-47577720D01*
X34815986Y-47577721D01*
X34815990Y-47577724D01*
X34952909Y-47656773D01*
X34952916Y-47656777D01*
X35105643Y-47697700D01*
X35105645Y-47697700D01*
X35263755Y-47697700D01*
X35263757Y-47697700D01*
X35416484Y-47656777D01*
X35553416Y-47577720D01*
X35665220Y-47465916D01*
X35744277Y-47328984D01*
X35744277Y-47328980D01*
X35748340Y-47321945D01*
X35748962Y-47322304D01*
X35770792Y-47289631D01*
X36336810Y-46723615D01*
X36409284Y-46598085D01*
X36412768Y-46585081D01*
X36420273Y-46557077D01*
X36432590Y-46511106D01*
X36446800Y-46458075D01*
X36446800Y-32147125D01*
X36409284Y-32007115D01*
X36336810Y-31881585D01*
X35096515Y-30641290D01*
X34970985Y-30568816D01*
X34970986Y-30568816D01*
X34935982Y-30559437D01*
X34830975Y-30531300D01*
X34830972Y-30531300D01*
X17409187Y-30531300D01*
X17342148Y-30511615D01*
X17321506Y-30494981D01*
X15298206Y-28471681D01*
X15264721Y-28410358D01*
X15269705Y-28340666D01*
X15311577Y-28284733D01*
X15377041Y-28260316D01*
X15385887Y-28260000D01*
X20000113Y-28260000D01*
X20067152Y-28279685D01*
X20087794Y-28296319D01*
X21107085Y-29315610D01*
X21232615Y-29388084D01*
X21372625Y-29425600D01*
X21372628Y-29425600D01*
X37273272Y-29425600D01*
X37273274Y-29425600D01*
X37273275Y-29425600D01*
X37413285Y-29388084D01*
X37538815Y-29315610D01*
X39269031Y-27585392D01*
X39301704Y-27563562D01*
X39301345Y-27562940D01*
X39308380Y-27558877D01*
X39308384Y-27558877D01*
X39445316Y-27479820D01*
X39557120Y-27368016D01*
X39636177Y-27231084D01*
X39677100Y-27078357D01*
X39677100Y-26920243D01*
X39674139Y-26909192D01*
X39675802Y-26839342D01*
X39714966Y-26781480D01*
X39779194Y-26753977D01*
X39793914Y-26753100D01*
X43274713Y-26753100D01*
X43304153Y-26761744D01*
X43334140Y-26768268D01*
X43339155Y-26772022D01*
X43341752Y-26772785D01*
X43362394Y-26789419D01*
X43400405Y-26827430D01*
X43422237Y-26860105D01*
X43422859Y-26859746D01*
X43505977Y-27003712D01*
X43505979Y-27003715D01*
X43505980Y-27003716D01*
X43617784Y-27115520D01*
X43617786Y-27115521D01*
X43617790Y-27115524D01*
X43679390Y-27151088D01*
X43754716Y-27194577D01*
X43907443Y-27235500D01*
X43907445Y-27235500D01*
X44065555Y-27235500D01*
X44065557Y-27235500D01*
X44218284Y-27194577D01*
X44355216Y-27115520D01*
X44467020Y-27003716D01*
X44546077Y-26866784D01*
X44587000Y-26714057D01*
X44587000Y-26555943D01*
X44546077Y-26403216D01*
X44546073Y-26403209D01*
X44467024Y-26266290D01*
X44467018Y-26266282D01*
X44455661Y-26254925D01*
X44422176Y-26193602D01*
X44427160Y-26123910D01*
X44455661Y-26079563D01*
X44919443Y-25615781D01*
X45491410Y-25043815D01*
X45563884Y-24918285D01*
X45572943Y-24884477D01*
X45578626Y-24863270D01*
X45588656Y-24846814D01*
X45594085Y-24828326D01*
X45606463Y-24817599D01*
X45614991Y-24803610D01*
X45632327Y-24795188D01*
X45646889Y-24782571D01*
X45663102Y-24780239D01*
X45677838Y-24773082D01*
X45696971Y-24775369D01*
X45716047Y-24772627D01*
X45730948Y-24779432D01*
X45747214Y-24781377D01*
X45762073Y-24793646D01*
X45779603Y-24801652D01*
X45788459Y-24815433D01*
X45801091Y-24825863D01*
X45806958Y-24844218D01*
X45817377Y-24860430D01*
X45821657Y-24890202D01*
X45822365Y-24892415D01*
X45822400Y-24895365D01*
X45822400Y-25086637D01*
X45814734Y-25125179D01*
X45815427Y-25125365D01*
X45813323Y-25133214D01*
X45813323Y-25133216D01*
X45772400Y-25285943D01*
X45772400Y-25444057D01*
X45802177Y-25555184D01*
X45813323Y-25596783D01*
X45813326Y-25596790D01*
X45892375Y-25733709D01*
X45892379Y-25733714D01*
X45892380Y-25733716D01*
X46004184Y-25845520D01*
X46004186Y-25845521D01*
X46004190Y-25845524D01*
X46141109Y-25924573D01*
X46141116Y-25924577D01*
X46293843Y-25965500D01*
X46293845Y-25965500D01*
X46451955Y-25965500D01*
X46451957Y-25965500D01*
X46560608Y-25936387D01*
X46630456Y-25938050D01*
X46688319Y-25977212D01*
X46715823Y-26041441D01*
X46716700Y-26056162D01*
X46716700Y-35791280D01*
X46697015Y-35858319D01*
X46680381Y-35878961D01*
X41005888Y-41553453D01*
X41005887Y-41553454D01*
X40929222Y-41668192D01*
X40876421Y-41795667D01*
X40876418Y-41795677D01*
X40849500Y-41931003D01*
X40849500Y-41931006D01*
X40849500Y-42068994D01*
X40849500Y-42068996D01*
X40849499Y-42068996D01*
X40876418Y-42204322D01*
X40876421Y-42204332D01*
X40929222Y-42331807D01*
X41005887Y-42446545D01*
X41103454Y-42544112D01*
X41218192Y-42620777D01*
X41345667Y-42673578D01*
X41345672Y-42673580D01*
X41345676Y-42673580D01*
X41345677Y-42673581D01*
X41481003Y-42700500D01*
X41481006Y-42700500D01*
X41618996Y-42700500D01*
X41710040Y-42682389D01*
X41754328Y-42673580D01*
X41818069Y-42647177D01*
X41881807Y-42620777D01*
X41881808Y-42620776D01*
X41881811Y-42620775D01*
X41996543Y-42544114D01*
X42250235Y-42290422D01*
X42385561Y-42155096D01*
X47213399Y-42155096D01*
X47240318Y-42290422D01*
X47240321Y-42290432D01*
X47293122Y-42417907D01*
X47369787Y-42532645D01*
X47369788Y-42532646D01*
X54338181Y-49501038D01*
X54371666Y-49562361D01*
X54374500Y-49588719D01*
X54374500Y-50267881D01*
X54354815Y-50334920D01*
X54338181Y-50355562D01*
X53974262Y-50719481D01*
X53912939Y-50752966D01*
X53886581Y-50755800D01*
X52877819Y-50755800D01*
X52810780Y-50736115D01*
X52790138Y-50719481D01*
X52265700Y-50195043D01*
X52232215Y-50133720D01*
X52231128Y-50095476D01*
X52230118Y-50095397D01*
X52230500Y-50090546D01*
X52230500Y-49909448D01*
X52214019Y-49805397D01*
X52202171Y-49730591D01*
X52146211Y-49558361D01*
X52146211Y-49558360D01*
X52117003Y-49501038D01*
X52063996Y-49397006D01*
X52050396Y-49378287D01*
X51957558Y-49250505D01*
X51957554Y-49250500D01*
X51829499Y-49122445D01*
X51829494Y-49122441D01*
X51682997Y-49016006D01*
X51682996Y-49016005D01*
X51682994Y-49016004D01*
X51606906Y-48977235D01*
X51521639Y-48933788D01*
X51521636Y-48933787D01*
X51349410Y-48877829D01*
X51170551Y-48849500D01*
X51170546Y-48849500D01*
X50989454Y-48849500D01*
X50989449Y-48849500D01*
X50810589Y-48877829D01*
X50638363Y-48933787D01*
X50638360Y-48933788D01*
X50477002Y-49016006D01*
X50330505Y-49122441D01*
X50330500Y-49122445D01*
X50202445Y-49250500D01*
X50202441Y-49250505D01*
X50096006Y-49397002D01*
X50013788Y-49558360D01*
X50013787Y-49558363D01*
X49957829Y-49730589D01*
X49929500Y-49909448D01*
X49929500Y-50090551D01*
X49957829Y-50269410D01*
X50013787Y-50441636D01*
X50013788Y-50441639D01*
X50069664Y-50551300D01*
X50092493Y-50596104D01*
X50096006Y-50602997D01*
X50202441Y-50749494D01*
X50202445Y-50749499D01*
X50330500Y-50877554D01*
X50330505Y-50877558D01*
X50418116Y-50941210D01*
X50477006Y-50983996D01*
X50582484Y-51037740D01*
X50638360Y-51066211D01*
X50638363Y-51066212D01*
X50724476Y-51094191D01*
X50810591Y-51122171D01*
X50893429Y-51135291D01*
X50989449Y-51150500D01*
X50989454Y-51150500D01*
X51170546Y-51150500D01*
X51175397Y-51150118D01*
X51175536Y-51151895D01*
X51237218Y-51159845D01*
X51275043Y-51185700D01*
X52089753Y-52000411D01*
X52089754Y-52000412D01*
X52204490Y-52077076D01*
X52303090Y-52117917D01*
X52331971Y-52129880D01*
X52331972Y-52129880D01*
X52331977Y-52129882D01*
X52358845Y-52135225D01*
X52358851Y-52135226D01*
X52358891Y-52135234D01*
X52449237Y-52153205D01*
X52467306Y-52156800D01*
X52467307Y-52156800D01*
X54297096Y-52156800D01*
X54405557Y-52135225D01*
X54432428Y-52129880D01*
X54496169Y-52103477D01*
X54559907Y-52077077D01*
X54559908Y-52077076D01*
X54559911Y-52077075D01*
X54674643Y-52000414D01*
X55619113Y-51055943D01*
X55632015Y-51036634D01*
X55636256Y-51030288D01*
X55695771Y-50941217D01*
X55695771Y-50941216D01*
X55695775Y-50941211D01*
X55726707Y-50866534D01*
X55748580Y-50813729D01*
X55757330Y-50769737D01*
X55775500Y-50678393D01*
X55775500Y-49878711D01*
X62149500Y-49878711D01*
X62149500Y-50121288D01*
X62181161Y-50361785D01*
X62243947Y-50596104D01*
X62334091Y-50813729D01*
X62336776Y-50820212D01*
X62458064Y-51030289D01*
X62458066Y-51030292D01*
X62458067Y-51030293D01*
X62605733Y-51222736D01*
X62605739Y-51222743D01*
X62777256Y-51394260D01*
X62777262Y-51394265D01*
X62969711Y-51541936D01*
X63179788Y-51663224D01*
X63403900Y-51756054D01*
X63638211Y-51818838D01*
X63818586Y-51842584D01*
X63878711Y-51850500D01*
X63878712Y-51850500D01*
X64121289Y-51850500D01*
X64169388Y-51844167D01*
X64361789Y-51818838D01*
X64596100Y-51756054D01*
X64820212Y-51663224D01*
X65030289Y-51541936D01*
X65222738Y-51394265D01*
X65394265Y-51222738D01*
X65541936Y-51030289D01*
X65663224Y-50820212D01*
X65756054Y-50596100D01*
X65818838Y-50361789D01*
X65850500Y-50121288D01*
X65850500Y-49878712D01*
X65818838Y-49638211D01*
X65756054Y-49403900D01*
X65663224Y-49179788D01*
X65541936Y-48969711D01*
X65394265Y-48777262D01*
X65394260Y-48777256D01*
X65222743Y-48605739D01*
X65222736Y-48605733D01*
X65030293Y-48458067D01*
X65030292Y-48458066D01*
X65030289Y-48458064D01*
X64820212Y-48336776D01*
X64820205Y-48336773D01*
X64596104Y-48243947D01*
X64361785Y-48181161D01*
X64121289Y-48149500D01*
X64121288Y-48149500D01*
X63878712Y-48149500D01*
X63878711Y-48149500D01*
X63638214Y-48181161D01*
X63403895Y-48243947D01*
X63179794Y-48336773D01*
X63179785Y-48336777D01*
X62969706Y-48458067D01*
X62777263Y-48605733D01*
X62777256Y-48605739D01*
X62605739Y-48777256D01*
X62605733Y-48777263D01*
X62458067Y-48969706D01*
X62336777Y-49179785D01*
X62336773Y-49179794D01*
X62243947Y-49403895D01*
X62181161Y-49638214D01*
X62149500Y-49878711D01*
X55775500Y-49878711D01*
X55775500Y-49178207D01*
X55758571Y-49093102D01*
X55758570Y-49093099D01*
X55754552Y-49072900D01*
X55748580Y-49042872D01*
X55695775Y-48915389D01*
X55619114Y-48800657D01*
X55619112Y-48800654D01*
X48360445Y-41541987D01*
X48245707Y-41465322D01*
X48118232Y-41412521D01*
X48118222Y-41412518D01*
X47982896Y-41385600D01*
X47982894Y-41385600D01*
X47844906Y-41385600D01*
X47844904Y-41385600D01*
X47709577Y-41412518D01*
X47709567Y-41412521D01*
X47582092Y-41465322D01*
X47467354Y-41541987D01*
X47369787Y-41639554D01*
X47293122Y-41754292D01*
X47240321Y-41881767D01*
X47240318Y-41881777D01*
X47213400Y-42017103D01*
X47213400Y-42017106D01*
X47213400Y-42155094D01*
X47213400Y-42155096D01*
X47213399Y-42155096D01*
X42385561Y-42155096D01*
X42617325Y-41923333D01*
X47961311Y-36579346D01*
X47961312Y-36579345D01*
X47961314Y-36579343D01*
X48037975Y-36464611D01*
X48090780Y-36337128D01*
X48106540Y-36257900D01*
X48117700Y-36201796D01*
X48117700Y-36139520D01*
X48137385Y-36072481D01*
X48190189Y-36026726D01*
X48259347Y-36016782D01*
X48304757Y-36035913D01*
X48305945Y-36033857D01*
X48423133Y-36101514D01*
X48449916Y-36116977D01*
X48602643Y-36157900D01*
X48602645Y-36157900D01*
X48760755Y-36157900D01*
X48760757Y-36157900D01*
X48913484Y-36116977D01*
X49050416Y-36037920D01*
X49162220Y-35926116D01*
X49241277Y-35789184D01*
X49282200Y-35636457D01*
X49282200Y-35478343D01*
X49241277Y-35325616D01*
X49241276Y-35325614D01*
X49239173Y-35317765D01*
X49239865Y-35317579D01*
X49232200Y-35279037D01*
X49232200Y-20262372D01*
X49251885Y-20195333D01*
X49304689Y-20149578D01*
X49373847Y-20139634D01*
X49412492Y-20151887D01*
X49469251Y-20180807D01*
X49558356Y-20226209D01*
X49558363Y-20226212D01*
X49644476Y-20254191D01*
X49730591Y-20282171D01*
X49813429Y-20295291D01*
X49909449Y-20310500D01*
X49909454Y-20310500D01*
X50090546Y-20310500D01*
X50095397Y-20310118D01*
X50095453Y-20310839D01*
X50098516Y-20309697D01*
X50127644Y-20316033D01*
X50157218Y-20319845D01*
X50162844Y-20323690D01*
X50166789Y-20324549D01*
X50195043Y-20345700D01*
X50352981Y-20503638D01*
X50386466Y-20564961D01*
X50389300Y-20591319D01*
X50389300Y-41604406D01*
X50389300Y-41742394D01*
X50389300Y-41742396D01*
X50389299Y-41742396D01*
X50416218Y-41877722D01*
X50416221Y-41877732D01*
X50469022Y-42005207D01*
X50545687Y-42119945D01*
X53085354Y-44659612D01*
X53200092Y-44736277D01*
X53327567Y-44789078D01*
X53327572Y-44789080D01*
X53327576Y-44789080D01*
X53327577Y-44789081D01*
X53462903Y-44816000D01*
X53462906Y-44816000D01*
X53600896Y-44816000D01*
X53691940Y-44797889D01*
X53736228Y-44789080D01*
X53799969Y-44762677D01*
X53863707Y-44736277D01*
X53863708Y-44736276D01*
X53863711Y-44736275D01*
X53978443Y-44659614D01*
X54076014Y-44562043D01*
X54152675Y-44447311D01*
X54205480Y-44319828D01*
X54232400Y-44184494D01*
X54232400Y-44046506D01*
X54232400Y-44046503D01*
X54205481Y-43911177D01*
X54205480Y-43911176D01*
X54205480Y-43911172D01*
X54205478Y-43911167D01*
X54152677Y-43783692D01*
X54076012Y-43668954D01*
X51826619Y-41419561D01*
X51793134Y-41358238D01*
X51790300Y-41331880D01*
X51790300Y-36264106D01*
X51809985Y-36197067D01*
X51862789Y-36151312D01*
X51931947Y-36141368D01*
X51983191Y-36161004D01*
X52008889Y-36178175D01*
X52008891Y-36178175D01*
X52008895Y-36178178D01*
X52065915Y-36201796D01*
X52136372Y-36230980D01*
X52136376Y-36230980D01*
X52136377Y-36230981D01*
X52271704Y-36257900D01*
X52271707Y-36257900D01*
X52409695Y-36257900D01*
X52500741Y-36239789D01*
X52545028Y-36230980D01*
X52672511Y-36178175D01*
X52787242Y-36101514D01*
X52884814Y-36003942D01*
X52961475Y-35889211D01*
X53014280Y-35761728D01*
X53039198Y-35636457D01*
X53041200Y-35626395D01*
X53041200Y-22567004D01*
X53014281Y-22431677D01*
X53014280Y-22431676D01*
X53014280Y-22431672D01*
X53014278Y-22431667D01*
X52961478Y-22304195D01*
X52961471Y-22304182D01*
X52884814Y-22189458D01*
X52884811Y-22189454D01*
X52787245Y-22091888D01*
X52787241Y-22091885D01*
X52672517Y-22015228D01*
X52672504Y-22015221D01*
X52545032Y-21962421D01*
X52545022Y-21962418D01*
X52409695Y-21935500D01*
X52409693Y-21935500D01*
X52271707Y-21935500D01*
X52271705Y-21935500D01*
X52136377Y-21962418D01*
X52136367Y-21962421D01*
X52008895Y-22015221D01*
X52008884Y-22015227D01*
X51983190Y-22032396D01*
X51916513Y-22053273D01*
X51849133Y-22034788D01*
X51802443Y-21982809D01*
X51790300Y-21929293D01*
X51790300Y-20180806D01*
X51785381Y-20156080D01*
X51785380Y-20156079D01*
X51785380Y-20156075D01*
X51763380Y-20045472D01*
X51725508Y-19954040D01*
X51710577Y-19917992D01*
X51633912Y-19803254D01*
X51633911Y-19803253D01*
X51185700Y-19355043D01*
X51152215Y-19293720D01*
X51149384Y-19266525D01*
X51149446Y-19257194D01*
X51150500Y-19250546D01*
X51150500Y-19105131D01*
X60849500Y-19105131D01*
X60849500Y-20894856D01*
X60849502Y-20894882D01*
X60852413Y-20919987D01*
X60852415Y-20919991D01*
X60897793Y-21022764D01*
X60897794Y-21022765D01*
X60977235Y-21102206D01*
X61080009Y-21147585D01*
X61105135Y-21150500D01*
X61842873Y-21150499D01*
X61909910Y-21170183D01*
X61955665Y-21222987D01*
X61965609Y-21292146D01*
X61936584Y-21355702D01*
X61877806Y-21393476D01*
X61862270Y-21396972D01*
X61730589Y-21417829D01*
X61558363Y-21473787D01*
X61558360Y-21473788D01*
X61397002Y-21556006D01*
X61250505Y-21662441D01*
X61250500Y-21662445D01*
X61122445Y-21790500D01*
X61122441Y-21790505D01*
X61016006Y-21937002D01*
X60933788Y-22098360D01*
X60933787Y-22098363D01*
X60877829Y-22270589D01*
X60849500Y-22449448D01*
X60849500Y-22630551D01*
X60877829Y-22809410D01*
X60933787Y-22981636D01*
X60933788Y-22981639D01*
X61016006Y-23142997D01*
X61122441Y-23289494D01*
X61122445Y-23289499D01*
X61250500Y-23417554D01*
X61250505Y-23417558D01*
X61318323Y-23466830D01*
X61397006Y-23523996D01*
X61502484Y-23577740D01*
X61558360Y-23606211D01*
X61558363Y-23606212D01*
X61638059Y-23632106D01*
X61730591Y-23662171D01*
X61803639Y-23673740D01*
X61890678Y-23687527D01*
X61953813Y-23717456D01*
X61990744Y-23776768D01*
X61989746Y-23846631D01*
X61951136Y-23904863D01*
X61890678Y-23932473D01*
X61730589Y-23957829D01*
X61558363Y-24013787D01*
X61558360Y-24013788D01*
X61397002Y-24096006D01*
X61250505Y-24202441D01*
X61250500Y-24202445D01*
X61122445Y-24330500D01*
X61122441Y-24330505D01*
X61016006Y-24477002D01*
X60933788Y-24638360D01*
X60933787Y-24638363D01*
X60877829Y-24810589D01*
X60849500Y-24989448D01*
X60849500Y-25170551D01*
X60877829Y-25349410D01*
X60933787Y-25521636D01*
X60933788Y-25521639D01*
X60981757Y-25615781D01*
X61009714Y-25670650D01*
X61016006Y-25682997D01*
X61122441Y-25829494D01*
X61122445Y-25829499D01*
X61250500Y-25957554D01*
X61250505Y-25957558D01*
X61378287Y-26050396D01*
X61397006Y-26063996D01*
X61502484Y-26117740D01*
X61558360Y-26146211D01*
X61558363Y-26146212D01*
X61623095Y-26167244D01*
X61730591Y-26202171D01*
X61813429Y-26215291D01*
X61909449Y-26230500D01*
X61909454Y-26230500D01*
X62090551Y-26230500D01*
X62177259Y-26216765D01*
X62269409Y-26202171D01*
X62441639Y-26146211D01*
X62602994Y-26063996D01*
X62749501Y-25957553D01*
X62877553Y-25829501D01*
X62983996Y-25682994D01*
X63066211Y-25521639D01*
X63122171Y-25349409D01*
X63136765Y-25257259D01*
X63150500Y-25170551D01*
X63150500Y-24989448D01*
X63130514Y-24863270D01*
X63122171Y-24810591D01*
X63094191Y-24724476D01*
X63066212Y-24638363D01*
X63066211Y-24638360D01*
X63037740Y-24582484D01*
X62983996Y-24477006D01*
X62970396Y-24458287D01*
X62877558Y-24330505D01*
X62877554Y-24330500D01*
X62749499Y-24202445D01*
X62749494Y-24202441D01*
X62602997Y-24096006D01*
X62602996Y-24096005D01*
X62602994Y-24096004D01*
X62511757Y-24049516D01*
X62441639Y-24013788D01*
X62441636Y-24013787D01*
X62269410Y-23957829D01*
X62109321Y-23932473D01*
X62046186Y-23902544D01*
X62009255Y-23843232D01*
X62010253Y-23773370D01*
X62048863Y-23715137D01*
X62109321Y-23687527D01*
X62179425Y-23676422D01*
X62269409Y-23662171D01*
X62441639Y-23606211D01*
X62602994Y-23523996D01*
X62749501Y-23417553D01*
X62877553Y-23289501D01*
X62983996Y-23142994D01*
X63066211Y-22981639D01*
X63122171Y-22809409D01*
X63141352Y-22688305D01*
X63150500Y-22630551D01*
X63150500Y-22449448D01*
X63127491Y-22304182D01*
X63122171Y-22270591D01*
X63066211Y-22098361D01*
X63066211Y-22098360D01*
X63022432Y-22012441D01*
X62983996Y-21937006D01*
X62949395Y-21889381D01*
X62877558Y-21790505D01*
X62877554Y-21790500D01*
X62749499Y-21662445D01*
X62749494Y-21662441D01*
X62602997Y-21556006D01*
X62602996Y-21556005D01*
X62602994Y-21556004D01*
X62546966Y-21527456D01*
X62441639Y-21473788D01*
X62441636Y-21473787D01*
X62269410Y-21417829D01*
X62137728Y-21396972D01*
X62074594Y-21367042D01*
X62037663Y-21307731D01*
X62038661Y-21237868D01*
X62077271Y-21179636D01*
X62141235Y-21151522D01*
X62157120Y-21150499D01*
X62894864Y-21150499D01*
X62894879Y-21150497D01*
X62894882Y-21150497D01*
X62919987Y-21147586D01*
X62919988Y-21147585D01*
X62919991Y-21147585D01*
X63022765Y-21102206D01*
X63102206Y-21022765D01*
X63147585Y-20919991D01*
X63150500Y-20894865D01*
X63150499Y-19105136D01*
X63150038Y-19101161D01*
X63147586Y-19080012D01*
X63147585Y-19080010D01*
X63147585Y-19080009D01*
X63102206Y-18977235D01*
X63022765Y-18897794D01*
X63006447Y-18890589D01*
X62919992Y-18852415D01*
X62894865Y-18849500D01*
X61105143Y-18849500D01*
X61105117Y-18849502D01*
X61080012Y-18852413D01*
X61080008Y-18852415D01*
X60977235Y-18897793D01*
X60897794Y-18977234D01*
X60852415Y-19080006D01*
X60852415Y-19080008D01*
X60849500Y-19105131D01*
X51150500Y-19105131D01*
X51150500Y-19069454D01*
X51150500Y-19069448D01*
X51132773Y-18957527D01*
X51122171Y-18890591D01*
X51066211Y-18718361D01*
X51066211Y-18718360D01*
X51037740Y-18662484D01*
X50983996Y-18557006D01*
X50970396Y-18538287D01*
X50877558Y-18410505D01*
X50877554Y-18410500D01*
X50749499Y-18282445D01*
X50749494Y-18282441D01*
X50602997Y-18176006D01*
X50602996Y-18176005D01*
X50602994Y-18176004D01*
X50551300Y-18149664D01*
X50441639Y-18093788D01*
X50441636Y-18093787D01*
X50269410Y-18037829D01*
X50109321Y-18012473D01*
X50046186Y-17982544D01*
X50009255Y-17923232D01*
X50010253Y-17853370D01*
X50048863Y-17795137D01*
X50109321Y-17767527D01*
X50179425Y-17756422D01*
X50269409Y-17742171D01*
X50441639Y-17686211D01*
X50602994Y-17603996D01*
X50749501Y-17497553D01*
X50877553Y-17369501D01*
X50983996Y-17222994D01*
X51066211Y-17061639D01*
X51122171Y-16889409D01*
X51136765Y-16797259D01*
X51150500Y-16710551D01*
X51150500Y-16529448D01*
X51132630Y-16416625D01*
X51122171Y-16350591D01*
X51066211Y-16178361D01*
X51066211Y-16178360D01*
X51025532Y-16098525D01*
X50983996Y-16017006D01*
X50970396Y-15998287D01*
X50877558Y-15870505D01*
X50877554Y-15870500D01*
X50749499Y-15742445D01*
X50749494Y-15742441D01*
X50602997Y-15636006D01*
X50602996Y-15636005D01*
X50602994Y-15636004D01*
X50551300Y-15609664D01*
X50441639Y-15553788D01*
X50441636Y-15553787D01*
X50269410Y-15497829D01*
X50109321Y-15472473D01*
X50046186Y-15442544D01*
X50009255Y-15383232D01*
X50010253Y-15313370D01*
X50048863Y-15255137D01*
X50109321Y-15227527D01*
X50179425Y-15216422D01*
X50269409Y-15202171D01*
X50441639Y-15146211D01*
X50602994Y-15063996D01*
X50749501Y-14957553D01*
X50877553Y-14829501D01*
X50983996Y-14682994D01*
X51066211Y-14521639D01*
X51122171Y-14349409D01*
X51145235Y-14203788D01*
X51150500Y-14170551D01*
X51150500Y-13989448D01*
X51132773Y-13877527D01*
X51122171Y-13810591D01*
X51090785Y-13713993D01*
X51066212Y-13638363D01*
X51066211Y-13638360D01*
X51037740Y-13582484D01*
X50983996Y-13477006D01*
X50970396Y-13458287D01*
X50877558Y-13330505D01*
X50877554Y-13330500D01*
X50749499Y-13202445D01*
X50749494Y-13202441D01*
X50602997Y-13096006D01*
X50602996Y-13096005D01*
X50602994Y-13096004D01*
X50551300Y-13069664D01*
X50441639Y-13013788D01*
X50441636Y-13013787D01*
X50269410Y-12957829D01*
X50109321Y-12932473D01*
X50046186Y-12902544D01*
X50009255Y-12843232D01*
X50010253Y-12773370D01*
X50048863Y-12715137D01*
X50109321Y-12687527D01*
X50179425Y-12676422D01*
X50269409Y-12662171D01*
X50441639Y-12606211D01*
X50602994Y-12523996D01*
X50749501Y-12417553D01*
X50877553Y-12289501D01*
X50983996Y-12142994D01*
X51066211Y-11981639D01*
X51122171Y-11809409D01*
X51145235Y-11663788D01*
X51150500Y-11630551D01*
X51150500Y-11449448D01*
X51132773Y-11337527D01*
X51122171Y-11270591D01*
X51066211Y-11098361D01*
X51066211Y-11098360D01*
X51037740Y-11042484D01*
X50983996Y-10937006D01*
X50970396Y-10918287D01*
X50877558Y-10790505D01*
X50877554Y-10790500D01*
X50749499Y-10662445D01*
X50749494Y-10662441D01*
X50602997Y-10556006D01*
X50602996Y-10556005D01*
X50602994Y-10556004D01*
X50551300Y-10529664D01*
X50441639Y-10473788D01*
X50441636Y-10473787D01*
X50269410Y-10417829D01*
X50137733Y-10396973D01*
X50074598Y-10367044D01*
X50037667Y-10307732D01*
X50038665Y-10237869D01*
X50077275Y-10179637D01*
X50141239Y-10151523D01*
X50157131Y-10150500D01*
X50643097Y-10150500D01*
X50643102Y-10150500D01*
X50731564Y-10139877D01*
X50872342Y-10084361D01*
X50992922Y-9992922D01*
X51084361Y-9872342D01*
X51139877Y-9731564D01*
X51150500Y-9643102D01*
X51150500Y-8356898D01*
X51139877Y-8268436D01*
X51084361Y-8127658D01*
X51084360Y-8127657D01*
X51084360Y-8127656D01*
X50992922Y-8007077D01*
X50872343Y-7915639D01*
X50731561Y-7860122D01*
X50685926Y-7854642D01*
X50643102Y-7849500D01*
X49356898Y-7849500D01*
X49317853Y-7854188D01*
X49268438Y-7860122D01*
X49127656Y-7915639D01*
X49007077Y-8007077D01*
X48915639Y-8127656D01*
X48860122Y-8268438D01*
X48854188Y-8317853D01*
X48849500Y-8356898D01*
X48849500Y-9643102D01*
X48855126Y-9689954D01*
X48860122Y-9731561D01*
X48915639Y-9872343D01*
X49007077Y-9992922D01*
X49127656Y-10084360D01*
X49127657Y-10084360D01*
X49127658Y-10084361D01*
X49268436Y-10139877D01*
X49356898Y-10150500D01*
X49356903Y-10150500D01*
X49842869Y-10150500D01*
X49909908Y-10170185D01*
X49955663Y-10222989D01*
X49965607Y-10292147D01*
X49936582Y-10355703D01*
X49877804Y-10393477D01*
X49862267Y-10396973D01*
X49730589Y-10417829D01*
X49558363Y-10473787D01*
X49558360Y-10473788D01*
X49397002Y-10556006D01*
X49250505Y-10662441D01*
X49250500Y-10662445D01*
X49122445Y-10790500D01*
X49122441Y-10790505D01*
X49016006Y-10937002D01*
X48933788Y-11098360D01*
X48933787Y-11098363D01*
X48877829Y-11270589D01*
X48849500Y-11449448D01*
X48849500Y-11630551D01*
X48878095Y-11811091D01*
X48869141Y-11880384D01*
X48843303Y-11918170D01*
X44610391Y-16151083D01*
X44610389Y-16151086D01*
X44555650Y-16245899D01*
X44555649Y-16245901D01*
X44537916Y-16276615D01*
X44500400Y-16416625D01*
X44500400Y-16416627D01*
X44500400Y-22866813D01*
X44480715Y-22933852D01*
X44427911Y-22979607D01*
X44358753Y-22989551D01*
X44295197Y-22960526D01*
X44288719Y-22954494D01*
X40160916Y-18826691D01*
X40160915Y-18826690D01*
X40035385Y-18754216D01*
X40035386Y-18754216D01*
X40000382Y-18744837D01*
X39895375Y-18716700D01*
X39895372Y-18716700D01*
X37900263Y-18716700D01*
X37861720Y-18709034D01*
X37861535Y-18709727D01*
X37853685Y-18707623D01*
X37853684Y-18707623D01*
X37700957Y-18666700D01*
X37542843Y-18666700D01*
X37390116Y-18707623D01*
X37390109Y-18707626D01*
X37253190Y-18786675D01*
X37253182Y-18786681D01*
X37141381Y-18898482D01*
X37141375Y-18898490D01*
X37062326Y-19035409D01*
X37062323Y-19035416D01*
X37021400Y-19188143D01*
X37021400Y-19346257D01*
X37055213Y-19472447D01*
X37062323Y-19498983D01*
X37062323Y-19498984D01*
X37138831Y-19631501D01*
X37155303Y-19699401D01*
X37138831Y-19755499D01*
X37083223Y-19851815D01*
X37083223Y-19851816D01*
X37042300Y-20004543D01*
X37042300Y-20162657D01*
X37081915Y-20310500D01*
X37083223Y-20315383D01*
X37083223Y-20315384D01*
X37163198Y-20453906D01*
X37179670Y-20521806D01*
X37156817Y-20587833D01*
X37101895Y-20631023D01*
X37032342Y-20637664D01*
X36993811Y-20623293D01*
X36891482Y-20564214D01*
X36891139Y-20564122D01*
X36891139Y-20564123D01*
X36800950Y-20539957D01*
X36751475Y-20526700D01*
X36751474Y-20526700D01*
X36434563Y-20526700D01*
X36396020Y-20519034D01*
X36395835Y-20519727D01*
X36387985Y-20517623D01*
X36387984Y-20517623D01*
X36235257Y-20476700D01*
X36077143Y-20476700D01*
X35924416Y-20517623D01*
X35924409Y-20517626D01*
X35787490Y-20596675D01*
X35787482Y-20596681D01*
X35675681Y-20708482D01*
X35675675Y-20708490D01*
X35596626Y-20845409D01*
X35596623Y-20845416D01*
X35555700Y-20998143D01*
X35555700Y-21047813D01*
X35536015Y-21114852D01*
X35483211Y-21160607D01*
X35414053Y-21170551D01*
X35350497Y-21141526D01*
X35344019Y-21135494D01*
X26784408Y-12575883D01*
X26750923Y-12514560D01*
X26749622Y-12507639D01*
X26742171Y-12460591D01*
X26712307Y-12368679D01*
X26686212Y-12288363D01*
X26686211Y-12288360D01*
X26657740Y-12232484D01*
X26603996Y-12127006D01*
X26590396Y-12108287D01*
X26497558Y-11980505D01*
X26497554Y-11980500D01*
X26369499Y-11852445D01*
X26369494Y-11852441D01*
X26222997Y-11746006D01*
X26222996Y-11746005D01*
X26222994Y-11746004D01*
X26171300Y-11719664D01*
X26061639Y-11663788D01*
X26061636Y-11663787D01*
X25889410Y-11607829D01*
X25729321Y-11582473D01*
X25666186Y-11552544D01*
X25629255Y-11493232D01*
X25630253Y-11423370D01*
X25668863Y-11365137D01*
X25729321Y-11337527D01*
X25799425Y-11326422D01*
X25889409Y-11312171D01*
X26061639Y-11256211D01*
X26222994Y-11173996D01*
X26369501Y-11067553D01*
X26497553Y-10939501D01*
X26603996Y-10792994D01*
X26686211Y-10631639D01*
X26742171Y-10459409D01*
X26758596Y-10355703D01*
X26770500Y-10280551D01*
X26770500Y-10099448D01*
X26753627Y-9992922D01*
X26742171Y-9920591D01*
X26686211Y-9748361D01*
X26686211Y-9748360D01*
X26657740Y-9692484D01*
X26603996Y-9587006D01*
X26590396Y-9568287D01*
X26497558Y-9440505D01*
X26497554Y-9440500D01*
X26369499Y-9312445D01*
X26369494Y-9312441D01*
X26222995Y-9206004D01*
X26091314Y-9138908D01*
X26040519Y-9090934D01*
X26023724Y-9023113D01*
X26046262Y-8956978D01*
X26100977Y-8913527D01*
X26109295Y-8910492D01*
X26138217Y-8901095D01*
X26327554Y-8804622D01*
X26381716Y-8765270D01*
X26381717Y-8765270D01*
X25749408Y-8132962D01*
X25812993Y-8115925D01*
X25927007Y-8050099D01*
X26020099Y-7957007D01*
X26085925Y-7842993D01*
X26102962Y-7779409D01*
X26735270Y-8411717D01*
X26735270Y-8411716D01*
X26774622Y-8357554D01*
X26871095Y-8168217D01*
X26936757Y-7966130D01*
X26936757Y-7966127D01*
X26970000Y-7756246D01*
X26970000Y-7543753D01*
X26936757Y-7333872D01*
X26936757Y-7333869D01*
X26871095Y-7131782D01*
X26774624Y-6942449D01*
X26735270Y-6888282D01*
X26735269Y-6888282D01*
X26102962Y-7520590D01*
X26085925Y-7457007D01*
X26020099Y-7342993D01*
X25927007Y-7249901D01*
X25812993Y-7184075D01*
X25749409Y-7167037D01*
X26381716Y-6534728D01*
X26327550Y-6495375D01*
X26326786Y-6494986D01*
X26326546Y-6494759D01*
X26323396Y-6492829D01*
X26323801Y-6492167D01*
X26275988Y-6447013D01*
X26259191Y-6379192D01*
X26281726Y-6313057D01*
X26336440Y-6269604D01*
X26383076Y-6260499D01*
X26514864Y-6260499D01*
X26514879Y-6260497D01*
X26514882Y-6260497D01*
X26539987Y-6257586D01*
X26539988Y-6257585D01*
X26539991Y-6257585D01*
X26642765Y-6212206D01*
X26722206Y-6132765D01*
X26767585Y-6029991D01*
X26770500Y-6004865D01*
X26770499Y-4215136D01*
X26770497Y-4215117D01*
X26767586Y-4190012D01*
X26767585Y-4190010D01*
X26767585Y-4190009D01*
X26722206Y-4087235D01*
X26642765Y-4007794D01*
X26598133Y-3988087D01*
X26598131Y-3988086D01*
X26539995Y-3962416D01*
X26539991Y-3962415D01*
X26514865Y-3959500D01*
X24725143Y-3959500D01*
X24725117Y-3959502D01*
X24700012Y-3962413D01*
X24700008Y-3962415D01*
X24597235Y-4007793D01*
X24517794Y-4087234D01*
X24472415Y-4190006D01*
X24472415Y-4190008D01*
X24469500Y-4215131D01*
X24469500Y-6004856D01*
X24469502Y-6004882D01*
X24472413Y-6029987D01*
X24472415Y-6029991D01*
X24517793Y-6132764D01*
X24517794Y-6132765D01*
X24597235Y-6212206D01*
X24700009Y-6257585D01*
X24725135Y-6260500D01*
X24856923Y-6260499D01*
X24923960Y-6280183D01*
X24969715Y-6332987D01*
X24979659Y-6402145D01*
X24950635Y-6465701D01*
X24916387Y-6492507D01*
X24916590Y-6492838D01*
X24913715Y-6494599D01*
X24913239Y-6494972D01*
X24912451Y-6495373D01*
X24912440Y-6495380D01*
X24858282Y-6534727D01*
X24858282Y-6534728D01*
X25490591Y-7167037D01*
X25427007Y-7184075D01*
X25312993Y-7249901D01*
X25219901Y-7342993D01*
X25154075Y-7457007D01*
X25137037Y-7520591D01*
X24504728Y-6888282D01*
X24504727Y-6888282D01*
X24465380Y-6942439D01*
X24368904Y-7131782D01*
X24303242Y-7333869D01*
X24303242Y-7333872D01*
X24270000Y-7543753D01*
X24270000Y-7756246D01*
X24303242Y-7966127D01*
X24303242Y-7966130D01*
X24368904Y-8168217D01*
X24465375Y-8357550D01*
X24504728Y-8411716D01*
X25137037Y-7779408D01*
X25154075Y-7842993D01*
X25219901Y-7957007D01*
X25312993Y-8050099D01*
X25427007Y-8115925D01*
X25490590Y-8132962D01*
X24858282Y-8765269D01*
X24858282Y-8765270D01*
X24912449Y-8804624D01*
X25101780Y-8901094D01*
X25130705Y-8910492D01*
X25188381Y-8949929D01*
X25215580Y-9014287D01*
X25203667Y-9083134D01*
X25156424Y-9134610D01*
X25148685Y-9138908D01*
X25017004Y-9206004D01*
X24870505Y-9312441D01*
X24870500Y-9312445D01*
X24742445Y-9440500D01*
X24742441Y-9440505D01*
X24636006Y-9587002D01*
X24553788Y-9748360D01*
X24553787Y-9748363D01*
X24497829Y-9920589D01*
X24469500Y-10099448D01*
X24469500Y-10280551D01*
X24497829Y-10459410D01*
X24553787Y-10631636D01*
X24553788Y-10631639D01*
X24609664Y-10741300D01*
X24634733Y-10790500D01*
X24636006Y-10792997D01*
X24742441Y-10939494D01*
X24742445Y-10939499D01*
X24870500Y-11067554D01*
X24870505Y-11067558D01*
X24998287Y-11160396D01*
X25017006Y-11173996D01*
X25122484Y-11227740D01*
X25178360Y-11256211D01*
X25178363Y-11256212D01*
X25264476Y-11284191D01*
X25350591Y-11312171D01*
X25423639Y-11323740D01*
X25510678Y-11337527D01*
X25573813Y-11367456D01*
X25610744Y-11426768D01*
X25609746Y-11496631D01*
X25571136Y-11554863D01*
X25510678Y-11582473D01*
X25350589Y-11607829D01*
X25178363Y-11663787D01*
X25178360Y-11663788D01*
X25017002Y-11746006D01*
X24870505Y-11852441D01*
X24870500Y-11852445D01*
X24742445Y-11980500D01*
X24742441Y-11980505D01*
X24636006Y-12127002D01*
X24553788Y-12288360D01*
X24553787Y-12288363D01*
X24497829Y-12460589D01*
X24469500Y-12639448D01*
X24469500Y-12820551D01*
X24497829Y-12999410D01*
X24553787Y-13171636D01*
X24553788Y-13171639D01*
X24609664Y-13281300D01*
X24634733Y-13330500D01*
X24636006Y-13332997D01*
X24742441Y-13479494D01*
X24742445Y-13479499D01*
X24870500Y-13607554D01*
X24870505Y-13607558D01*
X24987853Y-13692815D01*
X25017006Y-13713996D01*
X25122484Y-13767740D01*
X25178360Y-13796211D01*
X25178363Y-13796212D01*
X25264476Y-13824191D01*
X25350591Y-13852171D01*
X25423639Y-13863740D01*
X25510678Y-13877527D01*
X25573813Y-13907456D01*
X25610744Y-13966768D01*
X25609746Y-14036631D01*
X25571136Y-14094863D01*
X25510678Y-14122473D01*
X25350589Y-14147829D01*
X25178363Y-14203787D01*
X25178360Y-14203788D01*
X25017002Y-14286006D01*
X24870505Y-14392441D01*
X24870500Y-14392445D01*
X24742445Y-14520500D01*
X24742441Y-14520505D01*
X24636006Y-14667002D01*
X24553788Y-14828360D01*
X24553787Y-14828363D01*
X24497829Y-15000589D01*
X24469500Y-15179448D01*
X24469500Y-15360551D01*
X24497829Y-15539410D01*
X24553787Y-15711636D01*
X24553788Y-15711639D01*
X24609664Y-15821300D01*
X24634733Y-15870500D01*
X24636006Y-15872997D01*
X24742441Y-16019494D01*
X24742445Y-16019499D01*
X24870500Y-16147554D01*
X24870505Y-16147558D01*
X24996501Y-16239098D01*
X25017006Y-16253996D01*
X25122484Y-16307740D01*
X25178360Y-16336211D01*
X25178363Y-16336212D01*
X25264476Y-16364191D01*
X25350591Y-16392171D01*
X25423639Y-16403740D01*
X25510678Y-16417527D01*
X25573813Y-16447456D01*
X25610744Y-16506768D01*
X25609746Y-16576631D01*
X25571136Y-16634863D01*
X25510678Y-16662473D01*
X25350589Y-16687829D01*
X25178363Y-16743787D01*
X25178360Y-16743788D01*
X25017002Y-16826006D01*
X24870505Y-16932441D01*
X24870500Y-16932445D01*
X24742445Y-17060500D01*
X24742441Y-17060505D01*
X24636006Y-17207002D01*
X24553788Y-17368360D01*
X24553787Y-17368363D01*
X24497829Y-17540589D01*
X24469500Y-17719448D01*
X24469500Y-17900551D01*
X24497829Y-18079410D01*
X24553787Y-18251636D01*
X24553788Y-18251639D01*
X24578810Y-18300746D01*
X24634733Y-18410500D01*
X24636006Y-18412997D01*
X24742441Y-18559494D01*
X24742445Y-18559499D01*
X24870500Y-18687554D01*
X24870505Y-18687558D01*
X24962253Y-18754216D01*
X25017006Y-18793996D01*
X25122484Y-18847740D01*
X25178360Y-18876211D01*
X25178363Y-18876212D01*
X25246905Y-18898482D01*
X25350591Y-18932171D01*
X25423639Y-18943740D01*
X25510678Y-18957527D01*
X25573813Y-18987456D01*
X25610744Y-19046768D01*
X25609746Y-19116631D01*
X25571136Y-19174863D01*
X25510678Y-19202473D01*
X25350589Y-19227829D01*
X25178363Y-19283787D01*
X25178360Y-19283788D01*
X25017002Y-19366006D01*
X24870505Y-19472441D01*
X24870500Y-19472445D01*
X24742445Y-19600500D01*
X24742441Y-19600505D01*
X24636006Y-19747002D01*
X24553788Y-19908360D01*
X24553787Y-19908363D01*
X24497829Y-20080589D01*
X24469500Y-20259448D01*
X24469500Y-20440551D01*
X24497829Y-20619410D01*
X24553787Y-20791636D01*
X24553788Y-20791639D01*
X24636006Y-20952997D01*
X24742441Y-21099494D01*
X24742445Y-21099499D01*
X24870500Y-21227554D01*
X24870505Y-21227558D01*
X24884696Y-21237868D01*
X25017006Y-21333996D01*
X25122484Y-21387740D01*
X25178360Y-21416211D01*
X25178363Y-21416212D01*
X25264476Y-21444191D01*
X25350591Y-21472171D01*
X25423639Y-21483740D01*
X25510678Y-21497527D01*
X25573813Y-21527456D01*
X25610744Y-21586768D01*
X25609746Y-21656631D01*
X25571136Y-21714863D01*
X25510678Y-21742473D01*
X25350589Y-21767829D01*
X25178363Y-21823787D01*
X25178360Y-21823788D01*
X25017002Y-21906006D01*
X24870505Y-22012441D01*
X24870500Y-22012445D01*
X24742445Y-22140500D01*
X24742441Y-22140505D01*
X24636006Y-22287002D01*
X24553788Y-22448360D01*
X24553787Y-22448363D01*
X24497829Y-22620589D01*
X24469500Y-22799448D01*
X24469500Y-22980551D01*
X24497829Y-23159410D01*
X24553787Y-23331636D01*
X24553788Y-23331639D01*
X24609664Y-23441300D01*
X24633790Y-23488649D01*
X24636006Y-23492997D01*
X24742441Y-23639494D01*
X24742445Y-23639499D01*
X24870500Y-23767554D01*
X24870505Y-23767558D01*
X24878505Y-23773370D01*
X25017006Y-23873996D01*
X25077586Y-23904863D01*
X25178360Y-23956211D01*
X25178363Y-23956212D01*
X25264476Y-23984191D01*
X25350591Y-24012171D01*
X25433429Y-24025291D01*
X25529449Y-24040500D01*
X25529454Y-24040500D01*
X25710551Y-24040500D01*
X25797259Y-24026765D01*
X25889409Y-24012171D01*
X26061639Y-23956211D01*
X26222994Y-23873996D01*
X26369501Y-23767553D01*
X26497553Y-23639501D01*
X26603996Y-23492994D01*
X26686211Y-23331639D01*
X26742171Y-23159409D01*
X26769074Y-22989551D01*
X26770500Y-22980551D01*
X26770500Y-22799448D01*
X26747859Y-22656503D01*
X26742171Y-22620591D01*
X26686566Y-22449454D01*
X26686212Y-22448363D01*
X26686211Y-22448360D01*
X26657740Y-22392484D01*
X26603996Y-22287006D01*
X26590396Y-22268287D01*
X26497558Y-22140505D01*
X26497554Y-22140500D01*
X26369499Y-22012445D01*
X26369494Y-22012441D01*
X26222997Y-21906006D01*
X26222996Y-21906005D01*
X26222994Y-21906004D01*
X26171300Y-21879664D01*
X26061639Y-21823788D01*
X26061636Y-21823787D01*
X25889410Y-21767829D01*
X25729321Y-21742473D01*
X25666186Y-21712544D01*
X25629255Y-21653232D01*
X25630253Y-21583370D01*
X25668863Y-21525137D01*
X25729321Y-21497527D01*
X25799425Y-21486422D01*
X25889409Y-21472171D01*
X26061639Y-21416211D01*
X26222994Y-21333996D01*
X26369501Y-21227553D01*
X26497553Y-21099501D01*
X26603996Y-20952994D01*
X26686211Y-20791639D01*
X26742171Y-20619409D01*
X26764774Y-20476700D01*
X26770500Y-20440551D01*
X26770500Y-20259448D01*
X26751522Y-20139634D01*
X26742171Y-20080591D01*
X26701053Y-19954040D01*
X26686212Y-19908363D01*
X26686211Y-19908360D01*
X26608323Y-19755499D01*
X26603996Y-19747006D01*
X26523285Y-19635916D01*
X26497558Y-19600505D01*
X26497554Y-19600500D01*
X26369499Y-19472445D01*
X26369494Y-19472441D01*
X26222997Y-19366006D01*
X26222996Y-19366005D01*
X26222994Y-19366004D01*
X26171300Y-19339664D01*
X26061639Y-19283788D01*
X26061636Y-19283787D01*
X25889410Y-19227829D01*
X25729321Y-19202473D01*
X25666186Y-19172544D01*
X25629255Y-19113232D01*
X25630253Y-19043370D01*
X25668863Y-18985137D01*
X25729321Y-18957527D01*
X25799425Y-18946422D01*
X25889409Y-18932171D01*
X26061639Y-18876211D01*
X26222994Y-18793996D01*
X26369501Y-18687553D01*
X26497553Y-18559501D01*
X26603996Y-18412994D01*
X26686211Y-18251639D01*
X26742171Y-18079409D01*
X26766907Y-17923232D01*
X26770500Y-17900551D01*
X26770500Y-17719448D01*
X26742171Y-17540590D01*
X26723745Y-17483881D01*
X26721750Y-17414040D01*
X26757830Y-17354207D01*
X26820531Y-17323379D01*
X26889945Y-17331344D01*
X26929357Y-17357882D01*
X32693281Y-23121806D01*
X32726766Y-23183129D01*
X32729600Y-23209487D01*
X32729600Y-25436575D01*
X32761381Y-25555182D01*
X32761382Y-25555184D01*
X32761382Y-25555185D01*
X32767115Y-25576583D01*
X32821424Y-25670650D01*
X32837896Y-25738550D01*
X32815043Y-25804577D01*
X32760121Y-25847767D01*
X32690568Y-25854408D01*
X32628466Y-25822391D01*
X32626355Y-25820330D01*
X32537495Y-25731470D01*
X32527755Y-25716893D01*
X32521038Y-25711104D01*
X32518765Y-25703439D01*
X32515662Y-25698795D01*
X32515041Y-25699154D01*
X32431924Y-25555190D01*
X32431921Y-25555186D01*
X32431920Y-25555184D01*
X32320116Y-25443380D01*
X32320114Y-25443379D01*
X32320109Y-25443375D01*
X32183190Y-25364326D01*
X32183186Y-25364324D01*
X32183184Y-25364323D01*
X32030457Y-25323400D01*
X31872343Y-25323400D01*
X31719616Y-25364323D01*
X31719609Y-25364326D01*
X31582690Y-25443375D01*
X31582682Y-25443381D01*
X31470881Y-25555182D01*
X31470875Y-25555190D01*
X31391826Y-25692109D01*
X31391823Y-25692116D01*
X31350900Y-25844843D01*
X31350900Y-26002957D01*
X31371427Y-26079563D01*
X31391823Y-26155683D01*
X31391826Y-26155690D01*
X31470875Y-26292609D01*
X31470879Y-26292614D01*
X31470880Y-26292616D01*
X31582684Y-26404420D01*
X31582686Y-26404421D01*
X31582690Y-26404424D01*
X31726654Y-26487541D01*
X31726295Y-26488162D01*
X31758970Y-26509995D01*
X33361894Y-28112919D01*
X33395379Y-28174242D01*
X33390395Y-28243934D01*
X33348523Y-28299867D01*
X33283059Y-28324284D01*
X33274213Y-28324600D01*
X28624000Y-28324600D01*
X28556961Y-28304915D01*
X28511206Y-28252111D01*
X28500000Y-28200600D01*
X28500000Y-24490000D01*
X17889887Y-24490000D01*
X17822848Y-24470315D01*
X17802206Y-24453681D01*
X11536696Y-18188171D01*
X11503211Y-18126848D01*
X11501904Y-18081091D01*
X11502169Y-18079412D01*
X11502171Y-18079409D01*
X11526907Y-17923232D01*
X11530500Y-17900550D01*
X11530500Y-17719448D01*
X11512213Y-17603993D01*
X11502171Y-17540591D01*
X11471986Y-17447691D01*
X11446212Y-17368363D01*
X11446211Y-17368360D01*
X11417740Y-17312484D01*
X11363996Y-17207006D01*
X11350396Y-17188287D01*
X11257558Y-17060505D01*
X11257554Y-17060500D01*
X11129499Y-16932445D01*
X11129494Y-16932441D01*
X10982997Y-16826006D01*
X10982996Y-16826005D01*
X10982994Y-16826004D01*
X10931300Y-16799664D01*
X10821639Y-16743788D01*
X10821636Y-16743787D01*
X10649410Y-16687829D01*
X10489321Y-16662473D01*
X10426186Y-16632544D01*
X10389255Y-16573232D01*
X10390253Y-16503370D01*
X10428863Y-16445137D01*
X10489321Y-16417527D01*
X10559425Y-16406422D01*
X10649409Y-16392171D01*
X10821639Y-16336211D01*
X10982994Y-16253996D01*
X11129501Y-16147553D01*
X11257553Y-16019501D01*
X11363996Y-15872994D01*
X11446211Y-15711639D01*
X11502171Y-15539409D01*
X11526907Y-15383232D01*
X11530500Y-15360551D01*
X11530500Y-15179448D01*
X11512213Y-15063993D01*
X11502171Y-15000591D01*
X11474191Y-14914476D01*
X11446212Y-14828363D01*
X11446211Y-14828360D01*
X11417740Y-14772484D01*
X11363996Y-14667006D01*
X11350396Y-14648287D01*
X11257558Y-14520505D01*
X11257554Y-14520500D01*
X11129499Y-14392445D01*
X11129494Y-14392441D01*
X10982997Y-14286006D01*
X10982996Y-14286005D01*
X10982994Y-14286004D01*
X10931300Y-14259664D01*
X10821639Y-14203788D01*
X10821636Y-14203787D01*
X10649410Y-14147829D01*
X10489321Y-14122473D01*
X10426186Y-14092544D01*
X10389255Y-14033232D01*
X10390253Y-13963370D01*
X10428863Y-13905137D01*
X10489321Y-13877527D01*
X10559425Y-13866422D01*
X10649409Y-13852171D01*
X10821639Y-13796211D01*
X10982994Y-13713996D01*
X11129501Y-13607553D01*
X11257553Y-13479501D01*
X11363996Y-13332994D01*
X11446211Y-13171639D01*
X11502171Y-12999409D01*
X11526907Y-12843232D01*
X11530500Y-12820551D01*
X11530500Y-12639448D01*
X11509616Y-12507599D01*
X11502171Y-12460591D01*
X11474191Y-12374476D01*
X11446212Y-12288363D01*
X11446211Y-12288360D01*
X11417740Y-12232484D01*
X11363996Y-12127006D01*
X11350396Y-12108287D01*
X11257558Y-11980505D01*
X11257554Y-11980500D01*
X11129499Y-11852445D01*
X11129494Y-11852441D01*
X10982997Y-11746006D01*
X10982996Y-11746005D01*
X10982994Y-11746004D01*
X10931300Y-11719664D01*
X10821639Y-11663788D01*
X10821636Y-11663787D01*
X10649410Y-11607829D01*
X10489321Y-11582473D01*
X10426186Y-11552544D01*
X10389255Y-11493232D01*
X10390253Y-11423370D01*
X10428863Y-11365137D01*
X10489321Y-11337527D01*
X10559425Y-11326422D01*
X10649409Y-11312171D01*
X10821639Y-11256211D01*
X10982994Y-11173996D01*
X11129501Y-11067553D01*
X11257553Y-10939501D01*
X11363996Y-10792994D01*
X11446211Y-10631639D01*
X11502171Y-10459409D01*
X11518596Y-10355703D01*
X11530500Y-10280551D01*
X11530500Y-10099448D01*
X11513627Y-9992922D01*
X11502171Y-9920591D01*
X11446211Y-9748361D01*
X11446211Y-9748360D01*
X11417740Y-9692484D01*
X11363996Y-9587006D01*
X11350396Y-9568287D01*
X11257558Y-9440505D01*
X11257554Y-9440500D01*
X11129499Y-9312445D01*
X11129494Y-9312441D01*
X10982997Y-9206006D01*
X10982996Y-9206005D01*
X10982994Y-9206004D01*
X10931300Y-9179664D01*
X10821639Y-9123788D01*
X10821636Y-9123787D01*
X10649410Y-9067829D01*
X10489321Y-9042473D01*
X10426186Y-9012544D01*
X10389255Y-8953232D01*
X10390253Y-8883370D01*
X10428863Y-8825137D01*
X10489321Y-8797527D01*
X10559425Y-8786422D01*
X10649409Y-8772171D01*
X10821639Y-8716211D01*
X10982994Y-8633996D01*
X11129501Y-8527553D01*
X11257553Y-8399501D01*
X11363996Y-8252994D01*
X11446211Y-8091639D01*
X11502171Y-7919409D01*
X11516765Y-7827259D01*
X11530500Y-7740551D01*
X11530500Y-7559448D01*
X11530314Y-7558274D01*
X11530314Y-7558273D01*
X11513256Y-7450580D01*
X11502171Y-7380591D01*
X11459708Y-7249901D01*
X11446212Y-7208363D01*
X11446211Y-7208360D01*
X11407192Y-7131782D01*
X11363996Y-7047006D01*
X11350396Y-7028287D01*
X11257558Y-6900505D01*
X11257554Y-6900500D01*
X11129499Y-6772445D01*
X11129494Y-6772441D01*
X10982997Y-6666006D01*
X10982996Y-6666005D01*
X10982994Y-6666004D01*
X10931300Y-6639664D01*
X10821639Y-6583788D01*
X10821636Y-6583787D01*
X10649410Y-6527829D01*
X10489321Y-6502473D01*
X10426186Y-6472544D01*
X10389255Y-6413232D01*
X10390253Y-6343370D01*
X10428863Y-6285137D01*
X10489321Y-6257527D01*
X10559425Y-6246422D01*
X10649409Y-6232171D01*
X10821639Y-6176211D01*
X10982994Y-6093996D01*
X11129501Y-5987553D01*
X11257553Y-5859501D01*
X11363996Y-5712994D01*
X11446211Y-5551639D01*
X11502171Y-5379409D01*
X11516765Y-5287259D01*
X11530500Y-5200551D01*
X11530500Y-5019448D01*
X11514019Y-4915397D01*
X11502171Y-4840591D01*
X11446211Y-4668361D01*
X11446211Y-4668360D01*
X11409392Y-4596100D01*
X11363996Y-4507006D01*
X11350396Y-4488287D01*
X11257558Y-4360505D01*
X11257554Y-4360500D01*
X11129499Y-4232445D01*
X11129494Y-4232441D01*
X10982997Y-4126006D01*
X10982996Y-4126005D01*
X10982994Y-4126004D01*
X10906906Y-4087235D01*
X10821639Y-4043788D01*
X10821636Y-4043787D01*
X10649410Y-3987829D01*
X10470551Y-3959500D01*
X10470546Y-3959500D01*
X10289454Y-3959500D01*
X10289449Y-3959500D01*
X10110589Y-3987829D01*
X9938363Y-4043787D01*
X9938360Y-4043788D01*
X9777002Y-4126006D01*
X9630505Y-4232441D01*
X9630500Y-4232445D01*
X9502445Y-4360500D01*
X9502441Y-4360505D01*
X9396006Y-4507002D01*
X9313788Y-4668360D01*
X9313787Y-4668363D01*
X9257829Y-4840589D01*
X9229500Y-5019448D01*
X9229500Y-5200551D01*
X9258095Y-5381091D01*
X9249141Y-5450384D01*
X9223303Y-5488170D01*
X7232091Y-7479383D01*
X7232089Y-7479386D01*
X7182196Y-7565804D01*
X7182195Y-7565806D01*
X7175429Y-7577526D01*
X7159616Y-7604915D01*
X7122100Y-7744925D01*
X500500Y-7744925D01*
X500500Y-3878711D01*
X2149500Y-3878711D01*
X2149500Y-4121288D01*
X2181161Y-4361785D01*
X2243947Y-4596104D01*
X2273877Y-4668360D01*
X2336776Y-4820212D01*
X2458064Y-5030289D01*
X2458066Y-5030292D01*
X2458067Y-5030293D01*
X2605733Y-5222736D01*
X2605739Y-5222743D01*
X2777256Y-5394260D01*
X2777262Y-5394265D01*
X2969711Y-5541936D01*
X3179788Y-5663224D01*
X3403900Y-5756054D01*
X3638211Y-5818838D01*
X3818586Y-5842584D01*
X3878711Y-5850500D01*
X3878712Y-5850500D01*
X4121289Y-5850500D01*
X4169388Y-5844167D01*
X4361789Y-5818838D01*
X4596100Y-5756054D01*
X4820212Y-5663224D01*
X5030289Y-5541936D01*
X5222738Y-5394265D01*
X5394265Y-5222738D01*
X5541936Y-5030289D01*
X5663224Y-4820212D01*
X5756054Y-4596100D01*
X5818838Y-4361789D01*
X5850500Y-4121288D01*
X5850500Y-3878712D01*
X5850500Y-3878711D01*
X62149500Y-3878711D01*
X62149500Y-4121288D01*
X62181161Y-4361785D01*
X62243947Y-4596104D01*
X62273877Y-4668360D01*
X62336776Y-4820212D01*
X62458064Y-5030289D01*
X62458066Y-5030292D01*
X62458067Y-5030293D01*
X62605733Y-5222736D01*
X62605739Y-5222743D01*
X62777256Y-5394260D01*
X62777262Y-5394265D01*
X62969711Y-5541936D01*
X63179788Y-5663224D01*
X63403900Y-5756054D01*
X63638211Y-5818838D01*
X63818586Y-5842584D01*
X63878711Y-5850500D01*
X63878712Y-5850500D01*
X64121289Y-5850500D01*
X64169388Y-5844167D01*
X64361789Y-5818838D01*
X64596100Y-5756054D01*
X64820212Y-5663224D01*
X65030289Y-5541936D01*
X65222738Y-5394265D01*
X65394265Y-5222738D01*
X65541936Y-5030289D01*
X65663224Y-4820212D01*
X65756054Y-4596100D01*
X65818838Y-4361789D01*
X65850500Y-4121288D01*
X65850500Y-3878712D01*
X65818838Y-3638211D01*
X65756054Y-3403900D01*
X65663224Y-3179788D01*
X65541936Y-2969711D01*
X65394265Y-2777262D01*
X65394260Y-2777256D01*
X65222743Y-2605739D01*
X65222736Y-2605733D01*
X65030293Y-2458067D01*
X65030292Y-2458066D01*
X65030289Y-2458064D01*
X64820212Y-2336776D01*
X64820205Y-2336773D01*
X64596104Y-2243947D01*
X64361785Y-2181161D01*
X64121289Y-2149500D01*
X64121288Y-2149500D01*
X63878712Y-2149500D01*
X63878711Y-2149500D01*
X63638214Y-2181161D01*
X63403895Y-2243947D01*
X63179794Y-2336773D01*
X63179785Y-2336777D01*
X62969706Y-2458067D01*
X62777263Y-2605733D01*
X62777256Y-2605739D01*
X62605739Y-2777256D01*
X62605733Y-2777263D01*
X62458067Y-2969706D01*
X62336777Y-3179785D01*
X62336773Y-3179794D01*
X62243947Y-3403895D01*
X62181161Y-3638214D01*
X62149500Y-3878711D01*
X5850500Y-3878711D01*
X5818838Y-3638211D01*
X5756054Y-3403900D01*
X5663224Y-3179788D01*
X5541936Y-2969711D01*
X5394265Y-2777262D01*
X5394260Y-2777256D01*
X5222743Y-2605739D01*
X5222736Y-2605733D01*
X5030293Y-2458067D01*
X5030292Y-2458066D01*
X5030289Y-2458064D01*
X4820212Y-2336776D01*
X4820205Y-2336773D01*
X4596104Y-2243947D01*
X4361785Y-2181161D01*
X4121289Y-2149500D01*
X4121288Y-2149500D01*
X3878712Y-2149500D01*
X3878711Y-2149500D01*
X3638214Y-2181161D01*
X3403895Y-2243947D01*
X3179794Y-2336773D01*
X3179785Y-2336777D01*
X2969706Y-2458067D01*
X2777263Y-2605733D01*
X2777256Y-2605739D01*
X2605739Y-2777256D01*
X2605733Y-2777263D01*
X2458067Y-2969706D01*
X2336777Y-3179785D01*
X2336773Y-3179794D01*
X2243947Y-3403895D01*
X2181161Y-3638214D01*
X2149500Y-3878711D01*
X500500Y-3878711D01*
X500500Y-624500D01*
X520185Y-557461D01*
X572989Y-511706D01*
X624500Y-500500D01*
X67375500Y-500500D01*
X67442539Y-520185D01*
G37*
%TD.AperFunction*%
%TD*%
M02*
