%TF.GenerationSoftware,KiCad,Pcbnew,9.0.9-9.0.9~ubuntu24.04.1*%
%TF.CreationDate,2026-09-01T13:34:32+02:00*%
%TF.ProjectId,master,6d617374-6572-42e6-9b69-6361645f7063,rev?*%
%TF.SameCoordinates,Original*%
%TF.FileFunction,Soldermask,Bot*%
%TF.FilePolarity,Negative*%
%FSLAX46Y46*%
G04 Gerber Fmt 4.6, Leading zero omitted, Abs format (unit mm)*
G04 Created by KiCad (PCBNEW 9.0.9-9.0.9~ubuntu24.04.1) date 2026-09-01 13:34:32*
%MOMM*%
%LPD*%
G01*
G04 APERTURE LIST*
G04 Aperture macros list*
%AMRoundRect*
0 Rectangle with rounded corners*
0 $1 Rounding radius*
0 $2 $3 $4 $5 $6 $7 $8 $9 X,Y pos of 4 corners*
0 Add a 4 corners polygon primitive as box body*
4,1,4,$2,$3,$4,$5,$6,$7,$8,$9,$2,$3,0*
0 Add four circle primitives for the rounded corners*
1,1,$1+$1,$2,$3*
1,1,$1+$1,$4,$5*
1,1,$1+$1,$6,$7*
1,1,$1+$1,$8,$9*
0 Add four rect primitives between the rounded corners*
20,1,$1+$1,$2,$3,$4,$5,0*
20,1,$1+$1,$4,$5,$6,$7,0*
20,1,$1+$1,$6,$7,$8,$9,0*
20,1,$1+$1,$8,$9,$2,$3,0*%
G04 Aperture macros list end*
%ADD10RoundRect,0.250000X-0.600000X-0.600000X0.600000X-0.600000X0.600000X0.600000X-0.600000X0.600000X0*%
%ADD11C,1.700000*%
%ADD12C,3.200000*%
%ADD13R,1.700000X1.700000*%
%ADD14RoundRect,0.250000X-1.050000X-1.050000X1.050000X-1.050000X1.050000X1.050000X-1.050000X1.050000X0*%
%ADD15C,2.600000*%
G04 APERTURE END LIST*
D10*
%TO.C,J2*%
X50000000Y-9000000D03*
D11*
X52540000Y-9000000D03*
X50000000Y-11540000D03*
X52540000Y-11540000D03*
X50000000Y-14080000D03*
X52540000Y-14080000D03*
X50000000Y-16620000D03*
X52540000Y-16620000D03*
X50000000Y-19160000D03*
X52540000Y-19160000D03*
%TD*%
D12*
%TO.C,H4*%
X64000000Y-50000000D03*
%TD*%
%TO.C,H3*%
X4000000Y-50000000D03*
%TD*%
D13*
%TO.C,U1*%
X25620000Y-5110000D03*
D11*
X25620000Y-7650000D03*
X25620000Y-10190000D03*
X25620000Y-12730000D03*
X25620000Y-15270000D03*
X25620000Y-17810000D03*
X25620000Y-20350000D03*
X25620000Y-22890000D03*
X10380000Y-5110000D03*
X10380000Y-7650000D03*
X10380000Y-10190000D03*
X10380000Y-12730000D03*
X10380000Y-15270000D03*
X10380000Y-17810000D03*
X10380000Y-20350000D03*
X10380000Y-22890000D03*
%TD*%
D12*
%TO.C,H1*%
X4000000Y-4000000D03*
%TD*%
D14*
%TO.C,J1*%
X11000000Y-48000000D03*
D15*
X16080000Y-48000000D03*
%TD*%
D13*
%TO.C,J3*%
X62000000Y-20000000D03*
D11*
X62000000Y-22540000D03*
X62000000Y-25080000D03*
X62000000Y-27620000D03*
%TD*%
D13*
%TO.C,J4*%
X46000000Y-50000000D03*
D11*
X48540000Y-50000000D03*
X51080000Y-50000000D03*
X53620000Y-50000000D03*
%TD*%
D12*
%TO.C,H2*%
X64000000Y-4000000D03*
%TD*%
M02*
