%TF.GenerationSoftware,KiCad,Pcbnew,9.0.9-9.0.9~ubuntu24.04.1*%
%TF.CreationDate,2026-09-01T13:34:33+02:00*%
%TF.ProjectId,master,6d617374-6572-42e6-9b69-6361645f7063,rev?*%
%TF.SameCoordinates,Original*%
%TF.FileFunction,Drillmap*%
%TF.FilePolarity,Positive*%
%FSLAX45Y45*%
G04 Gerber Fmt 4.5, Leading zero omitted, Abs format (unit mm)*
G04 Created by KiCad (PCBNEW 9.0.9-9.0.9~ubuntu24.04.1) date 2026-09-01 13:34:33*
%MOMM*%
%LPD*%
G01*
G04 APERTURE LIST*
%ADD10C,0.150000*%
%ADD11C,0.200000*%
%ADD12C,0.100000*%
%ADD13C,0.130000*%
%ADD14C,0.320000*%
G04 APERTURE END LIST*
D10*
X0Y0D02*
X6800000Y0D01*
X6800000Y-5400000D01*
X0Y-5400000D01*
X0Y0D01*
D11*
D12*
X2740560Y-4681820D02*
X2770560Y-4711820D01*
X2770560Y-4681820D02*
X2740560Y-4711820D01*
X2893750Y-3826010D02*
X2923750Y-3856010D01*
X2923750Y-3826010D02*
X2893750Y-3856010D01*
X3150300Y-3904580D02*
X3180300Y-3934580D01*
X3180300Y-3904580D02*
X3150300Y-3934580D01*
X3180140Y-2577390D02*
X3210140Y-2607390D01*
X3210140Y-2577390D02*
X3180140Y-2607390D01*
X3370160Y-675160D02*
X3400160Y-705160D01*
X3400160Y-675160D02*
X3370160Y-705160D01*
X3480000Y-3220000D02*
X3510000Y-3250000D01*
X3510000Y-3220000D02*
X3480000Y-3250000D01*
X3503470Y-4694720D02*
X3533470Y-4724720D01*
X3533470Y-4694720D02*
X3503470Y-4724720D01*
X3566140Y-2723580D02*
X3596140Y-2753580D01*
X3596140Y-2723580D02*
X3566140Y-2753580D01*
X3600620Y-2092720D02*
X3630620Y-2122720D01*
X3630620Y-2092720D02*
X3600620Y-2122720D01*
X3655440Y-2312440D02*
X3685440Y-2342440D01*
X3685440Y-2312440D02*
X3655440Y-2342440D01*
X3747190Y-1911720D02*
X3777190Y-1941720D01*
X3777190Y-1911720D02*
X3747190Y-1941720D01*
X3749280Y-1993360D02*
X3779280Y-2023360D01*
X3779280Y-1993360D02*
X3749280Y-2023360D01*
X3892660Y-2684930D02*
X3922660Y-2714930D01*
X3922660Y-2684930D02*
X3892660Y-2714930D01*
X4081680Y-2521500D02*
X4111680Y-2551500D01*
X4111680Y-2521500D02*
X4081680Y-2551500D01*
X4184740Y-4693340D02*
X4214740Y-4723340D01*
X4214740Y-4693340D02*
X4184740Y-4723340D01*
X4210290Y-1764720D02*
X4240290Y-1794720D01*
X4240290Y-1764720D02*
X4210290Y-1794720D01*
X4236300Y-2293560D02*
X4266300Y-2323560D01*
X4266300Y-2293560D02*
X4236300Y-2323560D01*
X4383650Y-2648500D02*
X4413650Y-2678500D01*
X4413650Y-2648500D02*
X4383650Y-2678500D01*
X4384610Y-2413130D02*
X4414610Y-2443130D01*
X4414610Y-2413130D02*
X4384610Y-2443130D01*
X4622290Y-2521500D02*
X4652290Y-2551500D01*
X4652290Y-2521500D02*
X4622290Y-2551500D01*
X4853170Y-3540740D02*
X4883170Y-3570740D01*
X4883170Y-3540740D02*
X4853170Y-3570740D01*
X5573790Y-4073790D02*
X5603790Y-4103790D01*
X5603790Y-4073790D02*
X5573790Y-4103790D01*
X512500Y-992500D02*
G75*
G02*
X472500Y-992500I-20000J0D01*
G01*
X472500Y-992500D02*
G75*
G02*
X512500Y-992500I20000J0D01*
G01*
X512500Y-1492500D02*
G75*
G02*
X472500Y-1492500I-20000J0D01*
G01*
X472500Y-1492500D02*
G75*
G02*
X512500Y-1492500I20000J0D01*
G01*
X512500Y-1992500D02*
G75*
G02*
X472500Y-1992500I-20000J0D01*
G01*
X472500Y-1992500D02*
G75*
G02*
X512500Y-1992500I20000J0D01*
G01*
X512500Y-2492500D02*
G75*
G02*
X472500Y-2492500I-20000J0D01*
G01*
X472500Y-2492500D02*
G75*
G02*
X512500Y-2492500I20000J0D01*
G01*
X512500Y-2992500D02*
G75*
G02*
X472500Y-2992500I-20000J0D01*
G01*
X472500Y-2992500D02*
G75*
G02*
X512500Y-2992500I20000J0D01*
G01*
X512500Y-3492500D02*
G75*
G02*
X472500Y-3492500I-20000J0D01*
G01*
X472500Y-3492500D02*
G75*
G02*
X512500Y-3492500I20000J0D01*
G01*
X512500Y-3992500D02*
G75*
G02*
X472500Y-3992500I-20000J0D01*
G01*
X472500Y-3992500D02*
G75*
G02*
X512500Y-3992500I20000J0D01*
G01*
X512500Y-4492500D02*
G75*
G02*
X472500Y-4492500I-20000J0D01*
G01*
X472500Y-4492500D02*
G75*
G02*
X512500Y-4492500I20000J0D01*
G01*
X1012500Y-2992500D02*
G75*
G02*
X972500Y-2992500I-20000J0D01*
G01*
X972500Y-2992500D02*
G75*
G02*
X1012500Y-2992500I20000J0D01*
G01*
X1012500Y-3492500D02*
G75*
G02*
X972500Y-3492500I-20000J0D01*
G01*
X972500Y-3492500D02*
G75*
G02*
X1012500Y-3492500I20000J0D01*
G01*
X1012500Y-3992500D02*
G75*
G02*
X972500Y-3992500I-20000J0D01*
G01*
X972500Y-3992500D02*
G75*
G02*
X1012500Y-3992500I20000J0D01*
G01*
X1012500Y-4492500D02*
G75*
G02*
X972500Y-4492500I-20000J0D01*
G01*
X972500Y-4492500D02*
G75*
G02*
X1012500Y-4492500I20000J0D01*
G01*
X1512500Y-992500D02*
G75*
G02*
X1472500Y-992500I-20000J0D01*
G01*
X1472500Y-992500D02*
G75*
G02*
X1512500Y-992500I20000J0D01*
G01*
X1512500Y-1492500D02*
G75*
G02*
X1472500Y-1492500I-20000J0D01*
G01*
X1472500Y-1492500D02*
G75*
G02*
X1512500Y-1492500I20000J0D01*
G01*
X1512500Y-1992500D02*
G75*
G02*
X1472500Y-1992500I-20000J0D01*
G01*
X1472500Y-1992500D02*
G75*
G02*
X1512500Y-1992500I20000J0D01*
G01*
X1512500Y-3492500D02*
G75*
G02*
X1472500Y-3492500I-20000J0D01*
G01*
X1472500Y-3492500D02*
G75*
G02*
X1512500Y-3492500I20000J0D01*
G01*
X1512500Y-3992500D02*
G75*
G02*
X1472500Y-3992500I-20000J0D01*
G01*
X1472500Y-3992500D02*
G75*
G02*
X1512500Y-3992500I20000J0D01*
G01*
X1512500Y-4492500D02*
G75*
G02*
X1472500Y-4492500I-20000J0D01*
G01*
X1472500Y-4492500D02*
G75*
G02*
X1512500Y-4492500I20000J0D01*
G01*
X2012500Y-492500D02*
G75*
G02*
X1972500Y-492500I-20000J0D01*
G01*
X1972500Y-492500D02*
G75*
G02*
X2012500Y-492500I20000J0D01*
G01*
X2012500Y-992500D02*
G75*
G02*
X1972500Y-992500I-20000J0D01*
G01*
X1972500Y-992500D02*
G75*
G02*
X2012500Y-992500I20000J0D01*
G01*
X2012500Y-1492500D02*
G75*
G02*
X1972500Y-1492500I-20000J0D01*
G01*
X1972500Y-1492500D02*
G75*
G02*
X2012500Y-1492500I20000J0D01*
G01*
X2012500Y-1992500D02*
G75*
G02*
X1972500Y-1992500I-20000J0D01*
G01*
X1972500Y-1992500D02*
G75*
G02*
X2012500Y-1992500I20000J0D01*
G01*
X2012500Y-2992500D02*
G75*
G02*
X1972500Y-2992500I-20000J0D01*
G01*
X1972500Y-2992500D02*
G75*
G02*
X2012500Y-2992500I20000J0D01*
G01*
X2012500Y-3992500D02*
G75*
G02*
X1972500Y-3992500I-20000J0D01*
G01*
X1972500Y-3992500D02*
G75*
G02*
X2012500Y-3992500I20000J0D01*
G01*
X2012500Y-4492500D02*
G75*
G02*
X1972500Y-4492500I-20000J0D01*
G01*
X1972500Y-4492500D02*
G75*
G02*
X2012500Y-4492500I20000J0D01*
G01*
X2512500Y-2992500D02*
G75*
G02*
X2472500Y-2992500I-20000J0D01*
G01*
X2472500Y-2992500D02*
G75*
G02*
X2512500Y-2992500I20000J0D01*
G01*
X2512500Y-3492500D02*
G75*
G02*
X2472500Y-3492500I-20000J0D01*
G01*
X2472500Y-3492500D02*
G75*
G02*
X2512500Y-3492500I20000J0D01*
G01*
X3012500Y-1492500D02*
G75*
G02*
X2972500Y-1492500I-20000J0D01*
G01*
X2972500Y-1492500D02*
G75*
G02*
X3012500Y-1492500I20000J0D01*
G01*
X3012500Y-2492500D02*
G75*
G02*
X2972500Y-2492500I-20000J0D01*
G01*
X2972500Y-2492500D02*
G75*
G02*
X3012500Y-2492500I20000J0D01*
G01*
X3012500Y-2992500D02*
G75*
G02*
X2972500Y-2992500I-20000J0D01*
G01*
X2972500Y-2992500D02*
G75*
G02*
X3012500Y-2992500I20000J0D01*
G01*
X3012500Y-4492500D02*
G75*
G02*
X2972500Y-4492500I-20000J0D01*
G01*
X2972500Y-4492500D02*
G75*
G02*
X3012500Y-4492500I20000J0D01*
G01*
X3060000Y-4652500D02*
G75*
G02*
X3020000Y-4652500I-20000J0D01*
G01*
X3020000Y-4652500D02*
G75*
G02*
X3060000Y-4652500I20000J0D01*
G01*
X3306250Y-4035000D02*
G75*
G02*
X3266250Y-4035000I-20000J0D01*
G01*
X3266250Y-4035000D02*
G75*
G02*
X3306250Y-4035000I20000J0D01*
G01*
X3315000Y-780000D02*
G75*
G02*
X3275000Y-780000I-20000J0D01*
G01*
X3275000Y-780000D02*
G75*
G02*
X3315000Y-780000I20000J0D01*
G01*
X3512500Y-492500D02*
G75*
G02*
X3472500Y-492500I-20000J0D01*
G01*
X3472500Y-492500D02*
G75*
G02*
X3512500Y-492500I20000J0D01*
G01*
X3512500Y-1492500D02*
G75*
G02*
X3472500Y-1492500I-20000J0D01*
G01*
X3472500Y-1492500D02*
G75*
G02*
X3512500Y-1492500I20000J0D01*
G01*
X3512500Y-2992500D02*
G75*
G02*
X3472500Y-2992500I-20000J0D01*
G01*
X3472500Y-2992500D02*
G75*
G02*
X3512500Y-2992500I20000J0D01*
G01*
X3632500Y-2536500D02*
G75*
G02*
X3592500Y-2536500I-20000J0D01*
G01*
X3592500Y-2536500D02*
G75*
G02*
X3632500Y-2536500I20000J0D01*
G01*
X3986250Y-4800000D02*
G75*
G02*
X3946250Y-4800000I-20000J0D01*
G01*
X3946250Y-4800000D02*
G75*
G02*
X3986250Y-4800000I20000J0D01*
G01*
X4012500Y-492500D02*
G75*
G02*
X3972500Y-492500I-20000J0D01*
G01*
X3972500Y-492500D02*
G75*
G02*
X4012500Y-492500I20000J0D01*
G01*
X4012500Y-992500D02*
G75*
G02*
X3972500Y-992500I-20000J0D01*
G01*
X3972500Y-992500D02*
G75*
G02*
X4012500Y-992500I20000J0D01*
G01*
X4012500Y-2992500D02*
G75*
G02*
X3972500Y-2992500I-20000J0D01*
G01*
X3972500Y-2992500D02*
G75*
G02*
X4012500Y-2992500I20000J0D01*
G01*
X4012500Y-3492500D02*
G75*
G02*
X3972500Y-3492500I-20000J0D01*
G01*
X3972500Y-3492500D02*
G75*
G02*
X4012500Y-3492500I20000J0D01*
G01*
X4012500Y-3992500D02*
G75*
G02*
X3972500Y-3992500I-20000J0D01*
G01*
X3972500Y-3992500D02*
G75*
G02*
X4012500Y-3992500I20000J0D01*
G01*
X4012500Y-4492500D02*
G75*
G02*
X3972500Y-4492500I-20000J0D01*
G01*
X3972500Y-4492500D02*
G75*
G02*
X4012500Y-4492500I20000J0D01*
G01*
X4175000Y-4200000D02*
G75*
G02*
X4135000Y-4200000I-20000J0D01*
G01*
X4135000Y-4200000D02*
G75*
G02*
X4175000Y-4200000I20000J0D01*
G01*
X4407500Y-2790500D02*
G75*
G02*
X4367500Y-2790500I-20000J0D01*
G01*
X4367500Y-2790500D02*
G75*
G02*
X4407500Y-2790500I20000J0D01*
G01*
X4511250Y-3140000D02*
G75*
G02*
X4471250Y-3140000I-20000J0D01*
G01*
X4471250Y-3140000D02*
G75*
G02*
X4511250Y-3140000I20000J0D01*
G01*
X4512500Y-492500D02*
G75*
G02*
X4472500Y-492500I-20000J0D01*
G01*
X4472500Y-492500D02*
G75*
G02*
X4512500Y-492500I20000J0D01*
G01*
X4512500Y-992500D02*
G75*
G02*
X4472500Y-992500I-20000J0D01*
G01*
X4472500Y-992500D02*
G75*
G02*
X4512500Y-992500I20000J0D01*
G01*
X4515000Y-1360000D02*
G75*
G02*
X4475000Y-1360000I-20000J0D01*
G01*
X4475000Y-1360000D02*
G75*
G02*
X4515000Y-1360000I20000J0D01*
G01*
X4811390Y-4208610D02*
G75*
G02*
X4771390Y-4208610I-20000J0D01*
G01*
X4771390Y-4208610D02*
G75*
G02*
X4811390Y-4208610I20000J0D01*
G01*
X4860360Y-1671930D02*
G75*
G02*
X4820360Y-1671930I-20000J0D01*
G01*
X4820360Y-1671930D02*
G75*
G02*
X4860360Y-1671930I20000J0D01*
G01*
X5254070Y-2263600D02*
G75*
G02*
X5214070Y-2263600I-20000J0D01*
G01*
X5214070Y-2263600D02*
G75*
G02*
X5254070Y-2263600I20000J0D01*
G01*
X5254070Y-3555740D02*
G75*
G02*
X5214070Y-3555740I-20000J0D01*
G01*
X5214070Y-3555740D02*
G75*
G02*
X5254070Y-3555740I20000J0D01*
G01*
X5373190Y-4411550D02*
G75*
G02*
X5333190Y-4411550I-20000J0D01*
G01*
X5333190Y-4411550D02*
G75*
G02*
X5373190Y-4411550I20000J0D01*
G01*
X5512500Y-492500D02*
G75*
G02*
X5472500Y-492500I-20000J0D01*
G01*
X5472500Y-492500D02*
G75*
G02*
X5512500Y-492500I20000J0D01*
G01*
X5512500Y-1492500D02*
G75*
G02*
X5472500Y-1492500I-20000J0D01*
G01*
X5472500Y-1492500D02*
G75*
G02*
X5512500Y-1492500I20000J0D01*
G01*
X5512500Y-1992500D02*
G75*
G02*
X5472500Y-1992500I-20000J0D01*
G01*
X5472500Y-1992500D02*
G75*
G02*
X5512500Y-1992500I20000J0D01*
G01*
X5520000Y-3860000D02*
G75*
G02*
X5480000Y-3860000I-20000J0D01*
G01*
X5480000Y-3860000D02*
G75*
G02*
X5520000Y-3860000I20000J0D01*
G01*
X6012500Y-492500D02*
G75*
G02*
X5972500Y-492500I-20000J0D01*
G01*
X5972500Y-492500D02*
G75*
G02*
X6012500Y-492500I20000J0D01*
G01*
X6012500Y-992500D02*
G75*
G02*
X5972500Y-992500I-20000J0D01*
G01*
X5972500Y-992500D02*
G75*
G02*
X6012500Y-992500I20000J0D01*
G01*
X6012500Y-2992500D02*
G75*
G02*
X5972500Y-2992500I-20000J0D01*
G01*
X5972500Y-2992500D02*
G75*
G02*
X6012500Y-2992500I20000J0D01*
G01*
X6012500Y-3492500D02*
G75*
G02*
X5972500Y-3492500I-20000J0D01*
G01*
X5972500Y-3492500D02*
G75*
G02*
X6012500Y-3492500I20000J0D01*
G01*
X6012500Y-3992500D02*
G75*
G02*
X5972500Y-3992500I-20000J0D01*
G01*
X5972500Y-3992500D02*
G75*
G02*
X6012500Y-3992500I20000J0D01*
G01*
X6012500Y-4492500D02*
G75*
G02*
X5972500Y-4492500I-20000J0D01*
G01*
X5972500Y-4492500D02*
G75*
G02*
X6012500Y-4492500I20000J0D01*
G01*
X6012500Y-4992500D02*
G75*
G02*
X5972500Y-4992500I-20000J0D01*
G01*
X5972500Y-4992500D02*
G75*
G02*
X6012500Y-4992500I20000J0D01*
G01*
X6512500Y-992500D02*
G75*
G02*
X6472500Y-992500I-20000J0D01*
G01*
X6472500Y-992500D02*
G75*
G02*
X6512500Y-992500I20000J0D01*
G01*
X6512500Y-1492500D02*
G75*
G02*
X6472500Y-1492500I-20000J0D01*
G01*
X6472500Y-1492500D02*
G75*
G02*
X6512500Y-1492500I20000J0D01*
G01*
X6512500Y-1992500D02*
G75*
G02*
X6472500Y-1992500I-20000J0D01*
G01*
X6472500Y-1992500D02*
G75*
G02*
X6512500Y-1992500I20000J0D01*
G01*
X6512500Y-2492500D02*
G75*
G02*
X6472500Y-2492500I-20000J0D01*
G01*
X6472500Y-2492500D02*
G75*
G02*
X6512500Y-2492500I20000J0D01*
G01*
X6512500Y-2992500D02*
G75*
G02*
X6472500Y-2992500I-20000J0D01*
G01*
X6472500Y-2992500D02*
G75*
G02*
X6512500Y-2992500I20000J0D01*
G01*
X6512500Y-3492500D02*
G75*
G02*
X6472500Y-3492500I-20000J0D01*
G01*
X6472500Y-3492500D02*
G75*
G02*
X6512500Y-3492500I20000J0D01*
G01*
X6512500Y-3992500D02*
G75*
G02*
X6472500Y-3992500I-20000J0D01*
G01*
X6472500Y-3992500D02*
G75*
G02*
X6512500Y-3992500I20000J0D01*
G01*
X6512500Y-4492500D02*
G75*
G02*
X6472500Y-4492500I-20000J0D01*
G01*
X6472500Y-4492500D02*
G75*
G02*
X6512500Y-4492500I20000J0D01*
G01*
X1038000Y-461000D02*
X1038000Y-561000D01*
X988000Y-511000D02*
X1088000Y-511000D01*
X1038000Y-715000D02*
X1038000Y-815000D01*
X988000Y-765000D02*
X1088000Y-765000D01*
X1038000Y-969000D02*
X1038000Y-1069000D01*
X988000Y-1019000D02*
X1088000Y-1019000D01*
X1038000Y-1223000D02*
X1038000Y-1323000D01*
X988000Y-1273000D02*
X1088000Y-1273000D01*
X1038000Y-1477000D02*
X1038000Y-1577000D01*
X988000Y-1527000D02*
X1088000Y-1527000D01*
X1038000Y-1731000D02*
X1038000Y-1831000D01*
X988000Y-1781000D02*
X1088000Y-1781000D01*
X1038000Y-1985000D02*
X1038000Y-2085000D01*
X988000Y-2035000D02*
X1088000Y-2035000D01*
X1038000Y-2239000D02*
X1038000Y-2339000D01*
X988000Y-2289000D02*
X1088000Y-2289000D01*
X2562000Y-461000D02*
X2562000Y-561000D01*
X2512000Y-511000D02*
X2612000Y-511000D01*
X2562000Y-715000D02*
X2562000Y-815000D01*
X2512000Y-765000D02*
X2612000Y-765000D01*
X2562000Y-969000D02*
X2562000Y-1069000D01*
X2512000Y-1019000D02*
X2612000Y-1019000D01*
X2562000Y-1223000D02*
X2562000Y-1323000D01*
X2512000Y-1273000D02*
X2612000Y-1273000D01*
X2562000Y-1477000D02*
X2562000Y-1577000D01*
X2512000Y-1527000D02*
X2612000Y-1527000D01*
X2562000Y-1731000D02*
X2562000Y-1831000D01*
X2512000Y-1781000D02*
X2612000Y-1781000D01*
X2562000Y-1985000D02*
X2562000Y-2085000D01*
X2512000Y-2035000D02*
X2612000Y-2035000D01*
X2562000Y-2239000D02*
X2562000Y-2339000D01*
X2512000Y-2289000D02*
X2612000Y-2289000D01*
X4600000Y-4950000D02*
X4600000Y-5050000D01*
X4550000Y-5000000D02*
X4650000Y-5000000D01*
X4854000Y-4950000D02*
X4854000Y-5050000D01*
X4804000Y-5000000D02*
X4904000Y-5000000D01*
X5000000Y-850000D02*
X5000000Y-950000D01*
X4950000Y-900000D02*
X5050000Y-900000D01*
X5000000Y-1104000D02*
X5000000Y-1204000D01*
X4950000Y-1154000D02*
X5050000Y-1154000D01*
X5000000Y-1358000D02*
X5000000Y-1458000D01*
X4950000Y-1408000D02*
X5050000Y-1408000D01*
X5000000Y-1612000D02*
X5000000Y-1712000D01*
X4950000Y-1662000D02*
X5050000Y-1662000D01*
X5000000Y-1866000D02*
X5000000Y-1966000D01*
X4950000Y-1916000D02*
X5050000Y-1916000D01*
X5108000Y-4950000D02*
X5108000Y-5050000D01*
X5058000Y-5000000D02*
X5158000Y-5000000D01*
X5254000Y-850000D02*
X5254000Y-950000D01*
X5204000Y-900000D02*
X5304000Y-900000D01*
X5254000Y-1104000D02*
X5254000Y-1204000D01*
X5204000Y-1154000D02*
X5304000Y-1154000D01*
X5254000Y-1358000D02*
X5254000Y-1458000D01*
X5204000Y-1408000D02*
X5304000Y-1408000D01*
X5254000Y-1612000D02*
X5254000Y-1712000D01*
X5204000Y-1662000D02*
X5304000Y-1662000D01*
X5254000Y-1866000D02*
X5254000Y-1966000D01*
X5204000Y-1916000D02*
X5304000Y-1916000D01*
X5362000Y-4950000D02*
X5362000Y-5050000D01*
X5312000Y-5000000D02*
X5412000Y-5000000D01*
X6200000Y-1950000D02*
X6200000Y-2050000D01*
X6150000Y-2000000D02*
X6250000Y-2000000D01*
X6200000Y-2204000D02*
X6200000Y-2304000D01*
X6150000Y-2254000D02*
X6250000Y-2254000D01*
X6200000Y-2458000D02*
X6200000Y-2558000D01*
X6150000Y-2508000D02*
X6250000Y-2508000D01*
X6200000Y-2712000D02*
X6200000Y-2812000D01*
X6150000Y-2762000D02*
X6250000Y-2762000D01*
D13*
X1145962Y-4845962D02*
X1145962Y-4754038D01*
X1054038Y-4754038D01*
X1054038Y-4845962D01*
X1145962Y-4845962D01*
X1653962Y-4845962D02*
X1653962Y-4754038D01*
X1562038Y-4754038D01*
X1562038Y-4845962D01*
X1653962Y-4845962D01*
D14*
X400000Y-560000D02*
X560000Y-400000D01*
X400000Y-240000D01*
X240000Y-400000D01*
X400000Y-560000D01*
X400000Y-5160000D02*
X560000Y-5000000D01*
X400000Y-4840000D01*
X240000Y-5000000D01*
X400000Y-5160000D01*
X6400000Y-560000D02*
X6560000Y-400000D01*
X6400000Y-240000D01*
X6240000Y-400000D01*
X6400000Y-560000D01*
X6400000Y-5160000D02*
X6560000Y-5000000D01*
X6400000Y-4840000D01*
X6240000Y-5000000D01*
X6400000Y-5160000D01*
D11*
X253277Y-5718984D02*
X253277Y-5518984D01*
X253277Y-5518984D02*
X300896Y-5518984D01*
X300896Y-5518984D02*
X329467Y-5528508D01*
X329467Y-5528508D02*
X348515Y-5547555D01*
X348515Y-5547555D02*
X358039Y-5566603D01*
X358039Y-5566603D02*
X367562Y-5604698D01*
X367562Y-5604698D02*
X367562Y-5633269D01*
X367562Y-5633269D02*
X358039Y-5671365D01*
X358039Y-5671365D02*
X348515Y-5690412D01*
X348515Y-5690412D02*
X329467Y-5709460D01*
X329467Y-5709460D02*
X300896Y-5718984D01*
X300896Y-5718984D02*
X253277Y-5718984D01*
X453277Y-5718984D02*
X453277Y-5585650D01*
X453277Y-5623746D02*
X462801Y-5604698D01*
X462801Y-5604698D02*
X472324Y-5595174D01*
X472324Y-5595174D02*
X491372Y-5585650D01*
X491372Y-5585650D02*
X510420Y-5585650D01*
X577086Y-5718984D02*
X577086Y-5585650D01*
X577086Y-5518984D02*
X567563Y-5528508D01*
X567563Y-5528508D02*
X577086Y-5538031D01*
X577086Y-5538031D02*
X586610Y-5528508D01*
X586610Y-5528508D02*
X577086Y-5518984D01*
X577086Y-5518984D02*
X577086Y-5538031D01*
X700896Y-5718984D02*
X681848Y-5709460D01*
X681848Y-5709460D02*
X672324Y-5690412D01*
X672324Y-5690412D02*
X672324Y-5518984D01*
X805658Y-5718984D02*
X786610Y-5709460D01*
X786610Y-5709460D02*
X777086Y-5690412D01*
X777086Y-5690412D02*
X777086Y-5518984D01*
X1034229Y-5718984D02*
X1034229Y-5518984D01*
X1034229Y-5518984D02*
X1100896Y-5661841D01*
X1100896Y-5661841D02*
X1167563Y-5518984D01*
X1167563Y-5518984D02*
X1167563Y-5718984D01*
X1348515Y-5718984D02*
X1348515Y-5614222D01*
X1348515Y-5614222D02*
X1338991Y-5595174D01*
X1338991Y-5595174D02*
X1319944Y-5585650D01*
X1319944Y-5585650D02*
X1281848Y-5585650D01*
X1281848Y-5585650D02*
X1262801Y-5595174D01*
X1348515Y-5709460D02*
X1329467Y-5718984D01*
X1329467Y-5718984D02*
X1281848Y-5718984D01*
X1281848Y-5718984D02*
X1262801Y-5709460D01*
X1262801Y-5709460D02*
X1253277Y-5690412D01*
X1253277Y-5690412D02*
X1253277Y-5671365D01*
X1253277Y-5671365D02*
X1262801Y-5652317D01*
X1262801Y-5652317D02*
X1281848Y-5642793D01*
X1281848Y-5642793D02*
X1329467Y-5642793D01*
X1329467Y-5642793D02*
X1348515Y-5633269D01*
X1443753Y-5585650D02*
X1443753Y-5785650D01*
X1443753Y-5595174D02*
X1462801Y-5585650D01*
X1462801Y-5585650D02*
X1500896Y-5585650D01*
X1500896Y-5585650D02*
X1519943Y-5595174D01*
X1519943Y-5595174D02*
X1529467Y-5604698D01*
X1529467Y-5604698D02*
X1538991Y-5623746D01*
X1538991Y-5623746D02*
X1538991Y-5680888D01*
X1538991Y-5680888D02*
X1529467Y-5699936D01*
X1529467Y-5699936D02*
X1519943Y-5709460D01*
X1519943Y-5709460D02*
X1500896Y-5718984D01*
X1500896Y-5718984D02*
X1462801Y-5718984D01*
X1462801Y-5718984D02*
X1443753Y-5709460D01*
X1624705Y-5699936D02*
X1634229Y-5709460D01*
X1634229Y-5709460D02*
X1624705Y-5718984D01*
X1624705Y-5718984D02*
X1615182Y-5709460D01*
X1615182Y-5709460D02*
X1624705Y-5699936D01*
X1624705Y-5699936D02*
X1624705Y-5718984D01*
X1624705Y-5595174D02*
X1634229Y-5604698D01*
X1634229Y-5604698D02*
X1624705Y-5614222D01*
X1624705Y-5614222D02*
X1615182Y-5604698D01*
X1615182Y-5604698D02*
X1624705Y-5595174D01*
X1624705Y-5595174D02*
X1624705Y-5614222D01*
D12*
X-37500Y-6032500D02*
X-7500Y-6062500D01*
X-7500Y-6032500D02*
X-37500Y-6062500D01*
D11*
X291372Y-5938984D02*
X310420Y-5938984D01*
X310420Y-5938984D02*
X329467Y-5948508D01*
X329467Y-5948508D02*
X338991Y-5958031D01*
X338991Y-5958031D02*
X348515Y-5977079D01*
X348515Y-5977079D02*
X358039Y-6015174D01*
X358039Y-6015174D02*
X358039Y-6062793D01*
X358039Y-6062793D02*
X348515Y-6100888D01*
X348515Y-6100888D02*
X338991Y-6119936D01*
X338991Y-6119936D02*
X329467Y-6129460D01*
X329467Y-6129460D02*
X310420Y-6138984D01*
X310420Y-6138984D02*
X291372Y-6138984D01*
X291372Y-6138984D02*
X272324Y-6129460D01*
X272324Y-6129460D02*
X262801Y-6119936D01*
X262801Y-6119936D02*
X253277Y-6100888D01*
X253277Y-6100888D02*
X243753Y-6062793D01*
X243753Y-6062793D02*
X243753Y-6015174D01*
X243753Y-6015174D02*
X253277Y-5977079D01*
X253277Y-5977079D02*
X262801Y-5958031D01*
X262801Y-5958031D02*
X272324Y-5948508D01*
X272324Y-5948508D02*
X291372Y-5938984D01*
X443753Y-6119936D02*
X453277Y-6129460D01*
X453277Y-6129460D02*
X443753Y-6138984D01*
X443753Y-6138984D02*
X434229Y-6129460D01*
X434229Y-6129460D02*
X443753Y-6119936D01*
X443753Y-6119936D02*
X443753Y-6138984D01*
X519943Y-5938984D02*
X643753Y-5938984D01*
X643753Y-5938984D02*
X577086Y-6015174D01*
X577086Y-6015174D02*
X605658Y-6015174D01*
X605658Y-6015174D02*
X624705Y-6024698D01*
X624705Y-6024698D02*
X634229Y-6034222D01*
X634229Y-6034222D02*
X643753Y-6053269D01*
X643753Y-6053269D02*
X643753Y-6100888D01*
X643753Y-6100888D02*
X634229Y-6119936D01*
X634229Y-6119936D02*
X624705Y-6129460D01*
X624705Y-6129460D02*
X605658Y-6138984D01*
X605658Y-6138984D02*
X548515Y-6138984D01*
X548515Y-6138984D02*
X529467Y-6129460D01*
X529467Y-6129460D02*
X519943Y-6119936D01*
X767562Y-5938984D02*
X786610Y-5938984D01*
X786610Y-5938984D02*
X805658Y-5948508D01*
X805658Y-5948508D02*
X815182Y-5958031D01*
X815182Y-5958031D02*
X824705Y-5977079D01*
X824705Y-5977079D02*
X834229Y-6015174D01*
X834229Y-6015174D02*
X834229Y-6062793D01*
X834229Y-6062793D02*
X824705Y-6100888D01*
X824705Y-6100888D02*
X815182Y-6119936D01*
X815182Y-6119936D02*
X805658Y-6129460D01*
X805658Y-6129460D02*
X786610Y-6138984D01*
X786610Y-6138984D02*
X767562Y-6138984D01*
X767562Y-6138984D02*
X748515Y-6129460D01*
X748515Y-6129460D02*
X738991Y-6119936D01*
X738991Y-6119936D02*
X729467Y-6100888D01*
X729467Y-6100888D02*
X719943Y-6062793D01*
X719943Y-6062793D02*
X719943Y-6015174D01*
X719943Y-6015174D02*
X729467Y-5977079D01*
X729467Y-5977079D02*
X738991Y-5958031D01*
X738991Y-5958031D02*
X748515Y-5948508D01*
X748515Y-5948508D02*
X767562Y-5938984D01*
X958039Y-5938984D02*
X977086Y-5938984D01*
X977086Y-5938984D02*
X996134Y-5948508D01*
X996134Y-5948508D02*
X1005658Y-5958031D01*
X1005658Y-5958031D02*
X1015182Y-5977079D01*
X1015182Y-5977079D02*
X1024705Y-6015174D01*
X1024705Y-6015174D02*
X1024705Y-6062793D01*
X1024705Y-6062793D02*
X1015182Y-6100888D01*
X1015182Y-6100888D02*
X1005658Y-6119936D01*
X1005658Y-6119936D02*
X996134Y-6129460D01*
X996134Y-6129460D02*
X977086Y-6138984D01*
X977086Y-6138984D02*
X958039Y-6138984D01*
X958039Y-6138984D02*
X938991Y-6129460D01*
X938991Y-6129460D02*
X929467Y-6119936D01*
X929467Y-6119936D02*
X919943Y-6100888D01*
X919943Y-6100888D02*
X910420Y-6062793D01*
X910420Y-6062793D02*
X910420Y-6015174D01*
X910420Y-6015174D02*
X919943Y-5977079D01*
X919943Y-5977079D02*
X929467Y-5958031D01*
X929467Y-5958031D02*
X938991Y-5948508D01*
X938991Y-5948508D02*
X958039Y-5938984D01*
X1110420Y-6138984D02*
X1110420Y-6005650D01*
X1110420Y-6024698D02*
X1119944Y-6015174D01*
X1119944Y-6015174D02*
X1138991Y-6005650D01*
X1138991Y-6005650D02*
X1167563Y-6005650D01*
X1167563Y-6005650D02*
X1186610Y-6015174D01*
X1186610Y-6015174D02*
X1196134Y-6034222D01*
X1196134Y-6034222D02*
X1196134Y-6138984D01*
X1196134Y-6034222D02*
X1205658Y-6015174D01*
X1205658Y-6015174D02*
X1224705Y-6005650D01*
X1224705Y-6005650D02*
X1253277Y-6005650D01*
X1253277Y-6005650D02*
X1272325Y-6015174D01*
X1272325Y-6015174D02*
X1281848Y-6034222D01*
X1281848Y-6034222D02*
X1281848Y-6138984D01*
X1377086Y-6138984D02*
X1377086Y-6005650D01*
X1377086Y-6024698D02*
X1386610Y-6015174D01*
X1386610Y-6015174D02*
X1405658Y-6005650D01*
X1405658Y-6005650D02*
X1434229Y-6005650D01*
X1434229Y-6005650D02*
X1453277Y-6015174D01*
X1453277Y-6015174D02*
X1462801Y-6034222D01*
X1462801Y-6034222D02*
X1462801Y-6138984D01*
X1462801Y-6034222D02*
X1472324Y-6015174D01*
X1472324Y-6015174D02*
X1491372Y-6005650D01*
X1491372Y-6005650D02*
X1519943Y-6005650D01*
X1519943Y-6005650D02*
X1538991Y-6015174D01*
X1538991Y-6015174D02*
X1548515Y-6034222D01*
X1548515Y-6034222D02*
X1548515Y-6138984D01*
X1938991Y-5929460D02*
X1767563Y-6186603D01*
X2196134Y-5938984D02*
X2215182Y-5938984D01*
X2215182Y-5938984D02*
X2234229Y-5948508D01*
X2234229Y-5948508D02*
X2243753Y-5958031D01*
X2243753Y-5958031D02*
X2253277Y-5977079D01*
X2253277Y-5977079D02*
X2262801Y-6015174D01*
X2262801Y-6015174D02*
X2262801Y-6062793D01*
X2262801Y-6062793D02*
X2253277Y-6100888D01*
X2253277Y-6100888D02*
X2243753Y-6119936D01*
X2243753Y-6119936D02*
X2234229Y-6129460D01*
X2234229Y-6129460D02*
X2215182Y-6138984D01*
X2215182Y-6138984D02*
X2196134Y-6138984D01*
X2196134Y-6138984D02*
X2177087Y-6129460D01*
X2177087Y-6129460D02*
X2167563Y-6119936D01*
X2167563Y-6119936D02*
X2158039Y-6100888D01*
X2158039Y-6100888D02*
X2148515Y-6062793D01*
X2148515Y-6062793D02*
X2148515Y-6015174D01*
X2148515Y-6015174D02*
X2158039Y-5977079D01*
X2158039Y-5977079D02*
X2167563Y-5958031D01*
X2167563Y-5958031D02*
X2177087Y-5948508D01*
X2177087Y-5948508D02*
X2196134Y-5938984D01*
X2348515Y-6119936D02*
X2358039Y-6129460D01*
X2358039Y-6129460D02*
X2348515Y-6138984D01*
X2348515Y-6138984D02*
X2338991Y-6129460D01*
X2338991Y-6129460D02*
X2348515Y-6119936D01*
X2348515Y-6119936D02*
X2348515Y-6138984D01*
X2481848Y-5938984D02*
X2500896Y-5938984D01*
X2500896Y-5938984D02*
X2519944Y-5948508D01*
X2519944Y-5948508D02*
X2529468Y-5958031D01*
X2529468Y-5958031D02*
X2538991Y-5977079D01*
X2538991Y-5977079D02*
X2548515Y-6015174D01*
X2548515Y-6015174D02*
X2548515Y-6062793D01*
X2548515Y-6062793D02*
X2538991Y-6100888D01*
X2538991Y-6100888D02*
X2529468Y-6119936D01*
X2529468Y-6119936D02*
X2519944Y-6129460D01*
X2519944Y-6129460D02*
X2500896Y-6138984D01*
X2500896Y-6138984D02*
X2481848Y-6138984D01*
X2481848Y-6138984D02*
X2462801Y-6129460D01*
X2462801Y-6129460D02*
X2453277Y-6119936D01*
X2453277Y-6119936D02*
X2443753Y-6100888D01*
X2443753Y-6100888D02*
X2434229Y-6062793D01*
X2434229Y-6062793D02*
X2434229Y-6015174D01*
X2434229Y-6015174D02*
X2443753Y-5977079D01*
X2443753Y-5977079D02*
X2453277Y-5958031D01*
X2453277Y-5958031D02*
X2462801Y-5948508D01*
X2462801Y-5948508D02*
X2481848Y-5938984D01*
X2738991Y-6138984D02*
X2624706Y-6138984D01*
X2681848Y-6138984D02*
X2681848Y-5938984D01*
X2681848Y-5938984D02*
X2662801Y-5967555D01*
X2662801Y-5967555D02*
X2643753Y-5986603D01*
X2643753Y-5986603D02*
X2624706Y-5996127D01*
X2929467Y-6138984D02*
X2815182Y-6138984D01*
X2872325Y-6138984D02*
X2872325Y-5938984D01*
X2872325Y-5938984D02*
X2853277Y-5967555D01*
X2853277Y-5967555D02*
X2834229Y-5986603D01*
X2834229Y-5986603D02*
X2815182Y-5996127D01*
X3043753Y-6024698D02*
X3024706Y-6015174D01*
X3024706Y-6015174D02*
X3015182Y-6005650D01*
X3015182Y-6005650D02*
X3005658Y-5986603D01*
X3005658Y-5986603D02*
X3005658Y-5977079D01*
X3005658Y-5977079D02*
X3015182Y-5958031D01*
X3015182Y-5958031D02*
X3024706Y-5948508D01*
X3024706Y-5948508D02*
X3043753Y-5938984D01*
X3043753Y-5938984D02*
X3081848Y-5938984D01*
X3081848Y-5938984D02*
X3100896Y-5948508D01*
X3100896Y-5948508D02*
X3110420Y-5958031D01*
X3110420Y-5958031D02*
X3119944Y-5977079D01*
X3119944Y-5977079D02*
X3119944Y-5986603D01*
X3119944Y-5986603D02*
X3110420Y-6005650D01*
X3110420Y-6005650D02*
X3100896Y-6015174D01*
X3100896Y-6015174D02*
X3081848Y-6024698D01*
X3081848Y-6024698D02*
X3043753Y-6024698D01*
X3043753Y-6024698D02*
X3024706Y-6034222D01*
X3024706Y-6034222D02*
X3015182Y-6043746D01*
X3015182Y-6043746D02*
X3005658Y-6062793D01*
X3005658Y-6062793D02*
X3005658Y-6100888D01*
X3005658Y-6100888D02*
X3015182Y-6119936D01*
X3015182Y-6119936D02*
X3024706Y-6129460D01*
X3024706Y-6129460D02*
X3043753Y-6138984D01*
X3043753Y-6138984D02*
X3081848Y-6138984D01*
X3081848Y-6138984D02*
X3100896Y-6129460D01*
X3100896Y-6129460D02*
X3110420Y-6119936D01*
X3110420Y-6119936D02*
X3119944Y-6100888D01*
X3119944Y-6100888D02*
X3119944Y-6062793D01*
X3119944Y-6062793D02*
X3110420Y-6043746D01*
X3110420Y-6043746D02*
X3100896Y-6034222D01*
X3100896Y-6034222D02*
X3081848Y-6024698D01*
X3196134Y-5938984D02*
X3196134Y-5977079D01*
X3272325Y-5938984D02*
X3272325Y-5977079D01*
X3567563Y-6215174D02*
X3558039Y-6205650D01*
X3558039Y-6205650D02*
X3538991Y-6177079D01*
X3538991Y-6177079D02*
X3529468Y-6158031D01*
X3529468Y-6158031D02*
X3519944Y-6129460D01*
X3519944Y-6129460D02*
X3510420Y-6081841D01*
X3510420Y-6081841D02*
X3510420Y-6043746D01*
X3510420Y-6043746D02*
X3519944Y-5996127D01*
X3519944Y-5996127D02*
X3529468Y-5967555D01*
X3529468Y-5967555D02*
X3538991Y-5948508D01*
X3538991Y-5948508D02*
X3558039Y-5919936D01*
X3558039Y-5919936D02*
X3567563Y-5910412D01*
X3634229Y-5958031D02*
X3643753Y-5948508D01*
X3643753Y-5948508D02*
X3662801Y-5938984D01*
X3662801Y-5938984D02*
X3710420Y-5938984D01*
X3710420Y-5938984D02*
X3729468Y-5948508D01*
X3729468Y-5948508D02*
X3738991Y-5958031D01*
X3738991Y-5958031D02*
X3748515Y-5977079D01*
X3748515Y-5977079D02*
X3748515Y-5996127D01*
X3748515Y-5996127D02*
X3738991Y-6024698D01*
X3738991Y-6024698D02*
X3624706Y-6138984D01*
X3624706Y-6138984D02*
X3748515Y-6138984D01*
X3824706Y-5958031D02*
X3834229Y-5948508D01*
X3834229Y-5948508D02*
X3853277Y-5938984D01*
X3853277Y-5938984D02*
X3900896Y-5938984D01*
X3900896Y-5938984D02*
X3919944Y-5948508D01*
X3919944Y-5948508D02*
X3929468Y-5958031D01*
X3929468Y-5958031D02*
X3938991Y-5977079D01*
X3938991Y-5977079D02*
X3938991Y-5996127D01*
X3938991Y-5996127D02*
X3929468Y-6024698D01*
X3929468Y-6024698D02*
X3815182Y-6138984D01*
X3815182Y-6138984D02*
X3938991Y-6138984D01*
X4177087Y-6138984D02*
X4177087Y-5938984D01*
X4262801Y-6138984D02*
X4262801Y-6034222D01*
X4262801Y-6034222D02*
X4253277Y-6015174D01*
X4253277Y-6015174D02*
X4234230Y-6005650D01*
X4234230Y-6005650D02*
X4205658Y-6005650D01*
X4205658Y-6005650D02*
X4186610Y-6015174D01*
X4186610Y-6015174D02*
X4177087Y-6024698D01*
X4386611Y-6138984D02*
X4367563Y-6129460D01*
X4367563Y-6129460D02*
X4358039Y-6119936D01*
X4358039Y-6119936D02*
X4348515Y-6100888D01*
X4348515Y-6100888D02*
X4348515Y-6043746D01*
X4348515Y-6043746D02*
X4358039Y-6024698D01*
X4358039Y-6024698D02*
X4367563Y-6015174D01*
X4367563Y-6015174D02*
X4386611Y-6005650D01*
X4386611Y-6005650D02*
X4415182Y-6005650D01*
X4415182Y-6005650D02*
X4434230Y-6015174D01*
X4434230Y-6015174D02*
X4443753Y-6024698D01*
X4443753Y-6024698D02*
X4453277Y-6043746D01*
X4453277Y-6043746D02*
X4453277Y-6100888D01*
X4453277Y-6100888D02*
X4443753Y-6119936D01*
X4443753Y-6119936D02*
X4434230Y-6129460D01*
X4434230Y-6129460D02*
X4415182Y-6138984D01*
X4415182Y-6138984D02*
X4386611Y-6138984D01*
X4567563Y-6138984D02*
X4548515Y-6129460D01*
X4548515Y-6129460D02*
X4538992Y-6110412D01*
X4538992Y-6110412D02*
X4538992Y-5938984D01*
X4719944Y-6129460D02*
X4700896Y-6138984D01*
X4700896Y-6138984D02*
X4662801Y-6138984D01*
X4662801Y-6138984D02*
X4643753Y-6129460D01*
X4643753Y-6129460D02*
X4634230Y-6110412D01*
X4634230Y-6110412D02*
X4634230Y-6034222D01*
X4634230Y-6034222D02*
X4643753Y-6015174D01*
X4643753Y-6015174D02*
X4662801Y-6005650D01*
X4662801Y-6005650D02*
X4700896Y-6005650D01*
X4700896Y-6005650D02*
X4719944Y-6015174D01*
X4719944Y-6015174D02*
X4729468Y-6034222D01*
X4729468Y-6034222D02*
X4729468Y-6053269D01*
X4729468Y-6053269D02*
X4634230Y-6072317D01*
X4805658Y-6129460D02*
X4824706Y-6138984D01*
X4824706Y-6138984D02*
X4862801Y-6138984D01*
X4862801Y-6138984D02*
X4881849Y-6129460D01*
X4881849Y-6129460D02*
X4891373Y-6110412D01*
X4891373Y-6110412D02*
X4891373Y-6100888D01*
X4891373Y-6100888D02*
X4881849Y-6081841D01*
X4881849Y-6081841D02*
X4862801Y-6072317D01*
X4862801Y-6072317D02*
X4834230Y-6072317D01*
X4834230Y-6072317D02*
X4815182Y-6062793D01*
X4815182Y-6062793D02*
X4805658Y-6043746D01*
X4805658Y-6043746D02*
X4805658Y-6034222D01*
X4805658Y-6034222D02*
X4815182Y-6015174D01*
X4815182Y-6015174D02*
X4834230Y-6005650D01*
X4834230Y-6005650D02*
X4862801Y-6005650D01*
X4862801Y-6005650D02*
X4881849Y-6015174D01*
X4958039Y-6215174D02*
X4967563Y-6205650D01*
X4967563Y-6205650D02*
X4986611Y-6177079D01*
X4986611Y-6177079D02*
X4996134Y-6158031D01*
X4996134Y-6158031D02*
X5005658Y-6129460D01*
X5005658Y-6129460D02*
X5015182Y-6081841D01*
X5015182Y-6081841D02*
X5015182Y-6043746D01*
X5015182Y-6043746D02*
X5005658Y-5996127D01*
X5005658Y-5996127D02*
X4996134Y-5967555D01*
X4996134Y-5967555D02*
X4986611Y-5948508D01*
X4986611Y-5948508D02*
X4967563Y-5919936D01*
X4967563Y-5919936D02*
X4958039Y-5910412D01*
D12*
X-7500Y-6311500D02*
G75*
G02*
X-47500Y-6311500I-20000J0D01*
G01*
X-47500Y-6311500D02*
G75*
G02*
X-7500Y-6311500I20000J0D01*
G01*
D11*
X291372Y-6202984D02*
X310420Y-6202984D01*
X310420Y-6202984D02*
X329467Y-6212508D01*
X329467Y-6212508D02*
X338991Y-6222031D01*
X338991Y-6222031D02*
X348515Y-6241079D01*
X348515Y-6241079D02*
X358039Y-6279174D01*
X358039Y-6279174D02*
X358039Y-6326793D01*
X358039Y-6326793D02*
X348515Y-6364888D01*
X348515Y-6364888D02*
X338991Y-6383936D01*
X338991Y-6383936D02*
X329467Y-6393460D01*
X329467Y-6393460D02*
X310420Y-6402984D01*
X310420Y-6402984D02*
X291372Y-6402984D01*
X291372Y-6402984D02*
X272324Y-6393460D01*
X272324Y-6393460D02*
X262801Y-6383936D01*
X262801Y-6383936D02*
X253277Y-6364888D01*
X253277Y-6364888D02*
X243753Y-6326793D01*
X243753Y-6326793D02*
X243753Y-6279174D01*
X243753Y-6279174D02*
X253277Y-6241079D01*
X253277Y-6241079D02*
X262801Y-6222031D01*
X262801Y-6222031D02*
X272324Y-6212508D01*
X272324Y-6212508D02*
X291372Y-6202984D01*
X443753Y-6383936D02*
X453277Y-6393460D01*
X453277Y-6393460D02*
X443753Y-6402984D01*
X443753Y-6402984D02*
X434229Y-6393460D01*
X434229Y-6393460D02*
X443753Y-6383936D01*
X443753Y-6383936D02*
X443753Y-6402984D01*
X624705Y-6269650D02*
X624705Y-6402984D01*
X577086Y-6193460D02*
X529467Y-6336317D01*
X529467Y-6336317D02*
X653277Y-6336317D01*
X767562Y-6202984D02*
X786610Y-6202984D01*
X786610Y-6202984D02*
X805658Y-6212508D01*
X805658Y-6212508D02*
X815182Y-6222031D01*
X815182Y-6222031D02*
X824705Y-6241079D01*
X824705Y-6241079D02*
X834229Y-6279174D01*
X834229Y-6279174D02*
X834229Y-6326793D01*
X834229Y-6326793D02*
X824705Y-6364888D01*
X824705Y-6364888D02*
X815182Y-6383936D01*
X815182Y-6383936D02*
X805658Y-6393460D01*
X805658Y-6393460D02*
X786610Y-6402984D01*
X786610Y-6402984D02*
X767562Y-6402984D01*
X767562Y-6402984D02*
X748515Y-6393460D01*
X748515Y-6393460D02*
X738991Y-6383936D01*
X738991Y-6383936D02*
X729467Y-6364888D01*
X729467Y-6364888D02*
X719943Y-6326793D01*
X719943Y-6326793D02*
X719943Y-6279174D01*
X719943Y-6279174D02*
X729467Y-6241079D01*
X729467Y-6241079D02*
X738991Y-6222031D01*
X738991Y-6222031D02*
X748515Y-6212508D01*
X748515Y-6212508D02*
X767562Y-6202984D01*
X958039Y-6202984D02*
X977086Y-6202984D01*
X977086Y-6202984D02*
X996134Y-6212508D01*
X996134Y-6212508D02*
X1005658Y-6222031D01*
X1005658Y-6222031D02*
X1015182Y-6241079D01*
X1015182Y-6241079D02*
X1024705Y-6279174D01*
X1024705Y-6279174D02*
X1024705Y-6326793D01*
X1024705Y-6326793D02*
X1015182Y-6364888D01*
X1015182Y-6364888D02*
X1005658Y-6383936D01*
X1005658Y-6383936D02*
X996134Y-6393460D01*
X996134Y-6393460D02*
X977086Y-6402984D01*
X977086Y-6402984D02*
X958039Y-6402984D01*
X958039Y-6402984D02*
X938991Y-6393460D01*
X938991Y-6393460D02*
X929467Y-6383936D01*
X929467Y-6383936D02*
X919943Y-6364888D01*
X919943Y-6364888D02*
X910420Y-6326793D01*
X910420Y-6326793D02*
X910420Y-6279174D01*
X910420Y-6279174D02*
X919943Y-6241079D01*
X919943Y-6241079D02*
X929467Y-6222031D01*
X929467Y-6222031D02*
X938991Y-6212508D01*
X938991Y-6212508D02*
X958039Y-6202984D01*
X1110420Y-6402984D02*
X1110420Y-6269650D01*
X1110420Y-6288698D02*
X1119944Y-6279174D01*
X1119944Y-6279174D02*
X1138991Y-6269650D01*
X1138991Y-6269650D02*
X1167563Y-6269650D01*
X1167563Y-6269650D02*
X1186610Y-6279174D01*
X1186610Y-6279174D02*
X1196134Y-6298222D01*
X1196134Y-6298222D02*
X1196134Y-6402984D01*
X1196134Y-6298222D02*
X1205658Y-6279174D01*
X1205658Y-6279174D02*
X1224705Y-6269650D01*
X1224705Y-6269650D02*
X1253277Y-6269650D01*
X1253277Y-6269650D02*
X1272325Y-6279174D01*
X1272325Y-6279174D02*
X1281848Y-6298222D01*
X1281848Y-6298222D02*
X1281848Y-6402984D01*
X1377086Y-6402984D02*
X1377086Y-6269650D01*
X1377086Y-6288698D02*
X1386610Y-6279174D01*
X1386610Y-6279174D02*
X1405658Y-6269650D01*
X1405658Y-6269650D02*
X1434229Y-6269650D01*
X1434229Y-6269650D02*
X1453277Y-6279174D01*
X1453277Y-6279174D02*
X1462801Y-6298222D01*
X1462801Y-6298222D02*
X1462801Y-6402984D01*
X1462801Y-6298222D02*
X1472324Y-6279174D01*
X1472324Y-6279174D02*
X1491372Y-6269650D01*
X1491372Y-6269650D02*
X1519943Y-6269650D01*
X1519943Y-6269650D02*
X1538991Y-6279174D01*
X1538991Y-6279174D02*
X1548515Y-6298222D01*
X1548515Y-6298222D02*
X1548515Y-6402984D01*
X1938991Y-6193460D02*
X1767563Y-6450603D01*
X2196134Y-6202984D02*
X2215182Y-6202984D01*
X2215182Y-6202984D02*
X2234229Y-6212508D01*
X2234229Y-6212508D02*
X2243753Y-6222031D01*
X2243753Y-6222031D02*
X2253277Y-6241079D01*
X2253277Y-6241079D02*
X2262801Y-6279174D01*
X2262801Y-6279174D02*
X2262801Y-6326793D01*
X2262801Y-6326793D02*
X2253277Y-6364888D01*
X2253277Y-6364888D02*
X2243753Y-6383936D01*
X2243753Y-6383936D02*
X2234229Y-6393460D01*
X2234229Y-6393460D02*
X2215182Y-6402984D01*
X2215182Y-6402984D02*
X2196134Y-6402984D01*
X2196134Y-6402984D02*
X2177087Y-6393460D01*
X2177087Y-6393460D02*
X2167563Y-6383936D01*
X2167563Y-6383936D02*
X2158039Y-6364888D01*
X2158039Y-6364888D02*
X2148515Y-6326793D01*
X2148515Y-6326793D02*
X2148515Y-6279174D01*
X2148515Y-6279174D02*
X2158039Y-6241079D01*
X2158039Y-6241079D02*
X2167563Y-6222031D01*
X2167563Y-6222031D02*
X2177087Y-6212508D01*
X2177087Y-6212508D02*
X2196134Y-6202984D01*
X2348515Y-6383936D02*
X2358039Y-6393460D01*
X2358039Y-6393460D02*
X2348515Y-6402984D01*
X2348515Y-6402984D02*
X2338991Y-6393460D01*
X2338991Y-6393460D02*
X2348515Y-6383936D01*
X2348515Y-6383936D02*
X2348515Y-6402984D01*
X2481848Y-6202984D02*
X2500896Y-6202984D01*
X2500896Y-6202984D02*
X2519944Y-6212508D01*
X2519944Y-6212508D02*
X2529468Y-6222031D01*
X2529468Y-6222031D02*
X2538991Y-6241079D01*
X2538991Y-6241079D02*
X2548515Y-6279174D01*
X2548515Y-6279174D02*
X2548515Y-6326793D01*
X2548515Y-6326793D02*
X2538991Y-6364888D01*
X2538991Y-6364888D02*
X2529468Y-6383936D01*
X2529468Y-6383936D02*
X2519944Y-6393460D01*
X2519944Y-6393460D02*
X2500896Y-6402984D01*
X2500896Y-6402984D02*
X2481848Y-6402984D01*
X2481848Y-6402984D02*
X2462801Y-6393460D01*
X2462801Y-6393460D02*
X2453277Y-6383936D01*
X2453277Y-6383936D02*
X2443753Y-6364888D01*
X2443753Y-6364888D02*
X2434229Y-6326793D01*
X2434229Y-6326793D02*
X2434229Y-6279174D01*
X2434229Y-6279174D02*
X2443753Y-6241079D01*
X2443753Y-6241079D02*
X2453277Y-6222031D01*
X2453277Y-6222031D02*
X2462801Y-6212508D01*
X2462801Y-6212508D02*
X2481848Y-6202984D01*
X2738991Y-6402984D02*
X2624706Y-6402984D01*
X2681848Y-6402984D02*
X2681848Y-6202984D01*
X2681848Y-6202984D02*
X2662801Y-6231555D01*
X2662801Y-6231555D02*
X2643753Y-6250603D01*
X2643753Y-6250603D02*
X2624706Y-6260127D01*
X2919944Y-6202984D02*
X2824706Y-6202984D01*
X2824706Y-6202984D02*
X2815182Y-6298222D01*
X2815182Y-6298222D02*
X2824706Y-6288698D01*
X2824706Y-6288698D02*
X2843753Y-6279174D01*
X2843753Y-6279174D02*
X2891372Y-6279174D01*
X2891372Y-6279174D02*
X2910420Y-6288698D01*
X2910420Y-6288698D02*
X2919944Y-6298222D01*
X2919944Y-6298222D02*
X2929467Y-6317269D01*
X2929467Y-6317269D02*
X2929467Y-6364888D01*
X2929467Y-6364888D02*
X2919944Y-6383936D01*
X2919944Y-6383936D02*
X2910420Y-6393460D01*
X2910420Y-6393460D02*
X2891372Y-6402984D01*
X2891372Y-6402984D02*
X2843753Y-6402984D01*
X2843753Y-6402984D02*
X2824706Y-6393460D01*
X2824706Y-6393460D02*
X2815182Y-6383936D01*
X2996134Y-6202984D02*
X3129467Y-6202984D01*
X3129467Y-6202984D02*
X3043753Y-6402984D01*
X3196134Y-6202984D02*
X3196134Y-6241079D01*
X3272325Y-6202984D02*
X3272325Y-6241079D01*
X3567563Y-6479174D02*
X3558039Y-6469650D01*
X3558039Y-6469650D02*
X3538991Y-6441079D01*
X3538991Y-6441079D02*
X3529468Y-6422031D01*
X3529468Y-6422031D02*
X3519944Y-6393460D01*
X3519944Y-6393460D02*
X3510420Y-6345841D01*
X3510420Y-6345841D02*
X3510420Y-6307746D01*
X3510420Y-6307746D02*
X3519944Y-6260127D01*
X3519944Y-6260127D02*
X3529468Y-6231555D01*
X3529468Y-6231555D02*
X3538991Y-6212508D01*
X3538991Y-6212508D02*
X3558039Y-6183936D01*
X3558039Y-6183936D02*
X3567563Y-6174412D01*
X3624706Y-6202984D02*
X3758039Y-6202984D01*
X3758039Y-6202984D02*
X3672325Y-6402984D01*
X3929468Y-6202984D02*
X3834229Y-6202984D01*
X3834229Y-6202984D02*
X3824706Y-6298222D01*
X3824706Y-6298222D02*
X3834229Y-6288698D01*
X3834229Y-6288698D02*
X3853277Y-6279174D01*
X3853277Y-6279174D02*
X3900896Y-6279174D01*
X3900896Y-6279174D02*
X3919944Y-6288698D01*
X3919944Y-6288698D02*
X3929468Y-6298222D01*
X3929468Y-6298222D02*
X3938991Y-6317269D01*
X3938991Y-6317269D02*
X3938991Y-6364888D01*
X3938991Y-6364888D02*
X3929468Y-6383936D01*
X3929468Y-6383936D02*
X3919944Y-6393460D01*
X3919944Y-6393460D02*
X3900896Y-6402984D01*
X3900896Y-6402984D02*
X3853277Y-6402984D01*
X3853277Y-6402984D02*
X3834229Y-6393460D01*
X3834229Y-6393460D02*
X3824706Y-6383936D01*
X4177087Y-6402984D02*
X4177087Y-6202984D01*
X4262801Y-6402984D02*
X4262801Y-6298222D01*
X4262801Y-6298222D02*
X4253277Y-6279174D01*
X4253277Y-6279174D02*
X4234230Y-6269650D01*
X4234230Y-6269650D02*
X4205658Y-6269650D01*
X4205658Y-6269650D02*
X4186610Y-6279174D01*
X4186610Y-6279174D02*
X4177087Y-6288698D01*
X4386611Y-6402984D02*
X4367563Y-6393460D01*
X4367563Y-6393460D02*
X4358039Y-6383936D01*
X4358039Y-6383936D02*
X4348515Y-6364888D01*
X4348515Y-6364888D02*
X4348515Y-6307746D01*
X4348515Y-6307746D02*
X4358039Y-6288698D01*
X4358039Y-6288698D02*
X4367563Y-6279174D01*
X4367563Y-6279174D02*
X4386611Y-6269650D01*
X4386611Y-6269650D02*
X4415182Y-6269650D01*
X4415182Y-6269650D02*
X4434230Y-6279174D01*
X4434230Y-6279174D02*
X4443753Y-6288698D01*
X4443753Y-6288698D02*
X4453277Y-6307746D01*
X4453277Y-6307746D02*
X4453277Y-6364888D01*
X4453277Y-6364888D02*
X4443753Y-6383936D01*
X4443753Y-6383936D02*
X4434230Y-6393460D01*
X4434230Y-6393460D02*
X4415182Y-6402984D01*
X4415182Y-6402984D02*
X4386611Y-6402984D01*
X4567563Y-6402984D02*
X4548515Y-6393460D01*
X4548515Y-6393460D02*
X4538992Y-6374412D01*
X4538992Y-6374412D02*
X4538992Y-6202984D01*
X4719944Y-6393460D02*
X4700896Y-6402984D01*
X4700896Y-6402984D02*
X4662801Y-6402984D01*
X4662801Y-6402984D02*
X4643753Y-6393460D01*
X4643753Y-6393460D02*
X4634230Y-6374412D01*
X4634230Y-6374412D02*
X4634230Y-6298222D01*
X4634230Y-6298222D02*
X4643753Y-6279174D01*
X4643753Y-6279174D02*
X4662801Y-6269650D01*
X4662801Y-6269650D02*
X4700896Y-6269650D01*
X4700896Y-6269650D02*
X4719944Y-6279174D01*
X4719944Y-6279174D02*
X4729468Y-6298222D01*
X4729468Y-6298222D02*
X4729468Y-6317269D01*
X4729468Y-6317269D02*
X4634230Y-6336317D01*
X4805658Y-6393460D02*
X4824706Y-6402984D01*
X4824706Y-6402984D02*
X4862801Y-6402984D01*
X4862801Y-6402984D02*
X4881849Y-6393460D01*
X4881849Y-6393460D02*
X4891373Y-6374412D01*
X4891373Y-6374412D02*
X4891373Y-6364888D01*
X4891373Y-6364888D02*
X4881849Y-6345841D01*
X4881849Y-6345841D02*
X4862801Y-6336317D01*
X4862801Y-6336317D02*
X4834230Y-6336317D01*
X4834230Y-6336317D02*
X4815182Y-6326793D01*
X4815182Y-6326793D02*
X4805658Y-6307746D01*
X4805658Y-6307746D02*
X4805658Y-6298222D01*
X4805658Y-6298222D02*
X4815182Y-6279174D01*
X4815182Y-6279174D02*
X4834230Y-6269650D01*
X4834230Y-6269650D02*
X4862801Y-6269650D01*
X4862801Y-6269650D02*
X4881849Y-6279174D01*
X4958039Y-6479174D02*
X4967563Y-6469650D01*
X4967563Y-6469650D02*
X4986611Y-6441079D01*
X4986611Y-6441079D02*
X4996134Y-6422031D01*
X4996134Y-6422031D02*
X5005658Y-6393460D01*
X5005658Y-6393460D02*
X5015182Y-6345841D01*
X5015182Y-6345841D02*
X5015182Y-6307746D01*
X5015182Y-6307746D02*
X5005658Y-6260127D01*
X5005658Y-6260127D02*
X4996134Y-6231555D01*
X4996134Y-6231555D02*
X4986611Y-6212508D01*
X4986611Y-6212508D02*
X4967563Y-6183936D01*
X4967563Y-6183936D02*
X4958039Y-6174412D01*
D12*
X-57500Y-6525500D02*
X-57500Y-6625500D01*
X-107500Y-6575500D02*
X-7500Y-6575500D01*
D11*
X358039Y-6666984D02*
X243753Y-6666984D01*
X300896Y-6666984D02*
X300896Y-6466984D01*
X300896Y-6466984D02*
X281848Y-6495555D01*
X281848Y-6495555D02*
X262801Y-6514603D01*
X262801Y-6514603D02*
X243753Y-6524127D01*
X443753Y-6647936D02*
X453277Y-6657460D01*
X453277Y-6657460D02*
X443753Y-6666984D01*
X443753Y-6666984D02*
X434229Y-6657460D01*
X434229Y-6657460D02*
X443753Y-6647936D01*
X443753Y-6647936D02*
X443753Y-6666984D01*
X577086Y-6466984D02*
X596134Y-6466984D01*
X596134Y-6466984D02*
X615182Y-6476508D01*
X615182Y-6476508D02*
X624705Y-6486031D01*
X624705Y-6486031D02*
X634229Y-6505079D01*
X634229Y-6505079D02*
X643753Y-6543174D01*
X643753Y-6543174D02*
X643753Y-6590793D01*
X643753Y-6590793D02*
X634229Y-6628888D01*
X634229Y-6628888D02*
X624705Y-6647936D01*
X624705Y-6647936D02*
X615182Y-6657460D01*
X615182Y-6657460D02*
X596134Y-6666984D01*
X596134Y-6666984D02*
X577086Y-6666984D01*
X577086Y-6666984D02*
X558039Y-6657460D01*
X558039Y-6657460D02*
X548515Y-6647936D01*
X548515Y-6647936D02*
X538991Y-6628888D01*
X538991Y-6628888D02*
X529467Y-6590793D01*
X529467Y-6590793D02*
X529467Y-6543174D01*
X529467Y-6543174D02*
X538991Y-6505079D01*
X538991Y-6505079D02*
X548515Y-6486031D01*
X548515Y-6486031D02*
X558039Y-6476508D01*
X558039Y-6476508D02*
X577086Y-6466984D01*
X767562Y-6466984D02*
X786610Y-6466984D01*
X786610Y-6466984D02*
X805658Y-6476508D01*
X805658Y-6476508D02*
X815182Y-6486031D01*
X815182Y-6486031D02*
X824705Y-6505079D01*
X824705Y-6505079D02*
X834229Y-6543174D01*
X834229Y-6543174D02*
X834229Y-6590793D01*
X834229Y-6590793D02*
X824705Y-6628888D01*
X824705Y-6628888D02*
X815182Y-6647936D01*
X815182Y-6647936D02*
X805658Y-6657460D01*
X805658Y-6657460D02*
X786610Y-6666984D01*
X786610Y-6666984D02*
X767562Y-6666984D01*
X767562Y-6666984D02*
X748515Y-6657460D01*
X748515Y-6657460D02*
X738991Y-6647936D01*
X738991Y-6647936D02*
X729467Y-6628888D01*
X729467Y-6628888D02*
X719943Y-6590793D01*
X719943Y-6590793D02*
X719943Y-6543174D01*
X719943Y-6543174D02*
X729467Y-6505079D01*
X729467Y-6505079D02*
X738991Y-6486031D01*
X738991Y-6486031D02*
X748515Y-6476508D01*
X748515Y-6476508D02*
X767562Y-6466984D01*
X958039Y-6466984D02*
X977086Y-6466984D01*
X977086Y-6466984D02*
X996134Y-6476508D01*
X996134Y-6476508D02*
X1005658Y-6486031D01*
X1005658Y-6486031D02*
X1015182Y-6505079D01*
X1015182Y-6505079D02*
X1024705Y-6543174D01*
X1024705Y-6543174D02*
X1024705Y-6590793D01*
X1024705Y-6590793D02*
X1015182Y-6628888D01*
X1015182Y-6628888D02*
X1005658Y-6647936D01*
X1005658Y-6647936D02*
X996134Y-6657460D01*
X996134Y-6657460D02*
X977086Y-6666984D01*
X977086Y-6666984D02*
X958039Y-6666984D01*
X958039Y-6666984D02*
X938991Y-6657460D01*
X938991Y-6657460D02*
X929467Y-6647936D01*
X929467Y-6647936D02*
X919943Y-6628888D01*
X919943Y-6628888D02*
X910420Y-6590793D01*
X910420Y-6590793D02*
X910420Y-6543174D01*
X910420Y-6543174D02*
X919943Y-6505079D01*
X919943Y-6505079D02*
X929467Y-6486031D01*
X929467Y-6486031D02*
X938991Y-6476508D01*
X938991Y-6476508D02*
X958039Y-6466984D01*
X1110420Y-6666984D02*
X1110420Y-6533650D01*
X1110420Y-6552698D02*
X1119944Y-6543174D01*
X1119944Y-6543174D02*
X1138991Y-6533650D01*
X1138991Y-6533650D02*
X1167563Y-6533650D01*
X1167563Y-6533650D02*
X1186610Y-6543174D01*
X1186610Y-6543174D02*
X1196134Y-6562222D01*
X1196134Y-6562222D02*
X1196134Y-6666984D01*
X1196134Y-6562222D02*
X1205658Y-6543174D01*
X1205658Y-6543174D02*
X1224705Y-6533650D01*
X1224705Y-6533650D02*
X1253277Y-6533650D01*
X1253277Y-6533650D02*
X1272325Y-6543174D01*
X1272325Y-6543174D02*
X1281848Y-6562222D01*
X1281848Y-6562222D02*
X1281848Y-6666984D01*
X1377086Y-6666984D02*
X1377086Y-6533650D01*
X1377086Y-6552698D02*
X1386610Y-6543174D01*
X1386610Y-6543174D02*
X1405658Y-6533650D01*
X1405658Y-6533650D02*
X1434229Y-6533650D01*
X1434229Y-6533650D02*
X1453277Y-6543174D01*
X1453277Y-6543174D02*
X1462801Y-6562222D01*
X1462801Y-6562222D02*
X1462801Y-6666984D01*
X1462801Y-6562222D02*
X1472324Y-6543174D01*
X1472324Y-6543174D02*
X1491372Y-6533650D01*
X1491372Y-6533650D02*
X1519943Y-6533650D01*
X1519943Y-6533650D02*
X1538991Y-6543174D01*
X1538991Y-6543174D02*
X1548515Y-6562222D01*
X1548515Y-6562222D02*
X1548515Y-6666984D01*
X1938991Y-6457460D02*
X1767563Y-6714603D01*
X2196134Y-6466984D02*
X2215182Y-6466984D01*
X2215182Y-6466984D02*
X2234229Y-6476508D01*
X2234229Y-6476508D02*
X2243753Y-6486031D01*
X2243753Y-6486031D02*
X2253277Y-6505079D01*
X2253277Y-6505079D02*
X2262801Y-6543174D01*
X2262801Y-6543174D02*
X2262801Y-6590793D01*
X2262801Y-6590793D02*
X2253277Y-6628888D01*
X2253277Y-6628888D02*
X2243753Y-6647936D01*
X2243753Y-6647936D02*
X2234229Y-6657460D01*
X2234229Y-6657460D02*
X2215182Y-6666984D01*
X2215182Y-6666984D02*
X2196134Y-6666984D01*
X2196134Y-6666984D02*
X2177087Y-6657460D01*
X2177087Y-6657460D02*
X2167563Y-6647936D01*
X2167563Y-6647936D02*
X2158039Y-6628888D01*
X2158039Y-6628888D02*
X2148515Y-6590793D01*
X2148515Y-6590793D02*
X2148515Y-6543174D01*
X2148515Y-6543174D02*
X2158039Y-6505079D01*
X2158039Y-6505079D02*
X2167563Y-6486031D01*
X2167563Y-6486031D02*
X2177087Y-6476508D01*
X2177087Y-6476508D02*
X2196134Y-6466984D01*
X2348515Y-6647936D02*
X2358039Y-6657460D01*
X2358039Y-6657460D02*
X2348515Y-6666984D01*
X2348515Y-6666984D02*
X2338991Y-6657460D01*
X2338991Y-6657460D02*
X2348515Y-6647936D01*
X2348515Y-6647936D02*
X2348515Y-6666984D01*
X2481848Y-6466984D02*
X2500896Y-6466984D01*
X2500896Y-6466984D02*
X2519944Y-6476508D01*
X2519944Y-6476508D02*
X2529468Y-6486031D01*
X2529468Y-6486031D02*
X2538991Y-6505079D01*
X2538991Y-6505079D02*
X2548515Y-6543174D01*
X2548515Y-6543174D02*
X2548515Y-6590793D01*
X2548515Y-6590793D02*
X2538991Y-6628888D01*
X2538991Y-6628888D02*
X2529468Y-6647936D01*
X2529468Y-6647936D02*
X2519944Y-6657460D01*
X2519944Y-6657460D02*
X2500896Y-6666984D01*
X2500896Y-6666984D02*
X2481848Y-6666984D01*
X2481848Y-6666984D02*
X2462801Y-6657460D01*
X2462801Y-6657460D02*
X2453277Y-6647936D01*
X2453277Y-6647936D02*
X2443753Y-6628888D01*
X2443753Y-6628888D02*
X2434229Y-6590793D01*
X2434229Y-6590793D02*
X2434229Y-6543174D01*
X2434229Y-6543174D02*
X2443753Y-6505079D01*
X2443753Y-6505079D02*
X2453277Y-6486031D01*
X2453277Y-6486031D02*
X2462801Y-6476508D01*
X2462801Y-6476508D02*
X2481848Y-6466984D01*
X2615182Y-6466984D02*
X2738991Y-6466984D01*
X2738991Y-6466984D02*
X2672325Y-6543174D01*
X2672325Y-6543174D02*
X2700896Y-6543174D01*
X2700896Y-6543174D02*
X2719944Y-6552698D01*
X2719944Y-6552698D02*
X2729468Y-6562222D01*
X2729468Y-6562222D02*
X2738991Y-6581269D01*
X2738991Y-6581269D02*
X2738991Y-6628888D01*
X2738991Y-6628888D02*
X2729468Y-6647936D01*
X2729468Y-6647936D02*
X2719944Y-6657460D01*
X2719944Y-6657460D02*
X2700896Y-6666984D01*
X2700896Y-6666984D02*
X2643753Y-6666984D01*
X2643753Y-6666984D02*
X2624706Y-6657460D01*
X2624706Y-6657460D02*
X2615182Y-6647936D01*
X2834229Y-6666984D02*
X2872325Y-6666984D01*
X2872325Y-6666984D02*
X2891372Y-6657460D01*
X2891372Y-6657460D02*
X2900896Y-6647936D01*
X2900896Y-6647936D02*
X2919944Y-6619365D01*
X2919944Y-6619365D02*
X2929467Y-6581269D01*
X2929467Y-6581269D02*
X2929467Y-6505079D01*
X2929467Y-6505079D02*
X2919944Y-6486031D01*
X2919944Y-6486031D02*
X2910420Y-6476508D01*
X2910420Y-6476508D02*
X2891372Y-6466984D01*
X2891372Y-6466984D02*
X2853277Y-6466984D01*
X2853277Y-6466984D02*
X2834229Y-6476508D01*
X2834229Y-6476508D02*
X2824706Y-6486031D01*
X2824706Y-6486031D02*
X2815182Y-6505079D01*
X2815182Y-6505079D02*
X2815182Y-6552698D01*
X2815182Y-6552698D02*
X2824706Y-6571746D01*
X2824706Y-6571746D02*
X2834229Y-6581269D01*
X2834229Y-6581269D02*
X2853277Y-6590793D01*
X2853277Y-6590793D02*
X2891372Y-6590793D01*
X2891372Y-6590793D02*
X2910420Y-6581269D01*
X2910420Y-6581269D02*
X2919944Y-6571746D01*
X2919944Y-6571746D02*
X2929467Y-6552698D01*
X3100896Y-6533650D02*
X3100896Y-6666984D01*
X3053277Y-6457460D02*
X3005658Y-6600317D01*
X3005658Y-6600317D02*
X3129467Y-6600317D01*
X3196134Y-6466984D02*
X3196134Y-6505079D01*
X3272325Y-6466984D02*
X3272325Y-6505079D01*
X3567563Y-6743174D02*
X3558039Y-6733650D01*
X3558039Y-6733650D02*
X3538991Y-6705079D01*
X3538991Y-6705079D02*
X3529468Y-6686031D01*
X3529468Y-6686031D02*
X3519944Y-6657460D01*
X3519944Y-6657460D02*
X3510420Y-6609841D01*
X3510420Y-6609841D02*
X3510420Y-6571746D01*
X3510420Y-6571746D02*
X3519944Y-6524127D01*
X3519944Y-6524127D02*
X3529468Y-6495555D01*
X3529468Y-6495555D02*
X3538991Y-6476508D01*
X3538991Y-6476508D02*
X3558039Y-6447936D01*
X3558039Y-6447936D02*
X3567563Y-6438412D01*
X3624706Y-6466984D02*
X3748515Y-6466984D01*
X3748515Y-6466984D02*
X3681848Y-6543174D01*
X3681848Y-6543174D02*
X3710420Y-6543174D01*
X3710420Y-6543174D02*
X3729468Y-6552698D01*
X3729468Y-6552698D02*
X3738991Y-6562222D01*
X3738991Y-6562222D02*
X3748515Y-6581269D01*
X3748515Y-6581269D02*
X3748515Y-6628888D01*
X3748515Y-6628888D02*
X3738991Y-6647936D01*
X3738991Y-6647936D02*
X3729468Y-6657460D01*
X3729468Y-6657460D02*
X3710420Y-6666984D01*
X3710420Y-6666984D02*
X3653277Y-6666984D01*
X3653277Y-6666984D02*
X3634229Y-6657460D01*
X3634229Y-6657460D02*
X3624706Y-6647936D01*
X3919944Y-6533650D02*
X3919944Y-6666984D01*
X3872325Y-6457460D02*
X3824706Y-6600317D01*
X3824706Y-6600317D02*
X3948515Y-6600317D01*
X4177087Y-6666984D02*
X4177087Y-6466984D01*
X4262801Y-6666984D02*
X4262801Y-6562222D01*
X4262801Y-6562222D02*
X4253277Y-6543174D01*
X4253277Y-6543174D02*
X4234230Y-6533650D01*
X4234230Y-6533650D02*
X4205658Y-6533650D01*
X4205658Y-6533650D02*
X4186610Y-6543174D01*
X4186610Y-6543174D02*
X4177087Y-6552698D01*
X4386611Y-6666984D02*
X4367563Y-6657460D01*
X4367563Y-6657460D02*
X4358039Y-6647936D01*
X4358039Y-6647936D02*
X4348515Y-6628888D01*
X4348515Y-6628888D02*
X4348515Y-6571746D01*
X4348515Y-6571746D02*
X4358039Y-6552698D01*
X4358039Y-6552698D02*
X4367563Y-6543174D01*
X4367563Y-6543174D02*
X4386611Y-6533650D01*
X4386611Y-6533650D02*
X4415182Y-6533650D01*
X4415182Y-6533650D02*
X4434230Y-6543174D01*
X4434230Y-6543174D02*
X4443753Y-6552698D01*
X4443753Y-6552698D02*
X4453277Y-6571746D01*
X4453277Y-6571746D02*
X4453277Y-6628888D01*
X4453277Y-6628888D02*
X4443753Y-6647936D01*
X4443753Y-6647936D02*
X4434230Y-6657460D01*
X4434230Y-6657460D02*
X4415182Y-6666984D01*
X4415182Y-6666984D02*
X4386611Y-6666984D01*
X4567563Y-6666984D02*
X4548515Y-6657460D01*
X4548515Y-6657460D02*
X4538992Y-6638412D01*
X4538992Y-6638412D02*
X4538992Y-6466984D01*
X4719944Y-6657460D02*
X4700896Y-6666984D01*
X4700896Y-6666984D02*
X4662801Y-6666984D01*
X4662801Y-6666984D02*
X4643753Y-6657460D01*
X4643753Y-6657460D02*
X4634230Y-6638412D01*
X4634230Y-6638412D02*
X4634230Y-6562222D01*
X4634230Y-6562222D02*
X4643753Y-6543174D01*
X4643753Y-6543174D02*
X4662801Y-6533650D01*
X4662801Y-6533650D02*
X4700896Y-6533650D01*
X4700896Y-6533650D02*
X4719944Y-6543174D01*
X4719944Y-6543174D02*
X4729468Y-6562222D01*
X4729468Y-6562222D02*
X4729468Y-6581269D01*
X4729468Y-6581269D02*
X4634230Y-6600317D01*
X4805658Y-6657460D02*
X4824706Y-6666984D01*
X4824706Y-6666984D02*
X4862801Y-6666984D01*
X4862801Y-6666984D02*
X4881849Y-6657460D01*
X4881849Y-6657460D02*
X4891373Y-6638412D01*
X4891373Y-6638412D02*
X4891373Y-6628888D01*
X4891373Y-6628888D02*
X4881849Y-6609841D01*
X4881849Y-6609841D02*
X4862801Y-6600317D01*
X4862801Y-6600317D02*
X4834230Y-6600317D01*
X4834230Y-6600317D02*
X4815182Y-6590793D01*
X4815182Y-6590793D02*
X4805658Y-6571746D01*
X4805658Y-6571746D02*
X4805658Y-6562222D01*
X4805658Y-6562222D02*
X4815182Y-6543174D01*
X4815182Y-6543174D02*
X4834230Y-6533650D01*
X4834230Y-6533650D02*
X4862801Y-6533650D01*
X4862801Y-6533650D02*
X4881849Y-6543174D01*
X4958039Y-6743174D02*
X4967563Y-6733650D01*
X4967563Y-6733650D02*
X4986611Y-6705079D01*
X4986611Y-6705079D02*
X4996134Y-6686031D01*
X4996134Y-6686031D02*
X5005658Y-6657460D01*
X5005658Y-6657460D02*
X5015182Y-6609841D01*
X5015182Y-6609841D02*
X5015182Y-6571746D01*
X5015182Y-6571746D02*
X5005658Y-6524127D01*
X5005658Y-6524127D02*
X4996134Y-6495555D01*
X4996134Y-6495555D02*
X4986611Y-6476508D01*
X4986611Y-6476508D02*
X4967563Y-6447936D01*
X4967563Y-6447936D02*
X4958039Y-6438412D01*
D13*
X-26538Y-6885462D02*
X-26538Y-6793538D01*
X-118462Y-6793538D01*
X-118462Y-6885462D01*
X-26538Y-6885462D01*
D11*
X358039Y-6930984D02*
X243753Y-6930984D01*
X300896Y-6930984D02*
X300896Y-6730984D01*
X300896Y-6730984D02*
X281848Y-6759555D01*
X281848Y-6759555D02*
X262801Y-6778603D01*
X262801Y-6778603D02*
X243753Y-6788127D01*
X443753Y-6911936D02*
X453277Y-6921460D01*
X453277Y-6921460D02*
X443753Y-6930984D01*
X443753Y-6930984D02*
X434229Y-6921460D01*
X434229Y-6921460D02*
X443753Y-6911936D01*
X443753Y-6911936D02*
X443753Y-6930984D01*
X519943Y-6730984D02*
X643753Y-6730984D01*
X643753Y-6730984D02*
X577086Y-6807174D01*
X577086Y-6807174D02*
X605658Y-6807174D01*
X605658Y-6807174D02*
X624705Y-6816698D01*
X624705Y-6816698D02*
X634229Y-6826222D01*
X634229Y-6826222D02*
X643753Y-6845269D01*
X643753Y-6845269D02*
X643753Y-6892888D01*
X643753Y-6892888D02*
X634229Y-6911936D01*
X634229Y-6911936D02*
X624705Y-6921460D01*
X624705Y-6921460D02*
X605658Y-6930984D01*
X605658Y-6930984D02*
X548515Y-6930984D01*
X548515Y-6930984D02*
X529467Y-6921460D01*
X529467Y-6921460D02*
X519943Y-6911936D01*
X767562Y-6730984D02*
X786610Y-6730984D01*
X786610Y-6730984D02*
X805658Y-6740508D01*
X805658Y-6740508D02*
X815182Y-6750031D01*
X815182Y-6750031D02*
X824705Y-6769079D01*
X824705Y-6769079D02*
X834229Y-6807174D01*
X834229Y-6807174D02*
X834229Y-6854793D01*
X834229Y-6854793D02*
X824705Y-6892888D01*
X824705Y-6892888D02*
X815182Y-6911936D01*
X815182Y-6911936D02*
X805658Y-6921460D01*
X805658Y-6921460D02*
X786610Y-6930984D01*
X786610Y-6930984D02*
X767562Y-6930984D01*
X767562Y-6930984D02*
X748515Y-6921460D01*
X748515Y-6921460D02*
X738991Y-6911936D01*
X738991Y-6911936D02*
X729467Y-6892888D01*
X729467Y-6892888D02*
X719943Y-6854793D01*
X719943Y-6854793D02*
X719943Y-6807174D01*
X719943Y-6807174D02*
X729467Y-6769079D01*
X729467Y-6769079D02*
X738991Y-6750031D01*
X738991Y-6750031D02*
X748515Y-6740508D01*
X748515Y-6740508D02*
X767562Y-6730984D01*
X958039Y-6730984D02*
X977086Y-6730984D01*
X977086Y-6730984D02*
X996134Y-6740508D01*
X996134Y-6740508D02*
X1005658Y-6750031D01*
X1005658Y-6750031D02*
X1015182Y-6769079D01*
X1015182Y-6769079D02*
X1024705Y-6807174D01*
X1024705Y-6807174D02*
X1024705Y-6854793D01*
X1024705Y-6854793D02*
X1015182Y-6892888D01*
X1015182Y-6892888D02*
X1005658Y-6911936D01*
X1005658Y-6911936D02*
X996134Y-6921460D01*
X996134Y-6921460D02*
X977086Y-6930984D01*
X977086Y-6930984D02*
X958039Y-6930984D01*
X958039Y-6930984D02*
X938991Y-6921460D01*
X938991Y-6921460D02*
X929467Y-6911936D01*
X929467Y-6911936D02*
X919943Y-6892888D01*
X919943Y-6892888D02*
X910420Y-6854793D01*
X910420Y-6854793D02*
X910420Y-6807174D01*
X910420Y-6807174D02*
X919943Y-6769079D01*
X919943Y-6769079D02*
X929467Y-6750031D01*
X929467Y-6750031D02*
X938991Y-6740508D01*
X938991Y-6740508D02*
X958039Y-6730984D01*
X1110420Y-6930984D02*
X1110420Y-6797650D01*
X1110420Y-6816698D02*
X1119944Y-6807174D01*
X1119944Y-6807174D02*
X1138991Y-6797650D01*
X1138991Y-6797650D02*
X1167563Y-6797650D01*
X1167563Y-6797650D02*
X1186610Y-6807174D01*
X1186610Y-6807174D02*
X1196134Y-6826222D01*
X1196134Y-6826222D02*
X1196134Y-6930984D01*
X1196134Y-6826222D02*
X1205658Y-6807174D01*
X1205658Y-6807174D02*
X1224705Y-6797650D01*
X1224705Y-6797650D02*
X1253277Y-6797650D01*
X1253277Y-6797650D02*
X1272325Y-6807174D01*
X1272325Y-6807174D02*
X1281848Y-6826222D01*
X1281848Y-6826222D02*
X1281848Y-6930984D01*
X1377086Y-6930984D02*
X1377086Y-6797650D01*
X1377086Y-6816698D02*
X1386610Y-6807174D01*
X1386610Y-6807174D02*
X1405658Y-6797650D01*
X1405658Y-6797650D02*
X1434229Y-6797650D01*
X1434229Y-6797650D02*
X1453277Y-6807174D01*
X1453277Y-6807174D02*
X1462801Y-6826222D01*
X1462801Y-6826222D02*
X1462801Y-6930984D01*
X1462801Y-6826222D02*
X1472324Y-6807174D01*
X1472324Y-6807174D02*
X1491372Y-6797650D01*
X1491372Y-6797650D02*
X1519943Y-6797650D01*
X1519943Y-6797650D02*
X1538991Y-6807174D01*
X1538991Y-6807174D02*
X1548515Y-6826222D01*
X1548515Y-6826222D02*
X1548515Y-6930984D01*
X1938991Y-6721460D02*
X1767563Y-6978603D01*
X2196134Y-6730984D02*
X2215182Y-6730984D01*
X2215182Y-6730984D02*
X2234229Y-6740508D01*
X2234229Y-6740508D02*
X2243753Y-6750031D01*
X2243753Y-6750031D02*
X2253277Y-6769079D01*
X2253277Y-6769079D02*
X2262801Y-6807174D01*
X2262801Y-6807174D02*
X2262801Y-6854793D01*
X2262801Y-6854793D02*
X2253277Y-6892888D01*
X2253277Y-6892888D02*
X2243753Y-6911936D01*
X2243753Y-6911936D02*
X2234229Y-6921460D01*
X2234229Y-6921460D02*
X2215182Y-6930984D01*
X2215182Y-6930984D02*
X2196134Y-6930984D01*
X2196134Y-6930984D02*
X2177087Y-6921460D01*
X2177087Y-6921460D02*
X2167563Y-6911936D01*
X2167563Y-6911936D02*
X2158039Y-6892888D01*
X2158039Y-6892888D02*
X2148515Y-6854793D01*
X2148515Y-6854793D02*
X2148515Y-6807174D01*
X2148515Y-6807174D02*
X2158039Y-6769079D01*
X2158039Y-6769079D02*
X2167563Y-6750031D01*
X2167563Y-6750031D02*
X2177087Y-6740508D01*
X2177087Y-6740508D02*
X2196134Y-6730984D01*
X2348515Y-6911936D02*
X2358039Y-6921460D01*
X2358039Y-6921460D02*
X2348515Y-6930984D01*
X2348515Y-6930984D02*
X2338991Y-6921460D01*
X2338991Y-6921460D02*
X2348515Y-6911936D01*
X2348515Y-6911936D02*
X2348515Y-6930984D01*
X2481848Y-6730984D02*
X2500896Y-6730984D01*
X2500896Y-6730984D02*
X2519944Y-6740508D01*
X2519944Y-6740508D02*
X2529468Y-6750031D01*
X2529468Y-6750031D02*
X2538991Y-6769079D01*
X2538991Y-6769079D02*
X2548515Y-6807174D01*
X2548515Y-6807174D02*
X2548515Y-6854793D01*
X2548515Y-6854793D02*
X2538991Y-6892888D01*
X2538991Y-6892888D02*
X2529468Y-6911936D01*
X2529468Y-6911936D02*
X2519944Y-6921460D01*
X2519944Y-6921460D02*
X2500896Y-6930984D01*
X2500896Y-6930984D02*
X2481848Y-6930984D01*
X2481848Y-6930984D02*
X2462801Y-6921460D01*
X2462801Y-6921460D02*
X2453277Y-6911936D01*
X2453277Y-6911936D02*
X2443753Y-6892888D01*
X2443753Y-6892888D02*
X2434229Y-6854793D01*
X2434229Y-6854793D02*
X2434229Y-6807174D01*
X2434229Y-6807174D02*
X2443753Y-6769079D01*
X2443753Y-6769079D02*
X2453277Y-6750031D01*
X2453277Y-6750031D02*
X2462801Y-6740508D01*
X2462801Y-6740508D02*
X2481848Y-6730984D01*
X2729468Y-6730984D02*
X2634229Y-6730984D01*
X2634229Y-6730984D02*
X2624706Y-6826222D01*
X2624706Y-6826222D02*
X2634229Y-6816698D01*
X2634229Y-6816698D02*
X2653277Y-6807174D01*
X2653277Y-6807174D02*
X2700896Y-6807174D01*
X2700896Y-6807174D02*
X2719944Y-6816698D01*
X2719944Y-6816698D02*
X2729468Y-6826222D01*
X2729468Y-6826222D02*
X2738991Y-6845269D01*
X2738991Y-6845269D02*
X2738991Y-6892888D01*
X2738991Y-6892888D02*
X2729468Y-6911936D01*
X2729468Y-6911936D02*
X2719944Y-6921460D01*
X2719944Y-6921460D02*
X2700896Y-6930984D01*
X2700896Y-6930984D02*
X2653277Y-6930984D01*
X2653277Y-6930984D02*
X2634229Y-6921460D01*
X2634229Y-6921460D02*
X2624706Y-6911936D01*
X2929467Y-6930984D02*
X2815182Y-6930984D01*
X2872325Y-6930984D02*
X2872325Y-6730984D01*
X2872325Y-6730984D02*
X2853277Y-6759555D01*
X2853277Y-6759555D02*
X2834229Y-6778603D01*
X2834229Y-6778603D02*
X2815182Y-6788127D01*
X3005658Y-6750031D02*
X3015182Y-6740508D01*
X3015182Y-6740508D02*
X3034229Y-6730984D01*
X3034229Y-6730984D02*
X3081848Y-6730984D01*
X3081848Y-6730984D02*
X3100896Y-6740508D01*
X3100896Y-6740508D02*
X3110420Y-6750031D01*
X3110420Y-6750031D02*
X3119944Y-6769079D01*
X3119944Y-6769079D02*
X3119944Y-6788127D01*
X3119944Y-6788127D02*
X3110420Y-6816698D01*
X3110420Y-6816698D02*
X2996134Y-6930984D01*
X2996134Y-6930984D02*
X3119944Y-6930984D01*
X3196134Y-6730984D02*
X3196134Y-6769079D01*
X3272325Y-6730984D02*
X3272325Y-6769079D01*
X3567563Y-7007174D02*
X3558039Y-6997650D01*
X3558039Y-6997650D02*
X3538991Y-6969079D01*
X3538991Y-6969079D02*
X3529468Y-6950031D01*
X3529468Y-6950031D02*
X3519944Y-6921460D01*
X3519944Y-6921460D02*
X3510420Y-6873841D01*
X3510420Y-6873841D02*
X3510420Y-6835746D01*
X3510420Y-6835746D02*
X3519944Y-6788127D01*
X3519944Y-6788127D02*
X3529468Y-6759555D01*
X3529468Y-6759555D02*
X3538991Y-6740508D01*
X3538991Y-6740508D02*
X3558039Y-6711936D01*
X3558039Y-6711936D02*
X3567563Y-6702412D01*
X3634229Y-6750031D02*
X3643753Y-6740508D01*
X3643753Y-6740508D02*
X3662801Y-6730984D01*
X3662801Y-6730984D02*
X3710420Y-6730984D01*
X3710420Y-6730984D02*
X3729468Y-6740508D01*
X3729468Y-6740508D02*
X3738991Y-6750031D01*
X3738991Y-6750031D02*
X3748515Y-6769079D01*
X3748515Y-6769079D02*
X3748515Y-6788127D01*
X3748515Y-6788127D02*
X3738991Y-6816698D01*
X3738991Y-6816698D02*
X3624706Y-6930984D01*
X3624706Y-6930984D02*
X3748515Y-6930984D01*
X3986610Y-6930984D02*
X3986610Y-6730984D01*
X4072325Y-6930984D02*
X4072325Y-6826222D01*
X4072325Y-6826222D02*
X4062801Y-6807174D01*
X4062801Y-6807174D02*
X4043753Y-6797650D01*
X4043753Y-6797650D02*
X4015182Y-6797650D01*
X4015182Y-6797650D02*
X3996134Y-6807174D01*
X3996134Y-6807174D02*
X3986610Y-6816698D01*
X4196134Y-6930984D02*
X4177087Y-6921460D01*
X4177087Y-6921460D02*
X4167563Y-6911936D01*
X4167563Y-6911936D02*
X4158039Y-6892888D01*
X4158039Y-6892888D02*
X4158039Y-6835746D01*
X4158039Y-6835746D02*
X4167563Y-6816698D01*
X4167563Y-6816698D02*
X4177087Y-6807174D01*
X4177087Y-6807174D02*
X4196134Y-6797650D01*
X4196134Y-6797650D02*
X4224706Y-6797650D01*
X4224706Y-6797650D02*
X4243753Y-6807174D01*
X4243753Y-6807174D02*
X4253277Y-6816698D01*
X4253277Y-6816698D02*
X4262801Y-6835746D01*
X4262801Y-6835746D02*
X4262801Y-6892888D01*
X4262801Y-6892888D02*
X4253277Y-6911936D01*
X4253277Y-6911936D02*
X4243753Y-6921460D01*
X4243753Y-6921460D02*
X4224706Y-6930984D01*
X4224706Y-6930984D02*
X4196134Y-6930984D01*
X4377087Y-6930984D02*
X4358039Y-6921460D01*
X4358039Y-6921460D02*
X4348515Y-6902412D01*
X4348515Y-6902412D02*
X4348515Y-6730984D01*
X4529468Y-6921460D02*
X4510420Y-6930984D01*
X4510420Y-6930984D02*
X4472325Y-6930984D01*
X4472325Y-6930984D02*
X4453277Y-6921460D01*
X4453277Y-6921460D02*
X4443753Y-6902412D01*
X4443753Y-6902412D02*
X4443753Y-6826222D01*
X4443753Y-6826222D02*
X4453277Y-6807174D01*
X4453277Y-6807174D02*
X4472325Y-6797650D01*
X4472325Y-6797650D02*
X4510420Y-6797650D01*
X4510420Y-6797650D02*
X4529468Y-6807174D01*
X4529468Y-6807174D02*
X4538992Y-6826222D01*
X4538992Y-6826222D02*
X4538992Y-6845269D01*
X4538992Y-6845269D02*
X4443753Y-6864317D01*
X4615182Y-6921460D02*
X4634230Y-6930984D01*
X4634230Y-6930984D02*
X4672325Y-6930984D01*
X4672325Y-6930984D02*
X4691373Y-6921460D01*
X4691373Y-6921460D02*
X4700896Y-6902412D01*
X4700896Y-6902412D02*
X4700896Y-6892888D01*
X4700896Y-6892888D02*
X4691373Y-6873841D01*
X4691373Y-6873841D02*
X4672325Y-6864317D01*
X4672325Y-6864317D02*
X4643753Y-6864317D01*
X4643753Y-6864317D02*
X4624706Y-6854793D01*
X4624706Y-6854793D02*
X4615182Y-6835746D01*
X4615182Y-6835746D02*
X4615182Y-6826222D01*
X4615182Y-6826222D02*
X4624706Y-6807174D01*
X4624706Y-6807174D02*
X4643753Y-6797650D01*
X4643753Y-6797650D02*
X4672325Y-6797650D01*
X4672325Y-6797650D02*
X4691373Y-6807174D01*
X4767563Y-7007174D02*
X4777087Y-6997650D01*
X4777087Y-6997650D02*
X4796134Y-6969079D01*
X4796134Y-6969079D02*
X4805658Y-6950031D01*
X4805658Y-6950031D02*
X4815182Y-6921460D01*
X4815182Y-6921460D02*
X4824706Y-6873841D01*
X4824706Y-6873841D02*
X4824706Y-6835746D01*
X4824706Y-6835746D02*
X4815182Y-6788127D01*
X4815182Y-6788127D02*
X4805658Y-6759555D01*
X4805658Y-6759555D02*
X4796134Y-6740508D01*
X4796134Y-6740508D02*
X4777087Y-6711936D01*
X4777087Y-6711936D02*
X4767563Y-6702412D01*
X-107500Y-7203500D02*
X-7500Y-7103500D01*
X-107500Y-7003500D01*
X-207500Y-7103500D01*
X-107500Y-7203500D01*
X234229Y-6994984D02*
X358039Y-6994984D01*
X358039Y-6994984D02*
X291372Y-7071174D01*
X291372Y-7071174D02*
X319944Y-7071174D01*
X319944Y-7071174D02*
X338991Y-7080698D01*
X338991Y-7080698D02*
X348515Y-7090222D01*
X348515Y-7090222D02*
X358039Y-7109269D01*
X358039Y-7109269D02*
X358039Y-7156888D01*
X358039Y-7156888D02*
X348515Y-7175936D01*
X348515Y-7175936D02*
X338991Y-7185460D01*
X338991Y-7185460D02*
X319944Y-7194984D01*
X319944Y-7194984D02*
X262801Y-7194984D01*
X262801Y-7194984D02*
X243753Y-7185460D01*
X243753Y-7185460D02*
X234229Y-7175936D01*
X443753Y-7175936D02*
X453277Y-7185460D01*
X453277Y-7185460D02*
X443753Y-7194984D01*
X443753Y-7194984D02*
X434229Y-7185460D01*
X434229Y-7185460D02*
X443753Y-7175936D01*
X443753Y-7175936D02*
X443753Y-7194984D01*
X529467Y-7014031D02*
X538991Y-7004508D01*
X538991Y-7004508D02*
X558039Y-6994984D01*
X558039Y-6994984D02*
X605658Y-6994984D01*
X605658Y-6994984D02*
X624705Y-7004508D01*
X624705Y-7004508D02*
X634229Y-7014031D01*
X634229Y-7014031D02*
X643753Y-7033079D01*
X643753Y-7033079D02*
X643753Y-7052127D01*
X643753Y-7052127D02*
X634229Y-7080698D01*
X634229Y-7080698D02*
X519943Y-7194984D01*
X519943Y-7194984D02*
X643753Y-7194984D01*
X767562Y-6994984D02*
X786610Y-6994984D01*
X786610Y-6994984D02*
X805658Y-7004508D01*
X805658Y-7004508D02*
X815182Y-7014031D01*
X815182Y-7014031D02*
X824705Y-7033079D01*
X824705Y-7033079D02*
X834229Y-7071174D01*
X834229Y-7071174D02*
X834229Y-7118793D01*
X834229Y-7118793D02*
X824705Y-7156888D01*
X824705Y-7156888D02*
X815182Y-7175936D01*
X815182Y-7175936D02*
X805658Y-7185460D01*
X805658Y-7185460D02*
X786610Y-7194984D01*
X786610Y-7194984D02*
X767562Y-7194984D01*
X767562Y-7194984D02*
X748515Y-7185460D01*
X748515Y-7185460D02*
X738991Y-7175936D01*
X738991Y-7175936D02*
X729467Y-7156888D01*
X729467Y-7156888D02*
X719943Y-7118793D01*
X719943Y-7118793D02*
X719943Y-7071174D01*
X719943Y-7071174D02*
X729467Y-7033079D01*
X729467Y-7033079D02*
X738991Y-7014031D01*
X738991Y-7014031D02*
X748515Y-7004508D01*
X748515Y-7004508D02*
X767562Y-6994984D01*
X958039Y-6994984D02*
X977086Y-6994984D01*
X977086Y-6994984D02*
X996134Y-7004508D01*
X996134Y-7004508D02*
X1005658Y-7014031D01*
X1005658Y-7014031D02*
X1015182Y-7033079D01*
X1015182Y-7033079D02*
X1024705Y-7071174D01*
X1024705Y-7071174D02*
X1024705Y-7118793D01*
X1024705Y-7118793D02*
X1015182Y-7156888D01*
X1015182Y-7156888D02*
X1005658Y-7175936D01*
X1005658Y-7175936D02*
X996134Y-7185460D01*
X996134Y-7185460D02*
X977086Y-7194984D01*
X977086Y-7194984D02*
X958039Y-7194984D01*
X958039Y-7194984D02*
X938991Y-7185460D01*
X938991Y-7185460D02*
X929467Y-7175936D01*
X929467Y-7175936D02*
X919943Y-7156888D01*
X919943Y-7156888D02*
X910420Y-7118793D01*
X910420Y-7118793D02*
X910420Y-7071174D01*
X910420Y-7071174D02*
X919943Y-7033079D01*
X919943Y-7033079D02*
X929467Y-7014031D01*
X929467Y-7014031D02*
X938991Y-7004508D01*
X938991Y-7004508D02*
X958039Y-6994984D01*
X1110420Y-7194984D02*
X1110420Y-7061650D01*
X1110420Y-7080698D02*
X1119944Y-7071174D01*
X1119944Y-7071174D02*
X1138991Y-7061650D01*
X1138991Y-7061650D02*
X1167563Y-7061650D01*
X1167563Y-7061650D02*
X1186610Y-7071174D01*
X1186610Y-7071174D02*
X1196134Y-7090222D01*
X1196134Y-7090222D02*
X1196134Y-7194984D01*
X1196134Y-7090222D02*
X1205658Y-7071174D01*
X1205658Y-7071174D02*
X1224705Y-7061650D01*
X1224705Y-7061650D02*
X1253277Y-7061650D01*
X1253277Y-7061650D02*
X1272325Y-7071174D01*
X1272325Y-7071174D02*
X1281848Y-7090222D01*
X1281848Y-7090222D02*
X1281848Y-7194984D01*
X1377086Y-7194984D02*
X1377086Y-7061650D01*
X1377086Y-7080698D02*
X1386610Y-7071174D01*
X1386610Y-7071174D02*
X1405658Y-7061650D01*
X1405658Y-7061650D02*
X1434229Y-7061650D01*
X1434229Y-7061650D02*
X1453277Y-7071174D01*
X1453277Y-7071174D02*
X1462801Y-7090222D01*
X1462801Y-7090222D02*
X1462801Y-7194984D01*
X1462801Y-7090222D02*
X1472324Y-7071174D01*
X1472324Y-7071174D02*
X1491372Y-7061650D01*
X1491372Y-7061650D02*
X1519943Y-7061650D01*
X1519943Y-7061650D02*
X1538991Y-7071174D01*
X1538991Y-7071174D02*
X1548515Y-7090222D01*
X1548515Y-7090222D02*
X1548515Y-7194984D01*
X1938991Y-6985460D02*
X1767563Y-7242603D01*
X2196134Y-6994984D02*
X2215182Y-6994984D01*
X2215182Y-6994984D02*
X2234229Y-7004508D01*
X2234229Y-7004508D02*
X2243753Y-7014031D01*
X2243753Y-7014031D02*
X2253277Y-7033079D01*
X2253277Y-7033079D02*
X2262801Y-7071174D01*
X2262801Y-7071174D02*
X2262801Y-7118793D01*
X2262801Y-7118793D02*
X2253277Y-7156888D01*
X2253277Y-7156888D02*
X2243753Y-7175936D01*
X2243753Y-7175936D02*
X2234229Y-7185460D01*
X2234229Y-7185460D02*
X2215182Y-7194984D01*
X2215182Y-7194984D02*
X2196134Y-7194984D01*
X2196134Y-7194984D02*
X2177087Y-7185460D01*
X2177087Y-7185460D02*
X2167563Y-7175936D01*
X2167563Y-7175936D02*
X2158039Y-7156888D01*
X2158039Y-7156888D02*
X2148515Y-7118793D01*
X2148515Y-7118793D02*
X2148515Y-7071174D01*
X2148515Y-7071174D02*
X2158039Y-7033079D01*
X2158039Y-7033079D02*
X2167563Y-7014031D01*
X2167563Y-7014031D02*
X2177087Y-7004508D01*
X2177087Y-7004508D02*
X2196134Y-6994984D01*
X2348515Y-7175936D02*
X2358039Y-7185460D01*
X2358039Y-7185460D02*
X2348515Y-7194984D01*
X2348515Y-7194984D02*
X2338991Y-7185460D01*
X2338991Y-7185460D02*
X2348515Y-7175936D01*
X2348515Y-7175936D02*
X2348515Y-7194984D01*
X2548515Y-7194984D02*
X2434229Y-7194984D01*
X2491372Y-7194984D02*
X2491372Y-6994984D01*
X2491372Y-6994984D02*
X2472325Y-7023555D01*
X2472325Y-7023555D02*
X2453277Y-7042603D01*
X2453277Y-7042603D02*
X2434229Y-7052127D01*
X2624706Y-7014031D02*
X2634229Y-7004508D01*
X2634229Y-7004508D02*
X2653277Y-6994984D01*
X2653277Y-6994984D02*
X2700896Y-6994984D01*
X2700896Y-6994984D02*
X2719944Y-7004508D01*
X2719944Y-7004508D02*
X2729468Y-7014031D01*
X2729468Y-7014031D02*
X2738991Y-7033079D01*
X2738991Y-7033079D02*
X2738991Y-7052127D01*
X2738991Y-7052127D02*
X2729468Y-7080698D01*
X2729468Y-7080698D02*
X2615182Y-7194984D01*
X2615182Y-7194984D02*
X2738991Y-7194984D01*
X2910420Y-6994984D02*
X2872325Y-6994984D01*
X2872325Y-6994984D02*
X2853277Y-7004508D01*
X2853277Y-7004508D02*
X2843753Y-7014031D01*
X2843753Y-7014031D02*
X2824706Y-7042603D01*
X2824706Y-7042603D02*
X2815182Y-7080698D01*
X2815182Y-7080698D02*
X2815182Y-7156888D01*
X2815182Y-7156888D02*
X2824706Y-7175936D01*
X2824706Y-7175936D02*
X2834229Y-7185460D01*
X2834229Y-7185460D02*
X2853277Y-7194984D01*
X2853277Y-7194984D02*
X2891372Y-7194984D01*
X2891372Y-7194984D02*
X2910420Y-7185460D01*
X2910420Y-7185460D02*
X2919944Y-7175936D01*
X2919944Y-7175936D02*
X2929467Y-7156888D01*
X2929467Y-7156888D02*
X2929467Y-7109269D01*
X2929467Y-7109269D02*
X2919944Y-7090222D01*
X2919944Y-7090222D02*
X2910420Y-7080698D01*
X2910420Y-7080698D02*
X2891372Y-7071174D01*
X2891372Y-7071174D02*
X2853277Y-7071174D01*
X2853277Y-7071174D02*
X2834229Y-7080698D01*
X2834229Y-7080698D02*
X2824706Y-7090222D01*
X2824706Y-7090222D02*
X2815182Y-7109269D01*
X3053277Y-6994984D02*
X3072325Y-6994984D01*
X3072325Y-6994984D02*
X3091372Y-7004508D01*
X3091372Y-7004508D02*
X3100896Y-7014031D01*
X3100896Y-7014031D02*
X3110420Y-7033079D01*
X3110420Y-7033079D02*
X3119944Y-7071174D01*
X3119944Y-7071174D02*
X3119944Y-7118793D01*
X3119944Y-7118793D02*
X3110420Y-7156888D01*
X3110420Y-7156888D02*
X3100896Y-7175936D01*
X3100896Y-7175936D02*
X3091372Y-7185460D01*
X3091372Y-7185460D02*
X3072325Y-7194984D01*
X3072325Y-7194984D02*
X3053277Y-7194984D01*
X3053277Y-7194984D02*
X3034229Y-7185460D01*
X3034229Y-7185460D02*
X3024706Y-7175936D01*
X3024706Y-7175936D02*
X3015182Y-7156888D01*
X3015182Y-7156888D02*
X3005658Y-7118793D01*
X3005658Y-7118793D02*
X3005658Y-7071174D01*
X3005658Y-7071174D02*
X3015182Y-7033079D01*
X3015182Y-7033079D02*
X3024706Y-7014031D01*
X3024706Y-7014031D02*
X3034229Y-7004508D01*
X3034229Y-7004508D02*
X3053277Y-6994984D01*
X3196134Y-6994984D02*
X3196134Y-7033079D01*
X3272325Y-6994984D02*
X3272325Y-7033079D01*
X3567563Y-7271174D02*
X3558039Y-7261650D01*
X3558039Y-7261650D02*
X3538991Y-7233079D01*
X3538991Y-7233079D02*
X3529468Y-7214031D01*
X3529468Y-7214031D02*
X3519944Y-7185460D01*
X3519944Y-7185460D02*
X3510420Y-7137841D01*
X3510420Y-7137841D02*
X3510420Y-7099746D01*
X3510420Y-7099746D02*
X3519944Y-7052127D01*
X3519944Y-7052127D02*
X3529468Y-7023555D01*
X3529468Y-7023555D02*
X3538991Y-7004508D01*
X3538991Y-7004508D02*
X3558039Y-6975936D01*
X3558039Y-6975936D02*
X3567563Y-6966412D01*
X3729468Y-7061650D02*
X3729468Y-7194984D01*
X3681848Y-6985460D02*
X3634229Y-7128317D01*
X3634229Y-7128317D02*
X3758039Y-7128317D01*
X3986610Y-7194984D02*
X3986610Y-6994984D01*
X4072325Y-7194984D02*
X4072325Y-7090222D01*
X4072325Y-7090222D02*
X4062801Y-7071174D01*
X4062801Y-7071174D02*
X4043753Y-7061650D01*
X4043753Y-7061650D02*
X4015182Y-7061650D01*
X4015182Y-7061650D02*
X3996134Y-7071174D01*
X3996134Y-7071174D02*
X3986610Y-7080698D01*
X4196134Y-7194984D02*
X4177087Y-7185460D01*
X4177087Y-7185460D02*
X4167563Y-7175936D01*
X4167563Y-7175936D02*
X4158039Y-7156888D01*
X4158039Y-7156888D02*
X4158039Y-7099746D01*
X4158039Y-7099746D02*
X4167563Y-7080698D01*
X4167563Y-7080698D02*
X4177087Y-7071174D01*
X4177087Y-7071174D02*
X4196134Y-7061650D01*
X4196134Y-7061650D02*
X4224706Y-7061650D01*
X4224706Y-7061650D02*
X4243753Y-7071174D01*
X4243753Y-7071174D02*
X4253277Y-7080698D01*
X4253277Y-7080698D02*
X4262801Y-7099746D01*
X4262801Y-7099746D02*
X4262801Y-7156888D01*
X4262801Y-7156888D02*
X4253277Y-7175936D01*
X4253277Y-7175936D02*
X4243753Y-7185460D01*
X4243753Y-7185460D02*
X4224706Y-7194984D01*
X4224706Y-7194984D02*
X4196134Y-7194984D01*
X4377087Y-7194984D02*
X4358039Y-7185460D01*
X4358039Y-7185460D02*
X4348515Y-7166412D01*
X4348515Y-7166412D02*
X4348515Y-6994984D01*
X4529468Y-7185460D02*
X4510420Y-7194984D01*
X4510420Y-7194984D02*
X4472325Y-7194984D01*
X4472325Y-7194984D02*
X4453277Y-7185460D01*
X4453277Y-7185460D02*
X4443753Y-7166412D01*
X4443753Y-7166412D02*
X4443753Y-7090222D01*
X4443753Y-7090222D02*
X4453277Y-7071174D01*
X4453277Y-7071174D02*
X4472325Y-7061650D01*
X4472325Y-7061650D02*
X4510420Y-7061650D01*
X4510420Y-7061650D02*
X4529468Y-7071174D01*
X4529468Y-7071174D02*
X4538992Y-7090222D01*
X4538992Y-7090222D02*
X4538992Y-7109269D01*
X4538992Y-7109269D02*
X4443753Y-7128317D01*
X4615182Y-7185460D02*
X4634230Y-7194984D01*
X4634230Y-7194984D02*
X4672325Y-7194984D01*
X4672325Y-7194984D02*
X4691373Y-7185460D01*
X4691373Y-7185460D02*
X4700896Y-7166412D01*
X4700896Y-7166412D02*
X4700896Y-7156888D01*
X4700896Y-7156888D02*
X4691373Y-7137841D01*
X4691373Y-7137841D02*
X4672325Y-7128317D01*
X4672325Y-7128317D02*
X4643753Y-7128317D01*
X4643753Y-7128317D02*
X4624706Y-7118793D01*
X4624706Y-7118793D02*
X4615182Y-7099746D01*
X4615182Y-7099746D02*
X4615182Y-7090222D01*
X4615182Y-7090222D02*
X4624706Y-7071174D01*
X4624706Y-7071174D02*
X4643753Y-7061650D01*
X4643753Y-7061650D02*
X4672325Y-7061650D01*
X4672325Y-7061650D02*
X4691373Y-7071174D01*
X4767563Y-7271174D02*
X4777087Y-7261650D01*
X4777087Y-7261650D02*
X4796134Y-7233079D01*
X4796134Y-7233079D02*
X4805658Y-7214031D01*
X4805658Y-7214031D02*
X4815182Y-7185460D01*
X4815182Y-7185460D02*
X4824706Y-7137841D01*
X4824706Y-7137841D02*
X4824706Y-7099746D01*
X4824706Y-7099746D02*
X4815182Y-7052127D01*
X4815182Y-7052127D02*
X4805658Y-7023555D01*
X4805658Y-7023555D02*
X4796134Y-7004508D01*
X4796134Y-7004508D02*
X4777087Y-6975936D01*
X4777087Y-6975936D02*
X4767563Y-6966412D01*
X5129468Y-7271174D02*
X5119944Y-7261650D01*
X5119944Y-7261650D02*
X5100896Y-7233079D01*
X5100896Y-7233079D02*
X5091373Y-7214031D01*
X5091373Y-7214031D02*
X5081849Y-7185460D01*
X5081849Y-7185460D02*
X5072325Y-7137841D01*
X5072325Y-7137841D02*
X5072325Y-7099746D01*
X5072325Y-7099746D02*
X5081849Y-7052127D01*
X5081849Y-7052127D02*
X5091373Y-7023555D01*
X5091373Y-7023555D02*
X5100896Y-7004508D01*
X5100896Y-7004508D02*
X5119944Y-6975936D01*
X5119944Y-6975936D02*
X5129468Y-6966412D01*
X5205658Y-7061650D02*
X5205658Y-7194984D01*
X5205658Y-7080698D02*
X5215182Y-7071174D01*
X5215182Y-7071174D02*
X5234230Y-7061650D01*
X5234230Y-7061650D02*
X5262801Y-7061650D01*
X5262801Y-7061650D02*
X5281849Y-7071174D01*
X5281849Y-7071174D02*
X5291373Y-7090222D01*
X5291373Y-7090222D02*
X5291373Y-7194984D01*
X5415182Y-7194984D02*
X5396134Y-7185460D01*
X5396134Y-7185460D02*
X5386611Y-7175936D01*
X5386611Y-7175936D02*
X5377087Y-7156888D01*
X5377087Y-7156888D02*
X5377087Y-7099746D01*
X5377087Y-7099746D02*
X5386611Y-7080698D01*
X5386611Y-7080698D02*
X5396134Y-7071174D01*
X5396134Y-7071174D02*
X5415182Y-7061650D01*
X5415182Y-7061650D02*
X5443754Y-7061650D01*
X5443754Y-7061650D02*
X5462801Y-7071174D01*
X5462801Y-7071174D02*
X5472325Y-7080698D01*
X5472325Y-7080698D02*
X5481849Y-7099746D01*
X5481849Y-7099746D02*
X5481849Y-7156888D01*
X5481849Y-7156888D02*
X5472325Y-7175936D01*
X5472325Y-7175936D02*
X5462801Y-7185460D01*
X5462801Y-7185460D02*
X5443754Y-7194984D01*
X5443754Y-7194984D02*
X5415182Y-7194984D01*
X5538992Y-7061650D02*
X5615182Y-7061650D01*
X5567563Y-6994984D02*
X5567563Y-7166412D01*
X5567563Y-7166412D02*
X5577087Y-7185460D01*
X5577087Y-7185460D02*
X5596134Y-7194984D01*
X5596134Y-7194984D02*
X5615182Y-7194984D01*
X5834230Y-7061650D02*
X5834230Y-7261650D01*
X5834230Y-7071174D02*
X5853277Y-7061650D01*
X5853277Y-7061650D02*
X5891373Y-7061650D01*
X5891373Y-7061650D02*
X5910420Y-7071174D01*
X5910420Y-7071174D02*
X5919944Y-7080698D01*
X5919944Y-7080698D02*
X5929468Y-7099746D01*
X5929468Y-7099746D02*
X5929468Y-7156888D01*
X5929468Y-7156888D02*
X5919944Y-7175936D01*
X5919944Y-7175936D02*
X5910420Y-7185460D01*
X5910420Y-7185460D02*
X5891373Y-7194984D01*
X5891373Y-7194984D02*
X5853277Y-7194984D01*
X5853277Y-7194984D02*
X5834230Y-7185460D01*
X6043753Y-7194984D02*
X6024706Y-7185460D01*
X6024706Y-7185460D02*
X6015182Y-7166412D01*
X6015182Y-7166412D02*
X6015182Y-6994984D01*
X6205658Y-7194984D02*
X6205658Y-7090222D01*
X6205658Y-7090222D02*
X6196134Y-7071174D01*
X6196134Y-7071174D02*
X6177087Y-7061650D01*
X6177087Y-7061650D02*
X6138992Y-7061650D01*
X6138992Y-7061650D02*
X6119944Y-7071174D01*
X6205658Y-7185460D02*
X6186611Y-7194984D01*
X6186611Y-7194984D02*
X6138992Y-7194984D01*
X6138992Y-7194984D02*
X6119944Y-7185460D01*
X6119944Y-7185460D02*
X6110420Y-7166412D01*
X6110420Y-7166412D02*
X6110420Y-7147365D01*
X6110420Y-7147365D02*
X6119944Y-7128317D01*
X6119944Y-7128317D02*
X6138992Y-7118793D01*
X6138992Y-7118793D02*
X6186611Y-7118793D01*
X6186611Y-7118793D02*
X6205658Y-7109269D01*
X6272325Y-7061650D02*
X6348515Y-7061650D01*
X6300896Y-6994984D02*
X6300896Y-7166412D01*
X6300896Y-7166412D02*
X6310420Y-7185460D01*
X6310420Y-7185460D02*
X6329468Y-7194984D01*
X6329468Y-7194984D02*
X6348515Y-7194984D01*
X6491373Y-7185460D02*
X6472325Y-7194984D01*
X6472325Y-7194984D02*
X6434230Y-7194984D01*
X6434230Y-7194984D02*
X6415182Y-7185460D01*
X6415182Y-7185460D02*
X6405658Y-7166412D01*
X6405658Y-7166412D02*
X6405658Y-7090222D01*
X6405658Y-7090222D02*
X6415182Y-7071174D01*
X6415182Y-7071174D02*
X6434230Y-7061650D01*
X6434230Y-7061650D02*
X6472325Y-7061650D01*
X6472325Y-7061650D02*
X6491373Y-7071174D01*
X6491373Y-7071174D02*
X6500896Y-7090222D01*
X6500896Y-7090222D02*
X6500896Y-7109269D01*
X6500896Y-7109269D02*
X6405658Y-7128317D01*
X6672325Y-7194984D02*
X6672325Y-6994984D01*
X6672325Y-7185460D02*
X6653277Y-7194984D01*
X6653277Y-7194984D02*
X6615182Y-7194984D01*
X6615182Y-7194984D02*
X6596134Y-7185460D01*
X6596134Y-7185460D02*
X6586611Y-7175936D01*
X6586611Y-7175936D02*
X6577087Y-7156888D01*
X6577087Y-7156888D02*
X6577087Y-7099746D01*
X6577087Y-7099746D02*
X6586611Y-7080698D01*
X6586611Y-7080698D02*
X6596134Y-7071174D01*
X6596134Y-7071174D02*
X6615182Y-7061650D01*
X6615182Y-7061650D02*
X6653277Y-7061650D01*
X6653277Y-7061650D02*
X6672325Y-7071174D01*
X6748515Y-7271174D02*
X6758039Y-7261650D01*
X6758039Y-7261650D02*
X6777087Y-7233079D01*
X6777087Y-7233079D02*
X6786611Y-7214031D01*
X6786611Y-7214031D02*
X6796134Y-7185460D01*
X6796134Y-7185460D02*
X6805658Y-7137841D01*
X6805658Y-7137841D02*
X6805658Y-7099746D01*
X6805658Y-7099746D02*
X6796134Y-7052127D01*
X6796134Y-7052127D02*
X6786611Y-7023555D01*
X6786611Y-7023555D02*
X6777087Y-7004508D01*
X6777087Y-7004508D02*
X6758039Y-6975936D01*
X6758039Y-6975936D02*
X6748515Y-6966412D01*
M02*
