%TF.GenerationSoftware,KiCad,Pcbnew,9.0.9-9.0.9~ubuntu24.04.1*%
%TF.CreationDate,2026-09-01T13:34:32+02:00*%
%TF.ProjectId,master,6d617374-6572-42e6-9b69-6361645f7063,rev?*%
%TF.SameCoordinates,Original*%
%TF.FileFunction,Legend,Bot*%
%TF.FilePolarity,Positive*%
%FSLAX46Y46*%
G04 Gerber Fmt 4.6, Leading zero omitted, Abs format (unit mm)*
G04 Created by KiCad (PCBNEW 9.0.9-9.0.9~ubuntu24.04.1) date 2026-09-01 13:34:32*
%MOMM*%
%LPD*%
G01*
G04 APERTURE LIST*
%ADD10C,0.350000*%
%ADD11C,0.000000*%
G04 APERTURE END LIST*
D10*
X53961904Y-38799561D02*
X52704761Y-38799561D01*
X53333332Y-40999561D02*
X53333332Y-38799561D01*
X51133333Y-40894800D02*
X51342857Y-40999561D01*
X51342857Y-40999561D02*
X51761904Y-40999561D01*
X51761904Y-40999561D02*
X51971428Y-40894800D01*
X51971428Y-40894800D02*
X52076190Y-40685276D01*
X52076190Y-40685276D02*
X52076190Y-39847180D01*
X52076190Y-39847180D02*
X51971428Y-39637657D01*
X51971428Y-39637657D02*
X51761904Y-39532895D01*
X51761904Y-39532895D02*
X51342857Y-39532895D01*
X51342857Y-39532895D02*
X51133333Y-39637657D01*
X51133333Y-39637657D02*
X51028571Y-39847180D01*
X51028571Y-39847180D02*
X51028571Y-40056704D01*
X51028571Y-40056704D02*
X52076190Y-40266228D01*
X50085714Y-39532895D02*
X50085714Y-40999561D01*
X50085714Y-39742419D02*
X49980952Y-39637657D01*
X49980952Y-39637657D02*
X49771428Y-39532895D01*
X49771428Y-39532895D02*
X49457143Y-39532895D01*
X49457143Y-39532895D02*
X49247619Y-39637657D01*
X49247619Y-39637657D02*
X49142857Y-39847180D01*
X49142857Y-39847180D02*
X49142857Y-40999561D01*
X47676190Y-38799561D02*
X47257143Y-38799561D01*
X47257143Y-38799561D02*
X47047619Y-38904323D01*
X47047619Y-38904323D02*
X46838095Y-39113847D01*
X46838095Y-39113847D02*
X46733333Y-39532895D01*
X46733333Y-39532895D02*
X46733333Y-40266228D01*
X46733333Y-40266228D02*
X46838095Y-40685276D01*
X46838095Y-40685276D02*
X47047619Y-40894800D01*
X47047619Y-40894800D02*
X47257143Y-40999561D01*
X47257143Y-40999561D02*
X47676190Y-40999561D01*
X47676190Y-40999561D02*
X47885714Y-40894800D01*
X47885714Y-40894800D02*
X48095238Y-40685276D01*
X48095238Y-40685276D02*
X48200000Y-40266228D01*
X48200000Y-40266228D02*
X48200000Y-39532895D01*
X48200000Y-39532895D02*
X48095238Y-39113847D01*
X48095238Y-39113847D02*
X47885714Y-38904323D01*
X47885714Y-38904323D02*
X47676190Y-38799561D01*
X46104762Y-39532895D02*
X45266666Y-39532895D01*
X45790476Y-40999561D02*
X45790476Y-39113847D01*
X45790476Y-39113847D02*
X45685714Y-38904323D01*
X45685714Y-38904323D02*
X45476190Y-38799561D01*
X45476190Y-38799561D02*
X45266666Y-38799561D01*
X44533333Y-40999561D02*
X44533333Y-38799561D01*
X44533333Y-38799561D02*
X43276190Y-40999561D01*
X43276190Y-40999561D02*
X43276190Y-38799561D01*
X42228571Y-40999561D02*
X42228571Y-39532895D01*
X42228571Y-38799561D02*
X42333333Y-38904323D01*
X42333333Y-38904323D02*
X42228571Y-39009085D01*
X42228571Y-39009085D02*
X42123809Y-38904323D01*
X42123809Y-38904323D02*
X42228571Y-38799561D01*
X42228571Y-38799561D02*
X42228571Y-39009085D01*
X41180952Y-39532895D02*
X41180952Y-40999561D01*
X41180952Y-39742419D02*
X41076190Y-39637657D01*
X41076190Y-39637657D02*
X40866666Y-39532895D01*
X40866666Y-39532895D02*
X40552381Y-39532895D01*
X40552381Y-39532895D02*
X40342857Y-39637657D01*
X40342857Y-39637657D02*
X40238095Y-39847180D01*
X40238095Y-39847180D02*
X40238095Y-40999561D01*
X38352381Y-40894800D02*
X38561905Y-40999561D01*
X38561905Y-40999561D02*
X38980952Y-40999561D01*
X38980952Y-40999561D02*
X39190476Y-40894800D01*
X39190476Y-40894800D02*
X39295238Y-40685276D01*
X39295238Y-40685276D02*
X39295238Y-39847180D01*
X39295238Y-39847180D02*
X39190476Y-39637657D01*
X39190476Y-39637657D02*
X38980952Y-39532895D01*
X38980952Y-39532895D02*
X38561905Y-39532895D01*
X38561905Y-39532895D02*
X38352381Y-39637657D01*
X38352381Y-39637657D02*
X38247619Y-39847180D01*
X38247619Y-39847180D02*
X38247619Y-40056704D01*
X38247619Y-40056704D02*
X39295238Y-40266228D01*
D11*
%TO.C,GH1*%
G36*
X46191500Y-25753800D02*
G01*
X46373000Y-25765100D01*
X46553300Y-25783800D01*
X46732300Y-25810000D01*
X46909600Y-25843500D01*
X47085300Y-25884300D01*
X47258900Y-25932300D01*
X47430300Y-25987400D01*
X47599400Y-26049700D01*
X47765800Y-26118900D01*
X47929500Y-26195200D01*
X48090100Y-26278400D01*
X48247600Y-26368400D01*
X48401600Y-26465200D01*
X48456800Y-26502000D01*
X48510000Y-26538400D01*
X48561500Y-26574800D01*
X48611500Y-26611300D01*
X48660400Y-26648000D01*
X48708400Y-26685400D01*
X48755600Y-26723400D01*
X48802500Y-26762400D01*
X48849200Y-26802500D01*
X48896000Y-26844100D01*
X48943100Y-26887200D01*
X48990900Y-26932000D01*
X49039500Y-26978900D01*
X49089200Y-27028000D01*
X49148300Y-27087700D01*
X49204800Y-27146600D01*
X49259100Y-27205000D01*
X49311300Y-27263000D01*
X49361500Y-27321000D01*
X49410100Y-27379300D01*
X49457200Y-27438000D01*
X49503000Y-27497400D01*
X49547800Y-27557900D01*
X49591600Y-27619500D01*
X49634800Y-27682700D01*
X49677500Y-27747600D01*
X49720000Y-27814600D01*
X49762300Y-27883800D01*
X49832900Y-28005400D01*
X49899200Y-28128400D01*
X49961200Y-28252900D01*
X50019100Y-28379100D01*
X50072700Y-28507000D01*
X50122200Y-28636600D01*
X50167600Y-28768200D01*
X50208900Y-28901800D01*
X50246100Y-29037400D01*
X50279200Y-29175100D01*
X50308300Y-29315000D01*
X50333500Y-29457300D01*
X50354600Y-29601900D01*
X50371800Y-29749000D01*
X50375500Y-29791600D01*
X50378700Y-29841100D01*
X50381200Y-29896400D01*
X50383200Y-29956400D01*
X50384700Y-30019800D01*
X50385500Y-30085500D01*
X50385800Y-30152400D01*
X50385600Y-30219400D01*
X50384700Y-30285300D01*
X50383300Y-30348900D01*
X50381300Y-30409200D01*
X50378800Y-30464800D01*
X50375700Y-30514800D01*
X50372000Y-30558000D01*
X50361700Y-30651300D01*
X50349900Y-30743300D01*
X50336400Y-30834100D01*
X50321400Y-30923800D01*
X50304700Y-31012500D01*
X50286300Y-31100300D01*
X50266200Y-31187300D01*
X50244400Y-31273600D01*
X50220900Y-31359400D01*
X50195500Y-31444600D01*
X50168400Y-31529500D01*
X50139500Y-31614100D01*
X50108700Y-31698500D01*
X50076100Y-31782900D01*
X50061800Y-31817600D01*
X50045300Y-31856100D01*
X50026700Y-31897600D01*
X50006600Y-31941400D01*
X49985100Y-31987100D01*
X49962700Y-32033800D01*
X49939500Y-32081100D01*
X49916000Y-32128100D01*
X49892500Y-32174300D01*
X49869200Y-32219100D01*
X49846500Y-32261700D01*
X49824700Y-32301600D01*
X49804200Y-32338100D01*
X49785200Y-32370500D01*
X49692700Y-32518300D01*
X49595200Y-32661700D01*
X49492800Y-32800400D01*
X49385600Y-32934500D01*
X49273700Y-33063800D01*
X49157100Y-33188200D01*
X49036000Y-33307800D01*
X48910500Y-33422300D01*
X48780600Y-33531600D01*
X48646500Y-33635800D01*
X48508200Y-33734600D01*
X48366000Y-33828100D01*
X48219700Y-33916000D01*
X48069600Y-33998400D01*
X48028600Y-34019500D01*
X47985200Y-34041000D01*
X47939900Y-34062800D01*
X47893500Y-34084600D01*
X47846600Y-34106000D01*
X47799800Y-34126900D01*
X47753800Y-34146900D01*
X47709100Y-34165800D01*
X47666500Y-34183300D01*
X47626500Y-34199100D01*
X47589800Y-34212900D01*
X47557100Y-34224600D01*
X47529000Y-34233700D01*
X47506000Y-34240100D01*
X47472900Y-34246500D01*
X47440200Y-34249800D01*
X47408000Y-34250000D01*
X47376400Y-34247200D01*
X47345600Y-34241500D01*
X47315900Y-34232900D01*
X47287200Y-34221500D01*
X47259900Y-34207500D01*
X47234100Y-34190800D01*
X47209900Y-34171500D01*
X47187600Y-34149700D01*
X47167200Y-34125600D01*
X47148900Y-34099100D01*
X47132900Y-34070300D01*
X47104200Y-34012200D01*
X47102000Y-33627400D01*
X47101700Y-33564200D01*
X47101500Y-33507900D01*
X47101400Y-33458300D01*
X47101400Y-33415000D01*
X47101500Y-33377500D01*
X47101800Y-33345500D01*
X47102200Y-33318800D01*
X47102800Y-33296800D01*
X47103500Y-33279400D01*
X47104400Y-33266000D01*
X47105400Y-33256400D01*
X47106600Y-33250100D01*
X47108100Y-33246900D01*
X47109700Y-33246300D01*
X47122300Y-33251000D01*
X47136500Y-33255900D01*
X47152200Y-33261100D01*
X47169000Y-33266400D01*
X47186700Y-33271800D01*
X47205000Y-33277200D01*
X47223500Y-33282500D01*
X47242100Y-33287600D01*
X47260500Y-33292500D01*
X47278300Y-33297000D01*
X47295400Y-33301200D01*
X47311400Y-33304900D01*
X47326000Y-33308100D01*
X47339100Y-33310600D01*
X47360100Y-33313900D01*
X47383600Y-33316700D01*
X47409400Y-33319000D01*
X47436800Y-33320700D01*
X47465700Y-33322000D01*
X47495500Y-33322700D01*
X47525800Y-33323000D01*
X47556200Y-33322700D01*
X47586400Y-33321900D01*
X47615900Y-33320700D01*
X47644200Y-33318900D01*
X47671100Y-33316600D01*
X47696000Y-33313800D01*
X47718600Y-33310500D01*
X47767100Y-33301500D01*
X47814000Y-33290800D01*
X47859500Y-33278400D01*
X47903600Y-33264300D01*
X47946500Y-33248400D01*
X47988100Y-33230800D01*
X48028600Y-33211200D01*
X48068100Y-33189800D01*
X48106600Y-33166500D01*
X48144200Y-33141200D01*
X48181000Y-33113900D01*
X48217000Y-33084500D01*
X48252400Y-33053100D01*
X48287200Y-33019600D01*
X48314000Y-32991700D01*
X48340400Y-32962700D01*
X48366300Y-32932400D01*
X48391600Y-32901000D01*
X48416300Y-32868500D01*
X48440500Y-32834800D01*
X48464100Y-32800100D01*
X48487100Y-32764400D01*
X48509400Y-32727600D01*
X48531000Y-32689900D01*
X48552000Y-32651200D01*
X48572300Y-32611700D01*
X48591800Y-32571200D01*
X48610600Y-32529900D01*
X48638600Y-32467300D01*
X48664600Y-32411100D01*
X48688900Y-32360900D01*
X48711800Y-32316300D01*
X48733600Y-32276800D01*
X48754700Y-32242100D01*
X48775400Y-32211600D01*
X48795800Y-32184900D01*
X48816500Y-32161600D01*
X48837700Y-32141200D01*
X48859700Y-32123400D01*
X48882800Y-32107600D01*
X48907400Y-32093500D01*
X48933700Y-32080500D01*
X48938900Y-32078300D01*
X48944700Y-32076000D01*
X48951200Y-32073700D01*
X48958300Y-32071300D01*
X48965900Y-32068800D01*
X48973900Y-32066400D01*
X48982200Y-32064100D01*
X48990700Y-32061800D01*
X48999300Y-32059500D01*
X49008100Y-32057400D01*
X49016800Y-32055400D01*
X49025400Y-32053500D01*
X49033900Y-32051800D01*
X49042100Y-32050300D01*
X49058800Y-32047200D01*
X49073900Y-32044100D01*
X49087700Y-32040800D01*
X49100100Y-32037400D01*
X49111300Y-32033700D01*
X49121300Y-32029800D01*
X49130300Y-32025500D01*
X49138300Y-32020800D01*
X49145400Y-32015800D01*
X49151800Y-32010200D01*
X49157500Y-32004100D01*
X49162600Y-31997500D01*
X49167200Y-31990200D01*
X49171500Y-31982300D01*
X49173900Y-31977200D01*
X49176000Y-31972500D01*
X49177800Y-31968200D01*
X49179300Y-31964200D01*
X49180400Y-31960400D01*
X49181200Y-31956700D01*
X49181700Y-31953100D01*
X49181800Y-31949500D01*
X49181700Y-31945800D01*
X49181300Y-31941900D01*
X49180700Y-31937900D01*
X49179700Y-31933500D01*
X49178500Y-31928800D01*
X49177000Y-31923700D01*
X49174000Y-31914700D01*
X49170600Y-31906200D01*
X49166700Y-31898000D01*
X49162200Y-31890200D01*
X49157100Y-31882700D01*
X49151400Y-31875500D01*
X49145000Y-31868500D01*
X49138000Y-31861700D01*
X49130100Y-31855000D01*
X49121500Y-31848500D01*
X49112100Y-31841900D01*
X49101700Y-31835400D01*
X49090500Y-31828900D01*
X49078300Y-31822200D01*
X49062600Y-31814300D01*
X49047000Y-31807100D01*
X49031500Y-31800600D01*
X49015900Y-31794800D01*
X49000100Y-31789600D01*
X48984100Y-31785100D01*
X48967800Y-31781100D01*
X48951000Y-31777800D01*
X48933700Y-31775100D01*
X48915900Y-31772900D01*
X48897300Y-31771300D01*
X48878000Y-31770100D01*
X48857800Y-31769500D01*
X48836600Y-31769400D01*
X48815500Y-31769800D01*
X48795100Y-31770600D01*
X48775400Y-31772100D01*
X48756300Y-31774100D01*
X48737700Y-31776700D01*
X48719400Y-31780000D01*
X48701500Y-31783900D01*
X48683800Y-31788400D01*
X48666200Y-31793700D01*
X48648600Y-31799600D01*
X48630800Y-31806300D01*
X48612900Y-31813800D01*
X48594700Y-31822100D01*
X48576100Y-31831100D01*
X48545400Y-31847500D01*
X48515100Y-31865600D01*
X48485000Y-31885400D01*
X48455100Y-31907000D01*
X48425300Y-31930600D01*
X48395700Y-31956100D01*
X48366000Y-31983600D01*
X48336300Y-32013100D01*
X48306400Y-32044900D01*
X48276300Y-32078800D01*
X48246000Y-32115000D01*
X48215300Y-32153500D01*
X48184300Y-32194500D01*
X48152700Y-32237900D01*
X48138700Y-32257100D01*
X48123900Y-32276600D01*
X48108400Y-32296300D01*
X48092300Y-32315800D01*
X48075900Y-32335200D01*
X48059200Y-32354300D01*
X48042300Y-32372800D01*
X48025500Y-32390800D01*
X48008800Y-32407900D01*
X47992400Y-32424200D01*
X47976400Y-32439300D01*
X47960900Y-32453300D01*
X47946200Y-32465800D01*
X47932200Y-32476900D01*
X47919600Y-32486400D01*
X47907300Y-32495200D01*
X47895400Y-32503500D01*
X47883700Y-32511200D01*
X47872100Y-32518500D01*
X47860600Y-32525300D01*
X47849100Y-32531800D01*
X47837400Y-32537900D01*
X47825500Y-32543700D01*
X47813400Y-32549300D01*
X47800800Y-32554700D01*
X47787700Y-32560000D01*
X47774000Y-32565200D01*
X47759700Y-32570300D01*
X47748400Y-32574200D01*
X47738000Y-32577600D01*
X47728400Y-32580500D01*
X47719100Y-32583000D01*
X47709900Y-32585100D01*
X47700500Y-32586800D01*
X47690500Y-32588200D01*
X47679800Y-32589300D01*
X47667900Y-32590100D01*
X47654600Y-32590700D01*
X47639600Y-32591100D01*
X47622500Y-32591400D01*
X47603200Y-32591500D01*
X47581200Y-32591600D01*
X47560300Y-32591600D01*
X47541700Y-32591500D01*
X47525000Y-32591300D01*
X47510100Y-32590900D01*
X47496700Y-32590400D01*
X47484600Y-32589700D01*
X47473500Y-32588700D01*
X47463200Y-32587500D01*
X47453600Y-32586100D01*
X47444200Y-32584400D01*
X47435000Y-32582300D01*
X47425600Y-32579900D01*
X47415900Y-32577200D01*
X47405600Y-32574100D01*
X47390600Y-32569200D01*
X47375600Y-32563800D01*
X47360700Y-32558000D01*
X47345700Y-32551700D01*
X47330700Y-32545000D01*
X47315700Y-32537700D01*
X47300700Y-32529900D01*
X47285500Y-32521600D01*
X47270300Y-32512800D01*
X47254900Y-32503400D01*
X47239400Y-32493500D01*
X47223800Y-32483000D01*
X47208000Y-32471900D01*
X47192000Y-32460300D01*
X47183800Y-32453800D01*
X47172900Y-32444600D01*
X47159500Y-32432700D01*
X47143900Y-32418500D01*
X47126200Y-32402100D01*
X47106600Y-32383700D01*
X47085400Y-32363600D01*
X47062800Y-32341900D01*
X47039000Y-32318800D01*
X47014200Y-32294600D01*
X46988700Y-32269500D01*
X46962600Y-32243600D01*
X46936100Y-32217200D01*
X46909600Y-32190500D01*
X46684400Y-31963200D01*
X46745500Y-31954500D01*
X46767200Y-31951300D01*
X46789900Y-31947600D01*
X46813600Y-31943400D01*
X46838100Y-31938800D01*
X46863200Y-31933900D01*
X46888900Y-31928600D01*
X46914900Y-31923000D01*
X46941200Y-31917100D01*
X46967600Y-31910900D01*
X46994000Y-31904500D01*
X47020200Y-31897900D01*
X47046100Y-31891200D01*
X47071500Y-31884300D01*
X47096400Y-31877300D01*
X47219500Y-31838200D01*
X47339000Y-31792900D01*
X47454600Y-31741400D01*
X47566100Y-31684200D01*
X47673300Y-31621200D01*
X47775900Y-31552800D01*
X47873700Y-31479100D01*
X47966400Y-31400300D01*
X48053700Y-31316600D01*
X48135500Y-31228200D01*
X48211500Y-31135400D01*
X48281400Y-31038200D01*
X48345000Y-30936900D01*
X48402100Y-30831700D01*
X48424000Y-30786700D01*
X48444600Y-30741500D01*
X48463900Y-30695800D01*
X48482000Y-30649900D01*
X48498900Y-30603500D01*
X48514500Y-30556700D01*
X48528900Y-30509400D01*
X48542100Y-30461700D01*
X48554100Y-30413400D01*
X48565000Y-30364600D01*
X48574600Y-30315100D01*
X48583100Y-30265100D01*
X48590400Y-30214400D01*
X48596600Y-30163000D01*
X48599100Y-30134200D01*
X48601000Y-30101700D01*
X48602400Y-30066100D01*
X48603100Y-30028100D01*
X48603200Y-29988200D01*
X48602800Y-29947100D01*
X48601800Y-29905500D01*
X48600400Y-29863800D01*
X48598400Y-29822900D01*
X48595900Y-29783200D01*
X48592900Y-29745400D01*
X48589500Y-29710200D01*
X48585700Y-29678100D01*
X48581500Y-29649800D01*
X48572400Y-29599700D01*
X48562100Y-29549800D01*
X48550600Y-29500000D01*
X48538000Y-29450600D01*
X48524400Y-29401700D01*
X48509700Y-29353300D01*
X48494000Y-29305500D01*
X48477400Y-29258600D01*
X48459800Y-29212600D01*
X48441300Y-29167600D01*
X48422000Y-29123700D01*
X48401900Y-29081000D01*
X48381100Y-29039700D01*
X48359500Y-28999800D01*
X48351200Y-28985400D01*
X48342000Y-28969900D01*
X48332100Y-28953500D01*
X48321500Y-28936500D01*
X48310500Y-28919100D01*
X48299200Y-28901500D01*
X48287700Y-28883900D01*
X48276200Y-28866600D01*
X48264700Y-28849700D01*
X48253500Y-28833400D01*
X48242700Y-28818100D01*
X48232500Y-28803800D01*
X48222800Y-28790900D01*
X48214100Y-28779500D01*
X48198800Y-28760100D01*
X48217800Y-28689100D01*
X48225600Y-28659100D01*
X48232500Y-28630900D01*
X48238600Y-28603800D01*
X48243900Y-28577600D01*
X48248400Y-28551500D01*
X48252300Y-28525300D01*
X48255500Y-28498300D01*
X48258100Y-28470200D01*
X48260100Y-28440400D01*
X48261700Y-28408400D01*
X48262800Y-28373800D01*
X48263500Y-28336100D01*
X48263900Y-28294800D01*
X48264000Y-28249400D01*
X48263800Y-28203800D01*
X48263300Y-28161700D01*
X48262500Y-28122700D01*
X48261200Y-28086500D01*
X48259600Y-28052600D01*
X48257400Y-28020800D01*
X48254800Y-27990600D01*
X48251600Y-27961600D01*
X48247800Y-27933500D01*
X48243400Y-27905900D01*
X48238400Y-27878400D01*
X48232700Y-27850700D01*
X48226200Y-27822400D01*
X48219000Y-27793000D01*
X48213200Y-27770700D01*
X48207500Y-27750100D01*
X48202000Y-27731200D01*
X48196500Y-27713900D01*
X48191200Y-27698200D01*
X48185900Y-27684100D01*
X48180700Y-27671600D01*
X48175600Y-27660700D01*
X48170600Y-27651300D01*
X48165600Y-27643400D01*
X48160600Y-27637000D01*
X48155700Y-27632100D01*
X48150800Y-27628600D01*
X48145900Y-27626500D01*
X48132400Y-27623800D01*
X48115200Y-27621800D01*
X48094800Y-27620800D01*
X48071700Y-27620500D01*
X48046300Y-27620900D01*
X48019000Y-27622100D01*
X47990200Y-27624000D01*
X47960400Y-27626600D01*
X47929900Y-27629800D01*
X47899300Y-27633600D01*
X47868900Y-27637900D01*
X47839200Y-27642800D01*
X47810500Y-27648200D01*
X47783400Y-27654100D01*
X47735300Y-27666400D01*
X47685200Y-27681400D01*
X47633800Y-27698800D01*
X47581500Y-27718300D01*
X47528800Y-27739800D01*
X47476200Y-27762900D01*
X47424300Y-27787500D01*
X47373600Y-27813100D01*
X47324500Y-27839700D01*
X47277600Y-27867000D01*
X47233500Y-27894700D01*
X47192500Y-27922500D01*
X47155200Y-27950200D01*
X47122100Y-27977600D01*
X47117900Y-27981300D01*
X47113800Y-27984800D01*
X47109600Y-27988200D01*
X47105600Y-27991400D01*
X47101700Y-27994400D01*
X47098000Y-27997200D01*
X47094500Y-27999800D01*
X47091200Y-28002100D01*
X47088100Y-28004100D01*
X47085400Y-28005800D01*
X47082900Y-28007100D01*
X47080900Y-28008100D01*
X47079200Y-28008700D01*
X47078000Y-28009000D01*
X47076500Y-28008800D01*
X47074000Y-28008400D01*
X47070600Y-28007600D01*
X47066400Y-28006600D01*
X47061400Y-28005400D01*
X47055700Y-28003900D01*
X47049400Y-28002300D01*
X47042400Y-28000400D01*
X47035000Y-27998400D01*
X47027200Y-27996200D01*
X47018900Y-27993800D01*
X47010400Y-27991400D01*
X47001600Y-27988800D01*
X46992600Y-27986200D01*
X46954400Y-27975200D01*
X46914000Y-27964600D01*
X46871700Y-27954300D01*
X46827700Y-27944300D01*
X46782200Y-27934600D01*
X46735400Y-27925400D01*
X46687400Y-27916600D01*
X46638600Y-27908300D01*
X46589000Y-27900500D01*
X46538900Y-27893300D01*
X46488400Y-27886600D01*
X46437900Y-27880600D01*
X46387400Y-27875200D01*
X46337200Y-27870500D01*
X46302900Y-27868000D01*
X46261600Y-27865900D01*
X46214500Y-27864200D01*
X46162700Y-27862900D01*
X46107300Y-27862000D01*
X46049600Y-27861400D01*
X45990600Y-27861300D01*
X45931700Y-27861400D01*
X45873900Y-27862000D01*
X45818400Y-27863000D01*
X45766300Y-27864300D01*
X45718900Y-27866000D01*
X45677300Y-27868100D01*
X45642700Y-27870600D01*
X45595300Y-27874900D01*
X45548600Y-27879700D01*
X45502700Y-27884900D01*
X45457400Y-27890600D01*
X45412700Y-27896700D01*
X45368500Y-27903300D01*
X45324700Y-27910400D01*
X45281400Y-27918100D01*
X45238300Y-27926200D01*
X45195500Y-27934900D01*
X45152900Y-27944100D01*
X45110400Y-27953800D01*
X45067900Y-27964100D01*
X45025400Y-27975000D01*
X45008100Y-27979500D01*
X44992700Y-27983400D01*
X44979100Y-27986800D01*
X44967200Y-27989600D01*
X44956700Y-27991900D01*
X44947700Y-27993700D01*
X44939900Y-27995000D01*
X44933300Y-27995800D01*
X44927600Y-27996200D01*
X44922900Y-27996200D01*
X44918900Y-27995700D01*
X44915500Y-27994900D01*
X44912700Y-27993600D01*
X44910200Y-27992000D01*
X44908200Y-27990600D01*
X44905500Y-27988500D01*
X44902100Y-27985900D01*
X44897900Y-27982800D01*
X44893200Y-27979200D01*
X44888000Y-27975300D01*
X44882200Y-27970900D01*
X44876000Y-27966200D01*
X44869500Y-27961300D01*
X44862600Y-27956100D01*
X44855500Y-27950700D01*
X44848300Y-27945200D01*
X44840800Y-27939600D01*
X44833300Y-27933900D01*
X44794600Y-27905700D01*
X44754100Y-27878400D01*
X44712000Y-27852100D01*
X44668400Y-27826900D01*
X44623300Y-27802800D01*
X44577100Y-27779800D01*
X44529700Y-27758100D01*
X44481400Y-27737600D01*
X44432200Y-27718500D01*
X44382400Y-27700900D01*
X44332000Y-27684600D01*
X44281300Y-27670000D01*
X44230200Y-27656900D01*
X44179100Y-27645500D01*
X44162900Y-27642200D01*
X44147600Y-27639300D01*
X44133000Y-27636700D01*
X44119000Y-27634400D01*
X44105200Y-27632400D01*
X44091700Y-27630700D01*
X44078000Y-27629200D01*
X44064200Y-27628000D01*
X44049900Y-27626900D01*
X44034900Y-27626100D01*
X44019200Y-27625500D01*
X44002400Y-27625000D01*
X43984400Y-27624700D01*
X43965000Y-27624500D01*
X43938000Y-27624200D01*
X43914900Y-27624100D01*
X43895500Y-27624300D01*
X43879300Y-27625100D01*
X43866000Y-27626600D01*
X43855100Y-27629100D01*
X43846200Y-27632900D01*
X43838900Y-27638100D01*
X43832900Y-27644900D01*
X43827800Y-27653700D01*
X43823000Y-27664500D01*
X43818400Y-27677700D01*
X43813300Y-27693400D01*
X43807500Y-27711900D01*
X43797600Y-27745200D01*
X43788500Y-27779900D01*
X43780300Y-27815800D01*
X43772800Y-27853000D01*
X43766300Y-27891500D01*
X43760500Y-27931200D01*
X43755600Y-27972100D01*
X43751500Y-28014200D01*
X43748300Y-28057500D01*
X43745900Y-28102000D01*
X43744300Y-28147700D01*
X43743600Y-28194400D01*
X43743700Y-28242300D01*
X43744700Y-28291300D01*
X43745900Y-28326400D01*
X43747300Y-28359500D01*
X43749000Y-28390700D01*
X43750900Y-28420400D01*
X43753200Y-28448700D01*
X43755900Y-28475700D01*
X43758900Y-28501800D01*
X43762300Y-28527100D01*
X43766100Y-28551900D01*
X43770400Y-28576200D01*
X43775200Y-28600400D01*
X43780500Y-28624600D01*
X43786300Y-28649100D01*
X43792600Y-28674000D01*
X43794900Y-28682700D01*
X43797000Y-28691200D01*
X43799000Y-28699500D01*
X43800800Y-28707500D01*
X43802500Y-28715100D01*
X43803900Y-28722200D01*
X43805200Y-28728900D01*
X43806300Y-28735000D01*
X43807100Y-28740400D01*
X43807700Y-28745200D01*
X43808100Y-28749200D01*
X43808300Y-28752400D01*
X43808100Y-28754700D01*
X43807700Y-28756100D01*
X43806900Y-28757400D01*
X43805400Y-28759600D01*
X43803300Y-28762500D01*
X43800600Y-28766200D01*
X43797500Y-28770500D01*
X43793900Y-28775500D01*
X43789800Y-28781000D01*
X43785400Y-28787000D01*
X43780700Y-28793400D01*
X43775600Y-28800300D01*
X43770300Y-28807500D01*
X43764800Y-28814900D01*
X43759100Y-28822600D01*
X43753300Y-28830400D01*
X43715100Y-28883900D01*
X43678800Y-28939600D01*
X43644500Y-28997200D01*
X43612300Y-29056600D01*
X43582000Y-29117800D01*
X43553900Y-29180600D01*
X43527900Y-29244800D01*
X43504100Y-29310400D01*
X43482600Y-29377200D01*
X43463300Y-29445100D01*
X43446400Y-29514000D01*
X43431900Y-29583700D01*
X43419800Y-29654200D01*
X43410200Y-29725200D01*
X43407300Y-29753200D01*
X43404900Y-29783700D01*
X43402900Y-29816400D01*
X43401300Y-29850700D01*
X43400200Y-29886300D01*
X43399600Y-29922700D01*
X43399400Y-29959600D01*
X43399600Y-29996500D01*
X43400300Y-30033000D01*
X43401500Y-30068700D01*
X43403100Y-30103200D01*
X43405100Y-30136000D01*
X43407600Y-30166700D01*
X43410500Y-30195000D01*
X43417000Y-30244400D01*
X43425000Y-30294200D01*
X43434400Y-30344200D01*
X43445200Y-30394300D01*
X43457300Y-30444200D01*
X43470700Y-30493900D01*
X43485300Y-30543200D01*
X43501100Y-30591900D01*
X43518100Y-30639800D01*
X43536100Y-30686900D01*
X43555100Y-30732800D01*
X43575100Y-30777500D01*
X43596000Y-30820800D01*
X43617800Y-30862500D01*
X43685400Y-30977400D01*
X43760300Y-31086900D01*
X43842300Y-31190800D01*
X43931200Y-31289000D01*
X44026700Y-31381400D01*
X44128700Y-31467700D01*
X44236900Y-31547800D01*
X44351100Y-31621600D01*
X44471100Y-31688900D01*
X44596700Y-31749600D01*
X44727600Y-31803500D01*
X44863700Y-31850500D01*
X45004700Y-31890500D01*
X45150400Y-31923200D01*
X45164000Y-31925800D01*
X45177600Y-31928500D01*
X45191100Y-31931000D01*
X45204400Y-31933600D01*
X45217400Y-31936000D01*
X45230000Y-31938300D01*
X45242100Y-31940500D01*
X45253500Y-31942600D01*
X45264100Y-31944500D01*
X45273800Y-31946200D01*
X45282600Y-31947700D01*
X45290200Y-31948900D01*
X45296600Y-31949900D01*
X45301600Y-31950700D01*
X45338300Y-31955700D01*
X45290200Y-31992100D01*
X45275800Y-32003400D01*
X45260800Y-32016000D01*
X45245400Y-32029800D01*
X45229700Y-32044500D01*
X45213800Y-32060000D01*
X45197800Y-32076300D01*
X45182000Y-32093100D01*
X45166300Y-32110400D01*
X45150900Y-32128000D01*
X45136100Y-32145700D01*
X45121800Y-32163400D01*
X45108200Y-32181000D01*
X45095500Y-32198400D01*
X45083700Y-32215300D01*
X45065400Y-32243700D01*
X45047400Y-32273800D01*
X45029800Y-32305200D01*
X45012800Y-32338000D01*
X44996300Y-32371700D01*
X44980600Y-32406400D01*
X44965500Y-32441800D01*
X44951300Y-32477600D01*
X44938000Y-32513800D01*
X44925700Y-32550100D01*
X44914400Y-32586400D01*
X44904300Y-32622400D01*
X44895300Y-32658000D01*
X44887700Y-32693000D01*
X44881400Y-32724300D01*
X44876100Y-32753600D01*
X44871400Y-32782300D01*
X44867400Y-32811700D01*
X44864100Y-32843300D01*
X44861300Y-32878500D01*
X44858900Y-32918700D01*
X44857000Y-32965300D01*
X44855300Y-33019700D01*
X44854000Y-33083300D01*
X44852800Y-33157500D01*
X44851700Y-33243800D01*
X44850700Y-33343500D01*
X44849700Y-33458100D01*
X44844800Y-34019000D01*
X44826600Y-34064800D01*
X44823700Y-34071900D01*
X44820600Y-34078700D01*
X44817200Y-34085400D01*
X44813600Y-34092000D01*
X44809800Y-34098600D01*
X44805600Y-34105100D01*
X44801100Y-34111600D01*
X44796300Y-34118200D01*
X44791100Y-34124800D01*
X44785400Y-34131600D01*
X44779300Y-34138600D01*
X44772800Y-34145800D01*
X44765700Y-34153200D01*
X44758100Y-34160900D01*
X44743700Y-34174800D01*
X44729900Y-34187300D01*
X44716500Y-34198300D01*
X44703200Y-34208000D01*
X44689900Y-34216400D01*
X44676400Y-34223600D01*
X44662500Y-34229700D01*
X44648100Y-34234800D01*
X44633000Y-34238900D01*
X44616900Y-34242000D01*
X44599800Y-34244400D01*
X44581300Y-34245900D01*
X44561400Y-34246800D01*
X44539900Y-34247000D01*
X44521800Y-34246800D01*
X44504800Y-34246200D01*
X44488600Y-34244900D01*
X44472600Y-34243000D01*
X44456500Y-34240200D01*
X44439700Y-34236400D01*
X44421800Y-34231500D01*
X44402300Y-34225400D01*
X44380800Y-34217800D01*
X44356800Y-34208700D01*
X44329900Y-34198000D01*
X44299600Y-34185400D01*
X44265500Y-34171000D01*
X44227000Y-34154400D01*
X44136400Y-34114100D01*
X44047200Y-34071900D01*
X43959400Y-34028000D01*
X43873000Y-33982200D01*
X43787800Y-33934600D01*
X43703900Y-33885100D01*
X43621200Y-33833700D01*
X43539800Y-33780400D01*
X43459500Y-33725200D01*
X43380300Y-33668000D01*
X43302300Y-33608800D01*
X43225400Y-33547700D01*
X43149500Y-33484500D01*
X43074600Y-33419300D01*
X43046800Y-33394100D01*
X43016600Y-33366000D01*
X42984400Y-33335300D01*
X42950800Y-33302600D01*
X42916100Y-33268300D01*
X42880900Y-33233000D01*
X42845700Y-33197100D01*
X42810900Y-33161200D01*
X42776900Y-33125500D01*
X42744300Y-33090800D01*
X42713400Y-33057400D01*
X42684900Y-33025800D01*
X42659100Y-32996600D01*
X42636500Y-32970100D01*
X42626700Y-32958300D01*
X42616300Y-32945600D01*
X42605200Y-32932000D01*
X42593700Y-32917700D01*
X42581800Y-32902900D01*
X42569700Y-32887700D01*
X42557500Y-32872300D01*
X42545300Y-32856700D01*
X42533200Y-32841300D01*
X42521400Y-32826100D01*
X42509900Y-32811200D01*
X42499000Y-32796900D01*
X42488600Y-32783300D01*
X42479000Y-32770500D01*
X42388400Y-32644500D01*
X42302400Y-32515400D01*
X42221100Y-32383500D01*
X42144700Y-32249000D01*
X42073000Y-32111900D01*
X42006400Y-31972600D01*
X41944700Y-31831000D01*
X41888200Y-31687500D01*
X41836700Y-31542200D01*
X41790600Y-31395200D01*
X41749700Y-31246800D01*
X41714100Y-31097100D01*
X41684100Y-30946300D01*
X41659500Y-30794600D01*
X41638500Y-30625300D01*
X41624000Y-30455900D01*
X41615900Y-30286600D01*
X41614200Y-30117600D01*
X41618900Y-29948900D01*
X41629900Y-29780900D01*
X41647300Y-29613600D01*
X41671000Y-29447200D01*
X41701000Y-29281900D01*
X41737300Y-29117900D01*
X41779800Y-28955300D01*
X41828600Y-28794400D01*
X41883600Y-28635200D01*
X41944800Y-28477900D01*
X41958600Y-28445300D01*
X41974200Y-28409700D01*
X41991300Y-28371700D01*
X42009800Y-28331700D01*
X42029300Y-28290400D01*
X42049700Y-28248200D01*
X42070500Y-28205700D01*
X42091600Y-28163400D01*
X42112700Y-28121800D01*
X42133500Y-28081600D01*
X42153800Y-28043100D01*
X42173300Y-28007000D01*
X42191700Y-27973900D01*
X42208800Y-27944100D01*
X42226800Y-27913600D01*
X42245500Y-27882700D01*
X42264800Y-27851500D01*
X42284500Y-27820000D01*
X42304700Y-27788400D01*
X42325200Y-27756800D01*
X42346000Y-27725200D01*
X42367000Y-27693900D01*
X42388200Y-27662800D01*
X42409500Y-27632000D01*
X42430800Y-27601800D01*
X42452000Y-27572200D01*
X42473200Y-27543200D01*
X42494100Y-27515000D01*
X42680100Y-27283700D01*
X42879400Y-27066900D01*
X43091200Y-26865000D01*
X43314700Y-26678500D01*
X43549100Y-26507800D01*
X43793400Y-26353200D01*
X44047000Y-26215300D01*
X44308900Y-26094400D01*
X44578400Y-25990900D01*
X44854500Y-25905300D01*
X45136400Y-25838000D01*
X45423400Y-25789400D01*
X45714500Y-25759900D01*
X46009000Y-25750000D01*
X46191500Y-25753800D01*
G37*
%TD*%
M02*
