M48
; DRILL file {KiCad 9.0.9-9.0.9~ubuntu24.04.1} date 2026-09-10T13:33:15+0200
; FORMAT={-:-/ absolute / metric / decimal}
; #@! TF.CreationDate,2026-09-10T13:33:15+02:00
; #@! TF.GenerationSoftware,Kicad,Pcbnew,9.0.9-9.0.9~ubuntu24.04.1
; #@! TF.FileFunction,MixedPlating,1,2
FMAT,2
METRIC
; #@! TA.AperFunction,Plated,PTH,ViaDrill
T1C0.300
; #@! TA.AperFunction,Plated,PTH,ViaDrill
T2C0.400
; #@! TA.AperFunction,Plated,PTH,ComponentDrill
T3C1.000
; #@! TA.AperFunction,Plated,PTH,ComponentDrill
T4C1.300
; #@! TA.AperFunction,NonPlated,NPTH,ComponentDrill
T5C3.200
%
G90
G05
T1
X14.975Y-40.975
X19.975Y-40.975
X28.256Y-18.622
X29.087Y-38.41
X30.642Y-26.999
X31.653Y-39.196
X32.081Y-31.832
X32.842Y-27.976
X33.852Y-6.902
X33.999Y-35.191
X34.258Y-22.912
X34.37Y-32.35
X35.185Y-47.097
X35.194Y-18.622
X35.211Y-21.98
X35.805Y-27.386
X38.221Y-22.062
X40.081Y-23.87
X40.146Y-47.083
X40.461Y-25.365
X40.975Y-27.475
X41.475Y-25.475
X42.253Y-17.797
X42.475Y-25.475
X43.986Y-26.635
X44.475Y-33.475
X44.975Y-31.475
X45.862Y-12.81
X45.862Y-26.635
X50.937Y-28.887
X52.989Y-22.476
X53.719Y-29.852
X62.0Y-40.888
T2
X4.925Y-9.925
X4.925Y-14.925
X4.925Y-19.925
X4.925Y-24.925
X4.925Y-29.925
X4.925Y-34.925
X4.925Y-39.925
X4.925Y-44.925
X9.925Y-29.925
X9.925Y-34.925
X9.925Y-39.925
X9.925Y-44.925
X14.925Y-14.925
X14.925Y-19.925
X14.925Y-29.925
X14.925Y-34.925
X14.925Y-39.925
X14.925Y-44.925
X15.062Y-37.65
X19.087Y-38.6
X19.925Y-4.925
X19.925Y-9.925
X19.925Y-34.925
X19.925Y-44.925
X24.0Y-45.864
X24.15Y-37.267
X24.925Y-29.925
X27.6Y-46.525
X29.925Y-44.925
X30.4Y-46.525
X32.567Y-35.445
X32.862Y-40.35
X32.95Y-7.8
X34.925Y-4.925
X34.925Y-14.925
X34.925Y-19.925
X34.925Y-29.925
X34.925Y-44.925
X36.125Y-25.365
X39.925Y-4.925
X39.925Y-9.925
X39.925Y-34.925
X39.925Y-39.925
X39.925Y-44.925
X41.062Y-46.2
X41.4Y-20.05
X41.55Y-42.0
X41.829Y-15.588
X43.875Y-27.905
X44.925Y-4.925
X44.925Y-9.925
X47.914Y-42.086
X48.737Y-33.0
X51.111Y-20.271
X51.793Y-44.0
X54.925Y-4.925
X54.925Y-14.925
X54.925Y-19.925
X54.925Y-24.925
X54.925Y-49.925
X55.0Y-38.6
X55.0Y-41.4
X59.925Y-4.925
X59.925Y-9.925
X59.925Y-19.925
X59.925Y-24.925
X59.925Y-29.925
X59.925Y-34.925
X59.925Y-39.925
X59.925Y-44.925
X59.925Y-49.925
X64.925Y-9.925
X64.925Y-14.925
X64.925Y-19.925
X64.925Y-24.925
X64.925Y-29.925
X64.925Y-34.925
X64.925Y-39.925
X64.925Y-44.925
T3
X10.38Y-5.11
X10.38Y-7.65
X10.38Y-10.19
X10.38Y-12.73
X10.38Y-15.27
X10.38Y-17.81
X10.38Y-20.35
X10.38Y-22.89
X25.62Y-5.11
X25.62Y-7.65
X25.62Y-10.19
X25.62Y-12.73
X25.62Y-15.27
X25.62Y-17.81
X25.62Y-20.35
X25.62Y-22.89
X46.0Y-50.0
X48.54Y-50.0
X50.0Y-9.0
X50.0Y-11.54
X50.0Y-14.08
X50.0Y-16.62
X50.0Y-19.16
X51.08Y-50.0
X52.54Y-9.0
X52.54Y-11.54
X52.54Y-14.08
X52.54Y-16.62
X52.54Y-19.16
X53.62Y-50.0
X62.0Y-20.0
X62.0Y-22.54
X62.0Y-25.08
X62.0Y-27.62
T4
X11.0Y-48.0
X16.08Y-48.0
T5
X4.0Y-4.0
X4.0Y-50.0
X64.0Y-4.0
X64.0Y-50.0
M30
