%TF.GenerationSoftware,KiCad,Pcbnew,9.0.9-9.0.9~ubuntu24.04.1*%
%TF.CreationDate,2026-09-10T13:44:07+02:00*%
%TF.ProjectId,master,6d617374-6572-42e6-9b69-6361645f7063,rev?*%
%TF.SameCoordinates,Original*%
%TF.FileFunction,Copper,L1,Top*%
%TF.FilePolarity,Positive*%
%FSLAX46Y46*%
G04 Gerber Fmt 4.6, Leading zero omitted, Abs format (unit mm)*
G04 Created by KiCad (PCBNEW 9.0.9-9.0.9~ubuntu24.04.1) date 2026-09-10 13:44:07*
%MOMM*%
%LPD*%
G01*
G04 APERTURE LIST*
G04 Aperture macros list*
%AMRoundRect*
0 Rectangle with rounded corners*
0 $1 Rounding radius*
0 $2 $3 $4 $5 $6 $7 $8 $9 X,Y pos of 4 corners*
0 Add a 4 corners polygon primitive as box body*
4,1,4,$2,$3,$4,$5,$6,$7,$8,$9,$2,$3,0*
0 Add four circle primitives for the rounded corners*
1,1,$1+$1,$2,$3*
1,1,$1+$1,$4,$5*
1,1,$1+$1,$6,$7*
1,1,$1+$1,$8,$9*
0 Add four rect primitives between the rounded corners*
20,1,$1+$1,$2,$3,$4,$5,0*
20,1,$1+$1,$4,$5,$6,$7,0*
20,1,$1+$1,$6,$7,$8,$9,0*
20,1,$1+$1,$8,$9,$2,$3,0*%
G04 Aperture macros list end*
%TA.AperFunction,SMDPad,CuDef*%
%ADD10RoundRect,0.250000X-0.262500X-0.450000X0.262500X-0.450000X0.262500X0.450000X-0.262500X0.450000X0*%
%TD*%
%TA.AperFunction,SMDPad,CuDef*%
%ADD11RoundRect,0.250000X-0.250000X-0.475000X0.250000X-0.475000X0.250000X0.475000X-0.250000X0.475000X0*%
%TD*%
%TA.AperFunction,SMDPad,CuDef*%
%ADD12RoundRect,0.250000X0.475000X-0.250000X0.475000X0.250000X-0.475000X0.250000X-0.475000X-0.250000X0*%
%TD*%
%TA.AperFunction,SMDPad,CuDef*%
%ADD13RoundRect,0.250000X0.450000X-0.262500X0.450000X0.262500X-0.450000X0.262500X-0.450000X-0.262500X0*%
%TD*%
%TA.AperFunction,SMDPad,CuDef*%
%ADD14RoundRect,0.250000X0.650000X-0.325000X0.650000X0.325000X-0.650000X0.325000X-0.650000X-0.325000X0*%
%TD*%
%TA.AperFunction,SMDPad,CuDef*%
%ADD15C,1.500000*%
%TD*%
%TA.AperFunction,ComponentPad*%
%ADD16R,1.700000X1.700000*%
%TD*%
%TA.AperFunction,ComponentPad*%
%ADD17C,1.700000*%
%TD*%
%TA.AperFunction,SMDPad,CuDef*%
%ADD18RoundRect,0.218750X0.381250X-0.218750X0.381250X0.218750X-0.381250X0.218750X-0.381250X-0.218750X0*%
%TD*%
%TA.AperFunction,SMDPad,CuDef*%
%ADD19RoundRect,0.150000X-0.512500X-0.150000X0.512500X-0.150000X0.512500X0.150000X-0.512500X0.150000X0*%
%TD*%
%TA.AperFunction,ComponentPad*%
%ADD20RoundRect,0.250000X-1.050000X-1.050000X1.050000X-1.050000X1.050000X1.050000X-1.050000X1.050000X0*%
%TD*%
%TA.AperFunction,ComponentPad*%
%ADD21C,2.600000*%
%TD*%
%TA.AperFunction,SMDPad,CuDef*%
%ADD22R,1.000000X1.500000*%
%TD*%
%TA.AperFunction,SMDPad,CuDef*%
%ADD23RoundRect,0.150000X-0.587500X-0.150000X0.587500X-0.150000X0.587500X0.150000X-0.587500X0.150000X0*%
%TD*%
%TA.AperFunction,SMDPad,CuDef*%
%ADD24RoundRect,0.243750X-0.243750X-0.456250X0.243750X-0.456250X0.243750X0.456250X-0.243750X0.456250X0*%
%TD*%
%TA.AperFunction,ComponentPad*%
%ADD25RoundRect,0.250000X-0.600000X-0.600000X0.600000X-0.600000X0.600000X0.600000X-0.600000X0.600000X0*%
%TD*%
%TA.AperFunction,SMDPad,CuDef*%
%ADD26RoundRect,0.150000X-0.825000X-0.150000X0.825000X-0.150000X0.825000X0.150000X-0.825000X0.150000X0*%
%TD*%
%TA.AperFunction,ViaPad*%
%ADD27C,0.800000*%
%TD*%
%TA.AperFunction,ViaPad*%
%ADD28C,0.600000*%
%TD*%
%TA.AperFunction,Conductor*%
%ADD29C,0.800000*%
%TD*%
%TA.AperFunction,Conductor*%
%ADD30C,0.600000*%
%TD*%
%TA.AperFunction,Conductor*%
%ADD31C,0.601000*%
%TD*%
%TA.AperFunction,Conductor*%
%ADD32C,0.480000*%
%TD*%
%TA.AperFunction,Conductor*%
%ADD33C,0.500000*%
%TD*%
%TA.AperFunction,Conductor*%
%ADD34C,0.375000*%
%TD*%
G04 APERTURE END LIST*
D10*
%TO.P,R5,1*%
%TO.N,/CHAIN_OUT*%
X39087500Y-38000000D03*
%TO.P,R5,2*%
%TO.N,/CHAIN_BUS*%
X40912500Y-38000000D03*
%TD*%
D11*
%TO.P,C2,1*%
%TO.N,/+5V*%
X33050000Y-34000000D03*
%TO.P,C2,2*%
%TO.N,/GND*%
X34950000Y-34000000D03*
%TD*%
D12*
%TO.P,C1,1*%
%TO.N,/+3V3*%
X40000000Y-21950000D03*
%TO.P,C1,2*%
%TO.N,/GND*%
X40000000Y-20050000D03*
%TD*%
D13*
%TO.P,R1,1*%
%TO.N,/RS485_A*%
X33000000Y-22912500D03*
%TO.P,R1,2*%
%TO.N,/RS485_B*%
X33000000Y-21087500D03*
%TD*%
D10*
%TO.P,R7,1*%
%TO.N,/CHAIN_GPIO*%
X29087500Y-42000000D03*
%TO.P,R7,2*%
%TO.N,/CHAIN_OUT*%
X30912500Y-42000000D03*
%TD*%
D14*
%TO.P,C3,1*%
%TO.N,/+5V_IN*%
X29000000Y-49475000D03*
%TO.P,C3,2*%
%TO.N,/GND*%
X29000000Y-46525000D03*
%TD*%
D15*
%TO.P,TP5,1*%
%TO.N,/+15V*%
X50000000Y-40000000D03*
%TD*%
%TO.P,TP7,1*%
%TO.N,/ADER9*%
X55000000Y-44000000D03*
%TD*%
D16*
%TO.P,J4,1*%
%TO.N,/+5V_IN*%
X46000000Y-50000000D03*
D17*
%TO.P,J4,2*%
%TO.N,/GND*%
X48540000Y-50000000D03*
%TO.P,J4,3*%
%TO.N,/+15V*%
X51080000Y-50000000D03*
%TO.P,J4,4*%
%TO.N,/GND*%
X53620000Y-50000000D03*
%TD*%
D15*
%TO.P,TP3,1*%
%TO.N,/CHAIN_BUS*%
X50000000Y-35000000D03*
%TD*%
D18*
%TO.P,FB1,1*%
%TO.N,/+5V_IN*%
X24000000Y-49062500D03*
%TO.P,FB1,2*%
%TO.N,/+5V*%
X24000000Y-46937500D03*
%TD*%
D19*
%TO.P,U3,1*%
%TO.N,unconnected-(U3-NC-Pad1)*%
X32862500Y-37050000D03*
%TO.P,U3,2*%
%TO.N,/CHAIN_GPIO*%
X32862500Y-38000000D03*
%TO.P,U3,3*%
%TO.N,/GND*%
X32862500Y-38950000D03*
%TO.P,U3,4*%
%TO.N,/CHAIN_OUT*%
X35137500Y-38950000D03*
%TO.P,U3,5*%
%TO.N,/+5V*%
X35137500Y-37050000D03*
%TD*%
D10*
%TO.P,R8,1*%
%TO.N,/GND*%
X19087500Y-40000000D03*
%TO.P,R8,2*%
%TO.N,/+5V_RAW*%
X20912500Y-40000000D03*
%TD*%
D15*
%TO.P,TP4,1*%
%TO.N,/+3V3*%
X55000000Y-35000000D03*
%TD*%
D11*
%TO.P,C4,1*%
%TO.N,/+5V*%
X31050000Y-6000000D03*
%TO.P,C4,2*%
%TO.N,/GND*%
X32950000Y-6000000D03*
%TD*%
D15*
%TO.P,TP2,1*%
%TO.N,/RS485_B*%
X55000000Y-30000000D03*
%TD*%
%TO.P,TP6,1*%
%TO.N,/GND*%
X55000000Y-40000000D03*
%TD*%
D20*
%TO.P,J1,1*%
%TO.N,/+5V_RAW*%
X11000000Y-48000000D03*
D21*
%TO.P,J1,2*%
%TO.N,/GND*%
X16080000Y-48000000D03*
%TD*%
D22*
%TO.P,JP1,1*%
%TO.N,/+5V_IN*%
X42700000Y-42000000D03*
%TO.P,JP1,2*%
%TO.N,/ADER9*%
X44000000Y-42000000D03*
%TO.P,JP1,3*%
%TO.N,/+15V*%
X45300000Y-42000000D03*
%TD*%
D16*
%TO.P,J3,1*%
%TO.N,/IO0_RSV*%
X62000000Y-20000000D03*
D17*
%TO.P,J3,2*%
%TO.N,/IO1_RSV*%
X62000000Y-22540000D03*
%TO.P,J3,3*%
%TO.N,/IO7_RSV*%
X62000000Y-25080000D03*
%TO.P,J3,4*%
%TO.N,/GND*%
X62000000Y-27620000D03*
%TD*%
D13*
%TO.P,R2,1*%
%TO.N,/+3V3*%
X33000000Y-26912500D03*
%TO.P,R2,2*%
%TO.N,/RS485_A*%
X33000000Y-25087500D03*
%TD*%
D11*
%TO.P,C5,1*%
%TO.N,/+3V3*%
X43050000Y-15000000D03*
%TO.P,C5,2*%
%TO.N,/GND*%
X44950000Y-15000000D03*
%TD*%
D23*
%TO.P,D2,1*%
%TO.N,/RS485_A*%
X45062500Y-32050000D03*
%TO.P,D2,2*%
%TO.N,/RS485_B*%
X45062500Y-33950000D03*
%TO.P,D2,3*%
%TO.N,/GND*%
X46937500Y-33000000D03*
%TD*%
D24*
%TO.P,D1,1*%
%TO.N,/GND*%
X41062500Y-48000000D03*
%TO.P,D1,2*%
%TO.N,/LED_A*%
X42937500Y-48000000D03*
%TD*%
D10*
%TO.P,R6,1*%
%TO.N,/LED_DRV*%
X36087500Y-48000000D03*
%TO.P,R6,2*%
%TO.N,/LED_A*%
X37912500Y-48000000D03*
%TD*%
D23*
%TO.P,Q1,1*%
%TO.N,/GND*%
X15062500Y-39050000D03*
%TO.P,Q1,2*%
%TO.N,/+5V_RAW*%
X15062500Y-40950000D03*
%TO.P,Q1,3*%
%TO.N,/+5V_IN*%
X16937500Y-40000000D03*
%TD*%
D25*
%TO.P,J2,1*%
%TO.N,/+5V_IN*%
X50000000Y-9000000D03*
D17*
%TO.P,J2,2*%
%TO.N,/GND*%
X52540000Y-9000000D03*
%TO.P,J2,3*%
%TO.N,/RS485_A*%
X50000000Y-11540000D03*
%TO.P,J2,4*%
%TO.N,/GND*%
X52540000Y-11540000D03*
%TO.P,J2,5*%
%TO.N,/RS485_B*%
X50000000Y-14080000D03*
%TO.P,J2,6*%
%TO.N,/GND*%
X52540000Y-14080000D03*
%TO.P,J2,7*%
%TO.N,/CHAIN_BUS*%
X50000000Y-16620000D03*
%TO.P,J2,8*%
%TO.N,/GND*%
X52540000Y-16620000D03*
%TO.P,J2,9*%
%TO.N,/ADER9*%
X50000000Y-19160000D03*
%TO.P,J2,10*%
%TO.N,/GND*%
X52540000Y-19160000D03*
%TD*%
D26*
%TO.P,U2,1*%
%TO.N,/RO*%
X37525000Y-24095000D03*
%TO.P,U2,2*%
%TO.N,/GND*%
X37525000Y-25365000D03*
%TO.P,U2,3*%
%TO.N,/DE*%
X37525000Y-26635000D03*
%TO.P,U2,4*%
%TO.N,/DI*%
X37525000Y-27905000D03*
%TO.P,U2,5*%
%TO.N,/GND*%
X42475000Y-27905000D03*
%TO.P,U2,6*%
%TO.N,/RS485_A*%
X42475000Y-26635000D03*
%TO.P,U2,7*%
%TO.N,/RS485_B*%
X42475000Y-25365000D03*
%TO.P,U2,8*%
%TO.N,/+3V3*%
X42475000Y-24095000D03*
%TD*%
D13*
%TO.P,R3,1*%
%TO.N,/RS485_B*%
X33000000Y-30912500D03*
%TO.P,R3,2*%
%TO.N,/GND*%
X33000000Y-29087500D03*
%TD*%
D16*
%TO.P,U1,1*%
%TO.N,/+5V*%
X25620000Y-5110000D03*
D17*
%TO.P,U1,2*%
%TO.N,/GND*%
X25620000Y-7650000D03*
%TO.P,U1,3*%
%TO.N,/+3V3*%
X25620000Y-10190000D03*
%TO.P,U1,4*%
%TO.N,/RO*%
X25620000Y-12730000D03*
%TO.P,U1,5*%
%TO.N,/DI*%
X25620000Y-15270000D03*
%TO.P,U1,6*%
%TO.N,unconnected-(U1-GPIO2-Pad6)*%
X25620000Y-17810000D03*
%TO.P,U1,7*%
%TO.N,/IO1_RSV*%
X25620000Y-20350000D03*
%TO.P,U1,8*%
%TO.N,/IO0_RSV*%
X25620000Y-22890000D03*
%TO.P,U1,9*%
%TO.N,/CHAIN_GPIO*%
X10380000Y-5110000D03*
%TO.P,U1,10*%
%TO.N,/LED_DRV*%
X10380000Y-7650000D03*
%TO.P,U1,11*%
%TO.N,/IO7_RSV*%
X10380000Y-10190000D03*
%TO.P,U1,12*%
%TO.N,unconnected-(U1-GPIO8-Pad12)*%
X10380000Y-12730000D03*
%TO.P,U1,13*%
%TO.N,unconnected-(U1-GPIO9-Pad13)*%
X10380000Y-15270000D03*
%TO.P,U1,14*%
%TO.N,/DE*%
X10380000Y-17810000D03*
%TO.P,U1,15*%
%TO.N,unconnected-(U1-GPIO20-Pad15)*%
X10380000Y-20350000D03*
%TO.P,U1,16*%
%TO.N,unconnected-(U1-GPIO21-Pad16)*%
X10380000Y-22890000D03*
%TD*%
D15*
%TO.P,TP1,1*%
%TO.N,/RS485_A*%
X50000000Y-30000000D03*
%TD*%
D10*
%TO.P,R4,1*%
%TO.N,/DE*%
X43087500Y-30000000D03*
%TO.P,R4,2*%
%TO.N,/GND*%
X44912500Y-30000000D03*
%TD*%
D27*
%TO.N,/+3V3*%
X41829000Y-15588500D03*
%TO.N,/+5V*%
X24000000Y-45864400D03*
X32567200Y-35445300D03*
X24150200Y-37267300D03*
%TO.N,/+5V_IN*%
X41550000Y-42000000D03*
%TO.N,/+15V*%
X47913900Y-42086100D03*
%TO.N,/ADER9*%
X51792800Y-44000000D03*
X51111200Y-20271200D03*
D28*
%TO.N,/CHAIN_BUS*%
X50936700Y-28887100D03*
%TO.N,/CHAIN_GPIO*%
X29087500Y-38410100D03*
%TO.N,/DE*%
X30641800Y-26999300D03*
X33999300Y-35190700D03*
%TO.N,/DI*%
X32842000Y-27975800D03*
X35804800Y-27385800D03*
D27*
%TO.N,/GND*%
X19087500Y-38600000D03*
X34925000Y-44925000D03*
D28*
X34370400Y-32350000D03*
D27*
X59925000Y-44925000D03*
X54925000Y-14925000D03*
D28*
X40145900Y-47083400D03*
D27*
X64925000Y-24925000D03*
D28*
X31653000Y-39195800D03*
D27*
X64925000Y-39925000D03*
X55000000Y-38600000D03*
X39925000Y-39925000D03*
X14925000Y-14925000D03*
X64925000Y-29925000D03*
X64925000Y-19925000D03*
X39925000Y-44925000D03*
X29925000Y-44925000D03*
X64925000Y-9925000D03*
X39925000Y-9925000D03*
X4925000Y-34925000D03*
X41062500Y-46200000D03*
D28*
X33851600Y-6901600D03*
D27*
X32862499Y-40350000D03*
X14925000Y-34925000D03*
X4925000Y-39925000D03*
X14925000Y-39925000D03*
X54925000Y-4925000D03*
X64925000Y-44925000D03*
X54925000Y-19925000D03*
X14925000Y-29925000D03*
X24925000Y-29925000D03*
X36125000Y-25365000D03*
X19925000Y-9925000D03*
X4925000Y-29925000D03*
X15062500Y-37650000D03*
X19925000Y-44925000D03*
X59925000Y-24925000D03*
X34925000Y-19925000D03*
X44925000Y-9925000D03*
X30400000Y-46525000D03*
X9925000Y-34925000D03*
X59925000Y-4925000D03*
X19925000Y-34925000D03*
X9925000Y-44925000D03*
X4925000Y-24925000D03*
X14925000Y-44925000D03*
X59925000Y-39925000D03*
X41400000Y-20050000D03*
X9925000Y-29925000D03*
X59925000Y-29925000D03*
D28*
X62000000Y-40887900D03*
D27*
X32950000Y-7800000D03*
X39925000Y-4925000D03*
X34925000Y-29925000D03*
X59925000Y-9925000D03*
X54925000Y-49925000D03*
X54925000Y-24925000D03*
X43875000Y-27905000D03*
X39925000Y-34925000D03*
X64925000Y-34925000D03*
X4925000Y-9925000D03*
X34925000Y-4925000D03*
X4925000Y-19925000D03*
X4925000Y-44925000D03*
X48737500Y-33000000D03*
X59925000Y-34925000D03*
X4925000Y-14925000D03*
X55000000Y-41400000D03*
X64925000Y-14925000D03*
X9925000Y-39925000D03*
D28*
X40080600Y-23870300D03*
D27*
X14925000Y-19925000D03*
X34925000Y-14925000D03*
X19925000Y-4925000D03*
X44925000Y-4925000D03*
X59925000Y-19925000D03*
X27600000Y-46525000D03*
D28*
X42252900Y-17797200D03*
D27*
X59925000Y-49925000D03*
D28*
%TO.N,/LED_DRV*%
X35184700Y-47097200D03*
%TO.N,/RO*%
X35193500Y-18622100D03*
X38221400Y-22062300D03*
X28256100Y-18622100D03*
%TO.N,/RS485_A*%
X44975000Y-31475000D03*
X43986500Y-26635000D03*
X34258400Y-22912500D03*
X45862200Y-12810000D03*
X45862200Y-26635000D03*
%TO.N,/RS485_B*%
X40461100Y-25365000D03*
X44475000Y-33475000D03*
X52989500Y-22475900D03*
X53718800Y-29852000D03*
X40975000Y-27475000D03*
X42475000Y-25475000D03*
X32080600Y-31831900D03*
X41475000Y-25475000D03*
X35211100Y-21979800D03*
%TO.N,/+5V_RAW*%
X14975000Y-40975000D03*
X19975000Y-40975000D03*
%TD*%
D29*
%TO.N,/+3V3*%
X34326700Y-24623700D02*
X34326700Y-25137500D01*
D30*
X38633600Y-21151200D02*
X39201200Y-21151200D01*
X39201200Y-21151200D02*
X40000000Y-21950000D01*
D31*
X43965700Y-24464200D02*
X42844200Y-24464200D01*
D29*
X40330000Y-21950000D02*
X42475000Y-24095000D01*
X37799200Y-21151200D02*
X34326700Y-24623700D01*
X56356500Y-29427200D02*
X51393500Y-24464200D01*
X56356500Y-33643500D02*
X56356500Y-29427200D01*
D31*
X42844200Y-24464200D02*
X42475000Y-24095000D01*
D32*
X34326700Y-25137500D02*
X34159100Y-25305100D01*
D29*
X41829000Y-15588500D02*
X42461500Y-15588500D01*
D30*
X34159100Y-25715300D02*
X34159100Y-25753400D01*
D29*
X41829000Y-15588500D02*
X38633600Y-18783900D01*
X42461500Y-15588500D02*
X43050000Y-15000000D01*
D30*
X34159100Y-25753400D02*
X33000000Y-26912500D01*
D29*
X51393500Y-24464200D02*
X43965700Y-24464200D01*
X55000000Y-35000000D02*
X56356500Y-33643500D01*
X37896000Y-21151200D02*
X37799200Y-21151200D01*
X38633600Y-18783900D02*
X38633600Y-21151200D01*
D32*
X34159100Y-25305100D02*
X34159100Y-25715300D01*
D29*
X40000000Y-21950000D02*
X40330000Y-21950000D01*
D30*
X37896000Y-21151200D02*
X38633600Y-21151200D01*
D29*
%TO.N,/+5V*%
X33050000Y-34000000D02*
X33050000Y-35445300D01*
X32567200Y-35445300D02*
X32304400Y-35182500D01*
X32304400Y-35182500D02*
X32304400Y-35182400D01*
X26235100Y-35182400D02*
X24150200Y-37267300D01*
X33625900Y-36092400D02*
X34179900Y-36092400D01*
X32304400Y-35182400D02*
X26235100Y-35182400D01*
X33050000Y-35516500D02*
X33625900Y-36092400D01*
X30160000Y-5110000D02*
X31050000Y-6000000D01*
X24000000Y-45864400D02*
X24000000Y-46937500D01*
X34179900Y-36092400D02*
X35137500Y-37050000D01*
X25620000Y-5110000D02*
X30160000Y-5110000D01*
X33050000Y-35445300D02*
X33050000Y-35516500D01*
X32567200Y-35445300D02*
X33050000Y-35445300D01*
D33*
%TO.N,/+5V_IN*%
X13475000Y-47475000D02*
X13475000Y-47725000D01*
X13225000Y-49225000D02*
X12975000Y-49475000D01*
X13475000Y-46475000D02*
X13475000Y-46725000D01*
X13475000Y-47975000D02*
X13475000Y-48225000D01*
X13225000Y-48975000D02*
X13225000Y-49225000D01*
X14975000Y-43225000D02*
X14725000Y-43475000D01*
X13475000Y-45475000D02*
X13475000Y-45725000D01*
X16475000Y-41475000D02*
X16225000Y-41725000D01*
X16725000Y-40225000D02*
X16475000Y-40475000D01*
X16225000Y-41975000D02*
X15975000Y-42225000D01*
D29*
X12956600Y-49956600D02*
X23105900Y-49956600D01*
D33*
X12975000Y-49475000D02*
X12975000Y-49725000D01*
X12975000Y-49725000D02*
X12956600Y-49956600D01*
X16475000Y-40725000D02*
X16475000Y-40975000D01*
X15725000Y-42475000D02*
X15475000Y-42725000D01*
D29*
X29525000Y-50000000D02*
X46000000Y-50000000D01*
D33*
X13225000Y-48725000D02*
X13225000Y-48975000D01*
X13475000Y-44725000D02*
X13475000Y-44975000D01*
X16475000Y-40975000D02*
X16475000Y-41225000D01*
X13475000Y-47225000D02*
X13475000Y-47475000D01*
D29*
X42700000Y-42000000D02*
X41550000Y-42000000D01*
D33*
X13475000Y-48225000D02*
X13475000Y-48475000D01*
X14225000Y-43975000D02*
X13975000Y-44225000D01*
X13475000Y-48475000D02*
X13225000Y-48725000D01*
X13725000Y-44475000D02*
X13475000Y-44725000D01*
X13475000Y-45725000D02*
X13475000Y-45975000D01*
X13475000Y-47725000D02*
X13475000Y-47975000D01*
X15225000Y-42975000D02*
X14975000Y-43225000D01*
X13475000Y-45225000D02*
X13475000Y-45475000D01*
X13475000Y-44975000D02*
X13475000Y-45225000D01*
D29*
X29000000Y-49475000D02*
X24412500Y-49475000D01*
D33*
X16475000Y-41225000D02*
X16475000Y-41475000D01*
X13975000Y-44225000D02*
X13725000Y-44475000D01*
D29*
X23105900Y-49956600D02*
X24000000Y-49062500D01*
D33*
X15475000Y-42725000D02*
X15225000Y-42975000D01*
D29*
X29000000Y-49475000D02*
X29525000Y-50000000D01*
D33*
X13475000Y-46725000D02*
X13475000Y-46975000D01*
X16937500Y-40000000D02*
X16725000Y-40225000D01*
X14475000Y-43725000D02*
X14225000Y-43975000D01*
X13475000Y-46975000D02*
X13475000Y-47225000D01*
X13475000Y-45975000D02*
X13475000Y-46225000D01*
D29*
X24412500Y-49475000D02*
X24000000Y-49062500D01*
D33*
X16475000Y-40475000D02*
X16475000Y-40725000D01*
X15975000Y-42225000D02*
X15725000Y-42475000D01*
X13475000Y-46225000D02*
X13475000Y-46475000D01*
X16225000Y-41725000D02*
X16225000Y-41975000D01*
X14725000Y-43475000D02*
X14475000Y-43725000D01*
D29*
%TO.N,/+15V*%
X47827800Y-42000000D02*
X46450000Y-42000000D01*
X50000000Y-40000000D02*
X47913900Y-42086100D01*
X45300000Y-42000000D02*
X46450000Y-42000000D01*
X47913900Y-42086100D02*
X47827800Y-42000000D01*
%TO.N,/ADER9*%
X44600000Y-44000000D02*
X51792800Y-44000000D01*
X50000000Y-19160000D02*
X51111200Y-20271200D01*
X44000000Y-42000000D02*
X44000000Y-43400000D01*
X51792800Y-44000000D02*
X55000000Y-44000000D01*
X44000000Y-43400000D02*
X44600000Y-44000000D01*
D33*
%TO.N,/CHAIN_BUS*%
X50000000Y-35000000D02*
X51264400Y-33735600D01*
X51264400Y-33735600D02*
X51264400Y-29214800D01*
X43912500Y-35000000D02*
X40912500Y-38000000D01*
X51264400Y-29214800D02*
X50936700Y-28887100D01*
X50000000Y-35000000D02*
X43912500Y-35000000D01*
%TO.N,/CHAIN_GPIO*%
X29087500Y-38410100D02*
X29591300Y-38410100D01*
X29591300Y-38410100D02*
X29802200Y-38199200D01*
D34*
X32663300Y-38199200D02*
X32862500Y-38000000D01*
D33*
X29087500Y-42000000D02*
X29087500Y-38410100D01*
D34*
X29802200Y-38199200D02*
X32663300Y-38199200D01*
D33*
%TO.N,/CHAIN_OUT*%
X36087500Y-38000000D02*
X35137500Y-38950000D01*
X32912400Y-42000000D02*
X30912500Y-42000000D01*
X35137500Y-39774900D02*
X32912400Y-42000000D01*
X39087500Y-38000000D02*
X36087500Y-38000000D01*
X35137500Y-38950000D02*
X35137500Y-39774900D01*
%TO.N,/DE*%
X37525000Y-26635000D02*
X38380700Y-26635000D01*
X41226600Y-29480800D02*
X35516700Y-35190700D01*
X19569300Y-26999300D02*
X30641800Y-26999300D01*
X38380700Y-26635000D02*
X38910800Y-27165100D01*
X41226600Y-29480800D02*
X38910800Y-27165100D01*
X10380000Y-17810000D02*
X19569300Y-26999300D01*
X41745700Y-30000000D02*
X41226600Y-29480800D01*
X43087500Y-30000000D02*
X41745700Y-30000000D01*
X35516700Y-35190700D02*
X33999300Y-35190700D01*
%TO.N,/DI*%
X30443800Y-25701000D02*
X26553400Y-25701000D01*
D34*
X37005800Y-27385800D02*
X35804800Y-27385800D01*
D33*
X32271500Y-27975800D02*
X31824600Y-27528900D01*
X24284000Y-23431600D02*
X24284000Y-16606000D01*
X24284000Y-16606000D02*
X25620000Y-15270000D01*
X32842000Y-27975800D02*
X32271500Y-27975800D01*
X31824600Y-27528900D02*
X31824600Y-27081800D01*
X26553400Y-25701000D02*
X24284000Y-23431600D01*
X31824600Y-27081800D02*
X30443800Y-25701000D01*
D34*
X37525000Y-27905000D02*
X37005800Y-27385800D01*
D33*
%TO.N,/IO1_RSV*%
X62000000Y-22540000D02*
X61298300Y-23241700D01*
X47905500Y-16203400D02*
X45520200Y-13818100D01*
X31997100Y-13818100D02*
X25620000Y-20195200D01*
X61298300Y-23241700D02*
X51161800Y-23241700D01*
X47905500Y-19985400D02*
X47905500Y-16203400D01*
X45520200Y-13818100D02*
X31997100Y-13818100D01*
X51161800Y-23241700D02*
X47905500Y-19985400D01*
X25620000Y-20195200D02*
X25620000Y-20350000D01*
%TO.N,/IO7_RSV*%
X63349400Y-23730600D02*
X62000000Y-25080000D01*
X49232300Y-3804100D02*
X63349400Y-17921200D01*
X16765900Y-3804100D02*
X49232300Y-3804100D01*
X10380000Y-10190000D02*
X16765900Y-3804100D01*
X63349400Y-17921200D02*
X63349400Y-23730600D01*
D34*
%TO.N,/LED_A*%
X38851500Y-49122500D02*
X41705400Y-49122500D01*
D33*
X38822900Y-49093900D02*
X38851500Y-49122500D01*
X42827900Y-48000000D02*
X42937500Y-48000000D01*
X41705400Y-49122500D02*
X42827900Y-48000000D01*
X37912500Y-48000000D02*
X38822900Y-48910400D01*
X38822900Y-48910400D02*
X38822900Y-49093900D01*
%TO.N,/LED_DRV*%
X35184700Y-47097200D02*
X36087500Y-48000000D01*
%TO.N,/RO*%
X37018100Y-23588100D02*
X37018100Y-23265600D01*
X28256100Y-18622100D02*
X35193500Y-18622100D01*
X37525000Y-24095000D02*
X37018100Y-23588100D01*
X37018100Y-23265600D02*
X38221400Y-22062300D01*
%TO.N,/RS485_A*%
X47891900Y-26635000D02*
X50000000Y-28743100D01*
X50000000Y-11540000D02*
X48730000Y-12810000D01*
X33000000Y-25087500D02*
X33000000Y-22912500D01*
X43986500Y-26635000D02*
X45862200Y-26635000D01*
X45862200Y-26635000D02*
X47891900Y-26635000D01*
X33000000Y-22912500D02*
X34258400Y-22912500D01*
X44975000Y-31475000D02*
X44912500Y-31400000D01*
X43986500Y-26635000D02*
X42475000Y-26635000D01*
X50000000Y-28743100D02*
X50000000Y-30000000D01*
X48730000Y-12810000D02*
X45862200Y-12810000D01*
%TO.N,/RS485_B*%
X41225000Y-25475000D02*
X41475000Y-25475000D01*
X33000000Y-21087500D02*
X33892300Y-21979800D01*
X42475000Y-25365000D02*
X49231800Y-25365000D01*
X51452500Y-22540000D02*
X48607200Y-19694700D01*
X48607200Y-19694700D02*
X48607200Y-15472800D01*
X40975000Y-26225000D02*
X40975000Y-25975000D01*
X42475000Y-25475000D02*
X42475000Y-25365000D01*
X54852000Y-29852000D02*
X55000000Y-30000000D01*
X40975000Y-27475000D02*
X40975000Y-27225000D01*
X53718800Y-29852000D02*
X54852000Y-29852000D01*
X52925400Y-22540000D02*
X51452500Y-22540000D01*
X40975000Y-27225000D02*
X40975000Y-26975000D01*
X33892300Y-21979800D02*
X35211100Y-21979800D01*
X45062500Y-33950000D02*
X44725000Y-33725000D01*
X40975000Y-26725000D02*
X40975000Y-26475000D01*
X40975000Y-26975000D02*
X40975000Y-26725000D01*
X44725000Y-33725000D02*
X44475000Y-33475000D01*
X49231800Y-25365000D02*
X53718800Y-29852000D01*
X42475000Y-25365000D02*
X40461100Y-25365000D01*
X52989500Y-22475900D02*
X52925400Y-22540000D01*
X32080600Y-31831900D02*
X33000000Y-30912500D01*
X48607200Y-15472800D02*
X50000000Y-14080000D01*
X40975000Y-26475000D02*
X40975000Y-26225000D01*
X40975000Y-25725000D02*
X41225000Y-25475000D01*
X40975000Y-25975000D02*
X40975000Y-25725000D01*
%TO.N,/+5V_RAW*%
X10975000Y-47225000D02*
X10975000Y-47475000D01*
X10975000Y-45725000D02*
X10975000Y-45975000D01*
X10975000Y-46225000D02*
X10975000Y-46475000D01*
X10975000Y-45475000D02*
X10975000Y-45725000D01*
X14975000Y-40975000D02*
X15062500Y-40950000D01*
X12225000Y-43725000D02*
X11975000Y-43975000D01*
X20975000Y-40225000D02*
X20975000Y-40475000D01*
X15062500Y-40950000D02*
X14725000Y-41225000D01*
X20975000Y-40475000D02*
X20725000Y-40725000D01*
X11975000Y-43975000D02*
X11725000Y-44225000D01*
X13975000Y-41975000D02*
X13725000Y-42225000D01*
X10975000Y-45975000D02*
X10975000Y-46225000D01*
X13225000Y-42725000D02*
X12975000Y-42975000D01*
X14225000Y-41725000D02*
X13975000Y-41975000D01*
X20475000Y-40975000D02*
X20225000Y-40975000D01*
X11475000Y-44475000D02*
X11225000Y-44725000D01*
X14475000Y-41475000D02*
X14225000Y-41725000D01*
X12975000Y-42975000D02*
X12725000Y-43225000D01*
X10975000Y-46975000D02*
X10975000Y-47225000D01*
X10975000Y-45225000D02*
X10975000Y-45475000D01*
X10975000Y-47725000D02*
X11000000Y-48000000D01*
X12475000Y-43475000D02*
X12225000Y-43725000D01*
X10975000Y-44975000D02*
X10975000Y-45225000D01*
X14725000Y-41225000D02*
X14475000Y-41475000D01*
X10975000Y-46725000D02*
X10975000Y-46975000D01*
X13725000Y-42225000D02*
X13475000Y-42475000D01*
X20912500Y-40000000D02*
X20975000Y-40225000D01*
X13475000Y-42475000D02*
X13225000Y-42725000D01*
X20725000Y-40725000D02*
X20475000Y-40975000D01*
X10975000Y-47475000D02*
X10975000Y-47725000D01*
X11725000Y-44225000D02*
X11475000Y-44475000D01*
X12725000Y-43225000D02*
X12475000Y-43475000D01*
X11225000Y-44725000D02*
X10975000Y-44975000D01*
X20225000Y-40975000D02*
X19975000Y-40975000D01*
X10975000Y-46475000D02*
X10975000Y-46725000D01*
%TD*%
%TA.AperFunction,Conductor*%
%TO.N,/GND*%
G36*
X31680226Y-38700000D02*
G01*
X32738500Y-38700000D01*
X32805539Y-38719685D01*
X32851294Y-38772489D01*
X32862500Y-38824000D01*
X32862500Y-38950000D01*
X32988500Y-38950000D01*
X33055539Y-38969685D01*
X33101294Y-39022489D01*
X33112500Y-39074000D01*
X33112500Y-39750000D01*
X33440634Y-39750000D01*
X33440649Y-39749999D01*
X33477489Y-39747100D01*
X33477495Y-39747099D01*
X33635193Y-39701283D01*
X33635196Y-39701282D01*
X33776552Y-39617685D01*
X33776561Y-39617678D01*
X33892678Y-39501561D01*
X33892685Y-39501552D01*
X33976282Y-39360197D01*
X33987231Y-39322509D01*
X34024836Y-39263623D01*
X34088308Y-39234415D01*
X34157495Y-39244160D01*
X34210430Y-39289763D01*
X34217758Y-39304726D01*
X34217867Y-39304669D01*
X34222206Y-39312880D01*
X34222207Y-39312882D01*
X34302850Y-39422150D01*
X34411590Y-39502403D01*
X34419595Y-39508311D01*
X34417829Y-39510703D01*
X34456901Y-39548728D01*
X34472679Y-39616793D01*
X34449153Y-39682583D01*
X34436567Y-39697308D01*
X32720694Y-41413181D01*
X32659371Y-41446666D01*
X32633013Y-41449500D01*
X31811521Y-41449500D01*
X31744482Y-41429815D01*
X31698727Y-41377011D01*
X31696174Y-41371009D01*
X31659361Y-41277658D01*
X31659360Y-41277657D01*
X31659360Y-41277656D01*
X31567922Y-41157077D01*
X31447343Y-41065639D01*
X31351192Y-41027722D01*
X31306564Y-41010123D01*
X31306563Y-41010122D01*
X31306561Y-41010122D01*
X31260926Y-41004642D01*
X31218102Y-40999500D01*
X30606898Y-40999500D01*
X30567853Y-41004188D01*
X30518438Y-41010122D01*
X30377656Y-41065639D01*
X30257077Y-41157077D01*
X30165639Y-41277656D01*
X30135665Y-41353663D01*
X30115353Y-41405171D01*
X30072449Y-41460314D01*
X30006541Y-41483507D01*
X29938556Y-41467386D01*
X29890080Y-41417070D01*
X29884648Y-41405178D01*
X29834361Y-41277658D01*
X29834360Y-41277657D01*
X29834360Y-41277656D01*
X29742925Y-41157082D01*
X29742923Y-41157079D01*
X29742920Y-41157077D01*
X29687072Y-41114725D01*
X29645551Y-41058533D01*
X29638000Y-41015923D01*
X29638000Y-39200001D01*
X31702704Y-39200001D01*
X31702899Y-39202486D01*
X31748718Y-39360198D01*
X31832314Y-39501552D01*
X31832321Y-39501561D01*
X31948438Y-39617678D01*
X31948447Y-39617685D01*
X32089803Y-39701282D01*
X32089806Y-39701283D01*
X32247504Y-39747099D01*
X32247510Y-39747100D01*
X32284350Y-39749999D01*
X32284366Y-39750000D01*
X32612500Y-39750000D01*
X32612500Y-39200000D01*
X31702705Y-39200000D01*
X31702704Y-39200001D01*
X29638000Y-39200001D01*
X29638000Y-39062654D01*
X29657685Y-38995615D01*
X29710489Y-38949860D01*
X29729898Y-38942882D01*
X29803785Y-38923084D01*
X29929315Y-38850610D01*
X30007436Y-38772489D01*
X30056406Y-38723519D01*
X30117729Y-38690034D01*
X30144087Y-38687200D01*
X31636634Y-38687200D01*
X31680226Y-38700000D01*
G37*
%TD.AperFunction*%
%TA.AperFunction,Conductor*%
G36*
X41269883Y-30318554D02*
G01*
X41314229Y-30347054D01*
X41355834Y-30388658D01*
X41355841Y-30388670D01*
X41355844Y-30388668D01*
X41407645Y-30440479D01*
X41407684Y-30440508D01*
X41407685Y-30440509D01*
X41442425Y-30460566D01*
X41468283Y-30475495D01*
X41468292Y-30475504D01*
X41468294Y-30475502D01*
X41533166Y-30512964D01*
X41533212Y-30512983D01*
X41533214Y-30512983D01*
X41533215Y-30512984D01*
X41602835Y-30531638D01*
X41602847Y-30531645D01*
X41602849Y-30531642D01*
X41673173Y-30550493D01*
X41673176Y-30550493D01*
X41673223Y-30550500D01*
X41745647Y-30550500D01*
X41818121Y-30550507D01*
X41818123Y-30550506D01*
X41826215Y-30550507D01*
X41826338Y-30550500D01*
X42188479Y-30550500D01*
X42255518Y-30570185D01*
X42301273Y-30622989D01*
X42303825Y-30628990D01*
X42319862Y-30669655D01*
X42340639Y-30722343D01*
X42432077Y-30842922D01*
X42552656Y-30934360D01*
X42552657Y-30934360D01*
X42552658Y-30934361D01*
X42693436Y-30989877D01*
X42781898Y-31000500D01*
X42781903Y-31000500D01*
X43393097Y-31000500D01*
X43393102Y-31000500D01*
X43481564Y-30989877D01*
X43622342Y-30934361D01*
X43742922Y-30842922D01*
X43781502Y-30792046D01*
X43837692Y-30750524D01*
X43907413Y-30745971D01*
X43968528Y-30779836D01*
X43985843Y-30801875D01*
X44057680Y-30918340D01*
X44057683Y-30918344D01*
X44181654Y-31042315D01*
X44320224Y-31127786D01*
X44366948Y-31179734D01*
X44378175Y-31248658D01*
X44376415Y-31262779D01*
X44370823Y-31277984D01*
X44360849Y-31387692D01*
X44360591Y-31389767D01*
X44347472Y-31419986D01*
X44335360Y-31450643D01*
X44333620Y-31451893D01*
X44332768Y-31453858D01*
X44305398Y-31472183D01*
X44278631Y-31491428D01*
X44278499Y-31491475D01*
X44262118Y-31497207D01*
X44152850Y-31577850D01*
X44072207Y-31687117D01*
X44072206Y-31687119D01*
X44027353Y-31815298D01*
X44027353Y-31815300D01*
X44024500Y-31845730D01*
X44024500Y-32254269D01*
X44027353Y-32284699D01*
X44027353Y-32284701D01*
X44064717Y-32391477D01*
X44072207Y-32412882D01*
X44152850Y-32522150D01*
X44262118Y-32602793D01*
X44317180Y-32622060D01*
X44380466Y-32644205D01*
X44437242Y-32684926D01*
X44462989Y-32749879D01*
X44449533Y-32818441D01*
X44401145Y-32868844D01*
X44371605Y-32881021D01*
X44243214Y-32915423D01*
X44243209Y-32915426D01*
X44106290Y-32994475D01*
X44106282Y-32994481D01*
X43994481Y-33106282D01*
X43994475Y-33106290D01*
X43915426Y-33243209D01*
X43915423Y-33243216D01*
X43874500Y-33395943D01*
X43874500Y-33554057D01*
X43904947Y-33667685D01*
X43915423Y-33706783D01*
X43915426Y-33706790D01*
X43994473Y-33843706D01*
X43994477Y-33843712D01*
X43994480Y-33843716D01*
X43994482Y-33843718D01*
X43998872Y-33849438D01*
X44024069Y-33914606D01*
X44024500Y-33924930D01*
X44024500Y-34154269D01*
X44027353Y-34184699D01*
X44027354Y-34184701D01*
X44062291Y-34284545D01*
X44065853Y-34354324D01*
X44031125Y-34414951D01*
X43969131Y-34447179D01*
X43945250Y-34449500D01*
X43840025Y-34449500D01*
X43742634Y-34475596D01*
X43742633Y-34475595D01*
X43700019Y-34487014D01*
X43700012Y-34487017D01*
X43574489Y-34559487D01*
X43574484Y-34559491D01*
X41170794Y-36963181D01*
X41109471Y-36996666D01*
X41083113Y-36999500D01*
X40606898Y-36999500D01*
X40567853Y-37004188D01*
X40518438Y-37010122D01*
X40377656Y-37065639D01*
X40257077Y-37157077D01*
X40165639Y-37277656D01*
X40142516Y-37336294D01*
X40115353Y-37405171D01*
X40072449Y-37460314D01*
X40006541Y-37483507D01*
X39938556Y-37467386D01*
X39890080Y-37417070D01*
X39884648Y-37405178D01*
X39834361Y-37277658D01*
X39834360Y-37277657D01*
X39834360Y-37277656D01*
X39742922Y-37157077D01*
X39622343Y-37065639D01*
X39481561Y-37010122D01*
X39435926Y-37004642D01*
X39393102Y-36999500D01*
X38781898Y-36999500D01*
X38742853Y-37004188D01*
X38693438Y-37010122D01*
X38552656Y-37065639D01*
X38432077Y-37157077D01*
X38340639Y-37277656D01*
X38319795Y-37330514D01*
X38303832Y-37370991D01*
X38260928Y-37426134D01*
X38195020Y-37449327D01*
X38188479Y-37449500D01*
X36214742Y-37449500D01*
X36147703Y-37429815D01*
X36101948Y-37377011D01*
X36092004Y-37307853D01*
X36097513Y-37285307D01*
X36097646Y-37284699D01*
X36100500Y-37254269D01*
X36100500Y-36845730D01*
X36097646Y-36815300D01*
X36097646Y-36815298D01*
X36052793Y-36687119D01*
X36052792Y-36687117D01*
X35972150Y-36577850D01*
X35862882Y-36497207D01*
X35862880Y-36497206D01*
X35734700Y-36452353D01*
X35704270Y-36449500D01*
X35704266Y-36449500D01*
X35579019Y-36449500D01*
X35511980Y-36429815D01*
X35491338Y-36413181D01*
X35031038Y-35952881D01*
X34997553Y-35891558D01*
X35002537Y-35821866D01*
X35044409Y-35765933D01*
X35109873Y-35741516D01*
X35118719Y-35741200D01*
X35589172Y-35741200D01*
X35589174Y-35741200D01*
X35589175Y-35741200D01*
X35729185Y-35703684D01*
X35734700Y-35700500D01*
X35854715Y-35631210D01*
X41138870Y-30347053D01*
X41200191Y-30313570D01*
X41269883Y-30318554D01*
G37*
%TD.AperFunction*%
%TA.AperFunction,Conductor*%
G36*
X45622379Y-27193165D02*
G01*
X45622565Y-27192473D01*
X45630414Y-27194576D01*
X45630416Y-27194577D01*
X45783143Y-27235500D01*
X45783145Y-27235500D01*
X45941255Y-27235500D01*
X45941257Y-27235500D01*
X46093984Y-27194577D01*
X46093985Y-27194576D01*
X46101835Y-27192473D01*
X46102020Y-27193165D01*
X46140563Y-27185500D01*
X47612513Y-27185500D01*
X47679552Y-27205185D01*
X47700194Y-27221819D01*
X49413181Y-28934805D01*
X49427884Y-28961732D01*
X49444477Y-28987551D01*
X49445368Y-28993751D01*
X49446666Y-28996128D01*
X49449500Y-29022486D01*
X49449500Y-29038126D01*
X49429815Y-29105165D01*
X49394391Y-29141228D01*
X49330345Y-29184022D01*
X49330341Y-29184025D01*
X49184024Y-29330342D01*
X49069058Y-29502403D01*
X48989870Y-29693579D01*
X48989868Y-29693587D01*
X48949500Y-29896530D01*
X48949500Y-30103469D01*
X48989868Y-30306412D01*
X48989870Y-30306420D01*
X49059903Y-30475495D01*
X49069059Y-30497598D01*
X49117560Y-30570185D01*
X49184024Y-30669657D01*
X49330342Y-30815975D01*
X49330345Y-30815977D01*
X49502402Y-30930941D01*
X49693580Y-31010130D01*
X49855386Y-31042315D01*
X49896530Y-31050499D01*
X49896534Y-31050500D01*
X49896535Y-31050500D01*
X50103466Y-31050500D01*
X50103467Y-31050499D01*
X50306420Y-31010130D01*
X50497598Y-30930941D01*
X50521010Y-30915297D01*
X50587686Y-30894420D01*
X50655066Y-30912904D01*
X50701757Y-30964883D01*
X50713900Y-31018400D01*
X50713900Y-33456212D01*
X50694215Y-33523251D01*
X50677581Y-33543893D01*
X50290883Y-33930590D01*
X50229560Y-33964075D01*
X50179012Y-33964527D01*
X50103465Y-33949500D01*
X49896535Y-33949500D01*
X49896530Y-33949500D01*
X49693587Y-33989868D01*
X49693579Y-33989870D01*
X49502403Y-34069058D01*
X49330342Y-34184024D01*
X49184024Y-34330342D01*
X49141229Y-34394391D01*
X49087617Y-34439196D01*
X49038127Y-34449500D01*
X46179750Y-34449500D01*
X46112711Y-34429815D01*
X46066956Y-34377011D01*
X46057012Y-34307853D01*
X46062709Y-34284545D01*
X46097645Y-34184701D01*
X46097646Y-34184699D01*
X46100500Y-34154269D01*
X46100500Y-33918948D01*
X46120185Y-33851909D01*
X46172989Y-33806154D01*
X46242147Y-33796210D01*
X46246797Y-33796969D01*
X46247518Y-33797100D01*
X46284350Y-33799999D01*
X46284366Y-33800000D01*
X46687500Y-33800000D01*
X47187500Y-33800000D01*
X47590634Y-33800000D01*
X47590649Y-33799999D01*
X47627489Y-33797100D01*
X47627495Y-33797099D01*
X47785193Y-33751283D01*
X47785196Y-33751282D01*
X47926552Y-33667685D01*
X47926561Y-33667678D01*
X48042678Y-33551561D01*
X48042685Y-33551552D01*
X48126281Y-33410198D01*
X48172100Y-33252486D01*
X48172295Y-33250001D01*
X48172295Y-33250000D01*
X47187500Y-33250000D01*
X47187500Y-33800000D01*
X46687500Y-33800000D01*
X46687500Y-33250000D01*
X45702705Y-33250000D01*
X45689912Y-33263838D01*
X45685645Y-33284152D01*
X45636591Y-33333907D01*
X45576393Y-33349500D01*
X45191723Y-33349500D01*
X45173638Y-33344189D01*
X45154794Y-33343873D01*
X45126367Y-33330309D01*
X45124684Y-33329815D01*
X45122940Y-33328674D01*
X45097967Y-33312025D01*
X45085932Y-33304002D01*
X45067034Y-33288509D01*
X45061095Y-33282570D01*
X45039262Y-33249895D01*
X45038641Y-33250254D01*
X44955524Y-33106290D01*
X44955518Y-33106282D01*
X44843717Y-32994481D01*
X44843709Y-32994475D01*
X44706790Y-32915426D01*
X44706786Y-32915424D01*
X44706784Y-32915423D01*
X44627855Y-32894274D01*
X44568196Y-32857910D01*
X44537667Y-32795063D01*
X44545962Y-32725687D01*
X44590447Y-32671810D01*
X44656999Y-32650535D01*
X44659950Y-32650500D01*
X45576393Y-32650500D01*
X45643432Y-32670185D01*
X45689187Y-32722989D01*
X45691894Y-32738305D01*
X45702705Y-32750000D01*
X46687500Y-32750000D01*
X47187500Y-32750000D01*
X48172295Y-32750000D01*
X48172295Y-32749998D01*
X48172100Y-32747513D01*
X48126281Y-32589801D01*
X48042685Y-32448447D01*
X48042678Y-32448438D01*
X47926561Y-32332321D01*
X47926552Y-32332314D01*
X47785196Y-32248717D01*
X47785193Y-32248716D01*
X47627495Y-32202900D01*
X47627489Y-32202899D01*
X47590649Y-32200000D01*
X47187500Y-32200000D01*
X47187500Y-32750000D01*
X46687500Y-32750000D01*
X46687500Y-32200000D01*
X46284350Y-32200000D01*
X46247508Y-32202899D01*
X46246780Y-32203033D01*
X46246368Y-32202989D01*
X46241192Y-32203397D01*
X46241116Y-32202436D01*
X46177295Y-32195714D01*
X46122797Y-32151991D01*
X46100589Y-32085745D01*
X46100500Y-32081051D01*
X46100500Y-31845730D01*
X46097646Y-31815300D01*
X46097646Y-31815298D01*
X46052793Y-31687119D01*
X46052792Y-31687117D01*
X45972150Y-31577850D01*
X45862882Y-31497207D01*
X45862880Y-31497206D01*
X45734700Y-31452353D01*
X45704270Y-31449500D01*
X45704266Y-31449500D01*
X45684999Y-31449500D01*
X45659293Y-31441951D01*
X45632791Y-31437974D01*
X45626274Y-31432256D01*
X45617960Y-31429815D01*
X45600418Y-31409570D01*
X45580271Y-31391894D01*
X45575318Y-31380603D01*
X45572205Y-31377011D01*
X45565808Y-31359699D01*
X45565512Y-31358669D01*
X45534577Y-31243216D01*
X45530221Y-31235671D01*
X45526026Y-31221050D01*
X45526151Y-31200726D01*
X45521356Y-31180977D01*
X45526363Y-31166499D01*
X45526458Y-31151182D01*
X45537550Y-31134153D01*
X45544194Y-31114946D01*
X45559236Y-31100863D01*
X45564595Y-31092638D01*
X45571185Y-31089677D01*
X45580122Y-31081311D01*
X45643345Y-31042315D01*
X45767315Y-30918345D01*
X45859356Y-30769124D01*
X45859358Y-30769119D01*
X45914505Y-30602697D01*
X45914506Y-30602690D01*
X45924999Y-30499986D01*
X45925000Y-30499973D01*
X45925000Y-30250000D01*
X45036500Y-30250000D01*
X44969461Y-30230315D01*
X44923706Y-30177511D01*
X44912500Y-30126000D01*
X44912500Y-30000000D01*
X44786500Y-30000000D01*
X44719461Y-29980315D01*
X44673706Y-29927511D01*
X44662500Y-29876000D01*
X44662500Y-29750000D01*
X45162500Y-29750000D01*
X45924999Y-29750000D01*
X45924999Y-29500028D01*
X45924998Y-29500013D01*
X45914505Y-29397302D01*
X45859358Y-29230880D01*
X45859356Y-29230875D01*
X45767315Y-29081654D01*
X45643345Y-28957684D01*
X45494124Y-28865643D01*
X45494119Y-28865641D01*
X45327697Y-28810494D01*
X45327690Y-28810493D01*
X45224986Y-28800000D01*
X45162500Y-28800000D01*
X45162500Y-29750000D01*
X44662500Y-29750000D01*
X44662500Y-28800000D01*
X44662499Y-28799999D01*
X44600028Y-28800000D01*
X44600011Y-28800001D01*
X44497302Y-28810494D01*
X44330880Y-28865641D01*
X44330875Y-28865643D01*
X44181654Y-28957684D01*
X44057682Y-29081656D01*
X43985843Y-29198125D01*
X43933895Y-29244849D01*
X43864932Y-29256070D01*
X43800850Y-29228227D01*
X43781501Y-29207952D01*
X43742922Y-29157077D01*
X43622343Y-29065639D01*
X43481561Y-29010122D01*
X43435926Y-29004642D01*
X43393102Y-28999500D01*
X42781898Y-28999500D01*
X42742853Y-29004188D01*
X42693438Y-29010122D01*
X42552656Y-29065639D01*
X42432077Y-29157077D01*
X42340639Y-29277656D01*
X42319863Y-29330342D01*
X42303832Y-29370991D01*
X42290924Y-29387581D01*
X42282192Y-29406703D01*
X42269900Y-29414602D01*
X42260928Y-29426134D01*
X42241098Y-29433112D01*
X42223414Y-29444477D01*
X42198707Y-29448029D01*
X42195020Y-29449327D01*
X42188479Y-29449500D01*
X42025125Y-29449500D01*
X41958086Y-29429815D01*
X41937435Y-29413173D01*
X41674198Y-29149885D01*
X41674116Y-29149789D01*
X41629490Y-29105165D01*
X41619714Y-29095389D01*
X41611283Y-29086958D01*
X41611277Y-29086947D01*
X41611275Y-29086950D01*
X41564657Y-29040323D01*
X41564656Y-29040322D01*
X41559186Y-29034851D01*
X41559083Y-29034760D01*
X41495444Y-28971124D01*
X41435753Y-28911436D01*
X41402267Y-28850115D01*
X41407250Y-28780423D01*
X41449120Y-28724489D01*
X41514584Y-28700070D01*
X41545715Y-28701772D01*
X41547513Y-28702100D01*
X41584350Y-28704999D01*
X41584366Y-28705000D01*
X42225000Y-28705000D01*
X42725000Y-28705000D01*
X43365634Y-28705000D01*
X43365649Y-28704999D01*
X43402489Y-28702100D01*
X43402495Y-28702099D01*
X43560193Y-28656283D01*
X43560196Y-28656282D01*
X43701552Y-28572685D01*
X43701561Y-28572678D01*
X43817678Y-28456561D01*
X43817685Y-28456552D01*
X43901281Y-28315198D01*
X43947100Y-28157486D01*
X43947295Y-28155001D01*
X43947295Y-28155000D01*
X42725000Y-28155000D01*
X42725000Y-28705000D01*
X42225000Y-28705000D01*
X42225000Y-28029000D01*
X42244685Y-27961961D01*
X42297489Y-27916206D01*
X42349000Y-27905000D01*
X42475000Y-27905000D01*
X42475000Y-27779000D01*
X42494685Y-27711961D01*
X42547489Y-27666206D01*
X42599000Y-27655000D01*
X43947295Y-27655000D01*
X43947295Y-27654998D01*
X43947100Y-27652513D01*
X43901281Y-27494801D01*
X43858594Y-27422621D01*
X43841411Y-27354897D01*
X43863571Y-27288635D01*
X43918037Y-27244871D01*
X43965326Y-27235500D01*
X44065555Y-27235500D01*
X44065557Y-27235500D01*
X44218284Y-27194577D01*
X44218285Y-27194576D01*
X44226135Y-27192473D01*
X44226320Y-27193165D01*
X44264863Y-27185500D01*
X45583837Y-27185500D01*
X45622379Y-27193165D01*
G37*
%TD.AperFunction*%
%TA.AperFunction,Conductor*%
G36*
X42192539Y-14388285D02*
G01*
X42238294Y-14441089D01*
X42249500Y-14492600D01*
X42249500Y-14758481D01*
X42240855Y-14787921D01*
X42234332Y-14817908D01*
X42230577Y-14822923D01*
X42229815Y-14825520D01*
X42213181Y-14846162D01*
X42207662Y-14851681D01*
X42146339Y-14885166D01*
X42119981Y-14888000D01*
X41760004Y-14888000D01*
X41624677Y-14914918D01*
X41624667Y-14914921D01*
X41497192Y-14967722D01*
X41382454Y-15044387D01*
X38089487Y-18337354D01*
X38026390Y-18431788D01*
X38026388Y-18431791D01*
X38012826Y-18452086D01*
X38012821Y-18452095D01*
X37960021Y-18579567D01*
X37960018Y-18579577D01*
X37933100Y-18714904D01*
X37933100Y-20326700D01*
X37913415Y-20393739D01*
X37860611Y-20439494D01*
X37809100Y-20450700D01*
X37730204Y-20450700D01*
X37594877Y-20477618D01*
X37594867Y-20477621D01*
X37467392Y-20530422D01*
X37352654Y-20607087D01*
X36015749Y-21943992D01*
X35954426Y-21977477D01*
X35884734Y-21972493D01*
X35828801Y-21930621D01*
X35808294Y-21888407D01*
X35770677Y-21748016D01*
X35751536Y-21714863D01*
X35691624Y-21611090D01*
X35691618Y-21611082D01*
X35579817Y-21499281D01*
X35579809Y-21499275D01*
X35442890Y-21420226D01*
X35442886Y-21420224D01*
X35442884Y-21420223D01*
X35290157Y-21379300D01*
X35132043Y-21379300D01*
X34979316Y-21420223D01*
X34979314Y-21420223D01*
X34971465Y-21422327D01*
X34971279Y-21421634D01*
X34932737Y-21429300D01*
X34171687Y-21429300D01*
X34142246Y-21420655D01*
X34112260Y-21414132D01*
X34107244Y-21410377D01*
X34104648Y-21409615D01*
X34084006Y-21392981D01*
X34036819Y-21345794D01*
X34003334Y-21284471D01*
X34000500Y-21258113D01*
X34000500Y-20781903D01*
X34000500Y-20781898D01*
X33989877Y-20693436D01*
X33934361Y-20552658D01*
X33934360Y-20552657D01*
X33934360Y-20552656D01*
X33842922Y-20432077D01*
X33722343Y-20340639D01*
X33581561Y-20285122D01*
X33535926Y-20279642D01*
X33493102Y-20274500D01*
X32506898Y-20274500D01*
X32467853Y-20279188D01*
X32418438Y-20285122D01*
X32277656Y-20340639D01*
X32157077Y-20432077D01*
X32065639Y-20552656D01*
X32010122Y-20693438D01*
X32004188Y-20742853D01*
X31999500Y-20781898D01*
X31999500Y-21393102D01*
X32003650Y-21427658D01*
X32010122Y-21481561D01*
X32010122Y-21481563D01*
X32010123Y-21481564D01*
X32026074Y-21522013D01*
X32065639Y-21622343D01*
X32157077Y-21742922D01*
X32277656Y-21834360D01*
X32277657Y-21834360D01*
X32277658Y-21834361D01*
X32405171Y-21884646D01*
X32460314Y-21927551D01*
X32483507Y-21993459D01*
X32467386Y-22061444D01*
X32417070Y-22109920D01*
X32405178Y-22115351D01*
X32353663Y-22135665D01*
X32277656Y-22165639D01*
X32157077Y-22257077D01*
X32065639Y-22377656D01*
X32010122Y-22518438D01*
X32005737Y-22554957D01*
X31999500Y-22606898D01*
X31999500Y-23218102D01*
X32005126Y-23264954D01*
X32010122Y-23306561D01*
X32065639Y-23447343D01*
X32157077Y-23567922D01*
X32277656Y-23659360D01*
X32277657Y-23659360D01*
X32277658Y-23659361D01*
X32370991Y-23696167D01*
X32426134Y-23739072D01*
X32449327Y-23804980D01*
X32449500Y-23811521D01*
X32449500Y-24188478D01*
X32429815Y-24255517D01*
X32377011Y-24301272D01*
X32370991Y-24303832D01*
X32277658Y-24340638D01*
X32157077Y-24432077D01*
X32065639Y-24552656D01*
X32010122Y-24693438D01*
X32009656Y-24697321D01*
X31999500Y-24781898D01*
X31999500Y-25393102D01*
X32005126Y-25439954D01*
X32010122Y-25481561D01*
X32065639Y-25622343D01*
X32157077Y-25742922D01*
X32277656Y-25834360D01*
X32277657Y-25834360D01*
X32277658Y-25834361D01*
X32405171Y-25884646D01*
X32460314Y-25927551D01*
X32483507Y-25993459D01*
X32467386Y-26061444D01*
X32417070Y-26109920D01*
X32405178Y-26115351D01*
X32388022Y-26122117D01*
X32277656Y-26165639D01*
X32157077Y-26257077D01*
X32079692Y-26359126D01*
X32023499Y-26400650D01*
X31953778Y-26405201D01*
X31893207Y-26371882D01*
X30781816Y-25260491D01*
X30781815Y-25260490D01*
X30656285Y-25188016D01*
X30656280Y-25188014D01*
X30605844Y-25174499D01*
X30605844Y-25174500D01*
X30561059Y-25162500D01*
X30516275Y-25150500D01*
X30516274Y-25150500D01*
X28624000Y-25150500D01*
X28556961Y-25130815D01*
X28511206Y-25078011D01*
X28500000Y-25026500D01*
X28500000Y-24490000D01*
X26172287Y-24490000D01*
X26105248Y-24470315D01*
X26084606Y-24453681D01*
X25846584Y-24215659D01*
X25813099Y-24154336D01*
X25818083Y-24084644D01*
X25859955Y-24028711D01*
X25895947Y-24010047D01*
X26061636Y-23956212D01*
X26061639Y-23956211D01*
X26087400Y-23943085D01*
X26222994Y-23873996D01*
X26369501Y-23767553D01*
X26497553Y-23639501D01*
X26603996Y-23492994D01*
X26686211Y-23331639D01*
X26742171Y-23159409D01*
X26756765Y-23067259D01*
X26770500Y-22980551D01*
X26770500Y-22799448D01*
X26751579Y-22679994D01*
X26742171Y-22620591D01*
X26694003Y-22472342D01*
X26686212Y-22448363D01*
X26686211Y-22448360D01*
X26650185Y-22377656D01*
X26603996Y-22287006D01*
X26526850Y-22180823D01*
X26497558Y-22140505D01*
X26497554Y-22140500D01*
X26369499Y-22012445D01*
X26369494Y-22012441D01*
X26222997Y-21906006D01*
X26222996Y-21906005D01*
X26222994Y-21906004D01*
X26162931Y-21875400D01*
X26061639Y-21823788D01*
X26061636Y-21823787D01*
X25889410Y-21767829D01*
X25729321Y-21742473D01*
X25666186Y-21712544D01*
X25629255Y-21653232D01*
X25630253Y-21583370D01*
X25668863Y-21525137D01*
X25729321Y-21497527D01*
X25799425Y-21486422D01*
X25889409Y-21472171D01*
X26061639Y-21416211D01*
X26222994Y-21333996D01*
X26369501Y-21227553D01*
X26497553Y-21099501D01*
X26603996Y-20952994D01*
X26686211Y-20791639D01*
X26742171Y-20619409D01*
X26764628Y-20477621D01*
X26770500Y-20440551D01*
X26770500Y-20259448D01*
X26742171Y-20080592D01*
X26742171Y-20080591D01*
X26709482Y-19979985D01*
X26707488Y-19910149D01*
X26739731Y-19853992D01*
X27601563Y-18992161D01*
X27662886Y-18958676D01*
X27732578Y-18963660D01*
X27776925Y-18992161D01*
X27887384Y-19102620D01*
X27887386Y-19102621D01*
X27887390Y-19102624D01*
X28008594Y-19172600D01*
X28024316Y-19181677D01*
X28177043Y-19222600D01*
X28177045Y-19222600D01*
X28335155Y-19222600D01*
X28335157Y-19222600D01*
X28487884Y-19181677D01*
X28487885Y-19181676D01*
X28495735Y-19179573D01*
X28495920Y-19180265D01*
X28534463Y-19172600D01*
X34915137Y-19172600D01*
X34953679Y-19180265D01*
X34953865Y-19179573D01*
X34961714Y-19181676D01*
X34961716Y-19181677D01*
X35114443Y-19222600D01*
X35114445Y-19222600D01*
X35272555Y-19222600D01*
X35272557Y-19222600D01*
X35425284Y-19181677D01*
X35562216Y-19102620D01*
X35674020Y-18990816D01*
X35753077Y-18853884D01*
X35794000Y-18701157D01*
X35794000Y-18543043D01*
X35753077Y-18390316D01*
X35753073Y-18390309D01*
X35674024Y-18253390D01*
X35674018Y-18253382D01*
X35562217Y-18141581D01*
X35562209Y-18141575D01*
X35425290Y-18062526D01*
X35425286Y-18062524D01*
X35425284Y-18062523D01*
X35272557Y-18021600D01*
X35114443Y-18021600D01*
X34961716Y-18062523D01*
X34961714Y-18062523D01*
X34953865Y-18064627D01*
X34953679Y-18063934D01*
X34915137Y-18071600D01*
X28821487Y-18071600D01*
X28754448Y-18051915D01*
X28708693Y-17999111D01*
X28698749Y-17929953D01*
X28727774Y-17866397D01*
X28733806Y-17859919D01*
X32188806Y-14404919D01*
X32250129Y-14371434D01*
X32276487Y-14368600D01*
X42125500Y-14368600D01*
X42192539Y-14388285D01*
G37*
%TD.AperFunction*%
%TA.AperFunction,Conductor*%
G36*
X24412539Y-4374285D02*
G01*
X24458294Y-4427089D01*
X24469500Y-4478600D01*
X24469500Y-6004856D01*
X24469502Y-6004882D01*
X24472413Y-6029987D01*
X24472415Y-6029991D01*
X24517793Y-6132764D01*
X24517794Y-6132765D01*
X24597235Y-6212206D01*
X24700009Y-6257585D01*
X24725135Y-6260500D01*
X24856923Y-6260499D01*
X24923960Y-6280183D01*
X24969715Y-6332987D01*
X24979659Y-6402145D01*
X24950635Y-6465701D01*
X24916387Y-6492507D01*
X24916590Y-6492838D01*
X24913715Y-6494599D01*
X24913239Y-6494972D01*
X24912451Y-6495373D01*
X24912440Y-6495380D01*
X24858282Y-6534727D01*
X24858282Y-6534728D01*
X25490591Y-7167037D01*
X25427007Y-7184075D01*
X25312993Y-7249901D01*
X25219901Y-7342993D01*
X25154075Y-7457007D01*
X25137037Y-7520591D01*
X24504728Y-6888282D01*
X24504727Y-6888282D01*
X24465380Y-6942439D01*
X24368904Y-7131782D01*
X24303242Y-7333869D01*
X24303242Y-7333872D01*
X24270000Y-7543753D01*
X24270000Y-7756246D01*
X24303242Y-7966127D01*
X24303242Y-7966130D01*
X24368904Y-8168217D01*
X24465375Y-8357550D01*
X24504728Y-8411716D01*
X25137037Y-7779408D01*
X25154075Y-7842993D01*
X25219901Y-7957007D01*
X25312993Y-8050099D01*
X25427007Y-8115925D01*
X25490590Y-8132962D01*
X24858282Y-8765269D01*
X24858282Y-8765270D01*
X24912449Y-8804624D01*
X25101780Y-8901094D01*
X25130705Y-8910492D01*
X25188381Y-8949929D01*
X25215580Y-9014287D01*
X25203667Y-9083134D01*
X25156424Y-9134610D01*
X25148685Y-9138908D01*
X25017004Y-9206004D01*
X24870505Y-9312441D01*
X24870500Y-9312445D01*
X24742445Y-9440500D01*
X24742441Y-9440505D01*
X24636006Y-9587002D01*
X24553788Y-9748360D01*
X24553787Y-9748363D01*
X24497829Y-9920589D01*
X24469500Y-10099448D01*
X24469500Y-10280551D01*
X24497829Y-10459410D01*
X24553787Y-10631636D01*
X24553788Y-10631639D01*
X24609664Y-10741300D01*
X24634733Y-10790500D01*
X24636006Y-10792997D01*
X24742441Y-10939494D01*
X24742445Y-10939499D01*
X24870500Y-11067554D01*
X24870505Y-11067558D01*
X24998287Y-11160396D01*
X25017006Y-11173996D01*
X25122484Y-11227740D01*
X25178360Y-11256211D01*
X25178363Y-11256212D01*
X25264476Y-11284191D01*
X25350591Y-11312171D01*
X25423639Y-11323740D01*
X25510678Y-11337527D01*
X25573813Y-11367456D01*
X25610744Y-11426768D01*
X25609746Y-11496631D01*
X25571136Y-11554863D01*
X25510678Y-11582473D01*
X25350589Y-11607829D01*
X25178363Y-11663787D01*
X25178360Y-11663788D01*
X25017002Y-11746006D01*
X24870505Y-11852441D01*
X24870500Y-11852445D01*
X24742445Y-11980500D01*
X24742441Y-11980505D01*
X24636006Y-12127002D01*
X24553788Y-12288360D01*
X24553787Y-12288363D01*
X24497829Y-12460589D01*
X24469500Y-12639448D01*
X24469500Y-12820551D01*
X24497829Y-12999410D01*
X24553787Y-13171636D01*
X24553788Y-13171639D01*
X24593976Y-13250510D01*
X24634733Y-13330500D01*
X24636006Y-13332997D01*
X24742441Y-13479494D01*
X24742445Y-13479499D01*
X24870500Y-13607554D01*
X24870505Y-13607558D01*
X24998287Y-13700396D01*
X25017006Y-13713996D01*
X25122484Y-13767740D01*
X25178360Y-13796211D01*
X25178363Y-13796212D01*
X25264476Y-13824191D01*
X25350591Y-13852171D01*
X25423639Y-13863740D01*
X25510678Y-13877527D01*
X25573813Y-13907456D01*
X25610744Y-13966768D01*
X25609746Y-14036631D01*
X25571136Y-14094863D01*
X25510678Y-14122473D01*
X25350589Y-14147829D01*
X25178363Y-14203787D01*
X25178360Y-14203788D01*
X25017002Y-14286006D01*
X24870505Y-14392441D01*
X24870500Y-14392445D01*
X24742445Y-14520500D01*
X24742441Y-14520505D01*
X24636006Y-14667002D01*
X24553788Y-14828360D01*
X24553787Y-14828363D01*
X24497829Y-15000589D01*
X24469500Y-15179448D01*
X24469500Y-15360551D01*
X24498095Y-15541091D01*
X24489141Y-15610384D01*
X24463303Y-15648170D01*
X23843491Y-16267983D01*
X23843490Y-16267985D01*
X23795800Y-16350589D01*
X23795799Y-16350590D01*
X23795798Y-16350591D01*
X23771017Y-16393512D01*
X23771016Y-16393513D01*
X23764582Y-16417527D01*
X23733500Y-16533525D01*
X23733500Y-23504075D01*
X23736595Y-23515626D01*
X23771016Y-23644085D01*
X23842302Y-23767558D01*
X23843489Y-23769613D01*
X23843491Y-23769616D01*
X24352194Y-24278319D01*
X24385679Y-24339642D01*
X24380695Y-24409334D01*
X24338823Y-24465267D01*
X24273359Y-24489684D01*
X24264513Y-24490000D01*
X17889886Y-24490000D01*
X17822847Y-24470315D01*
X17802205Y-24453681D01*
X11536696Y-18188171D01*
X11503211Y-18126848D01*
X11501904Y-18081091D01*
X11502169Y-18079412D01*
X11502171Y-18079409D01*
X11521393Y-17958046D01*
X11530500Y-17900550D01*
X11530500Y-17719448D01*
X11508917Y-17583183D01*
X11502171Y-17540591D01*
X11458036Y-17404754D01*
X11446212Y-17368363D01*
X11446211Y-17368360D01*
X11417740Y-17312484D01*
X11363996Y-17207006D01*
X11350396Y-17188287D01*
X11257558Y-17060505D01*
X11257554Y-17060500D01*
X11129499Y-16932445D01*
X11129494Y-16932441D01*
X10982997Y-16826006D01*
X10982996Y-16826005D01*
X10982994Y-16826004D01*
X10931300Y-16799664D01*
X10821639Y-16743788D01*
X10821636Y-16743787D01*
X10649410Y-16687829D01*
X10489321Y-16662473D01*
X10426186Y-16632544D01*
X10389255Y-16573232D01*
X10390253Y-16503370D01*
X10428863Y-16445137D01*
X10489321Y-16417527D01*
X10559425Y-16406422D01*
X10649409Y-16392171D01*
X10821639Y-16336211D01*
X10982994Y-16253996D01*
X11129501Y-16147553D01*
X11257553Y-16019501D01*
X11363996Y-15872994D01*
X11446211Y-15711639D01*
X11502171Y-15539409D01*
X11520819Y-15421668D01*
X11530500Y-15360551D01*
X11530500Y-15179448D01*
X11511099Y-15056961D01*
X11502171Y-15000591D01*
X11451995Y-14846162D01*
X11446212Y-14828363D01*
X11446211Y-14828360D01*
X11410605Y-14758481D01*
X11363996Y-14667006D01*
X11350396Y-14648287D01*
X11257558Y-14520505D01*
X11257554Y-14520500D01*
X11129499Y-14392445D01*
X11129494Y-14392441D01*
X10982997Y-14286006D01*
X10982996Y-14286005D01*
X10982994Y-14286004D01*
X10931300Y-14259664D01*
X10821639Y-14203788D01*
X10821636Y-14203787D01*
X10649410Y-14147829D01*
X10489321Y-14122473D01*
X10426186Y-14092544D01*
X10389255Y-14033232D01*
X10390253Y-13963370D01*
X10428863Y-13905137D01*
X10489321Y-13877527D01*
X10559425Y-13866422D01*
X10649409Y-13852171D01*
X10821639Y-13796211D01*
X10982994Y-13713996D01*
X11129501Y-13607553D01*
X11257553Y-13479501D01*
X11363996Y-13332994D01*
X11446211Y-13171639D01*
X11502171Y-12999409D01*
X11526907Y-12843232D01*
X11530500Y-12820551D01*
X11530500Y-12639448D01*
X11512213Y-12523993D01*
X11502171Y-12460591D01*
X11474191Y-12374476D01*
X11446212Y-12288363D01*
X11446211Y-12288360D01*
X11406029Y-12209500D01*
X11363996Y-12127006D01*
X11350396Y-12108287D01*
X11257558Y-11980505D01*
X11257554Y-11980500D01*
X11129499Y-11852445D01*
X11129494Y-11852441D01*
X10982997Y-11746006D01*
X10982996Y-11746005D01*
X10982994Y-11746004D01*
X10931300Y-11719664D01*
X10821639Y-11663788D01*
X10821636Y-11663787D01*
X10649410Y-11607829D01*
X10489321Y-11582473D01*
X10426186Y-11552544D01*
X10389255Y-11493232D01*
X10390253Y-11423370D01*
X10428863Y-11365137D01*
X10489321Y-11337527D01*
X10559425Y-11326422D01*
X10649409Y-11312171D01*
X10821639Y-11256211D01*
X10982994Y-11173996D01*
X11129501Y-11067553D01*
X11257553Y-10939501D01*
X11363996Y-10792994D01*
X11446211Y-10631639D01*
X11502171Y-10459409D01*
X11518596Y-10355703D01*
X11530500Y-10280551D01*
X11530500Y-10099448D01*
X11501904Y-9918906D01*
X11510858Y-9849613D01*
X11536693Y-9811830D01*
X16957606Y-4390919D01*
X17018929Y-4357434D01*
X17045287Y-4354600D01*
X24345500Y-4354600D01*
X24412539Y-4374285D01*
G37*
%TD.AperFunction*%
%TA.AperFunction,Conductor*%
G36*
X45143039Y-15019685D02*
G01*
X45188794Y-15072489D01*
X45200000Y-15124000D01*
X45200000Y-16224999D01*
X45249972Y-16224999D01*
X45249986Y-16224998D01*
X45352697Y-16214505D01*
X45519119Y-16159358D01*
X45519124Y-16159356D01*
X45668345Y-16067315D01*
X45792315Y-15943345D01*
X45884356Y-15794124D01*
X45884358Y-15794119D01*
X45939505Y-15627697D01*
X45939506Y-15627690D01*
X45949999Y-15524986D01*
X45949999Y-15325787D01*
X45969683Y-15258747D01*
X46022487Y-15212992D01*
X46091645Y-15203048D01*
X46155201Y-15232073D01*
X46161680Y-15238105D01*
X47318681Y-16395105D01*
X47352166Y-16456428D01*
X47355000Y-16482786D01*
X47355000Y-20057875D01*
X47360618Y-20078842D01*
X47392516Y-20197885D01*
X47464990Y-20323415D01*
X49136956Y-21995381D01*
X50693595Y-23552019D01*
X50727080Y-23613342D01*
X50722096Y-23683034D01*
X50680224Y-23738967D01*
X50614760Y-23763384D01*
X50605914Y-23763700D01*
X43896702Y-23763700D01*
X43825153Y-23777932D01*
X43755561Y-23771705D01*
X43701192Y-23729949D01*
X43692821Y-23718607D01*
X43622150Y-23622850D01*
X43512882Y-23542207D01*
X43512880Y-23542206D01*
X43384700Y-23497353D01*
X43354270Y-23494500D01*
X43354266Y-23494500D01*
X42916519Y-23494500D01*
X42849480Y-23474815D01*
X42828838Y-23458181D01*
X41055541Y-21684884D01*
X41022056Y-21623561D01*
X41020106Y-21611986D01*
X41019998Y-21611090D01*
X41014877Y-21568436D01*
X40959361Y-21427658D01*
X40959360Y-21427657D01*
X40959360Y-21427656D01*
X40867922Y-21307077D01*
X40740584Y-21210514D01*
X40741970Y-21208685D01*
X40701679Y-21167372D01*
X40687683Y-21098919D01*
X40712918Y-21033765D01*
X40769372Y-20992598D01*
X40772245Y-20991606D01*
X40794122Y-20984356D01*
X40794124Y-20984356D01*
X40943345Y-20892315D01*
X41067315Y-20768345D01*
X41159356Y-20619124D01*
X41159358Y-20619119D01*
X41214505Y-20452697D01*
X41214506Y-20452690D01*
X41224999Y-20349986D01*
X41225000Y-20349973D01*
X41225000Y-20300000D01*
X40124000Y-20300000D01*
X40056961Y-20280315D01*
X40011206Y-20227511D01*
X40000000Y-20176000D01*
X40000000Y-20050000D01*
X39874000Y-20050000D01*
X39806961Y-20030315D01*
X39761206Y-19977511D01*
X39750000Y-19926000D01*
X39750000Y-19800000D01*
X40250000Y-19800000D01*
X41224999Y-19800000D01*
X41224999Y-19750028D01*
X41224998Y-19750013D01*
X41214505Y-19647302D01*
X41159358Y-19480880D01*
X41159356Y-19480875D01*
X41067315Y-19331654D01*
X40943345Y-19207684D01*
X40794124Y-19115643D01*
X40794119Y-19115641D01*
X40627697Y-19060494D01*
X40627690Y-19060493D01*
X40524986Y-19050000D01*
X40250000Y-19050000D01*
X40250000Y-19800000D01*
X39750000Y-19800000D01*
X39750000Y-19087825D01*
X39618072Y-19043559D01*
X39605354Y-19034683D01*
X39590478Y-19030315D01*
X39577292Y-19015098D01*
X39560776Y-19003571D01*
X39554876Y-18989228D01*
X39544723Y-18977511D01*
X39541857Y-18957579D01*
X39534196Y-18938955D01*
X39536986Y-18923702D01*
X39534779Y-18908353D01*
X39543144Y-18890035D01*
X39546768Y-18870226D01*
X39557362Y-18858902D01*
X39563804Y-18844797D01*
X39569808Y-18838348D01*
X42082838Y-16325319D01*
X42144161Y-16291834D01*
X42170519Y-16289000D01*
X42530496Y-16289000D01*
X42636152Y-16267983D01*
X42665828Y-16262080D01*
X42755350Y-16224999D01*
X42793307Y-16209277D01*
X42793308Y-16209276D01*
X42793311Y-16209275D01*
X42908043Y-16132614D01*
X42978839Y-16061817D01*
X43040160Y-16028334D01*
X43066519Y-16025500D01*
X43343097Y-16025500D01*
X43343102Y-16025500D01*
X43431564Y-16014877D01*
X43572342Y-15959361D01*
X43692922Y-15867922D01*
X43748892Y-15794115D01*
X43789486Y-15740584D01*
X43791317Y-15741972D01*
X43832607Y-15701689D01*
X43901058Y-15687682D01*
X43966216Y-15712905D01*
X44007394Y-15769351D01*
X44008391Y-15772241D01*
X44015640Y-15794115D01*
X44015643Y-15794124D01*
X44107684Y-15943345D01*
X44231654Y-16067315D01*
X44380875Y-16159356D01*
X44380880Y-16159358D01*
X44547302Y-16214505D01*
X44547309Y-16214506D01*
X44650019Y-16224999D01*
X44699999Y-16224998D01*
X44700000Y-16224998D01*
X44700000Y-15124000D01*
X44719685Y-15056961D01*
X44772489Y-15011206D01*
X44824000Y-15000000D01*
X45076000Y-15000000D01*
X45143039Y-15019685D01*
G37*
%TD.AperFunction*%
%TA.AperFunction,Conductor*%
G36*
X49019952Y-4374285D02*
G01*
X49040594Y-4390919D01*
X62762581Y-18112906D01*
X62796066Y-18174229D01*
X62798900Y-18200587D01*
X62798900Y-18725500D01*
X62779215Y-18792539D01*
X62726411Y-18838294D01*
X62674900Y-18849500D01*
X61105143Y-18849500D01*
X61105117Y-18849502D01*
X61080012Y-18852413D01*
X61080008Y-18852415D01*
X60977235Y-18897793D01*
X60897794Y-18977234D01*
X60852415Y-19080006D01*
X60852415Y-19080008D01*
X60849500Y-19105131D01*
X60849500Y-19105137D01*
X60849501Y-20894848D01*
X60849502Y-20894882D01*
X60852413Y-20919987D01*
X60852415Y-20919991D01*
X60897793Y-21022764D01*
X60897794Y-21022765D01*
X60977235Y-21102206D01*
X61080009Y-21147585D01*
X61105135Y-21150500D01*
X61842872Y-21150499D01*
X61909910Y-21170183D01*
X61955665Y-21222987D01*
X61965609Y-21292146D01*
X61936584Y-21355702D01*
X61877806Y-21393476D01*
X61862270Y-21396972D01*
X61730589Y-21417829D01*
X61558363Y-21473787D01*
X61558360Y-21473788D01*
X61397002Y-21556006D01*
X61250505Y-21662441D01*
X61250500Y-21662445D01*
X61122445Y-21790500D01*
X61122441Y-21790505D01*
X61016006Y-21937002D01*
X60933788Y-22098360D01*
X60933787Y-22098363D01*
X60877829Y-22270589D01*
X60849500Y-22449448D01*
X60849500Y-22567200D01*
X60829815Y-22634239D01*
X60777011Y-22679994D01*
X60725500Y-22691200D01*
X53713458Y-22691200D01*
X53646419Y-22671515D01*
X53600664Y-22618711D01*
X53592328Y-22563084D01*
X53590000Y-22563084D01*
X53590000Y-22396845D01*
X53590000Y-22396843D01*
X53549077Y-22244116D01*
X53489255Y-22140500D01*
X53470024Y-22107190D01*
X53470018Y-22107182D01*
X53358217Y-21995381D01*
X53358209Y-21995375D01*
X53221290Y-21916326D01*
X53221286Y-21916324D01*
X53221284Y-21916323D01*
X53068557Y-21875400D01*
X52910443Y-21875400D01*
X52757716Y-21916323D01*
X52757713Y-21916324D01*
X52659744Y-21972887D01*
X52597744Y-21989500D01*
X51731887Y-21989500D01*
X51664848Y-21969815D01*
X51644206Y-21953181D01*
X50857544Y-21166519D01*
X50824059Y-21105196D01*
X50829043Y-21035504D01*
X50870915Y-20979571D01*
X50936379Y-20955154D01*
X50969417Y-20957221D01*
X51042204Y-20971700D01*
X51042207Y-20971700D01*
X51180195Y-20971700D01*
X51274234Y-20952994D01*
X51315528Y-20944780D01*
X51379269Y-20918377D01*
X51443007Y-20891977D01*
X51443008Y-20891976D01*
X51443011Y-20891975D01*
X51557743Y-20815314D01*
X51655314Y-20717743D01*
X51731975Y-20603011D01*
X51784780Y-20475528D01*
X51786995Y-20464390D01*
X51786996Y-20464390D01*
X51786996Y-20464386D01*
X51811700Y-20340193D01*
X51811700Y-20202207D01*
X51811700Y-20202204D01*
X51784781Y-20066877D01*
X51784780Y-20066876D01*
X51784780Y-20066872D01*
X51731975Y-19939389D01*
X51731970Y-19939380D01*
X51725527Y-19929738D01*
X51655314Y-19824656D01*
X51655311Y-19824653D01*
X51185700Y-19355043D01*
X51152215Y-19293720D01*
X51151128Y-19255476D01*
X51150118Y-19255397D01*
X51150500Y-19250546D01*
X51150500Y-19069448D01*
X51133243Y-18960500D01*
X51122171Y-18890591D01*
X51090420Y-18792869D01*
X51066212Y-18718363D01*
X51066211Y-18718360D01*
X51032171Y-18651554D01*
X50983996Y-18557006D01*
X50931665Y-18484978D01*
X50877558Y-18410505D01*
X50877554Y-18410500D01*
X50749499Y-18282445D01*
X50749494Y-18282441D01*
X50602997Y-18176006D01*
X50602996Y-18176005D01*
X50602994Y-18176004D01*
X50550438Y-18149225D01*
X50441639Y-18093788D01*
X50441636Y-18093787D01*
X50269410Y-18037829D01*
X50109321Y-18012473D01*
X50046186Y-17982544D01*
X50009255Y-17923232D01*
X50010253Y-17853370D01*
X50048863Y-17795137D01*
X50109321Y-17767527D01*
X50179425Y-17756422D01*
X50269409Y-17742171D01*
X50441639Y-17686211D01*
X50602994Y-17603996D01*
X50749501Y-17497553D01*
X50877553Y-17369501D01*
X50983996Y-17222994D01*
X51066211Y-17061639D01*
X51122171Y-16889409D01*
X51145235Y-16743788D01*
X51150500Y-16710551D01*
X51150500Y-16529448D01*
X51128969Y-16393512D01*
X51122171Y-16350591D01*
X51090785Y-16253993D01*
X51066212Y-16178363D01*
X51066211Y-16178360D01*
X51037740Y-16122484D01*
X50983996Y-16017006D01*
X50942114Y-15959360D01*
X50877558Y-15870505D01*
X50877554Y-15870500D01*
X50749499Y-15742445D01*
X50749494Y-15742441D01*
X50602997Y-15636006D01*
X50602996Y-15636005D01*
X50602994Y-15636004D01*
X50545215Y-15606564D01*
X50441639Y-15553788D01*
X50441636Y-15553787D01*
X50269410Y-15497829D01*
X50109321Y-15472473D01*
X50046186Y-15442544D01*
X50009255Y-15383232D01*
X50010253Y-15313370D01*
X50048863Y-15255137D01*
X50109321Y-15227527D01*
X50179425Y-15216422D01*
X50269409Y-15202171D01*
X50441639Y-15146211D01*
X50602994Y-15063996D01*
X50749501Y-14957553D01*
X50877553Y-14829501D01*
X50983996Y-14682994D01*
X51066211Y-14521639D01*
X51122171Y-14349409D01*
X51145235Y-14203788D01*
X51150500Y-14170551D01*
X51150500Y-13989448D01*
X51132773Y-13877527D01*
X51122171Y-13810591D01*
X51066211Y-13638361D01*
X51066211Y-13638360D01*
X51032502Y-13572203D01*
X50983996Y-13477006D01*
X50935677Y-13410500D01*
X50877558Y-13330505D01*
X50877554Y-13330500D01*
X50749499Y-13202445D01*
X50749494Y-13202441D01*
X50602997Y-13096006D01*
X50602996Y-13096005D01*
X50602994Y-13096004D01*
X50551300Y-13069664D01*
X50441639Y-13013788D01*
X50441636Y-13013787D01*
X50269410Y-12957829D01*
X50109321Y-12932473D01*
X50046186Y-12902544D01*
X50009255Y-12843232D01*
X50010253Y-12773370D01*
X50048863Y-12715137D01*
X50109321Y-12687527D01*
X50179425Y-12676422D01*
X50269409Y-12662171D01*
X50441639Y-12606211D01*
X50602994Y-12523996D01*
X50749501Y-12417553D01*
X50877553Y-12289501D01*
X50983996Y-12142994D01*
X51066211Y-11981639D01*
X51122171Y-11809409D01*
X51145235Y-11663788D01*
X51150500Y-11630551D01*
X51150500Y-11449448D01*
X51132773Y-11337527D01*
X51122171Y-11270591D01*
X51066211Y-11098361D01*
X51066211Y-11098360D01*
X51037740Y-11042484D01*
X50983996Y-10937006D01*
X50970396Y-10918287D01*
X50877558Y-10790505D01*
X50877554Y-10790500D01*
X50749499Y-10662445D01*
X50749494Y-10662441D01*
X50602997Y-10556006D01*
X50602996Y-10556005D01*
X50602994Y-10556004D01*
X50551300Y-10529664D01*
X50441639Y-10473788D01*
X50441636Y-10473787D01*
X50269410Y-10417829D01*
X50137733Y-10396973D01*
X50074598Y-10367044D01*
X50037667Y-10307732D01*
X50038665Y-10237869D01*
X50077275Y-10179637D01*
X50141239Y-10151523D01*
X50157131Y-10150500D01*
X50643097Y-10150500D01*
X50643102Y-10150500D01*
X50731564Y-10139877D01*
X50872342Y-10084361D01*
X50992922Y-9992922D01*
X51084361Y-9872342D01*
X51139877Y-9731564D01*
X51150500Y-9643102D01*
X51150500Y-8356898D01*
X51139877Y-8268436D01*
X51084361Y-8127658D01*
X51084360Y-8127657D01*
X51084360Y-8127656D01*
X50992922Y-8007077D01*
X50872343Y-7915639D01*
X50731561Y-7860122D01*
X50685926Y-7854642D01*
X50643102Y-7849500D01*
X49356898Y-7849500D01*
X49317853Y-7854188D01*
X49268438Y-7860122D01*
X49127656Y-7915639D01*
X49007077Y-8007077D01*
X48915639Y-8127656D01*
X48860122Y-8268438D01*
X48854188Y-8317853D01*
X48849500Y-8356898D01*
X48849500Y-9643102D01*
X48855126Y-9689954D01*
X48860122Y-9731561D01*
X48915639Y-9872343D01*
X49007077Y-9992922D01*
X49127656Y-10084360D01*
X49127657Y-10084360D01*
X49127658Y-10084361D01*
X49268436Y-10139877D01*
X49356898Y-10150500D01*
X49356903Y-10150500D01*
X49842869Y-10150500D01*
X49909908Y-10170185D01*
X49955663Y-10222989D01*
X49965607Y-10292147D01*
X49936582Y-10355703D01*
X49877804Y-10393477D01*
X49862267Y-10396973D01*
X49730589Y-10417829D01*
X49558363Y-10473787D01*
X49558360Y-10473788D01*
X49397002Y-10556006D01*
X49250505Y-10662441D01*
X49250500Y-10662445D01*
X49122445Y-10790500D01*
X49122441Y-10790505D01*
X49016006Y-10937002D01*
X48933788Y-11098360D01*
X48933787Y-11098363D01*
X48877829Y-11270589D01*
X48849500Y-11449448D01*
X48849500Y-11630551D01*
X48878095Y-11811091D01*
X48869141Y-11880384D01*
X48843303Y-11918170D01*
X48538292Y-12223182D01*
X48476971Y-12256666D01*
X48450613Y-12259500D01*
X46140563Y-12259500D01*
X46102020Y-12251834D01*
X46101835Y-12252527D01*
X46093985Y-12250423D01*
X46093984Y-12250423D01*
X45941257Y-12209500D01*
X45783143Y-12209500D01*
X45630416Y-12250423D01*
X45630409Y-12250426D01*
X45493490Y-12329475D01*
X45493482Y-12329481D01*
X45381681Y-12441282D01*
X45381675Y-12441290D01*
X45302626Y-12578209D01*
X45302623Y-12578216D01*
X45261700Y-12730943D01*
X45261700Y-12889057D01*
X45295122Y-13013787D01*
X45302623Y-13041783D01*
X45302623Y-13041784D01*
X45325611Y-13081601D01*
X45342082Y-13149502D01*
X45319230Y-13215528D01*
X45264308Y-13258718D01*
X45218223Y-13267600D01*
X31924625Y-13267600D01*
X31819617Y-13295737D01*
X31784614Y-13305116D01*
X31659086Y-13377589D01*
X31659083Y-13377591D01*
X26971547Y-18065126D01*
X26910224Y-18098611D01*
X26840532Y-18093627D01*
X26784599Y-18051755D01*
X26760182Y-17986291D01*
X26761393Y-17958046D01*
X26770500Y-17900550D01*
X26770500Y-17719448D01*
X26748917Y-17583183D01*
X26742171Y-17540591D01*
X26698036Y-17404754D01*
X26686212Y-17368363D01*
X26686211Y-17368360D01*
X26657740Y-17312484D01*
X26603996Y-17207006D01*
X26590396Y-17188287D01*
X26497558Y-17060505D01*
X26497554Y-17060500D01*
X26369499Y-16932445D01*
X26369494Y-16932441D01*
X26222997Y-16826006D01*
X26222996Y-16826005D01*
X26222994Y-16826004D01*
X26171300Y-16799664D01*
X26061639Y-16743788D01*
X26061636Y-16743787D01*
X25889410Y-16687829D01*
X25729321Y-16662473D01*
X25666186Y-16632544D01*
X25629255Y-16573232D01*
X25630253Y-16503370D01*
X25668863Y-16445137D01*
X25729321Y-16417527D01*
X25799425Y-16406422D01*
X25889409Y-16392171D01*
X26061639Y-16336211D01*
X26222994Y-16253996D01*
X26369501Y-16147553D01*
X26497553Y-16019501D01*
X26603996Y-15872994D01*
X26686211Y-15711639D01*
X26742171Y-15539409D01*
X26760819Y-15421668D01*
X26770500Y-15360551D01*
X26770500Y-15179448D01*
X26751099Y-15056961D01*
X26742171Y-15000591D01*
X26691995Y-14846162D01*
X26686212Y-14828363D01*
X26686211Y-14828360D01*
X26650605Y-14758481D01*
X26603996Y-14667006D01*
X26590396Y-14648287D01*
X26497558Y-14520505D01*
X26497554Y-14520500D01*
X26369499Y-14392445D01*
X26369494Y-14392441D01*
X26222997Y-14286006D01*
X26222996Y-14286005D01*
X26222994Y-14286004D01*
X26171300Y-14259664D01*
X26061639Y-14203788D01*
X26061636Y-14203787D01*
X25889410Y-14147829D01*
X25729321Y-14122473D01*
X25666186Y-14092544D01*
X25629255Y-14033232D01*
X25630253Y-13963370D01*
X25668863Y-13905137D01*
X25729321Y-13877527D01*
X25799425Y-13866422D01*
X25889409Y-13852171D01*
X26061639Y-13796211D01*
X26222994Y-13713996D01*
X26369501Y-13607553D01*
X26497553Y-13479501D01*
X26603996Y-13332994D01*
X26686211Y-13171639D01*
X26742171Y-12999409D01*
X26766907Y-12843232D01*
X26770500Y-12820551D01*
X26770500Y-12639448D01*
X26752213Y-12523993D01*
X26742171Y-12460591D01*
X26714191Y-12374476D01*
X26686212Y-12288363D01*
X26686211Y-12288360D01*
X26646029Y-12209500D01*
X26603996Y-12127006D01*
X26590396Y-12108287D01*
X26497558Y-11980505D01*
X26497554Y-11980500D01*
X26369499Y-11852445D01*
X26369494Y-11852441D01*
X26222997Y-11746006D01*
X26222996Y-11746005D01*
X26222994Y-11746004D01*
X26171300Y-11719664D01*
X26061639Y-11663788D01*
X26061636Y-11663787D01*
X25889410Y-11607829D01*
X25729321Y-11582473D01*
X25666186Y-11552544D01*
X25629255Y-11493232D01*
X25630253Y-11423370D01*
X25668863Y-11365137D01*
X25729321Y-11337527D01*
X25799425Y-11326422D01*
X25889409Y-11312171D01*
X26061639Y-11256211D01*
X26222994Y-11173996D01*
X26369501Y-11067553D01*
X26497553Y-10939501D01*
X26603996Y-10792994D01*
X26686211Y-10631639D01*
X26742171Y-10459409D01*
X26758596Y-10355703D01*
X26770500Y-10280551D01*
X26770500Y-10099448D01*
X26753627Y-9992922D01*
X26742171Y-9920591D01*
X26686211Y-9748361D01*
X26686211Y-9748360D01*
X26657740Y-9692484D01*
X26603996Y-9587006D01*
X26590396Y-9568287D01*
X26497558Y-9440505D01*
X26497554Y-9440500D01*
X26369499Y-9312445D01*
X26369494Y-9312441D01*
X26222995Y-9206004D01*
X26091314Y-9138908D01*
X26040519Y-9090934D01*
X26023724Y-9023113D01*
X26046262Y-8956978D01*
X26100977Y-8913527D01*
X26109295Y-8910492D01*
X26138217Y-8901095D01*
X26327554Y-8804622D01*
X26381716Y-8765270D01*
X26381717Y-8765270D01*
X25749408Y-8132962D01*
X25812993Y-8115925D01*
X25927007Y-8050099D01*
X26020099Y-7957007D01*
X26085925Y-7842993D01*
X26102962Y-7779409D01*
X26735270Y-8411717D01*
X26735270Y-8411716D01*
X26774622Y-8357554D01*
X26871095Y-8168217D01*
X26936757Y-7966130D01*
X26936757Y-7966127D01*
X26970000Y-7756246D01*
X26970000Y-7543753D01*
X26936757Y-7333872D01*
X26936757Y-7333869D01*
X26871095Y-7131782D01*
X26774624Y-6942449D01*
X26735270Y-6888282D01*
X26735269Y-6888282D01*
X26102962Y-7520590D01*
X26085925Y-7457007D01*
X26020099Y-7342993D01*
X25927007Y-7249901D01*
X25812993Y-7184075D01*
X25749409Y-7167037D01*
X26381716Y-6534728D01*
X26327550Y-6495375D01*
X26326786Y-6494986D01*
X26326546Y-6494759D01*
X26323396Y-6492829D01*
X26323801Y-6492167D01*
X26275988Y-6447013D01*
X26259191Y-6379192D01*
X26281726Y-6313057D01*
X26336440Y-6269604D01*
X26383076Y-6260499D01*
X26514864Y-6260499D01*
X26514879Y-6260497D01*
X26514882Y-6260497D01*
X26539987Y-6257586D01*
X26539988Y-6257585D01*
X26539991Y-6257585D01*
X26642765Y-6212206D01*
X26722206Y-6132765D01*
X26767585Y-6029991D01*
X26770500Y-6004865D01*
X26770500Y-5934500D01*
X26790185Y-5867461D01*
X26842989Y-5821706D01*
X26894500Y-5810500D01*
X29818481Y-5810500D01*
X29885520Y-5830185D01*
X29906162Y-5846819D01*
X30213181Y-6153838D01*
X30246666Y-6215161D01*
X30249500Y-6241519D01*
X30249500Y-6518102D01*
X30251497Y-6534728D01*
X30260122Y-6606561D01*
X30315639Y-6747343D01*
X30407077Y-6867922D01*
X30527656Y-6959360D01*
X30527657Y-6959360D01*
X30527658Y-6959361D01*
X30668436Y-7014877D01*
X30756898Y-7025500D01*
X30756903Y-7025500D01*
X31343097Y-7025500D01*
X31343102Y-7025500D01*
X31431564Y-7014877D01*
X31572342Y-6959361D01*
X31692922Y-6867922D01*
X31765328Y-6772441D01*
X31789486Y-6740584D01*
X31791317Y-6741972D01*
X31832607Y-6701689D01*
X31901058Y-6687682D01*
X31966216Y-6712905D01*
X32007394Y-6769351D01*
X32008391Y-6772241D01*
X32015640Y-6794115D01*
X32015643Y-6794124D01*
X32107684Y-6943345D01*
X32231654Y-7067315D01*
X32380875Y-7159356D01*
X32380880Y-7159358D01*
X32547302Y-7214505D01*
X32547309Y-7214506D01*
X32650019Y-7224999D01*
X33200000Y-7224999D01*
X33249972Y-7224999D01*
X33249986Y-7224998D01*
X33352697Y-7214505D01*
X33519119Y-7159358D01*
X33519124Y-7159356D01*
X33668345Y-7067315D01*
X33792315Y-6943345D01*
X33884356Y-6794124D01*
X33884358Y-6794119D01*
X33939505Y-6627697D01*
X33939506Y-6627690D01*
X33949999Y-6524986D01*
X33950000Y-6524973D01*
X33950000Y-6250000D01*
X33200000Y-6250000D01*
X33200000Y-7224999D01*
X32650019Y-7224999D01*
X32699999Y-7224998D01*
X32700000Y-7224998D01*
X32700000Y-5750000D01*
X33200000Y-5750000D01*
X33949999Y-5750000D01*
X33949999Y-5475028D01*
X33949998Y-5475013D01*
X33939505Y-5372302D01*
X33884358Y-5205880D01*
X33884356Y-5205875D01*
X33792315Y-5056654D01*
X33668345Y-4932684D01*
X33519124Y-4840643D01*
X33519119Y-4840641D01*
X33352697Y-4785494D01*
X33352690Y-4785493D01*
X33249986Y-4775000D01*
X33200000Y-4775000D01*
X33200000Y-5750000D01*
X32700000Y-5750000D01*
X32700000Y-4775000D01*
X32699999Y-4774999D01*
X32650029Y-4775000D01*
X32650011Y-4775001D01*
X32547302Y-4785494D01*
X32380880Y-4840641D01*
X32380875Y-4840643D01*
X32231654Y-4932684D01*
X32107684Y-5056654D01*
X32015643Y-5205875D01*
X32015640Y-5205884D01*
X32008391Y-5227759D01*
X31968618Y-5285203D01*
X31904102Y-5312025D01*
X31835326Y-5299709D01*
X31790834Y-5258393D01*
X31789486Y-5259416D01*
X31692922Y-5132077D01*
X31572343Y-5040639D01*
X31431561Y-4985122D01*
X31385926Y-4979642D01*
X31343102Y-4974500D01*
X31343097Y-4974500D01*
X31066519Y-4974500D01*
X30999480Y-4954815D01*
X30978838Y-4938181D01*
X30606939Y-4566281D01*
X30573454Y-4504958D01*
X30578438Y-4435266D01*
X30620310Y-4379333D01*
X30685774Y-4354916D01*
X30694620Y-4354600D01*
X48952913Y-4354600D01*
X49019952Y-4374285D01*
G37*
%TD.AperFunction*%
%TA.AperFunction,Conductor*%
G36*
X67442539Y-520185D02*
G01*
X67488294Y-572989D01*
X67499500Y-624500D01*
X67499500Y-53375500D01*
X67479815Y-53442539D01*
X67427011Y-53488294D01*
X67375500Y-53499500D01*
X624500Y-53499500D01*
X557461Y-53479815D01*
X511706Y-53427011D01*
X500500Y-53375500D01*
X500500Y-49878711D01*
X2149500Y-49878711D01*
X2149500Y-50121288D01*
X2181161Y-50361785D01*
X2243947Y-50596104D01*
X2336773Y-50820205D01*
X2336776Y-50820212D01*
X2458064Y-51030289D01*
X2458066Y-51030292D01*
X2458067Y-51030293D01*
X2605733Y-51222736D01*
X2605739Y-51222743D01*
X2777256Y-51394260D01*
X2777262Y-51394265D01*
X2969711Y-51541936D01*
X3179788Y-51663224D01*
X3403900Y-51756054D01*
X3638211Y-51818838D01*
X3818586Y-51842584D01*
X3878711Y-51850500D01*
X3878712Y-51850500D01*
X4121289Y-51850500D01*
X4169388Y-51844167D01*
X4361789Y-51818838D01*
X4596100Y-51756054D01*
X4820212Y-51663224D01*
X5030289Y-51541936D01*
X5222738Y-51394265D01*
X5394265Y-51222738D01*
X5541936Y-51030289D01*
X5663224Y-50820212D01*
X5756054Y-50596100D01*
X5818838Y-50361789D01*
X5850500Y-50121288D01*
X5850500Y-49878712D01*
X5818838Y-49638211D01*
X5756054Y-49403900D01*
X5663224Y-49179788D01*
X5541936Y-48969711D01*
X5394265Y-48777262D01*
X5394260Y-48777256D01*
X5222743Y-48605739D01*
X5222736Y-48605733D01*
X5030293Y-48458067D01*
X5030292Y-48458066D01*
X5030289Y-48458064D01*
X4820212Y-48336776D01*
X4790575Y-48324500D01*
X4596104Y-48243947D01*
X4361785Y-48181161D01*
X4121289Y-48149500D01*
X4121288Y-48149500D01*
X3878712Y-48149500D01*
X3878711Y-48149500D01*
X3638214Y-48181161D01*
X3403895Y-48243947D01*
X3179794Y-48336773D01*
X3179785Y-48336777D01*
X2969706Y-48458067D01*
X2777263Y-48605733D01*
X2777256Y-48605739D01*
X2605739Y-48777256D01*
X2605733Y-48777263D01*
X2458067Y-48969706D01*
X2458064Y-48969710D01*
X2458064Y-48969711D01*
X2453721Y-48977234D01*
X2336777Y-49179785D01*
X2336773Y-49179794D01*
X2243947Y-49403895D01*
X2181161Y-49638214D01*
X2149500Y-49878711D01*
X500500Y-49878711D01*
X500500Y-46906898D01*
X9399500Y-46906898D01*
X9399500Y-49093102D01*
X9403023Y-49122441D01*
X9410122Y-49181561D01*
X9410122Y-49181563D01*
X9410123Y-49181564D01*
X9425194Y-49219781D01*
X9465639Y-49322343D01*
X9557077Y-49442922D01*
X9677656Y-49534360D01*
X9677657Y-49534360D01*
X9677658Y-49534361D01*
X9818436Y-49589877D01*
X9906898Y-49600500D01*
X9906903Y-49600500D01*
X12093096Y-49600500D01*
X12093102Y-49600500D01*
X12149400Y-49593739D01*
X12218307Y-49605291D01*
X12270031Y-49652263D01*
X12288149Y-49719743D01*
X12283905Y-49746237D01*
X12284208Y-49746298D01*
X12256100Y-49887604D01*
X12256100Y-49887607D01*
X12256100Y-50025593D01*
X12256100Y-50025595D01*
X12256099Y-50025595D01*
X12283018Y-50160922D01*
X12283021Y-50160932D01*
X12335821Y-50288404D01*
X12335828Y-50288417D01*
X12412485Y-50403141D01*
X12412488Y-50403145D01*
X12510054Y-50500711D01*
X12510058Y-50500714D01*
X12624782Y-50577371D01*
X12624795Y-50577378D01*
X12752267Y-50630178D01*
X12752272Y-50630180D01*
X12752276Y-50630180D01*
X12752277Y-50630181D01*
X12887604Y-50657100D01*
X12887607Y-50657100D01*
X23174896Y-50657100D01*
X23265940Y-50638989D01*
X23310228Y-50630180D01*
X23392505Y-50596100D01*
X23437707Y-50577377D01*
X23437708Y-50577376D01*
X23437711Y-50577375D01*
X23552443Y-50500714D01*
X23935306Y-50117849D01*
X23996625Y-50084367D01*
X24066317Y-50089351D01*
X24079014Y-50095081D01*
X24080688Y-50095774D01*
X24080689Y-50095775D01*
X24208172Y-50148580D01*
X24208176Y-50148580D01*
X24208177Y-50148581D01*
X24343503Y-50175500D01*
X24343506Y-50175500D01*
X24343507Y-50175500D01*
X27892405Y-50175500D01*
X27959444Y-50195185D01*
X27967331Y-50200697D01*
X28077656Y-50284360D01*
X28077657Y-50284360D01*
X28077658Y-50284361D01*
X28218436Y-50339877D01*
X28306898Y-50350500D01*
X28833481Y-50350500D01*
X28900520Y-50370185D01*
X28921157Y-50386814D01*
X29078457Y-50544114D01*
X29128236Y-50577375D01*
X29193189Y-50620775D01*
X29193190Y-50620775D01*
X29193191Y-50620776D01*
X29320667Y-50673578D01*
X29320672Y-50673580D01*
X29320676Y-50673580D01*
X29320677Y-50673581D01*
X29456004Y-50700500D01*
X29456007Y-50700500D01*
X44725501Y-50700500D01*
X44792540Y-50720185D01*
X44838295Y-50772989D01*
X44849501Y-50824500D01*
X44849501Y-50894856D01*
X44849502Y-50894882D01*
X44852413Y-50919987D01*
X44852415Y-50919991D01*
X44897793Y-51022764D01*
X44897794Y-51022765D01*
X44977235Y-51102206D01*
X45080009Y-51147585D01*
X45105135Y-51150500D01*
X46894864Y-51150499D01*
X46894879Y-51150497D01*
X46894882Y-51150497D01*
X46919987Y-51147586D01*
X46919988Y-51147585D01*
X46919991Y-51147585D01*
X47022765Y-51102206D01*
X47102206Y-51022765D01*
X47147585Y-50919991D01*
X47150500Y-50894865D01*
X47150499Y-49909448D01*
X49929500Y-49909448D01*
X49929500Y-50090551D01*
X49957829Y-50269410D01*
X50013787Y-50441636D01*
X50013788Y-50441639D01*
X50043889Y-50500714D01*
X50092493Y-50596104D01*
X50096006Y-50602997D01*
X50202441Y-50749494D01*
X50202445Y-50749499D01*
X50330500Y-50877554D01*
X50330505Y-50877558D01*
X50458287Y-50970396D01*
X50477006Y-50983996D01*
X50582484Y-51037740D01*
X50638360Y-51066211D01*
X50638363Y-51066212D01*
X50724476Y-51094191D01*
X50810591Y-51122171D01*
X50893429Y-51135291D01*
X50989449Y-51150500D01*
X50989454Y-51150500D01*
X51170551Y-51150500D01*
X51257259Y-51136765D01*
X51349409Y-51122171D01*
X51521639Y-51066211D01*
X51682994Y-50983996D01*
X51829501Y-50877553D01*
X51957553Y-50749501D01*
X52063996Y-50602994D01*
X52146211Y-50441639D01*
X52202171Y-50269409D01*
X52221308Y-50148581D01*
X52230500Y-50090551D01*
X52230500Y-49909449D01*
X52228061Y-49894052D01*
X52228061Y-49894051D01*
X52225631Y-49878711D01*
X62149500Y-49878711D01*
X62149500Y-50121288D01*
X62181161Y-50361785D01*
X62243947Y-50596104D01*
X62336773Y-50820205D01*
X62336776Y-50820212D01*
X62458064Y-51030289D01*
X62458066Y-51030292D01*
X62458067Y-51030293D01*
X62605733Y-51222736D01*
X62605739Y-51222743D01*
X62777256Y-51394260D01*
X62777262Y-51394265D01*
X62969711Y-51541936D01*
X63179788Y-51663224D01*
X63403900Y-51756054D01*
X63638211Y-51818838D01*
X63818586Y-51842584D01*
X63878711Y-51850500D01*
X63878712Y-51850500D01*
X64121289Y-51850500D01*
X64169388Y-51844167D01*
X64361789Y-51818838D01*
X64596100Y-51756054D01*
X64820212Y-51663224D01*
X65030289Y-51541936D01*
X65222738Y-51394265D01*
X65394265Y-51222738D01*
X65541936Y-51030289D01*
X65663224Y-50820212D01*
X65756054Y-50596100D01*
X65818838Y-50361789D01*
X65850500Y-50121288D01*
X65850500Y-49878712D01*
X65818838Y-49638211D01*
X65756054Y-49403900D01*
X65663224Y-49179788D01*
X65541936Y-48969711D01*
X65394265Y-48777262D01*
X65394260Y-48777256D01*
X65222743Y-48605739D01*
X65222736Y-48605733D01*
X65030293Y-48458067D01*
X65030292Y-48458066D01*
X65030289Y-48458064D01*
X64820212Y-48336776D01*
X64790575Y-48324500D01*
X64596104Y-48243947D01*
X64361785Y-48181161D01*
X64121289Y-48149500D01*
X64121288Y-48149500D01*
X63878712Y-48149500D01*
X63878711Y-48149500D01*
X63638214Y-48181161D01*
X63403895Y-48243947D01*
X63179794Y-48336773D01*
X63179785Y-48336777D01*
X62969706Y-48458067D01*
X62777263Y-48605733D01*
X62777256Y-48605739D01*
X62605739Y-48777256D01*
X62605733Y-48777263D01*
X62458067Y-48969706D01*
X62458064Y-48969710D01*
X62458064Y-48969711D01*
X62453721Y-48977234D01*
X62336777Y-49179785D01*
X62336773Y-49179794D01*
X62243947Y-49403895D01*
X62181161Y-49638214D01*
X62149500Y-49878711D01*
X52225631Y-49878711D01*
X52216112Y-49818613D01*
X52202171Y-49730591D01*
X52146211Y-49558361D01*
X52146211Y-49558360D01*
X52094509Y-49456891D01*
X52063996Y-49397006D01*
X52050396Y-49378287D01*
X51957558Y-49250505D01*
X51957554Y-49250500D01*
X51829499Y-49122445D01*
X51829494Y-49122441D01*
X51682997Y-49016006D01*
X51682996Y-49016005D01*
X51682994Y-49016004D01*
X51606906Y-48977235D01*
X51521639Y-48933788D01*
X51521636Y-48933787D01*
X51349410Y-48877829D01*
X51170551Y-48849500D01*
X51170546Y-48849500D01*
X50989454Y-48849500D01*
X50989449Y-48849500D01*
X50810589Y-48877829D01*
X50638363Y-48933787D01*
X50638360Y-48933788D01*
X50477002Y-49016006D01*
X50330505Y-49122441D01*
X50330500Y-49122445D01*
X50202445Y-49250500D01*
X50202441Y-49250505D01*
X50096006Y-49397002D01*
X50013788Y-49558360D01*
X50013787Y-49558363D01*
X49957829Y-49730589D01*
X49929500Y-49909448D01*
X47150499Y-49909448D01*
X47150499Y-49105136D01*
X47149242Y-49094297D01*
X47147586Y-49080012D01*
X47147585Y-49080010D01*
X47147585Y-49080009D01*
X47102206Y-48977235D01*
X47022765Y-48897794D01*
X47022763Y-48897793D01*
X46919992Y-48852415D01*
X46894865Y-48849500D01*
X45105143Y-48849500D01*
X45105117Y-48849502D01*
X45080012Y-48852413D01*
X45080008Y-48852415D01*
X44977235Y-48897793D01*
X44897794Y-48977234D01*
X44852415Y-49080006D01*
X44852415Y-49080008D01*
X44849500Y-49105131D01*
X44849500Y-49175500D01*
X44829815Y-49242539D01*
X44777011Y-49288294D01*
X44725500Y-49299500D01*
X42606286Y-49299500D01*
X42585040Y-49293261D01*
X42562952Y-49291682D01*
X42552168Y-49283609D01*
X42539247Y-49279815D01*
X42524747Y-49263081D01*
X42507019Y-49249810D01*
X42502311Y-49237189D01*
X42493492Y-49227011D01*
X42490340Y-49205093D01*
X42482602Y-49184346D01*
X42485464Y-49171185D01*
X42483548Y-49157853D01*
X42492747Y-49137709D01*
X42497454Y-49116073D01*
X42510722Y-49098347D01*
X42512573Y-49094297D01*
X42518605Y-49087819D01*
X42569605Y-49036819D01*
X42630928Y-49003334D01*
X42657286Y-49000500D01*
X43223854Y-49000500D01*
X43223860Y-49000500D01*
X43311321Y-48989997D01*
X43450500Y-48935111D01*
X43569711Y-48844711D01*
X43660111Y-48725500D01*
X43714997Y-48586321D01*
X43725500Y-48498860D01*
X43725500Y-47501140D01*
X43714997Y-47413679D01*
X43677402Y-47318345D01*
X43660112Y-47274502D01*
X43660111Y-47274500D01*
X43569711Y-47155288D01*
X43450499Y-47064888D01*
X43450497Y-47064887D01*
X43311322Y-47010003D01*
X43298826Y-47008502D01*
X43223860Y-46999500D01*
X42651140Y-46999500D01*
X42585544Y-47007377D01*
X42563677Y-47010003D01*
X42424502Y-47064887D01*
X42424500Y-47064888D01*
X42305288Y-47155288D01*
X42209764Y-47281258D01*
X42207518Y-47279555D01*
X42167509Y-47318561D01*
X42099053Y-47332545D01*
X42033904Y-47307299D01*
X41992746Y-47250838D01*
X41991762Y-47247985D01*
X41984903Y-47227287D01*
X41984903Y-47227285D01*
X41893629Y-47079308D01*
X41770691Y-46956370D01*
X41622714Y-46865096D01*
X41622709Y-46865094D01*
X41457673Y-46810407D01*
X41355815Y-46800000D01*
X41312500Y-46800000D01*
X41312500Y-47876000D01*
X41292815Y-47943039D01*
X41240011Y-47988794D01*
X41188500Y-48000000D01*
X41062500Y-48000000D01*
X41062500Y-48126000D01*
X41042815Y-48193039D01*
X40990011Y-48238794D01*
X40938500Y-48250000D01*
X40075000Y-48250000D01*
X40075000Y-48508965D01*
X40073780Y-48508965D01*
X40058661Y-48572159D01*
X40008247Y-48620535D01*
X39951078Y-48634500D01*
X39370864Y-48634500D01*
X39303825Y-48614815D01*
X39269028Y-48578322D01*
X39268360Y-48578836D01*
X39263588Y-48572617D01*
X39263478Y-48572502D01*
X39263412Y-48572388D01*
X39263408Y-48572383D01*
X38761819Y-48070794D01*
X38728334Y-48009471D01*
X38725500Y-47983113D01*
X38725500Y-47506901D01*
X38725369Y-47505810D01*
X38724808Y-47501140D01*
X38723973Y-47494184D01*
X40075000Y-47494184D01*
X40075000Y-47750000D01*
X40812500Y-47750000D01*
X40812500Y-46800000D01*
X40769184Y-46800000D01*
X40667326Y-46810407D01*
X40502290Y-46865094D01*
X40502285Y-46865096D01*
X40354308Y-46956370D01*
X40231370Y-47079308D01*
X40140096Y-47227285D01*
X40140094Y-47227290D01*
X40085407Y-47392326D01*
X40075000Y-47494184D01*
X38723973Y-47494184D01*
X38714877Y-47418436D01*
X38659361Y-47277658D01*
X38659360Y-47277657D01*
X38659360Y-47277656D01*
X38567922Y-47157077D01*
X38447343Y-47065639D01*
X38306561Y-47010122D01*
X38260926Y-47004642D01*
X38218102Y-46999500D01*
X37606898Y-46999500D01*
X37567853Y-47004188D01*
X37518438Y-47010122D01*
X37377656Y-47065639D01*
X37257077Y-47157077D01*
X37165639Y-47277656D01*
X37145396Y-47328990D01*
X37115353Y-47405171D01*
X37072449Y-47460314D01*
X37006541Y-47483507D01*
X36938556Y-47467386D01*
X36890080Y-47417070D01*
X36884648Y-47405178D01*
X36834361Y-47277658D01*
X36834360Y-47277657D01*
X36834360Y-47277656D01*
X36742922Y-47157077D01*
X36622343Y-47065639D01*
X36481561Y-47010122D01*
X36435926Y-47004642D01*
X36393102Y-46999500D01*
X36393097Y-46999500D01*
X35916887Y-46999500D01*
X35887446Y-46990855D01*
X35857460Y-46984332D01*
X35852444Y-46980577D01*
X35849848Y-46979815D01*
X35829206Y-46963181D01*
X35770795Y-46904770D01*
X35748962Y-46872095D01*
X35748341Y-46872454D01*
X35665224Y-46728490D01*
X35665218Y-46728482D01*
X35553417Y-46616681D01*
X35553409Y-46616675D01*
X35416490Y-46537626D01*
X35416486Y-46537624D01*
X35416484Y-46537623D01*
X35263757Y-46496700D01*
X35105643Y-46496700D01*
X34952916Y-46537623D01*
X34952909Y-46537626D01*
X34815990Y-46616675D01*
X34815982Y-46616681D01*
X34704181Y-46728482D01*
X34704175Y-46728490D01*
X34625126Y-46865409D01*
X34625123Y-46865416D01*
X34584200Y-47018143D01*
X34584200Y-47176257D01*
X34622273Y-47318345D01*
X34625123Y-47328983D01*
X34625126Y-47328990D01*
X34704175Y-47465909D01*
X34704179Y-47465914D01*
X34704180Y-47465916D01*
X34815984Y-47577720D01*
X34815986Y-47577721D01*
X34815990Y-47577724D01*
X34959954Y-47660841D01*
X34959595Y-47661462D01*
X34992270Y-47683295D01*
X35238181Y-47929206D01*
X35271666Y-47990529D01*
X35274500Y-48016887D01*
X35274500Y-48493102D01*
X35277309Y-48516492D01*
X35285122Y-48581561D01*
X35285122Y-48581563D01*
X35285123Y-48581564D01*
X35296385Y-48610122D01*
X35340639Y-48722343D01*
X35432077Y-48842922D01*
X35552656Y-48934360D01*
X35552657Y-48934360D01*
X35552658Y-48934361D01*
X35693436Y-48989877D01*
X35781898Y-49000500D01*
X35781903Y-49000500D01*
X36393097Y-49000500D01*
X36393102Y-49000500D01*
X36481564Y-48989877D01*
X36622342Y-48934361D01*
X36742922Y-48842922D01*
X36834361Y-48722342D01*
X36884646Y-48594826D01*
X36927551Y-48539685D01*
X36993459Y-48516492D01*
X37061443Y-48532612D01*
X37109920Y-48582929D01*
X37115348Y-48594814D01*
X37138107Y-48652525D01*
X37165639Y-48722343D01*
X37257077Y-48842922D01*
X37377656Y-48934360D01*
X37377657Y-48934360D01*
X37377658Y-48934361D01*
X37518436Y-48989877D01*
X37606898Y-49000500D01*
X38083113Y-49000500D01*
X38112553Y-49009144D01*
X38142540Y-49015668D01*
X38147555Y-49019422D01*
X38150152Y-49020185D01*
X38170794Y-49036819D01*
X38221794Y-49087819D01*
X38255279Y-49149142D01*
X38250295Y-49218834D01*
X38208423Y-49274767D01*
X38142959Y-49299184D01*
X38134113Y-49299500D01*
X30324500Y-49299500D01*
X30257461Y-49279815D01*
X30211706Y-49227011D01*
X30200500Y-49175500D01*
X30200500Y-49106903D01*
X30200500Y-49106898D01*
X30189877Y-49018436D01*
X30134361Y-48877658D01*
X30134360Y-48877657D01*
X30134360Y-48877656D01*
X30042922Y-48757077D01*
X29922343Y-48665639D01*
X29781561Y-48610122D01*
X29735926Y-48604642D01*
X29693102Y-48599500D01*
X28306898Y-48599500D01*
X28267853Y-48604188D01*
X28218438Y-48610122D01*
X28077656Y-48665639D01*
X27967331Y-48749303D01*
X27902019Y-48774127D01*
X27892405Y-48774500D01*
X24996502Y-48774500D01*
X24929463Y-48754815D01*
X24883708Y-48702011D01*
X24881148Y-48695990D01*
X24838116Y-48586871D01*
X24838115Y-48586868D01*
X24832024Y-48578836D01*
X24751867Y-48473132D01*
X24638134Y-48386886D01*
X24638132Y-48386885D01*
X24505346Y-48334521D01*
X24505345Y-48334520D01*
X24505343Y-48334520D01*
X24421902Y-48324500D01*
X23578098Y-48324500D01*
X23494656Y-48334520D01*
X23494655Y-48334520D01*
X23361865Y-48386886D01*
X23248132Y-48473132D01*
X23161886Y-48586865D01*
X23109520Y-48719655D01*
X23109520Y-48719656D01*
X23099500Y-48803097D01*
X23099500Y-48920981D01*
X23079815Y-48988020D01*
X23063181Y-49008662D01*
X22852062Y-49219781D01*
X22790739Y-49253266D01*
X22764381Y-49256100D01*
X13899500Y-49256100D01*
X13890814Y-49253549D01*
X13881853Y-49254838D01*
X13857812Y-49243859D01*
X13832461Y-49236415D01*
X13826533Y-49229574D01*
X13818297Y-49225813D01*
X13804007Y-49203578D01*
X13786706Y-49183611D01*
X13784418Y-49173096D01*
X13780523Y-49167035D01*
X13775500Y-49132100D01*
X13775500Y-49004387D01*
X13795185Y-48937348D01*
X13811819Y-48916706D01*
X13850869Y-48877656D01*
X13915510Y-48813015D01*
X13987984Y-48687485D01*
X13993268Y-48667760D01*
X13993271Y-48667756D01*
X13993270Y-48667756D01*
X14025500Y-48547475D01*
X14025500Y-48152525D01*
X14025500Y-47902525D01*
X14025500Y-47652525D01*
X14025500Y-47402525D01*
X14025500Y-47152525D01*
X14025500Y-46902525D01*
X14025500Y-46678097D01*
X23099500Y-46678097D01*
X23099500Y-47196902D01*
X23109520Y-47280343D01*
X23109520Y-47280344D01*
X23161886Y-47413134D01*
X23248132Y-47526867D01*
X23344572Y-47599999D01*
X23361868Y-47613115D01*
X23494654Y-47665479D01*
X23578098Y-47675500D01*
X24421902Y-47675500D01*
X24505346Y-47665479D01*
X24638132Y-47613115D01*
X24751867Y-47526867D01*
X24838115Y-47413132D01*
X24890479Y-47280346D01*
X24900500Y-47196902D01*
X24900500Y-46899986D01*
X27600001Y-46899986D01*
X27610494Y-47002697D01*
X27665641Y-47169119D01*
X27665643Y-47169124D01*
X27757684Y-47318345D01*
X27881654Y-47442315D01*
X28030875Y-47534356D01*
X28030880Y-47534358D01*
X28197302Y-47589505D01*
X28197309Y-47589506D01*
X28300019Y-47599999D01*
X28749999Y-47599999D01*
X29250000Y-47599999D01*
X29699972Y-47599999D01*
X29699986Y-47599998D01*
X29802697Y-47589505D01*
X29969119Y-47534358D01*
X29969124Y-47534356D01*
X30118345Y-47442315D01*
X30242315Y-47318345D01*
X30334356Y-47169124D01*
X30334358Y-47169119D01*
X30389505Y-47002697D01*
X30389506Y-47002690D01*
X30399999Y-46899986D01*
X30400000Y-46899973D01*
X30400000Y-46775000D01*
X29250000Y-46775000D01*
X29250000Y-47599999D01*
X28749999Y-47599999D01*
X28750000Y-47599998D01*
X28750000Y-46775000D01*
X27600001Y-46775000D01*
X27600001Y-46899986D01*
X24900500Y-46899986D01*
X24900500Y-46678098D01*
X24890479Y-46594654D01*
X24838115Y-46461868D01*
X24790820Y-46399500D01*
X24751867Y-46348132D01*
X24749572Y-46346392D01*
X24748001Y-46344266D01*
X24746501Y-46342766D01*
X24743297Y-46341303D01*
X24726506Y-46315175D01*
X24708050Y-46290198D01*
X24707134Y-46285032D01*
X24705523Y-46282525D01*
X24700500Y-46247590D01*
X24700500Y-46150013D01*
X27600000Y-46150013D01*
X27600000Y-46275000D01*
X28750000Y-46275000D01*
X29250000Y-46275000D01*
X30399999Y-46275000D01*
X30399999Y-46150028D01*
X30399998Y-46150013D01*
X30389505Y-46047302D01*
X30334358Y-45880880D01*
X30334356Y-45880875D01*
X30242315Y-45731654D01*
X30118345Y-45607684D01*
X29969124Y-45515643D01*
X29969119Y-45515641D01*
X29802697Y-45460494D01*
X29802690Y-45460493D01*
X29699986Y-45450000D01*
X29250000Y-45450000D01*
X29250000Y-46275000D01*
X28750000Y-46275000D01*
X28750000Y-45450000D01*
X28300028Y-45450000D01*
X28300012Y-45450001D01*
X28197302Y-45460494D01*
X28030880Y-45515641D01*
X28030875Y-45515643D01*
X27881654Y-45607684D01*
X27757684Y-45731654D01*
X27665643Y-45880875D01*
X27665641Y-45880880D01*
X27610494Y-46047302D01*
X27610493Y-46047309D01*
X27600000Y-46150013D01*
X24700500Y-46150013D01*
X24700500Y-45795404D01*
X24673581Y-45660077D01*
X24673580Y-45660076D01*
X24673580Y-45660072D01*
X24670454Y-45652525D01*
X24620778Y-45532595D01*
X24620771Y-45532582D01*
X24544114Y-45417858D01*
X24544111Y-45417854D01*
X24446545Y-45320288D01*
X24446541Y-45320285D01*
X24331817Y-45243628D01*
X24331804Y-45243621D01*
X24204332Y-45190821D01*
X24204322Y-45190818D01*
X24068995Y-45163900D01*
X24068993Y-45163900D01*
X23931007Y-45163900D01*
X23931005Y-45163900D01*
X23795677Y-45190818D01*
X23795667Y-45190821D01*
X23668195Y-45243621D01*
X23668182Y-45243628D01*
X23553458Y-45320285D01*
X23553454Y-45320288D01*
X23455888Y-45417854D01*
X23455885Y-45417858D01*
X23379228Y-45532582D01*
X23379221Y-45532595D01*
X23326421Y-45660067D01*
X23326418Y-45660077D01*
X23299500Y-45795404D01*
X23299500Y-46247590D01*
X23279815Y-46314629D01*
X23250428Y-46346392D01*
X23248132Y-46348132D01*
X23161886Y-46461865D01*
X23109520Y-46594655D01*
X23109520Y-46594656D01*
X23099500Y-46678097D01*
X14025500Y-46678097D01*
X14025500Y-46652525D01*
X14025500Y-46402525D01*
X14025500Y-46152525D01*
X14025500Y-45902525D01*
X14025500Y-45652525D01*
X14025500Y-45402525D01*
X14025500Y-45152525D01*
X14025500Y-45004387D01*
X14045185Y-44937348D01*
X14061819Y-44916706D01*
X15284946Y-43693579D01*
X15415510Y-43563015D01*
X15665510Y-43313015D01*
X15915510Y-43063015D01*
X16165510Y-42813015D01*
X16415510Y-42563015D01*
X16665510Y-42313015D01*
X16737984Y-42187485D01*
X16746663Y-42155094D01*
X16775500Y-42047475D01*
X16775500Y-42004387D01*
X16795185Y-41937348D01*
X16811819Y-41916706D01*
X16915510Y-41813015D01*
X16987984Y-41687485D01*
X16993152Y-41668193D01*
X16993155Y-41668189D01*
X16993154Y-41668189D01*
X17025500Y-41547475D01*
X17025500Y-41152525D01*
X17025500Y-40902525D01*
X17025500Y-40755293D01*
X17034340Y-40725186D01*
X17041368Y-40694602D01*
X17044367Y-40691037D01*
X17045185Y-40688254D01*
X17062846Y-40666596D01*
X17071572Y-40658070D01*
X17075458Y-40655677D01*
X17092585Y-40637541D01*
X17094365Y-40635803D01*
X17123110Y-40620538D01*
X17151211Y-40604136D01*
X17154832Y-40603694D01*
X17156074Y-40603035D01*
X17158548Y-40603240D01*
X17181019Y-40600500D01*
X17579270Y-40600500D01*
X17609699Y-40597646D01*
X17609701Y-40597646D01*
X17673790Y-40575219D01*
X17737882Y-40552793D01*
X17847150Y-40472150D01*
X17854279Y-40462490D01*
X17909925Y-40420241D01*
X17979581Y-40414782D01*
X18041130Y-40447849D01*
X18075032Y-40508943D01*
X18077406Y-40523523D01*
X18085494Y-40602697D01*
X18140641Y-40769119D01*
X18140643Y-40769124D01*
X18232684Y-40918345D01*
X18356654Y-41042315D01*
X18505875Y-41134356D01*
X18505880Y-41134358D01*
X18672302Y-41189505D01*
X18672309Y-41189506D01*
X18775019Y-41199999D01*
X19337500Y-41199999D01*
X19339914Y-41199999D01*
X19406953Y-41219684D01*
X19447301Y-41261999D01*
X19494480Y-41343716D01*
X19606284Y-41455520D01*
X19606286Y-41455521D01*
X19606290Y-41455524D01*
X19727494Y-41525500D01*
X19743216Y-41534577D01*
X19895943Y-41575500D01*
X19895945Y-41575500D01*
X20054055Y-41575500D01*
X20054057Y-41575500D01*
X20206784Y-41534577D01*
X20206785Y-41534576D01*
X20214635Y-41532473D01*
X20214820Y-41533165D01*
X20253363Y-41525500D01*
X20547472Y-41525500D01*
X20547474Y-41525500D01*
X20547475Y-41525500D01*
X20687485Y-41487984D01*
X20689162Y-41487016D01*
X20813015Y-41415510D01*
X21165510Y-41063015D01*
X21199057Y-41029467D01*
X21260376Y-40995983D01*
X21271944Y-40994033D01*
X21306564Y-40989877D01*
X21447342Y-40934361D01*
X21567922Y-40842922D01*
X21659361Y-40722342D01*
X21714877Y-40581564D01*
X21725500Y-40493102D01*
X21725500Y-39506898D01*
X21714877Y-39418436D01*
X21659361Y-39277658D01*
X21659360Y-39277657D01*
X21659360Y-39277656D01*
X21567922Y-39157077D01*
X21447343Y-39065639D01*
X21306561Y-39010122D01*
X21260926Y-39004642D01*
X21218102Y-38999500D01*
X20606898Y-38999500D01*
X20567853Y-39004188D01*
X20518438Y-39010122D01*
X20377656Y-39065639D01*
X20257077Y-39157078D01*
X20218497Y-39207953D01*
X20162305Y-39249476D01*
X20092583Y-39254027D01*
X20031470Y-39220162D01*
X20014156Y-39198124D01*
X19942319Y-39081659D01*
X19942316Y-39081655D01*
X19818345Y-38957684D01*
X19669124Y-38865643D01*
X19669119Y-38865641D01*
X19502697Y-38810494D01*
X19502690Y-38810493D01*
X19399986Y-38800000D01*
X19337500Y-38800000D01*
X19337500Y-41199999D01*
X18775019Y-41199999D01*
X18837499Y-41199998D01*
X18837500Y-41199998D01*
X18837500Y-38800000D01*
X18837499Y-38799999D01*
X18775028Y-38800000D01*
X18775011Y-38800001D01*
X18672302Y-38810494D01*
X18505880Y-38865641D01*
X18505875Y-38865643D01*
X18356654Y-38957684D01*
X18232684Y-39081654D01*
X18140643Y-39230875D01*
X18140641Y-39230880D01*
X18085494Y-39397302D01*
X18085493Y-39397310D01*
X18077405Y-39476476D01*
X18051008Y-39541168D01*
X17993827Y-39581319D01*
X17924016Y-39584182D01*
X17863740Y-39548847D01*
X17854278Y-39537508D01*
X17847150Y-39527850D01*
X17737882Y-39447207D01*
X17737880Y-39447206D01*
X17609700Y-39402353D01*
X17579270Y-39399500D01*
X17579266Y-39399500D01*
X16423607Y-39399500D01*
X16356568Y-39379815D01*
X16310813Y-39327011D01*
X16308105Y-39311694D01*
X16297295Y-39300000D01*
X15312500Y-39300000D01*
X15312500Y-39850000D01*
X15715634Y-39850000D01*
X15715649Y-39849999D01*
X15752481Y-39847100D01*
X15753203Y-39846969D01*
X15753611Y-39847011D01*
X15758808Y-39846603D01*
X15758883Y-39847566D01*
X15822689Y-39854278D01*
X15877193Y-39897994D01*
X15899410Y-39964237D01*
X15899500Y-39968948D01*
X15899500Y-40204261D01*
X15901401Y-40224537D01*
X15888060Y-40293121D01*
X15839758Y-40343605D01*
X15771830Y-40359961D01*
X15736995Y-40353156D01*
X15734704Y-40352354D01*
X15734699Y-40352353D01*
X15704270Y-40349500D01*
X15704266Y-40349500D01*
X14420734Y-40349500D01*
X14420730Y-40349500D01*
X14390300Y-40352353D01*
X14390298Y-40352353D01*
X14262119Y-40397206D01*
X14262117Y-40397207D01*
X14152850Y-40477850D01*
X14072207Y-40587117D01*
X14072206Y-40587119D01*
X14027353Y-40715298D01*
X14027353Y-40715300D01*
X14024500Y-40745730D01*
X14024500Y-41095613D01*
X14004815Y-41162652D01*
X13988181Y-41183294D01*
X10534491Y-44636983D01*
X10534489Y-44636986D01*
X10476180Y-44737983D01*
X10476178Y-44737986D01*
X10462017Y-44762512D01*
X10462016Y-44762514D01*
X10462016Y-44762515D01*
X10424500Y-44902525D01*
X10424500Y-44902527D01*
X10424500Y-46275500D01*
X10404815Y-46342539D01*
X10352011Y-46388294D01*
X10300500Y-46399500D01*
X9906898Y-46399500D01*
X9867853Y-46404188D01*
X9818438Y-46410122D01*
X9677656Y-46465639D01*
X9557077Y-46557077D01*
X9465639Y-46677656D01*
X9410122Y-46818438D01*
X9404520Y-46865094D01*
X9399500Y-46906898D01*
X500500Y-46906898D01*
X500500Y-39300001D01*
X13827704Y-39300001D01*
X13827899Y-39302486D01*
X13873718Y-39460198D01*
X13957314Y-39601552D01*
X13957321Y-39601561D01*
X14073438Y-39717678D01*
X14073447Y-39717685D01*
X14214803Y-39801282D01*
X14214806Y-39801283D01*
X14372504Y-39847099D01*
X14372510Y-39847100D01*
X14409350Y-39849999D01*
X14409366Y-39850000D01*
X14812500Y-39850000D01*
X14812500Y-39300000D01*
X13827705Y-39300000D01*
X13827704Y-39300001D01*
X500500Y-39300001D01*
X500500Y-38799998D01*
X13827704Y-38799998D01*
X13827705Y-38800000D01*
X14812500Y-38800000D01*
X15312500Y-38800000D01*
X16297295Y-38800000D01*
X16297295Y-38799998D01*
X16297100Y-38797513D01*
X16251281Y-38639801D01*
X16167685Y-38498447D01*
X16167678Y-38498438D01*
X16051561Y-38382321D01*
X16051552Y-38382314D01*
X15910196Y-38298717D01*
X15910193Y-38298716D01*
X15752495Y-38252900D01*
X15752489Y-38252899D01*
X15715649Y-38250000D01*
X15312500Y-38250000D01*
X15312500Y-38800000D01*
X14812500Y-38800000D01*
X14812500Y-38250000D01*
X14409350Y-38250000D01*
X14372510Y-38252899D01*
X14372504Y-38252900D01*
X14214806Y-38298716D01*
X14214803Y-38298717D01*
X14073447Y-38382314D01*
X14073438Y-38382321D01*
X13957321Y-38498438D01*
X13957314Y-38498447D01*
X13873718Y-38639801D01*
X13827899Y-38797513D01*
X13827704Y-38799998D01*
X500500Y-38799998D01*
X500500Y-31752843D01*
X31480100Y-31752843D01*
X31480100Y-31910956D01*
X31521023Y-32063683D01*
X31521026Y-32063690D01*
X31600075Y-32200609D01*
X31600079Y-32200614D01*
X31600080Y-32200616D01*
X31711884Y-32312420D01*
X31711886Y-32312421D01*
X31711890Y-32312424D01*
X31848809Y-32391473D01*
X31848816Y-32391477D01*
X32001543Y-32432400D01*
X32001545Y-32432400D01*
X32159655Y-32432400D01*
X32159657Y-32432400D01*
X32312384Y-32391477D01*
X32449316Y-32312420D01*
X32561120Y-32200616D01*
X32640177Y-32063684D01*
X32640177Y-32063680D01*
X32644240Y-32056645D01*
X32644862Y-32057004D01*
X32666695Y-32024329D01*
X32929206Y-31761819D01*
X32990529Y-31728334D01*
X33016887Y-31725500D01*
X33493097Y-31725500D01*
X33493102Y-31725500D01*
X33581564Y-31714877D01*
X33722342Y-31659361D01*
X33842922Y-31567922D01*
X33934361Y-31447342D01*
X33989877Y-31306564D01*
X34000500Y-31218102D01*
X34000500Y-30606898D01*
X33989877Y-30518436D01*
X33934361Y-30377658D01*
X33934360Y-30377657D01*
X33934360Y-30377656D01*
X33842922Y-30257077D01*
X33792047Y-30218498D01*
X33750524Y-30162306D01*
X33745972Y-30092584D01*
X33779837Y-30031470D01*
X33801875Y-30014155D01*
X33918345Y-29942315D01*
X34042315Y-29818345D01*
X34134356Y-29669124D01*
X34134358Y-29669119D01*
X34189505Y-29502697D01*
X34189506Y-29502690D01*
X34199999Y-29399986D01*
X34200000Y-29399973D01*
X34200000Y-29337500D01*
X31800001Y-29337500D01*
X31800001Y-29399986D01*
X31810494Y-29502697D01*
X31865641Y-29669119D01*
X31865643Y-29669124D01*
X31957684Y-29818345D01*
X32081655Y-29942316D01*
X32081659Y-29942319D01*
X32198124Y-30014156D01*
X32244849Y-30066104D01*
X32256070Y-30135066D01*
X32228227Y-30199148D01*
X32207953Y-30218497D01*
X32157078Y-30257077D01*
X32065639Y-30377656D01*
X32010122Y-30518438D01*
X32004188Y-30567853D01*
X31999500Y-30606898D01*
X31999500Y-30606903D01*
X31999500Y-31083111D01*
X31990855Y-31112548D01*
X31984332Y-31142539D01*
X31980576Y-31147555D01*
X31979815Y-31150150D01*
X31963181Y-31170793D01*
X31888166Y-31245807D01*
X31855495Y-31267640D01*
X31855853Y-31268261D01*
X31848818Y-31272322D01*
X31848816Y-31272323D01*
X31762628Y-31322082D01*
X31711885Y-31351379D01*
X31711882Y-31351381D01*
X31600081Y-31463182D01*
X31600075Y-31463190D01*
X31521026Y-31600109D01*
X31521023Y-31600116D01*
X31480100Y-31752843D01*
X500500Y-31752843D01*
X500500Y-24490000D01*
X7500000Y-24490000D01*
X7500000Y-28260000D01*
X28500000Y-28260000D01*
X28500000Y-27673800D01*
X28519685Y-27606761D01*
X28572489Y-27561006D01*
X28624000Y-27549800D01*
X30363437Y-27549800D01*
X30401979Y-27557465D01*
X30402165Y-27556773D01*
X30410014Y-27558876D01*
X30410016Y-27558877D01*
X30562743Y-27599800D01*
X30562745Y-27599800D01*
X30720855Y-27599800D01*
X30720857Y-27599800D01*
X30873584Y-27558877D01*
X31010516Y-27479820D01*
X31062419Y-27427917D01*
X31123742Y-27394432D01*
X31193434Y-27399416D01*
X31249367Y-27441288D01*
X31272809Y-27497753D01*
X31274100Y-27506630D01*
X31274100Y-27601375D01*
X31302345Y-27706784D01*
X31304228Y-27713814D01*
X31304230Y-27713823D01*
X31311614Y-27741382D01*
X31326701Y-27767513D01*
X31383746Y-27866320D01*
X31384089Y-27866913D01*
X31384091Y-27866916D01*
X31856364Y-28339189D01*
X31889849Y-28400512D01*
X31884865Y-28470204D01*
X31874225Y-28491961D01*
X31865644Y-28505874D01*
X31865642Y-28505877D01*
X31810494Y-28672302D01*
X31810493Y-28672309D01*
X31800000Y-28775013D01*
X31800000Y-28837500D01*
X34199999Y-28837500D01*
X34199999Y-28775028D01*
X34199998Y-28775013D01*
X34189505Y-28672302D01*
X34134358Y-28505880D01*
X34134356Y-28505875D01*
X34042315Y-28356654D01*
X33918345Y-28232684D01*
X33769124Y-28140643D01*
X33769119Y-28140641D01*
X33602697Y-28085494D01*
X33602690Y-28085493D01*
X33553896Y-28080508D01*
X33524139Y-28068365D01*
X33493842Y-28057633D01*
X33491995Y-28055249D01*
X33489205Y-28054111D01*
X33470737Y-28027811D01*
X33451051Y-28002400D01*
X33450372Y-27998807D01*
X33449054Y-27996930D01*
X33442979Y-27968041D01*
X33442500Y-27962608D01*
X33442500Y-27896743D01*
X33433843Y-27864437D01*
X33432895Y-27853678D01*
X33437719Y-27829589D01*
X33438303Y-27805032D01*
X33444458Y-27795937D01*
X33446615Y-27785169D01*
X33463695Y-27767513D01*
X33477465Y-27747169D01*
X33487564Y-27742841D01*
X33495196Y-27734953D01*
X33519051Y-27729348D01*
X33541632Y-27719672D01*
X33581564Y-27714877D01*
X33722342Y-27659361D01*
X33842922Y-27567922D01*
X33934361Y-27447342D01*
X33989877Y-27306564D01*
X34000500Y-27218102D01*
X34000500Y-26812596D01*
X34020185Y-26745557D01*
X34036815Y-26724919D01*
X34517606Y-26244127D01*
X34517611Y-26244124D01*
X34527814Y-26233920D01*
X34527816Y-26233920D01*
X34639620Y-26122116D01*
X34702898Y-26012515D01*
X34718677Y-25985185D01*
X34759601Y-25832457D01*
X34759601Y-25746617D01*
X34779286Y-25679578D01*
X34795915Y-25658940D01*
X34870814Y-25584042D01*
X34947475Y-25469311D01*
X35000280Y-25341828D01*
X35016459Y-25260490D01*
X35027200Y-25206495D01*
X35027200Y-24965219D01*
X35046885Y-24898180D01*
X35063519Y-24877538D01*
X36037819Y-23903238D01*
X36099142Y-23869753D01*
X36168834Y-23874737D01*
X36224767Y-23916609D01*
X36249184Y-23982073D01*
X36249500Y-23990919D01*
X36249500Y-24299269D01*
X36252353Y-24329699D01*
X36252353Y-24329701D01*
X36297206Y-24457880D01*
X36297207Y-24457882D01*
X36339067Y-24514600D01*
X36363038Y-24580229D01*
X36347723Y-24648400D01*
X36302422Y-24694964D01*
X36298446Y-24697315D01*
X36298438Y-24697321D01*
X36182321Y-24813438D01*
X36182314Y-24813447D01*
X36098718Y-24954801D01*
X36052899Y-25112513D01*
X36052704Y-25114998D01*
X36052705Y-25115000D01*
X38997295Y-25115000D01*
X38997295Y-25114998D01*
X38997100Y-25112513D01*
X38951281Y-24954801D01*
X38867685Y-24813447D01*
X38867678Y-24813438D01*
X38751561Y-24697321D01*
X38751553Y-24697315D01*
X38747578Y-24694964D01*
X38699896Y-24643893D01*
X38687395Y-24575150D01*
X38710933Y-24514600D01*
X38752793Y-24457882D01*
X38775219Y-24393790D01*
X38797646Y-24329701D01*
X38797646Y-24329699D01*
X38800500Y-24299269D01*
X38800500Y-23890730D01*
X38797646Y-23860300D01*
X38797646Y-23860298D01*
X38755226Y-23739072D01*
X38752793Y-23732118D01*
X38672150Y-23622850D01*
X38562882Y-23542207D01*
X38562880Y-23542206D01*
X38434700Y-23497353D01*
X38404270Y-23494500D01*
X38404266Y-23494500D01*
X37867087Y-23494500D01*
X37800048Y-23474815D01*
X37754293Y-23422011D01*
X37744349Y-23352853D01*
X37773374Y-23289297D01*
X37779406Y-23282819D01*
X38228781Y-22833443D01*
X38413831Y-22648392D01*
X38446504Y-22626562D01*
X38446145Y-22625940D01*
X38453180Y-22621877D01*
X38453184Y-22621877D01*
X38590116Y-22542820D01*
X38701920Y-22431016D01*
X38765016Y-22321728D01*
X38815579Y-22273516D01*
X38884186Y-22260292D01*
X38949051Y-22286259D01*
X38987755Y-22338241D01*
X39040637Y-22472339D01*
X39040638Y-22472341D01*
X39132077Y-22592922D01*
X39252656Y-22684360D01*
X39252657Y-22684360D01*
X39252658Y-22684361D01*
X39393436Y-22739877D01*
X39481898Y-22750500D01*
X40088481Y-22750500D01*
X40155520Y-22770185D01*
X40176162Y-22786819D01*
X41165188Y-23775845D01*
X41198673Y-23837168D01*
X41200966Y-23875100D01*
X41199501Y-23890730D01*
X41199500Y-23890737D01*
X41199500Y-24299269D01*
X41202353Y-24329699D01*
X41202353Y-24329701D01*
X41245737Y-24453681D01*
X41247207Y-24457882D01*
X41327850Y-24567150D01*
X41359801Y-24590731D01*
X41402051Y-24646377D01*
X41407510Y-24716033D01*
X41374443Y-24777582D01*
X41313349Y-24811484D01*
X41286167Y-24814500D01*
X40739463Y-24814500D01*
X40700920Y-24806834D01*
X40700735Y-24807527D01*
X40692885Y-24805423D01*
X40692884Y-24805423D01*
X40540157Y-24764500D01*
X40382043Y-24764500D01*
X40229316Y-24805423D01*
X40229309Y-24805426D01*
X40092390Y-24884475D01*
X40092382Y-24884481D01*
X39980581Y-24996282D01*
X39980575Y-24996290D01*
X39901526Y-25133209D01*
X39901523Y-25133216D01*
X39860600Y-25285943D01*
X39860600Y-25444057D01*
X39898109Y-25584040D01*
X39901523Y-25596783D01*
X39901526Y-25596790D01*
X39980575Y-25733709D01*
X39980579Y-25733714D01*
X39980580Y-25733716D01*
X40092384Y-25845520D01*
X40092386Y-25845521D01*
X40092390Y-25845524D01*
X40160151Y-25884645D01*
X40229316Y-25924577D01*
X40332595Y-25952250D01*
X40392254Y-25988614D01*
X40422783Y-26051460D01*
X40424500Y-26072024D01*
X40424500Y-27196637D01*
X40416834Y-27235179D01*
X40417527Y-27235365D01*
X40374500Y-27395943D01*
X40374500Y-27550875D01*
X40354815Y-27617914D01*
X40302011Y-27663669D01*
X40232853Y-27673613D01*
X40169297Y-27644588D01*
X40162821Y-27638558D01*
X39286739Y-26762515D01*
X39286737Y-26762513D01*
X38741392Y-26217167D01*
X38707907Y-26155844D01*
X38712891Y-26086152D01*
X38747257Y-26039417D01*
X38746040Y-26038200D01*
X38867678Y-25916561D01*
X38867685Y-25916552D01*
X38951281Y-25775198D01*
X38997100Y-25617486D01*
X38997295Y-25615001D01*
X38997295Y-25615000D01*
X36052705Y-25615000D01*
X36052704Y-25615001D01*
X36052899Y-25617486D01*
X36098718Y-25775198D01*
X36182314Y-25916552D01*
X36182321Y-25916561D01*
X36298438Y-26032678D01*
X36298444Y-26032682D01*
X36302415Y-26035031D01*
X36350100Y-26086099D01*
X36362606Y-26154840D01*
X36339068Y-26215398D01*
X36297207Y-26272118D01*
X36297206Y-26272119D01*
X36252353Y-26400298D01*
X36252353Y-26400300D01*
X36249500Y-26430730D01*
X36249500Y-26734375D01*
X36229815Y-26801414D01*
X36177011Y-26847169D01*
X36107853Y-26857113D01*
X36063502Y-26841763D01*
X36036588Y-26826225D01*
X36036586Y-26826224D01*
X36036584Y-26826223D01*
X35883857Y-26785300D01*
X35725743Y-26785300D01*
X35573016Y-26826223D01*
X35573009Y-26826226D01*
X35436090Y-26905275D01*
X35436082Y-26905281D01*
X35324281Y-27017082D01*
X35324275Y-27017090D01*
X35245226Y-27154009D01*
X35245223Y-27154016D01*
X35204300Y-27306743D01*
X35204300Y-27464857D01*
X35229493Y-27558876D01*
X35245223Y-27617583D01*
X35245226Y-27617590D01*
X35324275Y-27754509D01*
X35324279Y-27754514D01*
X35324280Y-27754516D01*
X35436084Y-27866320D01*
X35436086Y-27866321D01*
X35436090Y-27866324D01*
X35573009Y-27945373D01*
X35573016Y-27945377D01*
X35725743Y-27986300D01*
X35725745Y-27986300D01*
X35883855Y-27986300D01*
X35883857Y-27986300D01*
X36036584Y-27945377D01*
X36063500Y-27929836D01*
X36131400Y-27913364D01*
X36197427Y-27936216D01*
X36240618Y-27991138D01*
X36249500Y-28037224D01*
X36249500Y-28109269D01*
X36252353Y-28139699D01*
X36252353Y-28139701D01*
X36294449Y-28260000D01*
X36297207Y-28267882D01*
X36377850Y-28377150D01*
X36487118Y-28457793D01*
X36522587Y-28470204D01*
X36615299Y-28502646D01*
X36645730Y-28505500D01*
X36645734Y-28505500D01*
X38404270Y-28505500D01*
X38434699Y-28502646D01*
X38434701Y-28502646D01*
X38498790Y-28480219D01*
X38562882Y-28457793D01*
X38672150Y-28377150D01*
X38752793Y-28267882D01*
X38775219Y-28203790D01*
X38797646Y-28139701D01*
X38797646Y-28139698D01*
X38799533Y-28119580D01*
X38825390Y-28054671D01*
X38882234Y-28014045D01*
X38952019Y-28010602D01*
X39010669Y-28043472D01*
X40360381Y-29393127D01*
X40393868Y-29454448D01*
X40388885Y-29524140D01*
X40360383Y-29568490D01*
X36161680Y-33767194D01*
X36100357Y-33800679D01*
X36030665Y-33795695D01*
X35974732Y-33753823D01*
X35950315Y-33688359D01*
X35949999Y-33679513D01*
X35949999Y-33475028D01*
X35949998Y-33475013D01*
X35939505Y-33372302D01*
X35884358Y-33205880D01*
X35884356Y-33205875D01*
X35792315Y-33056654D01*
X35668345Y-32932684D01*
X35519124Y-32840643D01*
X35519119Y-32840641D01*
X35352697Y-32785494D01*
X35352690Y-32785493D01*
X35249986Y-32775000D01*
X35200000Y-32775000D01*
X35200000Y-33876000D01*
X35180315Y-33943039D01*
X35127511Y-33988794D01*
X35076000Y-34000000D01*
X34824000Y-34000000D01*
X34756961Y-33980315D01*
X34711206Y-33927511D01*
X34700000Y-33876000D01*
X34700000Y-32775000D01*
X34699999Y-32774999D01*
X34650029Y-32775000D01*
X34650011Y-32775001D01*
X34547302Y-32785494D01*
X34380880Y-32840641D01*
X34380875Y-32840643D01*
X34231654Y-32932684D01*
X34107684Y-33056654D01*
X34015643Y-33205875D01*
X34015640Y-33205884D01*
X34008391Y-33227759D01*
X33968618Y-33285203D01*
X33904102Y-33312025D01*
X33835326Y-33299709D01*
X33790834Y-33258393D01*
X33789486Y-33259416D01*
X33692922Y-33132077D01*
X33572343Y-33040639D01*
X33455294Y-32994481D01*
X33431564Y-32985123D01*
X33431563Y-32985122D01*
X33431561Y-32985122D01*
X33385926Y-32979642D01*
X33343102Y-32974500D01*
X32756898Y-32974500D01*
X32717853Y-32979188D01*
X32668438Y-32985122D01*
X32527656Y-33040639D01*
X32407077Y-33132077D01*
X32315639Y-33252656D01*
X32260122Y-33393438D01*
X32258110Y-33410198D01*
X32249500Y-33481898D01*
X32249500Y-33481903D01*
X32249500Y-34357900D01*
X32229815Y-34424939D01*
X32177011Y-34470694D01*
X32125500Y-34481900D01*
X26166104Y-34481900D01*
X26030777Y-34508818D01*
X26030767Y-34508821D01*
X25903292Y-34561622D01*
X25788554Y-34638287D01*
X23606087Y-36820754D01*
X23529422Y-36935492D01*
X23476621Y-37062967D01*
X23476618Y-37062977D01*
X23449700Y-37198303D01*
X23449700Y-37198306D01*
X23449700Y-37336294D01*
X23449700Y-37336296D01*
X23449699Y-37336296D01*
X23476618Y-37471622D01*
X23476621Y-37471632D01*
X23529422Y-37599107D01*
X23606087Y-37713845D01*
X23703654Y-37811412D01*
X23818392Y-37888077D01*
X23945867Y-37940878D01*
X23945872Y-37940880D01*
X23945876Y-37940880D01*
X23945877Y-37940881D01*
X24081203Y-37967800D01*
X24081206Y-37967800D01*
X24219196Y-37967800D01*
X24310240Y-37949689D01*
X24354528Y-37940880D01*
X24418269Y-37914477D01*
X24482007Y-37888077D01*
X24482008Y-37888076D01*
X24482011Y-37888075D01*
X24596743Y-37811414D01*
X26488938Y-35919219D01*
X26550261Y-35885734D01*
X26576619Y-35882900D01*
X31962782Y-35882900D01*
X32029821Y-35902585D01*
X32050458Y-35919214D01*
X32120658Y-35989414D01*
X32120659Y-35989415D01*
X32235382Y-36066071D01*
X32235386Y-36066073D01*
X32235389Y-36066075D01*
X32310066Y-36097007D01*
X32362871Y-36118880D01*
X32389791Y-36124234D01*
X32486830Y-36143537D01*
X32498206Y-36145800D01*
X32498207Y-36145800D01*
X32636193Y-36145800D01*
X32637281Y-36145800D01*
X32666721Y-36154444D01*
X32696708Y-36160968D01*
X32701723Y-36164722D01*
X32704320Y-36165485D01*
X32724962Y-36182119D01*
X32780662Y-36237819D01*
X32814147Y-36299142D01*
X32809163Y-36368834D01*
X32767291Y-36424767D01*
X32701827Y-36449184D01*
X32692981Y-36449500D01*
X32295730Y-36449500D01*
X32265300Y-36452353D01*
X32265298Y-36452353D01*
X32137119Y-36497206D01*
X32137117Y-36497207D01*
X32027850Y-36577850D01*
X31947207Y-36687117D01*
X31947206Y-36687119D01*
X31902353Y-36815298D01*
X31902353Y-36815300D01*
X31899500Y-36845730D01*
X31899500Y-37254269D01*
X31902353Y-37284699D01*
X31902353Y-37284701D01*
X31932548Y-37370990D01*
X31947207Y-37412882D01*
X31959704Y-37429815D01*
X31975610Y-37451367D01*
X31983649Y-37473379D01*
X31995755Y-37493440D01*
X31995411Y-37505584D01*
X31999580Y-37516997D01*
X31994443Y-37539858D01*
X31993782Y-37563282D01*
X31985608Y-37579182D01*
X31984264Y-37585167D01*
X31978219Y-37594959D01*
X31976937Y-37596834D01*
X31947207Y-37637118D01*
X31944894Y-37643727D01*
X31935716Y-37657159D01*
X31913898Y-37675010D01*
X31894235Y-37695215D01*
X31886829Y-37697158D01*
X31881641Y-37701404D01*
X31862084Y-37703654D01*
X31833336Y-37711200D01*
X30091184Y-37711200D01*
X30029184Y-37694587D01*
X30014687Y-37686217D01*
X30014686Y-37686216D01*
X29957062Y-37670776D01*
X29874674Y-37648700D01*
X29729726Y-37648700D01*
X29654914Y-37668746D01*
X29589713Y-37686216D01*
X29589712Y-37686217D01*
X29464189Y-37758687D01*
X29464184Y-37758691D01*
X29411759Y-37811116D01*
X29350436Y-37844600D01*
X29291987Y-37843209D01*
X29166557Y-37809600D01*
X29008443Y-37809600D01*
X28855716Y-37850523D01*
X28855709Y-37850526D01*
X28718790Y-37929575D01*
X28718782Y-37929581D01*
X28606981Y-38041382D01*
X28606975Y-38041390D01*
X28527926Y-38178309D01*
X28527923Y-38178316D01*
X28487000Y-38331043D01*
X28487000Y-38489157D01*
X28527365Y-38639801D01*
X28530027Y-38649736D01*
X28529332Y-38649922D01*
X28537000Y-38688462D01*
X28537000Y-41015923D01*
X28517315Y-41082962D01*
X28487927Y-41114726D01*
X28432076Y-41157079D01*
X28432074Y-41157082D01*
X28340639Y-41277656D01*
X28285122Y-41418438D01*
X28280094Y-41460314D01*
X28274500Y-41506898D01*
X28274500Y-42493102D01*
X28276888Y-42512984D01*
X28285122Y-42581561D01*
X28340639Y-42722343D01*
X28432077Y-42842922D01*
X28552656Y-42934360D01*
X28552657Y-42934360D01*
X28552658Y-42934361D01*
X28693436Y-42989877D01*
X28781898Y-43000500D01*
X28781903Y-43000500D01*
X29393097Y-43000500D01*
X29393102Y-43000500D01*
X29481564Y-42989877D01*
X29622342Y-42934361D01*
X29742922Y-42842922D01*
X29834361Y-42722342D01*
X29884646Y-42594826D01*
X29927551Y-42539685D01*
X29993459Y-42516492D01*
X30061443Y-42532612D01*
X30109920Y-42582929D01*
X30115348Y-42594814D01*
X30146409Y-42673578D01*
X30165639Y-42722343D01*
X30257077Y-42842922D01*
X30377656Y-42934360D01*
X30377657Y-42934360D01*
X30377658Y-42934361D01*
X30518436Y-42989877D01*
X30606898Y-43000500D01*
X30606903Y-43000500D01*
X31218097Y-43000500D01*
X31218102Y-43000500D01*
X31306564Y-42989877D01*
X31447342Y-42934361D01*
X31567922Y-42842922D01*
X31659361Y-42722342D01*
X31696167Y-42629008D01*
X31739072Y-42573866D01*
X31804980Y-42550673D01*
X31811521Y-42550500D01*
X32984872Y-42550500D01*
X32984874Y-42550500D01*
X32984875Y-42550500D01*
X33124885Y-42512984D01*
X33159322Y-42493102D01*
X33250415Y-42440510D01*
X33621930Y-42068995D01*
X40849499Y-42068995D01*
X40876418Y-42204322D01*
X40876421Y-42204332D01*
X40929221Y-42331804D01*
X40929228Y-42331817D01*
X41005885Y-42446541D01*
X41005888Y-42446545D01*
X41103454Y-42544111D01*
X41103458Y-42544114D01*
X41218182Y-42620771D01*
X41218195Y-42620778D01*
X41345667Y-42673578D01*
X41345672Y-42673580D01*
X41345676Y-42673580D01*
X41345677Y-42673581D01*
X41481004Y-42700500D01*
X41481007Y-42700500D01*
X41618993Y-42700500D01*
X41778107Y-42700500D01*
X41845146Y-42720185D01*
X41890901Y-42772989D01*
X41901282Y-42810217D01*
X41902415Y-42819992D01*
X41947793Y-42922764D01*
X41947794Y-42922765D01*
X42027235Y-43002206D01*
X42130009Y-43047585D01*
X42155135Y-43050500D01*
X43175500Y-43050499D01*
X43242539Y-43070183D01*
X43288294Y-43122987D01*
X43299500Y-43174499D01*
X43299500Y-43331006D01*
X43299500Y-43468994D01*
X43299500Y-43468996D01*
X43299499Y-43468996D01*
X43326418Y-43604322D01*
X43326421Y-43604332D01*
X43379222Y-43731807D01*
X43455887Y-43846545D01*
X44153454Y-44544112D01*
X44268190Y-44620776D01*
X44366790Y-44661617D01*
X44395671Y-44673580D01*
X44395672Y-44673580D01*
X44395677Y-44673582D01*
X44422545Y-44678925D01*
X44422551Y-44678926D01*
X44422591Y-44678934D01*
X44512937Y-44696905D01*
X44531006Y-44700500D01*
X44531007Y-44700500D01*
X51723807Y-44700500D01*
X51861793Y-44700500D01*
X54163506Y-44700500D01*
X54230545Y-44720185D01*
X54251182Y-44736814D01*
X54330345Y-44815977D01*
X54502402Y-44930941D01*
X54693580Y-45010130D01*
X54896530Y-45050499D01*
X54896534Y-45050500D01*
X54896535Y-45050500D01*
X55103466Y-45050500D01*
X55103467Y-45050499D01*
X55306420Y-45010130D01*
X55497598Y-44930941D01*
X55669655Y-44815977D01*
X55815977Y-44669655D01*
X55930941Y-44497598D01*
X56010130Y-44306420D01*
X56050500Y-44103465D01*
X56050500Y-43896535D01*
X56010130Y-43693580D01*
X55930941Y-43502402D01*
X55815977Y-43330345D01*
X55815975Y-43330342D01*
X55669657Y-43184024D01*
X55583626Y-43126541D01*
X55497598Y-43069059D01*
X55453553Y-43050815D01*
X55306420Y-42989870D01*
X55306412Y-42989868D01*
X55103469Y-42949500D01*
X55103465Y-42949500D01*
X54896535Y-42949500D01*
X54896530Y-42949500D01*
X54693587Y-42989868D01*
X54693579Y-42989870D01*
X54502403Y-43069058D01*
X54493163Y-43075232D01*
X54330345Y-43184023D01*
X54251185Y-43263182D01*
X54189865Y-43296666D01*
X54163506Y-43299500D01*
X44941519Y-43299500D01*
X44912078Y-43290855D01*
X44882092Y-43284332D01*
X44877076Y-43280577D01*
X44874480Y-43279815D01*
X44853838Y-43263181D01*
X44852837Y-43262180D01*
X44819352Y-43200857D01*
X44824336Y-43131165D01*
X44866208Y-43075232D01*
X44931672Y-43050815D01*
X44940494Y-43050499D01*
X45844864Y-43050499D01*
X45844879Y-43050497D01*
X45844882Y-43050497D01*
X45869987Y-43047586D01*
X45869988Y-43047585D01*
X45869991Y-43047585D01*
X45972765Y-43002206D01*
X46052206Y-42922765D01*
X46097585Y-42819991D01*
X46098720Y-42810208D01*
X46126001Y-42745884D01*
X46183727Y-42706520D01*
X46221894Y-42700500D01*
X46381007Y-42700500D01*
X47542034Y-42700500D01*
X47589485Y-42709938D01*
X47709572Y-42759680D01*
X47709576Y-42759680D01*
X47709577Y-42759681D01*
X47844903Y-42786600D01*
X47844906Y-42786600D01*
X47982896Y-42786600D01*
X48073942Y-42768489D01*
X48118229Y-42759680D01*
X48245711Y-42706875D01*
X48360443Y-42630214D01*
X48458014Y-42532643D01*
X48458015Y-42532642D01*
X49903838Y-41086819D01*
X49965161Y-41053334D01*
X49991519Y-41050500D01*
X50103466Y-41050500D01*
X50103467Y-41050499D01*
X50137764Y-41043677D01*
X54309873Y-41043677D01*
X54309873Y-41043678D01*
X54344858Y-41069096D01*
X54520164Y-41158418D01*
X54707294Y-41219221D01*
X54901618Y-41250000D01*
X55098382Y-41250000D01*
X55292705Y-41219221D01*
X55479835Y-41158418D01*
X55655143Y-41069095D01*
X55690125Y-41043678D01*
X55690126Y-41043678D01*
X55000001Y-40353553D01*
X55000000Y-40353553D01*
X54309873Y-41043677D01*
X50137764Y-41043677D01*
X50306420Y-41010130D01*
X50497598Y-40930941D01*
X50669655Y-40815977D01*
X50815977Y-40669655D01*
X50930941Y-40497598D01*
X51010130Y-40306420D01*
X51050500Y-40103465D01*
X51050500Y-39901617D01*
X53750000Y-39901617D01*
X53750000Y-40098382D01*
X53780778Y-40292705D01*
X53841581Y-40479835D01*
X53930905Y-40655145D01*
X53956319Y-40690125D01*
X53956320Y-40690125D01*
X54646446Y-40000000D01*
X54646446Y-39999999D01*
X55353553Y-39999999D01*
X55353553Y-40000000D01*
X56043678Y-40690126D01*
X56043678Y-40690125D01*
X56069095Y-40655143D01*
X56158418Y-40479835D01*
X56219221Y-40292705D01*
X56250000Y-40098382D01*
X56250000Y-39901617D01*
X56219221Y-39707294D01*
X56158418Y-39520164D01*
X56069096Y-39344858D01*
X56043678Y-39309873D01*
X56043677Y-39309873D01*
X55353553Y-39999999D01*
X54646446Y-39999999D01*
X53956320Y-39309872D01*
X53956320Y-39309873D01*
X53930902Y-39344859D01*
X53930899Y-39344863D01*
X53841582Y-39520161D01*
X53780778Y-39707294D01*
X53750000Y-39901617D01*
X51050500Y-39901617D01*
X51050500Y-39896535D01*
X51010130Y-39693580D01*
X50930941Y-39502402D01*
X50815977Y-39330345D01*
X50815975Y-39330342D01*
X50669658Y-39184025D01*
X50669650Y-39184019D01*
X50553979Y-39106730D01*
X50553905Y-39106682D01*
X50516449Y-39081655D01*
X50497598Y-39069059D01*
X50489341Y-39065639D01*
X50306420Y-38989870D01*
X50306412Y-38989868D01*
X50137755Y-38956320D01*
X54309872Y-38956320D01*
X55000000Y-39646446D01*
X55000001Y-39646446D01*
X55690125Y-38956320D01*
X55690125Y-38956319D01*
X55655145Y-38930905D01*
X55479835Y-38841581D01*
X55292705Y-38780778D01*
X55098382Y-38750000D01*
X54901618Y-38750000D01*
X54707294Y-38780778D01*
X54520161Y-38841582D01*
X54344863Y-38930899D01*
X54344859Y-38930902D01*
X54309873Y-38956320D01*
X54309872Y-38956320D01*
X50137755Y-38956320D01*
X50103469Y-38949500D01*
X50103465Y-38949500D01*
X49896535Y-38949500D01*
X49896530Y-38949500D01*
X49693587Y-38989868D01*
X49693579Y-38989870D01*
X49502403Y-39069058D01*
X49330342Y-39184024D01*
X49184024Y-39330342D01*
X49069058Y-39502403D01*
X48989870Y-39693579D01*
X48989868Y-39693587D01*
X48949500Y-39896530D01*
X48949500Y-40008481D01*
X48929815Y-40075520D01*
X48913181Y-40096162D01*
X47746162Y-41263181D01*
X47684839Y-41296666D01*
X47658481Y-41299500D01*
X46221893Y-41299500D01*
X46154854Y-41279815D01*
X46109099Y-41227011D01*
X46098718Y-41189783D01*
X46098686Y-41189505D01*
X46097585Y-41180009D01*
X46052206Y-41077235D01*
X45972765Y-40997794D01*
X45972763Y-40997793D01*
X45869992Y-40952415D01*
X45844865Y-40949500D01*
X44755143Y-40949500D01*
X44755117Y-40949502D01*
X44730014Y-40952413D01*
X44730010Y-40952414D01*
X44700083Y-40965628D01*
X44630804Y-40974697D01*
X44599915Y-40965627D01*
X44569992Y-40952415D01*
X44544865Y-40949500D01*
X43455143Y-40949500D01*
X43455117Y-40949502D01*
X43430014Y-40952413D01*
X43430010Y-40952414D01*
X43400083Y-40965628D01*
X43330804Y-40974697D01*
X43299915Y-40965627D01*
X43269992Y-40952415D01*
X43244865Y-40949500D01*
X42155143Y-40949500D01*
X42155117Y-40949502D01*
X42130012Y-40952413D01*
X42130008Y-40952415D01*
X42027235Y-40997793D01*
X41947794Y-41077234D01*
X41902415Y-41180006D01*
X41902415Y-41180008D01*
X41901280Y-41189792D01*
X41873999Y-41254116D01*
X41816273Y-41293480D01*
X41778106Y-41299500D01*
X41481005Y-41299500D01*
X41345677Y-41326418D01*
X41345667Y-41326421D01*
X41218195Y-41379221D01*
X41218182Y-41379228D01*
X41103458Y-41455885D01*
X41103454Y-41455888D01*
X41005888Y-41553454D01*
X41005885Y-41553458D01*
X40929228Y-41668182D01*
X40929221Y-41668195D01*
X40876421Y-41795667D01*
X40876418Y-41795677D01*
X40849500Y-41931004D01*
X40849500Y-41931007D01*
X40849500Y-42068993D01*
X40849500Y-42068995D01*
X40849499Y-42068995D01*
X33621930Y-42068995D01*
X35578010Y-40112914D01*
X35650484Y-39987385D01*
X35688000Y-39847374D01*
X35688000Y-39702426D01*
X35688000Y-39651969D01*
X35707685Y-39584930D01*
X35760489Y-39539175D01*
X35771025Y-39534934D01*
X35862882Y-39502793D01*
X35972150Y-39422150D01*
X36052793Y-39312882D01*
X36081487Y-39230880D01*
X36097646Y-39184701D01*
X36097646Y-39184699D01*
X36100500Y-39154269D01*
X36100500Y-38816887D01*
X36109144Y-38787446D01*
X36115668Y-38757460D01*
X36119422Y-38752444D01*
X36120185Y-38749848D01*
X36136819Y-38729206D01*
X36279206Y-38586819D01*
X36340529Y-38553334D01*
X36366887Y-38550500D01*
X38188479Y-38550500D01*
X38255518Y-38570185D01*
X38301273Y-38622989D01*
X38303825Y-38628990D01*
X38312007Y-38649736D01*
X38340639Y-38722343D01*
X38432077Y-38842922D01*
X38552656Y-38934360D01*
X38552657Y-38934360D01*
X38552658Y-38934361D01*
X38693436Y-38989877D01*
X38781898Y-39000500D01*
X38781903Y-39000500D01*
X39393097Y-39000500D01*
X39393102Y-39000500D01*
X39481564Y-38989877D01*
X39622342Y-38934361D01*
X39742922Y-38842922D01*
X39834361Y-38722342D01*
X39884646Y-38594826D01*
X39927551Y-38539685D01*
X39993459Y-38516492D01*
X40061443Y-38532612D01*
X40109920Y-38582929D01*
X40115348Y-38594814D01*
X40137007Y-38649736D01*
X40165639Y-38722343D01*
X40257077Y-38842922D01*
X40377656Y-38934360D01*
X40377657Y-38934360D01*
X40377658Y-38934361D01*
X40518436Y-38989877D01*
X40606898Y-39000500D01*
X40606903Y-39000500D01*
X41218097Y-39000500D01*
X41218102Y-39000500D01*
X41306564Y-38989877D01*
X41447342Y-38934361D01*
X41567922Y-38842922D01*
X41659361Y-38722342D01*
X41714877Y-38581564D01*
X41725500Y-38493102D01*
X41725500Y-38016886D01*
X41745185Y-37949847D01*
X41761819Y-37929205D01*
X44104205Y-35586819D01*
X44165528Y-35553334D01*
X44191886Y-35550500D01*
X49038127Y-35550500D01*
X49105166Y-35570185D01*
X49141229Y-35605609D01*
X49184024Y-35669657D01*
X49330342Y-35815975D01*
X49330345Y-35815977D01*
X49502402Y-35930941D01*
X49693580Y-36010130D01*
X49896530Y-36050499D01*
X49896534Y-36050500D01*
X49896535Y-36050500D01*
X50103466Y-36050500D01*
X50103467Y-36050499D01*
X50306420Y-36010130D01*
X50497598Y-35930941D01*
X50669655Y-35815977D01*
X50815977Y-35669655D01*
X50930941Y-35497598D01*
X51010130Y-35306420D01*
X51050500Y-35103465D01*
X51050500Y-34896535D01*
X51035472Y-34820986D01*
X51041699Y-34751397D01*
X51069406Y-34709117D01*
X51704910Y-34073614D01*
X51777384Y-33948085D01*
X51814900Y-33808074D01*
X51814900Y-33663126D01*
X51814900Y-29142325D01*
X51782516Y-29021468D01*
X51784179Y-28951622D01*
X51823341Y-28893760D01*
X51887569Y-28866255D01*
X51956471Y-28877841D01*
X51989972Y-28901697D01*
X53132705Y-30044430D01*
X53154537Y-30077105D01*
X53155159Y-30076746D01*
X53238277Y-30220712D01*
X53238279Y-30220715D01*
X53238280Y-30220716D01*
X53350084Y-30332520D01*
X53350086Y-30332521D01*
X53350090Y-30332524D01*
X53471294Y-30402500D01*
X53487016Y-30411577D01*
X53639743Y-30452500D01*
X53639745Y-30452500D01*
X53797854Y-30452500D01*
X53797857Y-30452500D01*
X53920115Y-30419741D01*
X53989961Y-30421404D01*
X54047824Y-30460566D01*
X54066766Y-30492062D01*
X54069058Y-30497597D01*
X54184024Y-30669657D01*
X54330342Y-30815975D01*
X54330345Y-30815977D01*
X54502402Y-30930941D01*
X54693580Y-31010130D01*
X54855386Y-31042315D01*
X54896530Y-31050499D01*
X54896534Y-31050500D01*
X54896535Y-31050500D01*
X55103466Y-31050500D01*
X55103467Y-31050499D01*
X55306420Y-31010130D01*
X55484547Y-30936347D01*
X55554016Y-30928878D01*
X55616496Y-30960153D01*
X55652148Y-31020242D01*
X55656000Y-31050908D01*
X55656000Y-33301981D01*
X55636315Y-33369020D01*
X55619681Y-33389662D01*
X55096162Y-33913181D01*
X55034839Y-33946666D01*
X55008481Y-33949500D01*
X54896530Y-33949500D01*
X54693587Y-33989868D01*
X54693579Y-33989870D01*
X54502403Y-34069058D01*
X54330342Y-34184024D01*
X54184024Y-34330342D01*
X54069058Y-34502403D01*
X53989870Y-34693579D01*
X53989868Y-34693587D01*
X53949500Y-34896530D01*
X53949500Y-35103469D01*
X53989868Y-35306412D01*
X53989870Y-35306420D01*
X54069058Y-35497596D01*
X54184024Y-35669657D01*
X54330342Y-35815975D01*
X54330345Y-35815977D01*
X54502402Y-35930941D01*
X54693580Y-36010130D01*
X54896530Y-36050499D01*
X54896534Y-36050500D01*
X54896535Y-36050500D01*
X55103466Y-36050500D01*
X55103467Y-36050499D01*
X55306420Y-36010130D01*
X55497598Y-35930941D01*
X55669655Y-35815977D01*
X55815977Y-35669655D01*
X55930941Y-35497598D01*
X56010130Y-35306420D01*
X56050500Y-35103465D01*
X56050500Y-34991519D01*
X56070185Y-34924480D01*
X56086819Y-34903838D01*
X56900612Y-34090045D01*
X56900614Y-34090043D01*
X56977275Y-33975311D01*
X56988553Y-33948085D01*
X57018411Y-33876000D01*
X57030080Y-33847828D01*
X57048779Y-33753823D01*
X57057000Y-33712496D01*
X57057000Y-29358205D01*
X57044898Y-29297368D01*
X57042890Y-29287274D01*
X57042890Y-29287271D01*
X57030081Y-29222878D01*
X57030080Y-29222872D01*
X56977275Y-29095389D01*
X56900614Y-28980657D01*
X56900612Y-28980654D01*
X51923839Y-24003881D01*
X51890354Y-23942558D01*
X51895338Y-23872866D01*
X51937210Y-23816933D01*
X52002674Y-23792516D01*
X52011520Y-23792200D01*
X61370772Y-23792200D01*
X61370774Y-23792200D01*
X61370775Y-23792200D01*
X61510785Y-23754684D01*
X61599036Y-23703732D01*
X61643355Y-23678146D01*
X61644798Y-23680645D01*
X61661887Y-23674032D01*
X61691422Y-23661052D01*
X61695288Y-23661107D01*
X61696956Y-23660462D01*
X61726713Y-23661556D01*
X61730586Y-23662169D01*
X61730591Y-23662171D01*
X61805479Y-23674032D01*
X61890679Y-23687527D01*
X61953813Y-23717457D01*
X61990744Y-23776769D01*
X61989746Y-23846631D01*
X61951136Y-23904864D01*
X61890678Y-23932473D01*
X61730589Y-23957829D01*
X61558363Y-24013787D01*
X61558360Y-24013788D01*
X61397002Y-24096006D01*
X61250505Y-24202441D01*
X61250500Y-24202445D01*
X61122445Y-24330500D01*
X61122441Y-24330505D01*
X61016006Y-24477002D01*
X60933788Y-24638360D01*
X60933787Y-24638363D01*
X60877829Y-24810589D01*
X60849500Y-24989448D01*
X60849500Y-25170551D01*
X60877829Y-25349410D01*
X60933787Y-25521636D01*
X60933788Y-25521639D01*
X60989664Y-25631300D01*
X61014263Y-25679578D01*
X61016006Y-25682997D01*
X61122441Y-25829494D01*
X61122445Y-25829499D01*
X61250500Y-25957554D01*
X61250505Y-25957558D01*
X61326148Y-26012515D01*
X61397006Y-26063996D01*
X61487535Y-26110123D01*
X61558360Y-26146211D01*
X61558363Y-26146212D01*
X61644476Y-26174191D01*
X61730591Y-26202171D01*
X61813429Y-26215291D01*
X61909449Y-26230500D01*
X61909454Y-26230500D01*
X62090551Y-26230500D01*
X62177259Y-26216765D01*
X62269409Y-26202171D01*
X62435424Y-26148230D01*
X62441636Y-26146212D01*
X62441639Y-26146211D01*
X62602994Y-26063996D01*
X62749501Y-25957553D01*
X62877553Y-25829501D01*
X62983996Y-25682994D01*
X63066211Y-25521639D01*
X63122171Y-25349409D01*
X63138650Y-25245366D01*
X63150500Y-25170551D01*
X63150500Y-24989448D01*
X63121904Y-24808906D01*
X63130858Y-24739613D01*
X63156693Y-24701830D01*
X63789910Y-24068615D01*
X63862384Y-23943085D01*
X63872815Y-23904157D01*
X63873062Y-23903238D01*
X63881199Y-23872866D01*
X63899900Y-23803075D01*
X63899900Y-17848725D01*
X63862384Y-17708715D01*
X63849392Y-17686212D01*
X63849390Y-17686208D01*
X63849390Y-17686209D01*
X63789910Y-17583185D01*
X50085436Y-3878711D01*
X62149500Y-3878711D01*
X62149500Y-4121288D01*
X62180992Y-4360505D01*
X62181162Y-4361789D01*
X62212462Y-4478600D01*
X62243947Y-4596104D01*
X62318049Y-4775001D01*
X62336776Y-4820212D01*
X62458064Y-5030289D01*
X62458066Y-5030292D01*
X62458067Y-5030293D01*
X62605733Y-5222736D01*
X62605739Y-5222743D01*
X62777256Y-5394260D01*
X62777262Y-5394265D01*
X62969711Y-5541936D01*
X63179788Y-5663224D01*
X63403900Y-5756054D01*
X63638211Y-5818838D01*
X63818586Y-5842584D01*
X63878711Y-5850500D01*
X63878712Y-5850500D01*
X64121289Y-5850500D01*
X64169388Y-5844167D01*
X64361789Y-5818838D01*
X64596100Y-5756054D01*
X64820212Y-5663224D01*
X65030289Y-5541936D01*
X65222738Y-5394265D01*
X65394265Y-5222738D01*
X65541936Y-5030289D01*
X65663224Y-4820212D01*
X65756054Y-4596100D01*
X65818838Y-4361789D01*
X65850500Y-4121288D01*
X65850500Y-3878712D01*
X65818838Y-3638211D01*
X65756054Y-3403900D01*
X65663224Y-3179788D01*
X65541936Y-2969711D01*
X65394265Y-2777262D01*
X65394260Y-2777256D01*
X65222743Y-2605739D01*
X65222736Y-2605733D01*
X65030293Y-2458067D01*
X65030292Y-2458066D01*
X65030289Y-2458064D01*
X64820212Y-2336776D01*
X64820205Y-2336773D01*
X64596104Y-2243947D01*
X64361785Y-2181161D01*
X64121289Y-2149500D01*
X64121288Y-2149500D01*
X63878712Y-2149500D01*
X63878711Y-2149500D01*
X63638214Y-2181161D01*
X63403895Y-2243947D01*
X63179794Y-2336773D01*
X63179785Y-2336777D01*
X62969706Y-2458067D01*
X62777263Y-2605733D01*
X62777256Y-2605739D01*
X62605739Y-2777256D01*
X62605733Y-2777263D01*
X62458067Y-2969706D01*
X62336777Y-3179785D01*
X62336773Y-3179794D01*
X62243947Y-3403895D01*
X62181161Y-3638214D01*
X62149500Y-3878711D01*
X50085436Y-3878711D01*
X49570315Y-3363590D01*
X49444785Y-3291116D01*
X49444786Y-3291116D01*
X49409782Y-3281737D01*
X49304775Y-3253600D01*
X16693425Y-3253600D01*
X16588417Y-3281737D01*
X16553414Y-3291116D01*
X16427886Y-3363589D01*
X16427883Y-3363591D01*
X11689358Y-8102116D01*
X11628035Y-8135601D01*
X11558343Y-8130617D01*
X11502410Y-8088745D01*
X11477993Y-8023281D01*
X11483746Y-7976117D01*
X11489955Y-7957007D01*
X11502171Y-7919409D01*
X11516765Y-7827259D01*
X11530500Y-7740551D01*
X11530500Y-7559448D01*
X11513354Y-7451200D01*
X11502171Y-7380591D01*
X11448208Y-7214506D01*
X11446212Y-7208363D01*
X11446211Y-7208360D01*
X11407192Y-7131782D01*
X11363996Y-7047006D01*
X11300318Y-6959360D01*
X11257558Y-6900505D01*
X11257554Y-6900500D01*
X11129499Y-6772445D01*
X11129494Y-6772441D01*
X10982997Y-6666006D01*
X10982996Y-6666005D01*
X10982994Y-6666004D01*
X10907799Y-6627690D01*
X10821639Y-6583788D01*
X10821636Y-6583787D01*
X10649410Y-6527829D01*
X10489321Y-6502473D01*
X10426186Y-6472544D01*
X10389255Y-6413232D01*
X10390253Y-6343370D01*
X10428863Y-6285137D01*
X10489321Y-6257527D01*
X10559425Y-6246422D01*
X10649409Y-6232171D01*
X10821639Y-6176211D01*
X10982994Y-6093996D01*
X11129501Y-5987553D01*
X11257553Y-5859501D01*
X11363996Y-5712994D01*
X11446211Y-5551639D01*
X11502171Y-5379409D01*
X11521338Y-5258393D01*
X11530500Y-5200551D01*
X11530500Y-5019448D01*
X11502179Y-4840643D01*
X11502171Y-4840591D01*
X11446211Y-4668361D01*
X11446211Y-4668360D01*
X11393997Y-4565886D01*
X11363996Y-4507006D01*
X11311874Y-4435266D01*
X11257558Y-4360505D01*
X11257554Y-4360500D01*
X11129499Y-4232445D01*
X11129494Y-4232441D01*
X10982997Y-4126006D01*
X10982996Y-4126005D01*
X10982994Y-4126004D01*
X10931300Y-4099664D01*
X10821639Y-4043788D01*
X10821636Y-4043787D01*
X10649410Y-3987829D01*
X10470551Y-3959500D01*
X10470546Y-3959500D01*
X10289454Y-3959500D01*
X10289449Y-3959500D01*
X10110589Y-3987829D01*
X9938363Y-4043787D01*
X9938360Y-4043788D01*
X9777002Y-4126006D01*
X9630505Y-4232441D01*
X9630500Y-4232445D01*
X9502445Y-4360500D01*
X9502441Y-4360505D01*
X9396006Y-4507002D01*
X9313788Y-4668360D01*
X9313787Y-4668363D01*
X9257829Y-4840589D01*
X9229500Y-5019448D01*
X9229500Y-5200551D01*
X9257829Y-5379410D01*
X9313787Y-5551636D01*
X9313788Y-5551639D01*
X9396006Y-5712997D01*
X9502441Y-5859494D01*
X9502445Y-5859499D01*
X9630500Y-5987554D01*
X9630505Y-5987558D01*
X9758287Y-6080396D01*
X9777006Y-6093996D01*
X9853094Y-6132765D01*
X9938360Y-6176211D01*
X9938363Y-6176212D01*
X9981283Y-6190157D01*
X10110591Y-6232171D01*
X10183639Y-6243740D01*
X10270678Y-6257527D01*
X10333813Y-6287456D01*
X10370744Y-6346768D01*
X10369746Y-6416631D01*
X10331136Y-6474863D01*
X10270678Y-6502473D01*
X10110589Y-6527829D01*
X9938363Y-6583787D01*
X9938360Y-6583788D01*
X9777002Y-6666006D01*
X9630505Y-6772441D01*
X9630500Y-6772445D01*
X9502445Y-6900500D01*
X9502441Y-6900505D01*
X9396006Y-7047002D01*
X9313788Y-7208360D01*
X9313787Y-7208363D01*
X9257829Y-7380589D01*
X9229500Y-7559448D01*
X9229500Y-7740551D01*
X9257829Y-7919410D01*
X9313787Y-8091636D01*
X9313788Y-8091639D01*
X9396006Y-8252997D01*
X9502441Y-8399494D01*
X9502445Y-8399499D01*
X9630500Y-8527554D01*
X9630505Y-8527558D01*
X9758287Y-8620396D01*
X9777006Y-8633996D01*
X9882484Y-8687740D01*
X9938360Y-8716211D01*
X9938363Y-8716212D01*
X10024476Y-8744191D01*
X10110591Y-8772171D01*
X10183639Y-8783740D01*
X10270678Y-8797527D01*
X10333813Y-8827456D01*
X10370744Y-8886768D01*
X10369746Y-8956631D01*
X10331136Y-9014863D01*
X10270678Y-9042473D01*
X10110589Y-9067829D01*
X9938363Y-9123787D01*
X9938360Y-9123788D01*
X9777002Y-9206006D01*
X9630505Y-9312441D01*
X9630500Y-9312445D01*
X9502445Y-9440500D01*
X9502441Y-9440505D01*
X9396006Y-9587002D01*
X9313788Y-9748360D01*
X9313787Y-9748363D01*
X9257829Y-9920589D01*
X9229500Y-10099448D01*
X9229500Y-10280551D01*
X9257829Y-10459410D01*
X9313787Y-10631636D01*
X9313788Y-10631639D01*
X9369664Y-10741300D01*
X9394733Y-10790500D01*
X9396006Y-10792997D01*
X9502441Y-10939494D01*
X9502445Y-10939499D01*
X9630500Y-11067554D01*
X9630505Y-11067558D01*
X9758287Y-11160396D01*
X9777006Y-11173996D01*
X9882484Y-11227740D01*
X9938360Y-11256211D01*
X9938363Y-11256212D01*
X10024476Y-11284191D01*
X10110591Y-11312171D01*
X10183639Y-11323740D01*
X10270678Y-11337527D01*
X10333813Y-11367456D01*
X10370744Y-11426768D01*
X10369746Y-11496631D01*
X10331136Y-11554863D01*
X10270678Y-11582473D01*
X10110589Y-11607829D01*
X9938363Y-11663787D01*
X9938360Y-11663788D01*
X9777002Y-11746006D01*
X9630505Y-11852441D01*
X9630500Y-11852445D01*
X9502445Y-11980500D01*
X9502441Y-11980505D01*
X9396006Y-12127002D01*
X9313788Y-12288360D01*
X9313787Y-12288363D01*
X9257829Y-12460589D01*
X9229500Y-12639448D01*
X9229500Y-12820551D01*
X9257829Y-12999410D01*
X9313787Y-13171636D01*
X9313788Y-13171639D01*
X9353976Y-13250510D01*
X9394733Y-13330500D01*
X9396006Y-13332997D01*
X9502441Y-13479494D01*
X9502445Y-13479499D01*
X9630500Y-13607554D01*
X9630505Y-13607558D01*
X9758287Y-13700396D01*
X9777006Y-13713996D01*
X9882484Y-13767740D01*
X9938360Y-13796211D01*
X9938363Y-13796212D01*
X10024476Y-13824191D01*
X10110591Y-13852171D01*
X10183639Y-13863740D01*
X10270678Y-13877527D01*
X10333813Y-13907456D01*
X10370744Y-13966768D01*
X10369746Y-14036631D01*
X10331136Y-14094863D01*
X10270678Y-14122473D01*
X10110589Y-14147829D01*
X9938363Y-14203787D01*
X9938360Y-14203788D01*
X9777002Y-14286006D01*
X9630505Y-14392441D01*
X9630500Y-14392445D01*
X9502445Y-14520500D01*
X9502441Y-14520505D01*
X9396006Y-14667002D01*
X9313788Y-14828360D01*
X9313787Y-14828363D01*
X9257829Y-15000589D01*
X9229500Y-15179448D01*
X9229500Y-15360551D01*
X9257829Y-15539410D01*
X9313787Y-15711636D01*
X9313788Y-15711639D01*
X9344667Y-15772241D01*
X9394733Y-15870500D01*
X9396006Y-15872997D01*
X9502441Y-16019494D01*
X9502445Y-16019499D01*
X9630500Y-16147554D01*
X9630505Y-16147558D01*
X9715452Y-16209275D01*
X9777006Y-16253996D01*
X9845705Y-16289000D01*
X9938360Y-16336211D01*
X9938363Y-16336212D01*
X10024476Y-16364191D01*
X10110591Y-16392171D01*
X10183639Y-16403740D01*
X10270678Y-16417527D01*
X10333813Y-16447456D01*
X10370744Y-16506768D01*
X10369746Y-16576631D01*
X10331136Y-16634863D01*
X10270678Y-16662473D01*
X10110589Y-16687829D01*
X9938363Y-16743787D01*
X9938360Y-16743788D01*
X9777002Y-16826006D01*
X9630505Y-16932441D01*
X9630500Y-16932445D01*
X9502445Y-17060500D01*
X9502441Y-17060505D01*
X9396006Y-17207002D01*
X9313788Y-17368360D01*
X9313787Y-17368363D01*
X9257829Y-17540589D01*
X9229500Y-17719448D01*
X9229500Y-17900551D01*
X9257829Y-18079410D01*
X9313787Y-18251636D01*
X9313788Y-18251639D01*
X9357463Y-18337354D01*
X9394733Y-18410500D01*
X9396006Y-18412997D01*
X9502441Y-18559494D01*
X9502445Y-18559499D01*
X9630500Y-18687554D01*
X9630505Y-18687558D01*
X9758287Y-18780396D01*
X9777006Y-18793996D01*
X9876708Y-18844797D01*
X9938360Y-18876211D01*
X9938363Y-18876212D01*
X10021900Y-18903354D01*
X10110591Y-18932171D01*
X10183639Y-18943740D01*
X10270678Y-18957527D01*
X10333813Y-18987456D01*
X10370744Y-19046768D01*
X10369746Y-19116631D01*
X10331136Y-19174863D01*
X10270678Y-19202473D01*
X10110589Y-19227829D01*
X9938363Y-19283787D01*
X9938360Y-19283788D01*
X9777002Y-19366006D01*
X9630505Y-19472441D01*
X9630500Y-19472445D01*
X9502445Y-19600500D01*
X9502441Y-19600505D01*
X9396006Y-19747002D01*
X9313788Y-19908360D01*
X9313787Y-19908363D01*
X9257829Y-20080589D01*
X9229500Y-20259448D01*
X9229500Y-20440551D01*
X9257829Y-20619410D01*
X9313787Y-20791636D01*
X9313788Y-20791639D01*
X9364913Y-20891975D01*
X9391819Y-20944781D01*
X9396006Y-20952997D01*
X9502441Y-21099494D01*
X9502445Y-21099499D01*
X9630500Y-21227554D01*
X9630505Y-21227558D01*
X9758287Y-21320396D01*
X9777006Y-21333996D01*
X9865920Y-21379300D01*
X9938360Y-21416211D01*
X9938363Y-21416212D01*
X9978645Y-21429300D01*
X10110591Y-21472171D01*
X10183639Y-21483740D01*
X10270678Y-21497527D01*
X10333813Y-21527456D01*
X10370744Y-21586768D01*
X10369746Y-21656631D01*
X10331136Y-21714863D01*
X10270678Y-21742473D01*
X10110589Y-21767829D01*
X9938363Y-21823787D01*
X9938360Y-21823788D01*
X9777002Y-21906006D01*
X9630505Y-22012441D01*
X9630500Y-22012445D01*
X9502445Y-22140500D01*
X9502441Y-22140505D01*
X9396006Y-22287002D01*
X9313788Y-22448360D01*
X9313787Y-22448363D01*
X9257829Y-22620589D01*
X9229500Y-22799448D01*
X9229500Y-22980551D01*
X9257829Y-23159410D01*
X9313787Y-23331636D01*
X9313788Y-23331639D01*
X9359836Y-23422011D01*
X9389798Y-23480815D01*
X9396006Y-23492997D01*
X9502441Y-23639494D01*
X9502445Y-23639499D01*
X9630500Y-23767554D01*
X9630505Y-23767558D01*
X9726316Y-23837168D01*
X9777006Y-23873996D01*
X9867462Y-23920086D01*
X9938360Y-23956211D01*
X9938363Y-23956212D01*
X9999371Y-23976034D01*
X10110591Y-24012171D01*
X10193429Y-24025291D01*
X10289449Y-24040500D01*
X10289454Y-24040500D01*
X10470551Y-24040500D01*
X10557259Y-24026765D01*
X10649409Y-24012171D01*
X10821639Y-23956211D01*
X10982994Y-23873996D01*
X11129501Y-23767553D01*
X11257553Y-23639501D01*
X11363996Y-23492994D01*
X11446211Y-23331639D01*
X11502171Y-23159409D01*
X11516765Y-23067259D01*
X11530500Y-22980551D01*
X11530500Y-22799448D01*
X11511579Y-22679994D01*
X11502171Y-22620591D01*
X11454003Y-22472342D01*
X11446212Y-22448363D01*
X11446211Y-22448360D01*
X11410185Y-22377656D01*
X11363996Y-22287006D01*
X11286850Y-22180823D01*
X11257558Y-22140505D01*
X11257554Y-22140500D01*
X11129499Y-22012445D01*
X11129494Y-22012441D01*
X10982997Y-21906006D01*
X10982996Y-21906005D01*
X10982994Y-21906004D01*
X10922931Y-21875400D01*
X10821639Y-21823788D01*
X10821636Y-21823787D01*
X10649410Y-21767829D01*
X10489321Y-21742473D01*
X10426186Y-21712544D01*
X10389255Y-21653232D01*
X10390253Y-21583370D01*
X10428863Y-21525137D01*
X10489321Y-21497527D01*
X10559425Y-21486422D01*
X10649409Y-21472171D01*
X10821639Y-21416211D01*
X10982994Y-21333996D01*
X11129501Y-21227553D01*
X11257553Y-21099501D01*
X11363996Y-20952994D01*
X11446211Y-20791639D01*
X11502171Y-20619409D01*
X11524628Y-20477621D01*
X11530500Y-20440551D01*
X11530500Y-20259448D01*
X11502171Y-20080590D01*
X11483745Y-20023881D01*
X11481750Y-19954040D01*
X11517830Y-19894207D01*
X11580531Y-19863379D01*
X11649945Y-19871344D01*
X11689357Y-19897882D01*
X16069795Y-24278319D01*
X16103280Y-24339642D01*
X16098296Y-24409334D01*
X16056424Y-24465267D01*
X15990960Y-24489684D01*
X15982114Y-24490000D01*
X7500000Y-24490000D01*
X500500Y-24490000D01*
X500500Y-3878711D01*
X2149500Y-3878711D01*
X2149500Y-4121288D01*
X2180992Y-4360505D01*
X2181162Y-4361789D01*
X2212462Y-4478600D01*
X2243947Y-4596104D01*
X2318049Y-4775001D01*
X2336776Y-4820212D01*
X2458064Y-5030289D01*
X2458066Y-5030292D01*
X2458067Y-5030293D01*
X2605733Y-5222736D01*
X2605739Y-5222743D01*
X2777256Y-5394260D01*
X2777262Y-5394265D01*
X2969711Y-5541936D01*
X3179788Y-5663224D01*
X3403900Y-5756054D01*
X3638211Y-5818838D01*
X3818586Y-5842584D01*
X3878711Y-5850500D01*
X3878712Y-5850500D01*
X4121289Y-5850500D01*
X4169388Y-5844167D01*
X4361789Y-5818838D01*
X4596100Y-5756054D01*
X4820212Y-5663224D01*
X5030289Y-5541936D01*
X5222738Y-5394265D01*
X5394265Y-5222738D01*
X5541936Y-5030289D01*
X5663224Y-4820212D01*
X5756054Y-4596100D01*
X5818838Y-4361789D01*
X5850500Y-4121288D01*
X5850500Y-3878712D01*
X5818838Y-3638211D01*
X5756054Y-3403900D01*
X5663224Y-3179788D01*
X5541936Y-2969711D01*
X5394265Y-2777262D01*
X5394260Y-2777256D01*
X5222743Y-2605739D01*
X5222736Y-2605733D01*
X5030293Y-2458067D01*
X5030292Y-2458066D01*
X5030289Y-2458064D01*
X4820212Y-2336776D01*
X4820205Y-2336773D01*
X4596104Y-2243947D01*
X4361785Y-2181161D01*
X4121289Y-2149500D01*
X4121288Y-2149500D01*
X3878712Y-2149500D01*
X3878711Y-2149500D01*
X3638214Y-2181161D01*
X3403895Y-2243947D01*
X3179794Y-2336773D01*
X3179785Y-2336777D01*
X2969706Y-2458067D01*
X2777263Y-2605733D01*
X2777256Y-2605739D01*
X2605739Y-2777256D01*
X2605733Y-2777263D01*
X2458067Y-2969706D01*
X2336777Y-3179785D01*
X2336773Y-3179794D01*
X2243947Y-3403895D01*
X2181161Y-3638214D01*
X2149500Y-3878711D01*
X500500Y-3878711D01*
X500500Y-624500D01*
X520185Y-557461D01*
X572989Y-511706D01*
X624500Y-500500D01*
X67375500Y-500500D01*
X67442539Y-520185D01*
G37*
%TD.AperFunction*%
%TD*%
M02*
